<svg xmlns="http://www.w3.org/2000/svg" width="68.675" height="46.696">
    <path data-name="Path 85" d="m2775.106 243.508-5.151-5.136a1.009 1.009 0 0 0-.716-.3 1.023 1.023 0 0 0-.144.029h-4.235a6.891 6.891 0 0 0-2.448-4.167l-.047-1.4a1.308 1.308 0 0 0-1.595-1.233 16.051 16.051 0 0 1-7.791-.18 11.63 11.63 0 0 0-5.071-.386 6.909 6.909 0 0 0-2.263-4.18l.008-.025a1.861 1.861 0 0 0 1.678-1.3l.419-1.284a1.9 1.9 0 0 0-1.218-2.4l-4.748-1.546a1.9 1.9 0 0 0-2.4 1.218l-.419 1.284a1.884 1.884 0 0 0 .616 2.067 6.882 6.882 0 0 0-5.963 4.713l-.413 1.263a6.332 6.332 0 0 0-3.813-1.671 5.978 5.978 0 0 0-4.106 1.291 4.975 4.975 0 0 0-1.571-2.481 5.884 5.884 0 0 0-4.272-1.129l-.829.123-.035.837a5.908 5.908 0 0 0 1.559 4.1 4.7 4.7 0 0 0 .939.707 5.347 5.347 0 0 0-1.331 1.348 6.058 6.058 0 0 0-.905 4.436h-5.218c-.011 0-.02.006-.031.006a1.01 1.01 0 0 0-.748.273l-5.762 5.476a1.072 1.072 0 0 0 .727 1.849l4.719.049V266.6h57.758v-21.2h4.023a1.115 1.115 0 0 0 .795-1.9zm-51.662-12.493a3.168 3.168 0 0 1-1.868-.834 3.344 3.344 0 0 1-.848-1.6 3.346 3.346 0 0 1 1.709.681 3.126 3.126 0 0 1 1.007 1.753zm13.809 12.362-3.468-3.244h35.064l3.253 3.244zm-22.694 2.4 11.314.118 4.329-4.329v23.007h-15.643zm-1.014-2.039-3.353-.035 3.758-3.572h14.819l-3.726 3.726zm7.875-8.924a3.991 3.991 0 0 1 3.325-1.587l.5-.013.294-.408a4.733 4.733 0 0 1 1.766-1.532 3.813 3.813 0 0 1 1.945-.376 4.682 4.682 0 0 1 3.732 2.629 5.676 5.676 0 0 1 .386 4.576h-12.465a4.152 4.152 0 0 1 .517-3.287zm20.145-9.463 2.112.689-.054.166a1.586 1.586 0 0 0 .508 1.727 4.868 4.868 0 0 1 1.79 3.229 12.021 12.021 0 0 0-1.62.606 1.308 1.308 0 0 0-.756 1.231l.05 1.473a1.1 1.1 0 0 0 .022.138 7.821 7.821 0 0 0-.994 3.493h-7.145a7.678 7.678 0 0 0-.7-5.522c-.02-.038-.044-.071-.065-.108l.836-2.561a4.849 4.849 0 0 1 4.514-3.344 1.58 1.58 0 0 0 1.46-1.088zm8.045 7.292a9.29 9.29 0 0 1 2.551.35 11.492 11.492 0 0 0-2.488-.27 12.952 12.952 0 0 0-3.685.549 11.454 11.454 0 0 1 1.783-.464 10.573 10.573 0 0 1 1.839-.163zm12.023 3.3a5.243 5.243 0 0 1 1.132 2.156h-18.1a5.736 5.736 0 0 1 .692-2.453c.021-.008.043-.01.064-.019a11.162 11.162 0 0 1 2.714-.761 9.606 9.606 0 0 1 4.312.3 15.771 15.771 0 0 0 4.694.674 19.391 19.391 0 0 0 3.9-.4 3 3 0 0 1 .592.509zm-8.246-2.618a18.459 18.459 0 0 0 6.978.116v.063a15.846 15.846 0 0 1-6.978-.173zm-21.157 31.244v-23.113l4.223 3.949h31.807v19.17zm13.21-40.091-4.509-1.471.309-1.053 4.541 1.481z" transform="translate(-2706.75 -219.908)" style="fill:#3a4354"/>
</svg>
