<svg id="Layer_1" data-name="Layer 1"
    xmlns="http://www.w3.org/2000/svg" width="165.1mm" height="86.11mm" viewBox="0 0 468 244.1">
    <defs>
        <style>
      .cls-1 {
        fill: #75b3d0;
        opacity: 0.4;
      }

      .cls-2 {
        fill: #005378;
      }

      .cls-3 {
        fill: #337593;
      }

      .cls-4 {
        fill: #e3f1fb;
      }

      .cls-19, .cls-5 {
        fill: #fff;
      }

      .cls-6 {
        fill: #f1f8fd;
      }

      .cls-7 {
        fill: #f4f9fd;
      }

      .cls-8 {
        fill: #b6c2c9;
      }

      .cls-9 {
        fill: #d3d9df;
      }

      .cls-10 {
        fill: #fdc689;
      }

      .cls-11 {
        fill: #091018;
      }

      .cls-12 {
        fill: #76594e;
      }

      .cls-13 {
        fill: #24415e;
      }

      .cls-14 {
        fill: #f79b4d;
      }

      .cls-15 {
        fill: #f58220;
      }

      .cls-16 {
        fill: #55758e;
      }

      .cls-17 {
        fill: #231f20;
      }

      .cls-18, .cls-19 {
        opacity: 0.7;
      }

      .cls-20 {
        fill: #1b3147;
      }

      .cls-21 {
        fill: #7c8d9e;
      }

      .cls-22 {
        fill: #8da0ab;
      }

      .cls-23 {
        fill: #a4b3bc;
      }

      .cls-24 {
        fill: #c5ced4;
      }

      .cls-25 {
        fill: #d3dadf;
      }

      .cls-26 {
        opacity: 0.6;
      }

      .cls-27 {
        fill: #7b868d;
      }

      .cls-28 {
        fill: #50677e;
      }

      .cls-29 {
        fill: #59433b;
      }
        </style>
    </defs>
    <title>HelixSense_Illustration01</title>
    <g>
        <rect class="cls-1" x="66.27" y="233.83" width="401.73" height="5.73" rx="1.02"/>
        <g>
            <rect class="cls-2" x="68.07" y="115.49" width="2.03" height="122.57"/>
            <path class="cls-3" d="M654.28,293.4h-399V291a2.28,2.28,0,0,1,2.28-2.27H652a2.27,2.27,0,0,1,2.27,2.27Z" transform="translate(-187.21 -177.87)"/>
            <rect class="cls-2" x="68.07" y="115.53" width="399" height="12.79"/>
            <rect class="cls-2" x="465.05" y="115.53" width="2.03" height="121.61"/>
        </g>
    </g>
    <path class="cls-1" d="M434.32,417.91c0,2.24-30.79,4.06-68.77,4.06s-68.78-1.82-68.78-4.06,30.79-4.06,68.78-4.06S434.32,415.67,434.32,417.91Z" transform="translate(-187.21 -177.87)"/>
    <g>
        <rect class="cls-4" x="202.87" y="91.61" width="20.75" height="15.73"/>
        <rect class="cls-5" x="165.63" y="26.08" width="95.24" height="68.29" rx="1.29"/>
        <rect class="cls-6" x="168.5" y="32.7" width="89.5" height="51.26"/>
        <rect class="cls-7" x="196.36" y="107.34" width="33.77" height="3.53"/>
        <rect class="cls-8" x="225.93" y="43.75" width="4.36" height="4.36"/>
        <rect class="cls-8" x="225.93" y="51.6" width="4.36" height="4.36"/>
        <rect class="cls-8" x="225.93" y="59.46" width="4.36" height="4.37"/>
        <rect class="cls-8" x="225.93" y="67.32" width="4.36" height="4.36"/>
        <g>
            <rect class="cls-9" x="236.28" y="44.28" width="17" height="0.87"/>
            <rect class="cls-9" x="233.24" y="45.31" width="20.05" height="0.87"/>
            <rect class="cls-9" x="233.24" y="46.33" width="17.48" height="0.87"/>
        </g>
        <g>
            <rect class="cls-9" x="236.28" y="52.32" width="17" height="0.87"/>
            <rect class="cls-9" x="233.24" y="53.35" width="20.05" height="0.87"/>
            <rect class="cls-9" x="233.24" y="54.38" width="17.48" height="0.87"/>
        </g>
        <g>
            <rect class="cls-9" x="236.28" y="60.36" width="17" height="0.87"/>
            <rect class="cls-9" x="233.24" y="61.39" width="20.05" height="0.87"/>
            <rect class="cls-9" x="233.24" y="62.42" width="17.48" height="0.87"/>
        </g>
        <g>
            <rect class="cls-9" x="236.28" y="68.04" width="17" height="0.87"/>
            <rect class="cls-9" x="233.24" y="69.06" width="20.05" height="0.87"/>
            <rect class="cls-9" x="233.24" y="70.09" width="17.48" height="0.87"/>
        </g>
    </g>
    <path class="cls-5" d="M422.44,288.29H436.5v-1a4.25,4.25,0,0,0-3.62-4.2l-5.26-.77a4.52,4.52,0,0,0-5.18,4.46Z" transform="translate(-187.21 -177.87)"/>
    <g>
        <g>
            <polygon class="cls-10" points="139.94 49.66 159.08 49.66 160.11 43.25 162.72 40.62 160 34.96 158.7 24.05 139.94 24.05 139.94 49.66"/>
            <rect class="cls-10" x="327.14" y="222.5" width="8.37" height="13.64" transform="translate(475.45 280.77) rotate(180)"/>
            <path class="cls-11" d="M324.63,210.12a5.39,5.39,0,0,1,2.1-4.26,7.39,7.39,0,0,1,10.25-9.7,7.33,7.33,0,0,1,4.66-1.69,7.45,7.45,0,0,1,0,14.9c-.14,0-.28,0-.42-.05v4.21H340l-.63-2.39-2,.76L336,213.53l-.39,3.41a5.71,5.71,0,0,1-5.39,5.06,3.29,3.29,0,0,1-3.44-3.5l.27-3.86A5.42,5.42,0,0,1,324.63,210.12Z" transform="translate(-187.21 -177.87)"/>
        </g>
        <path class="cls-12" d="M406.91,412.89l22.4.64v-.79a1.85,1.85,0,0,0-1.37-1.79l-7-2.76-5.28-3.79-1.05-2.85-7,.22-.08,3.6-.62,5.25Z" transform="translate(-187.21 -177.87)"/>
        <path class="cls-13" d="M308.31,320.75h97a5,5,0,0,1,5,5V339.5a0,0,0,0,1,0,0h-102a0,0,0,0,1,0,0V320.75A0,0,0,0,1,308.31,320.75Z" transform="translate(531.43 482.38) rotate(180)"/>
        <path class="cls-13" d="M416.47,404.52H407l-.28-83.77h5.81a9.92,9.92,0,0,1,9.92,9.92Z" transform="translate(-187.21 -177.87)"/>
        <g>
            <path class="cls-12" d="M377.17,412.89l22.41.64v-.79A1.86,1.86,0,0,0,398.2,411l-7-2.76L386,404.4l-1-2.85-7,.22-.08,3.6-.63,5.25Z" transform="translate(-187.21 -177.87)"/>
            <path class="cls-13" d="M387.37,403.85l-9.92.1,5.07-78a5.44,5.44,0,0,1,6.12-5.07h0a9.92,9.92,0,0,1,8.57,11.1Z" transform="translate(-187.21 -177.87)"/>
        </g>
        <polygon class="cls-10" points="226.2 101.77 232.91 102.15 240.07 99.57 248.16 104.78 246.41 106.23 240.41 104.48 235.77 107.95 232 108.16 230.62 107.21 225.54 106.9 226.2 101.77"/>
        <path class="cls-14" d="M291.63,287.32h45.05l1.16-6.81L301,277.38l24.24-31a6.07,6.07,0,0,0-.83-8.7l-.32-.25a6.08,6.08,0,0,0-8.54,1l-28.65,39A6.1,6.1,0,0,0,291.63,287.32Z" transform="translate(-187.21 -177.87)"/>
        <path class="cls-15" d="M308.31,320.75h56.74l-5.73-41.67c0-14.15,7.32-38.81-7.49-43.33l-11.72-3.52C331,229.5,321,232,314.69,239.07A25.51,25.51,0,0,0,308.31,256Z" transform="translate(-187.21 -177.87)"/>
        <path class="cls-14" d="M371.05,288.94l46.31-2.77.75-6.53-45.49-1.34L359.5,242.94a7.1,7.1,0,0,0-10.15-3.23h0a7.09,7.09,0,0,0-2.43,9.73l19.74,37A4.65,4.65,0,0,0,371.05,288.94Z" transform="translate(-187.21 -177.87)"/>
    </g>
    <g>
        <path class="cls-5" d="M316,326h17.76a15.36,15.36,0,0,0,15.36-15.35V277.15a25.36,25.36,0,0,0-20.55-24.89l-10.33-2a14.77,14.77,0,0,0-17.59,14.51v45.9A15.35,15.35,0,0,0,316,326Z" transform="translate(-187.21 -177.87)"/>
        <path class="cls-5" d="M308.61,339.5h82.91A4.5,4.5,0,0,1,396,344v10.81a0,0,0,0,1,0,0H305.64a0,0,0,0,1,0,0V342.47A3,3,0,0,1,308.61,339.5Z" transform="translate(514.45 516.44) rotate(180)"/>
        <rect class="cls-16" x="163.3" y="176.94" width="4.66" height="42.68"/>
        <path class="cls-16" d="M321.58,411.13h6.22v-3.35a1.69,1.69,0,0,1,1.32-1.66l24.41-5.6-1.39-6.06-24.41,5.6a7.88,7.88,0,0,0-6.15,7.72Z" transform="translate(-187.21 -177.87)"/>
        <path class="cls-16" d="M346.05,411.13h6.21V406.5a6.6,6.6,0,0,1,.86-3.24l2.41-4.23L350.14,396l-2.42,4.24a12.7,12.7,0,0,0-1.67,6.31Z" transform="translate(-187.21 -177.87)"/>
        <path class="cls-16" d="M377.87,411.13h6.21v-3.35a7.87,7.87,0,0,0-6.14-7.72l-24.41-5.6-1.39,6.06,24.41,5.6a1.69,1.69,0,0,1,1.32,1.66Z" transform="translate(-187.21 -177.87)"/>
        <path class="cls-17" d="M375.79,412.72a5.19,5.19,0,1,0,5.19-5.18A5.19,5.19,0,0,0,375.79,412.72Z" transform="translate(-187.21 -177.87)"/>
        <path class="cls-17" d="M344,412.72a5.19,5.19,0,1,0,5.18-5.18A5.18,5.18,0,0,0,344,412.72Z" transform="translate(-187.21 -177.87)"/>
        <path class="cls-17" d="M319.51,412.72a5.19,5.19,0,1,0,5.18-5.18A5.18,5.18,0,0,0,319.51,412.72Z" transform="translate(-187.21 -177.87)"/>
        <path class="cls-16" d="M325.75,354.81H334l-17.38-19.1a15.88,15.88,0,0,1-2.94-9.19V284.84a3.1,3.1,0,0,0-3.11-3.1h0a3.1,3.1,0,0,0-3.11,3.1v41.67a22,22,0,0,0,4.1,12.8Z" transform="translate(-187.21 -177.87)"/>
    </g>
    <g>
        <rect class="cls-5" x="435.16" y="97.7" width="11.68" height="13.16" rx="0.25"/>
        <path class="cls-5" d="M635.61,285.07h-3.68v-7.93h4.71a2.86,2.86,0,0,1,2.16,1,2.13,2.13,0,0,1,.47,1.77,19.28,19.28,0,0,1-1.07,2.78l-.25.49C637.4,284.23,637,285.07,635.61,285.07Zm-2.39-1.3h2.39c.53,0,.65-.15,1.18-1.19l.25-.46a16.88,16.88,0,0,0,1-2.45.83.83,0,0,0-.2-.71,1.56,1.56,0,0,0-1.16-.52h-3.42Z" transform="translate(-187.21 -177.87)"/>
        <g class="cls-18">
            <path class="cls-5" d="M627.39,272.2h-.08a1.9,1.9,0,0,1,.58-3.71.25.25,0,0,1,.26.26.26.26,0,0,1-.26.26,1.37,1.37,0,0,0-1.4,1.37,1.4,1.4,0,0,0,1,1.33.26.26,0,0,1,.17.32A.27.27,0,0,1,627.39,272.2Z" transform="translate(-187.21 -177.87)"/>
            <path class="cls-5" d="M627.84,269a.26.26,0,0,1-.26-.26.26.26,0,0,1,.26-.26,2.06,2.06,0,1,0,0-4.12,2,2,0,0,0-1.31.47.27.27,0,0,1-.37,0,.25.25,0,0,1,0-.36,2.58,2.58,0,1,1,1.63,4.56Z" transform="translate(-187.21 -177.87)"/>
        </g>
        <g>
            <path class="cls-19" d="M627.86,275.06h-.05a1.15,1.15,0,0,1,.35-2.26.16.16,0,0,1,.16.16.16.16,0,0,1-.16.16.83.83,0,0,0-.85.83.85.85,0,0,0,.59.81.15.15,0,0,1,.11.19A.17.17,0,0,1,627.86,275.06Z" transform="translate(-187.21 -177.87)"/>
            <path class="cls-19" d="M628.13,273.11A.17.17,0,0,1,628,273a.16.16,0,0,1,.16-.16,1.26,1.26,0,0,0,1.27-1.26,1.26,1.26,0,0,0-2.06-1,.17.17,0,0,1-.22,0,.16.16,0,0,1,0-.22,1.55,1.55,0,0,1,1-.37,1.58,1.58,0,1,1,0,3.15Z" transform="translate(-187.21 -177.87)"/>
        </g>
        <g>
            <g class="cls-18">
                <path class="cls-5" d="M630.68,273.56h0a1,1,0,0,1,.31-1.94.13.13,0,0,1,.13.13.13.13,0,0,1-.13.14.72.72,0,0,0-.23,1.41.12.12,0,0,1,.09.17A.13.13,0,0,1,630.68,273.56Z" transform="translate(-187.21 -177.87)"/>
                <path class="cls-5" d="M630.92,271.88a.13.13,0,0,1-.13-.14.13.13,0,0,1,.13-.13,1.09,1.09,0,1,0-.68-1.92.14.14,0,0,1-.17-.21,1.36,1.36,0,0,1,2.22,1A1.37,1.37,0,0,1,630.92,271.88Z" transform="translate(-187.21 -177.87)"/>
            </g>
            <g>
                <path class="cls-19" d="M630.93,275.06h0a.59.59,0,0,1-.42-.58.6.6,0,0,1,.61-.6.08.08,0,0,1,0,.16.45.45,0,0,0-.45.44.43.43,0,0,0,.31.42.09.09,0,0,1,.06.11A.1.1,0,0,1,630.93,275.06Z" transform="translate(-187.21 -177.87)"/>
                <path class="cls-19" d="M631.07,274a.08.08,0,0,1,0-.16.67.67,0,0,0,.67-.66.66.66,0,0,0-1.08-.51.08.08,0,0,1-.12,0,.09.09,0,0,1,0-.12.86.86,0,0,1,.53-.19.83.83,0,1,1,0,1.65Z" transform="translate(-187.21 -177.87)"/>
            </g>
        </g>
    </g>
    <g>
        <g>
            <path class="cls-13" d="M606.5,286.34l-48.84,0a1.6,1.6,0,0,1-1.6-2.22l8.52-27.54a3.33,3.33,0,0,1,3-2.22l48.84,0a1.6,1.6,0,0,1,1.6,2.22l-8.52,27.54A3.31,3.31,0,0,1,606.5,286.34Z" transform="translate(-187.21 -177.87)"/>
            <path class="cls-20" d="M531.86,287.09a1.15,1.15,0,0,0,1.15,1.59l74,.05a2.37,2.37,0,0,0,2.12-1.59l-.26-1.49-76.49,0Z" transform="translate(-187.21 -177.87)"/>
            <polygon class="cls-6" points="421.27 103.03 371.84 102.99 379.27 79 428.69 79.03 421.27 103.03"/>
        </g>
        <g>
            <path class="cls-21" d="M603.41,263.27H576.27a.37.37,0,0,1,0-.74h27.14a.37.37,0,0,1,0,.74Z" transform="translate(-187.21 -177.87)"/>
            <path class="cls-21" d="M604.65,266.09H577.51a.36.36,0,0,1-.37-.37.37.37,0,0,1,.37-.37h27.14a.38.38,0,0,1,.37.37A.37.37,0,0,1,604.65,266.09Z" transform="translate(-187.21 -177.87)"/>
            <path class="cls-21" d="M598.85,268.91H571.71a.38.38,0,0,1-.37-.37.37.37,0,0,1,.37-.37h27.14a.36.36,0,0,1,.37.37A.37.37,0,0,1,598.85,268.91Z" transform="translate(-187.21 -177.87)"/>
            <path class="cls-21" d="M596.61,271.73H569.46a.38.38,0,0,1-.37-.37.37.37,0,0,1,.37-.37h27.15a.37.37,0,0,1,.37.37A.38.38,0,0,1,596.61,271.73Z" transform="translate(-187.21 -177.87)"/>
            <path class="cls-21" d="M594.36,276.55H567.22a.37.37,0,0,1-.37-.37.36.36,0,0,1,.37-.37h27.14a.37.37,0,0,1,.37.37A.38.38,0,0,1,594.36,276.55Z" transform="translate(-187.21 -177.87)"/>
            <path class="cls-21" d="M598.85,274.19H571.71a.37.37,0,0,1-.37-.37.38.38,0,0,1,.37-.37h27.14a.37.37,0,0,1,.37.37A.36.36,0,0,1,598.85,274.19Z" transform="translate(-187.21 -177.87)"/>
        </g>
    </g>
    <g>
        <path class="cls-22" d="M396.71,257.13H372.92a3.15,3.15,0,0,1-3.14-3.15V218.3a3.15,3.15,0,0,1,3.14-3.15h23.79a3.15,3.15,0,0,1,3.15,3.15V254A3.15,3.15,0,0,1,396.71,257.13Zm-23.79-41.68a2.85,2.85,0,0,0-2.84,2.85V254a2.85,2.85,0,0,0,2.84,2.85h23.79a2.86,2.86,0,0,0,2.85-2.85V218.3a2.86,2.86,0,0,0-2.85-2.85Z" transform="translate(-187.21 -177.87)"/>
        <rect class="cls-22" x="184.45" y="40.64" width="26.32" height="32.59" rx="0.2"/>
        <rect class="cls-23" x="184.97" y="41.41" width="25.28" height="10.86" rx="0.3"/>
        <rect class="cls-23" x="184.97" y="53.14" width="25.28" height="10.86" rx="0.3"/>
        <g>
            <rect class="cls-8" x="186.42" y="43.28" width="7.13" height="7.13" rx="0.27"/>
            <path class="cls-24" d="M374.37,228.28h.41l2.15-2.15L375.78,225l-2.16,2.16v.4A.75.75,0,0,0,374.37,228.28Z" transform="translate(-187.21 -177.87)"/>
            <path class="cls-25" d="M379,224.06l-2.07,2.07-2.15,2.15H380a.75.75,0,0,0,.75-.74v-1.72Z" transform="translate(-187.21 -177.87)"/>
            <path class="cls-24" d="M376.7,223.48a.59.59,0,0,1-.59.58.58.58,0,0,1,0-1.16A.59.59,0,0,1,376.7,223.48Z" transform="translate(-187.21 -177.87)"/>
        </g>
        <path class="cls-8" d="M390.13,228.28h-2.51a.82.82,0,0,1-.82-.82h0a.83.83,0,0,1,.82-.83h2.51a.83.83,0,0,1,.83.83h0A.83.83,0,0,1,390.13,228.28Z" transform="translate(-187.21 -177.87)"/>
        <path class="cls-8" d="M395.2,228.28h-2.5a.83.83,0,0,1-.83-.82h0a.83.83,0,0,1,.83-.83h2.5a.83.83,0,0,1,.83.83h0A.83.83,0,0,1,395.2,228.28Z" transform="translate(-187.21 -177.87)"/>
        <g>
            <rect class="cls-8" x="198.52" y="44.43" width="9.7" height="0.3"/>
            <rect class="cls-8" x="196.33" y="45.4" width="11.88" height="0.3"/>
            <rect class="cls-8" x="196.33" y="46.37" width="8.8" height="0.3"/>
        </g>
        <g>
            <rect class="cls-8" x="198.52" y="56.12" width="9.7" height="0.3"/>
            <rect class="cls-8" x="196.33" y="57.09" width="11.88" height="0.3"/>
            <rect class="cls-8" x="196.33" y="58.07" width="8.8" height="0.3"/>
        </g>
        <g class="cls-26">
            <g class="cls-26">
                <path class="cls-27" d="M380,240.05h-5.64a.79.79,0,0,1-.79-.78v-5.65a.79.79,0,0,1,.79-.78H380a.78.78,0,0,1,.78.78v5.65A.78.78,0,0,1,380,240.05Zm-5.64-7.14a.71.71,0,0,0-.71.71v5.65a.7.7,0,0,0,.71.7H380a.7.7,0,0,0,.71-.7v-5.65a.71.71,0,0,0-.71-.71Z" transform="translate(-187.21 -177.87)"/>
            </g>
            <rect class="cls-27" x="377.1" y="231.77" width="0.08" height="9.46" transform="translate(-243.98 158.06) rotate(-45)"/>
            <polygon class="cls-27" points="186.67 62 186.61 61.94 193.31 55.25 193.36 55.3 186.67 62"/>
        </g>
        <g>
            <rect class="cls-8" x="185.52" y="56.12" width="7.13" height="7.13" rx="0.27"/>
            <path class="cls-24" d="M373.47,241.13h.41L376,239l-1.15-1.16L372.72,240v.4A.75.75,0,0,0,373.47,241.13Z" transform="translate(-187.21 -177.87)"/>
            <path class="cls-25" d="M378.1,236.91,376,239l-2.15,2.15h5.23a.75.75,0,0,0,.74-.75v-1.72Z" transform="translate(-187.21 -177.87)"/>
            <path class="cls-24" d="M375.79,236.32a.58.58,0,1,1-.58-.58A.58.58,0,0,1,375.79,236.32Z" transform="translate(-187.21 -177.87)"/>
        </g>
        <path class="cls-8" d="M394.8,240.16h-2.5a.83.83,0,0,1-.83-.83h0a.83.83,0,0,1,.83-.82h2.5a.83.83,0,0,1,.83.82h0A.83.83,0,0,1,394.8,240.16Z" transform="translate(-187.21 -177.87)"/>
        <path class="cls-8" d="M389.14,240.24h-2.51a.82.82,0,0,1-.82-.82h0a.83.83,0,0,1,.82-.83h2.51a.83.83,0,0,1,.82.83h0A.82.82,0,0,1,389.14,240.24Z" transform="translate(-187.21 -177.87)"/>
    </g>
    <g>
        <path class="cls-1" d="M245.21,416c0,.79-13,1.44-29,1.44s-29-.65-29-1.44,13-1.45,29-1.45S245.21,415.19,245.21,416Z" transform="translate(-187.21 -177.87)"/>
        <g>
            <polygon class="cls-13" points="42.85 238.59 15.15 238.59 12.19 209.82 45.81 209.82 42.85 238.59"/>
            <circle class="cls-15" cx="29" cy="171.96" r="11.37"/>
            <path class="cls-15" d="M232,370.06a5.38,5.38,0,1,1-5.38-5.38A5.38,5.38,0,0,1,232,370.06Z" transform="translate(-187.21 -177.87)"/>
            <rect class="cls-2" x="28.68" y="166.11" width="0.64" height="45.5"/>
            <polygon class="cls-2" points="28.77 179.15 24.69 175.07 25.15 174.61 29.23 178.69 28.77 179.15"/>
            <polygon class="cls-2" points="29.23 175.82 28.77 175.37 32.85 171.29 33.31 171.74 29.23 175.82"/>
            <polygon class="cls-2" points="29.23 170.03 28.77 169.58 32.85 165.5 33.31 165.95 29.23 170.03"/>
            <polygon class="cls-2" points="28.77 173.09 24.69 169.01 25.15 168.55 29.23 172.63 28.77 173.09"/>
            <polygon class="cls-2" points="29.21 196.19 28.79 195.78 32.34 192.23 40.71 192.23 40.71 192.81 32.58 192.81 29.21 196.19"/>
            <polygon class="cls-2" points="37.74 192.73 37.33 192.32 39.38 190.27 39.79 190.68 37.74 192.73"/>
            <polygon class="cls-2" points="37.88 194.78 35.83 192.73 36.24 192.32 38.3 194.37 37.88 194.78"/>
        </g>
    </g>
    <g>
        <path class="cls-1" d="M553,415.67c0,1.73-14.82,3.13-33.11,3.13s-33.11-1.4-33.11-3.13,14.82-3.13,33.11-3.13S553,413.94,553,415.67Z" transform="translate(-187.21 -177.87)"/>
        <polygon class="cls-10" points="273.52 61.48 270.34 60.2 267.75 57.79 267.78 57.78 267.17 57.25 267.02 57.11 267.01 57.11 265.53 55.82 260.31 55.71 261.46 57.27 263.64 57.13 263.96 57.5 262.57 57.68 259.86 58.03 253.9 56.82 254.32 58.1 254.54 58.7 256.76 62.35 257.79 63.32 265.37 64.73 270.02 64.57 275.28 66.53 277.82 62.74 273.52 61.48"/>
        <path class="cls-28" d="M559.13,258.09l-21.85,34.47L532,290.4l18.06-35-21.3-24.78a6.14,6.14,0,0,1,1.8-9h0a6.15,6.15,0,0,1,8.4,2.24l20.15,31A3.06,3.06,0,0,1,559.13,258.09Z" transform="translate(-187.21 -177.87)"/>
        <g>
            <path class="cls-11" d="M521.68,186.83a7.45,7.45,0,1,1-8.06-6.77A7.45,7.45,0,0,1,521.68,186.83Z" transform="translate(-187.21 -177.87)"/>
            <polygon class="cls-10" points="343.81 34.86 324.74 36.52 323.16 30.23 320.33 27.84 322.54 21.96 322.89 10.97 341.59 9.35 343.81 34.86"/>
            <rect class="cls-10" x="522.82" y="208.06" width="8.37" height="13.64" transform="translate(-203.85 -131.37) rotate(-4.97)"/>
        </g>
        <path class="cls-10" d="M515.55,415.22l-15.64.45v-.55a1.3,1.3,0,0,1,1-1.25l4.87-1.93,3.68-2.64-.39-7.16,5.3.3.78,7.53.44,3.67Z" transform="translate(-187.21 -177.87)"/>
        <path class="cls-10" d="M531.58,414.12l-15.63.45V414a1.29,1.29,0,0,1,.95-1.25l4.87-1.93,3.68-2.64.4-7.16,5.3.3v7.53l.44,3.67Z" transform="translate(-187.21 -177.87)"/>
        <polygon class="cls-29" points="336.54 128.19 335.69 177.18 337.79 227.11 344.84 227.11 346.39 177.01 353.48 126.91 336.54 128.19"/>
        <path class="cls-12" d="M543.08,294.72l-2.42-9.17H509.3l1,12.18-8,57.79L507.81,405l7.57-.54-1.56-48.92,17.34-42.92A14.37,14.37,0,0,0,543.08,294.72Z" transform="translate(-187.21 -177.87)"/>
        <path class="cls-20" d="M531.73,414.12l-17.66.71v-.55a1.29,1.29,0,0,1,1-1.25l6.82-2.3.66,1.16,7-1.45,1.83-1.22.4,3.32Z" transform="translate(-187.21 -177.87)"/>
        <path class="cls-13" d="M515.6,415.22l-17.66.71v-.55a1.29,1.29,0,0,1,1-1.25l6.82-2.3.67,1.16,7-1.45,1.83-1.22.4,3.32Z" transform="translate(-187.21 -177.87)"/>
        <polygon class="cls-5" points="274.5 61.37 272.22 60.51 270.89 65.24 273.11 66.09 274.5 61.37"/>
        <path class="cls-13" d="M530.27,214.89l-11.39,4.79-9.06,11.58a16.72,16.72,0,0,0-3.14,14l3.91,17.23-3.82,31.28,40.56-.13-13.33-30,7.33-27.37C542.11,228.84,537.75,214.38,530.27,214.89Z" transform="translate(-187.21 -177.87)"/>
        <g>
            <path class="cls-13" d="M526.13,210.89a7.22,7.22,0,1,0,6.56-7.82A7.22,7.22,0,0,0,526.13,210.89Z" transform="translate(-187.21 -177.87)"/>
            <path class="cls-11" d="M522.16,194.24a7.22,7.22,0,1,0,6.57-7.82A7.22,7.22,0,0,0,522.16,194.24Z" transform="translate(-187.21 -177.87)"/>
            <path class="cls-11" d="M510.1,188.84a7.23,7.23,0,0,1,3.63-6.81l-1.87-1.62c18.74-7.55,24.87,3.47,26.07,10.55a54.43,54.43,0,0,0,1.93,7.62A10.72,10.72,0,0,1,546.21,211,11,11,0,1,1,530.82,225a7.19,7.19,0,0,1-5.52-12.36,11.2,11.2,0,0,1-.64-2.47,7.1,7.1,0,0,1-1.44-3.7,7.22,7.22,0,0,1,0-1,7.15,7.15,0,0,1-2.72-4,7.42,7.42,0,0,1-7-6.76c0-.1,0-.21,0-.32A7.12,7.12,0,0,1,510.1,188.84Z" transform="translate(-187.21 -177.87)"/>
        </g>
        <path class="cls-28" d="M495,258.86l-35.89-15,1.5-5.2,35.51,11.27,19.88-24a5.86,5.86,0,0,1,8.79.25h0a5.87,5.87,0,0,1-.76,8.25l-25.94,23.89A2.9,2.9,0,0,1,495,258.86Z" transform="translate(-187.21 -177.87)"/>
    </g>
</svg>
