<?xml version="1.0" standalone="no"?>
<!DOCTYPE svg PUBLIC "-//W3C//DTD SVG 20010904//EN"
 "http://www.w3.org/TR/2001/REC-SVG-20010904/DTD/svg10.dtd">
<svg version="1.0" xmlns="http://www.w3.org/2000/svg"
 width="100.000000pt" height="100.000000pt" viewBox="0 0 100.000000 100.000000"
 preserveAspectRatio="xMidYMid meet">

<g transform="translate(0.000000,100.000000) scale(0.100000,-0.100000)"
fill="#000000" stroke="none">
<path d="M425 891 c-67 -31 -98 -116 -77 -210 7 -28 7 -51 1 -65 -11 -23 -8
-34 41 -126 28 -54 38 -118 23 -155 -3 -10 -51 -39 -107 -65 -56 -26 -111 -58
-123 -71 -21 -23 -43 -69 -43 -90 0 -5 91 -9 221 -9 207 0 221 1 214 18 -25
60 -13 157 26 214 11 14 19 42 19 62 0 31 21 88 51 136 23 37 30 65 21 85 -5
12 -5 34 1 55 13 50 4 145 -17 168 -9 11 -40 31 -67 46 -61 31 -126 34 -184 7z"/>
<path d="M732 389 c-48 -14 -109 -80 -123 -131 -23 -89 12 -182 88 -229 57
-36 154 -34 210 3 62 41 88 90 88 168 0 77 -26 127 -85 166 -43 29 -125 39
-178 23z m134 -45 c103 -49 125 -175 45 -255 -66 -66 -159 -65 -223 2 -122
128 19 328 178 253z"/>
<path d="M836 214 l-57 -47 -29 28 c-23 22 -33 26 -42 17 -9 -9 -3 -21 27 -52
21 -22 42 -40 46 -40 16 0 140 112 136 123 -7 23 -26 16 -81 -29z"/>
</g>
</svg>
