<svg id="Layer_1" data-name="Layer 1" xmlns="http://www.w3.org/2000/svg" viewBox="0 0 892.94 423"><defs><style>.cls-1,.cls-15{fill:#fff;}.cls-1{opacity:0.1;}.cls-2{fill:#384466;}.cls-3{fill:#2b3452;}.cls-4{fill:#cd8448;}.cls-5{fill:#ec7855;}.cls-6{fill:#cd6040;}.cls-7{fill:#471e28;}.cls-8{fill:#cd8951;}.cls-9{fill:#b07042;}.cls-10{fill:#ccbe00;}.cls-11{fill:#e8973d;}.cls-12{fill:#949494;}.cls-13{fill:#eeba5c;}.cls-14{fill:#cd8e5b;}.cls-16{fill:#572331;}.cls-17{fill:#f8bc4d;}.cls-18{fill:#d2d2d2;}.cls-19{fill:#342a49;}.cls-20{fill:#a39800;}.cls-21{fill:#141826;}.cls-22{fill:#1e2642;}.cls-23{fill:#d9d9d9;}.cls-24{fill:#dcdcdc;}.cls-25{fill:#ebebeb;}.cls-26{fill:#fbfbfb;}.cls-27{fill:#00a69d;}.cls-28,.cls-29,.cls-30,.cls-31{fill:none;stroke:#00a69d;stroke-miterlimit:10;}.cls-28,.cls-30{stroke-width:4px;}.cls-29,.cls-31{stroke-width:2.83px;}.cls-30,.cls-31{fill-rule:evenodd;}</style></defs><path class="cls-1" d="M199.13,618.29C87.67,495.4,104.46,233.79,418,389.25c105.31,41.47,126.06-211.07,338.61-71.79,62.53,32.34,81.58,10.17,121.19-.15,117-48,181.66,101.64,137.71,183.41C991.82,537.1,972.67,577,981.26,616.66Z" transform="translate(-136.45 -200.85)"/><path class="cls-2" d="M298.8,618.93c.15-2.45.24-3.81.24-3.81l10.88-1.26,1.61,5.07H363c-5.71-42.16-11.92-85.66-11.92-85.66-5.2-14.91-105.63,24.52-105.33,40.31,1.5,17.53,2.75,31.44,3.79,45.35Z" transform="translate(-136.45 -200.85)"/><path class="cls-3" d="M269,618.93l2.21-52.44c-8.42.23-26.13,3.82-27.8,3.54,0,0,1.7,22.3,3.66,48.9Z" transform="translate(-136.45 -200.85)"/><path class="cls-4" d="M611.27,421.54l-3.51-9.33c-10.4-.29-16.88-6.4-17.75-9.93,7,1.53,16.72,3.08,24.2,2.47,2.38.32,3.46,1.31,4.08,4.48l1.88,13.18Z" transform="translate(-136.45 -200.85)"/><path class="cls-1" d="M494.46,588.82a8.83,8.83,0,0,1-8.74,8.83H396.39c-4.5,0-8.64-3.5-10.08-8.83l-7-36.82a8.79,8.79,0,0,1,8.74-8.8h88.34c4.49,0,9.89,3.6,11.07,8.8Z" transform="translate(-136.45 -200.85)"/><path class="cls-5" d="M817.36,580.35a8.71,8.71,0,0,0,8.74,8.7h67.95c4.5,0,8.64-3.37,10.07-8.7l9.12-52a8.85,8.85,0,0,0-8.74-8.87h-67c-4.49,0-9.89,3.68-11.06,8.87Z" transform="translate(-136.45 -200.85)"/><path class="cls-6" d="M622.49,484.55c3.26,5,9.27,6.74,13.41,4L711,447.14a16,16,0,0,0,4.4-22.05,15.67,15.67,0,0,0-21.84-4.44l-69.45,49.89C619.93,473.31,619.22,479.59,622.49,484.55Z" transform="translate(-136.45 -200.85)"/><path class="cls-6" d="M609.44,418.56l11.48,62.61c3.45,4.8,21.44-2.91,18-7.71l-20-59.28C616.59,411.92,608.54,415,609.44,418.56Z" transform="translate(-136.45 -200.85)"/><path class="cls-7" d="M699.28,394.94a24.85,24.85,0,0,1-2.49,11c-7.62,13,.53,13.13-3.38,20.28,11.07-.62,23.5-13.52,13-32.35C704.59,393.09,700.78,394.43,699.28,394.94Z" transform="translate(-136.45 -200.85)"/><path class="cls-5" d="M659,612c35.06,9.6,71.44,11.68,110,1.52-3.86-64.18-10.16-128.8-25.32-190.69-.3-5.31-6.38-13.47-11.61-14.44l-27.29-.22c-15.71,18.52-32.48,30.86-33.83,56.61Z" transform="translate(-136.45 -200.85)"/><path class="cls-6" d="M709.63,427.76c.44,37.06,17,42.35,21.48,79.94,6.34,39.1-8.93,73.06-2.41,107.5,5.65,1.77,35.09,1.17,40.32-1.65-3.86-64.18-10.16-128.8-25.32-190.69C743.4,417.55,719.66,427,709.63,427.76Z" transform="translate(-136.45 -200.85)"/><path class="cls-8" d="M693,384.76c-.73-.42-2.93-.83-2.84-3a26.39,26.39,0,0,0,2.68-9.14c.13-5.7,2.34-8,2.77-9.07,21.67,4,29.09,28.61,26.36,45.13-6.09,4.23-13.62,4.46-18.25,1.56l1.27-15.57-6.57,1.73c-3.9.11-5.2-2-5.19-4.61Z" transform="translate(-136.45 -200.85)"/><path class="cls-9" d="M704.24,394.66c5.3-1.09,9.5-3.57,9.08-12.57,3.52,1.06,4.32,4.46,4.08,9.65.65,1.5,7.14,15.57,3.27,15.94-1.45,2.73-8-1-8.87-8.47C710.73,397.22,708.66,395.31,704.24,394.66Z" transform="translate(-136.45 -200.85)"/><path class="cls-5" d="M774.08,502.55c-4,3.49-10.48,2.43-14.2-1.43l-46-64.66c-6.51-6.77-5.09-15.34.74-20.48s13.89-4.9,20.39,1.87l39.22,70.64C777.94,492.36,778,499.06,774.08,502.55Z" transform="translate(-136.45 -200.85)"/><path class="cls-10" d="M814.93,611.9c7.14-40.7-16-60.46-8-76.76,1.34-1.36,16.9-30,19.33-38.32l31.82-2.42c15.35,18.09,23.36,28.18,26.07,55.09l12.66,62.23Z" transform="translate(-136.45 -200.85)"/><path class="cls-11" d="M579.26,592.59c3.13,4.94,1.2,11.79-4.32,15.29s-15.7,4.25-18.84-.69l-46.25-71.54c-5.9-9.3-3.38-21.47,5.63-27.19s21.1-2.82,27,6.49Z" transform="translate(-136.45 -200.85)"/><path class="cls-11" d="M612.75,590.11l-37.26-5.63c-7.49-.56-14,4.29-14.44,10.82s5.19,12.28,12.68,12.84L608,609.67Z" transform="translate(-136.45 -200.85)"/><rect class="cls-12" x="358.19" y="405.8" width="151.05" height="4.91"/><path class="cls-13" d="M521,620.29l-107.52-2,25.75-102.45c1.15-4.68,3.81-6.9,7.9-10.11s8.94-2.62,13.77-2.62h53.58c11.71,0,23.19,3.29,30.2,13.75a34.85,34.85,0,0,1,3.43,33.33Z" transform="translate(-136.45 -200.85)"/><polygon class="cls-14" points="367.77 399.75 390.36 397.1 406.63 410.72 364.15 410.72 367.77 399.75"/><path class="cls-11" d="M487.33,594.9c-4.36.05-25.36-6.44-27.12-11.85a12.34,12.34,0,0,1,1.88-12.39L482,534.18c5.74-8.87,3.16-22.21-5.66-27.63s-24.27-3.15-30,5.71l-41.45,81.33C401.78,598.3,487.33,594.9,487.33,594.9Z" transform="translate(-136.45 -200.85)"/><polygon class="cls-12" points="536.24 410.72 434.48 410.72 460.66 335.81 562.42 335.81 536.24 410.72"/><path class="cls-15" d="M642.44,573.48a6.52,6.52,0,1,1-6.51-6.51A6.51,6.51,0,0,1,642.44,573.48Z" transform="translate(-136.45 -200.85)"/><polygon class="cls-15" points="586.86 410.72 600.5 410.72 606.02 373.06 581.48 373.06 586.86 410.72"/><path class="cls-15" d="M744.19,571h-.63L739,564.9H721.69L717.16,571h-.75c-.9,0-1.63.39-1.63,1.43s.73,1.43,1.63,1.43h27.78c.9,0,1.63-.39,1.63-1.43S745.09,571,744.19,571Z" transform="translate(-136.45 -200.85)"/><path class="cls-16" d="M695.14,364.13c1.86,7.27,3.79,12.12,11.39,14,5.65,1.09,8.63,4.8,8.29,11.75-.15,7.67-.87,13.59,5.33,18.24,15.45,5.77-3,21.56,3.81,31.76,8.07,19.27,51.57,10,35.22-8.36-4.11-2.51-10.09-7.62-8.06-16a10.77,10.77,0,0,0-6.54-12.4c-3.72-2.32-5.88-4-5.56-11.47-.09-2.66.7-7-5.88-10-4.8-3-6.25-6.54-6.22-11.76C725.8,355.31,703.17,349.7,695.14,364.13Z" transform="translate(-136.45 -200.85)"/><path class="cls-7" d="M736.35,430.41c-6.77-10.21,6.55-23.33-8.9-29.1-6.45-2.93-9.24-5.68-9-14.07.35-6.95-2.64-10.65-8.29-11.75-7.6-1.85-9.53-6.7-11.39-14a17.06,17.06,0,0,1,3-3.94,16,16,0,0,0-6.67,6.55c1.86,7.27,3.79,12.12,11.39,14,5.65,1.09,8.63,4.8,8.29,11.75-.22,7.75-1.58,14.45,5.33,18.24,14.92,5.8-4.25,23.13,3.69,33.27,8,13.52,31.76,15.22,37.2,2.61C749,445.6,741.24,435.91,736.35,430.41Z" transform="translate(-136.45 -200.85)"/><path class="cls-17" d="M718,386.35a3.5,3.5,0,1,1-3.5-3.5A3.5,3.5,0,0,1,718,386.35Z" transform="translate(-136.45 -200.85)"/><polygon class="cls-18" points="582.08 376.74 605.41 376.74 606.02 373.06 581.48 373.06 582.08 376.74"/><path class="cls-14" d="M745.22,591.29l-4.35-6-1.1,5.41c-2.71-.3-16.56-1.49-19.67-.54-2.27.74-3,8.08,2.08,13.53,5.49,3.09,17.55-2,27.06-2.6l3.11-9C750.33,591.82,747.88,591.57,745.22,591.29Z" transform="translate(-136.45 -200.85)"/><path class="cls-8" d="M510.34,468.29h0v0Z" transform="translate(-136.45 -200.85)"/><path class="cls-19" d="M527.35,461.48" transform="translate(-136.45 -200.85)"/><path class="cls-15" d="M521.06,513.42c2.71,5.8,7.25,1,5.34-2-1.73-5.92-5.37-9.75-9.09-15.11-.37-.79-4.64,1.3-4.27,2.09C517,503.65,520.1,508,521.06,513.42Z" transform="translate(-136.45 -200.85)"/><path class="cls-16" d="M525.89,462.87c18.39-8.16-1.5-26.16-15.29-13.85-1.15,1.49-6.25,6.18-10.27,6-6.64-.49-12.79,4-10.76,12.23l5.59,14.81C508.86,481.44,518.08,472.5,525.89,462.87Z" transform="translate(-136.45 -200.85)"/><path class="cls-8" d="M530.11,477.94a37.08,37.08,0,0,1-4.21-15.46l-10.76-.41a3.14,3.14,0,0,0-2.36,1,3.41,3.41,0,0,0-.93,2.5l-.4,10.47-16.19,5.82-1.17,21.34c6.6,5.63,16,5.09,21.44.18l.28-6.69c6.17.05,9.49-4.37,9.44-9.65l.21-4.77c0-1.36.37-1.94,1.76-2.23C529.17,479.88,530.37,479.2,530.11,477.94Z" transform="translate(-136.45 -200.85)"/><path class="cls-9" d="M495,484.86l17.86-6.74.39-10.47a3.46,3.46,0,0,1,1-2.52,3.13,3.13,0,0,1,2.37-1l9.49.36a21.84,21.84,0,0,1-.18-2.54l-10.76-.41a3.09,3.09,0,0,0-2.36.95,3.4,3.4,0,0,0-.93,2.49l-.4,10.47L495,481.43Z" transform="translate(-136.45 -200.85)"/><path class="cls-9" d="M511.8,482.73a2.81,2.81,0,0,1-1.88-.93,2.48,2.48,0,0,1-.64-2l.21-3.62-5,1.92-.59,11c-.17,4.29,4.38,7.94,10.44,8.17s10.66-3.07,10.82-7.36l.26-6.65Z" transform="translate(-136.45 -200.85)"/><path class="cls-8" d="M511.39,473.1a2.71,2.71,0,0,0-3.78-.46l-.18.12a2.52,2.52,0,0,0-.78,3.58l2.84,4.55a2.52,2.52,0,0,0,3.61.57l.18-.12a2.7,2.7,0,0,0,1-3.69Z" transform="translate(-136.45 -200.85)"/><path class="cls-8" d="M511.39,473.1a2.71,2.71,0,0,0-3.78-.46l-.18.12a2.52,2.52,0,0,0-.78,3.58l2.84,4.55a2.52,2.52,0,0,0,3.61.57l.18-.12a2.7,2.7,0,0,0,1-3.69Z" transform="translate(-136.45 -200.85)"/><path class="cls-6" d="M717.75,510.37c-3.15,7.9-48.23,9-40.85-4.52-8.52-1.62-9.66-18.54-4.52-21.38,1.6-1.05,1.83-34.07,3.82-34.07C682.2,450.4,717.75,503.61,717.75,510.37Z" transform="translate(-136.45 -200.85)"/><rect class="cls-15" x="539.53" y="247.8" width="42.16" height="61.81"/><path class="cls-4" d="M670.23,480.64c4.75,1,12,2.92,14.63,4.57l.65,7.05c.35.51,1.69,4.9-5,3.39,0,0-3.46-1.42-4.47.54-.17,1.45.12,1.56-.06,3.41-.82.33-8.61-1.38-8.37-1.49C663.3,495.78,664,481.74,670.23,480.64Z" transform="translate(-136.45 -200.85)"/><path class="cls-5" d="M685,481.93l78.61,4.46c7.24-.46,13.28,2.35,13.18,9.51a14.35,14.35,0,0,1-13.32,13.8l-77.57-12C682.68,497.61,681.65,481.9,685,481.93Z" transform="translate(-136.45 -200.85)"/><path class="cls-20" d="M813.19,592.25c1-6.26.73-14.22-.87-23.81,12.72,4.93,16.81-16.27,16.34-30.6.37-33,15.06-39.18,23-37.55,0,1,21.9,14.26,21.9,14.26a51.08,51.08,0,0,1,10.09,30.77Z" transform="translate(-136.45 -200.85)"/><path class="cls-10" d="M748,589.93l70.31-2.21,26.8-68c3.24-8.54,12.46-13.73,20.59-11.59s12.09,10.78,8.85,19.31l-27.64,66.34c-4.35,7.79-11.79,16.32-18.95,17.56-1.75,1.24-79-7.62-79-7.62C744.12,602.92,743.46,592.5,748,589.93Z" transform="translate(-136.45 -200.85)"/><rect class="cls-12" x="707.78" y="337.03" width="100.7" height="74.5"/><path class="cls-15" d="M901.58,574a6.52,6.52,0,1,1-6.51-6.51A6.52,6.52,0,0,1,901.58,574Z" transform="translate(-136.45 -200.85)"/><path class="cls-21" d="M817.49,457.35a11.32,11.32,0,0,0,2.16,6.34c4.79,6.64,29.85,8.85,30.17-2.59C848.58,444.1,816.62,439.93,817.49,457.35Z" transform="translate(-136.45 -200.85)"/><path class="cls-4" d="M818.32,466.8l5.56-12.42c15,5.76,18.9,31.63,14.69,47.31a29.08,29.08,0,0,1-12.73-2.75L827,486.81c-1-.24-5.3-.87-6.43-1.1-2.76-.5-2.66-2.49-2.59-4.84l1.19-7.67C815.66,472.59,816.89,469.54,818.32,466.8Z" transform="translate(-136.45 -200.85)"/><path class="cls-20" d="M842.82,497.62l-.65,4.36c-6.47.44-11.42.53-17-2l1-4.44C831.59,497.91,836.55,498,842.82,497.62Z" transform="translate(-136.45 -200.85)"/><path class="cls-9" d="M827,486.81c5.21-1,8.07-2.56,7.83-11.36,3.42,1.11,5.42,3.7,5.09,8.76.61,1.49-.5,11.77-4.29,12.06C835,494.25,835.5,488.24,827,486.81Z" transform="translate(-136.45 -200.85)"/><path class="cls-22" d="M856.85,463.82c1.78,13.55.54,12.77,5.28,18.45,14.26,13,11.67,31.8-11.25,28.38l-.29,0a19.62,19.62,0,0,1-12.11-6.78,15.64,15.64,0,0,1-3.56-12.3l3.15-19.72c-3.32-4.46-11.89-5.8-14.32-16.77C822.73,437.91,855.64,445.12,856.85,463.82Z" transform="translate(-136.45 -200.85)"/><path class="cls-21" d="M841.08,468.63c-3.32-4.47-11.89-5.81-14.32-16.77a9.6,9.6,0,0,1,.9-4.95c-2.57,1.52-4.14,4.17-3.91,8.12,2.43,11,11,12.31,14.32,16.77l-3.41,19.63c-.66,4.14.8,8.66,3.82,12.39s7.27,6.68,11.89,7.42c14.32,3.61,25.14-7.21,19.74-17C849.09,504.43,835.71,489.16,841.08,468.63Z" transform="translate(-136.45 -200.85)"/><path class="cls-4" d="M834.84,475.49c-.2,1.28.85,1.81,2.21,2.63h0a2.3,2.3,0,0,0,3.12-1.8l1-5.45a2.56,2.56,0,0,0-2.25-2.72h0c-1.61-.2-2.91.59-3.11,1.87Z" transform="translate(-136.45 -200.85)"/><path class="cls-15" d="M837.65,476.15a.69.69,0,1,0,.79-.57A.69.69,0,0,0,837.65,476.15Z" transform="translate(-136.45 -200.85)"/><path class="cls-9" d="M819,465.15c-.86,3.76,1.09,7.19,2.73,7.47,2,.37,4.09-1.81,4.94-4.81l9.21,1.87.24-.47s-9.24-2.65-9.22-2.76c.69-3.4-.53-6.47-2.7-6.87S819.72,461.76,819,465.15Zm0,1.1c.57-2.86,3-4.5,4.75-4.19s2.91,1.44,2.33,4.3c-.57,3.07-3,4.78-4.17,4.61A3.7,3.7,0,0,1,819,466.25Z" transform="translate(-136.45 -200.85)"/><path class="cls-15" d="M819,464.48c-.69,3.4.48,6.68,2.66,7.08h0c2,.36,4.17-1.88,5-4.88l9.28,3,.49-.85-9.56-2.95-.07.22c0-.11.05-.22.07-.33.69-3.4-.53-6.47-2.7-6.87S819.63,461.08,819,464.48Zm.75,0c.57-2.85,2.44-4.92,4.16-4.61s2.69,2.92,2.12,5.78c-.57,3.07-3,4.78-4.17,4.61C820.08,470,819.12,467.37,819.7,464.51Z" transform="translate(-136.45 -200.85)"/><path class="cls-22" d="M861,451.48a6.08,6.08,0,1,1-4.06-7.58A6.09,6.09,0,0,1,861,451.48Z" transform="translate(-136.45 -200.85)"/><path class="cls-15" d="M498.5,518.43a1.65,1.65,0,0,1-.89,2.16l-3.49,1.25a1.65,1.65,0,0,1-2-1.15c-3.26-5.82-3.73-5.43-4.46-14.39,0-3.76,3.86-8.58,6.44-7.5.39,1.47-.29,4.24.08,3.88C494.24,510.69,493.85,512.92,498.5,518.43Z" transform="translate(-136.45 -200.85)"/><path class="cls-15" d="M507.28,517.42c3.29,4.25,3.07,9.93-.48,12.68s-9.11,1.55-12.4-2.7-3.08-9.93.48-12.69S504,513.17,507.28,517.42Z" transform="translate(-136.45 -200.85)"/><path class="cls-15" d="M532.41,516.06c1.39,5.19-.71,10.27-4.7,11.34s-8.35-2.28-9.74-7.47.71-10.26,4.7-11.33S531,510.87,532.41,516.06Z" transform="translate(-136.45 -200.85)"/><path class="cls-23" d="M527.36,517.81c1.25,3.6.44,7.16-1.8,7.93s-5.08-1.52-6.32-5.12-.44-7.16,1.81-7.93S526.12,514.21,527.36,517.81Z" transform="translate(-136.45 -200.85)"/><path class="cls-9" d="M535.22,608.25c-13,0-22.1-2.58-22.69-8.43l-9.12,1.2-2.29,11.36H543.6l-4.64-4C537.74,608.38,536.49,608.25,535.22,608.25Z" transform="translate(-136.45 -200.85)"/><path class="cls-13" d="M503.82,598.31l-74.38-12.06L472,532c5.74-9.1,3.25-21-5.57-26.56s-20.63-2.69-26.37,6.41L394.86,593c-5,9.18.14,19.94,14.41,18.26.83.23,93.61.26,93.61.26C512.47,610.37,513.08,601,503.82,598.31Z" transform="translate(-136.45 -200.85)"/><path class="cls-24" d="M386.75,525.76c-6.08,3.88-14.58,1.36-17.62-3.06l-45.69-79.8c-10.82-12.27,4.21-50.41,21.68-32.66l46,98.38C394.18,513,392.83,521.87,386.75,525.76Z" transform="translate(-136.45 -200.85)"/><path class="cls-25" d="M358.94,568.44,245.1,572.68l-3.26-.06C247.35,517,257.25,422,257.73,418c2.45-13.74,13.33-24.41,21.41-26.43a91.33,91.33,0,0,1,18.34-3.27c33.83-4.62,56.7,18.9,58.79,60.92Z" transform="translate(-136.45 -200.85)"/><path class="cls-24" d="M257.61,417.15c2-13,9.39-19.13,17.45-24,13.52-7.06,52.65,16.51,12.83,69-11.61,21-11,61.78-14.82,109.63,0,0-30.13.91-31.23.88C244.63,517.68,255.86,421.83,257.61,417.15Z" transform="translate(-136.45 -200.85)"/><path class="cls-22" d="M304.31,366l1.65-11.2a14.76,14.76,0,0,1,5.86-9.61,14.34,14.34,0,0,1,10.85-2.63l8.52,1.32a6.42,6.42,0,0,1,4.29,2.51,6.84,6.84,0,0,1,1.14,5S316.23,369.06,304.31,366Z" transform="translate(-136.45 -200.85)"/><path class="cls-4" d="M339.14,367.43c-.26-3.74-1.82-11.05-2.47-16.06l-12.34-1.91a3.58,3.58,0,0,0-2.69.51,3.32,3.32,0,0,0-1.44,2.19l-1.82,11.76-4.33-.86.77-5c.21-1.39-1.2-2.69-2.6-2.9l-.06,0a2.6,2.6,0,0,0-3,2l-1.36,8.05-3.32-.54-4.72,23.44c5,7.7,15.38,11.08,22.16,5.35l2.25-11.18,5.91.93a3.48,3.48,0,0,0,2.51-.67c.74-.55,1.46-3.72,1.6-4.57.31-2.42.68-4.85,1.06-7.31C335.27,369.82,339.84,370.33,339.14,367.43Z" transform="translate(-136.45 -200.85)"/><path class="cls-9" d="M321.58,349.84a3.55,3.55,0,0,1,2.68-.51l12.35,1.91c.07.56.53,3.34.62,3.95L326,353.24a3.54,3.54,0,0,0-2.68.5,3.32,3.32,0,0,0-1.45,2.2l-.89,4.41-.85,8.19c-1.07.08-2.68-2-2-3.85l1.05-6.76.91-5.9A3.33,3.33,0,0,1,321.58,349.84Z" transform="translate(-136.45 -200.85)"/><path class="cls-25" d="M183.45,467.87c-3.93-6.05-3.36-13.59,1.28-16.85l84.49-54.42c8.12-5.69,19.4-3.07,25.19,5.84s3.92,20.76-4.19,26.45l-91.25,44C194.34,476.19,187.39,473.92,183.45,467.87Z" transform="translate(-136.45 -200.85)"/><path class="cls-9" d="M307.81,365.2v.72c.18,1.05,1.17,1.65,2.42,1.85l.38.06a2.4,2.4,0,0,0,3-2l-.88,5.55,11.17,12.32-.6,3c-.52-.08-6.91-.64-6.91-.64-6.88-.93-10.86-6.58-10.09-11.49Z" transform="translate(-136.45 -200.85)"/><path class="cls-22" d="M334.21,377.78l-4.73-.73a2,2,0,1,1,.61-3.92l4.69.72.38-2.62-2.42-.37-4.38-.68L320.85,369a3.51,3.51,0,0,1-2.08-1.53,3.77,3.77,0,0,1-.53-2.67l.28-2.36-4.3-.59-1.82,11.87a8,8,0,0,0,1.05,5.85,7.33,7.33,0,0,0,4.58,3.28l11.6,1.8c3.42.08,3.94-3.2,4.27-4.76Z" transform="translate(-136.45 -200.85)"/><path class="cls-26" d="M269.22,396.6s-73.89,47.66-73.86,47.72c3,8.38,41.08-4.59,63.1-15.92,20.82-11.24,34.5-22.71,30-31a6.93,6.93,0,0,0-1.18-1.58A17,17,0,0,0,269.22,396.6Z" transform="translate(-136.45 -200.85)"/><path class="cls-3" d="M324.52,398.6a2.68,2.68,0,0,1-2.11,3.15l-3.48.73a2.68,2.68,0,0,1-3.2-2l-.61-2.89a2.69,2.69,0,0,1,2.11-3.15l3.48-.73a2.66,2.66,0,0,1,3.2,2Z" transform="translate(-136.45 -200.85)"/><path class="cls-3" d="M338.45,503.79l-6.95,12.55-11.32-14.13c5-31.11.56-73.45-1.61-101.81l5.26,0C331.12,410.61,341.47,471.53,338.45,503.79Z" transform="translate(-136.45 -200.85)"/><rect class="cls-27" x="57.73" y="410.72" width="787.59" height="12.28"/><rect class="cls-12" x="685.67" y="405.8" width="110.93" height="4.91"/><path class="cls-4" d="M444.23,498.51c13.22-5,26.45-1.95,29.27,4.36a145.32,145.32,0,0,0-24.92,4.86C446.18,508.46,444.23,498.51,444.23,498.51Z" transform="translate(-136.45 -200.85)"/><path class="cls-24" d="M448.38,509.07l-64.34,19C378,530.72,371,527.48,368.3,521c-2.41-6.75.74-14.52,7-17.36l69.38-8.05C447.63,494.62,451.41,508,448.38,509.07Z" transform="translate(-136.45 -200.85)"/><path class="cls-4" d="M230.46,497l8.06,7.73c-4,12.85,1.71,25.49,6.25,27.12.86-8.87,2.84-21.06,6.87-30.16.58-3-.34-4.48-4.47-5.74l-13.9-9Z" transform="translate(-136.45 -200.85)"/><path class="cls-25" d="M235.52,504.29l-50.19-32.21c-8.25-6.12-8.08-17.78-.25-20.95a13.72,13.72,0,0,1,17.81,4.38l42,38.35C246.33,496.58,237.05,507.09,235.52,504.29Z" transform="translate(-136.45 -200.85)"/><path class="cls-27" d="M872.58,415.88a1.4,1.4,0,0,1-.66-.16,1.43,1.43,0,0,1-.74-1.5l1.57-9.19H845c-2.31,0-4.22-3.49-4.22-5.27V368.17c0-2.12,2.13-3.22,4.22-3.22H893.7c2.3,0,4.75,1.13,4.75,3.22v31.59c0,1.83-2.52,5.27-4.75,5.27H884l-10.43,10.43A1.39,1.39,0,0,1,872.58,415.88ZM845.06,402.2h29.38a1.41,1.41,0,0,1,1.39,1.65l-1.1,6.46,7.69-7.7a1.45,1.45,0,0,1,1-.41H893.7a4.94,4.94,0,0,0,1.92-2.45V368.29a3.64,3.64,0,0,0-1.92-.51H845a2,2,0,0,0-1.39.41v31.57A4.24,4.24,0,0,0,845.06,402.2Z" transform="translate(-136.45 -200.85)"/><rect class="cls-27" x="717.19" y="174.74" width="29.88" height="2.83"/><rect class="cls-27" x="717.19" y="182.52" width="29.88" height="2.83"/><rect class="cls-27" x="717.19" y="188.25" width="13.1" height="2.83"/><line class="cls-28" x1="312.97" y1="62.36" x2="316.52" y2="58.81"/><line class="cls-28" x1="301.91" y1="73.42" x2="305.79" y2="69.55"/><line class="cls-28" x1="306.08" y1="62.98" x2="301.52" y2="58.42"/><line class="cls-28" x1="316.52" y1="73.42" x2="312.45" y2="69.35"/><line class="cls-29" x1="806.04" y1="169.03" x2="809.59" y2="165.48"/><line class="cls-29" x1="794.98" y1="180.09" x2="798.86" y2="176.21"/><line class="cls-29" x1="799.15" y1="169.64" x2="794.59" y2="165.09"/><line class="cls-29" x1="809.59" y1="180.09" x2="805.52" y2="176.02"/><line class="cls-29" x1="331.48" y1="222.37" x2="335.02" y2="218.82"/><line class="cls-29" x1="320.42" y1="233.42" x2="324.29" y2="229.55"/><line class="cls-29" x1="324.58" y1="222.98" x2="320.02" y2="218.42"/><line class="cls-29" x1="335.02" y1="233.42" x2="330.95" y2="229.35"/><line class="cls-29" x1="543.61" y1="111.31" x2="545.91" y2="109.02"/><line class="cls-29" x1="536.46" y1="118.47" x2="538.97" y2="115.96"/><line class="cls-29" x1="539.15" y1="111.71" x2="536.2" y2="108.76"/><line class="cls-29" x1="545.91" y1="118.47" x2="543.28" y2="115.83"/><line class="cls-28" x1="441.7" y1="43.53" x2="441.7" y2="58.27"/><line class="cls-28" x1="434.74" y1="51.31" x2="449.48" y2="51.31"/><line class="cls-29" x1="639.01" y1="164.29" x2="639.01" y2="179.02"/><line class="cls-29" x1="632.87" y1="172.47" x2="648.01" y2="172.47"/><line class="cls-29" x1="382.9" y1="179.74" x2="382.9" y2="191.62"/><line class="cls-29" x1="377.17" y1="186.29" x2="389.45" y2="186.29"/><path class="cls-30" d="M860.07,298.75a3.53,3.53,0,1,1-3.52-3.52A3.53,3.53,0,0,1,860.07,298.75Z" transform="translate(-136.45 -200.85)"/><path class="cls-31" d="M216.71,385.2a4.7,4.7,0,1,1-4.69-4.69A4.69,4.69,0,0,1,216.71,385.2Z" transform="translate(-136.45 -200.85)"/><path class="cls-30" d="M372.21,324.46a4.7,4.7,0,1,1-4.7-4.7A4.7,4.7,0,0,1,372.21,324.46Z" transform="translate(-136.45 -200.85)"/><path class="cls-27" d="M693.74,246.92H650.39v-.6q0-11.3,0-22.59a1.2,1.2,0,0,1,.56-1.1q10.38-7.65,20.74-15.34a.54.54,0,0,1,.78,0q10.38,7.69,20.78,15.37a1.05,1.05,0,0,1,.49,1c0,7.58,0,15.16,0,22.74ZM667.25,230h9.66v14.44h14.34v-.6q0-9.52,0-19a.84.84,0,0,0-.39-.75q-9.24-6.83-18.45-13.65a.48.48,0,0,0-.69,0q-9.19,6.83-18.41,13.62a.82.82,0,0,0-.4.74q0,9.58,0,19.15c0,.17,0,.35,0,.52h14.29Z" transform="translate(-136.45 -200.85)"/><path class="cls-27" d="M697.21,219.29l-2.38,1.61-4.32-3.19-18.07-13.36a.53.53,0,0,0-.78,0q-9.6,7.13-19.23,14.23l-3.13,2.32-2.39-1.63,3.35-2.48q10.57-7.83,21.16-15.67a.87.87,0,0,1,1.27,0q12,9,24.09,17.84Z" transform="translate(-136.45 -200.85)"/><path class="cls-27" d="M402.23,463.81a2.06,2.06,0,0,1-2-1.64l-1-4.64a.58.58,0,0,0-.11-.13L396,455.59h-.14l-4.51,1.47a2.07,2.07,0,0,1-2.41-.92l-2.7-4.67a2.07,2.07,0,0,1,.42-2.56l3.53-3.18a.26.26,0,0,0,.05-.14V442a.42.42,0,0,0-.07-.13l-3.52-3.18a2.05,2.05,0,0,1-.41-2.54l2.69-4.67a2.08,2.08,0,0,1,2.43-.91l4.51,1.47a1.1,1.1,0,0,0,.16,0l3.14-1.81a1.31,1.31,0,0,0,.07-.13l1-4.63a2.06,2.06,0,0,1,2-1.63h5.38a2.05,2.05,0,0,1,2,1.64l1,4.64a.53.53,0,0,0,.1.12l3.13,1.82H414l4.5-1.47a2.08,2.08,0,0,1,2.42.92l2.7,4.67a2.1,2.1,0,0,1-.42,2.56l-3.54,3.17a.53.53,0,0,0,0,.15v3.62a.88.88,0,0,0,.07.13l3.52,3.17a2.07,2.07,0,0,1,.41,2.55l-2.69,4.67a2.07,2.07,0,0,1-2.43.91L414,455.58a.55.55,0,0,0-.16,0l-3.13,1.81a.62.62,0,0,0-.08.12l-1,4.64a2.07,2.07,0,0,1-2,1.63Zm5-2.14v0Zm-4.6,0h0Zm-2.36-6.42a2.7,2.7,0,0,1,1.37,1.8l.93,4.33h4.73l.92-4.35a2.72,2.72,0,0,1,1.38-1.78l2.91-1.68a2.72,2.72,0,0,1,2.24-.3l4.22,1.37,2.37-4.1-3.31-3a2.7,2.7,0,0,1-.86-2.07v-3.36A2.74,2.74,0,0,1,418,440l3.3-3L419,433l-4.22,1.38a2.67,2.67,0,0,1-2.23-.3l-2.91-1.68a2.71,2.71,0,0,1-1.38-1.8l-.92-4.33h-4.73l-.93,4.35a2.71,2.71,0,0,1-1.37,1.78L397.35,434a2.71,2.71,0,0,1-2.25.29L390.89,433l-2.37,4.1,3.3,3a2.72,2.72,0,0,1,.86,2.07v3.36a2.7,2.7,0,0,1-.87,2.09l-3.29,3,2.37,4.11,4.23-1.38a2.68,2.68,0,0,1,2.23.3Zm-9.67-.51h0Zm28.65,0h0Zm2.32-4h0Zm-33.27,0h0Zm0-13.88h0Zm2.32-4h0Zm28.68,0h0Zm-12-6.94v0Zm-4.6,0v0Zm2.3,26a8.27,8.27,0,0,1-2.47-.38,8,8,0,0,1-2.76-1.53,8.12,8.12,0,0,1-2-2.47,8.31,8.31,0,0,1-.88-3,8.16,8.16,0,0,1,.35-3.15,8.22,8.22,0,0,1,4-4.75,8.31,8.31,0,0,1,3.05-.88,8.17,8.17,0,0,1,3.15.36,8.8,8.8,0,0,1,2.13,1.09,8.6,8.6,0,0,1,1.18,1,9.55,9.55,0,0,1,1.44,1.92,8.3,8.3,0,0,1,.87,3.05,8.09,8.09,0,0,1-1.88,5.92,8.27,8.27,0,0,1-2.47,2,8.16,8.16,0,0,1-3.05.87Zm0-13.79-.48,0a5.67,5.67,0,0,0-2.13.61,5.66,5.66,0,0,0-2.8,3.32,5.63,5.63,0,0,0-.24,2.2,5.66,5.66,0,0,0,3.93,4.93,5.64,5.64,0,0,0,6.06-1.75,5.48,5.48,0,0,0,1.07-1.93,5.64,5.64,0,0,0,.25-2.2h0a5.75,5.75,0,0,0-.61-2.13,7.28,7.28,0,0,0-1-1.35,6.63,6.63,0,0,0-.81-.68,7.12,7.12,0,0,0-1.49-.78A5.89,5.89,0,0,0,404.92,438.12Z" transform="translate(-136.45 -200.85)"/><path class="cls-27" d="M798.5,259.91l0,0h0l-1.55-.9a9,9,0,0,0-4.38-9.19h0l0,0-.06,0h0l-.19-.08a8.13,8.13,0,0,0-2.92-5.53h0a4.87,4.87,0,0,0-3-1.12,5.19,5.19,0,0,0-8-2.87,4.77,4.77,0,0,0-3.86-2.25,4.69,4.69,0,0,0-4.81,3.89v0h0l-.17,1.32-2.26-1.29a2.92,2.92,0,0,1-1.34-2.14h0a8,8,0,0,0-4.1-6.07,8.2,8.2,0,0,0-7.32.26h0l-.05,0h0a1.49,1.49,0,0,0-.69,1.27,1.53,1.53,0,0,0,.73,1.32h0l5,2.87a3.72,3.72,0,0,1-2.9,4.76l-4.74-2.74h0a1.5,1.5,0,0,0-1.53,0,1.55,1.55,0,0,0-.72,1.37h0a8.37,8.37,0,0,0,1,3.58,7.33,7.33,0,0,0,5.57,3.78,7.92,7.92,0,0,0,.85,0,8.74,8.74,0,0,0,3.18-.63h0a2.73,2.73,0,0,1,2.43.13l1.56.91-.95,1.67h0a9.87,9.87,0,0,0-.58,8.91v0h0l3.8,8.14h0a5,5,0,0,1,.42,2.84l-.25,1.66-.34,1.65-.19.79h-.26a2.41,2.41,0,0,0-2.3,1.72h0l-.53,1.76-.61,1.73-.7,1.69h0l0,.09a.06.06,0,0,0,0,0,.14.14,0,0,0,0,.07s0,0,0,.06,0,0,0,0v.1h0v.1h0s0,.06,0,.09a1,1,0,0,0,.1.3v0l0,.06,0,0s0,0,0,0a.21.21,0,0,1,0,.06h0a1.21,1.21,0,0,0,.24.21l.08.05h0l.1.05h0l.08,0h.11l.09,0h22.87a1.11,1.11,0,0,0,1.1-.94,1,1,0,0,0,0-.17,18.74,18.74,0,0,1,.57-4.35h0a2.39,2.39,0,0,0-.43-2.07,2.31,2.31,0,0,0-.86-.69c.11-.27.21-.54.33-.81h0a5,5,0,0,1,1.63-2.07h0a23.29,23.29,0,0,0,5.4-6.27l.74.43,0,0H794a4.52,4.52,0,0,0,2.07.5,4.78,4.78,0,0,0,1.29-.18,4.58,4.58,0,0,0,1.19-8.26Zm-3.73-2.16-1.18-.68a1.12,1.12,0,0,0-2.22-.31,6.72,6.72,0,0,1-3.23,4.68,1.6,1.6,0,0,1-1.74-.29,1.53,1.53,0,0,1-.38-1.7l2.87-6.64h0a2,2,0,0,1,1.09-1.06,2,2,0,0,1,1.46,0A6.76,6.76,0,0,1,794.77,257.75Zm-4.84-8.3a4.61,4.61,0,0,0-.75.21,4.25,4.25,0,0,0-2.34,2.26h0l-2.59,6a1.7,1.7,0,0,1-1.87.47,1.72,1.72,0,0,1-1.17-1.65,26.52,26.52,0,0,1,.44-3.44h0a26.53,26.53,0,0,1,2.25-6.6,2.55,2.55,0,0,1,1.77-1.38,2.6,2.6,0,0,1,2.19.54h0A5.93,5.93,0,0,1,789.93,249.45ZM782,241.53a2.91,2.91,0,0,1,2,2,4.79,4.79,0,0,0-2.18,2.18,28.44,28.44,0,0,0-2.44,7.16c-.07.36-.14.72-.19,1.07a2,2,0,0,1-2,.47,2.06,2.06,0,0,1-1.2-.87,8.31,8.31,0,0,0,3.31-2.8h0a3.28,3.28,0,0,0-1.78-5,10.83,10.83,0,0,1,1.15-2.93A2.94,2.94,0,0,1,782,241.53Zm-7.71-1.41a2.51,2.51,0,0,1,2.33,1.87,12.79,12.79,0,0,0-1.24,3.32c-.32,0-.65-.05-1-.05h0a2.27,2.27,0,0,1-.55-.08h0l-2.4-.74.31-2.32A2.48,2.48,0,0,1,774.33,240.12Zm-10.7,7.63h0a5,5,0,0,0-4.39-.27h0a6.2,6.2,0,0,1-3,.44,5.06,5.06,0,0,1-3.86-2.63,5.73,5.73,0,0,1-.48-1.14l3.51,2h0l.07,0a1.8,1.8,0,0,0,.84.2,2,2,0,0,0,.34,0h0a6,6,0,0,0,4.68-7.88h0a1.9,1.9,0,0,0-.84-1h0l-3.73-2.17a5.57,5.57,0,0,1,3.94.28,5.79,5.79,0,0,1,2.88,4.42h0a5.15,5.15,0,0,0,2.43,3.72h0l1.88,1.07a4.26,4.26,0,0,0-1.45,1.5h0l-1.31,2.3Zm20.52,30.78h.55a.18.18,0,0,1,.14.06.18.18,0,0,1,0,.15h0a21.77,21.77,0,0,0-.6,3.77h-20l.08-.18s0,0,0-.06l.63-1.78,0,0,.54-1.78h0a.17.17,0,0,1,.16-.12h18.42Zm2.21-6.66h0a7.17,7.17,0,0,0-2.34,3h0c-.21.47-.39,1-.56,1.45H768.3l.06-.3v0l.35-1.69s0,0,0-.06l.26-1.69h0a7.23,7.23,0,0,0-.61-4.1h0l-3.78-8.11a7.61,7.61,0,0,1,.46-6.9h0v0l1.44-2.53a.35.35,0,0,1,0-.08.37.37,0,0,0,.05-.11l1.82-3.2h0a2,2,0,0,1,1.75-1h.08a2.36,2.36,0,0,1,.45.08h0l2.54.78h0a4.47,4.47,0,0,0,1.17.18h0a11,11,0,0,1,2.55.34h0a1.06,1.06,0,0,1,.72.63,1.11,1.11,0,0,1-.12,1h0a6,6,0,0,1-3.13,2.32l-.18.05a4.54,4.54,0,0,1-.53.12,6,6,0,0,1-4.46-1,1.12,1.12,0,0,0-1.29,1.83,8.33,8.33,0,0,0,2.71,1.24,6.79,6.79,0,0,1-2.45,3.42.91.91,0,0,0,.53,1.64.89.89,0,0,0,.53-.18,8.56,8.56,0,0,0,3.2-4.64h.19a8.48,8.48,0,0,0,1.23-.09,4.39,4.39,0,0,0,4,2.53,3.9,3.9,0,0,0,1.08-.14v.11a4,4,0,0,0,2.67,3.82,4.06,4.06,0,0,0,1.32.22,3.67,3.67,0,0,0,.75-.07,3.81,3.81,0,0,0,3.14,3.12l4.32,2.5A21,21,0,0,1,786.36,271.87Zm11.7-6.93a2.38,2.38,0,0,1-3.11.91l-5-2.89a8.71,8.71,0,0,0,3-3.68l4.37,2.52A2.34,2.34,0,0,1,798.06,264.94Z" transform="translate(-136.45 -200.85)"/><path class="cls-27" d="M448.89,348.27l.48-.47.48-.46c.26-.26-.19-1.46-1-2.67l-2.11-3.12a6.36,6.36,0,0,0-2.91-2.49l-1.41-.29L436,332.58l-2.31,2.25,6.35,6.2.3,1.37a6.29,6.29,0,0,0,2.56,2.83l3.21,2.06c1.25.8,2.48,1.24,2.74,1Zm0,0" transform="translate(-136.45 -200.85)"/><path class="cls-27" d="M408.9,315.36l10.64,10.35.08.07,1.56-1.53L410,313.4a.65.65,0,0,1,0-.94.69.69,0,0,1,1,0l11.14,10.85,1.74-1.7-11.15-10.85a.66.66,0,0,1,0-.95.7.7,0,0,1,1,0l11.16,10.86,1.56-1.52-.07-.09-1.24-1.2-9.39-9.14a4.93,4.93,0,0,0-6.83,0,4.61,4.61,0,0,0,0,6.64Zm0,0" transform="translate(-136.45 -200.85)"/><path class="cls-27" d="M414,349.53a6.59,6.59,0,0,1-4.62-1.86,6.29,6.29,0,0,1,0-9.05L429.55,319a10.53,10.53,0,0,1-.06-2.38,10.21,10.21,0,0,1,3.06-6.37,10.7,10.7,0,0,1,8.73-2.94,2.18,2.18,0,0,1,2,1.4,2.45,2.45,0,0,1-.79,2.53l-3.81,3.71a1.29,1.29,0,0,0-.4.94,1.31,1.31,0,0,0,.41.94l2.39,2.32a1.43,1.43,0,0,0,2,0l3.7-3.6a2.46,2.46,0,0,1,2.57-.72,2.11,2.11,0,0,1,1.3,1.94h0a10.12,10.12,0,0,1-3.07,8.08,10.72,10.72,0,0,1-8.49,3L418.6,347.67A6.62,6.62,0,0,1,414,349.53Zm26-40.69a9,9,0,0,0-6.32,2.55,8.61,8.61,0,0,0-2.58,5.35,9,9,0,0,0,.11,2.37l.08.43-20.8,20.25a4.65,4.65,0,0,0,0,6.71,5,5,0,0,0,7,0l20.69-20.15.29-.27.39.05a9.19,9.19,0,0,0,7.54-2.47,8.55,8.55,0,0,0,2.58-6.78c0-.29-.12-.49-.26-.54s-.5,0-.85.36l-3.69,3.59a3.05,3.05,0,0,1-4.26,0L437.5,318a2.93,2.93,0,0,1,0-4.22l3.82-3.71c.34-.34.44-.66.38-.83s-.28-.27-.6-.31A9.77,9.77,0,0,0,440,308.84Zm-25.2,36.48a3.17,3.17,0,0,1-2.19-.87,3,3,0,0,1-.91-2.16,3,3,0,0,1,.92-2.15,3.17,3.17,0,0,1,4.36,0,3,3,0,0,1,.92,2.15,3,3,0,0,1-.91,2.15h0A3.15,3.15,0,0,1,414.81,345.32Zm0-4.73a1.77,1.77,0,0,0-1.25.51,1.64,1.64,0,0,0,0,2.39,1.83,1.83,0,0,0,2.52,0,1.66,1.66,0,0,0,0-2.39A1.81,1.81,0,0,0,414.81,340.59Z" transform="translate(-136.45 -200.85)"/><path class="cls-27" d="M531.4,287.05H495.32V253.33h9.54V242.2a2.49,2.49,0,0,1,.53-1.62,2.53,2.53,0,0,1,1.7-.78H531.4v21.33l1.91-1.91V237.89H505a2.87,2.87,0,0,0-2.44,1.15l-8.31,10.75a4.43,4.43,0,0,0-.8,2.5V289h39.9V271.82l-1.91,1.9Z" transform="translate(-136.45 -200.85)"/><path class="cls-27" d="M524,264a1.09,1.09,0,0,0-1.09-1.09H503.8a1.09,1.09,0,0,0,0,2.18h19.12A1.09,1.09,0,0,0,524,264Z" transform="translate(-136.45 -200.85)"/><path class="cls-27" d="M511.3,271.46a1.09,1.09,0,0,0,0-2.18h-7.5a1.09,1.09,0,0,0,0,2.18Z" transform="translate(-136.45 -200.85)"/><path class="cls-27" d="M503.8,258.72H519a1.09,1.09,0,1,0,0-2.18H503.8a1.09,1.09,0,1,0,0,2.18Z" transform="translate(-136.45 -200.85)"/><path class="cls-27" d="M504.43,281.68a.89.89,0,0,0,1-.77,7.08,7.08,0,0,1,1.95-4.46,4.09,4.09,0,0,1,.26,1.77c0,2.77.39,4,1.36,4.42s2.1-.68,2.7-1.34c.28-.31.49-.43.59-.43h0c.25,0,.7.5,1,.86.19.21.39.43.6.62a2.65,2.65,0,0,0,1.79.74,3.69,3.69,0,0,0,2.47-1.17l.14-.14a7.72,7.72,0,0,0,4.27-1.92l2.3-2.3-3.6-3.6-2.31,2.3a7.71,7.71,0,0,0-1.92,4.28l-.09.09c-1.15,1.07-1.62.63-1.84.43s-.32-.33-.5-.52a3.37,3.37,0,0,0-2.34-1.44h0a2.64,2.64,0,0,0-1.91,1,6.38,6.38,0,0,1-.73.72,9.45,9.45,0,0,1-.24-2.62c0-2.87-1-3.53-1.85-3.58-1.88-.11-3.52,3-3.89,6.05A.89.89,0,0,0,504.43,281.68Z" transform="translate(-136.45 -200.85)"/><path class="cls-27" d="M541.89,256.94a2.55,2.55,0,0,0-3.61,0l-15.72,15.72,3.6,3.6,15-15a1.71,1.71,0,0,1-.52,1.48l-6.46,6.46a.56.56,0,0,0,0,.81.54.54,0,0,0,.41.17.54.54,0,0,0,.4-.17l6.47-6.46a2.8,2.8,0,0,0,.6-3.22A2.54,2.54,0,0,0,541.89,256.94Z" transform="translate(-136.45 -200.85)"/><path class="cls-27" d="M276.44,312.1a1.17,1.17,0,0,1-.8-.33,1.14,1.14,0,0,1-.26-1.19l5.47-15a1.36,1.36,0,0,1,.26-.41L309.31,267a1.12,1.12,0,0,1,1.6,0l9.49,9.49a1.13,1.13,0,0,1,0,1.6l-28.2,28.2a1.15,1.15,0,0,1-.41.26l-15,5.47A1.34,1.34,0,0,1,276.44,312.1Zm6.44-15.48-4.55,12.45,12.45-4.55L318,277.3l-7.89-7.9Z" transform="translate(-136.45 -200.85)"/><path class="cls-27" d="M291.4,306.63a1.12,1.12,0,0,1-.79-.33l-9.5-9.5a1.13,1.13,0,1,1,1.6-1.6l9.49,9.5a1.13,1.13,0,0,1-.8,1.93Z" transform="translate(-136.45 -200.85)"/><path class="cls-27" d="M315.2,282.83a1.13,1.13,0,0,1-.8-.33l-9.49-9.5a1.13,1.13,0,0,1,1.6-1.59L316,280.9a1.13,1.13,0,0,1-.8,1.93Z" transform="translate(-136.45 -200.85)"/><path class="cls-27" d="M286.66,301.88a1.13,1.13,0,0,1-.8-1.93l23.8-23.8a1.12,1.12,0,0,1,1.59,0,1.13,1.13,0,0,1,0,1.6l-23.79,23.8A1.13,1.13,0,0,1,286.66,301.88Z" transform="translate(-136.45 -200.85)"/><path class="cls-27" d="M319.6,312.09H298a1.13,1.13,0,0,1,0-2.26H319.6a1.13,1.13,0,0,1,0,2.26Z" transform="translate(-136.45 -200.85)"/><path class="cls-27" d="M903.56,272l8.72-7.44c-.77-2.79-.18-4.81,1.78-6.17a5,5,0,0,1,5.71.08c1.89,1.39,2.44,3.46,1.63,6.18l5.68,5c3.11-2.06,5.21-2,7.52.38L945.14,259a5,5,0,1,1,9.3-2.17,4.93,4.93,0,0,1-4.61,4.72,6.74,6.74,0,0,1-2.14-.43.81.81,0,0,0-1,.17c-3.54,3.53-7.11,7-10.65,10.57a1.14,1.14,0,0,0-.27.78,5,5,0,1,1-9.94.41.74.74,0,0,1,0-.3c.44-1-.16-1.5-.84-2.06-1.71-1.43-3.38-2.91-5.06-4.36a5.18,5.18,0,0,1-5.79.09.72.72,0,0,0-.64.11c-2.72,2.3-5.41,4.62-8.12,6.91-.37.31-.21.54-.11.85a5,5,0,0,1-7,5.9,4.74,4.74,0,0,1-2.79-4.61,4.91,4.91,0,0,1,6.47-4.39C902.48,271.4,903,271.68,903.56,272Zm-.44,4a2.57,2.57,0,0,0-2.61-2.59,2.62,2.62,0,0,0-2.57,2.57,2.66,2.66,0,0,0,2.63,2.61A2.6,2.6,0,0,0,903.12,275.92Zm46.37-16.57a2.59,2.59,0,1,0-2.6-2.62A2.62,2.62,0,0,0,949.49,259.35Zm-29.94,3.07a2.61,2.61,0,0,0-2.64-2.59A2.6,2.6,0,1,0,917,265,2.55,2.55,0,0,0,919.55,262.42Zm13.71,10.68a2.6,2.6,0,0,0-2.59-2.62,2.59,2.59,0,1,0,0,5.18A2.57,2.57,0,0,0,933.26,273.1Z" transform="translate(-136.45 -200.85)"/><path class="cls-27" d="M930.74,267.87a5.26,5.26,0,1,0,5.25,5.26A5.25,5.25,0,0,0,930.74,267.87Zm0,7.92a2.67,2.67,0,1,1,2.66-2.66A2.66,2.66,0,0,1,930.74,275.79Z" transform="translate(-136.45 -200.85)"/><path class="cls-27" d="M949.48,251.57a5.26,5.26,0,1,0,5.25,5.25A5.25,5.25,0,0,0,949.48,251.57Zm0,7.92a2.67,2.67,0,1,1,2.66-2.67A2.66,2.66,0,0,1,949.48,259.49Z" transform="translate(-136.45 -200.85)"/><path class="cls-27" d="M917,257.2a5.26,5.26,0,1,0,5.26,5.26A5.27,5.27,0,0,0,917,257.2Zm0,7.93a2.67,2.67,0,1,1,2.67-2.67A2.68,2.68,0,0,1,917,265.13Z" transform="translate(-136.45 -200.85)"/><path class="cls-27" d="M900.56,270.61a5.26,5.26,0,1,0,5.26,5.26A5.26,5.26,0,0,0,900.56,270.61Zm0,7.93a2.67,2.67,0,1,1,2.67-2.67A2.67,2.67,0,0,1,900.56,278.54Z" transform="translate(-136.45 -200.85)"/><path class="cls-27" d="M603.48,371.63a1.12,1.12,0,0,1-.56-.15l-2.43-1.4a1.16,1.16,0,0,1-.51-1.36l.91-2.47v-.06l-.9-1.56-2.59-.42a1.16,1.16,0,0,1-.94-1.13v-2.81a1.16,1.16,0,0,1,.93-1.12l2.64-.48.9-1.56-.93-2.46a1.17,1.17,0,0,1,.5-1.38l2.43-1.4a1.16,1.16,0,0,1,1.44.24l1.68,2h0l0,0h1.8l1.66-2a1.18,1.18,0,0,1,1.45-.26l2.43,1.4a1.18,1.18,0,0,1,.51,1.37L613,357.1v0l.9,1.57,2.59.42a1.15,1.15,0,0,1,.94,1.12v2.82a1.16,1.16,0,0,1-.93,1.12h0l-2.62.48-.9,1.56.93,2.46a1.17,1.17,0,0,1-.5,1.38l-2.43,1.4a1.16,1.16,0,0,1-1.44-.24l-1.68-2h0l0,0H606l-1.66,2A1.19,1.19,0,0,1,603.48,371.63ZM601.42,369l2,1.16,1.55-1.86a1.49,1.49,0,0,1,1.14-.49h1.7a1.45,1.45,0,0,1,1.13.47l1.56,1.88,2-1.16-.85-2.27a1.53,1.53,0,0,1,.15-1.24l.85-1.47a1.48,1.48,0,0,1,1-.74l2.4-.41v-2.32l-2.38-.4a1.48,1.48,0,0,1-1-.75l-.85-1.47a1.49,1.49,0,0,1-.16-1.22l.85-2.28-2-1.16L609,355.09a1.5,1.5,0,0,1-1.15.49h-1.69a1.5,1.5,0,0,1-1.14-.47l-1.55-1.88-2,1.16.85,2.27a1.54,1.54,0,0,1-.15,1.24l-.85,1.46a1.46,1.46,0,0,1-1,.75l-2.4.41v2.32l2.38.4a1.48,1.48,0,0,1,1,.75l.85,1.47a1.49,1.49,0,0,1,.16,1.22Zm5.54-3.08h-.19a4.24,4.24,0,0,1-1.6-.4,4.34,4.34,0,0,1-1.32-1,4.39,4.39,0,0,1-.85-1.41,4.07,4.07,0,0,1-.24-1.62,4.22,4.22,0,0,1,.39-1.59,4.29,4.29,0,0,1,1-1.33,4.15,4.15,0,0,1,1.4-.84,4.29,4.29,0,0,1,1.62-.25,4.25,4.25,0,0,1,2.92,1.37,4.82,4.82,0,0,1,.68,1,6.71,6.71,0,0,1,.27.75,4.63,4.63,0,0,1,.14,1.24,4.22,4.22,0,0,1-.39,1.59,4.14,4.14,0,0,1-1,1.32,4.17,4.17,0,0,1-2.83,1.1Zm0-7a2.79,2.79,0,0,0-.94.17,2.73,2.73,0,0,0-.93.55,3.11,3.11,0,0,0-.64.88,3,3,0,0,0-.26,1.05,2.81,2.81,0,0,0,.16,1.07,3,3,0,0,0,.56.92,2.62,2.62,0,0,0,.87.64,2.78,2.78,0,0,0,2.12.1,2.75,2.75,0,0,0,.93-.56,2.78,2.78,0,0,0,.9-1.92,3.77,3.77,0,0,0-.1-.81,4.09,4.09,0,0,0-.18-.49,3.59,3.59,0,0,0-.44-.69,2.62,2.62,0,0,0-.87-.64,2.77,2.77,0,0,0-1-.27Z" transform="translate(-136.45 -200.85)"/><path class="cls-27" d="M632.4,385.71H580.32a7.05,7.05,0,0,1-7-7V340.78a6.25,6.25,0,0,1,12.4-1.11H632.4Zm-52.87-49a4.13,4.13,0,0,0-4.12,4.12v37.88a4.91,4.91,0,0,0,4.91,4.91h49.94V341.8H585.78v38.3L584,378.54a7.63,7.63,0,0,0-5.66-1.71,1.07,1.07,0,1,1-.37-2.1,8.78,8.78,0,0,1,5.67,1v-35A4.13,4.13,0,0,0,579.53,336.66Z" transform="translate(-136.45 -200.85)"/><path class="cls-27" d="M954.55,458.67a4.77,4.77,0,1,1,4.77-4.76A4.77,4.77,0,0,1,954.55,458.67Z" transform="translate(-136.45 -200.85)"/><path class="cls-27" d="M934.22,444.59a2.42,2.42,0,1,1,2.42-2.42A2.43,2.43,0,0,1,934.22,444.59Z" transform="translate(-136.45 -200.85)"/><path class="cls-27" d="M974.88,444.59a2.42,2.42,0,1,1,2.42-2.42A2.42,2.42,0,0,1,974.88,444.59Z" transform="translate(-136.45 -200.85)"/><path class="cls-27" d="M954.55,479.8a2.42,2.42,0,1,1,2.42-2.42A2.42,2.42,0,0,1,954.55,479.8Z" transform="translate(-136.45 -200.85)"/><path class="cls-27" d="M954.55,462.69a8.78,8.78,0,1,1,8.78-8.78A8.79,8.79,0,0,1,954.55,462.69Zm0-15.65a6.87,6.87,0,1,0,6.87,6.87A6.88,6.88,0,0,0,954.55,447Z" transform="translate(-136.45 -200.85)"/><path class="cls-27" d="M934.22,448.6a6.43,6.43,0,1,1,6.43-6.43A6.43,6.43,0,0,1,934.22,448.6Zm0-11a4.52,4.52,0,1,0,4.52,4.52A4.53,4.53,0,0,0,934.22,437.65Z" transform="translate(-136.45 -200.85)"/><path class="cls-27" d="M974.88,448.6a6.43,6.43,0,1,1,6.43-6.43A6.44,6.44,0,0,1,974.88,448.6Zm0-11a4.52,4.52,0,1,0,4.52,4.52A4.53,4.53,0,0,0,974.88,437.65Z" transform="translate(-136.45 -200.85)"/><path class="cls-27" d="M954.55,483.81a6.43,6.43,0,1,1,6.43-6.43A6.43,6.43,0,0,1,954.55,483.81Zm0-10.95a4.52,4.52,0,1,0,4.52,4.52A4.53,4.53,0,0,0,954.55,472.86Z" transform="translate(-136.45 -200.85)"/><path class="cls-27" d="M954.55,440.71a4,4,0,1,1,4-4A4,4,0,0,1,954.55,440.71Zm0-6.12a2.11,2.11,0,1,0,2.1,2.1A2.1,2.1,0,0,0,954.55,434.59Z" transform="translate(-136.45 -200.85)"/><path class="cls-27" d="M939.64,466.53a4,4,0,0,1-3.88-5,4,4,0,0,1,1.87-2.44,4,4,0,0,1,5.49,1.47,4,4,0,0,1-1.47,5.48A4,4,0,0,1,939.64,466.53Zm0-6.12a2.14,2.14,0,0,0-1,.28,2.11,2.11,0,0,0,1,3.93,2.14,2.14,0,0,0,1.05-.28,2.11,2.11,0,0,0,.77-2.88A2.1,2.1,0,0,0,939.64,460.41Z" transform="translate(-136.45 -200.85)"/><path class="cls-27" d="M969.45,466.53a4,4,0,0,1-2-.54,4,4,0,0,1-1.47-5.48,4,4,0,1,1,3.47,6Zm0-6.12a2.1,2.1,0,0,0-2,2.65,2.07,2.07,0,0,0,1,1.28,2.11,2.11,0,0,0,2.1-3.65A2.14,2.14,0,0,0,969.46,460.41Z" transform="translate(-136.45 -200.85)"/><rect class="cls-27" x="817.14" y="260.88" width="1.91" height="10.17"/><rect class="cls-27" x="960.64" y="446.5" width="10.17" height="1.91" transform="translate(-230.79 342.01) rotate(-30)"/><rect class="cls-27" x="942.41" y="442.37" width="1.91" height="10.17" transform="translate(-52.24 839.9) rotate(-60)"/></svg>