<svg id="Layer_1" data-name="Layer 1" xmlns="http://www.w3.org/2000/svg" viewBox="0 0 893.14 423"><defs><style>.cls-1{fill:#f3f4f8;stroke:#b6b8ba;stroke-width:0.2px;}.cls-1,.cls-30,.cls-31,.cls-32,.cls-33{stroke-miterlimit:10;}.cls-2{fill:#384466;}.cls-3{fill:#2b3452;}.cls-4{fill:#cd8448;}.cls-5{fill:#ebebeb;}.cls-6{fill:#ec7855;}.cls-7{fill:#cd6040;}.cls-8{fill:#471e28;}.cls-9{fill:#cd8951;}.cls-10{fill:#b07042;}.cls-11{fill:#ccbe00;}.cls-12{fill:#e8973d;}.cls-13{fill:#949494;}.cls-14{fill:#eeba5c;}.cls-15{fill:#cd8e5b;}.cls-16{fill:#fff;}.cls-17{fill:#572331;}.cls-18{fill:#f8bc4d;}.cls-19{fill:#d2d2d2;}.cls-20{fill:#342a49;}.cls-21{fill:#a39800;}.cls-22{fill:#141826;}.cls-23{fill:#1e2642;}.cls-24{fill:#d9d9d9;}.cls-25{fill:#dcdcdc;}.cls-26{fill:#fbfbfb;}.cls-27{fill:#00a69d;}.cls-28,.cls-29,.cls-30,.cls-31,.cls-32,.cls-33{fill:none;stroke:#00a69d;}.cls-28,.cls-29{stroke-linejoin:round;}.cls-28,.cls-29,.cls-31,.cls-33{stroke-width:2.83px;}.cls-28,.cls-32,.cls-33{fill-rule:evenodd;}.cls-30,.cls-32{stroke-width:4px;}</style></defs><path class="cls-1" d="M221,638.17c-111.45-122.88-94.67-384.5,218.91-229C545.25,450.6,566,198.07,778.56,337.34c62.52,32.35,81.57,10.18,121.18-.15,117-48,181.66,101.64,137.71,183.42-23.73,36.38-42.88,76.29-34.29,115.93Z" transform="translate(-158.25 -220.73)"/><path class="cls-2" d="M320.7,638.82c.15-2.46.24-3.82.24-3.82l10.88-1.25,1.61,5.07h51.5C379.22,596.65,373,553.16,373,553.16c-5.21-14.91-105.64,24.51-105.33,40.3,1.49,17.53,2.74,31.44,3.79,45.36Z" transform="translate(-158.25 -220.73)"/><path class="cls-3" d="M290.88,638.82l2.21-52.45c-8.42.24-26.13,3.82-27.8,3.55,0,0,1.7,22.29,3.66,48.9Z" transform="translate(-158.25 -220.73)"/><path class="cls-4" d="M633.17,441.42l-3.5-9.33c-10.41-.28-16.89-6.4-17.76-9.93,7,1.53,16.72,3.09,24.2,2.48,2.38.31,3.47,1.31,4.08,4.47l1.88,13.18Z" transform="translate(-158.25 -220.73)"/><path class="cls-5" d="M516.36,608.7a8.81,8.81,0,0,1-8.74,8.83H418.29c-4.5,0-8.64-3.49-10.08-8.83l-7-36.82a8.79,8.79,0,0,1,8.74-8.79h88.34c4.5,0,9.9,3.6,11.07,8.79Z" transform="translate(-158.25 -220.73)"/><path class="cls-6" d="M839.26,600.23a8.71,8.71,0,0,0,8.74,8.7h68c4.5,0,8.64-3.37,10.08-8.7l9.11-52a8.85,8.85,0,0,0-8.73-8.87h-67c-4.49,0-9.89,3.68-11.06,8.87Z" transform="translate(-158.25 -220.73)"/><path class="cls-7" d="M644.39,504.44c3.26,5,9.27,6.73,13.41,3.95L732.86,467a16,16,0,0,0,4.4-22,15.66,15.66,0,0,0-21.84-4.45L646,490.42C641.83,493.2,641.12,499.47,644.39,504.44Z" transform="translate(-158.25 -220.73)"/><path class="cls-7" d="M631.35,438.44l11.47,62.61c3.45,4.8,21.44-2.91,18-7.71l-20-59.28C638.49,431.8,630.44,434.9,631.35,438.44Z" transform="translate(-158.25 -220.73)"/><path class="cls-8" d="M721.19,414.82a25,25,0,0,1-2.5,11c-7.62,13,.53,13.13-3.38,20.29,11.07-.62,23.5-13.52,13-32.36C726.49,413,722.69,414.31,721.19,414.82Z" transform="translate(-158.25 -220.73)"/><path class="cls-6" d="M681,631.91c35.06,9.6,71.44,11.69,110,1.52-3.86-64.18-10.16-128.79-25.32-190.69-.3-5.31-6.38-13.47-11.6-14.44l-27.3-.21C711,446.6,694.22,458.94,692.88,484.7Z" transform="translate(-158.25 -220.73)"/><path class="cls-7" d="M731.53,447.64c.44,37.06,17,42.35,21.48,80,6.34,39.09-8.93,73-2.41,107.49,5.65,1.77,35.09,1.17,40.32-1.65-3.86-64.18-10.16-128.79-25.32-190.69C765.3,437.43,741.56,446.89,731.53,447.64Z" transform="translate(-158.25 -220.73)"/><path class="cls-9" d="M714.85,404.64c-.73-.42-2.93-.83-2.84-3a26.17,26.17,0,0,0,2.68-9.14c.13-5.7,2.34-8,2.77-9.06,21.67,3.95,29.09,28.61,26.37,45.12-6.1,4.23-13.63,4.46-18.26,1.57l1.27-15.58-6.57,1.73c-3.9.11-5.2-2-5.19-4.61Z" transform="translate(-158.25 -220.73)"/><path class="cls-10" d="M726.14,414.54c5.3-1.09,9.5-3.57,9.08-12.57,3.52,1.07,4.32,4.47,4.08,9.65.65,1.51,7.14,15.57,3.27,15.94-1.45,2.74-8-1-8.87-8.47C732.63,417.1,730.56,415.19,726.14,414.54Z" transform="translate(-158.25 -220.73)"/><path class="cls-6" d="M796,522.44c-4,3.48-10.48,2.43-14.19-1.44l-46-64.66c-6.51-6.77-5.09-15.34.74-20.48s13.89-4.89,20.39,1.87l39.22,70.64C799.84,512.24,799.94,519,796,522.44Z" transform="translate(-158.25 -220.73)"/><path class="cls-11" d="M836.83,631.78c7.14-40.7-16-60.46-8-76.75,1.34-1.36,16.9-30,19.33-38.33L880,514.28c15.35,18.09,23.37,28.18,26.07,55.09l12.66,62.24Z" transform="translate(-158.25 -220.73)"/><path class="cls-12" d="M601.16,612.48c3.13,4.93,1.2,11.78-4.32,15.29s-15.7,4.24-18.84-.7l-46.24-71.54c-5.91-9.29-3.39-21.47,5.62-27.19s21.1-2.81,27,6.49Z" transform="translate(-158.25 -220.73)"/><path class="cls-12" d="M634.66,610l-37.26-5.63c-7.49-.56-14,4.29-14.45,10.82s5.19,12.28,12.68,12.84l34.26,1.53Z" transform="translate(-158.25 -220.73)"/><rect class="cls-13" x="358.29" y="405.8" width="151.05" height="4.91"/><path class="cls-14" d="M542.89,640.17l-107.52-2,25.75-102.44c1.15-4.69,3.81-6.91,7.9-10.11S478,523,482.79,523h53.58c11.71,0,23.2,3.3,30.2,13.75A34.9,34.9,0,0,1,570,570.06Z" transform="translate(-158.25 -220.73)"/><polygon class="cls-15" points="367.87 399.75 390.46 397.1 406.73 410.72 364.25 410.72 367.87 399.75"/><path class="cls-12" d="M509.23,614.78c-4.36.05-25.36-6.43-27.12-11.85A12.34,12.34,0,0,1,484,590.54l19.86-36.48c5.74-8.86,3.16-22.21-5.66-27.63s-24.27-3.15-30,5.72l-41.45,81.32C423.68,618.18,509.23,614.78,509.23,614.78Z" transform="translate(-158.25 -220.73)"/><polygon class="cls-13" points="536.34 410.72 434.57 410.72 460.76 335.81 562.52 335.81 536.34 410.72"/><path class="cls-16" d="M664.34,593.36a6.52,6.52,0,1,1-6.51-6.51A6.51,6.51,0,0,1,664.34,593.36Z" transform="translate(-158.25 -220.73)"/><polygon class="cls-16" points="586.96 410.72 600.61 410.72 606.12 373.06 581.58 373.06 586.96 410.72"/><path class="cls-16" d="M766.09,590.92h-.63l-4.52-6.14H743.59l-4.52,6.14h-.76c-.9,0-1.63.4-1.63,1.44s.73,1.43,1.63,1.43h27.78c.9,0,1.64-.39,1.64-1.43S767,590.92,766.09,590.92Z" transform="translate(-158.25 -220.73)"/><path class="cls-17" d="M717,384c1.86,7.28,3.79,12.12,11.39,14,5.65,1.1,8.64,4.8,8.29,11.75-.15,7.67-.87,13.59,5.33,18.24,15.45,5.78-3,21.56,3.81,31.77,8.07,19.26,51.57,10,35.22-8.36C777,448.87,771,443.76,773,435.33a10.77,10.77,0,0,0-6.54-12.4c-3.71-2.31-5.88-4-5.56-11.46-.09-2.67.71-7-5.87-10-4.81-3-6.26-6.53-6.23-11.76C747.71,375.19,725.07,369.58,717,384Z" transform="translate(-158.25 -220.73)"/><path class="cls-8" d="M758.26,450.29c-6.78-10.2,6.54-23.32-8.91-29.1-6.45-2.93-9.23-5.68-9-14.06.35-7-2.64-10.66-8.29-11.76-7.6-1.85-9.53-6.69-11.39-14a16.64,16.64,0,0,1,3-3.94A16,16,0,0,0,717,384c1.86,7.28,3.79,12.12,11.39,14,5.65,1.1,8.64,4.8,8.29,11.75-.22,7.75-1.58,14.45,5.33,18.24,14.92,5.81-4.24,23.14,3.69,33.27,8,13.52,31.76,15.23,37.2,2.61C770.88,465.48,763.15,455.8,758.26,450.29Z" transform="translate(-158.25 -220.73)"/><path class="cls-18" d="M739.94,406.23a3.5,3.5,0,1,1-3.5-3.5A3.5,3.5,0,0,1,739.94,406.23Z" transform="translate(-158.25 -220.73)"/><polygon class="cls-19" points="582.18 376.74 605.51 376.74 606.12 373.06 581.58 373.06 582.18 376.74"/><path class="cls-15" d="M767.12,611.18l-4.35-6-1.1,5.41c-2.71-.3-16.56-1.49-19.67-.54-2.26.74-3,8.08,2.09,13.54,5.48,3.08,17.55-2,27-2.61l3.11-9C772.23,611.71,769.79,611.45,767.12,611.18Z" transform="translate(-158.25 -220.73)"/><path class="cls-9" d="M532.25,488.17h0Z" transform="translate(-158.25 -220.73)"/><path class="cls-20" d="M549.25,481.36" transform="translate(-158.25 -220.73)"/><path class="cls-16" d="M543,533.31c2.71,5.79,7.25,1,5.35-2-1.74-5.93-5.38-9.75-9.1-15.11-.37-.79-4.64,1.29-4.27,2.08C538.91,523.53,542,527.86,543,533.31Z" transform="translate(-158.25 -220.73)"/><path class="cls-17" d="M547.79,482.75c18.4-8.16-1.5-26.16-15.29-13.85-1.15,1.5-6.25,6.19-10.27,6-6.64-.49-12.79,4-10.76,12.24L517.06,502C530.76,501.32,540,492.38,547.79,482.75Z" transform="translate(-158.25 -220.73)"/><path class="cls-9" d="M552,497.82a37.23,37.23,0,0,1-4.21-15.45L537,482a3.14,3.14,0,0,0-2.36,1,3.39,3.39,0,0,0-.92,2.5l-.4,10.47-16.2,5.82L516,523c6.6,5.63,16,5.09,21.44.18l.28-6.69c6.17.06,9.5-4.37,9.45-9.65l.2-4.77c0-1.36.38-1.94,1.76-2.22C551.07,499.76,552.27,499.09,552,497.82Z" transform="translate(-158.25 -220.73)"/><path class="cls-10" d="M516.94,504.74,534.8,498l.4-10.46a3.38,3.38,0,0,1,.94-2.52,3.16,3.16,0,0,1,2.37-1l9.5.36a19.87,19.87,0,0,1-.19-2.54l-10.76-.41a3.09,3.09,0,0,0-2.36.95,3.36,3.36,0,0,0-.92,2.5l-.4,10.46-16.48,5.95Z" transform="translate(-158.25 -220.73)"/><path class="cls-10" d="M533.71,502.62a2.85,2.85,0,0,1-1.89-.93,2.58,2.58,0,0,1-.64-2l.21-3.62-5,1.91-.59,11c-.17,4.29,4.39,7.95,10.44,8.18s10.66-3.08,10.82-7.37l.26-6.64Z" transform="translate(-158.25 -220.73)"/><path class="cls-9" d="M533.29,493a2.71,2.71,0,0,0-3.78-.46l-.18.13a2.52,2.52,0,0,0-.78,3.57l2.84,4.55a2.52,2.52,0,0,0,3.61.58l.19-.13a2.7,2.7,0,0,0,.94-3.68Z" transform="translate(-158.25 -220.73)"/><path class="cls-9" d="M533.29,493a2.71,2.71,0,0,0-3.78-.46l-.18.13a2.52,2.52,0,0,0-.78,3.57l2.84,4.55a2.52,2.52,0,0,0,3.61.58l.19-.13a2.7,2.7,0,0,0,.94-3.68Z" transform="translate(-158.25 -220.73)"/><path class="cls-7" d="M739.65,530.26c-3.15,7.89-48.23,9-40.85-4.52-8.52-1.63-9.65-18.55-4.52-21.38,1.61-1.06,1.83-34.08,3.83-34.08C704.11,470.28,739.65,523.49,739.65,530.26Z" transform="translate(-158.25 -220.73)"/><rect class="cls-16" x="539.63" y="247.8" width="42.16" height="61.81"/><path class="cls-4" d="M692.13,500.53c4.75,1,12,2.91,14.63,4.56l.65,7.05c.35.51,1.69,4.9-4.95,3.39,0,0-3.46-1.42-4.47.55-.17,1.44.12,1.56-.06,3.4-.82.34-8.61-1.38-8.36-1.49C685.2,515.67,685.94,501.63,692.13,500.53Z" transform="translate(-158.25 -220.73)"/><path class="cls-6" d="M706.94,501.82l78.61,4.45c7.24-.46,13.28,2.35,13.18,9.52a14.34,14.34,0,0,1-13.32,13.79l-77.57-12C704.59,517.49,703.56,501.78,706.94,501.82Z" transform="translate(-158.25 -220.73)"/><path class="cls-21" d="M835.09,612.14c1-6.27.73-14.22-.87-23.82,12.72,4.93,16.81-16.26,16.34-30.59.37-33,15.06-39.19,23-37.56,0,1.05,21.91,14.26,21.91,14.26A51.16,51.16,0,0,1,905.5,565.2Z" transform="translate(-158.25 -220.73)"/><path class="cls-11" d="M769.91,609.81l70.31-2.21,26.8-68c3.24-8.53,12.46-13.72,20.59-11.59s12.09,10.78,8.85,19.31L868.82,613.7c-4.35,7.79-11.79,16.32-19,17.56-1.75,1.24-79-7.61-79-7.61C766,622.8,765.36,612.39,769.91,609.81Z" transform="translate(-158.25 -220.73)"/><rect class="cls-13" x="707.88" y="337.03" width="100.7" height="74.5"/><path class="cls-16" d="M923.48,593.87a6.51,6.51,0,1,1-6.51-6.51A6.5,6.5,0,0,1,923.48,593.87Z" transform="translate(-158.25 -220.73)"/><path class="cls-22" d="M839.39,477.23a11.32,11.32,0,0,0,2.16,6.34c4.79,6.64,29.85,8.86,30.17-2.59C870.48,464,838.53,459.82,839.39,477.23Z" transform="translate(-158.25 -220.73)"/><path class="cls-4" d="M840.22,486.68l5.57-12.41c15,5.75,18.89,31.62,14.68,47.3a29.09,29.09,0,0,1-12.73-2.74l1.19-12.14c-1.06-.24-5.31-.87-6.44-1.09-2.76-.51-2.66-2.49-2.58-4.85l1.18-7.66C837.56,492.48,838.8,489.42,840.22,486.68Z" transform="translate(-158.25 -220.73)"/><path class="cls-21" d="M864.72,517.5l-.65,4.37c-6.47.43-11.41.52-17-2l1-4.44C853.49,517.79,858.45,517.85,864.72,517.5Z" transform="translate(-158.25 -220.73)"/><path class="cls-10" d="M848.93,506.69c5.2-1,8.06-2.56,7.82-11.35,3.42,1.1,5.43,3.7,5.09,8.76.61,1.48-.5,11.77-4.29,12.06C856.91,514.14,857.4,508.12,848.93,506.69Z" transform="translate(-158.25 -220.73)"/><path class="cls-23" d="M878.75,483.7c1.78,13.55.54,12.77,5.28,18.46,14.26,13,11.67,31.79-11.25,28.37l-.29,0a19.63,19.63,0,0,1-12.11-6.79,15.63,15.63,0,0,1-3.56-12.3L860,491.69c-3.32-4.47-11.89-5.81-14.32-16.78C844.64,457.79,877.54,465,878.75,483.7Z" transform="translate(-158.25 -220.73)"/><path class="cls-22" d="M863,488.51c-3.31-4.46-11.89-5.8-14.31-16.77a9.48,9.48,0,0,1,.89-4.94c-2.57,1.51-4.14,4.16-3.91,8.11,2.43,11,11,12.31,14.32,16.78l-3.41,19.62c-.66,4.14.8,8.67,3.82,12.39s7.28,6.68,11.9,7.42c14.31,3.62,25.14-7.21,19.73-17C871,524.31,857.62,509.05,863,488.51Z" transform="translate(-158.25 -220.73)"/><path class="cls-4" d="M856.74,495.37c-.2,1.28.85,1.81,2.22,2.63h0a2.3,2.3,0,0,0,3.12-1.79l.95-5.46a2.57,2.57,0,0,0-2.24-2.72v0c-1.62-.2-2.92.58-3.12,1.86Z" transform="translate(-158.25 -220.73)"/><path class="cls-16" d="M859.55,496a.69.69,0,1,0,1.37.22.69.69,0,0,0-.57-.79A.71.71,0,0,0,859.55,496Z" transform="translate(-158.25 -220.73)"/><path class="cls-10" d="M840.94,485c-.85,3.76,1.09,7.18,2.73,7.47,2,.36,4.1-1.82,4.94-4.82l9.21,1.87.24-.46s-9.24-2.66-9.21-2.76c.68-3.41-.54-6.48-2.71-6.88S841.62,481.64,840.94,485Zm-.05,1.09c.57-2.86,3-4.49,4.75-4.18s2.91,1.43,2.33,4.29c-.56,3.07-3,4.78-4.16,4.61A3.7,3.7,0,0,1,840.89,486.13Z" transform="translate(-158.25 -220.73)"/><path class="cls-16" d="M840.85,484.36c-.69,3.4.49,6.68,2.66,7.08h0c2,.36,4.17-1.88,5-4.88l9.28,3,.49-.84-9.56-3-.07.21c0-.11.05-.21.07-.32.69-3.41-.53-6.47-2.7-6.88S841.53,481,840.85,484.36Zm.75,0c.58-2.85,2.44-4.92,4.16-4.61s2.7,2.92,2.12,5.78c-.57,3.07-3,4.78-4.17,4.61C842,489.85,841,487.26,841.6,484.39Z" transform="translate(-158.25 -220.73)"/><path class="cls-23" d="M882.87,471.36a6.08,6.08,0,1,1-4.06-7.58A6.08,6.08,0,0,1,882.87,471.36Z" transform="translate(-158.25 -220.73)"/><path class="cls-16" d="M520.4,538.31a1.65,1.65,0,0,1-.89,2.16L516,541.73a1.66,1.66,0,0,1-2-1.16c-3.26-5.82-3.73-5.42-4.46-14.38,0-3.77,3.86-8.58,6.44-7.5.39,1.47-.29,4.23.08,3.88C516.14,530.58,515.76,532.8,520.4,538.31Z" transform="translate(-158.25 -220.73)"/><path class="cls-16" d="M529.18,537.3c3.29,4.25,3.07,9.93-.48,12.69s-9.11,1.54-12.4-2.71-3.08-9.93.48-12.68S525.89,533.05,529.18,537.3Z" transform="translate(-158.25 -220.73)"/><path class="cls-16" d="M554.31,535.94c1.4,5.19-.71,10.27-4.7,11.34s-8.35-2.27-9.74-7.46.71-10.27,4.7-11.34S552.92,530.75,554.31,535.94Z" transform="translate(-158.25 -220.73)"/><path class="cls-24" d="M549.27,537.69c1.24,3.61.43,7.16-1.81,7.93s-5.07-1.52-6.32-5.12-.44-7.15,1.81-7.93S548,534.09,549.27,537.69Z" transform="translate(-158.25 -220.73)"/><path class="cls-10" d="M557.12,628.13c-13,0-22.1-2.58-22.69-8.43l-9.12,1.2L523,632.27H565.5l-4.64-4C559.65,628.27,558.4,628.13,557.12,628.13Z" transform="translate(-158.25 -220.73)"/><path class="cls-14" d="M525.72,618.2l-74.37-12.07,42.53-54.24c5.74-9.11,3.25-21-5.57-26.57s-20.63-2.69-26.37,6.42l-45.17,81.17c-5,9.18.13,19.94,14.4,18.26.83.23,93.61.26,93.61.26C534.37,630.25,535,620.93,525.72,618.2Z" transform="translate(-158.25 -220.73)"/><path class="cls-25" d="M408.65,545.64c-6.08,3.88-14.58,1.36-17.62-3.06l-45.69-79.8c-10.82-12.27,4.22-50.4,21.68-32.65l46,98.37C416.09,532.92,414.73,541.75,408.65,545.64Z" transform="translate(-158.25 -220.73)"/><path class="cls-5" d="M380.84,588.32,267,592.56l-3.26-.06c5.51-55.64,15.41-150.6,15.89-154.62,2.45-13.74,13.34-24.4,21.41-26.42a90.65,90.65,0,0,1,18.34-3.28c33.83-4.62,56.7,18.9,58.79,60.92Z" transform="translate(-158.25 -220.73)"/><path class="cls-25" d="M279.51,437c2-13,9.39-19.13,17.46-24,13.52-7.06,52.64,16.52,12.82,69-11.61,21-11,61.78-14.82,109.63,0,0-30.13.91-31.23.88C266.54,537.56,277.76,441.72,279.51,437Z" transform="translate(-158.25 -220.73)"/><path class="cls-23" d="M326.21,385.83l1.65-11.2a14.87,14.87,0,0,1,5.86-9.61,14.4,14.4,0,0,1,10.86-2.63l8.51,1.32a6.41,6.41,0,0,1,4.29,2.52,6.82,6.82,0,0,1,1.14,5S338.13,388.94,326.21,385.83Z" transform="translate(-158.25 -220.73)"/><path class="cls-4" d="M361,387.31c-.26-3.74-1.82-11-2.46-16.05l-12.35-1.91a3.54,3.54,0,0,0-2.68.5A3.3,3.3,0,0,0,342.1,372l-1.82,11.76-4.33-.86.77-5c.21-1.39-1.2-2.69-2.59-2.9h-.06a2.59,2.59,0,0,0-3,2l-1.36,8-3.32-.54-4.72,23.45c5,7.7,15.38,11.07,22.17,5.34l2.24-11.18,5.91.94a3.47,3.47,0,0,0,2.51-.68c.74-.55,1.46-3.72,1.6-4.57.31-2.41.69-4.85,1.06-7.31C357.17,389.7,361.74,390.21,361,387.31Z" transform="translate(-158.25 -220.73)"/><path class="cls-10" d="M343.48,369.72a3.56,3.56,0,0,1,2.69-.5l12.34,1.91c.07.55.53,3.34.62,3.94l-11.23-1.95a3.5,3.5,0,0,0-2.68.51,3.33,3.33,0,0,0-1.45,2.19l-.89,4.41-.85,8.19c-1.07.08-2.68-2-2-3.84l1.05-6.76.91-5.91A3.33,3.33,0,0,1,343.48,369.72Z" transform="translate(-158.25 -220.73)"/><path class="cls-5" d="M205.36,487.75c-3.93-6.05-3.37-13.59,1.27-16.84l84.49-54.42c8.12-5.69,19.4-3.08,25.19,5.84s3.92,20.75-4.19,26.44l-91.24,44.05C216.24,496.07,209.29,493.8,205.36,487.75Z" transform="translate(-158.25 -220.73)"/><path class="cls-10" d="M329.71,385.08v.72c.18,1.05,1.17,1.66,2.42,1.85l.38.06a2.38,2.38,0,0,0,3-2l-.88,5.55,11.17,12.32-.6,3c-.52-.08-6.91-.63-6.91-.63-6.88-.93-10.85-6.58-10.08-11.49Z" transform="translate(-158.25 -220.73)"/><path class="cls-23" d="M356.11,397.67l-4.72-.73A2,2,0,1,1,352,393l4.69.73.38-2.63-2.42-.37-4.37-.67-7.51-1.16a3.5,3.5,0,0,1-2.09-1.53,3.84,3.84,0,0,1-.53-2.67l.29-2.37-4.31-.59-1.82,11.87a8,8,0,0,0,1.06,5.86,7.28,7.28,0,0,0,4.58,3.28l11.59,1.79c3.42.08,4-3.2,4.27-4.76Z" transform="translate(-158.25 -220.73)"/><path class="cls-26" d="M291.12,416.49s-73.89,47.65-73.86,47.71c3,8.39,41.08-4.59,63.11-15.91,20.81-11.25,34.49-22.72,30-31a6.66,6.66,0,0,0-1.18-1.57A17,17,0,0,0,291.12,416.49Z" transform="translate(-158.25 -220.73)"/><path class="cls-3" d="M346.42,418.49a2.68,2.68,0,0,1-2.1,3.14l-3.49.74a2.67,2.67,0,0,1-3.19-2l-.62-2.89a2.69,2.69,0,0,1,2.11-3.15l3.48-.73a2.68,2.68,0,0,1,3.2,2Z" transform="translate(-158.25 -220.73)"/><path class="cls-3" d="M360.36,523.68l-7,12.54-11.32-14.13c5-31.1.56-73.45-1.61-101.8l5.26,0C353,430.49,363.37,491.41,360.36,523.68Z" transform="translate(-158.25 -220.73)"/><rect class="cls-27" x="57.83" y="410.72" width="787.59" height="12.28"/><rect class="cls-13" x="685.77" y="405.8" width="110.93" height="4.91"/><path class="cls-4" d="M466.14,518.39c13.21-5,26.44-1.95,29.27,4.36a147.18,147.18,0,0,0-24.93,4.86C468.08,528.35,466.14,518.39,466.14,518.39Z" transform="translate(-158.25 -220.73)"/><path class="cls-25" d="M470.29,529l-64.35,19c-6.08,2.61-13.07-.63-15.74-7.08-2.41-6.75.74-14.52,7-17.36l69.38-8C469.54,514.51,473.31,527.86,470.29,529Z" transform="translate(-158.25 -220.73)"/><path class="cls-4" d="M252.36,516.85l8.06,7.73c-4,12.85,1.72,25.5,6.25,27.13.87-8.87,2.84-21.07,6.87-30.17.58-3-.34-4.48-4.47-5.73l-13.9-9Z" transform="translate(-158.25 -220.73)"/><path class="cls-5" d="M257.42,524.17,207.23,492c-8.25-6.12-8.08-17.77-.25-20.95a13.73,13.73,0,0,1,17.81,4.38l42,38.35C268.23,516.46,259,527,257.42,524.17Z" transform="translate(-158.25 -220.73)"/><path class="cls-28" d="M915.6,386.25H866.88c-1.26,0-2.8.54-2.8,1.8v31.59c0,1.26,1.54,3.86,2.8,3.86h29.46l-1.86,10.85,10.84-10.85H915.6c1.26,0,3.34-2.6,3.34-3.86V388.05C918.94,386.79,916.86,386.25,915.6,386.25Z" transform="translate(-158.25 -220.73)"/><line class="cls-29" x1="717.29" y1="176.16" x2="747.17" y2="176.16"/><line class="cls-29" x1="717.29" y1="183.94" x2="747.17" y2="183.94"/><line class="cls-29" x1="717.29" y1="189.67" x2="730.39" y2="189.67"/><line class="cls-30" x1="313.07" y1="62.36" x2="316.62" y2="58.81"/><line class="cls-30" x1="302.01" y1="73.42" x2="305.89" y2="69.55"/><line class="cls-30" x1="306.18" y1="62.98" x2="301.62" y2="58.42"/><line class="cls-30" x1="316.62" y1="73.42" x2="312.55" y2="69.35"/><line class="cls-31" x1="806.14" y1="169.03" x2="809.69" y2="165.48"/><line class="cls-31" x1="795.08" y1="180.09" x2="798.96" y2="176.21"/><line class="cls-31" x1="799.25" y1="169.64" x2="794.69" y2="165.09"/><line class="cls-31" x1="809.69" y1="180.09" x2="805.62" y2="176.02"/><line class="cls-31" x1="331.58" y1="222.37" x2="335.12" y2="218.82"/><line class="cls-31" x1="320.52" y1="233.42" x2="324.39" y2="229.55"/><line class="cls-31" x1="324.68" y1="222.98" x2="320.12" y2="218.42"/><line class="cls-31" x1="335.12" y1="233.42" x2="331.05" y2="229.35"/><line class="cls-31" x1="543.71" y1="111.31" x2="546.01" y2="109.02"/><line class="cls-31" x1="536.56" y1="118.47" x2="539.07" y2="115.96"/><line class="cls-31" x1="539.25" y1="111.71" x2="536.3" y2="108.76"/><line class="cls-31" x1="546.01" y1="118.47" x2="543.38" y2="115.83"/><line class="cls-30" x1="441.8" y1="43.53" x2="441.8" y2="58.27"/><line class="cls-30" x1="434.84" y1="51.31" x2="449.58" y2="51.31"/><line class="cls-31" x1="639.11" y1="164.29" x2="639.11" y2="179.02"/><line class="cls-31" x1="632.97" y1="172.47" x2="648.11" y2="172.47"/><line class="cls-31" x1="383" y1="179.74" x2="383" y2="191.62"/><line class="cls-31" x1="377.27" y1="186.29" x2="389.55" y2="186.29"/><path class="cls-32" d="M882,318.63a3.52,3.52,0,1,1-3.52-3.52A3.52,3.52,0,0,1,882,318.63Z" transform="translate(-158.25 -220.73)"/><path class="cls-33" d="M238.62,405.09a4.7,4.7,0,1,1-4.7-4.7A4.7,4.7,0,0,1,238.62,405.09Z" transform="translate(-158.25 -220.73)"/><path class="cls-32" d="M394.11,344.34a4.7,4.7,0,1,1-4.7-4.7A4.71,4.71,0,0,1,394.11,344.34Z" transform="translate(-158.25 -220.73)"/><path class="cls-27" d="M715.64,266.81H672.29v-.61q0-11.29,0-22.58a1.18,1.18,0,0,1,.56-1.1q10.38-7.65,20.74-15.34a.54.54,0,0,1,.78,0q10.38,7.69,20.78,15.37a1.05,1.05,0,0,1,.49,1q0,11.37,0,22.75Zm-26.49-16.95h9.66V264.3h14.34v-.6q0-9.52,0-19a.84.84,0,0,0-.39-.75q-9.22-6.81-18.45-13.65a.49.49,0,0,0-.69,0q-9.2,6.83-18.41,13.62a.83.83,0,0,0-.4.75q0,9.57,0,19.15c0,.17,0,.34,0,.51h14.29Z" transform="translate(-158.25 -220.73)"/><path class="cls-27" d="M719.11,239.17l-2.38,1.62c-1.45-1.07-2.89-2.13-4.32-3.2l-18.07-13.36a.52.52,0,0,0-.77,0l-19.23,14.22-3.14,2.32-2.39-1.62,3.35-2.49q10.59-7.83,21.16-15.67a.88.88,0,0,1,1.27,0q12,8.94,24.09,17.84Z" transform="translate(-158.25 -220.73)"/><path class="cls-27" d="M424.14,483.7a2.08,2.08,0,0,1-2-1.65l-1-4.64a.4.4,0,0,0-.11-.12l-3.13-1.82h-.14l-4.51,1.47a2.07,2.07,0,0,1-2.41-.92l-2.7-4.67a2.07,2.07,0,0,1,.42-2.56l3.53-3.17a.52.52,0,0,0,.06-.15v-3.62a.69.69,0,0,0-.06-.13l-3.53-3.17a2.07,2.07,0,0,1-.41-2.55l2.69-4.66a2.09,2.09,0,0,1,2.43-.92l4.51,1.47a.5.5,0,0,0,.16,0l3.14-1.81s.06-.08.08-.12l1-4.64a2.09,2.09,0,0,1,2-1.63h5.37a2.08,2.08,0,0,1,2,1.65l1,4.63a.57.57,0,0,0,.1.13l3.14,1.81h.14l4.51-1.47a2.05,2.05,0,0,1,2.41.91l2.7,4.68a2.09,2.09,0,0,1-.42,2.55l-3.53,3.18a.42.42,0,0,0-.06.15v3.62s0,.09.07.12l3.52,3.18a2.07,2.07,0,0,1,.42,2.55l-2.7,4.66a2.07,2.07,0,0,1-2.43.91l-4.51-1.46a.44.44,0,0,0-.15,0l-3.14,1.81a.48.48,0,0,0-.08.12l-1,4.64a2.08,2.08,0,0,1-2,1.63Zm5-2.14h0Zm-4.6,0v0Zm-2.36-6.42a2.72,2.72,0,0,1,1.37,1.8l.93,4.33h4.73l.93-4.35a2.7,2.7,0,0,1,1.37-1.78l2.91-1.68a2.72,2.72,0,0,1,2.24-.29l4.22,1.37,2.37-4.11-3.31-3a2.73,2.73,0,0,1-.86-2.08V462a2.71,2.71,0,0,1,.88-2.09l3.29-3-2.37-4.11-4.23,1.37a2.71,2.71,0,0,1-2.23-.29l-2.91-1.68a2.76,2.76,0,0,1-1.38-1.8l-.92-4.34h-4.73l-.93,4.36a2.73,2.73,0,0,1-1.37,1.78l-2.91,1.68a2.75,2.75,0,0,1-2.25.29l-4.21-1.37-2.37,4.1,3.3,3a2.73,2.73,0,0,1,.86,2.08v3.36a2.71,2.71,0,0,1-.88,2.09l-3.29,3,2.37,4.11,4.23-1.38a2.75,2.75,0,0,1,2.23.3Zm-9.67-.5h0Zm28.65,0h0Zm2.32-4h0Zm-33.26,0h0Zm0-13.89h0Zm2.32-4h0Zm28.68,0h0Zm-12.05-6.93h0Zm-4.59,0v0Zm2.29,26a7.91,7.91,0,0,1-2.46-.39,8,8,0,0,1-2.77-1.53,8,8,0,0,1-2.85-5.52,8.09,8.09,0,0,1,1.88-5.92,8,8,0,0,1,5.52-2.85,8.16,8.16,0,0,1,3.15.35,9.6,9.6,0,0,1,2.14,1.09,9.28,9.28,0,0,1,1.17,1A9,9,0,0,1,434,460a8,8,0,0,1,.87,3,8.16,8.16,0,0,1-.35,3.15,8,8,0,0,1-1.53,2.77,8.08,8.08,0,0,1-5.52,2.86Q427.17,471.8,426.82,471.8Zm0-13.8-.48,0a5.86,5.86,0,0,0-2.14.61,5.84,5.84,0,0,0-2.8,3.32,5.85,5.85,0,0,0-.24,2.2,5.67,5.67,0,0,0,.61,2.14,5.74,5.74,0,0,0,3.32,2.8,5.68,5.68,0,0,0,6.06-1.75,5.52,5.52,0,0,0,1.07-1.94,5.64,5.64,0,0,0,.25-2.2h0a5.62,5.62,0,0,0-.61-2.13,6.83,6.83,0,0,0-1-1.34A6.7,6.7,0,0,0,430,459a7.16,7.16,0,0,0-1.49-.77A5.57,5.57,0,0,0,426.83,458Z" transform="translate(-158.25 -220.73)"/><path class="cls-27" d="M820.4,279.79h0l0,0-1.55-.89a9,9,0,0,0-4.38-9.2h0l0,0,0,0h0l-.2-.08a8.09,8.09,0,0,0-2.92-5.53h0a4.92,4.92,0,0,0-3-1.11,5.2,5.2,0,0,0-8-2.88,4.75,4.75,0,0,0-3.86-2.25,4.69,4.69,0,0,0-4.81,3.9h0l-.17,1.32-2.26-1.29a3,3,0,0,1-1.34-2.14h0a8,8,0,0,0-4.1-6.07,8.15,8.15,0,0,0-7.31.26h0l0,0h0a1.54,1.54,0,0,0,0,2.59h0l5,2.88a3.69,3.69,0,0,1-.36,3,3.78,3.78,0,0,1-2.54,1.77l-4.74-2.74h0a1.5,1.5,0,0,0-1.53,0,1.53,1.53,0,0,0-.71,1.37h0a8.22,8.22,0,0,0,1,3.59,7.29,7.29,0,0,0,5.57,3.77,6,6,0,0,0,.85.05,8.7,8.7,0,0,0,3.18-.63h0a2.75,2.75,0,0,1,2.44.13l1.55.91-1,1.67h0a9.89,9.89,0,0,0-.57,8.92v0h0l3.8,8.14h0a4.94,4.94,0,0,1,.42,2.83l-.25,1.66-.34,1.65-.18.79h-.27a2.42,2.42,0,0,0-2.3,1.72h0l-.54,1.75-.61,1.73-.7,1.7h0l0,.09a.08.08,0,0,0,0,0,.64.64,0,0,1,0,.07s0,.05,0,.07v0a.28.28,0,0,0,0,.09v0h0a.41.41,0,0,0,0,.11h0a.28.28,0,0,0,0,.09,1.12,1.12,0,0,0,.1.31v0l0,.05a.05.05,0,0,0,0,0l0,0,0,.05,0,0a1.21,1.21,0,0,0,.24.21l.08,0h0l.09,0h0l.08,0h.05l.06,0h23a1.13,1.13,0,0,0,1.11-.95.91.91,0,0,0,0-.17,18.81,18.81,0,0,1,.57-4.35h0a2.37,2.37,0,0,0-.43-2.07,2.41,2.41,0,0,0-.86-.69c.11-.27.21-.54.33-.81h0a5,5,0,0,1,1.63-2.06h0a23.29,23.29,0,0,0,5.4-6.27l.74.43,0,0h0l0,0a4.67,4.67,0,0,0,2.07.49,4.78,4.78,0,0,0,1.29-.18,4.58,4.58,0,0,0,1.19-8.26Zm-3.73-2.15-1.18-.69a1.12,1.12,0,0,0-2.22-.31,6.72,6.72,0,0,1-3.23,4.68,1.58,1.58,0,0,1-1.74-.28,1.54,1.54,0,0,1-.38-1.71l2.88-6.64h0a2,2,0,0,1,2.55-1.05A6.72,6.72,0,0,1,816.67,277.64Zm-4.84-8.31a4,4,0,0,0-.75.22,4.23,4.23,0,0,0-2.34,2.25h0l-2.59,6a1.72,1.72,0,0,1-1.87.47,1.76,1.76,0,0,1-1.17-1.66,24.91,24.91,0,0,1,.45-3.44h0a26.51,26.51,0,0,1,2.24-6.6,2.57,2.57,0,0,1,4-.83h0A5.9,5.9,0,0,1,811.83,269.33Zm-7.89-7.92a2.91,2.91,0,0,1,2,2,4.82,4.82,0,0,0-2.18,2.19,28.24,28.24,0,0,0-2.44,7.15c-.07.36-.13.72-.19,1.08a2.1,2.1,0,0,1-3.17-.41,8.23,8.23,0,0,0,3.31-2.8h0a3.31,3.31,0,0,0,.36-3,3.23,3.23,0,0,0-2.14-2,10.42,10.42,0,0,1,1.16-2.93A2.93,2.93,0,0,1,803.94,261.41Zm-7.7-1.41a2.5,2.5,0,0,1,2.32,1.87,12.93,12.93,0,0,0-1.24,3.32c-.32,0-.64,0-1-.05h0a1.87,1.87,0,0,1-.55-.08h0l-2.4-.74.31-2.32A2.48,2.48,0,0,1,796.24,260Zm-10.71,7.64h0a5,5,0,0,0-4.4-.27h0a6.21,6.21,0,0,1-3,.45,5.13,5.13,0,0,1-3.86-2.63,5.82,5.82,0,0,1-.48-1.15l3.51,2h0l.07,0a1.83,1.83,0,0,0,.84.2l.35,0h0a6,6,0,0,0,4.68-7.87v0a1.94,1.94,0,0,0-.84-1h0l-3.73-2.16a5.46,5.46,0,0,1,3.94.28,5.79,5.79,0,0,1,2.88,4.41h0a5.11,5.11,0,0,0,2.43,3.72h0l1.87,1.08a4.15,4.15,0,0,0-1.44,1.5h0l-1.31,2.31Zm20.52,30.77h.55a.2.2,0,0,1,.15.07.15.15,0,0,1,0,.14h0a21,21,0,0,0-.59,3.78h-20l.08-.19,0,0,.63-1.78,0-.05.54-1.78h0a.18.18,0,0,1,.16-.12h18.42Zm2.21-6.66h0a7.24,7.24,0,0,0-2.34,3h0c-.2.48-.39,1-.56,1.45H790.2l.07-.3v0l.35-1.69s0,0,0,0l.26-1.7h0a7.23,7.23,0,0,0-.61-4.1h0l-3.79-8.12a7.59,7.59,0,0,1,.46-6.89h0l1.44-2.54a.56.56,0,0,0,.05-.08l.06-.11,1.81-3.2h0a2,2,0,0,1,1.75-1h.08a1.78,1.78,0,0,1,.45.08h0l2.54.78h0a4.48,4.48,0,0,0,1.18.18h0a10.93,10.93,0,0,1,2.54.34h0a1.07,1.07,0,0,1,.72.64,1.06,1.06,0,0,1-.12,1h0a6,6,0,0,1-3.13,2.31l-.17.05-.54.12a5.89,5.89,0,0,1-4.46-1,1.12,1.12,0,0,0-1.29,1.83,8.09,8.09,0,0,0,2.72,1.24,6.84,6.84,0,0,1-2.46,3.43.9.9,0,0,0-.2,1.26.91.91,0,0,0,.73.37,1,1,0,0,0,.53-.17,8.6,8.6,0,0,0,3.21-4.65h.18a7.29,7.29,0,0,0,1.23-.1,4.36,4.36,0,0,0,2.8,2.38,4.79,4.79,0,0,0,1.18.16,4.32,4.32,0,0,0,1.08-.14v.11a4,4,0,0,0,2.67,3.81,4.14,4.14,0,0,0,1.33.23,3.82,3.82,0,0,0,.75-.08,3.74,3.74,0,0,0,1.15,2.15,3.79,3.79,0,0,0,2,1l4.32,2.49A20.86,20.86,0,0,1,808.26,291.75ZM820,284.82a2.38,2.38,0,0,1-3.12.91l-5-2.89a8.81,8.81,0,0,0,3-3.68l4.36,2.53A2.34,2.34,0,0,1,820,284.82Z" transform="translate(-158.25 -220.73)"/><path class="cls-27" d="M470.79,368.15l.48-.46.48-.47c.26-.26-.19-1.46-1-2.67l-2.11-3.12a6.31,6.31,0,0,0-2.91-2.49l-1.41-.29L458,352.47l-2.32,2.25,6.36,6.19.3,1.38a6.23,6.23,0,0,0,2.56,2.83l3.2,2.05c1.25.8,2.48,1.24,2.74,1Zm0,0" transform="translate(-158.25 -220.73)"/><path class="cls-27" d="M430.81,335.24l10.63,10.35s.05,0,.08.07l1.56-1.52-11.15-10.85a.66.66,0,0,1,0-1,.69.69,0,0,1,1,0l11.14,10.85,1.74-1.69-11.15-10.86a.66.66,0,0,1,0-.95.7.7,0,0,1,1,0l11.16,10.86,1.56-1.52s0-.06-.07-.08L447,337.74l-9.39-9.14a4.92,4.92,0,0,0-6.82,0,4.6,4.6,0,0,0,0,6.64Zm0,0" transform="translate(-158.25 -220.73)"/><path class="cls-27" d="M435.88,369.41a6.64,6.64,0,0,1-4.62-1.85,6.29,6.29,0,0,1,0-9.06l20.18-19.65a10.45,10.45,0,0,1-.06-2.37,10.24,10.24,0,0,1,3.06-6.38,10.73,10.73,0,0,1,8.73-2.94,2.22,2.22,0,0,1,2,1.41,2.45,2.45,0,0,1-.79,2.52l-3.82,3.71a1.29,1.29,0,0,0,0,1.88l2.39,2.33a1.45,1.45,0,0,0,2,0l3.69-3.6a2.47,2.47,0,0,1,2.57-.72,2.13,2.13,0,0,1,1.3,1.95h0a10.15,10.15,0,0,1-3.06,8.08,10.83,10.83,0,0,1-8.49,3L440.5,367.55A6.62,6.62,0,0,1,435.88,369.41Zm26-40.69a9,9,0,0,0-6.32,2.55,8.59,8.59,0,0,0-2.57,5.36,8.14,8.14,0,0,0,.11,2.36l.07.43-20.8,20.25a4.66,4.66,0,0,0,0,6.72,5,5,0,0,0,7,0l20.69-20.14.29-.28.39.05a9.11,9.11,0,0,0,7.54-2.46,8.57,8.57,0,0,0,2.58-6.78c0-.3-.12-.5-.26-.55s-.5,0-.85.36l-3.69,3.6a3.06,3.06,0,0,1-4.26,0l-2.39-2.33a2.91,2.91,0,0,1-.9-2.11,2.94,2.94,0,0,1,.89-2.11l3.82-3.71c.34-.33.44-.66.38-.83s-.28-.27-.6-.31A9.77,9.77,0,0,0,461.91,328.72Zm-25.2,36.49a3.14,3.14,0,0,1-2.18-.88,3,3,0,0,1,0-4.3,3.17,3.17,0,0,1,4.37,0,3,3,0,0,1,0,4.31h0A3.16,3.16,0,0,1,436.71,365.21Zm0-4.73a1.8,1.8,0,0,0-1.25.5,1.72,1.72,0,0,0-.52,1.2,1.65,1.65,0,0,0,.52,1.19,1.8,1.8,0,0,0,2.51,0,1.64,1.64,0,0,0,.51-1.19A1.66,1.66,0,0,0,438,361,1.83,1.83,0,0,0,436.71,360.48Z" transform="translate(-158.25 -220.73)"/><path class="cls-27" d="M553.3,306.93H517.22V273.21h9.55V262.08a2.4,2.4,0,0,1,.53-1.62,2.48,2.48,0,0,1,1.69-.78H553.3V281l1.91-1.91V257.77H526.86a2.88,2.88,0,0,0-2.44,1.15l-8.31,10.76a4.37,4.37,0,0,0-.8,2.49v36.67h39.9V291.7l-1.91,1.91Z" transform="translate(-158.25 -220.73)"/><path class="cls-27" d="M545.91,283.89a1.09,1.09,0,0,0-1.09-1.09H525.7a1.09,1.09,0,1,0,0,2.18h19.12A1.09,1.09,0,0,0,545.91,283.89Z" transform="translate(-158.25 -220.73)"/><path class="cls-27" d="M533.2,291.35a1.09,1.09,0,0,0,0-2.18h-7.5a1.09,1.09,0,1,0,0,2.18Z" transform="translate(-158.25 -220.73)"/><path class="cls-27" d="M525.7,278.61h15.19a1.09,1.09,0,1,0,0-2.18H525.7a1.09,1.09,0,1,0,0,2.18Z" transform="translate(-158.25 -220.73)"/><path class="cls-27" d="M526.33,301.56a.88.88,0,0,0,1-.77,7.1,7.1,0,0,1,2-4.45,3.82,3.82,0,0,1,.26,1.76c0,2.77.39,4,1.36,4.43s2.1-.68,2.7-1.35c.28-.31.49-.42.6-.42h0c.24,0,.7.49,1,.86.19.2.38.42.59.61a2.65,2.65,0,0,0,1.79.74,3.65,3.65,0,0,0,2.47-1.17l.15-.13a7.79,7.79,0,0,0,4.26-1.93l2.3-2.3-3.6-3.6-2.3,2.3a7.73,7.73,0,0,0-1.93,4.28l-.09.09c-1.15,1.07-1.62.64-1.84.43s-.32-.33-.5-.52a3.36,3.36,0,0,0-2.33-1.43h0a2.62,2.62,0,0,0-1.91,1,5.6,5.6,0,0,1-.73.72,9.39,9.39,0,0,1-.24-2.62c0-2.86-1-3.52-1.85-3.58-1.87-.11-3.52,3-3.88,6.06A.88.88,0,0,0,526.33,301.56Z" transform="translate(-158.25 -220.73)"/><path class="cls-27" d="M563.79,276.82a2.55,2.55,0,0,0-3.6,0l-15.73,15.73,3.6,3.6,15-15a1.7,1.7,0,0,1-.52,1.48l-6.46,6.46a.57.57,0,0,0,0,.82.58.58,0,0,0,.41.17.62.62,0,0,0,.41-.17l6.46-6.47a2.77,2.77,0,0,0,.6-3.21A2.55,2.55,0,0,0,563.79,276.82Z" transform="translate(-158.25 -220.73)"/><path class="cls-27" d="M298.34,332a1.17,1.17,0,0,1-.8-.33,1.14,1.14,0,0,1-.26-1.19l5.47-15a1.15,1.15,0,0,1,.26-.41l28.2-28.2a1.13,1.13,0,0,1,1.6,0l9.49,9.49a1.13,1.13,0,0,1,0,1.6l-28.2,28.2a1.15,1.15,0,0,1-.41.26l-15,5.47A1.07,1.07,0,0,1,298.34,332Zm6.45-15.47L300.24,329l12.44-4.55,27.23-27.22-7.9-7.9Z" transform="translate(-158.25 -220.73)"/><path class="cls-27" d="M313.31,326.51a1.13,1.13,0,0,1-.8-.33l-9.5-9.5a1.13,1.13,0,0,1,1.6-1.59l9.49,9.49a1.12,1.12,0,0,1,0,1.6A1.11,1.11,0,0,1,313.31,326.51Z" transform="translate(-158.25 -220.73)"/><path class="cls-27" d="M337.1,302.71a1.12,1.12,0,0,1-.79-.33l-9.5-9.49a1.13,1.13,0,0,1,1.6-1.6l9.49,9.49a1.13,1.13,0,0,1-.8,1.93Z" transform="translate(-158.25 -220.73)"/><path class="cls-27" d="M308.56,321.76a1.13,1.13,0,0,1-.8-1.93L331.56,296a1.13,1.13,0,0,1,1.6,1.59l-23.8,23.8A1.13,1.13,0,0,1,308.56,321.76Z" transform="translate(-158.25 -220.73)"/><path class="cls-27" d="M341.5,332H319.92a1.13,1.13,0,1,1,0-2.26H341.5a1.13,1.13,0,0,1,0,2.26Z" transform="translate(-158.25 -220.73)"/><path class="cls-27" d="M925.46,291.83l8.72-7.44c-.76-2.78-.17-4.81,1.78-6.17a5,5,0,0,1,5.71.09c1.89,1.38,2.44,3.45,1.63,6.18l5.68,5c3.11-2.06,5.21-2,7.52.38L967,278.91a5,5,0,1,1,9.3-2.17,4.93,4.93,0,0,1-4.61,4.72,6.37,6.37,0,0,1-2.13-.43c-.41-.12-.67-.17-1,.17l-10.66,10.57a1.19,1.19,0,0,0-.27.78,5,5,0,1,1-9.94.41,1,1,0,0,1,0-.3c.44-1-.16-1.5-.83-2.06-1.72-1.43-3.39-2.91-5.07-4.35a5.18,5.18,0,0,1-5.79.08.7.7,0,0,0-.64.12c-2.71,2.29-5.4,4.62-8.12,6.91-.37.3-.21.54-.11.85a5,5,0,0,1-7,5.89,4.74,4.74,0,0,1-2.8-4.61,4.91,4.91,0,0,1,6.47-4.39C924.38,291.28,924.87,291.56,925.46,291.83Zm-.43,4a2.59,2.59,0,0,0-2.62-2.6,2.62,2.62,0,0,0-2.57,2.57,2.66,2.66,0,0,0,2.63,2.62A2.62,2.62,0,0,0,925,295.81Zm46.36-16.58a2.59,2.59,0,1,0-2.6-2.62A2.62,2.62,0,0,0,971.39,279.23Zm-29.94,3.07a2.61,2.61,0,0,0-2.64-2.59,2.67,2.67,0,0,0-2.54,2.62,2.62,2.62,0,0,0,2.66,2.57A2.55,2.55,0,0,0,941.45,282.3ZM955.16,293a2.59,2.59,0,0,0-2.59-2.62,2.66,2.66,0,0,0-2.59,2.57,2.63,2.63,0,0,0,2.62,2.61A2.56,2.56,0,0,0,955.16,293Z" transform="translate(-158.25 -220.73)"/><path class="cls-27" d="M952.64,287.75a5.26,5.26,0,1,0,5.25,5.26A5.26,5.26,0,0,0,952.64,287.75Zm0,7.93A2.67,2.67,0,1,1,955.3,293,2.67,2.67,0,0,1,952.64,295.68Z" transform="translate(-158.25 -220.73)"/><path class="cls-27" d="M971.38,271.45a5.26,5.26,0,1,0,5.26,5.26A5.26,5.26,0,0,0,971.38,271.45Zm0,7.92a2.67,2.67,0,1,1,2.67-2.66A2.67,2.67,0,0,1,971.38,279.37Z" transform="translate(-158.25 -220.73)"/><path class="cls-27" d="M938.92,277.09a5.26,5.26,0,1,0,5.26,5.25A5.25,5.25,0,0,0,938.92,277.09Zm0,7.92a2.67,2.67,0,1,1,2.67-2.67A2.66,2.66,0,0,1,938.92,285Z" transform="translate(-158.25 -220.73)"/><path class="cls-27" d="M922.47,290.5a5.26,5.26,0,1,0,5.25,5.25A5.25,5.25,0,0,0,922.47,290.5Zm0,7.92a2.67,2.67,0,1,1,2.66-2.67A2.66,2.66,0,0,1,922.47,298.42Z" transform="translate(-158.25 -220.73)"/><path class="cls-27" d="M625.38,391.51a1.11,1.11,0,0,1-.56-.14l-2.43-1.4a1.17,1.17,0,0,1-.51-1.36l.92-2.48,0-.05-.9-1.57-2.59-.41a1.17,1.17,0,0,1-.94-1.13v-2.81a1.15,1.15,0,0,1,.92-1.13l2.64-.48.9-1.56-.93-2.46a1.17,1.17,0,0,1,.5-1.38l2.44-1.4a1.15,1.15,0,0,1,1.43.24l1.68,2h1.86l1.66-2a1.17,1.17,0,0,1,1.45-.25l2.43,1.4a1.16,1.16,0,0,1,.51,1.36l-.91,2.47V377l.9,1.56,2.59.42a1.17,1.17,0,0,1,1,1.13V383a1.15,1.15,0,0,1-.93,1.12h0l-2.61.47-.91,1.56.93,2.46a1.17,1.17,0,0,1-.5,1.38l-2.43,1.4a1.17,1.17,0,0,1-1.44-.23l-1.68-2h0l0,0h-1.8l-1.66,2A1.16,1.16,0,0,1,625.38,391.51Zm-2.06-2.66,2,1.15,1.54-1.86a1.51,1.51,0,0,1,1.15-.49h1.69a1.52,1.52,0,0,1,1.14.47L632.4,390l2-1.16-.84-2.27a1.47,1.47,0,0,1,.14-1.23l.85-1.47a1.49,1.49,0,0,1,1-.75l2.4-.4v-2.33l-2.38-.4a1.46,1.46,0,0,1-1-.75l-.85-1.46a1.48,1.48,0,0,1-.15-1.23l.84-2.28-2-1.16L630.85,375a1.5,1.5,0,0,1-1.14.48H628a1.47,1.47,0,0,1-1.13-.48l-1.56-1.88-2,1.16.85,2.27a1.53,1.53,0,0,1-.15,1.24l-.85,1.47a1.48,1.48,0,0,1-1,.74l-2.4.41v2.32l2.38.4a1.48,1.48,0,0,1,1,.75l.85,1.47a1.5,1.5,0,0,1,.16,1.22Zm5.54-3.09h-.19a4.06,4.06,0,0,1-1.6-.4,4.34,4.34,0,0,1-1.32-1,4.25,4.25,0,0,1-1.09-3,4.15,4.15,0,0,1,1.37-2.91,4.28,4.28,0,0,1,1.4-.85,4.32,4.32,0,0,1,1.62-.25,4.44,4.44,0,0,1,1.6.4,4.11,4.11,0,0,1,1.32,1,5.09,5.09,0,0,1,.68,1,4.89,4.89,0,0,1,.27.76,4.75,4.75,0,0,1,.15,1.23,4.39,4.39,0,0,1-.4,1.59,4.26,4.26,0,0,1-1,1.33,4.2,4.2,0,0,1-1.41.84A4.1,4.1,0,0,1,628.86,385.76Zm0-7a2.79,2.79,0,0,0-.94.17,2.75,2.75,0,0,0-.93.56,2.78,2.78,0,0,0-.9,1.92,2.82,2.82,0,0,0,.17,1.07,2.59,2.59,0,0,0,.55.92,2.92,2.92,0,0,0,.87.65,3,3,0,0,0,1.06.26,2.89,2.89,0,0,0,2-.72,2.93,2.93,0,0,0,.64-.88,2.54,2.54,0,0,0,.26-1.05,3.77,3.77,0,0,0-.1-.81,2.88,2.88,0,0,0-.18-.49,3.59,3.59,0,0,0-.44-.69,2.62,2.62,0,0,0-.87-.64,2.58,2.58,0,0,0-1-.26Z" transform="translate(-158.25 -220.73)"/><path class="cls-27" d="M654.3,405.59H602.22a7.05,7.05,0,0,1-7-7V360.66a6.25,6.25,0,0,1,12.4-1.11H654.3Zm-52.87-49a4.13,4.13,0,0,0-4.12,4.12v37.89a4.92,4.92,0,0,0,4.91,4.91h49.94V361.69H607.68V400l-1.77-1.57a7.61,7.61,0,0,0-5.66-1.71,1.08,1.08,0,0,1-1.24-.87,1.07,1.07,0,0,1,.87-1.23,8.91,8.91,0,0,1,5.67,1v-35A4.13,4.13,0,0,0,601.43,356.54Z" transform="translate(-158.25 -220.73)"/><path class="cls-27" d="M976.45,478.56a4.77,4.77,0,1,1,4.77-4.77A4.78,4.78,0,0,1,976.45,478.56Z" transform="translate(-158.25 -220.73)"/><path class="cls-27" d="M956.12,464.47a2.42,2.42,0,1,1,2.42-2.42A2.42,2.42,0,0,1,956.12,464.47Z" transform="translate(-158.25 -220.73)"/><path class="cls-27" d="M996.78,464.47a2.42,2.42,0,1,1,2.42-2.42A2.42,2.42,0,0,1,996.78,464.47Z" transform="translate(-158.25 -220.73)"/><path class="cls-27" d="M976.45,499.68a2.42,2.42,0,1,1,2.42-2.41A2.42,2.42,0,0,1,976.45,499.68Z" transform="translate(-158.25 -220.73)"/><path class="cls-27" d="M976.45,482.57a8.78,8.78,0,1,1,8.78-8.78A8.79,8.79,0,0,1,976.45,482.57Zm0-15.65a6.87,6.87,0,1,0,6.87,6.87A6.88,6.88,0,0,0,976.45,466.92Z" transform="translate(-158.25 -220.73)"/><path class="cls-27" d="M956.12,468.49a6.44,6.44,0,1,1,6.43-6.44A6.44,6.44,0,0,1,956.12,468.49Zm0-11a4.53,4.53,0,1,0,4.52,4.52A4.53,4.53,0,0,0,956.12,457.53Z" transform="translate(-158.25 -220.73)"/><path class="cls-27" d="M996.78,468.49a6.44,6.44,0,1,1,6.43-6.44A6.44,6.44,0,0,1,996.78,468.49Zm0-11a4.53,4.53,0,1,0,4.52,4.52A4.53,4.53,0,0,0,996.78,457.53Z" transform="translate(-158.25 -220.73)"/><path class="cls-27" d="M976.45,503.7a6.44,6.44,0,1,1,6.43-6.43A6.44,6.44,0,0,1,976.45,503.7Zm0-11a4.53,4.53,0,1,0,4.52,4.53A4.53,4.53,0,0,0,976.45,492.74Z" transform="translate(-158.25 -220.73)"/><path class="cls-27" d="M976.45,460.59a4,4,0,1,1,4-4A4,4,0,0,1,976.45,460.59Zm0-6.12a2.11,2.11,0,1,0,2.1,2.11A2.11,2.11,0,0,0,976.45,454.47Z" transform="translate(-158.25 -220.73)"/><path class="cls-27" d="M961.55,486.41a4,4,0,1,1,2-.54A3.93,3.93,0,0,1,961.55,486.41Zm0-6.12a2.05,2.05,0,0,0-1,.29,2.08,2.08,0,0,0-1,1.27,2.1,2.1,0,0,0,3.08,2.37,2.1,2.1,0,0,0,.77-2.87A2.11,2.11,0,0,0,961.54,480.29Z" transform="translate(-158.25 -220.73)"/><path class="cls-27" d="M991.35,486.41a3.93,3.93,0,0,1-2-.54,4,4,0,0,1-1.47-5.48,4,4,0,1,1,3.47,6Zm0-6.12a2.11,2.11,0,0,0-1.82,1.06,2.1,2.1,0,0,0,.77,2.87,2.13,2.13,0,0,0,1,.28,2.1,2.1,0,0,0,1.06-3.92A2.05,2.05,0,0,0,991.36,480.29Z" transform="translate(-158.25 -220.73)"/><rect class="cls-27" x="817.24" y="260.88" width="1.91" height="10.17"/><rect class="cls-27" x="982.55" y="466.38" width="10.17" height="1.91" transform="translate(-259.6 335.75) rotate(-30)"/><rect class="cls-27" x="964.31" y="462.25" width="1.91" height="10.17" transform="translate(-80.31 848.93) rotate(-60)"/></svg>