<svg xmlns="http://www.w3.org/2000/svg" width="24.879" height="22.889" viewBox="0 0 24.879 22.889">
    <defs>
        <style>
            .cls-1{fill:#424c5f}
        </style>
    </defs>
    <g id="Group_1018" transform="translate(-2322.636 -429.006)">
        <g id="Group_1017">
            <path id="Rectangle_545" d="M0 0H23.884V0.995H0z" class="cls-1" transform="translate(2323.134 434.977)"/>
            <path id="Path_2400" d="M2329.1 433.982a.5.5 0 0 1-.5-.5V429.5a.5.5 0 1 1 1 0v3.98a.5.5 0 0 1-.5.502z" class="cls-1"/>
            <path id="Path_2401" d="M2341.047 433.982a.5.5 0 0 1-.5-.5V429.5a.5.5 0 1 1 .995 0v3.98a.5.5 0 0 1-.495.502z" class="cls-1"/>
            <path id="Path_2402" d="M2346.023 451.895h-21.894a1.5 1.5 0 0 1-1.493-1.493v-17.415a1.5 1.5 0 0 1 1.493-1.493h21.894a1.494 1.494 0 0 1 1.492 1.493V450.4a1.494 1.494 0 0 1-1.492 1.495zm-21.894-19.406a.5.5 0 0 0-.5.5V450.4a.5.5 0 0 0 .5.5h21.894a.5.5 0 0 0 .5-.5v-17.413a.5.5 0 0 0-.5-.5z" class="cls-1"/>
            <path id="Path_2403" d="M2333.168 440.155h-1.1a.549.549 0 1 1 0-1.1h1.1a.549.549 0 0 1 0 1.1z" class="cls-1"/>
            <path id="Path_2404" d="M2328.772 440.155h-1.1a.549.549 0 0 1 0-1.1h1.1a.549.549 0 0 1 0 1.1z" class="cls-1"/>
            <path id="Path_2405" d="M2341.959 440.155h-1.1a.549.549 0 0 1 0-1.1h1.1a.549.549 0 1 1 0 1.1z" class="cls-1"/>
            <path id="Path_2406" d="M2337.563 440.155h-1.1a.549.549 0 0 1 0-1.1h1.1a.549.549 0 1 1 0 1.1z" class="cls-1"/>
            <path id="Path_2407" d="M2333.168 444h-1.1a.549.549 0 1 1 0-1.1h1.1a.549.549 0 0 1 0 1.1z" class="cls-1"/>
            <path id="Path_2408" d="M2328.772 444h-1.1a.549.549 0 0 1 0-1.1h1.1a.549.549 0 0 1 0 1.1z" class="cls-1"/>
            <path id="Path_2409" d="M2337.563 444h-1.1a.549.549 0 0 1 0-1.1h1.1a.549.549 0 1 1 0 1.1z" class="cls-1"/>
            <path id="Path_2410" d="M2333.168 447.847h-1.1a.549.549 0 1 1 0-1.1h1.1a.549.549 0 0 1 0 1.1z" class="cls-1"/>
            <path id="Path_2411" d="M2337.563 447.847h-1.1a.549.549 0 0 1 0-1.1h1.1a.549.549 0 1 1 0 1.1z" class="cls-1"/>
            <path id="Path_2412" d="M2328.772 447.847h-1.1a.549.549 0 0 1 0-1.1h1.1a.549.549 0 0 1 0 1.1z" class="cls-1"/>
            <path id="Path_2413" d="M2340.826 444.814a.448.448 0 0 1-.32-.133l-.907-.906a.454.454 0 1 1 .641-.642l.586.587 1.493-1.493a.453.453 0 1 1 .641.641l-1.813 1.813a.45.45 0 0 1-.321.133z" class="cls-1"/>
        </g>
    </g>
</svg>
