<svg xmlns="http://www.w3.org/2000/svg" width="15.222" height="15.236" viewBox="0 0 15.222 15.236">
    <defs>
        <style>
            .cls-1{fill:#fff}
        </style>
    </defs>
    <g id="Group_1257" transform="translate(-497.794 -438.976)">
        <g id="Group_1256">
            <path id="Path_1397" d="M513.016 444.2c-.015.062-.028.125-.045.187a1.26 1.26 0 0 1-1.172.935h-12.681a1.287 1.287 0 0 1-1.218-.789 1.359 1.359 0 0 1 .293-1.492q1.836-1.832 3.668-3.668a1.305 1.305 0 0 1 2.2.542 1.249 1.249 0 0 1-.324 1.282c-.5.51-1.005 1.009-1.508 1.513l-.071.075h9.557a1.269 1.269 0 0 1 1.236.862c.03.088.046.18.068.27z" class="cls-1"/>
            <path id="Path_1398" d="M512.992 449.231a1.907 1.907 0 0 1-.618 1.1q-.7.7-1.39 1.4-1.035 1.043-2.072 2.083a1.312 1.312 0 0 1-1.865-1.845c.5-.509 1-1.011 1.5-1.516l.065-.07h-9.507a1.276 1.276 0 0 1-1.216-.793 1.261 1.261 0 0 1 1.1-1.724H511.421a2.591 2.591 0 0 1 .609.034 1.258 1.258 0 0 1 .942 1 1.217 1.217 0 0 1 .02.331z" class="cls-1"/>
        </g>
    </g>
</svg>
