<svg xmlns="http://www.w3.org/2000/svg" width="14.586" height="14.743" viewBox="0 0 14.586 14.743">
    <defs>
        <style>
            .cls-1{fill:#0087ca;stroke:#0087ca;stroke-miterlimit:10}
        </style>
    </defs>
    <g id="Group_61" transform="translate(-3166.121 -332.426)">
        <g id="Group_60">
            <path id="Path_161" d="M3167.568 344.489c0 .007 0-.005-.013-.052a.278.278 0 0 1 .013.052z" class="cls-1"/>
            <path id="Path_162" d="M3177.582 340.338a.47.47 0 0 0-.461.461v3.645l-.008.045a1.772 1.772 0 0 1-.075.267c-.008.021-.052.082-.011.03s-.007.012-.014.028c-.025.05-.051.1-.08.145l-.072.108c-.015.016-.029.035-.044.052-.033.038-.068.074-.1.108-.008.008-.042.045-.071.071a.2.2 0 0 0-.033.019c-.021.014-.041.029-.062.042-.042.028-.086.053-.13.077-.015.008-.1.061-.109.053l.054-.022-.057.022-.087.029c-.03.009-.089.026-.134.036l-.076.016c-.088.019.028 0 .029 0-.033.028-.182.014-.224.014-.669.005-1.338 0-2.006 0h-5.063l-.051-.005c-.045-.01-.091-.017-.136-.029a1.471 1.471 0 0 1-.147-.044l-.058-.021-.014-.007a2.344 2.344 0 0 1-.248-.144l-.013-.009-.036-.03a1.453 1.453 0 0 1-.109-.1c-.035-.036-.068-.074-.1-.111l-.015-.017-.021-.034c-.02-.031-.166-.236-.146-.264 0 0 .035.092.011.026l-.031-.087c-.013-.039-.024-.078-.034-.118s-.011-.064-.017-.1a.1.1 0 0 1-.013-.043v-.008q0-.044-.006-.087v-.109-6.743-.168c0-.056-.016-.185.014-.223l-.008.06c0-.021.007-.041.011-.062l.013-.06c.013-.055.029-.11.047-.163l.026-.072.008-.024.048-.086c.025-.044.051-.087.079-.128l.034-.049a2.352 2.352 0 0 1 .21-.214l.023-.021.014-.008c.046-.031.091-.062.139-.09s.089-.047.134-.07l.011-.006.02-.006c.031-.012.314-.112.328-.086 0 0-.12.012-.029 0l.064-.006c.043 0 .085 0 .128-.005h3.471a.46.46 0 1 0 0-.92h-2.771a5.2 5.2 0 0 0-1.26.07 2.262 2.262 0 0 0-1.677 2.134c-.013.673 0 1.347 0 2.019v4.707a2.741 2.741 0 0 0 .257 1.29 2.258 2.258 0 0 0 2 1.2h7.022a2.3 2.3 0 0 0 1.363-.541 2.2 2.2 0 0 0 .714-1.163 2.924 2.924 0 0 0 .063-.666V340.8a.465.465 0 0 0-.478-.462zm-9.925-3.55l-.018.046s.006-.023.018-.046zm.154 8.281l.026.032s-.016-.015-.026-.032zm.221.226l.03.024a.114.114 0 0 1-.03-.019z" class="cls-1"/>
            <path id="Path_163" d="M3180.2 333.3a.421.421 0 0 0-.126-.238.568.568 0 0 0-.054-.043.458.458 0 0 0-.272-.092h-4.668a.46.46 0 0 0 0 .921h3.557l-1.519 1.519-1.973 1.973-1.7 1.7c-.276.276-.56.546-.829.829l-.011.012a.46.46 0 0 0 .651.651l.68-.68 1.625-1.625 1.973-1.973 1.7-1.7.055-.055v3.557a.461.461 0 0 0 .921 0v-4.668a.417.417 0 0 0-.01-.088z" class="cls-1"/>
        </g>
    </g>
</svg>
