<?xml version="1.0" standalone="yes"?>
<!DOCTYPE svg PUBLIC "-//W3C//DTD SVG 20010904//EN" "http://www.w3.org/TR/2001/REC-SVG-20010904/DTD/svg10.dtd">
<svg xmlns="http://www.w3.org/2000/svg" xmlns:xlink="http://www.w3.org/1999/xlink" version="1.0" width="1301.000000pt"
    height="962.000000pt" viewBox="0 0 1301.000000 962.000000" preserveAspectRatio="xMidYMid meet" style="zoom: 1;"
    visibility="visible">
    <metadata visibility="visible">Created by potrace 1.16, written by Peter Selinger 2001-2019</metadata>
    <g transform="translate(0.000000,962.000000) scale(0.100000,-0.100000)" fill="#000000" stroke="none"
        visibility="visible">
        <path
            d="M22 9602 c-10 -7 -12 -962 -10 -4743 l3 -4734 3435 -5 3435 -5 6 -60 6 -60 -1 70 -1 70 -71 3 -72 3 -5 57 c-3 40 -1 62 9 73 12 13 14 142 14 762 l0 747 209 0 c190 0 249 -7 205 -24 -9 -3 -99 -6 -200 -6 l-184 0 0 -740 0 -740 119 0 c116 0 120 -1 123 -23 l3 -22 644 -3 c355 -1 648 1 652 5 4 5 -8 39 -27 77 -36 74 -41 96 -21 96 11 0 180 -327 179 -347 0 -4 -5 -9 -10 -11 -5 -1 -27 32 -49 75 l-39 78 -665 0 -664 0 -1 -100 0 -100 3 93 4 93 26 -3 26 -3 -2 -88 c-1 -56 2 -87 8 -87 7 0 11 33 11 90 l0 90 320 0 320 0 0 -90 c0 -73 3 -90 15 -90 12 0 15 17 15 90 0 53 4 90 10 90 6 0 10 -37 10 -90 0 -53 4 -90 10 -90 6 0 10 37 10 90 l0 90 265 0 264 0 41 -84 c22 -46 43 -86 46 -89 7 -6 44 29 44 42 0 20 -183 371 -194 371 -15 1 -160 294 -147 298 10 3 3 32 -8 32 -3 0 -15 -7 -25 -15 -19 -14 -18 -15 2 -32 33 -28 164 -293 147 -299 -10 -4 -3 -25 26 -82 21 -42 39 -78 39 -79 0 -2 -288 -3 -640 -3 l-640 0 0 25 0 24 -117 3 -118 3 0 720 0 720 382 3 382 2 23 -40 c13 -22 26 -40 30 -40 13 0 -33 80 -52 90 -28 15 -25 32 6 28 19 -2 32 -14 48 -43 11 -22 22 -42 24 -44 1 -2 4 -2 7 1 3 3 -6 28 -21 57 l-27 51 -433 0 -434 0 0 -755 0 -755 -746 0 c-633 0 -748 2 -760 14 -21 22 -21 1400 0 1422 12 12 101 14 565 14 541 0 551 0 551 -20 0 -28 33 -130 42 -130 4 0 8 -6 8 -14 0 -25 94 -113 149 -141 30 -15 77 -29 105 -32 l51 -5 -3 156 c-3 121 -1 162 10 179 19 30 17 61 -4 65 -17 3 -18 -11 -18 -187 0 -111 -4 -192 -10 -196 -14 -9 -120 24 -162 51 -87 55 -138 142 -147 253 l-6 76 -595 3 c-521 2 -595 0 -603 -13 -7 -13 -125 -15 -992 -15 l-985 0 0 -727 c0 -401 -4 -734 -8 -741 -7 -10 -315 -12 -1508 -10 l-1499 3 0 4570 0 4570 5709 3 c4561 2 5711 0 5718 -10 9 -16 10 -5769 0 -5783 -4 -6 -61 -10 -137 -10 l-130 0 -8 -70 c-13 -118 -60 -198 -152 -260 -44 -29 -69 -38 -116 -42 l-59 -6 0 189 0 189 -57 -1 -58 -1 -3 -188 -2 -188 -53 6 c-97 11 -189 77 -235 169 -12 25 -28 83 -34 127 l-12 81 -152 0 c-84 0 -158 -2 -166 -5 -11 -4 -13 -123 -12 -663 3 -958 13 -2064 19 -2071 4 -3 35 -4 71 -3 61 3 64 2 64 -20 0 -37 -27 -66 -72 -78 -50 -14 -41 -23 41 -39 78 -15 147 -58 194 -120 39 -53 67 -123 67 -169 l0 -32 -180 0 c-176 0 -180 0 -191 -22 -10 -18 -14 -77 -10 -140 1 -5 12 -8 26 -8 l24 0 4 -138 3 -137 2 138 c2 114 5 137 17 137 13 0 15 -22 15 -135 0 -83 4 -135 10 -135 6 0 10 52 10 135 l0 135 1335 0 c826 0 1335 4 1335 9 0 6 -17 11 -37 13 -33 3 -38 6 -38 28 0 21 6 26 40 31 22 3 30 7 18 8 -13 0 -23 5 -23 10 0 5 9 7 20 4 11 -3 20 -1 20 5 0 6 -10 13 -22 15 l-23 4 23 2 c15 1 22 7 22 21 0 21 -31 27 -105 21 -16 -1 -40 1 -52 4 l-23 5 0 1065 0 1065 -525 0 -525 0 -2 3513 -3 3512 -5870 2 c-3228 1 -5876 -1 -5883 -5z m292 -82 l1 -65 -72 -3 -72 -3 -3 -72 -3 -72 -67 -3 -68 -3 0 146 0 146 141 -3 141 -3 2 -65z m1150 0 l1 -65 -145 0 -145 0 0 60 c0 33 1 63 3 68 2 4 67 6 144 5 l140 -3 2 -65z m1146 0 l0 -71 -142 3 -143 3 -3 68 -3 67 146 0 145 0 0 -70z m1140 0 l0 -70 -140 0 -140 0 0 70 0 70 140 0 140 0 0 -70z m1144 8 c3 -34 2 -66 -2 -70 -5 -5 -69 -7 -143 -6 l-134 3 -3 68 -3 67 139 0 139 0 7 -62z m1150 1 c3 -34 3 -65 0 -70 -3 -5 -68 -9 -144 -9 -76 0 -141 4 -144 9 -3 5 -3 36 0 70 l7 61 137 0 137 0 7 -61z m1144 -6 l-3 -68 -140 0 -140 0 -3 68 -3 67 146 0 146 0 -3 -67z m1145 5 c3 -35 2 -67 -2 -71 -4 -4 -70 -6 -147 -5 l-139 3 -3 68 -3 67 144 0 144 0 6 -62z m1145 -5 l-3 -68 -140 0 -140 0 0 60 c0 33 1 63 3 68 2 4 66 7 143 7 l140 0 -3 -67z m1142 -3 l0 -70 -140 0 -140 0 0 70 0 70 140 0 140 0 0 -70z m1145 -75 l0 -140 -65 0 -65 0 -3 73 -3 72 -74 0 -75 0 0 70 0 71 143 -3 142 -3 0 -140z m-10607 38 l-3 -28 -410 0 -410 0 -3 28 -3 27 416 0 416 0 -3 -27z m1140 0 l-3 -28 -405 0 -405 0 -3 28 -3 27 411 0 411 0 -3 -27z m1152 -3 l0 -30 -410 0 -410 0 0 30 0 30 410 0 410 0 0 -30z m1140 0 l0 -30 -407 2 -408 3 -3 28 -3 27 410 0 411 0 0 -30z m1148 3 l-3 -28 -408 -3 c-356 -2 -408 0 -413 13 -4 8 -4 22 0 30 5 13 60 15 416 15 l411 0 -3 -27z m1150 0 l-3 -28 -410 0 -410 0 -3 28 -3 27 416 0 416 0 -3 -27z m1140 0 l-3 -28 -410 0 -410 0 -3 28 -3 27 416 0 416 0 -3 -27z m1147 -3 l0 -25 -410 0 -410 0 -3 28 -3 27 413 -2 413 -3 0 -25z m1143 3 l-3 -28 -407 -3 -408 -2 0 30 0 30 411 0 410 0 -3 -27z m1142 -3 l0 -30 -410 0 -410 0 0 30 0 30 410 0 410 0 0 -30z m-11295 -212 c3 -13 4 -198 3 -413 l-3 -390 -27 -3 c-16 -2 -28 0 -28 5 0 13 0 786 0 806 0 27 48 23 55 -5z m11523 -396 l2 -413 -27 3 -28 3 -3 400 c-1 220 0 406 3 413 3 7 15 12 27 10 l23 -3 3 -413z m-11523 -444 c3 -13 4 -79 3 -148 l-3 -125 -67 0 -68 0 0 142 0 142 43 4 c23 2 52 4 64 5 16 1 24 -5 28 -20z m11593 7 c9 -3 12 -39 12 -132 0 -70 -4 -133 -8 -138 -4 -6 -34 -10 -67 -10 l-60 0 -3 139 c-2 105 1 142 10 148 12 7 83 3 116 -7z m-11590 -690 c1 -214 0 -400 -3 -412 -4 -16 -13 -23 -30 -23 l-25 0 -1 268 c0 297 0 543 1 555 0 5 12 7 28 5 l27 -3 3 -390z m11520 -23 l2 -413 -27 3 -28 3 -3 404 c-2 420 -2 425 38 418 13 -2 15 -57 18 -415z m-11520 -569 l3 -143 -71 0 -70 0 0 139 0 140 38 4 c20 2 51 4 67 3 l30 -1 3 -142z m11575 137 l27 0 0 -140 0 -140 -70 0 -70 0 0 138 c0 76 3 142 8 146 4 4 23 5 42 2 19 -3 47 -6 63 -6z m-11573 -710 l0 -410 -30 0 -30 0 -1 205 c-1 113 -1 214 -1 225 0 11 0 103 1 205 l1 185 30 0 30 0 0 -410z m11520 0 l0 -410 -30 0 -30 0 0 410 0 410 30 0 30 0 0 -410z m-11520 -569 c0 -77 -4 -142 -9 -145 -5 -3 -36 -3 -70 0 l-61 7 0 138 0 139 70 0 70 0 0 -139z m11600 0 l0 -138 -56 -6 c-87 -9 -84 -14 -84 144 l0 139 70 0 70 0 0 -139z m-11602 -574 l2 -408 -31 3 -31 3 1 225 c0 124 1 307 1 408 l0 183 28 -3 27 -3 3 -408z m11522 3 l0 -410 -30 0 -30 0 0 403 c0 222 3 407 7 410 3 4 17 7 30 7 l23 0 0 -410z m-11522 -570 c1 -74 -2 -141 -6 -148 -6 -9 -25 -10 -70 -6 l-62 7 0 144 0 144 68 -3 67 -3 3 -135z m11597 118 c3 -13 4 -77 3 -143 l-3 -120 -54 -7 c-30 -3 -60 -4 -68 -1 -10 4 -13 38 -13 149 l0 144 65 0 c59 0 65 -2 70 -22z m-11597 -683 c1 -214 0 -400 -3 -412 -4 -16 -13 -23 -30 -23 l-25 0 0 190 c0 105 0 287 0 405 0 118 0 220 0 226 0 6 12 9 28 7 l27 -3 3 -390z m11522 -14 c0 -265 -4 -412 -10 -416 -6 -3 -19 -3 -30 0 -20 6 -20 16 -20 416 l0 409 30 0 30 0 0 -409z m-11525 -576 l0 -140 -67 -3 -68 -3 0 146 0 146 68 -3 67 -3 0 -140z m11600 0 l0 -140 -65 0 -65 0 -3 143 -4 143 69 -3 68 -3 0 -140z m-797 -528 c2 -375 0 -427 -13 -427 -13 0 -15 53 -15 431 0 340 3 430 13 427 9 -4 13 -101 15 -431z m-488 413 c0 -6 -40 -10 -100 -10 l-100 0 0 -405 c0 -353 -2 -405 -15 -405 -13 0 -15 53 -15 415 l0 415 115 0 c70 0 115 -4 115 -10z m56 -29 c6 -1 14 -19 18 -40 24 -152 175 -290 318 -291 l38 0 3 168 c1 92 4 -14 5 -236 l2 -403 -27 3 c-28 3 -28 3 -29 87 0 78 -2 84 -25 97 -31 17 -97 17 -129 0 -23 -13 -24 -18 -21 -100 l3 -86 -56 0 -56 0 0 88 c0 85 -1 89 -25 100 -33 15 -97 15 -129 1 -24 -11 -25 -15 -19 -74 3 -35 3 -75 -1 -89 -6 -26 -10 -27 -59 -24 l-52 3 -3 390 c-1 214 0 396 3 403 4 12 72 13 241 3z m1080 -16 c2 -11 3 -182 2 -380 l-3 -360 -27 -3 c-18 -2 -28 1 -29 10 0 7 -1 46 -1 86 0 68 -2 74 -25 83 -32 12 -97 12 -125 -1 -22 -10 -23 -15 -19 -95 l3 -85 -62 0 -61 0 2 80 c2 69 -1 83 -17 95 -22 17 -103 20 -137 4 -22 -10 -23 -14 -19 -95 l5 -84 -56 0 c-41 0 -56 4 -61 16 -11 28 -7 744 4 744 6 0 10 -62 10 -165 l0 -165 37 0 c72 0 158 44 225 114 48 49 88 135 88 188 0 24 4 27 43 31 23 2 82 3 130 3 79 -1 88 -3 93 -21z m-11451 -410 l0 -410 -27 -3 -28 -3 0 193 c-1 155 -1 595 0 631 0 5 12 7 28 5 l27 -3 0 -410z m11525 0 l0 -415 -24 0 c-20 0 -24 6 -30 46 -8 62 -8 769 1 777 3 4 17 7 30 7 l23 0 0 -415z m-442 -268 l3 -67 -66 0 -65 0 0 63 c0 35 2 66 4 68 2 2 31 4 63 3 l58 -1 3 -66z m287 3 l0 -65 -62 -3 c-39 -2 -63 1 -64 8 0 5 0 33 0 60 0 28 0 54 0 58 1 4 29 7 64 7 l62 -1 0 -64z m-982 31 c4 -1 7 -29 5 -63 l-3 -63 -65 0 -65 0 -3 59 c-2 36 1 62 8 66 9 5 73 6 123 1z m290 0 c4 -1 7 -29 5 -63 l-3 -63 -67 -3 -68 -3 0 64 c0 35 2 66 5 68 4 4 99 4 128 0z m767 -226 l0 -105 -76 0 -76 0 7 40 c4 22 4 63 0 90 l-7 50 -233 0 c-212 0 -257 4 -238 24 3 3 145 6 315 6 l308 0 0 -105z m-1230 -16 l0 -90 -42 3 -43 3 -3 74 c-2 41 -1 80 2 88 3 8 21 13 46 13 l40 0 0 -91z m536 38 c3 -13 4 -41 2 -63 l-3 -39 -257 -3 -258 -2 0 65 0 65 255 0 255 0 6 -23z m532 -44 l3 -63 -229 0 c-254 0 -242 -3 -242 65 0 69 -12 66 239 63 l226 -3 3 -62z m-11283 -88 l0 -140 -67 -3 -68 -3 0 146 0 146 68 -3 67 -3 0 -140z m11600 45 l0 -95 -40 -5 -40 -5 -3 -567 -2 -568 -25 0 -25 0 0 570 0 570 -315 0 -315 0 0 -570 0 -570 -25 0 -25 0 -2 568 -3 567 -325 0 -325 0 0 -565 c0 -548 -1 -565 -19 -573 -11 -4 -23 -4 -28 1 -4 4 -7 273 -6 598 l3 589 689 3 c537 2 692 5 698 15 5 6 8 37 7 67 0 30 0 59 0 63 1 4 29 7 64 5 l62 -3 0 -95z m-830 -670 l0 -545 -65 0 -65 0 -3 48 c-2 37 0 47 12 47 14 0 16 32 16 270 l0 270 -211 -2 -210 -3 -2 -268 c-2 -248 -1 -267 16 -267 14 0 17 -9 17 -50 l0 -50 -65 0 -65 0 0 550 0 550 313 -2 312 -3 0 -545z m680 0 l0 -545 -52 -3 -53 -3 0 50 c0 39 4 51 15 51 13 0 15 52 15 405 l0 405 -215 0 -215 0 0 -405 c0 -398 0 -405 20 -405 17 0 20 -7 20 -50 l0 -50 -64 0 c-49 0 -65 4 -70 16 -8 22 -8 1069 1 1077 4 4 140 6 302 5 l296 -3 0 -545z m1135 -5 l0 -555 -187 2 -188 3 -3 41 c-3 35 0 42 23 52 14 7 30 12 36 12 21 0 118 70 171 124 124 126 170 321 116 492 -103 329 -483 463 -768 271 -99 -67 -170 -164 -205 -282 -27 -91 -28 -90 83 -103 53 -6 120 -13 147 -16 212 -18 215 -18 215 -3 0 8 9 21 20 28 20 13 20 16 6 57 -9 24 -18 64 -22 90 -5 41 -3 50 20 75 32 35 26 47 -19 40 -32 -5 -35 -4 -35 19 0 14 -3 28 -7 32 -15 15 -32 111 -22 121 6 5 46 12 89 13 60 3 96 -1 149 -17 39 -12 72 -25 75 -29 5 -8 -55 -134 -76 -159 -7 -8 -17 -9 -35 -2 -14 5 -28 7 -31 5 -3 -3 7 -10 22 -15 14 -6 26 -14 26 -18 0 -5 -21 -50 -46 -101 -41 -81 -45 -96 -35 -118 16 -37 14 -60 -9 -75 l-21 -14 21 -80 c12 -44 27 -105 35 -135 7 -30 21 -82 30 -115 10 -33 20 -93 22 -132 l5 -73 199 0 199 0 0 -510 0 -510 -1225 0 c-1051 0 -1225 2 -1225 14 0 8 -3 21 -6 30 -5 14 13 16 160 16 137 0 168 3 172 15 8 19 -12 112 -34 155 -40 80 -151 171 -227 186 -37 7 -38 7 -19 23 30 25 54 63 54 88 0 20 -6 22 -57 25 l-58 3 -3 214 c-1 118 1 218 6 223 5 5 323 9 708 11 l699 2 3 568 2 567 525 0 525 0 0 -555z m-633 448 c6 -27 16 -66 22 -88 11 -43 8 -49 -25 -59 -19 -6 -27 4 -63 74 -23 45 -39 85 -36 91 6 8 56 26 81 28 5 1 15 -20 21 -46z m-11952 -394 l0 -404 -27 -3 c-16 -2 -28 0 -28 5 -1 28 -1 328 -1 555 l1 266 28 -7 27 -7 0 -405z m11885 294 c32 -62 32 -64 14 -78 -22 -17 -41 -19 -46 -6 -1 5 -27 34 -55 64 -29 31 -53 60 -53 66 0 6 10 16 22 22 13 7 29 19 37 27 13 12 17 11 32 -9 9 -12 31 -51 49 -86z m463 81 c43 -29 46 -19 -32 -111 -47 -56 -57 -61 -85 -40 -16 12 -14 18 24 95 23 45 44 82 48 82 4 0 24 -12 45 -26z m99 -86 l20 -29 -23 -17 c-128 -93 -130 -94 -150 -76 -25 22 -24 30 5 62 13 15 41 46 61 70 41 46 47 46 87 -10z m-592 -105 c0 -7 -9 -17 -20 -23 -17 -9 -28 -7 -58 11 -20 13 -39 26 -42 29 -3 3 -17 13 -32 23 -16 10 -28 25 -28 34 0 9 12 30 28 46 l27 29 63 -69 c34 -37 62 -73 62 -80z m-516 111 c13 -5 15 -53 15 -389 0 -327 -2 -384 -14 -389 -8 -3 -15 -17 -15 -31 l0 -25 -162 2 -163 3 -3 28 c-2 15 -9 27 -17 27 -11 0 -10 7 5 33 10 17 52 97 93 177 41 80 78 144 83 144 8 -2 46 -69 131 -237 25 -49 48 -86 50 -83 5 5 -60 137 -139 284 -15 29 -28 59 -28 67 0 8 18 47 39 87 87 162 131 253 128 262 -2 6 -28 -39 -59 -100 -85 -166 -114 -218 -124 -220 -8 -2 -186 342 -185 359 1 8 342 10 365 1z m-344 -89 c0 -7 3 -15 8 -17 12 -5 142 -266 142 -285 0 -10 -11 -38 -25 -63 -13 -25 -50 -98 -82 -162 -32 -64 -62 -119 -68 -121 -7 -3 -10 117 -10 350 0 339 1 353 18 332 9 -11 17 -27 17 -34z m1501 13 c33 -40 25 -64 -28 -84 -27 -10 -52 -21 -58 -25 -5 -3 -24 -10 -41 -13 -28 -6 -32 -4 -38 20 -5 18 -3 30 6 35 19 12 45 30 87 61 44 33 48 34 72 6z m-759 -35 c63 -42 69 -49 63 -72 -4 -14 -8 -27 -9 -29 -4 -3 -63 17 -103 34 -17 8 -38 14 -47 14 -9 0 -19 7 -23 16 -7 19 25 84 40 84 6 0 42 -21 79 -47z m888 -337 c0 -239 -4 -377 -10 -381 -7 -4 -10 123 -10 374 0 247 4 381 10 381 6 0 10 -131 10 -374z m-342 313 c15 -23 18 -20 -76 -86 -28 -20 -50 -38 -48 -40 2 -3 34 16 69 41 72 50 82 54 91 30 9 -24 7 -34 -6 -34 -7 0 -25 -6 -40 -14 -15 -8 -40 -17 -57 -21 -17 -4 -33 -11 -36 -16 -7 -11 28 -12 39 -2 9 10 98 43 114 43 6 0 12 -11 12 -24 0 -22 -5 -24 -67 -31 -36 -4 -71 -9 -77 -11 -6 -2 -24 6 -39 18 l-28 23 62 73 c35 39 65 72 68 72 4 0 12 -9 19 -21z m-593 -61 c28 -11 58 -22 68 -25 18 -6 21 -20 11 -47 -7 -19 -48 -21 -127 -5 -62 13 -69 26 -47 84 8 20 15 25 28 20 9 -4 40 -16 67 -27z m868 -143 c-5 -33 -8 -36 -32 -31 -14 3 -54 9 -88 12 -35 4 -64 11 -64 15 -1 5 -2 15 -3 22 -4 23 17 37 58 38 22 0 59 3 81 7 47 9 58 -5 48 -63z m-1923 56 c0 -4 -15 -27 -32 -49 -18 -22 -55 -69 -83 -104 -27 -35 -53 -66 -59 -70 -5 -3 -19 6 -30 20 -11 15 -26 33 -33 40 -7 7 -34 41 -60 75 -26 34 -51 64 -55 65 -4 2 -8 10 -8 18 0 12 31 14 180 14 99 0 180 -4 180 -9z m20 -245 c0 -180 -3 -226 -15 -242 -8 -10 -15 -29 -15 -41 0 -23 -1 -23 -165 -23 l-165 0 0 25 c0 14 -7 28 -15 31 -11 5 -7 16 23 53 20 25 39 48 42 51 3 3 28 33 54 68 27 34 52 62 56 62 4 0 20 -17 36 -37 15 -21 31 -40 34 -43 4 -3 30 -36 58 -74 29 -38 52 -63 52 -57 0 10 -55 86 -80 111 -10 10 -77 95 -83 107 -6 10 70 117 130 183 13 14 26 33 29 43 16 52 24 -16 24 -217z m-342 172 c22 -29 49 -64 61 -78 11 -14 24 -30 28 -35 5 -6 16 -21 27 -32 18 -22 18 -23 -60 -126 -121 -161 -114 -167 -114 98 0 124 4 225 9 225 5 0 27 -24 49 -52z m2205 -25 l38 -6 -6 -41 c-4 -23 -10 -44 -14 -49 -7 -8 -52 4 -108 29 -17 8 -38 14 -47 14 -11 0 -16 9 -16 30 0 30 0 30 58 30 31 0 74 -3 95 -7z m-55 -99 c18 -8 40 -14 48 -14 19 0 13 -38 -13 -76 -15 -24 -16 -24 -42 -8 -96 63 -131 88 -131 93 0 4 7 16 15 28 15 22 17 22 53 6 20 -8 52 -22 70 -29z m-68 -71 c38 -25 70 -52 70 -60 0 -7 -13 -27 -30 -45 l-29 -33 -32 35 c-18 19 -47 51 -66 70 -32 35 -33 36 -16 58 10 12 21 22 25 22 4 0 39 -21 78 -47z m-6335 17 c-4 -6 -178 -10 -491 -10 -316 0 -484 3 -484 10 0 7 170 10 491 10 324 0 488 -3 484 -10z m-1047 -181 c2 -148 0 -178 -13 -189 -10 -8 -15 -28 -14 -59 l2 -46 7 40 7 40 2 -42 1 -43 -215 0 -214 0 -3 93 -3 92 -86 3 -86 3 -5 -91 c-3 -50 -7 -93 -10 -95 -2 -2 -94 -5 -203 -5 l-200 -2 -6 24 c-4 13 -7 65 -8 116 l-1 92 -90 0 -90 0 0 -62 c0 -35 -3 -87 -6 -115 l-7 -53 -42 0 c-198 0 -330 -114 -329 -285 0 -51 6 -81 21 -110 29 -56 88 -113 142 -138 43 -20 64 -22 357 -25 l312 -3 6 -37 c3 -20 6 -63 6 -95 l0 -58 88 3 87 3 3 92 3 93 274 0 c150 0 280 -3 289 -6 11 -4 16 -18 15 -43 l-2 -36 -7 35 -7 35 -2 -42 c-1 -28 4 -45 14 -51 13 -7 15 -32 13 -163 l-3 -154 -982 -3 -983 -2 0 728 c0 401 3 732 7 735 3 4 446 6 982 5 l976 -3 3 -176z m7303 109 c24 -28 52 -58 62 -67 24 -21 22 -25 -24 -55 -47 -32 -44 -34 -99 70 -32 62 -33 64 -15 84 10 11 21 20 25 20 4 0 27 -23 51 -52z m-88 -30 c40 -69 67 -118 67 -123 0 -7 -63 -35 -81 -35 -12 0 -21 10 -25 28 -11 47 -25 103 -30 115 -4 11 29 57 40 57 2 0 15 -19 29 -42z m-12223 -227 c0 -77 -4 -142 -9 -145 -5 -3 -36 -3 -70 0 l-61 7 0 138 0 139 70 0 70 0 0 -139z m3946 -56 c6 -42 8 -78 5 -80 -2 -3 -40 -5 -83 -5 l-78 0 0 80 0 80 73 0 74 0 9 -75z m6663 46 c8 -5 11 -16 8 -25 -6 -14 -29 -16 -167 -16 -148 0 -160 1 -160 18 0 10 3 22 7 25 10 10 296 8 312 -2z m695 3 c9 -3 16 -15 16 -25 0 -18 -10 -19 -165 -19 -94 0 -165 4 -165 9 0 39 9 41 155 41 79 0 150 -3 159 -6z m-6749 -37 c8 -30 2 -107 -7 -107 -5 0 -40 0 -78 0 l-71 0 5 58 c3 31 5 60 5 65 1 4 32 7 71 7 65 0 70 -2 75 -23z m-4560 -532 l0 -410 -27 -3 c-21 -3 -28 1 -28 15 -1 18 0 776 0 801 0 9 10 12 28 10 l27 -3 0 -410z m3660 145 l0 -255 -38 3 c-50 4 -111 36 -142 75 -14 18 -30 37 -35 44 -6 7 -16 39 -24 72 -12 53 -12 68 1 117 25 96 71 150 157 184 86 33 81 48 81 -240z m1325 0 l0 -260 -652 2 -653 3 -3 245 c-1 134 0 250 3 257 3 10 138 13 655 13 l650 0 0 -260z m-570 -333 c0 -29 -5 -58 -12 -65 -10 -10 -137 -18 -138 -9 -1 1 -3 30 -6 65 l-6 62 81 0 81 0 0 -53z m-4412 -319 l3 -78 74 0 c84 0 81 4 69 -84 l-7 -46 -138 0 -139 0 0 139 0 140 43 4 c95 9 92 11 95 -75z m12745 22 c4 -30 5 -60 3 -67 -4 -11 -260 -13 -1338 -11 l-1333 3 -3 48 c-3 42 -1 48 15 45 11 -2 19 -14 21 -31 3 -21 8 -27 19 -23 8 3 568 6 1244 6 l1229 0 0 39 c0 39 1 40 38 44 20 2 50 4 67 3 28 -1 30 -4 38 -56z m-11755 -127 l-3 -28 -410 0 -410 0 -3 28 -3 27 416 0 416 0 -3 -27z m309 -38 l-2 -65 -145 0 -145 0 -2 65 -3 65 150 0 150 0 -3 -65z m833 35 l0 -30 -407 2 -408 3 -3 28 -3 27 410 0 411 0 0 -30z m310 -35 l0 -65 -145 0 -145 0 0 65 0 65 145 0 145 0 0 -65z m585 55 c3 -6 3 -19 0 -30 -6 -19 -16 -20 -286 -20 l-279 0 0 30 0 30 279 0 c178 0 282 -4 286 -10z m555 -45 l0 -55 -140 0 -140 0 0 55 0 55 140 0 140 0 0 -55z m840 25 l0 -30 -410 0 -410 0 0 30 0 30 410 0 410 0 0 -30z m310 13 c0 -10 -3 -35 -6 -56 l-7 -38 -136 3 -136 3 -3 53 -3 52 145 0 c132 0 146 -2 146 -17z m278 -10 l-3 -28 -127 -3 c-119 -2 -127 -1 -133 18 -3 11 -3 24 0 30 4 6 60 10 136 10 l130 0 -3 -27z m560 0 l-3 -28 -238 -3 c-197 -2 -241 0 -253 12 -17 18 -18 33 -1 39 6 3 121 6 255 6 l243 1 -3 -27z m306 19 c3 -5 2 -34 -1 -65 l-6 -57 -137 0 -137 0 -6 57 c-3 31 -4 60 -1 65 7 11 281 11 288 0z m684 -19 l-3 -28 -332 -3 -333 -2 0 30 0 30 336 0 335 0 -3 -27z">
        </path>
        <path
            d="M4926 1538 c-3 -13 -6 -67 -6 -121 l0 -98 98 3 97 3 -2 30 c-1 17 -5 69 -9 118 l-7 87 -82 0 c-77 0 -83 -1 -89 -22z m164 -80 c0 -24 3 -60 6 -80 l7 -38 -82 0 -81 0 0 80 0 80 75 0 75 0 0 -42z">
        </path>
        <path
            d="M4104 701 c-5 -4 -42 -18 -81 -31 -40 -13 -73 -28 -73 -32 0 -8 66 -172 81 -200 10 -19 23 -16 132 29 39 17 40 22 18 78 -18 45 -41 124 -41 138 0 17 -23 29 -36 18z m34 -67 c18 -62 25 -104 20 -104 -2 0 -32 -11 -67 -24 l-62 -25 -24 52 c-45 99 -45 99 32 128 37 15 73 26 78 25 6 -2 16 -25 23 -52z">
        </path>
        <path
            d="M4841 692 c-5 -9 -12 -35 -16 -57 -4 -22 -10 -44 -14 -50 -13 -16 -31 -99 -23 -106 4 -4 32 -16 62 -27 30 -10 62 -22 70 -26 10 -4 21 4 33 25 9 17 17 35 17 40 0 11 34 91 51 122 13 24 5 34 -34 46 -18 5 -56 18 -85 29 -48 19 -53 19 -61 4z m103 -33 c27 -10 54 -23 59 -28 8 -8 -8 -54 -44 -127 l-11 -21 -61 22 -62 21 2 45 c1 24 7 53 12 64 5 11 12 28 15 39 4 13 11 16 24 11 9 -4 39 -16 66 -26z">
        </path>
        <path d="M8187 9244 c-4 -4 -7 -36 -7 -71 l0 -64 88 3 87 3 0 65 0 65 -80 3 c-45 1 -84 0 -88 -4z"></path>
        <path d="M8854 9237 c-3 -8 -4 -36 -2 -63 l3 -49 85 0 85 0 0 60 0 60 -83 3 c-64 2 -84 0 -88 -11z"></path>
        <path d="M6850 9175 l0 -65 85 0 85 0 0 65 0 65 -85 0 -85 0 0 -65z"></path>
        <path d="M7480 9175 l0 -65 85 0 85 0 0 65 0 65 -85 0 -85 0 0 -65z"></path>
        <path
            d="M6660 8910 l0 -160 250 0 251 0 -3 158 -3 157 -247 3 -248 2 0 -160z m480 0 l0 -140 -220 0 c-121 0 -223 -1 -227 -2 -5 -2 -9 61 -11 140 l-3 142 231 0 230 0 0 -140z">
        </path>
        <path
            d="M7250 8910 l0 -160 245 0 245 0 0 160 0 160 -245 0 -245 0 0 -160z m478 -2 c-2 -79 -6 -142 -10 -140 -5 1 -109 2 -233 2 l-225 0 0 133 c0 74 3 137 7 140 3 4 109 7 235 7 l229 0 -3 -142z">
        </path>
        <path
            d="M8040 9068 c-1 -2 -2 -74 -3 -161 l-2 -157 242 0 242 0 3 156 c2 86 1 158 -1 160 -5 4 -481 6 -481 2z m468 -158 l-3 -141 -217 0 c-120 0 -222 1 -228 1 -6 0 -10 53 -10 140 l0 140 230 0 231 0 -3 -140z">
        </path>
        <path
            d="M8670 9068 c-1 -2 -2 -74 -3 -161 l-2 -157 243 2 243 3 0 155 0 155 -240 3 c-133 1 -241 1 -241 0z m468 -160 c-2 -79 -6 -142 -10 -140 -5 1 -107 2 -228 2 l-220 0 0 140 0 140 230 0 231 0 -3 -142z">
        </path>
        <path
            d="M1785 9048 c-3 -7 -4 -285 -3 -618 l3 -605 508 -3 507 -2 1 132 c3 403 -1 1090 -6 1098 -10 16 -1004 13 -1010 -2z m210 -110 c0 -54 -3 -98 -7 -98 -5 0 -48 0 -98 0 l-90 0 0 100 0 101 98 -3 97 -3 0 -97z m270 -193 l0 -290 -127 -3 -128 -3 0 289 c0 159 3 292 7 296 4 3 61 5 127 4 l121 -3 0 -290z m303 -2 l2 -293 -125 0 -125 0 0 288 c0 159 3 292 7 296 4 3 59 5 122 4 l116 -3 3 -292z m222 197 l0 -100 -99 0 -100 0 -4 -37 c-2 -21 -4 21 -5 93 -1 72 1 134 5 137 3 4 51 7 105 7 l98 0 0 -100z m-817 -152 c5 -22 5 -54 0 -75 l-9 -38 -58 -3 c-78 -4 -88 6 -84 82 l3 61 35 6 c19 4 51 6 70 5 31 -1 35 -4 43 -38z m785 28 c4 -4 7 -34 7 -67 0 -72 -8 -79 -92 -79 l-63 0 0 81 0 82 70 -5 c39 -3 74 -9 78 -12z m-67 -156 l99 0 0 -105 0 -105 -105 0 -105 0 2 158 c1 86 3 133 5 105 l4 -53 100 0z m-691 -105 l0 -105 -100 0 -100 0 0 105 0 105 100 0 100 0 0 -105z m-2 -228 c1 -53 -2 -105 -7 -115 -6 -9 -11 -12 -11 -4 0 9 -25 12 -90 12 l-90 0 0 105 0 106 98 -3 97 -3 3 -98z m267 -192 l0 -290 -127 -3 -128 -3 0 289 c0 159 3 292 7 296 4 3 61 5 127 4 l121 -3 0 -290z m303 -2 l2 -293 -125 0 -125 0 0 288 c0 159 3 292 7 296 4 3 59 5 122 4 l116 -3 3 -292z m220 195 l-3 -103 -98 -3 -98 -3 3 -92 3 -92 98 4 97 3 0 -100 c0 -116 4 -112 -105 -112 -40 0 -80 3 -89 6 -14 5 -16 41 -16 300 l0 294 105 0 106 0 -3 -102z m-818 -140 c0 -19 2 -20 10 -8 8 12 10 9 6 -10 -3 -14 -8 -46 -11 -72 l-6 -48 -69 0 c-53 0 -69 4 -74 16 -11 28 -6 120 6 132 7 7 39 12 75 12 59 0 63 -2 63 -22z m788 5 c9 -22 8 -120 -1 -129 -3 -4 -38 -9 -77 -12 l-70 -5 0 82 0 81 70 0 c58 0 72 -3 78 -17z m-760 -259 l-3 -99 -95 0 -95 0 -3 96 c-3 113 -6 110 107 101 55 -4 71 -2 71 9 0 9 3 10 10 3 7 -7 10 -51 8 -110z">
        </path>
        <path
            d="M3570 8940 l0 -70 120 0 120 0 0 70 0 70 -120 0 -120 0 0 -70z m218 -2 l-3 -53 -97 -3 -98 -3 0 56 0 55 101 0 100 0 -3 -52z">
        </path>
        <path
            d="M5359 9008 c0 -2 -1 -33 -2 -70 l-3 -68 124 0 123 0 -3 68 -3 67 -117 3 c-65 1 -118 1 -119 0z m219 -70 l-3 -53 -100 0 -100 0 -3 53 -3 52 106 0 106 0 -3 -52z">
        </path>
        <path
            d="M3320 8480 l0 -360 360 0 360 0 0 360 0 360 -360 0 -360 0 0 -360z m700 5 l0 -345 -345 0 -345 0 0 339 c0 262 3 340 13 344 6 3 162 6 345 6 l332 1 0 -345z">
        </path>
        <path
            d="M5100 8818 c0 -22 -3 -23 -75 -20 l-76 4 3 -123 3 -123 61 0 c33 0 66 4 72 8 9 5 12 -13 12 -71 l0 -78 -75 3 -75 4 0 -122 0 -122 75 4 74 3 3 -30 3 -30 358 -3 357 -2 0 360 0 360 -360 0 -360 0 0 -22z m705 -335 c0 -189 -3 -343 -7 -343 -5 0 -159 0 -343 0 l-335 0 0 338 c0 186 3 342 7 345 4 4 158 6 342 5 l336 -3 0 -342z m-727 195 l-3 -103 -52 -3 -53 -3 0 105 0 106 55 0 56 0 -3 -102z m2 -377 c0 -111 -1 -112 -72 -109 l-38 1 0 104 0 103 55 0 55 0 0 -99z">
        </path>
        <path
            d="M3170 8678 l0 -123 65 0 65 0 0 123 0 122 -65 0 -65 0 0 -122z m118 0 l-3 -103 -50 0 -50 0 -3 103 -3 102 56 0 56 0 -3 -102z">
        </path>
        <path
            d="M4069 8793 c0 -5 0 -59 0 -122 l0 -114 65 -1 66 -2 0 123 0 123 -65 0 c-36 0 -65 -3 -66 -7z m119 -115 l-3 -103 -52 -3 -53 -3 0 105 0 106 55 0 56 0 -3 -102z">
        </path>
        <path
            d="M5852 8679 l3 -123 65 0 65 0 0 120 0 119 -68 3 -68 3 3 -122z m118 -4 l0 -105 -50 0 -50 0 0 105 0 105 50 0 50 0 0 -105z">
        </path>
        <path
            d="M6544 8731 c-2 -2 -4 -60 -4 -128 l0 -123 660 0 660 0 0 128 0 127 -656 0 c-361 0 -658 -2 -660 -4z m648 -86 l0 -70 -316 -3 -316 -2 0 75 0 75 316 -2 316 -3 0 -70z m658 0 l0 -75 -320 0 -320 0 0 75 0 75 320 0 320 0 0 -75z m-657 -111 c3 -3 3 -12 0 -20 -4 -12 -59 -14 -319 -14 -307 0 -314 0 -314 20 0 20 7 20 313 20 173 0 316 -3 320 -6z m657 -14 c0 -20 -7 -20 -320 -20 -313 0 -320 0 -320 20 0 20 7 20 320 20 313 0 320 0 320 -20z">
        </path>
        <path
            d="M7940 8735 c-1 0 -1 -182 -1 -218 l1 -37 658 2 657 3 0 124 0 124 -657 1 c-362 0 -658 1 -658 1z m640 -90 l0 -75 -315 0 -315 0 0 75 0 75 315 0 315 0 0 -75z m660 0 l0 -75 -320 0 -320 0 0 75 0 75 320 0 320 0 0 -75z m-660 -125 c0 -20 -7 -20 -315 -20 -308 0 -315 0 -315 20 0 20 7 20 315 20 308 0 315 0 315 -20z m660 0 c0 -20 -7 -20 -320 -20 -313 0 -320 0 -320 20 0 20 7 20 320 20 313 0 320 0 320 -20z">
        </path>
        <path
            d="M317 8653 c-4 -3 -7 -233 -7 -510 l0 -503 135 -1 c74 0 290 0 480 0 190 0 408 0 485 0 l140 1 -2 508 -3 507 -611 3 c-336 1 -614 -1 -617 -5z m205 -108 l-3 -95 25 0 c14 0 26 -5 26 -11 0 -8 -11 -9 -31 -5 -17 3 -71 6 -120 6 l-89 0 0 100 0 100 98 0 97 0 -3 -95z m398 0 c0 -68 -4 -97 -12 -100 -26 -8 -248 -11 -248 -3 0 4 11 8 25 8 25 0 25 0 25 95 l0 95 105 0 105 0 0 -95z m223 0 l-5 -95 26 0 c14 0 26 -4 26 -8 0 -8 -212 -5 -237 3 -9 3 -13 32 -13 100 l0 95 104 0 104 0 -5 -95z m387 -5 l0 -100 -89 0 c-49 0 -103 -3 -120 -6 -20 -4 -31 -3 -31 5 0 6 9 11 20 11 19 0 20 7 20 95 l0 95 100 0 100 0 0 -100z m-854 72 c6 -4 14 -37 17 -74 6 -64 5 -68 -16 -73 -13 -4 -48 -5 -78 -3 l-54 3 -3 72 c-2 62 0 72 15 76 30 8 107 7 119 -1z m622 -1 c20 -12 29 -130 11 -142 -16 -10 -109 -12 -133 -3 -20 8 -23 123 -4 142 14 14 106 16 126 3z m-383 -311 l0 -115 -292 -3 -293 -2 0 120 0 120 293 -2 292 -3 0 -115z m615 0 l0 -120 -292 2 -293 3 -3 104 c-1 58 0 111 2 118 4 10 65 13 296 13 l290 0 0 -120z m-612 -290 c4 -163 40 -145 -295 -144 l-288 0 -3 127 -3 127 293 -2 293 -3 3 -105z m610 -17 l-3 -127 -287 0 c-231 -1 -289 2 -293 12 -7 20 -6 228 2 235 3 4 136 7 295 7 l289 0 -3 -127z m-1002 -159 c-3 -9 -6 -54 -6 -100 l0 -84 -95 0 -95 0 0 100 0 100 101 0 c88 0 100 -2 95 -16z m392 -81 l-3 -98 -103 -3 -103 -3 3 88 c2 69 0 91 -12 100 -12 10 9 12 103 13 l118 0 -3 -97z m242 87 c-11 -7 -15 -30 -15 -97 l0 -88 -100 0 -100 0 -3 98 -3 97 118 0 c79 0 113 -3 103 -10z m370 -90 l0 -101 -97 3 -98 3 0 88 c0 67 -4 90 -15 97 -10 6 23 10 98 10 l112 0 0 -100z m-842 68 c14 -14 4 -129 -12 -140 -13 -9 -98 -10 -120 -2 -12 5 -16 21 -16 73 0 37 3 71 7 74 11 12 128 8 141 -5z m630 -56 c2 -38 -2 -69 -9 -78 -14 -18 -120 -19 -137 -2 -16 16 -16 135 1 142 6 2 41 4 77 3 l65 -2 3 -63z">
        </path>
        <path
            d="M10257 8653 c-4 -3 -7 -233 -7 -510 l0 -503 133 0 c204 -1 816 -1 970 -1 l137 1 -2 508 -3 507 -611 3 c-336 1 -614 -1 -617 -5z m211 -108 c-3 -93 -2 -95 20 -95 12 0 22 -4 22 -8 0 -10 -233 -2 -240 8 -3 4 -4 49 -2 99 l3 91 101 0 100 0 -4 -95z m392 -5 l0 -100 -94 0 c-51 0 -108 -3 -125 -6 -20 -4 -31 -3 -31 5 0 6 9 11 20 11 19 0 20 7 20 95 l0 95 105 0 105 0 0 -100z m230 5 c0 -88 1 -95 20 -95 11 0 20 -5 20 -11 0 -8 -11 -9 -31 -5 -17 3 -74 6 -125 6 l-94 0 0 100 0 100 105 0 105 0 0 -95z m390 0 c0 -68 -4 -97 -12 -100 -26 -8 -238 -11 -238 -3 0 4 9 8 20 8 19 0 20 7 20 95 l0 95 105 0 105 0 0 -95z m-862 69 c21 -6 23 -11 20 -78 l-3 -71 -54 -3 c-96 -5 -101 -2 -101 73 0 50 4 66 18 74 19 12 85 14 120 5z m631 -8 c7 -9 11 -40 9 -78 l-3 -63 -75 0 -75 0 -3 65 c-2 52 0 67 14 77 24 18 118 17 133 -1z m-389 -306 l0 -120 -295 0 -295 0 0 120 0 120 295 0 295 0 0 -120z m610 0 l0 -120 -295 0 -295 0 0 120 0 120 295 0 295 0 0 -120z m-610 -307 l0 -128 -193 0 c-105 0 -238 1 -294 3 l-103 2 0 125 0 125 295 0 295 0 0 -127z m610 4 l0 -124 -152 -6 c-84 -3 -216 -4 -293 -1 l-140 4 -3 125 -3 125 296 0 295 0 0 -123z m-996 -159 c-5 -7 -7 -52 -5 -101 l3 -88 -102 3 -102 3 1 93 c0 50 0 94 1 97 0 3 48 5 106 5 80 0 103 -3 98 -12z m386 -88 l0 -101 -102 3 -103 3 -5 98 -5 97 108 0 107 0 0 -100z m232 0 l-3 -100 -105 0 -104 0 0 100 0 100 108 0 107 0 -3 -100z m386 3 l-3 -98 -100 0 -100 0 0 85 c0 47 -4 91 -8 98 -6 9 16 12 103 12 l111 0 -3 -97z m-838 2 c0 -34 -5 -66 -12 -73 -17 -17 -123 -16 -137 2 -7 9 -11 40 -9 78 l3 63 70 5 c41 3 73 1 77 -5 4 -5 8 -37 8 -70z m618 7 c4 -80 -6 -92 -70 -92 -75 0 -88 11 -88 73 0 93 1 93 83 87 l72 -5 3 -63z">
        </path>
        <path
            d="M6722 8431 c-9 -6 -12 -84 -10 -312 l3 -304 150 -8 c228 -12 856 -1 866 15 12 19 11 575 -1 598 -10 18 -31 19 -503 19 -271 -1 -499 -4 -505 -8z m208 -311 l0 -301 -102 3 -103 3 0 100 0 100 98 -3 97 -3 0 96 0 95 -100 0 -100 0 0 98 c0 54 3 102 7 105 3 4 51 7 105 7 l98 0 0 -300z m270 6 c0 -259 -2 -295 -16 -300 -9 -3 -65 -6 -125 -6 l-109 0 0 300 0 300 125 0 125 0 0 -294z m300 -6 l0 -300 -109 0 c-60 0 -116 3 -125 6 -14 5 -16 41 -16 300 l0 294 125 0 125 0 0 -300z m220 195 l0 -105 -94 0 -95 0 -4 -27 c-2 -16 -5 32 -6 105 l-1 132 100 0 100 0 0 -105z m-820 -204 l0 -79 -62 5 c-35 2 -69 6 -75 8 -14 5 -19 126 -6 138 3 4 37 7 75 7 l68 0 0 -79z m784 73 c12 -5 16 -21 16 -70 0 -71 4 -68 -96 -78 -47 -4 -53 -3 -58 17 -8 30 -8 122 1 130 8 9 116 9 137 1z m-83 -162 c38 3 80 3 94 0 26 -4 26 -5 23 -101 l-3 -96 -97 -3 -98 -3 1 128 c1 70 4 115 6 99 l5 -29 69 5z">
        </path>
        <path
            d="M8073 8433 c-16 -6 -19 -608 -3 -618 17 -10 705 -17 865 -8 l150 8 3 299 c1 204 -1 303 -9 312 -8 10 -108 13 -502 12 -271 0 -498 -3 -504 -5z m207 -313 l0 -300 -100 0 c-117 0 -113 -5 -108 125 l3 80 98 -3 97 -3 0 95 0 96 -100 0 -100 0 0 98 c0 54 3 102 7 105 3 4 51 7 105 7 l98 0 0 -300z m270 5 l0 -295 -22 -5 c-13 -3 -68 -5 -123 -3 l-100 3 -2 298 -2 297 124 0 125 0 0 -295z m300 -5 l0 -300 -109 0 c-60 0 -116 3 -125 6 -14 5 -16 41 -16 300 l0 294 125 0 125 0 0 -300z m220 195 l0 -105 -94 0 -95 0 -4 -32 c-2 -18 -5 29 -5 105 l-2 137 100 0 100 0 0 -105z m-817 -158 c3 -18 3 -53 0 -79 l-5 -46 -62 5 c-33 2 -67 6 -73 8 -14 5 -19 126 -6 138 3 4 36 7 73 7 l67 0 6 -33z m795 -39 c3 -76 8 -72 -95 -82 l-52 -5 -7 44 c-3 25 -3 61 0 80 l7 36 72 -3 72 -3 3 -67z m-97 -96 c38 3 80 3 94 0 26 -4 26 -5 23 -101 l-3 -96 -97 -3 -98 -3 2 133 c0 73 3 118 5 99 l4 -34 70 5z">
        </path>
        <path
            d="M3170 8300 l0 -120 65 0 65 0 0 120 0 120 -65 0 -65 0 0 -120z m118 -2 l-3 -103 -50 0 -50 1 -3 102 -3 102 56 0 56 0 -3 -102z">
        </path>
        <path
            d="M4070 8415 c-1 -3 -1 -56 -1 -117 l-1 -113 66 -3 66 -3 0 121 0 120 -65 0 c-36 0 -65 -2 -65 -5z m118 -117 l-3 -101 -50 -1 -50 0 -3 102 -3 102 56 0 56 0 -3 -102z">
        </path>
        <path
            d="M5850 8300 l0 -120 70 0 70 0 0 120 0 120 -70 0 -70 0 0 -120z m118 -1 l-3 -102 -47 -2 -48 -3 0 104 0 104 50 0 51 0 -3 -101z">
        </path>
        <path
            d="M3574 8101 c-2 -2 -4 -33 -4 -68 l0 -63 120 0 120 0 0 64 0 65 -116 3 c-64 2 -118 1 -120 -1z m216 -66 l0 -55 -100 0 -100 0 0 55 0 55 100 0 100 0 0 -55z">
        </path>
        <path
            d="M5359 8105 c0 0 -1 -30 -2 -67 l-3 -68 123 0 123 0 0 64 0 65 -120 3 c-66 2 -120 3 -121 3z m219 -67 l-3 -53 -100 0 -100 0 -3 53 -3 52 106 0 106 0 -3 -52z">
        </path>
        <path
            d="M8275 7370 c-4 -16 -11 -32 -16 -35 -5 -4 -9 -17 -9 -30 0 -60 101 -55 -1211 -55 l-1199 0 -1 -22 c0 -13 0 -141 0 -286 l-1 -262 109 -218 109 -217 52 -3 c42 -2 54 0 59 14 8 20 -21 44 -54 44 -16 0 -24 7 -29 25 -3 14 -10 25 -14 25 -5 0 -11 14 -15 30 -4 17 -10 30 -15 30 -5 0 -11 14 -15 30 -4 17 -10 30 -15 30 -5 0 -11 14 -15 30 -4 17 -10 30 -15 30 -5 0 -11 14 -15 30 -4 17 -10 30 -15 30 -4 0 -11 12 -15 27 -3 15 -12 31 -18 35 -18 11 -47 459 -32 515 l5 23 503 -2 502 -3 3 -441 2 -441 -67 -6 c-38 -4 -137 -7 -221 -7 -145 0 -154 -1 -159 -20 -5 -17 -14 -20 -69 -20 -50 0 -64 -3 -64 -15 0 -13 24 -15 159 -15 102 0 162 4 166 11 4 6 40 10 88 9 45 -1 135 -1 200 -1 l118 1 -3 28 c-3 24 -7 27 -46 30 l-42 3 2 442 3 442 495 0 495 0 3 -441 2 -441 -187 -6 c-104 -4 -241 -7 -305 -7 -111 0 -118 -1 -118 -20 0 -18 -7 -20 -65 -20 -51 0 -65 -3 -65 -15 0 -13 24 -15 154 -15 93 0 157 4 161 10 10 16 751 12 795 -4 20 -7 86 -42 147 -79 61 -37 113 -67 116 -67 3 0 8 13 12 30 4 16 11 32 16 35 5 4 9 22 9 40 0 51 22 58 164 53 l121 -4 115 -71 c64 -38 122 -72 130 -75 17 -6 49 61 49 104 1 39 26 48 135 48 l96 0 -2 508 -3 507 -111 2 c-99 1 -116 4 -150 26 -22 13 -70 41 -109 62 -38 20 -73 42 -76 47 -8 12 -29 -22 -29 -46 0 -25 -24 -24 -37 2 -7 13 -13 30 -13 38 0 9 -24 -1 -67 -28 -226 -138 -237 -139 -421 -33 -72 41 -133 75 -135 75 -3 0 -8 -13 -12 -30z m107 -43 c40 -24 95 -56 121 -71 38 -22 47 -31 42 -46 -5 -15 0 -21 20 -26 l25 -6 -2 -187 -3 -186 -277 -3 -278 -2 0 196 0 196 113 -3 112 -4 7 70 c8 75 21 115 37 115 6 0 43 -20 83 -43z m532 11 c8 -18 16 -51 18 -72 5 -61 28 -59 28 3 0 54 14 101 29 101 6 0 55 -27 109 -60 55 -33 104 -60 110 -60 17 0 22 -28 22 -116 l0 -84 76 0 75 0 -3 -27 -3 -28 -357 -3 -358 -2 0 124 0 123 84 51 c47 28 94 53 105 57 12 3 21 11 21 16 0 22 30 6 44 -23z m506 -593 l0 -496 -87 3 c-70 2 -88 6 -88 18 0 12 15 15 73 15 l72 0 0 333 0 332 -325 0 -325 0 2 -332 3 -333 53 3 c32 3 58 -1 68 -9 26 -21 -3 -29 -109 -29 -88 0 -98 2 -95 17 2 10 11 18 21 18 17 0 18 16 18 233 l0 233 -343 0 -343 -1 0 -231 0 -231 140 -1 c117 -2 140 -4 140 -17 0 -13 -24 -15 -155 -15 l-155 0 -5 29 c-3 16 -4 236 -2 488 l2 458 120 0 c100 0 120 -3 120 -15 0 -12 -18 -15 -105 -15 l-105 0 2 -207 3 -208 275 -3 c151 -1 285 0 298 3 22 5 22 6 22 204 0 164 -3 201 -15 211 -23 19 -18 30 15 30 l30 0 0 -125 0 -125 375 0 375 0 0 45 0 44 -72 3 -73 3 -3 69 c-2 38 -1 75 2 83 4 9 28 13 91 13 l85 0 0 -495z m-1462 473 c-4 -10 -116 -14 -506 -16 l-502 -2 -1 -445 c-1 -245 -2 -451 -3 -457 -1 -9 11 -12 37 -10 32 3 37 1 37 -17 0 -20 -6 -21 -82 -21 -92 0 -119 9 -94 29 8 7 23 10 33 7 43 -13 43 -12 41 460 l-3 449 -532 3 c-465 2 -533 4 -533 17 0 13 127 15 1056 15 840 0 1055 -3 1052 -12z m942 -330 c1 -160 5 -186 30 -207 35 -29 64 -26 95 10 22 27 26 41 26 98 1 36 1 83 2 104 l1 37 163 0 163 0 0 -315 0 -315 -90 0 -90 0 0 -63 c0 -54 -20 -127 -35 -127 -2 0 -60 32 -129 71 -105 60 -126 75 -126 95 0 22 -4 23 -77 26 -43 2 -77 6 -75 11 1 4 2 144 2 312 l0 305 70 0 70 0 0 -42z m-3020 -120 c0 -72 1 -75 100 -273 97 -191 114 -220 132 -209 4 3 8 -4 8 -15 0 -22 -24 -28 -47 -13 -6 4 -59 102 -117 217 l-106 210 0 78 c0 62 3 77 15 77 12 0 15 -15 15 -72z m3145 -6 c0 -70 -11 -84 -60 -80 -27 3 -31 8 -42 51 -9 36 -9 55 -1 73 10 22 17 25 57 22 l46 -3 0 -63z m-837 -134 c4 -104 6 -114 28 -135 32 -29 56 -29 90 1 25 21 28 30 30 97 1 41 2 91 3 112 l1 37 175 0 175 0 0 -220 0 -220 -35 0 c-34 0 -35 -1 -35 -40 0 -50 -19 -138 -31 -146 -6 -3 -20 1 -32 9 -12 8 -53 31 -92 52 -96 52 -135 82 -135 106 0 18 -8 19 -150 19 l-150 0 0 220 0 220 78 0 77 0 3 -112z">
        </path>
        <path
            d="M4023,7253 l-643,-3 l-2,-213 l-3,-212 l-522,-3 l-523,-2 l-2,-118 c-2,-123 -1,-163 4,-167 c2,-2 26,-6 53,-9 c100,-14 167,-40 221,-89 c42,-37 91,-130 99,-189 l7,-48 l-191,0 l-191,0 l0,-60 l0,-60 l188,-2 l187,-3 l-3,-44 c-4,-66 -38,-135 -92,-185 c-65,-61 -121,-86 -207,-93 c-62,-5 -73,-9 -73,-24 c-1,-25 -1,-1712 0,-1743 c0,-22 4,-24 78,-29 c89,-6 146,-31 204,-89 c48,-48 87,-125 90,-180 l3,-43 l-187,-3 l-188,-2 l0,-65 l0,-65 l191,0 l190,0 l-7,-47 c-13,-90 -70,-175 -153,-227 c-38,-24 -126,-46 -187,-46 c-39,0 -40,-4 -36,-167 l3,-123 l522,-2 l522,-3 l3,-212 l2,-213 l198,-2 c108,-2 852,-1 1652,2 l1455,5 l3,579 l2,578 l-22,47 c-13,25 -26,48 -30,49 c-5,2 -8,12 -8,22 c0,29 -14,31 -56,11 c-22,-10 -64,-23 -94,-30 c-48,-11 -63,-11 -115,4 c-33,10 -80,31 -106,47 c-42,28 -89,83 -89,104 c0,5 63,40 140,77 c76,38 146,74 155,81 c14,10 7,29 -64,171 c-45,88 -81,165 -81,172 c0,21 -24,20 -70,-1 c-25,-12 -47,-24 -50,-28 c-3,-3 -18,-10 -33,-13 c-15,-4 -27,-11 -27,-15 c0,-4 -12,-11 -27,-15 c-15,-3 -30,-10 -33,-13 c-10,-13 -72,-42 -90,-42 c-15,0 -20,10 -26,46 c-10,66 1,173 21,214 c20,40 108,130 127,130 c7,0 24,9 36,18 l24,18 l-33,60 c-56,102 -59,109 -59,122 c0,6 -4,12 -9,12 c-5,0 -12,14 -16,30 c-4,17 -11,30 -16,30 c-5,0 -9,5 -9,11 c0,7 -83,179 -185,384 c-102,204 -185,377 -185,383 c0,25 -34,14 -177,-58 c-97,-49 -157,-74 -165,-69 c-9,6 -13,38 -13,116 c0,107 0,108 36,163 c42,64 59,80 117,110 c23,12 44,26 47,30 c6,9 -20,64 -50,105 c-23,31 -295,578 -295,592 c0,4 -59,128 -132,275 c-152,304 -127,280 -283,275 c-44,-1 -369,-3 -722,-4 m830,-19 l37,-7 l129,-258 c91,-182 125,-259 116,-263 c-8,-3 -18,1 -23,7 c-5,7 -61,119 -126,250 c-64,130 -121,237 -126,237 c-5,0 -10,-28 -12,-62 l-3,-63 l-87,-3 l-88,-3 l0,66 l0,65 l-445,0 c-388,0 -445,2 -445,15 c0,13 59,15 448,18 c246,1 479,3 517,4 c39,2 87,0 108,-3 m-203,-114 l0,-70 l105,0 l105,0 l0,60 c0,33 4,60 10,60 c6,0 10,-5 10,-11 c0,-6 50,-113 111,-238 c61,-124 115,-236 121,-248 c6,-12 14,-20 18,-18 c4,3 7,-3 6,-13 c0,-9 4,-16 11,-15 c7,2 10,-3 7,-10 c-3,-8 18,-58 46,-113 c27,-54 50,-105 50,-111 c0,-7 4,-13 9,-13 c5,0 12,-14 16,-31 c5,-21 11,-29 21,-25 c8,3 12,2 9,-4 c-9,-15 6,-62 19,-57 c6,3 11,-8 12,-25 c1,-17 6,-33 12,-37 c6,-3 14,-19 17,-34 c4,-15 11,-27 16,-27 c5,0 9,-6 9,-12 c0,-7 13,-41 29,-75 l30,-62 l-40,-30 c-79,-58 -129,-155 -129,-251 c0,-58 26,-140 44,-140 c6,0 68,29 138,64 l128,65 l20,-30 c12,-16 19,-33 15,-38 c-3,-5 -190,-101 -415,-213 l-410,-203 l0,-122 l0,-122 l-72,-3 l-73,-3 l-3,-102 l-3,-103 l76,0 l75,0 l0,-294 c0,-259 -2,-295 -16,-300 c-9,-3 -314,-6 -679,-6 l-663,0 l-4,1503 c-2,826 -2,1508 0,1515 c3,9 134,12 608,12 l604,0 l0,-70 m-1230,-1636 l0,-1334 l698,2 l697,3 l0,305 l0,305 l-72,3 l-73,3 l0,89 l0,89 l73,3 l72,3 l3,127 l3,127 l414,206 l415,206 l-15,36 c-18,43 -18,43 0,43 c14,0 165,-292 165,-319 c0,-34 -30,5 -79,102 c-30,59 -57,107 -60,107 c-3,0 -188,-92 -411,-203 l-405,-202 l2,-515 l3,-515 l752,-3 c414,-1 758,0 765,2 c7,3 -3,33 -31,88 c-55,107 -62,128 -42,128 c18,0 161,-284 151,-300 c-11,-18 -23,-11 -34,20 l-10,30 l-1490,0 l-1491,0 l-2,-610 c-2,-396 -7,-611 -13,-613 c-10,-2 -20,3894 -10,3921 c22,59 25,-84 25,-1334 m-240,1296 c0,-7 -142,-10 -405,-10 l-405,0 l-1,-87 c-1,-101 -17,-88 -18,14 c-1,102 -44,93 420,93 c266,0 409,-3 409,-10 m-8,-35 c-1,-6 -38,-10 -84,-10 c-72,0 -82,-2 -89,-20 c-11,-29 -11,-99 1,-130 c9,-24 13,-25 59,-19 c28,3 66,3 85,0 l36,-7 l0,-54 l0,-55 l-85,0 c-83,0 -86,-1 -95,-26 c-13,-32 -13,-95 -1,-127 c10,-24 11,-25 95,-20 l85,6 l3,-44 l3,-43 l91,3 c76,2 92,0 97,-13 c6,-14 -41,-16 -491,-14 c-297,1 -429,4 -327,8 l170,5 l-3,50 c-2,28 -7,55 -12,60 c-4,6 -10,22 -14,37 c-3,15 -31,54 -62,87 c-59,64 -128,104 -201,116 l-43,7 l0,104 l0,104 l323,3 c444,4 462,3 459,-8 m206,-266 l-3,-264 l-87,-3 l-88,-3 l0,270 l0,270 l83,3 c45,2 85,0 90,-3 c4,-3 6,-124 5,-270 m-203,171 l0,-65 l-65,0 l-65,0 l-3,54 c-5,80 -2,82 70,79 l63,-3 l0,-65 m0,-290 l0,-65 l-59,-3 c-41,-2 -62,1 -67,10 c-11,16 -12,112 -2,122 c4,4 34,6 68,4 l60,-3 l0,-65 m203,-222 c-4,-10 -114,-14 -499,-16 c-272,-1 -504,0 -517,3 c-13,3 -20,10 -17,15 c4,6 199,10 521,10 c408,0 515,-3 512,-12 m-3,-638 l0,-605 l-492,-3 l-493,-2 l0,419 l0,420 l38,10 c20,6 41,11 45,11 c4,0 29,10 55,21 c94,42 182,164 195,272 l7,47 l-170,0 c-108,0 -170,4 -170,10 c0,7 166,9 493,8 l492,-3 l0,-605 m2352,-60 c35,-68 68,-127 72,-130 c5,-3 13,-18 16,-33 c4,-15 11,-27 16,-27 c5,0 9,-6 9,-12 c0,-7 16,-44 35,-81 c19,-38 35,-74 35,-82 c0,-7 4,-15 8,-17 c11,-4 152,-291 157,-319 c2,-12 11,-32 20,-45 c13,-21 13,-25 0,-36 c-49,-42 -93,-86 -108,-110 c-48,-76 -60,-184 -30,-269 c16,-44 33,-65 33,-40 c0,5 14,12 30,16 c17,4 30,10 30,15 c0,5 14,11 30,15 c17,4 30,10 30,15 c0,5 14,11 30,15 c17,4 30,10 30,15 c0,4 12,11 27,15 c15,3 31,12 35,18 c11,19 32,-7 78,-98 c27,-54 39,-90 33,-96 c-5,-5 -293,-8 -744,-7 l-734,3 l-3,506 l-2,505 l387,196 c214,108 394,195 402,194 c8,0 43,-57 78,-126 m-2354,-574 c3,-8 3,-17 -1,-20 c-10,-11 -1021,-6 -1027,4 c-3,6 -4,14 0,19 c3,6 205,10 514,11 c432,0 510,-2 514,-14 m1,-52 c8,-20 8,-1178 0,-1198 c-5,-14 -58,-16 -495,-16 c-311,0 -489,4 -489,10 c0,6 67,11 168,12 l167,3 l-3,40 c-6,80 -53,176 -104,213 c-9,7 -23,18 -30,25 c-34,32 -140,77 -182,77 c-14,0 -16,46 -16,418 c0,230 3,422 7,425 c3,4 223,7 489,7 c430,0 483,-2 488,-16 m3032,-743 c7,-13 10,-29 8,-35 c-3,-6 -63,-40 -135,-74 c-74,-37 -129,-70 -129,-78 c0,-8 5,-14 10,-14 c6,0 10,-6 10,-14 c0,-21 83,-93 137,-118 c57,-27 183,-32 226,-9 c30,16 48,4 62,-39 c4,-14 13,-28 19,-32 c8,-5 12,-170 14,-571 l2,-564 l-872,4 c-480,3 -879,6 -885,8 c-9,3 -13,26 -13,70 l0,65 l-125,0 l-124,0 l-3,-67 l-3,-68 l-580,-7 c-319,-4 -582,-4 -585,-2 c-6,6 -6,81 -3,949 l3,630 l1477,-5 l1477,-5 l12,-24 m245,-391 l28,-55 l-2,-369 c-2,-285 -5,-370 -14,-374 c-10,-3 -13,75 -13,367 l0,371 l-24,38 c-12,20 -26,48 -31,60 c-6,20 -4,23 11,20 c10,-1 30,-28 45,-58 m-3281,-105 c0,-13 -60,-15 -507,-13 c-394,2 -507,6 -511,16 c-3,9 103,12 507,12 c449,0 511,-2 511,-15 m0,-40 c0,-6 -36,-11 -83,-12 c-45,-1 -88,-2 -94,-2 c-8,-1 -13,-15 -13,-36 l0,-35 l-85,0 c-83,0 -86,-1 -95,-26 c-13,-32 -13,-95 -1,-127 c10,-24 11,-25 95,-20 l86,6 l0,-62 l0,-62 l-85,2 c-46,2 -88,-1 -92,-5 c-10,-10 -11,-152 -1,-162 c4,-3 46,-6 93,-5 c71,2 85,-1 85,-13 c0,-14 -45,-16 -395,-16 l-396,0 l3,108 l3,107 l41,5 c58,8 149,57 193,105 c48,52 88,137 93,195 l3,45 l-170,5 l-170,5 l170,5 c297,9 815,6 815,-5 m5,-47 c3,-13 4,-135 3,-273 l-3,-250 l-87,-3 l-88,-3 l0,276 l0,275 l85,0 c79,0 85,-1 90,-22 m-197,-122 c4,-70 -2,-76 -74,-76 c-38,0 -53,4 -58,16 c-8,22 -8,109 1,118 c4,4 34,6 68,4 l60,-3 l3,-59 m-14,-222 c20,-8 23,-113 4,-132 c-7,-7 -35,-12 -64,-12 c-59,0 -64,6 -64,75 c0,68 6,75 60,75 c27,0 55,-3 64,-6 m-386,-202 c262,-1 401,-6 397,-12 c-4,-6 -153,-10 -405,-10 c-460,0 -420,-10 -420,108 c0,99 14,99 20,0 l5,-83 l403,-3 m2067,-354 l0,-68 l714,-2 c561,-2 715,-6 719,-15 c3,-10 -251,-13 -1248,-13 c-997,0 -1251,3 -1248,13 c4,9 99,13 421,15 l417,2 l0,63 c0,35 3,67 7,71 c4,3 54,5 112,4 l106,-3 l0,-67 ">
        </path>
        <path
            d="M4062 6323 l3 -198 195 0 195 0 0 195 0 195 -198 3 -197 2 2 -197z m376 -1 l2 -182 -182 2 -183 3 -3 169 c-2 117 1 173 9 182 10 12 46 14 183 12 l171 -3 3 -183z">
        </path>
        <path
            d="M4879 6338 l-135 -69 67 -130 c36 -72 69 -132 71 -134 4 -4 246 112 276 133 10 7 -2 39 -54 140 -36 73 -72 131 -78 131 -6 -1 -72 -33 -147 -71z m182 -86 c30 -59 56 -110 57 -114 2 -5 -3 -8 -11 -8 -9 0 -17 -3 -19 -8 -4 -9 -185 -102 -199 -102 -14 0 -11 30 4 30 6 0 48 18 92 40 44 22 85 40 92 40 7 0 13 5 13 10 0 6 -10 10 -22 10 -19 1 -30 16 -61 81 -28 57 -36 84 -28 93 6 6 7 23 4 37 -13 51 24 -1 78 -109z m-74 -10 c15 -31 30 -59 34 -62 11 -9 17 -37 11 -46 -7 -9 -154 -84 -165 -84 -3 0 -8 14 -12 30 -4 17 -10 30 -15 30 -4 0 -11 12 -15 27 -3 15 -11 30 -16 34 -5 3 -11 18 -12 34 -2 26 5 31 73 66 41 21 78 35 82 33 4 -3 20 -31 35 -62z">
        </path>
        <path
            d="M3770 6218 c-19 -12 -37 -25 -40 -28 -3 -4 -44 -30 -92 -59 -49 -29 -88 -54 -88 -56 0 -3 17 -31 38 -62 20 -32 39 -62 42 -68 3 -5 22 -36 43 -67 l37 -57 58 35 c31 19 66 40 77 47 10 7 24 17 31 22 6 6 32 22 58 37 25 15 46 31 45 35 -1 20 -146 238 -159 240 -8 2 -31 -7 -50 -19z m128 -111 c23 -38 42 -72 42 -76 0 -4 -16 -16 -35 -27 -19 -10 -35 -22 -35 -26 0 -5 -5 -8 -11 -8 -6 0 -22 -9 -36 -20 -14 -11 -29 -20 -34 -20 -8 0 -114 170 -108 173 2 1 13 7 24 14 11 7 44 26 73 44 29 17 51 33 49 36 -5 4 -154 -82 -177 -103 -12 -12 -12 -14 6 -14 12 0 26 -10 33 -22 6 -13 20 -36 31 -53 11 -16 23 -38 26 -47 4 -10 10 -18 15 -18 5 0 9 -7 9 -15 0 -8 -5 -15 -11 -15 -5 0 -9 -8 -8 -17 1 -10 1 -22 0 -27 -1 -8 -38 40 -68 90 -79 128 -82 134 -70 145 7 6 55 37 107 69 l95 58 20 -26 c11 -15 39 -57 63 -95z">
        </path>
        <path
            d="M4583 6186 c-57 -29 -105 -55 -108 -58 -7 -7 122 -268 133 -268 4 0 32 14 62 30 30 16 76 40 103 52 26 13 47 27 47 33 0 12 -118 247 -128 256 -4 3 -53 -17 -109 -45z m165 -85 c28 -60 52 -113 52 -119 0 -5 -17 -19 -37 -30 -21 -11 -60 -31 -88 -46 -27 -15 -55 -24 -62 -22 -21 9 -126 227 -114 239 19 19 156 85 176 86 16 0 31 -23 73 -108z">
        </path>
        <path
            d="M4006 5715 c-8 -8 -19 -15 -25 -15 -5 0 -16 -6 -23 -13 -7 -7 -43 -31 -79 -53 l-66 -39 38 -60 c21 -33 57 -90 80 -127 23 -38 44 -68 46 -68 3 0 36 20 73 45 37 25 71 45 75 45 3 0 13 6 21 14 7 8 19 16 25 18 9 3 8 11 -2 31 -23 43 -141 237 -144 237 -2 0 -10 -7 -19 -15z m47 -52 c49 -73 107 -173 107 -186 -1 -16 -180 -121 -189 -111 -15 17 -131 215 -131 224 0 10 159 109 176 110 6 0 23 -17 37 -37z">
        </path>
        <path
            d="M3720 5535 c-19 -14 -40 -25 -47 -25 -7 0 -13 -3 -13 -7 0 -5 -39 -30 -86 -58 -67 -39 -81 -51 -64 -55 28 -7 152 -198 147 -227 -3 -16 0 -20 11 -15 17 6 110 65 129 82 7 5 14 10 17 10 4 0 80 48 104 66 2 1 -14 29 -35 61 -21 32 -40 63 -43 68 -10 20 -80 125 -83 125 -2 0 -18 -11 -37 -25z m44 -8 c-2 -7 -41 -35 -87 -62 -90 -53 -127 -83 -90 -71 17 6 27 -4 63 -66 50 -86 48 -83 56 -76 3 4 -15 38 -40 76 -52 78 -54 88 -26 97 11 3 20 11 20 16 0 5 6 9 14 9 8 0 21 6 28 13 7 7 26 20 41 30 33 22 31 23 99 -87 35 -56 36 -61 20 -76 -26 -24 -121 -80 -135 -80 -22 0 -45 -35 -35 -54 6 -11 5 -16 -5 -16 -13 0 -147 208 -147 228 0 6 8 12 18 16 9 3 55 30 102 60 86 55 113 66 104 43z">
        </path>
        <path
            d="M4421 5366 c-12 -18 -21 -38 -21 -44 0 -6 -3 -12 -7 -14 -5 -1 -19 -24 -33 -50 -13 -27 -28 -48 -31 -48 -4 0 -10 -8 -13 -17 -3 -10 -13 -29 -21 -42 -12 -22 -12 -26 7 -43 12 -10 27 -18 35 -18 7 0 13 -4 13 -10 0 -5 11 -12 25 -16 14 -3 25 -10 25 -14 0 -5 10 -12 23 -16 12 -4 24 -10 27 -13 8 -11 76 -51 86 -51 6 0 15 12 21 28 7 15 17 34 22 42 42 62 120 203 117 209 -6 8 -241 151 -249 151 -3 0 -15 -15 -26 -34z m29 -106 c0 -5 11 -12 25 -16 14 -3 25 -9 25 -13 0 -3 20 -17 45 -31 25 -14 45 -29 45 -34 0 -5 -13 -31 -30 -58 -16 -26 -30 -52 -30 -57 0 -4 -9 -16 -19 -25 -18 -16 -22 -15 -87 25 -99 60 -96 55 -74 92 10 18 28 50 40 72 21 38 37 55 53 55 4 0 7 -4 7 -10z">
        </path>
        <path
            d="M3890 4835 l0 -195 195 2 196 3 0 190 0 190 -196 3 -195 2 0 -195z m375 0 l0 -180 -182 -3 -183 -2 0 178 c0 98 3 182 7 186 4 3 86 5 182 4 l176 -3 0 -180z">
        </path>
        <path
            d="M2567 5728 c-41 -43 -46 -52 -35 -66 10 -12 10 -16 0 -19 -7 -3 5 -24 33 -56 25 -28 45 -55 45 -59 0 -5 11 -8 24 -8 34 0 38 -10 40 -103 2 -83 -11 -121 -38 -111 -18 7 -86 -73 -80 -94 5 -13 4 -14 -4 -3 -11 16 -27 -2 -17 -19 4 -6 2 -16 -3 -23 -15 -18 85 -122 103 -107 7 6 19 8 26 5 18 -7 119 83 119 105 0 25 24 33 110 35 59 1 79 -3 94 -16 10 -10 15 -22 12 -27 -7 -12 92 -97 113 -97 9 0 22 -4 28 -8 9 -5 30 10 64 43 41 41 48 54 39 65 -6 8 -9 19 -5 25 9 14 -85 122 -101 116 -26 -10 -40 27 -38 104 2 86 9 110 34 110 22 0 112 101 105 119 -3 7 -1 19 5 26 15 18 -86 120 -104 105 -8 -5 -20 -8 -27 -5 -21 8 -123 -89 -116 -109 4 -10 1 -16 -8 -16 -8 0 -15 -4 -15 -9 0 -4 -31 -6 -69 -3 -47 3 -71 1 -76 -7 -9 -16 -45 15 -45 40 0 22 -116 124 -123 107 -4 -10 -7 -11 -18 0 -18 16 -18 17 -72 -40z m168 -58 c24 -19 44 -39 45 -45 0 -13 -92 -105 -105 -105 -9 1 -77 80 -83 99 -4 11 78 93 89 89 5 -2 29 -19 54 -38z m404 -4 c24 -24 42 -48 40 -54 -6 -15 -78 -92 -87 -92 -4 0 -30 22 -57 50 l-49 50 44 45 c24 25 49 45 55 45 6 0 30 -20 54 -44z m-135 -89 c98 -75 108 -227 19 -307 -45 -41 -81 -55 -142 -54 -65 1 -124 32 -162 86 -21 28 -24 45 -24 115 0 75 2 84 30 119 48 59 88 76 171 72 59 -3 77 -8 108 -31z m-271 -315 c50 -52 56 -66 31 -76 -9 -3 -14 -12 -11 -19 6 -17 1 -25 -42 -60 -19 -16 -40 -26 -49 -22 -9 3 -19 0 -23 -7 -6 -9 -20 -1 -53 31 -38 38 -43 46 -33 62 7 11 17 19 24 19 7 0 13 8 13 17 0 15 76 103 90 103 3 0 26 -22 53 -48z m390 26 c8 -13 24 -34 36 -47 11 -13 21 -27 21 -30 0 -4 -20 -27 -45 -51 l-45 -44 -29 22 c-46 33 -48 26 -5 -13 37 -33 62 -46 49 -26 -7 13 78 98 93 93 16 -5 15 15 -1 25 -18 11 -57 63 -57 76 0 6 12 -4 28 -23 15 -19 34 -42 44 -51 12 -12 13 -20 5 -28 -8 -8 -8 -14 1 -23 18 -18 -66 -102 -85 -86 -10 8 -17 8 -24 1 -7 -7 -19 -3 -38 16 -16 14 -38 33 -49 41 -16 10 -18 16 -9 22 9 6 8 11 -5 19 -10 5 -18 15 -18 22 0 15 91 107 106 107 6 0 18 -10 27 -22z">
        </path>
        <path
            d="M2587 4933 c-4 -3 -7 -10 -7 -15 0 -4 135 -8 300 -8 260 0 300 2 300 15 0 13 -39 15 -293 15 -162 0 -297 -3 -300 -7z">
        </path>
        <path
            d="M5190 5150 c-25 -16 -48 -31 -51 -32 -3 -2 -9 -20 -13 -41 -6 -30 -4 -37 5 -31 7 4 10 3 6 -3 -4 -6 0 -24 8 -39 8 -16 15 -35 15 -41 0 -7 5 -13 10 -13 11 0 13 8 14 59 1 28 7 38 31 50 17 9 32 19 35 22 3 4 14 9 25 12 15 5 24 -1 38 -24 15 -27 19 -29 34 -18 15 13 15 12 2 -9 -12 -19 -12 -24 0 -31 22 -14 6 -37 -38 -57 -22 -11 -41 -22 -41 -26 0 -16 23 -18 45 -4 13 9 31 16 40 16 9 0 14 3 12 8 -3 4 23 7 58 7 35 0 61 -3 58 -7 -2 -5 4 -8 13 -8 29 0 102 -63 124 -108 18 -36 21 -56 18 -116 -3 -61 -8 -79 -31 -109 -28 -37 -29 -57 -2 -57 12 0 65 -96 65 -118 0 -13 -83 -62 -104 -62 -8 0 -20 8 -25 18 -9 15 -12 15 -21 2 -8 -12 -9 -9 -5 11 4 17 1 30 -9 38 -9 8 -16 22 -16 32 0 11 -7 19 -15 19 -16 0 -20 -16 -6 -24 4 -3 11 -24 15 -46 3 -22 10 -40 14 -40 4 0 18 -18 32 -40 13 -22 29 -39 35 -36 5 2 17 -2 25 -10 23 -20 125 45 133 86 8 38 -40 141 -54 119 -7 -9 -7 -5 -3 14 5 22 3 26 -9 21 -10 -3 -18 2 -22 16 -4 14 -12 19 -22 16 -8 -3 -13 -3 -11 2 33 76 58 112 58 82 0 -5 9 -10 19 -10 11 0 23 -4 26 -10 3 -5 39 -10 78 -10 64 0 75 3 96 26 21 22 25 35 24 87 -1 48 -4 63 -17 65 -9 2 -16 10 -16 18 0 10 -12 14 -37 14 -21 0 -55 4 -75 9 -28 7 -40 5 -49 -5 -6 -8 -19 -14 -28 -14 -9 0 -22 -5 -28 -11 -7 -7 -12 -2 -17 17 -4 16 -18 38 -32 50 -13 13 -20 25 -15 29 5 3 13 0 16 -6 5 -7 15 -3 29 10 12 12 26 18 31 14 4 -5 5 6 1 22 -4 20 -3 25 3 16 7 -11 14 -4 30 29 11 23 18 47 14 53 -4 6 -1 7 6 3 9 -6 11 1 5 31 -4 21 -7 38 -8 39 -92 58 -109 65 -125 51 -9 -8 -22 -12 -28 -10 -7 3 -16 -4 -20 -14 -3 -10 -9 -20 -12 -23 -22 -19 -55 -78 -53 -97 1 -12 -3 -25 -8 -28 -6 -4 -8 -11 -5 -16 4 -5 -13 -9 -37 -9 -36 0 -45 4 -55 26 -6 14 -9 32 -7 39 3 8 -10 35 -30 61 -20 26 -36 51 -36 55 0 5 -9 9 -19 9 -11 0 -23 5 -26 10 -9 14 -14 12 -65 -20z m370 -25 c-7 -9 -11 -17 -9 -19 2 -1 30 -18 62 -37 31 -18 57 -37 57 -42 0 -13 -51 -117 -57 -117 -13 0 -123 72 -123 81 0 11 29 57 47 77 7 7 13 19 13 25 -1 13 -35 -25 -43 -46 -2 -6 -8 -9 -12 -5 -4 4 -2 13 4 20 38 45 51 62 51 70 0 4 5 8 11 8 8 0 7 -5 -1 -15z m250 -390 c0 -75 -4 -79 -85 -80 l-50 0 -3 73 -3 72 71 0 70 0 0 -65z">
        </path>
        <path
            d="M5186 4954 c-9 -23 -7 -36 3 -29 5 3 16 -4 24 -15 10 -14 20 -18 33 -13 15 5 13 0 -8 -26 -16 -18 -28 -42 -28 -54 0 -16 -3 -18 -12 -9 -7 7 -19 12 -27 12 -8 0 -22 7 -31 15 -13 11 -24 13 -51 5 -18 -6 -51 -10 -71 -10 -27 0 -38 -4 -38 -15 0 -8 -9 -15 -20 -15 -18 0 -20 -7 -20 -59 0 -67 6 -91 25 -91 7 0 15 -7 19 -15 4 -11 23 -15 80 -15 41 0 78 5 81 10 3 6 15 10 26 10 10 0 19 5 19 10 0 6 5 10 10 10 6 0 10 -8 10 -18 0 -11 9 -29 19 -41 11 -13 22 -28 24 -34 2 -7 8 -8 13 -4 5 4 3 11 -3 15 -27 17 -56 96 -56 152 0 59 28 132 60 156 22 15 6 37 -22 30 -19 -5 -24 -1 -29 24 -6 33 -20 39 -30 14z m-8 -226 l-3 -73 -32 -3 c-17 -2 -50 2 -72 8 -41 11 -41 11 -41 60 0 77 3 80 82 80 l69 0 -3 -72z">
        </path>
        <path
            d="M5212 4550 c-7 -12 -18 -18 -24 -14 -7 5 -9 -2 -5 -22 3 -16 4 -23 1 -16 -7 16 -24 16 -24 -1 0 -7 -9 -29 -20 -49 -13 -25 -17 -47 -13 -71 4 -30 13 -39 63 -65 49 -27 60 -29 70 -17 6 7 18 11 26 8 8 -3 14 0 14 5 0 6 6 17 13 24 40 41 82 158 56 158 -5 0 -9 -9 -9 -20 0 -11 -3 -20 -7 -20 -11 0 -45 -62 -38 -69 3 -3 11 1 16 9 9 13 10 13 6 0 -6 -25 -65 -22 -113 6 -24 14 -44 32 -44 39 0 15 48 115 55 115 3 0 26 -13 52 -28 45 -27 54 -28 147 -26 54 1 101 6 105 12 3 5 16 12 29 16 12 4 22 11 22 16 0 20 -22 20 -53 2 -17 -11 -51 -23 -74 -27 -50 -8 -146 10 -164 31 -6 8 -20 12 -30 9 -9 -3 -20 -1 -24 5 -9 15 -19 12 -33 -10z">
        </path>
        <path d="M2583 4798 c-14 -24 25 -28 303 -28 260 0 295 2 292 15 -3 14 -42 16 -296 18 -162 1 -296 -1 -299 -5z">
        </path>
        <path
            d="M3140 4631 c0 -9 -8 -11 -22 -8 -28 7 -99 -50 -78 -63 10 -6 9 -9 -1 -12 -8 -3 -10 -9 -6 -14 4 -5 11 -4 15 1 27 38 40 37 86 -8 25 -24 46 -48 46 -53 0 -5 -20 -30 -43 -57 l-42 -47 -55 55 c-53 54 -53 55 -35 75 19 21 28 60 15 60 -13 0 -32 -29 -25 -39 3 -6 -4 -20 -15 -31 -16 -16 -25 -18 -40 -10 -26 14 -93 13 -108 -2 -14 -14 -52 16 -52 42 0 10 -17 30 -37 46 -21 15 -43 34 -48 42 -6 7 -27 15 -47 16 -32 3 -41 -2 -84 -45 -36 -36 -45 -52 -36 -58 7 -4 10 -14 7 -22 -3 -8 12 -33 35 -59 21 -25 40 -48 40 -52 0 -5 11 -8 24 -8 31 0 38 -19 38 -110 0 -85 -8 -114 -29 -105 -23 8 -114 -94 -108 -122 3 -12 0 -23 -8 -26 -7 -3 8 -25 40 -58 41 -42 55 -50 66 -41 8 7 17 8 23 2 9 -9 21 -1 97 66 15 13 27 30 27 38 0 7 8 20 18 29 15 14 24 15 55 5 29 -9 46 -9 72 1 30 11 36 10 55 -9 11 -11 19 -24 16 -28 -7 -11 3 -23 54 -63 25 -20 59 -39 76 -42 27 -5 36 0 71 36 34 35 41 48 39 80 0 21 -6 41 -11 45 -6 4 -25 26 -43 49 -18 23 -39 40 -46 37 -26 -10 -40 27 -41 108 -1 61 3 82 16 94 9 8 21 14 26 12 5 -2 25 15 44 37 18 22 40 45 48 51 9 7 11 18 7 29 -3 10 -2 23 4 29 7 9 -7 28 -45 66 -30 30 -55 48 -55 41z m-418 -76 c16 6 45 -11 35 -21 -3 -4 -13 -1 -22 6 -8 7 -15 8 -15 3 0 -5 14 -19 30 -31 17 -13 30 -26 30 -30 0 -5 -23 -32 -52 -62 l-52 -54 -43 49 c-24 27 -43 54 -43 59 0 6 19 29 42 53 33 33 45 40 59 33 10 -6 24 -8 31 -5z m269 -110 c67 -51 105 -132 94 -202 -7 -50 -37 -95 -88 -137 -35 -28 -45 -31 -110 -31 -64 0 -77 3 -114 30 -70 51 -98 124 -81 212 11 57 46 101 103 132 33 19 52 22 106 18 43 -3 75 -10 90 -22z m-261 -325 c53 -54 59 -67 34 -77 -8 -3 -13 -12 -9 -21 3 -9 -10 -29 -37 -53 -34 -30 -45 -35 -57 -26 -11 9 -15 9 -18 0 -7 -20 -20 -15 -58 22 -37 38 -42 54 -23 73 9 9 9 12 0 12 -7 0 -12 7 -12 15 0 12 3 12 18 -2 10 -10 37 -35 60 -56 24 -21 40 -42 37 -47 -14 -23 16 -8 51 25 20 19 32 35 27 35 -5 0 -18 -9 -28 -20 -10 -11 -24 -20 -30 -20 -14 0 -95 76 -95 89 0 9 78 101 86 101 3 0 27 -23 54 -50z m380 43 c0 -5 16 -26 35 -47 19 -22 35 -45 35 -51 0 -6 -13 -22 -28 -35 -15 -14 -32 -32 -36 -40 -5 -8 10 3 33 25 41 39 41 39 61 19 20 -20 20 -20 -24 -63 -36 -35 -48 -42 -59 -33 -10 9 -16 9 -25 0 -9 -9 -12 -9 -12 0 0 7 5 12 10 12 19 0 10 20 -12 30 -13 5 -34 17 -48 26 -22 14 -21 13 4 -10 15 -15 26 -30 23 -33 -4 -3 -20 8 -37 25 -20 20 -26 32 -17 36 8 3 7 8 -5 16 -26 16 -23 22 30 77 43 46 72 64 72 46z">
        </path>
        <path
            d="M3450 3370 c0 -461 0 -470 20 -470 18 0 20 8 22 156 l3 157 94 -2 c69 -2 96 1 102 11 5 7 9 149 9 316 l0 302 -125 0 -125 0 0 -470z m222 455 c10 -4 12 -62 10 -301 l-3 -295 -77 3 -77 3 -3 285 c-1 157 0 290 3 297 4 13 118 19 147 8z">
        </path>
        <path
            d="M4643 3816 c-42 -15 -48 -23 -34 -39 8 -11 8 -22 -3 -49 -9 -22 -11 -39 -5 -49 5 -7 9 -23 9 -34 0 -25 10 -26 155 -23 17 0 21 8 23 55 2 34 -2 60 -10 70 -10 13 -10 17 0 20 25 9 13 41 -18 47 -66 13 -86 14 -117 2z m88 -38 c7 -13 18 -29 26 -36 20 -21 16 -69 -9 -92 -27 -25 -60 -26 -99 -3 -38 23 -39 67 -4 106 14 15 23 27 20 27 -3 0 -3 5 0 10 12 19 54 11 66 -12z">
        </path>
        <path
            d="M4920 3820 c-8 -5 -25 -10 -37 -10 -25 0 -33 -35 -10 -43 9 -3 9 -9 -1 -28 -7 -13 -11 -45 -10 -70 3 -51 3 -50 91 -51 71 0 94 6 90 23 -3 9 0 20 6 23 15 10 13 47 -4 70 -13 17 -13 22 2 38 19 22 15 27 -35 45 -44 15 -72 16 -92 3z m89 -63 c27 -55 26 -81 -1 -107 -30 -28 -73 -26 -105 6 -20 20 -24 31 -19 57 3 17 10 33 15 37 4 3 13 15 20 28 8 15 21 22 40 22 24 0 33 -7 50 -43z">
        </path>
        <path
            d="M5180 3820 c-8 -5 -25 -10 -37 -10 -16 0 -23 -6 -23 -19 0 -11 4 -22 10 -26 6 -4 5 -15 -2 -30 -6 -13 -8 -42 -4 -68 7 -47 13 -49 94 -49 90 1 87 -1 90 59 2 30 -2 61 -8 68 -8 9 -8 15 0 20 5 3 10 15 10 26 0 14 -7 19 -24 19 -14 0 -28 5 -31 10 -8 13 -55 13 -75 0z m74 -37 c4 -10 15 -34 25 -53 15 -27 16 -38 7 -54 -29 -53 -91 -63 -125 -20 -26 34 -26 44 2 99 19 38 26 44 53 45 21 0 34 -6 38 -17z">
        </path>
        <path
            d="M5423 3816 c-42 -15 -48 -23 -34 -40 8 -10 9 -21 1 -41 -6 -16 -8 -47 -5 -69 7 -42 16 -48 85 -48 68 -1 96 6 97 24 6 61 4 90 -6 102 -8 10 -9 16 -1 21 5 3 10 15 10 26 0 14 -7 19 -24 19 -14 0 -28 5 -31 10 -8 13 -51 11 -92 -4z m88 -38 c7 -13 18 -29 26 -36 7 -7 13 -28 13 -47 0 -59 -72 -85 -124 -44 -34 27 -34 68 -1 99 14 13 25 29 25 37 0 22 48 15 61 -9z">
        </path>
        <path
            d="M5640 3811 l-35 -6 -1 -95 -1 -95 28 -2 c54 -5 84 -4 116 2 29 6 33 12 39 50 3 26 1 51 -6 65 -9 16 -9 25 -1 33 16 16 13 35 -6 41 -37 10 -99 14 -133 7z m86 -33 c1 -10 9 -25 18 -34 22 -21 21 -83 -1 -100 -41 -31 -133 -1 -133 43 0 16 21 55 35 65 6 4 11 13 11 20 1 7 2 17 3 21 2 17 64 2 67 -15z">
        </path>
        <path
            d="M4420 3801 c-14 -3 -40 -14 -58 -24 -25 -14 -32 -23 -26 -35 4 -9 9 -37 12 -62 2 -25 9 -48 14 -51 5 -3 11 -14 12 -25 2 -15 10 -18 47 -15 24 1 57 9 73 17 16 8 34 14 40 14 18 0 13 73 -7 103 -10 16 -15 36 -12 47 3 10 2 20 -2 23 -17 10 -69 15 -93 8z m40 -36 c0 -8 4 -15 10 -15 18 0 50 -44 50 -70 0 -38 -31 -62 -81 -64 -62 -1 -84 37 -57 101 6 15 12 30 12 33 6 30 66 44 66 15z">
        </path>
        <path
            d="M5843 3743 c3 -17 0 -34 -10 -45 -15 -17 -26 -121 -11 -112 4 3 16 -1 27 -8 15 -11 -94 -12 -633 -10 -733 4 -830 -1 -1091 -60 l-60 -13 -3 -161 -2 -161 77 -17 c43 -9 94 -21 113 -26 19 -5 110 -16 203 -25 328 -30 1385 -16 1537 21 14 3 61 12 105 19 44 8 96 18 115 22 l35 9 3 156 c2 149 2 158 -18 168 -19 10 -19 13 -5 33 8 12 15 40 15 64 0 23 5 45 10 48 42 26 -49 78 -128 73 -45 -3 -47 -4 -44 -30 1 -15 -5 -39 -14 -53 -9 -14 -14 -36 -12 -50 7 -35 -11 -56 -41 -48 -21 5 -22 10 -16 42 5 20 8 52 8 71 0 19 7 40 15 46 8 6 12 16 8 23 -16 25 -86 51 -137 51 -51 0 -51 0 -46 -27z m108 -3 c15 0 19 -5 15 -18 -4 -10 1 -27 9 -38 24 -32 19 -70 -14 -93 -35 -25 -46 -25 -86 -2 -23 13 -31 26 -33 53 -3 29 2 40 27 61 17 14 31 31 31 37 0 7 7 9 16 6 9 -3 25 -6 35 -6z m261 -105 c15 -45 16 -59 5 -76 -15 -24 -47 -33 -91 -25 -62 12 -66 85 -8 133 15 12 38 22 52 23 22 0 27 -8 42 -55z m-372 -88 c41 -1 87 2 103 7 18 5 27 5 27 -3 0 -6 -12 -12 -27 -12 -32 -2 2 -9 127 -28 41 -6 94 -16 118 -23 l42 -12 0 -147 0 -146 -67 -12 c-141 -26 -262 -42 -383 -51 -164 -12 -1194 -12 -1335 1 -158 13 -354 52 -367 73 -4 6 -8 70 -8 143 0 153 -6 145 113 169 234 47 352 53 1012 47 314 -2 604 -5 645 -6z">
        </path>
        <path
            d="M4133 3732 c-31 -16 -43 -45 -24 -56 5 -3 7 -23 4 -44 -4 -27 -1 -42 11 -51 9 -7 16 -21 16 -31 0 -15 7 -16 53 -12 28 3 54 8 57 13 3 4 17 10 31 14 22 5 26 12 27 46 1 23 -5 51 -15 66 -10 15 -16 37 -15 50 3 22 0 23 -55 22 -34 0 -72 -7 -90 -17z m125 -44 c17 -22 32 -48 32 -57 0 -53 -78 -88 -125 -57 -20 13 -25 25 -25 56 0 21 5 42 10 45 6 4 8 15 5 25 -4 14 0 20 17 23 46 9 53 5 86 -35z">
        </path>
        <path
            d="M6173 3121 c-29 -4 -58 -12 -65 -19 -6 -6 -21 -12 -32 -12 -16 0 -17 -3 -8 -12 7 -7 12 -29 12 -49 0 -21 7 -45 16 -54 13 -12 13 -19 4 -30 -20 -24 -2 -35 56 -35 41 0 64 6 95 26 35 22 39 27 27 41 -7 9 -13 36 -13 61 0 27 -6 47 -13 50 -7 2 -12 12 -12 23 0 10 -3 18 -7 18 -5 -1 -32 -5 -60 -8z m43 -31 c25 -10 26 -13 20 -63 -4 -28 -7 -60 -7 -69 0 -10 -4 -18 -8 -18 -5 0 -23 -3 -40 -6 -23 -5 -31 -3 -31 7 0 8 -14 27 -30 43 -34 33 -38 66 -12 88 32 29 65 34 108 18z">
        </path>
        <path
            d="M4140 3095 c0 -9 -7 -30 -16 -47 -12 -23 -13 -36 -6 -53 8 -17 7 -26 -5 -38 -13 -13 -14 -19 -4 -30 19 -23 97 -49 138 -45 35 3 38 5 38 34 1 18 6 38 12 45 6 8 13 34 15 59 l5 45 -54 18 c-29 10 -62 16 -72 12 -11 -3 -22 -1 -26 5 -9 15 -25 12 -25 -5z m124 -40 c14 -13 26 -34 26 -47 -1 -25 -32 -68 -49 -68 -6 0 -11 -7 -11 -16 0 -11 -8 -14 -32 -12 -27 2 -34 8 -36 28 -2 14 -8 29 -13 35 -5 5 -9 23 -9 41 0 60 75 84 124 39z">
        </path>
        <path
            d="M5896 3075 c-15 -8 -34 -15 -41 -15 -18 0 -13 -93 6 -116 8 -10 14 -29 14 -43 0 -25 2 -26 56 -24 36 1 68 9 92 23 40 24 44 32 23 49 -7 6 -13 29 -13 51 0 22 -6 46 -12 54 -7 8 -10 20 -6 26 10 16 -86 12 -119 -5z m106 -32 c20 -18 23 -44 8 -71 -5 -9 -14 -29 -20 -44 -13 -37 -39 -36 -84 5 -40 37 -48 78 -19 109 21 23 89 24 115 1z">
        </path>
        <path
            d="M4370 3049 c0 -10 -4 -21 -10 -24 -5 -3 -10 -26 -10 -49 0 -26 -6 -48 -15 -56 -20 -16 -12 -26 38 -50 55 -27 147 -28 147 -2 0 10 -5 23 -12 30 -8 8 -9 12 -1 12 19 0 44 60 33 80 -6 11 -5 21 2 28 9 9 8 12 -5 12 -10 0 -28 6 -40 14 -12 8 -46 16 -74 18 -46 4 -53 3 -53 -13z m97 -11 c60 -27 69 -71 23 -116 -16 -17 -30 -36 -30 -42 0 -7 -7 -9 -16 -6 -9 3 -25 6 -36 6 -14 0 -18 5 -14 16 3 9 -1 25 -9 37 -16 23 -20 65 -7 82 8 11 43 34 54 34 4 1 20 -5 35 -11z">
        </path>
        <path
            d="M4656 3050 c-16 -5 -34 -6 -39 -3 -5 3 -7 0 -5 -8 3 -8 -1 -27 -8 -44 -10 -24 -10 -35 2 -57 12 -22 12 -32 2 -48 -20 -32 2 -43 87 -43 80 0 103 10 90 40 -5 10 -7 23 -5 28 1 6 6 22 10 37 5 17 3 35 -5 52 -9 18 -10 26 -3 26 17 0 0 14 -20 15 -9 1 -30 4 -47 8 -16 3 -43 2 -59 -3z m96 -37 c24 -21 23 -64 -2 -96 -11 -14 -20 -30 -20 -36 0 -6 -16 -11 -37 -11 -20 0 -34 3 -30 6 3 4 -5 21 -18 39 -47 60 -23 115 48 115 24 0 48 -7 59 -17z">
        </path>
        <path
            d="M4922 3050 c-12 -5 -29 -7 -36 -4 -10 4 -15 -1 -15 -13 -1 -10 -4 -35 -7 -56 -4 -23 -2 -43 5 -51 9 -11 9 -19 -1 -35 -7 -11 -9 -23 -6 -26 14 -14 94 -26 133 -19 56 9 67 19 53 50 -9 18 -8 28 0 36 15 15 16 68 1 68 -5 0 -9 10 -7 22 2 15 -3 22 -17 23 -11 1 -33 5 -50 8 -16 3 -40 2 -53 -3z m90 -37 c24 -21 23 -69 -2 -100 -11 -14 -17 -29 -14 -34 3 -5 -12 -9 -33 -9 -35 1 -40 4 -60 45 -28 55 -29 69 -3 95 25 25 86 27 112 3z">
        </path>
        <path
            d="M5176 3050 c-16 -5 -33 -7 -37 -5 -12 8 -21 -89 -10 -116 6 -18 6 -30 -1 -37 -33 -33 62 -62 142 -44 l35 8 0 94 c0 88 -1 95 -20 96 -11 1 -33 4 -50 7 -16 3 -43 2 -59 -3z m104 -49 l20 -30 -20 -33 c-11 -18 -23 -41 -26 -50 -8 -22 -74 -26 -74 -4 0 7 -6 19 -14 25 -24 20 -30 69 -12 96 13 20 25 25 61 25 37 0 47 -4 65 -29z">
        </path>
        <path
            d="M5440 3050 c-19 -5 -38 -6 -43 -3 -5 3 -7 -1 -6 -8 2 -8 -1 -28 -5 -45 -4 -17 -2 -43 4 -58 7 -21 7 -32 -1 -42 -6 -8 -9 -20 -6 -28 7 -17 99 -29 147 -18 34 8 35 10 37 57 7 124 4 143 -21 142 -12 -1 -32 1 -46 5 -14 3 -41 2 -60 -2z m92 -37 c24 -21 23 -64 -2 -96 -11 -14 -20 -30 -20 -36 0 -6 -16 -11 -37 -11 -20 0 -34 3 -30 6 3 4 -5 21 -18 39 -47 60 -23 115 48 115 24 0 48 -7 59 -17z">
        </path>
        <path
            d="M5628 3053 c-26 -4 -26 -4 -25 -94 0 -75 3 -92 18 -100 24 -13 116 -11 142 2 30 16 30 15 17 39 -9 16 -9 25 0 35 8 10 10 31 5 64 -6 47 -8 49 -43 55 -39 6 -69 6 -114 -1z m101 -24 c27 -10 31 -15 31 -49 0 -54 -37 -109 -72 -110 -21 0 -28 5 -28 20 0 11 -4 20 -8 20 -4 0 -16 14 -26 31 -16 27 -17 34 -5 56 21 40 56 50 108 32z">
        </path>
        <path
            d="M6099 7053 c-55 -58 -57 -82 -9 -144 19 -24 35 -46 37 -49 2 -2 9 2 14 10 8 11 9 10 4 -7 -5 -18 -2 -23 12 -23 11 0 24 -5 31 -12 10 -10 26 2 77 52 55 55 63 67 50 76 -8 6 -15 20 -15 30 0 11 -19 35 -41 54 -23 19 -48 41 -56 49 -13 12 -16 12 -25 0 -7 -11 -11 -11 -15 -1 -8 19 -16 15 -64 -35z m82 1 c12 -15 7 -23 -40 -66 -29 -27 -51 -51 -48 -54 9 -9 112 108 109 125 -2 9 0 12 5 6 4 -6 25 -21 45 -35 20 -13 34 -28 32 -32 -5 -7 -14 -2 -49 30 -7 6 -17 12 -21 12 -4 0 17 -22 46 -48 l54 -49 -51 -51 c-27 -29 -54 -52 -58 -52 -4 0 -27 21 -51 48 -24 26 -44 44 -44 40 0 -4 7 -14 16 -23 9 -9 13 -19 9 -23 -4 -4 -10 -1 -12 6 -3 7 -14 22 -25 32 -11 10 -17 23 -14 29 4 6 2 20 -4 32 -10 18 -7 26 21 55 36 37 59 43 80 18z">
        </path>
        <path
            d="M6618 7093 c-1 -4 -25 -28 -53 -51 -33 -29 -49 -50 -47 -63 2 -10 -2 -19 -7 -19 -23 0 -9 -24 49 -82 54 -55 61 -59 75 -45 9 9 21 14 28 12 18 -6 109 105 97 120 -6 7 -5 16 2 23 10 10 1 24 -40 65 -42 41 -54 49 -62 38 -7 -12 -11 -12 -23 -2 -8 6 -17 8 -19 4z m53 -113 c31 -32 54 -48 62 -44 11 7 -3 -11 -45 -59 -9 -11 -21 -16 -26 -13 -5 3 -15 -1 -22 -9 -18 -22 -24 -20 -80 36 l-51 51 21 23 c15 16 18 25 10 30 -17 10 10 26 32 19 9 -2 19 0 23 6 11 19 27 10 76 -40z">
        </path>
        <path
            d="M7134 7044 c-55 -58 -53 -86 10 -160 26 -30 52 -51 58 -48 6 4 17 -1 23 -10 11 -15 20 -9 79 50 57 59 64 69 49 79 -9 7 -13 16 -10 22 10 17 -94 99 -133 105 -31 5 -39 1 -76 -38z m74 14 c10 -10 15 -10 21 1 7 11 13 9 31 -9 12 -12 19 -25 15 -28 -4 -4 -11 1 -16 11 -11 19 -29 23 -29 6 0 -6 -17 -29 -39 -50 -21 -22 -44 -39 -50 -39 -16 0 -13 -20 4 -26 8 -4 15 -12 15 -19 0 -6 9 -20 20 -30 11 -10 20 -15 20 -11 0 4 -9 19 -20 33 -27 35 -26 43 19 87 45 44 56 43 116 -10 l39 -35 -57 -57 c-54 -53 -59 -56 -72 -38 -7 10 -18 15 -24 12 -11 -7 -61 36 -61 52 0 6 -8 16 -17 21 -16 9 -16 12 -3 22 11 8 12 12 3 16 -21 8 -15 25 24 65 41 42 44 43 61 26z">
        </path>
        <path
            d="M7679 7081 c-34 -8 -131 -90 -122 -104 3 -5 -2 -16 -11 -23 -16 -11 -12 -19 49 -79 60 -61 68 -65 79 -49 7 9 18 14 24 10 6 -3 32 18 58 48 64 75 65 102 7 161 -25 25 -48 44 -52 44 -3 -1 -18 -4 -32 -8z m-6 -23 c3 -10 8 -10 21 1 15 13 22 10 58 -27 36 -36 40 -43 28 -57 -11 -14 -11 -18 -1 -25 11 -6 9 -12 -5 -27 -11 -11 -29 -32 -42 -47 -12 -15 -27 -24 -33 -20 -6 3 -17 -2 -24 -12 -13 -18 -18 -15 -72 38 l-57 57 39 35 c60 53 71 54 116 10 45 -44 46 -52 19 -87 -11 -14 -20 -29 -20 -33 0 -4 8 2 18 15 9 13 25 31 35 39 19 19 22 32 6 32 -6 0 -29 17 -50 39 -22 21 -39 44 -39 50 0 16 -13 14 -32 -6 -18 -20 -36 -35 -55 -46 -9 -6 -11 -3 -7 7 3 8 13 18 22 21 10 3 26 16 37 30 23 27 32 30 38 13z">
        </path>
        <path
            d="M315 7008 c-3 -7 -4 -238 -3 -513 l3 -500 609 -3 c481 -2 611 0 618 10 9 15 11 978 2 1002 -6 14 -69 16 -615 16 -479 0 -611 -3 -614 -12z m207 -100 l3 -93 30 -6 c17 -4 -27 -7 -97 -8 l-128 -1 0 100 0 100 95 0 94 0 3 -92z m396 -10 l3 -98 -133 1 c-73 1 -120 4 -104 8 l29 6 -2 93 -2 93 103 -3 103 -3 3 -97z m227 7 l0 -90 30 -6 c17 -4 -30 -7 -102 -8 l-133 -1 0 93 c0 52 3 97 7 101 4 4 50 5 103 4 l95 -3 0 -90z m385 -5 l0 -100 -132 2 c-73 0 -118 3 -100 5 l32 4 0 95 0 94 100 0 100 0 0 -100z m-838 5 c4 -38 5 -71 3 -73 -11 -11 -85 -20 -115 -13 l-35 7 -3 63 c-4 92 -4 92 75 89 l68 -3 7 -70z m614 64 c3 -6 9 -40 12 -75 5 -63 5 -63 -24 -69 -16 -4 -35 -9 -43 -11 -7 -2 -31 1 -52 6 l-39 11 0 62 c0 36 5 68 12 75 15 15 124 16 134 1z m-386 -301 c0 -62 -4 -119 -8 -126 -7 -9 -72 -12 -293 -10 l-284 3 -3 123 -3 122 296 0 295 0 0 -112z m608 -10 l-3 -123 -284 -3 c-221 -2 -286 1 -293 10 -4 7 -8 64 -8 126 l0 112 295 0 296 0 -3 -122z m-610 -310 l3 -118 -296 0 -295 0 0 120 0 120 293 -2 292 -3 3 -117z m612 2 l0 -120 -295 0 -295 0 0 113 c0 63 3 117 7 120 3 4 136 7 295 7 l288 0 0 -120z m-610 -229 c0 -49 -2 -95 -5 -103 -4 -10 -29 -12 -105 -10 l-100 3 0 95 0 95 -92 -3 -93 -3 -3 -92 -3 -92 -90 -3 c-50 -2 -93 -1 -95 1 -2 2 -4 49 -4 103 l0 98 295 0 295 0 0 -89z m610 -9 c0 -54 -2 -101 -4 -103 -2 -2 -48 -3 -101 -1 l-97 3 3 92 4 92 -97 3 -96 3 5 -95 6 -95 -101 -3 c-78 -2 -103 0 -107 10 -3 8 -5 54 -5 103 l0 89 295 0 295 0 0 -98z m-833 64 c1 -1 -1 -34 -4 -74 l-6 -73 -71 3 -71 3 -3 72 -3 72 33 3 c28 4 118 -1 125 -6z m604 4 c16 0 19 -8 19 -59 0 -89 -1 -91 -80 -91 -78 0 -80 2 -80 90 0 59 0 59 33 63 17 3 45 3 61 1 16 -2 37 -4 47 -4z">
        </path>
        <path
            d="M10262 7012 c-10 -7 -12 -116 -10 -513 l3 -504 615 0 615 0 3 504 c2 397 0 506 -10 513 -7 4 -281 8 -608 8 -327 0 -601 -4 -608 -8z m207 -104 l-2 -93 29 -6 c16 -4 -28 -7 -97 -8 -69 0 -128 1 -130 3 -2 2 -3 47 -1 100 l3 96 100 0 100 0 -2 -92z m391 -8 l0 -100 -137 2 c-76 0 -123 3 -105 5 l32 4 0 88 c0 48 3 91 7 94 3 4 51 7 105 7 l98 0 0 -100z m230 6 l0 -95 28 -4 c15 -2 -33 -5 -105 -6 l-133 -1 0 100 0 100 105 0 105 0 0 -94z m388 -8 l3 -98 -133 1 c-73 1 -121 4 -105 6 l27 4 0 95 0 95 103 -3 102 -3 3 -97z m-850 70 c7 -7 12 -39 12 -75 l0 -62 -39 -11 c-21 -5 -45 -8 -52 -6 -8 2 -26 7 -41 10 -27 6 -28 9 -28 69 0 36 5 68 12 75 7 7 37 12 68 12 31 0 61 -5 68 -12z m626 -10 c9 -36 7 -126 -4 -133 -11 -7 -97 -9 -125 -3 -17 4 -20 14 -23 67 -4 82 4 91 83 91 57 0 63 -2 69 -22z m-394 -303 l0 -125 -292 2 -293 3 -3 123 -3 122 296 0 295 0 0 -125z m608 3 l-3 -123 -290 0 -290 0 -3 123 -3 122 296 0 296 0 -3 -122z m-608 -308 l0 -120 -295 0 -295 0 0 120 0 120 295 0 295 0 0 -120z m610 0 l0 -120 -295 0 -295 0 0 120 0 120 295 0 295 0 0 -120z m-610 -242 l0 -103 -105 3 -105 3 0 95 0 95 -91 -3 -92 -3 2 -92 2 -93 -100 0 -101 0 0 100 0 100 295 0 295 0 0 -102z m618 5 l-3 -98 -104 -3 -103 -3 3 93 4 93 -92 3 -92 3 -3 -96 -3 -97 -100 0 -100 0 -3 101 -3 101 301 0 301 0 -3 -97z m-857 67 c17 0 19 -8 19 -63 0 -36 -5 -68 -12 -75 -7 -7 -39 -12 -74 -12 -72 0 -74 3 -74 90 0 59 0 59 33 63 17 3 45 3 61 1 16 -2 37 -4 47 -4z m620 0 c16 0 19 -8 19 -59 0 -88 -2 -91 -74 -91 -35 0 -67 5 -74 12 -7 7 -12 39 -12 74 l0 63 33 4 c17 3 45 3 61 1 16 -2 37 -4 47 -4z">
        </path>
        <path
            d="M6341 6897 c-25 -12 -59 -39 -75 -60 -28 -35 -31 -46 -30 -105 0 -41 5 -67 12 -70 7 -2 12 -9 12 -15 0 -16 40 -53 76 -72 33 -17 101 -20 136 -6 33 13 82 61 101 100 43 87 -5 193 -107 235 -50 21 -72 20 -125 -7z m162 -23 c50 -38 62 -65 62 -139 0 -60 -3 -74 -25 -98 -54 -62 -131 -82 -193 -51 -51 26 -75 53 -92 105 -16 46 -15 52 1 97 19 50 63 98 98 106 41 9 125 -2 149 -20z">
        </path>
        <path
            d="M7380 6892 c-116 -55 -141 -195 -52 -284 81 -82 205 -69 271 28 32 46 32 141 1 187 -38 55 -68 71 -140 74 -36 2 -72 -1 -80 -5z m154 -23 c50 -29 76 -79 75 -142 -1 -98 -61 -157 -158 -157 -100 0 -161 59 -161 156 0 64 22 108 68 139 49 32 126 34 176 4z">
        </path>
        <path
            d="M6185 6641 c-3 -6 -15 -11 -26 -11 -16 0 -19 -5 -14 -22 5 -17 4 -19 -4 -8 -8 12 -13 10 -31 -13 -12 -15 -29 -35 -38 -44 -9 -9 -17 -31 -18 -49 -1 -47 66 -113 113 -111 38 3 142 84 135 105 -2 7 4 19 13 26 16 11 11 18 -45 72 -68 65 -75 70 -85 55z m73 -54 c45 -46 52 -70 25 -87 -13 -8 -14 -13 -6 -16 15 -7 -28 -54 -67 -73 -15 -8 -7 3 20 28 25 22 40 41 34 41 -6 0 -19 -9 -29 -20 -10 -11 -22 -20 -26 -20 -6 0 -99 88 -99 94 0 1 16 20 35 42 19 21 35 42 35 47 0 21 41 2 78 -36z">
        </path>
        <path
            d="M6553 6593 c-53 -55 -63 -76 -42 -88 6 -4 8 -12 6 -19 -3 -7 9 -23 26 -37 17 -13 40 -33 51 -43 10 -10 35 -20 56 -22 32 -3 42 2 77 39 31 32 40 50 40 75 0 17 -4 32 -8 32 -10 0 -20 -30 -13 -42 4 -5 -13 -29 -36 -53 -42 -43 -43 -43 -63 -24 l-21 19 43 44 c28 29 49 42 59 38 11 -4 14 -1 9 12 -4 10 -3 15 3 11 19 -12 10 12 -12 31 -18 16 -21 17 -15 2 4 -12 2 -15 -9 -11 -16 6 -19 33 -4 33 5 0 2 9 -7 20 -10 11 -25 20 -35 20 -9 0 -20 5 -23 10 -12 19 -30 8 -82 -47z m98 10 c67 -75 66 -66 15 -117 -24 -25 -48 -46 -53 -46 -4 0 -30 21 -57 46 l-50 45 49 49 c27 28 54 50 60 50 6 0 22 -12 36 -27z">
        </path>
        <path
            d="M7226 6634 c-3 -9 -12 -14 -20 -11 -8 3 -26 -8 -41 -26 -16 -18 -37 -42 -47 -53 -11 -12 -21 -37 -23 -55 -4 -29 1 -40 37 -76 55 -56 88 -54 164 11 30 26 51 52 48 58 -4 6 1 17 10 23 15 12 10 20 -49 79 -36 36 -68 66 -69 66 -2 0 -7 -7 -10 -16z m74 -59 l54 -55 -40 -34 c-59 -53 -70 -54 -115 -10 -45 44 -47 52 -18 85 12 13 28 34 36 47 9 12 18 22 22 22 4 0 31 -25 61 -55z">
        </path>
        <path
            d="M7592 6583 c-57 -58 -61 -66 -46 -78 9 -6 14 -17 10 -23 -3 -6 18 -32 48 -58 76 -65 109 -67 164 -11 35 36 41 48 38 74 -5 39 -92 144 -112 136 -8 -3 -17 2 -20 11 -3 9 -9 16 -13 15 -3 -1 -34 -30 -69 -66z m91 25 c8 -13 24 -34 36 -47 29 -33 27 -41 -18 -85 -45 -44 -56 -43 -116 9 l-40 35 55 55 c30 30 57 55 61 55 4 0 13 -10 22 -22z">
        </path>
        <path
            d="M7960 5766 l0 -106 -205 0 -204 0 -3 -72 -3 -73 -110 -5 -110 -5 -3 -357 -2 -357 112 -3 113 -3 0 -77 c0 -42 3 -79 6 -82 2 -3 16 1 29 7 22 11 25 20 28 80 l3 67 422 -2 422 -3 3 -542 2 -543 -424 0 -425 0 -6 148 c-3 81 -8 221 -10 312 -2 91 -4 170 -5 177 0 6 -8 13 -17 15 -14 3 -17 12 -15 45 4 50 -5 83 -21 83 -16 0 -13 -306 4 -326 7 -8 10 -45 9 -96 -2 -46 -2 -161 -1 -255 l1 -173 249 0 250 0 3 -22 c3 -23 5 -23 181 -26 163 -2 178 -4 173 -20 -2 -9 -7 -34 -11 -56 -10 -60 -67 -140 -125 -177 -40 -25 -125 -49 -174 -49 l-46 0 2 -397 3 -398 690 -3 690 -2 1 836 c1 470 5 839 10 844 14 14 6 322 -8 318 -7 -3 -11 -27 -9 -65 2 -57 1 -62 -20 -65 -23 -3 -23 -4 -24 -183 -1 -99 -2 -244 -3 -322 l-2 -143 -430 0 -430 0 2 543 3 542 344 3 c223 1 348 -1 355 -8 5 -5 43 -10 83 -10 l73 0 0 -65 0 -65 30 0 30 0 0 166 c0 138 3 171 17 197 10 18 46 80 80 138 35 59 63 110 63 113 0 3 -6 6 -13 6 -19 0 -67 24 -67 33 0 7 14 13 68 32 13 5 -13 58 -99 201 l-49 82 0 136 0 136 -30 0 -30 0 0 -105 0 -105 -675 0 -674 0 -3 103 -3 102 -32 3 -33 3 0 -105z m50 -21 l0 -105 690 0 690 0 0 105 c0 87 3 105 15 105 13 0 15 -20 15 -120 l0 -120 -75 0 -75 0 0 -330 0 -330 75 0 75 0 0 -89 0 -89 -76 -1 c-42 -1 -82 3 -89 9 -9 7 -139 11 -379 13 l-366 2 0 -562 0 -563 440 0 439 0 3 142 c2 102 6 143 16 146 9 3 12 -40 12 -193 0 -153 -3 -196 -12 -193 -7 3 -14 19 -16 36 l-3 32 -645 0 c-637 0 -644 0 -644 -20 0 -26 -26 -26 -33 0 -5 19 -15 20 -254 22 l-248 3 0 153 c0 199 19 212 23 14 l3 -142 442 2 442 3 3 558 c2 442 0 557 -10 557 -7 1 -213 2 -458 3 l-445 2 -3 422 -2 423 207 2 208 3 2 95 c1 52 2 98 2 103 1 4 8 7 16 7 12 0 15 -18 15 -105z m1424 -161 c9 -8 16 -22 16 -30 0 -8 5 -14 10 -14 6 0 10 -5 10 -11 0 -6 23 -50 52 -98 28 -47 53 -89 55 -93 7 -13 -42 -31 -100 -37 -69 -7 -80 -25 -17 -29 42 -2 79 -14 107 -35 13 -9 3 -35 -24 -65 -7 -7 -13 -17 -13 -22 0 -5 -23 -47 -51 -94 l-52 -86 -68 0 -69 0 0 315 0 315 64 0 c45 0 69 -5 80 -16z m-1896 -146 l3 -48 -100 0 -101 0 0 44 c0 26 5 46 13 50 6 2 50 4 97 3 l85 -2 3 -47z m2 -118 l0 -50 -100 0 -100 0 0 50 0 50 100 0 100 0 0 -50z m0 -115 l0 -45 -100 0 -100 0 0 45 0 45 100 0 100 0 0 -45z m-7 -65 c4 0 7 -21 5 -47 l-3 -48 -97 -3 -98 -3 0 50 c0 27 4 51 10 53 8 2 129 1 183 -2z m2 -165 l0 -50 -95 0 -95 0 -3 39 c-6 66 -3 67 100 64 l93 -3 0 -50z m3 -112 l-3 -46 -90 1 c-49 1 -93 1 -97 2 -5 0 -8 20 -8 45 l0 45 101 0 100 0 -3 -47z m1840 -1719 l-3 -469 -72 -3 -72 -3 -3 -67 -3 -67 -552 -3 -552 -2 -6 162 c-8 226 -9 464 0 519 7 45 8 47 48 53 22 4 63 19 90 34 49 26 137 114 137 136 0 6 6 23 14 38 8 15 16 47 18 70 l3 43 -153 3 c-126 2 -152 5 -152 17 0 13 83 15 623 17 342 2 625 0 630 -3 4 -3 6 -216 5 -475z m-1276 -474 l3 -151 564 1 c311 0 567 2 569 5 3 2 5 33 6 67 l1 63 88 3 87 3 0 -86 0 -85 -676 2 -675 3 0 158 c0 86 1 159 1 162 0 3 7 5 15 5 12 0 15 -26 17 -150z">
        </path>
        <path
            d="M7580 5215 l0 -395 837 0 836 0 -6 113 c-4 61 -7 239 -7 395 l0 282 -830 0 -830 0 0 -395z m1650 5 c0 -209 -2 -380 -6 -380 -3 0 -58 25 -122 56 -64 31 -158 76 -208 100 -50 24 -96 44 -103 44 -6 0 -11 5 -11 10 0 6 -5 10 -11 10 -6 0 -45 16 -87 36 -131 62 -253 120 -353 168 -53 25 -101 46 -108 46 -6 0 -11 5 -11 10 0 6 -5 10 -11 10 -10 0 -51 19 -264 120 -221 106 -274 130 -284 130 -6 0 -11 5 -11 10 0 7 272 10 795 10 l795 0 0 -380z m-1502 314 c64 -31 153 -73 197 -94 44 -21 128 -61 186 -89 59 -28 112 -51 118 -51 6 0 11 -4 11 -10 0 -5 5 -10 11 -10 7 0 46 -16 88 -36 118 -56 247 -117 352 -168 53 -25 101 -46 108 -46 6 0 11 -4 11 -10 0 -5 5 -10 11 -10 12 0 80 -31 254 -116 50 -24 96 -44 103 -44 7 0 12 -5 12 -10 0 -7 -268 -9 -797 -8 l-798 3 -3 365 c-2 346 -1 390 13 390 3 0 59 -25 123 -56z">
        </path>
        <path
            d="M8658 3487 c-27 -11 -28 -13 -28 -94 l0 -84 93 3 92 3 3 83 c3 76 1 82 -17 82 -11 0 -23 5 -26 10 -8 13 -82 11 -117 -3z m117 -27 c25 -9 26 -13 23 -72 l-3 -63 -63 -3 c-81 -4 -92 5 -92 75 0 46 3 55 23 63 30 12 80 12 112 0z">
        </path>
        <path
            d="M8898 3487 c-27 -11 -28 -13 -28 -94 l0 -84 93 3 92 3 3 77 3 76 -32 16 c-36 18 -90 19 -131 3z m117 -27 c25 -9 26 -13 23 -72 l-3 -63 -75 0 -75 0 -3 63 c-3 57 -1 63 20 72 31 12 81 12 113 0z">
        </path>
        <path
            d="M8540 3075 l0 -165 308 2 307 3 3 163 2 162 -310 0 -310 0 0 -165z m598 143 c14 -14 17 -255 4 -276 -7 -9 -73 -12 -298 -10 l-289 3 -3 134 c-1 74 0 141 2 148 7 18 566 19 584 1z">
        </path>
        <path
            d="M8630 2792 l0 -89 31 -7 c46 -9 104 -7 134 4 25 10 26 11 23 92 l-3 83 -92 3 -93 3 0 -89z m165 -2 l0 -65 -69 -3 c-49 -2 -72 1 -77 10 -11 16 -12 112 -2 122 4 4 39 5 78 4 l70 -3 0 -65z">
        </path>
        <path
            d="M8870 2791 c0 -84 1 -89 23 -95 34 -9 113 -7 141 4 24 9 26 14 26 79 0 103 2 101 -101 101 l-89 0 0 -89z m165 -1 l0 -65 -75 0 -75 0 -3 54 c-5 81 -3 82 80 79 l73 -3 0 -65z">
        </path>
        <path
            d="M6572 5808 c-7 -7 -12 -44 -12 -95 l0 -83 110 0 110 0 0 95 0 95 -98 0 c-63 0 -102 -4 -110 -12z m193 -88 l0 -75 -90 0 -90 0 -3 64 c-4 94 -6 92 95 89 l88 -3 0 -75z">
        </path>
        <path
            d="M6548 5613 c-30 -3 -38 -9 -38 -24 0 -17 -8 -19 -95 -19 l-95 0 0 -110 0 -110 94 0 95 0 3 -47 3 -48 175 0 175 0 3 42 3 42 97 3 97 3 3 108 3 107 -101 0 c-98 0 -100 0 -100 24 0 22 -5 23 -77 30 -77 6 -178 6 -245 -1z m307 -178 l0 -160 -162 -3 -163 -2 0 165 0 165 163 -2 162 -3 0 -160z m-367 23 l-3 -93 -75 0 -75 0 -3 93 -3 92 81 0 81 0 -3 -92z m562 -3 l0 -95 -80 0 -80 0 0 89 c0 62 4 91 13 94 6 3 42 6 80 6 l67 1 0 -95z">
        </path>
        <path
            d="M312 4863 l3 -508 615 0 615 0 3 508 2 507 -620 0 -620 0 2 -507z m208 413 c0 -46 3 -91 6 -100 5 -14 -7 -16 -95 -16 l-101 0 0 100 0 100 95 0 95 0 0 -84z m395 -16 l0 -95 -102 -3 -103 -3 0 101 0 101 103 -3 102 -3 0 -95z m229 65 c0 -16 -1 -61 -2 -98 l-2 -68 -97 3 -98 3 -3 84 c-2 46 0 90 2 98 4 11 28 13 103 11 l98 -3 -1 -30z m386 -65 l0 -100 -100 0 -100 0 0 100 0 100 100 0 100 0 0 -100z m-864 74 c19 -5 22 -15 26 -67 3 -34 3 -68 0 -74 -3 -9 -28 -13 -78 -13 l-74 0 0 74 c0 63 3 75 18 79 26 7 84 7 108 1z m633 -3 c10 -6 15 -30 15 -78 l1 -68 -77 -3 -78 -3 0 70 c0 56 3 72 18 80 21 13 102 14 121 2z m-383 -206 c3 -11 4 -67 2 -125 l-3 -105 -292 -3 -293 -2 0 123 c0 68 2 126 4 128 2 2 133 4 291 4 278 0 286 -1 291 -20z m612 -108 l3 -127 -293 2 -293 3 -3 105 c-4 163 -40 145 295 144 l288 0 3 -127z m-608 -299 c0 -62 -4 -119 -9 -126 -6 -10 -68 -13 -284 -13 -152 0 -281 2 -287 6 -6 4 -10 55 -10 126 l0 119 295 0 295 0 0 -112z m610 -7 c0 -66 -4 -122 -10 -126 -5 -3 -109 -5 -232 -5 -123 1 -248 1 -278 1 -32 0 -57 5 -62 12 -4 6 -8 63 -8 125 l0 112 295 0 295 0 0 -119z m-1004 -157 c-3 -9 -6 -54 -6 -100 l0 -84 -95 0 -95 0 0 100 0 100 101 0 c88 0 100 -2 95 -16z m392 -86 l3 -98 -106 0 -105 0 0 100 0 101 103 -3 102 -3 3 -97z m230 2 l3 -100 -105 0 -106 0 0 93 c0 52 3 97 7 100 3 4 49 7 102 7 l96 0 3 -100z m382 0 l0 -100 -101 0 -100 0 3 100 3 100 98 0 97 0 0 -100z m-837 66 c11 -27 -5 -131 -21 -143 -20 -16 -73 -17 -107 -1 -23 10 -25 16 -25 78 0 37 3 70 7 73 3 4 37 7 74 7 48 0 68 -4 72 -14z m625 -62 l3 -72 -32 -11 c-41 -14 -72 -14 -104 1 -23 10 -25 16 -25 78 0 37 3 70 7 74 4 4 39 5 78 4 l70 -3 3 -71z">
        </path>
        <path
            d="M10252 4863 l3 -508 615 0 615 0 3 508 2 507 -620 0 -620 0 2 -507z m217 397 l-2 -101 -100 3 -99 3 1 93 c0 50 0 94 1 97 0 3 45 5 101 5 l100 0 -2 -100z m391 0 l0 -100 -105 0 -105 0 0 93 c0 52 3 97 7 100 3 4 51 7 105 7 l98 0 0 -100z m230 0 l0 -100 -105 0 -105 0 0 100 0 100 105 0 105 0 0 -100z m388 -2 l3 -98 -106 0 -105 0 0 100 0 101 103 -3 102 -3 3 -97z m-857 72 c16 -9 19 -22 19 -81 l0 -70 -77 3 -78 3 -3 61 c-4 77 10 94 74 94 25 0 54 -5 65 -10z m623 -6 c17 -17 22 -109 7 -132 -5 -9 -28 -12 -77 -10 l-69 3 -3 65 c-2 52 0 67 14 77 25 18 109 17 128 -3z m-384 -307 l0 -127 -292 2 -293 3 -3 119 c-1 67 1 122 7 125 5 3 138 6 295 6 l286 0 0 -128z m608 0 l3 -127 -296 0 -295 0 0 123 c0 68 2 126 4 128 2 2 134 4 293 3 l288 0 3 -127z m-608 -312 l0 -125 -132 -2 c-175 -2 -418 2 -440 8 -16 5 -18 20 -18 125 l0 119 295 0 295 0 0 -125z m608 3 l-3 -123 -25 -2 c-57 -6 -541 -4 -550 2 -6 4 -10 56 -10 126 l0 119 295 0 296 0 -3 -122z m-999 -238 l2 -100 -100 0 -100 0 -3 90 c-2 50 -1 95 0 100 2 6 47 10 102 10 l98 0 1 -100z m391 0 l0 -100 -105 0 -105 0 0 100 0 100 105 0 105 0 0 -100z m230 0 l0 -100 -105 0 -105 0 0 100 0 100 105 0 105 0 0 -100z m388 -2 l3 -98 -106 0 -106 0 3 100 3 101 100 -3 100 -3 3 -97z m-840 6 c3 -67 2 -71 -23 -82 -36 -17 -86 -15 -113 4 -18 12 -22 25 -22 69 0 85 2 86 84 83 l71 -3 3 -71z m620 0 c3 -67 2 -71 -23 -82 -36 -17 -86 -15 -113 4 -18 12 -22 25 -22 69 0 85 2 86 84 83 l71 -3 3 -71z">
        </path>
        <path
            d="M6564 5227 c-3 -8 -4 -52 -2 -98 l3 -84 108 -3 107 -3 0 101 0 100 -105 0 c-79 0 -107 -3 -111 -13z m206 -87 l0 -80 -95 0 -95 0 0 80 0 80 95 0 95 0 0 -80z">
        </path>
        <path
            d="M7728 4572 c-36 -37 -45 -54 -45 -80 0 -24 4 -31 14 -28 8 3 11 1 8 -5 -9 -13 64 -101 79 -96 6 3 19 -3 29 -11 17 -15 22 -12 79 46 58 57 61 62 46 79 -8 10 -14 23 -11 29 5 15 -104 107 -117 99 -6 -4 -17 -2 -24 4 -9 8 -24 -1 -58 -37z m170 -39 c19 -18 1 -16 -26 3 -42 29 -21 -1 24 -35 l45 -34 -57 -58 -57 -57 -36 43 c-20 24 -40 44 -45 44 -5 1 -2 -7 7 -17 10 -10 17 -24 17 -32 0 -7 -9 -1 -20 13 -12 15 -18 32 -14 44 10 26 86 103 103 103 11 0 10 5 -5 22 -17 20 -16 19 16 -3 19 -13 41 -30 48 -36z">
        </path>
        <path
            d="M8291 4611 c-8 -5 -20 -7 -27 -4 -19 7 -98 -68 -82 -79 8 -5 4 -7 -12 -6 -17 2 -25 -2 -25 -13 0 -9 -6 -24 -14 -32 -11 -14 -5 -24 49 -77 66 -63 77 -69 86 -46 3 8 12 12 19 10 18 -7 99 89 107 128 6 30 2 38 -40 80 -34 34 -51 45 -61 39z m55 -62 c30 -31 35 -41 25 -52 -6 -8 -10 -21 -8 -28 2 -8 2 -11 0 -6 -3 4 -9 7 -15 7 -16 0 -95 84 -90 98 5 17 -13 15 -28 -3 -10 -12 -10 -15 1 -15 17 0 99 -80 99 -96 0 -7 4 -14 10 -16 5 -1 -1 -16 -14 -31 -16 -18 -26 -23 -28 -15 -3 9 -13 4 -29 -15 l-24 -28 -55 56 -55 56 43 38 c23 20 42 41 42 47 0 5 -4 2 -10 -6 -5 -8 -12 -11 -16 -8 -13 14 45 54 79 55 28 1 42 -7 73 -38z">
        </path>
        <path
            d="M9195 4571 c-4 -7 -14 -10 -23 -7 -19 6 -88 -51 -77 -62 3 -4 11 1 16 11 6 9 15 17 21 17 6 0 3 -9 -7 -20 -10 -11 -13 -20 -7 -20 6 0 14 5 17 10 4 6 11 8 16 5 5 -4 9 0 9 9 0 8 -6 16 -12 19 -7 2 -9 8 -5 13 4 5 12 2 17 -6 7 -12 11 -12 25 0 14 12 21 8 57 -27 34 -34 38 -43 30 -60 -8 -14 -8 -23 -1 -30 8 -8 7 -13 0 -17 -6 -4 -11 -3 -11 3 0 13 -83 91 -90 85 -2 -3 13 -20 35 -39 l39 -35 -23 -30 c-12 -17 -19 -36 -15 -42 5 -7 3 -8 -5 -3 -8 4 -21 -2 -33 -15 l-20 -22 -49 48 c-27 27 -49 54 -49 60 0 7 14 24 31 39 17 14 29 29 25 32 -3 4 -13 -2 -21 -13 -8 -10 -15 -14 -15 -8 0 5 5 15 12 22 7 7 8 12 2 12 -16 0 -34 -22 -34 -42 0 -9 -8 -21 -17 -26 -14 -8 -6 -20 52 -77 62 -60 70 -65 81 -50 8 10 20 15 29 12 8 -4 15 -3 15 1 0 4 20 28 43 55 61 67 60 100 -3 162 -31 30 -50 43 -55 36z">
        </path>
        <path
            d="M8623 4518 c-38 -39 -45 -51 -34 -58 11 -6 12 -12 4 -22 -9 -10 -3 -22 24 -51 19 -21 37 -36 40 -33 3 3 -10 19 -28 35 -18 17 -31 33 -28 35 3 3 25 -15 49 -41 24 -26 36 -44 27 -40 -9 3 -17 3 -17 -2 0 -14 26 -32 34 -23 4 4 14 -2 22 -13 14 -19 17 -17 81 48 63 62 66 67 49 80 -11 8 -16 18 -13 24 8 13 -58 77 -72 69 -6 -4 -9 -1 -5 7 6 16 -16 28 -58 32 -20 2 -37 -9 -75 -47z m172 -24 c13 -14 22 -31 19 -39 -3 -7 2 -15 10 -18 26 -10 19 -25 -35 -80 l-51 -52 -50 54 -50 55 51 49 52 50 28 -27 c15 -14 31 -26 36 -26 4 0 -4 11 -19 25 -14 13 -26 27 -26 30 0 11 12 4 35 -21z">
        </path>
        <path
            d="M7962 4415 c-89 -49 -127 -152 -86 -233 23 -47 92 -102 128 -103 60 -2 90 3 115 19 64 42 94 92 94 157 0 69 -33 119 -107 162 -27 16 -114 15 -144 -2z m189 -44 c38 -39 55 -110 40 -168 -22 -82 -112 -127 -203 -102 -73 19 -108 69 -108 154 0 64 17 102 60 132 57 40 163 32 211 -16z">
        </path>
        <path
            d="M8899 4381 c-52 -10 -86 -39 -114 -98 -30 -62 -31 -78 -6 -135 37 -85 111 -124 202 -108 30 6 54 20 88 54 46 46 46 47 46 114 0 56 -4 73 -25 100 -45 61 -115 87 -191 73z m138 -37 c37 -28 73 -94 73 -134 0 -42 -37 -107 -77 -135 -29 -19 -50 -25 -90 -25 -92 0 -154 56 -161 145 -9 106 54 173 162 174 49 1 65 -4 93 -25z">
        </path>
        <path
            d="M7810 4155 c-7 -8 -17 -12 -23 -8 -5 3 -16 -2 -23 -12 -7 -9 -28 -34 -47 -54 -50 -54 -47 -87 11 -144 38 -36 52 -45 73 -40 34 6 143 99 128 109 -8 5 -6 10 5 16 9 5 16 13 16 18 0 9 -115 130 -124 130 -2 0 -9 -7 -16 -15z m79 -59 l53 -53 -46 -39 c-25 -21 -44 -40 -41 -42 2 -2 11 3 20 12 9 9 21 16 27 16 6 0 -2 -11 -18 -25 -16 -14 -30 -20 -32 -15 -2 6 -9 10 -16 10 -16 0 -96 82 -96 99 0 11 -3 11 -15 1 -18 -15 -20 -33 -3 -28 14 5 90 -67 101 -95 4 -11 3 -16 -4 -12 -5 4 -16 2 -24 -5 -11 -9 -22 -4 -54 25 -35 32 -40 41 -37 74 3 37 41 90 54 76 4 -3 0 -10 -8 -15 -8 -6 -11 -10 -6 -10 5 0 24 18 43 40 19 22 38 40 42 40 4 0 31 -24 60 -54z">
        </path>
        <path
            d="M8181 4106 c-53 -54 -60 -64 -47 -75 8 -7 13 -18 10 -26 -3 -7 16 -29 43 -51 26 -22 51 -43 54 -48 4 -5 14 -6 22 -3 8 3 20 0 26 -6 16 -16 117 85 105 104 -5 8 -7 23 -5 33 2 14 -2 17 -14 13 -10 -4 -14 -3 -10 4 9 13 -64 101 -79 96 -6 -3 -18 2 -27 9 -13 12 -23 5 -78 -50z m83 29 c8 -8 24 -27 35 -41 12 -15 24 -24 27 -21 4 3 -1 13 -10 22 -9 9 -16 21 -16 27 0 6 9 1 20 -12 26 -30 19 -53 -33 -107 -38 -40 -67 -55 -67 -34 0 5 -16 19 -35 32 -19 13 -37 30 -40 38 -5 14 80 111 96 111 4 0 14 -7 23 -15z">
        </path>
        <path
            d="M8716 4114 c-4 -10 -13 -13 -26 -9 -11 3 -20 2 -20 -4 0 -5 -20 -31 -44 -58 -34 -37 -42 -51 -33 -61 8 -10 7 -16 -4 -22 -23 -15 75 -108 109 -105 40 4 64 16 58 30 -6 16 11 42 21 32 4 -5 1 -12 -7 -17 -8 -6 -10 -10 -4 -10 16 0 75 65 67 74 -5 4 1 14 12 22 18 14 16 17 -45 79 -35 36 -67 65 -71 65 -4 0 -10 -7 -13 -16z m75 -53 c52 -53 58 -68 34 -77 -9 -4 -15 -11 -14 -18 3 -23 -1 -34 -16 -40 -19 -7 -19 -1 1 18 8 9 11 16 6 16 -5 0 -17 -9 -27 -20 -10 -11 -25 -20 -34 -20 -18 0 -91 69 -91 86 0 15 71 102 84 103 5 1 31 -21 57 -48z">
        </path>
        <path
            d="M9080 4063 c-55 -56 -62 -66 -47 -74 9 -6 17 -17 17 -26 0 -24 92 -104 113 -99 9 2 23 -2 31 -9 11 -11 21 -6 59 33 60 62 59 91 -3 165 -26 31 -51 52 -59 49 -8 -3 -18 3 -23 12 -5 9 -12 16 -16 15 -4 0 -36 -30 -72 -66z m90 26 c7 -12 18 -18 26 -15 8 3 29 -10 49 -31 35 -36 43 -53 25 -53 -5 0 -10 4 -10 10 0 5 -13 23 -30 40 -34 35 -42 29 -8 -7 l22 -23 -45 -46 c-36 -37 -49 -44 -69 -39 -24 6 -24 6 -6 -14 11 -12 26 -21 35 -21 11 0 12 -3 4 -11 -8 -8 -22 -1 -52 27 -23 22 -41 44 -41 49 1 6 7 1 15 -9 8 -11 18 -17 21 -13 4 3 -8 18 -25 32 -17 15 -31 32 -31 38 0 13 90 107 102 107 4 0 12 -9 18 -21z">
        </path>
        <path
            d="M314 3727 c-2 -7 -3 -237 -2 -512 l3 -500 615 0 615 0 3 499 c1 347 -1 503 -9 512 -15 18 -1218 19 -1225 1z m208 -104 l3 -98 35 -6 c19 -4 -25 -7 -97 -8 l-133 -1 0 105 0 105 95 0 94 0 3 -97z m393 -8 l0 -100 -135 -1 c-74 -1 -121 1 -105 5 l30 6 3 98 3 98 102 -3 102 -3 0 -100z m226 8 l-3 -92 28 -6 c16 -4 34 -8 39 -10 6 -2 -51 -3 -125 -2 l-135 2 -3 89 c-2 49 0 96 2 103 4 11 28 13 103 11 l98 -3 -4 -92z m389 -8 l0 -105 -132 1 c-73 1 -119 4 -103 8 l30 6 3 98 3 97 99 0 100 0 0 -105z m-844 72 c1 -1 3 -33 5 -72 l4 -70 -77 -3 -78 -3 0 75 c0 74 0 75 28 79 22 4 114 -1 118 -6z m623 -3 c2 -2 6 -35 9 -74 l5 -70 -82 0 -81 0 0 63 c0 69 6 82 35 90 20 5 106 -1 114 -9z m-394 -309 l0 -120 -290 0 -290 0 -3 123 -3 122 293 -2 293 -3 0 -120z m613 3 l-3 -123 -290 0 -290 0 -3 109 c-1 61 0 116 2 123 4 10 65 13 296 13 l291 0 -3 -122z m-613 -313 l0 -120 -292 -3 -293 -2 0 125 0 125 293 -2 292 -3 0 -120z m615 0 l0 -125 -292 2 -293 3 -3 109 c-1 61 0 116 2 123 4 10 65 13 296 13 l290 0 0 -125z m-895 -145 c33 2 110 3 170 4 l110 1 3 -97 3 -98 -106 0 -105 0 0 90 0 90 -32 -1 c-31 -1 -31 -2 -8 -8 24 -7 25 -10 22 -72 -2 -35 -7 -68 -11 -72 -5 -4 -37 -7 -72 -5 l-64 3 -3 72 c-3 68 -2 72 20 76 17 3 15 5 -9 6 l-33 1 0 -90 0 -90 -95 0 -95 0 0 101 0 101 123 -7 c67 -4 149 -6 182 -5z m583 -7 l102 -16 0 -68 c0 -77 -2 -79 -90 -79 -67 0 -70 3 -70 90 0 53 2 59 23 63 16 3 14 5 -9 6 l-31 1 5 -90 5 -90 -107 0 -106 0 0 93 c0 52 3 97 7 100 12 13 168 7 271 -10z m312 -83 l0 -100 -101 0 -102 0 5 90 5 90 -31 1 c-30 1 -30 1 -6 9 14 4 71 8 128 9 l102 1 0 -100z">
        </path>
        <path
            d="M6942 2573 l3 -98 125 0 125 0 3 29 c6 46 -6 74 -31 78 -19 3 -22 9 -21 46 l1 42 -104 0 -104 0 3 -97z m186 -1 l3 -83 -87 3 -86 3 0 78 c1 42 1 79 2 82 0 3 37 5 83 3 l82 -3 3 -83z">
        </path>
        <path
            d="M8810 1465 l0 -655 223 2 222 3 0 650 0 650 -222 3 -223 2 0 -655z m218 578 l3 -43 -105 0 -106 0 0 38 c0 21 3 42 7 46 4 4 50 5 103 4 l95 -3 3 -42z m212 2 l0 -45 -100 0 -100 0 0 38 c0 21 3 42 7 45 3 4 48 7 100 7 l93 0 0 -45z m-212 -94 c2 -12 1 -34 -2 -47 -6 -24 -8 -25 -104 -22 l-97 3 -3 33 c-6 61 -3 63 105 60 94 -3 98 -4 101 -27z m212 -21 l0 -51 -97 3 -98 3 -3 33 c-6 60 -2 62 103 62 l95 0 0 -50z m-212 -111 c4 -53 -11 -60 -115 -57 l-88 3 -3 48 -3 48 103 -3 103 -3 3 -36z m212 -9 l0 -51 -97 3 -98 3 -3 48 -3 47 100 0 101 0 0 -50z m-214 -84 c3 -13 4 -35 2 -47 -3 -23 -6 -24 -103 -24 l-100 0 -3 33 c-6 60 -2 62 102 62 93 0 96 -1 102 -24z m214 -26 l0 -50 -100 0 -100 0 0 43 c0 24 3 47 7 50 3 4 48 7 100 7 l93 0 0 -50z m-210 -109 c0 -54 -12 -61 -111 -61 -70 0 -88 3 -93 16 -7 18 -8 78 -2 85 2 2 50 3 105 1 l101 -3 0 -38z m210 -11 l0 -50 -94 0 c-103 0 -106 2 -106 66 l0 34 100 0 100 0 0 -50z m-215 -110 l0 -45 -100 0 -100 0 -3 33 c-6 61 -3 63 105 60 l98 -3 0 -45z m215 0 l0 -51 -97 3 -98 3 -3 33 c-6 60 -2 62 103 62 l95 0 0 -50z m-214 -84 c3 -13 4 -35 2 -47 -3 -23 -6 -24 -105 -27 l-103 -3 0 44 c0 24 3 47 7 50 3 4 48 7 99 7 90 0 94 -1 100 -24z m214 -26 l0 -50 -100 0 -100 0 0 43 c0 24 3 47 7 50 3 4 48 7 100 7 l93 0 0 -50z m-212 -111 c4 -53 -11 -60 -115 -57 l-88 3 -3 48 -3 48 103 -3 103 -3 3 -36z m212 -9 l0 -51 -97 3 -98 3 -3 48 -3 47 100 0 101 0 0 -50z m-221 -74 c7 -8 11 -30 9 -48 l-3 -33 -102 -3 -103 -3 0 44 c0 24 3 47 7 50 3 4 46 7 93 7 64 0 91 -4 99 -14z m221 -36 l0 -50 -100 0 -100 0 0 43 c0 24 3 47 7 50 3 4 48 7 100 7 l93 0 0 -50z m-214 -94 c3 -13 4 -35 2 -47 -3 -23 -6 -24 -105 -27 l-103 -3 0 44 c0 24 3 47 7 50 3 4 48 7 99 7 90 0 94 -1 100 -24z m214 -26 l0 -50 -100 0 -100 0 0 43 c0 24 3 47 7 50 3 4 48 7 100 7 l93 0 0 -50z m-215 -120 l0 -45 -102 -3 -103 -3 0 51 0 51 103 -3 102 -3 0 -45z m215 0 l0 -50 -100 0 -100 0 0 50 0 50 100 0 100 0 0 -50z">
        </path>
        <path
            d="M460 2090 l-145 -5 -3 -508 -2 -507 617 2 618 3 3 503 c2 397 0 504 -10 507 -18 7 -904 11 -1078 5z m60 -109 l0 -90 33 -4 c17 -2 -25 -5 -95 -5 l-128 -2 0 95 0 95 95 0 95 0 0 -89z m400 -6 l0 -95 -137 1 c-76 1 -123 4 -104 8 l34 6 -2 88 -2 87 105 0 106 0 0 -95z m223 76 c2 -10 2 -50 -1 -89 l-5 -70 29 -5 c16 -2 -28 -5 -98 -6 l-128 -1 0 95 0 95 99 0 c88 0 99 -2 104 -19z m387 -76 l0 -95 -127 1 c-71 1 -116 4 -100 6 l27 4 0 90 0 89 100 0 100 0 0 -95z m-852 73 c5 -7 12 -42 13 -77 l4 -64 -35 -10 c-19 -5 -53 -6 -77 -2 l-43 6 0 69 c0 55 4 71 18 79 24 15 108 13 120 -1z m623 -4 c8 -10 14 -41 14 -77 l0 -61 -35 -9 c-19 -5 -53 -6 -77 -2 l-43 6 0 68 c0 39 5 72 12 79 19 19 113 15 129 -4z m-386 -309 l0 -120 -292 -3 -293 -2 0 125 0 125 293 -2 292 -3 0 -120z m615 0 l0 -125 -292 2 -293 3 -3 109 c-1 61 0 116 2 123 4 10 65 13 296 13 l290 0 0 -125z m-615 -310 l0 -120 -290 0 -290 0 -3 123 -3 122 293 -2 293 -3 0 -120z m613 3 l-3 -123 -290 0 -290 0 -3 109 c-1 61 0 116 2 123 4 10 65 13 296 13 l291 0 -3 -122z m-613 -243 l0 -100 -102 -3 -103 -3 0 101 0 101 -92 -3 -93 -3 -3 -97 -3 -98 -94 0 -95 0 0 105 0 105 293 -2 292 -3 0 -100z m615 0 l0 -106 -97 3 -98 3 0 95 0 95 -95 0 -95 0 4 -98 3 -98 -103 3 -104 3 -3 89 c-2 49 -1 95 2 103 4 10 63 13 296 13 l290 0 0 -105z m-836 66 c3 -4 3 -38 -1 -74 -6 -64 -6 -65 -38 -70 -18 -3 -51 -3 -74 0 l-41 6 0 73 0 74 74 0 c41 0 77 -4 80 -9z m626 -60 c0 -43 -5 -73 -12 -77 -22 -14 -129 -8 -139 7 -5 8 -9 42 -9 77 l0 62 80 0 80 0 0 -69z">
        </path>
        <path
            d="M6050 1575 c0 -7 -6 -18 -14 -22 -15 -8 -25 -133 -13 -163 15 -40 17 -70 5 -70 -7 0 -23 -3 -34 -6 -20 -5 -34 13 -38 51 -2 21 -111 100 -141 102 -45 2 -113 -66 -112 -113 1 -19 4 -34 8 -34 10 0 19 28 13 43 -2 7 13 30 35 51 34 33 42 36 60 27 12 -7 21 -15 21 -18 0 -4 -19 -26 -41 -49 -27 -27 -47 -40 -57 -36 -11 4 -14 1 -9 -12 4 -10 3 -15 -3 -11 -22 14 -8 -12 30 -55 21 -24 42 -41 46 -37 4 4 15 0 25 -9 10 -9 25 -14 33 -11 13 5 12 0 -2 -28 -14 -29 -23 -35 -49 -35 -18 0 -33 5 -33 11 0 14 -139 6 -149 -8 -3 -6 -16 -15 -28 -22 -20 -10 -23 -19 -23 -76 0 -36 4 -65 8 -65 5 0 19 -9 32 -20 27 -23 108 -28 129 -7 10 10 11 9 6 -5 -4 -11 -2 -18 4 -18 7 0 14 7 17 15 9 22 70 20 78 -2 3 -10 9 -24 12 -30 3 -7 -1 -13 -9 -13 -8 0 -20 -6 -27 -14 -6 -8 -17 -13 -24 -10 -14 5 -60 -52 -52 -65 3 -5 -2 -8 -11 -7 -9 0 -18 -5 -21 -13 -3 -8 0 -11 7 -7 7 5 8 1 4 -10 -4 -11 -8 -13 -11 -6 -8 25 -19 11 -18 -23 2 -46 79 -129 106 -115 10 5 20 7 23 3 10 -9 121 82 123 102 1 6 5 20 9 33 8 24 24 23 75 -4 19 -10 21 -13 8 -14 -11 0 -18 -8 -18 -18 0 -10 -3 -22 -7 -26 -14 -13 -2 -150 13 -159 8 -4 14 -15 14 -22 0 -12 16 -15 75 -15 68 0 75 2 75 20 0 11 6 19 13 17 8 -1 12 16 12 63 0 36 5 68 10 73 6 4 3 12 -7 21 -10 7 -18 21 -18 30 0 9 -6 16 -12 16 -19 0 25 28 57 36 18 4 26 3 22 -3 -4 -6 0 -16 8 -23 8 -7 12 -17 9 -22 -8 -12 94 -103 115 -103 9 -1 22 -4 28 -8 18 -11 119 91 105 105 -6 6 -8 17 -5 25 6 16 -26 55 -39 47 -11 -7 -53 34 -45 43 9 8 27 -7 27 -23 0 -8 5 -14 10 -14 16 0 12 14 -15 42 -15 16 -31 25 -40 22 -8 -4 -17 1 -21 10 -3 9 -12 16 -20 16 -17 0 -17 4 0 43 8 18 17 39 19 47 4 9 6 7 6 -7 1 -16 7 -23 21 -23 11 0 23 -7 26 -15 7 -18 35 -20 30 -2 -1 6 -1 9 1 5 3 -5 28 -8 57 -8 42 0 58 5 80 25 23 21 26 32 26 90 0 36 -4 65 -9 65 -5 0 -17 7 -26 16 -20 21 -149 33 -159 15 -4 -6 -16 -11 -27 -11 -14 0 -19 -7 -20 -27 -1 -21 -3 -23 -6 -8 -2 11 -11 34 -19 52 -8 17 -14 33 -14 35 0 2 19 12 43 22 46 19 108 91 118 137 5 24 0 35 -36 72 -53 56 -92 58 -147 9 -19 -18 -44 -39 -53 -46 -10 -7 -15 -18 -12 -23 4 -6 0 -16 -8 -23 -18 -15 -19 -37 -2 -43 7 -4 8 -6 1 -6 -6 -1 -17 6 -24 14 -7 8 -21 15 -31 15 -25 0 -26 46 -1 73 10 12 13 21 6 24 -7 2 -9 25 -6 60 4 42 1 59 -10 67 -8 6 -17 19 -21 29 -5 14 -19 17 -77 17 -54 0 -70 -3 -70 -15z m139 -89 c7 -9 11 -38 9 -73 l-3 -58 -73 -3 -74 -3 4 61 c1 33 -1 60 -6 60 -6 0 -1 7 10 15 25 19 118 20 133 1z m-273 -123 c28 -27 53 -55 56 -63 4 -12 10 -12 40 3 57 27 176 23 236 -7 80 -41 133 -115 147 -204 8 -47 -12 -172 -26 -172 -5 0 -9 -6 -9 -13 0 -21 -66 -85 -113 -109 -55 -29 -185 -31 -235 -5 -18 10 -38 15 -45 11 -7 -4 -9 -4 -6 -1 3 4 -13 26 -35 50 -24 25 -44 39 -48 33 -4 -6 14 -32 39 -60 l47 -49 -48 -43 c-26 -24 -53 -44 -60 -44 -6 0 -32 20 -56 45 l-44 44 20 23 c10 13 24 27 29 31 6 5 2 6 -8 3 -12 -4 -17 -2 -14 6 2 7 11 12 19 10 9 -1 21 5 28 13 7 8 18 15 25 15 22 0 26 31 10 64 -22 42 -22 161 -1 201 9 17 16 35 16 42 0 6 20 31 44 56 26 25 41 48 37 55 -5 8 -22 -4 -51 -33 -24 -25 -50 -45 -56 -45 -7 0 -28 18 -47 40 -19 22 -38 40 -43 40 -5 0 -4 -4 1 -8 13 -9 47 -62 40 -62 -3 0 -14 9 -24 19 -19 19 -25 33 -22 58 1 12 88 103 99 103 4 0 30 -21 58 -47z m524 6 c22 -23 40 -46 40 -53 0 -15 -73 -96 -87 -96 -13 0 -103 87 -103 100 0 9 91 89 103 90 4 0 25 -19 47 -41z m-617 -256 c-9 -3 -13 -26 -13 -64 0 -40 4 -59 13 -60 6 0 4 -4 -5 -7 -10 -4 -44 -5 -75 -2 l-58 5 -3 54 c-5 80 -3 81 80 80 40 0 67 -3 61 -6z m731 1 c12 -5 16 -21 16 -65 0 -66 1 -65 -77 -72 l-53 -4 0 73 0 74 49 0 c27 0 56 -3 65 -6z m-135 -251 c9 -16 12 -16 21 -3 9 12 10 11 6 -6 -4 -13 1 -27 14 -39 11 -10 20 -24 20 -30 0 -14 -76 -95 -89 -95 -5 0 -26 16 -47 35 -22 19 -42 35 -46 35 -18 0 -5 26 35 70 45 51 70 60 86 33z m-221 -187 c2 -41 -1 -62 -10 -67 -23 -15 -118 -10 -134 6 -9 8 -12 15 -7 15 4 0 6 25 5 55 l-4 56 74 -3 73 -3 3 -59z">
        </path>
        <path d="M5240 1038 l0 -379 23 3 22 3 0 375 0 375 -22 1 -23 1 0 -379z"></path>
        <path
            d="M7820 1333 c0 -6 27 -65 61 -132 43 -85 65 -118 75 -114 19 7 18 -7 -3 -22 -21 -15 -8 -38 18 -30 15 5 24 -6 49 -59 17 -36 35 -68 40 -71 27 -17 11 30 -58 169 -63 128 -81 156 -98 156 -15 0 -27 12 -39 38 -23 47 -45 80 -45 65z">
        </path>
        <path
            d="M7036 1271 c-32 -33 -44 -51 -36 -56 6 -4 10 -16 7 -26 -6 -21 0 -23 22 -10 12 8 12 12 2 25 -15 18 -9 29 38 73 28 27 31 27 56 9 19 -13 18 -16 -20 -59 -22 -24 -50 -47 -62 -51 -13 -3 -23 -10 -23 -14 0 -4 18 -27 39 -51 25 -29 44 -42 54 -38 9 3 18 -1 21 -9 8 -22 16 -17 86 50 58 56 60 59 44 77 -10 11 -14 22 -11 25 3 4 -18 27 -48 52 -78 65 -107 66 -169 3z m162 -10 c25 -24 37 -41 29 -44 -8 -3 -3 -11 13 -25 l25 -21 -50 -50 c-27 -28 -55 -51 -61 -51 -16 0 -84 76 -84 94 0 15 75 96 88 96 5 0 17 -9 27 -20 10 -11 23 -20 28 -20 6 0 -9 18 -33 40 -24 22 -39 40 -34 40 6 0 29 -18 52 -39z">
        </path>
        <path
            d="M7558 1310 c-2 -4 -24 -25 -50 -48 -26 -22 -44 -43 -41 -46 4 -3 -1 -14 -11 -25 -16 -18 -14 -21 44 -77 70 -67 78 -72 86 -50 3 8 12 12 20 9 22 -8 45 17 39 41 -5 17 -4 18 4 6 9 -13 13 -12 26 7 8 12 21 28 28 35 42 45 -29 151 -105 155 -20 0 -38 -2 -40 -7z m-18 -50 c-24 -22 -39 -40 -33 -40 5 0 18 9 28 20 10 11 22 20 27 20 13 0 88 -81 88 -96 0 -18 -68 -94 -84 -94 -6 0 -34 23 -61 51 l-50 50 25 21 c16 14 21 22 13 25 -14 5 63 83 81 83 5 0 -10 -18 -34 -40z">
        </path>
        <path
            d="M2050 1211 c-14 -4 -63 -11 -109 -15 -118 -11 -135 -18 -127 -59 3 -17 13 -88 21 -157 9 -69 20 -129 24 -133 5 -5 51 -2 102 7 52 8 116 17 142 20 27 3 52 8 56 11 4 2 1 53 -6 112 -8 59 -17 133 -21 163 -6 49 -10 55 -32 57 -14 1 -36 -2 -50 -6z m69 -78 c37 -238 37 -242 -24 -243 -16 0 -46 -4 -65 -9 -19 -5 -64 -11 -100 -13 l-64 -3 -13 100 c-7 55 -16 124 -19 153 l-7 52 44 1 c24 1 73 7 109 14 36 7 79 13 97 14 31 1 31 1 42 -66z">
        </path>
        <path
            d="M2665 1099 c-5 -68 -9 -144 -9 -169 l-1 -45 60 -6 c33 -4 103 -8 155 -10 l95 -4 6 80 c4 44 10 119 14 166 l8 86 -79 7 c-44 4 -115 9 -160 13 l-81 6 -8 -124z m234 91 c35 -5 66 -11 69 -15 8 -8 -16 -287 -25 -296 -4 -4 -37 -3 -73 2 -36 4 -95 11 -132 14 l-68 7 0 51 c0 29 5 96 12 150 l12 97 70 0 c39 0 100 -5 135 -10z">
        </path>
        <path
            d="M7330 1181 c-14 -16 -67 -73 -118 -127 l-94 -97 127 -121 126 -122 97 100 c53 55 109 111 125 126 l28 26 -127 120 c-70 65 -130 120 -133 121 -3 2 -17 -10 -31 -26z m125 -72 c46 -45 93 -87 104 -95 51 -36 47 -44 -74 -170 l-114 -118 -97 94 c-53 52 -106 103 -116 113 -11 10 -18 22 -16 27 6 16 210 230 220 230 5 0 47 -36 93 -81z">
        </path>
        <path
            d="M2377 1180 c-83 -52 -92 -180 -18 -237 73 -56 132 -53 197 12 41 42 44 48 44 100 0 52 -2 58 -45 100 -42 42 -48 45 -97 44 -33 0 -64 -7 -81 -19z m120 -1 c47 -17 82 -58 88 -103 19 -128 -129 -206 -224 -117 -62 58 -49 166 25 208 44 25 69 28 111 12z">
        </path>
        <path
            d="M7131 863 c-5 -10 -13 -14 -17 -10 -4 4 -23 -7 -41 -25 -35 -34 -47 -64 -13 -33 11 10 20 13 20 7 0 -14 -35 -34 -44 -25 -11 11 -31 -26 -31 -56 0 -19 13 -43 43 -75 41 -45 62 -57 62 -36 0 6 10 8 23 5 16 -4 32 4 60 31 20 19 35 39 32 44 -3 4 3 7 13 6 10 0 16 5 14 15 -1 9 5 22 13 29 14 12 8 21 -47 77 -34 35 -66 63 -70 63 -4 0 -11 -8 -17 -17z m79 -54 l54 -51 -42 -39 c-23 -22 -42 -43 -42 -46 0 -4 5 -2 12 5 7 7 16 12 21 12 13 0 -2 -19 -25 -31 -15 -8 -19 -8 -14 0 4 6 0 11 -11 11 -11 0 -38 20 -62 44 l-42 43 25 30 c14 17 26 35 26 39 0 5 -4 2 -10 -6 -5 -8 -12 -11 -17 -7 -10 10 16 27 32 21 7 -3 15 2 18 10 10 24 18 20 77 -35z">
        </path>
        <path
            d="M7502 817 c-54 -55 -61 -65 -48 -76 8 -7 13 -18 10 -26 -7 -18 16 -30 28 -14 7 10 8 9 4 -6 -4 -15 5 -29 34 -53 22 -18 45 -32 52 -31 7 1 20 -1 30 -5 24 -11 103 77 102 113 -2 37 -15 63 -29 57 -16 -6 -42 11 -32 21 5 4 12 1 17 -7 6 -8 10 -10 10 -4 0 16 -65 75 -74 67 -4 -4 -12 0 -17 10 -6 9 -13 17 -17 17 -4 0 -36 -28 -70 -63z m84 28 c4 -9 11 -15 18 -14 23 3 34 -1 40 -16 7 -19 1 -19 -18 1 -9 8 -16 11 -16 6 0 -5 9 -17 20 -27 11 -10 20 -24 20 -32 0 -18 -74 -93 -91 -93 -8 1 -34 21 -59 45 l-44 44 49 50 c53 52 72 61 81 36z">
        </path>
        <path
            d="M2226 832 c-3 -3 -6 -74 -6 -157 l0 -152 68 -6 c37 -4 113 -7 168 -7 l101 0 8 151 c4 83 3 154 -1 159 -10 9 -330 21 -338 12z m272 -18 l52 -7 0 -139 0 -139 -152 3 -153 3 -3 143 -3 142 103 0 c57 0 127 -3 156 -6z">
        </path>
        <path
            d="M9230 285 l0 -105 105 0 105 0 0 105 0 105 -105 0 -105 0 0 -105z m190 0 l0 -85 -90 0 -90 0 0 69 c0 103 -2 101 96 101 l84 0 0 -85z">
        </path>
    </g>
    <rect stroke="#000000" height="18.000153px" x="51.74905px" id="Seat1" stroke-width="3px" width="18.000137px"
        y="99.000793px" fill="#ffffff" transform="" visibility="visible"></rect>
    <rect stroke="#000000" height="18.000153px" x="116.24958px" y="97.500786px" id="Seat2" stroke-width="3px"
        width="18.000137px" fill="#ffffff" transform="" visibility="visible"></rect>
    <rect stroke="#000000" height="18.000153px" x="53.999069px" id="Seat3" stroke-width="3px" width="18.000137px"
        y="177.751434px" fill="#ffffff" transform="" visibility="visible"></rect>
    <rect stroke="#000000" height="18.000153px" x="113.999557px" id="Seat4" stroke-width="3px" width="18.000137px"
        y="177.001419px" fill="#ffffff" transform="" visibility="visible"></rect>
</svg>