<?xml version="1.0" encoding="UTF-8"?>
<svg width="209px" height="56px" viewBox="0 0 209 56" version="1.1" xmlns="http://www.w3.org/2000/svg" xmlns:xlink="http://www.w3.org/1999/xlink">
    <!-- Generator: Sketch 53.1 (72631) - https://sketchapp.com -->
    <title>HelixApp_Logo</title>
    <desc>Created with Sketch.</desc>
    <g id="Page-1" stroke="none" stroke-width="1" fill="none" fill-rule="evenodd">
        <g id="Our-Services" transform="translate(-150.000000, -49.000000)">
            <g id="HelixApp_Logo" transform="translate(150.000000, 48.069941)">
                <g id="Group-12" transform="translate(90.954539, 0.000000)">
                    <polygon id="Rectangle" fill="#373435" points="0.0454608261 0.930058681 41.0454608 0.930058681 24.8198335 28.9300587 41.0454608 56.9300587 0.0454608261 56.9300587 16.9844234 28.9300587"></polygon>
                    <polygon id="Rectangle-Copy-7" fill="#C88D17" points="15.5365801 25.7674566 20.0021817 32.4844156 30.3324732 50.0210799 10.9109111 49.8236323 15.2347348 41.5488525"></polygon>
                    <polygon id="Rectangle-Copy-36" fill="#1D72A2" transform="translate(20.257730, 19.602957) rotate(-180.000000) translate(-20.257730, -19.602957) " points="14.3238237 7 19.0912706 14.8666977 30.5154597 32.2059144 10 32.2059144 14.3238237 23.9311346"></polygon>
                </g>
                <g id="Group-11" transform="translate(0.000000, 8.930059)" fill-rule="nonzero">
                    <g id="Helix-App" transform="translate(0.000000, 0.880000)">
                        <path d="M22.44,2.88 L22.44,31.12 L17.84,31.12 L17.84,18.44 L4.56,18.44 L4.56,31.12 L1.42108547e-14,31.12 L1.42108547e-14,2.88 L4.56,2.88 L4.56,14.72 L17.84,14.72 L17.84,2.88 L22.44,2.88 Z M48.44,19.04 C48.44,19.7866704 48.3866672,20.4399972 48.28,21 L31.32,21 C31.4000004,23.266678 32.0266608,24.9466612 33.2,26.04 C34.3733392,27.1333388 35.826658,27.68 37.56,27.68 C39.0800076,27.68 40.3666614,27.2933372 41.42,26.52 C42.4733386,25.7466628 43.1199988,24.7200064 43.36,23.44 L48.24,23.44 C47.9466652,24.9866744 47.333338,26.359994 46.4,27.56 C45.466662,28.760006 44.2533408,29.6999966 42.76,30.38 C41.2666592,31.0600034 39.6000092,31.4 37.76,31.4 C35.626656,31.4 33.7400082,30.9466712 32.1,30.04 C30.4599918,29.1333288 29.173338,27.8266752 28.24,26.12 C27.306662,24.4133248 26.84,22.4000116 26.84,20.08 C26.84,17.7866552 27.306662,15.7866752 28.24,14.08 C29.173338,12.3733248 30.4599918,11.0666712 32.1,10.16 C33.7400082,9.2533288 35.626656,8.8 37.76,8.8 C39.9200108,8.8 41.8066586,9.2466622 43.42,10.14 C45.0333414,11.0333378 46.273329,12.2599922 47.14,13.82 C48.006671,15.3800078 48.44,17.1199904 48.44,19.04 Z M43.84,17.92 C43.8933336,16.58666 43.6466694,15.4693872 43.1,14.5681481 C42.5533306,13.6669091 41.8066714,13.0002491 40.86,12.5681481 C39.9133286,12.1360472 38.8800056,11.92 37.76,11.92 C35.9733244,11.92 34.480006,12.4261678 33.28,13.4385185 C32.079994,14.4508693 31.4266672,15.9446815 31.32,17.92 L43.84,17.92 Z M57.4,1.52 L57.4,31.12 L52.84,31.12 L52.84,1.52 L57.4,1.52 Z M62.28,2.68 C62.28,1.9066628 62.546664,1.2666692 63.08,0.76 C63.613336,0.2533308 64.3199956,0 65.2,0 C66.0800044,0 66.7933306,0.2533308 67.34,0.76 C67.8866694,1.2666692 68.16,1.9066628 68.16,2.68 C68.16,3.4533372 67.8866694,4.0799976 67.34,4.56 C66.7933306,5.0400024 66.0800044,5.28 65.2,5.28 C64.3199956,5.28 63.613336,5.0400024 63.08,4.56 C62.546664,4.0799976 62.28,3.4533372 62.28,2.68 Z M67.48,9.08 L67.48,31.12 L62.92,31.12 L62.92,9.08 L67.48,9.08 Z M86.04,31.12 L80.64,23.32 L75.92,31.12 L70.84,31.12 L78.12,19.68 L70.76,9.08 L75.92,9.08 L81.2,16.68 L85.88,9.08 L90.92,9.08 L83.64,20.2 L91.2,31.12 L86.04,31.12 Z" id="Helix" fill="#1D72A2"></path>
                        <path d="M148.64,25 L136.72,25 L134.56,31.12 L129.68,31.12 L140.08,3.32 L145.32,3.32 L155.68,31.12 L150.8,31.12 L148.64,25 Z M147.36,21.48 L142.68,8.28 L138,21.48 L147.36,21.48 Z M171.72,8.8 C173.64001,8.8 175.353326,9.2533288 176.86,10.16 C178.366674,11.0666712 179.546662,12.3733248 180.4,14.08 C181.253338,15.7866752 181.68,17.7866552 181.68,20.08 C181.68,22.4000116 181.253338,24.4133248 180.4,26.12 C179.546662,27.8266752 178.366674,29.1333288 176.86,30.04 C175.353326,30.9466712 173.64001,31.4 171.72,31.4 C169.71999,31.4 168.01334,30.9066716 166.6,29.92 C165.18666,28.9333284 164.200003,27.6266748 163.64,26 L163.64,41.6 L159.08,41.6 L159.08,9.08 L163.64,9.08 L163.64,14.2 C164.200003,12.5733252 165.18666,11.2666716 166.6,10.28 C168.01334,9.2933284 169.71999,8.8 171.72,8.8 Z M171.32,12.8 C170.039994,12.8 168.893338,13.099997 167.88,13.7 C166.866662,14.300003 166.06667,15.1533278 165.48,16.26 C164.89333,17.3666722 164.6,18.6399928 164.6,20.08 C164.6,21.546674 164.89333,22.8266612 165.48,23.92 C166.06667,25.0133388 166.866662,25.859997 167.88,26.46 C168.893338,27.060003 170.039994,27.36 171.32,27.36 C173.346677,27.36 174.973327,26.7133398 176.2,25.42 C177.426673,24.1266602 178.04,22.346678 178.04,20.08 C178.04,17.8399888 177.426673,16.0666732 176.2,14.76 C174.973327,13.4533268 173.346677,12.8 171.32,12.8 Z M198.72,8.8 C200.64001,8.8 202.353326,9.2533288 203.86,10.16 C205.366674,11.0666712 206.546662,12.3733248 207.4,14.08 C208.253338,15.7866752 208.68,17.7866552 208.68,20.08 C208.68,22.4000116 208.253338,24.4133248 207.4,26.12 C206.546662,27.8266752 205.366674,29.1333288 203.86,30.04 C202.353326,30.9466712 200.64001,31.4 198.72,31.4 C196.71999,31.4 195.01334,30.9066716 193.6,29.92 C192.18666,28.9333284 191.200003,27.6266748 190.64,26 L190.64,41.6 L186.08,41.6 L186.08,9.08 L190.64,9.08 L190.64,14.2 C191.200003,12.5733252 192.18666,11.2666716 193.6,10.28 C195.01334,9.2933284 196.71999,8.8 198.72,8.8 Z M198.32,12.8 C197.039994,12.8 195.893338,13.099997 194.88,13.7 C193.866662,14.300003 193.06667,15.1533278 192.48,16.26 C191.89333,17.3666722 191.6,18.6399928 191.6,20.08 C191.6,21.546674 191.89333,22.8266612 192.48,23.92 C193.06667,25.0133388 193.866662,25.859997 194.88,26.46 C195.893338,27.060003 197.039994,27.36 198.32,27.36 C200.346677,27.36 201.973327,26.7133398 203.2,25.42 C204.426673,24.1266602 205.04,22.346678 205.04,20.08 C205.04,17.8399888 204.426673,16.0666732 203.2,14.76 C201.973327,13.4533268 200.346677,12.8 198.32,12.8 Z" id="App" fill="#C88D17"></path>
                    </g>
                </g>
            </g>
        </g>
    </g>
</svg>