<svg xmlns="http://www.w3.org/2000/svg" width="27.26" height="26.727" viewBox="0 0 27.26 26.727">
    <defs>
        <style>
            .cls-1{fill:#3a4354}
        </style>
    </defs>
    <g id="Group_146" transform="translate(-42.74 -388.25)">
        <path id="Path_40" d="M68.919 414.183c.167-.162.3-.3.3-.3l.3-.3c.167-.163-.117-.918-.637-1.685l-1.333-1.969a4.011 4.011 0 0 0-1.837-1.573l-.893-.182-4.018-3.908-1.457 1.434 4.013 3.911.189.869a3.964 3.964 0 0 0 1.617 1.787l2.025 1.3c.787.506 1.564.783 1.731.62zm0 0" class="cls-1"/>
        <path id="Path_41" d="M43.667 393.4l6.714 6.536c.016.015.033.026.05.043l.985-.962-7.04-6.852a.416.416 0 0 1 0-.6.442.442 0 0 1 .618 0l7.037 6.852 1.1-1.07-7.041-6.847a.413.413 0 0 1 0-.6.44.44 0 0 1 .613 0l7.044 6.857.986-.962c-.017-.016-.028-.035-.043-.051l-.781-.761-5.932-5.772a3.108 3.108 0 0 0-4.31 0 2.905 2.905 0 0 0 0 4.193zm0 0" class="cls-1"/>
        <path id="Path_42" d="M46.87 414.977a4.175 4.175 0 0 1-2.917-1.172 3.971 3.971 0 0 1 0-5.717L56.7 395.679a6.43 6.43 0 0 1 1.9-5.525 6.749 6.749 0 0 1 5.514-1.857 1.385 1.385 0 0 1 1.234.887 1.546 1.546 0 0 1-.5 1.594l-2.409 2.342a.824.824 0 0 0 0 1.189l1.51 1.467a.907.907 0 0 0 1.249 0l2.334-2.272a1.552 1.552 0 0 1 1.62-.456 1.345 1.345 0 0 1 .826 1.229 6.417 6.417 0 0 1-1.938 5.1 6.826 6.826 0 0 1-5.362 1.868c-3.869 3.778-12.891 12.555-12.891 12.555a4.177 4.177 0 0 1-2.917 1.177zm16.438-25.695a5.7 5.7 0 0 0-3.991 1.611 5.43 5.43 0 0 0-1.625 3.381 5.512 5.512 0 0 0 .069 1.494l.05.271-13.136 12.788a2.94 2.94 0 0 0 0 4.24 3.178 3.178 0 0 0 4.4 0l13.068-12.723.18-.175.248.033a5.789 5.789 0 0 0 4.76-1.557 5.386 5.386 0 0 0 1.629-4.283c-.015-.183-.075-.312-.161-.345-.105-.039-.318.016-.538.23l-2.332 2.27a1.932 1.932 0 0 1-2.69 0l-1.509-1.467a1.856 1.856 0 0 1 0-2.667l2.41-2.343c.217-.211.277-.414.24-.522s-.174-.171-.376-.195a6.076 6.076 0 0 0-.696-.041zM47.4 412.323a1.97 1.97 0 0 1-1.38-.556 1.885 1.885 0 0 1 0-2.717 2 2 0 0 1 2.757 0 1.89 1.89 0 0 1 0 2.717 1.979 1.979 0 0 1-1.377.556zm0-2.987a1.133 1.133 0 0 0-.792.318 1.045 1.045 0 0 0 0 1.511 1.151 1.151 0 0 0 1.59 0 1.051 1.051 0 0 0 0-1.512 1.143 1.143 0 0 0-.798-.317z" class="cls-1"/>
    </g>
</svg>
