<svg xmlns="http://www.w3.org/2000/svg" width="153.726" height="194.738" viewBox="0 0 153.726 194.738">
    <defs>
        <style>
            .cls-1{fill:#e5e5e5}.cls-2{fill:#fff}.cls-3{fill:#637aaa}.cls-5{fill:#f1f1f1}.cls-6{fill:#d1d1d1}
        </style>
    </defs>
    <g id="Group_917" transform="translate(-3338.857 -462.878)">
        <path id="Path_1855" d="M3341.651 647.324c-1.265.938-2.409 2.065-2.32 3.862.188 3.822 6.75 4.738 9.433 5.1 4.754.648 9.516.549 14.292.73q26.022.984 52.07.37 13.37-.3 26.727-.971c7.821-.391 16.534.111 23.944-2.911a103.806 103.806 0 0 0 12.886-6.489c3.452-2.006 7.929-3.918 9.975-7.668 3.585-6.574-8.983-7.871-12.44-8.594-13.6-2.841-27.621-3.347-41.452-3.769a311.374 311.374 0 0 0-42.2 1.317c-17.572 1.856-36.36 7.8-50.712 18.875z" class="cls-1"/>
        <g id="Group_891">
            <path id="Rectangle_647" d="M0 0H100.68V69.014H0z" class="cls-1" transform="translate(3377.892 571.636)"/>
            <g id="Group_885">
                <path id="Path_1856" d="M3478.571 571.636h-100.679l13.325-15.4a3.258 3.258 0 0 1 2.463-1.126h97.343a.845.845 0 0 1 .639 1.4z" class="cls-2"/>
                <g id="Group_884">
                    <path id="Path_1857" d="M3478.622 571.194h-99.146a4.86 4.86 0 0 0-1.357 0 .653.653 0 0 1-.177 0l.448.622 9.823-11.355c1.16-1.342 2.269-2.767 3.5-4.046.9-.934 1.872-.868 3-.868h93.218a19.128 19.128 0 0 1 2.687 0c1.227.182.091 1.3-.378 1.845L3479 570.385l-.925 1.07c-.491.568.636.776 1 .361l10.114-11.692 2.333-2.7c.387-.448.979-.958.946-1.6-.064-1.234-1.315-1.164-2.2-1.164H3396c-.719 0-1.443-.025-2.162 0-1.815.063-2.85 1.086-3.94 2.347L3378.4 570.3l-1 1.158c-.314.363.11.622.447.622h96.566c1.3 0 2.645.109 3.938 0h.176c.673-.003.899-.886.095-.886z" class="cls-3"/>
                </g>
            </g>
            <g id="Group_888">
                <path id="Path_1858" fill="#f6f6f6" d="M3378.041 571.636l-24.733 9.628v69.014l24.733-9.272z"/>
                <g id="Group_886">
                    <path id="Path_1859" d="M3377.83 571.479l-21.646 8.426-3.087 1.2c-.782.3-.05.5.422.314l21.647-8.427 3.086-1.2c.782-.305.05-.5-.422-.314z" class="cls-3"/>
                </g>
                <g id="Group_887">
                    <path id="Path_1860" d="M3378.634 640.847v-66.088c0-.322-1.186-.113-1.186.318v66.087c0 .322 1.186.114 1.186-.317z" class="cls-3"/>
                </g>
            </g>
            <g id="Group_890">
                <path id="Path_1861" d="M3378.041 571.636l-24.733 9.628-11.855-11.544a2.163 2.163 0 0 1 .75-3.576l20.271-7.6a2.165 2.165 0 0 1 2.25.457z" class="cls-5"/>
                <path id="Path_1862" d="M3377.4 571.885l-24.093 9.379-10.071-9.992a2.165 2.165 0 0 1 .75-3.577l7.011-2.6c3.427-1.272 7.571-3.882 11.351-3.074 2.715.579 14.771 9.605 15.052 9.864z" class="cls-2"/>
                <g id="Group_889">
                    <path id="Path_1863" d="M3377.79 571.33l-21.646 8.427-3.087 1.2.8.057-9.087-8.848-2.117-2.061a3.663 3.663 0 0 1-1.194-1.561c-.544-2.021 2.119-2.517 3.468-3.022l14.416-5.405c1.106-.414 3.184-1.685 4.393-1.14a5.034 5.034 0 0 1 1.258 1.043l2.078 1.972 10.426 9.892c.35.332 1.473-.137 1.092-.5l-9.812-9.31c-1.16-1.1-2.279-2.292-3.5-3.323-1.513-1.274-3.082-.5-4.658.088l-15.19 5.7a25.008 25.008 0 0 0-3.888 1.505 2.517 2.517 0 0 0-.734 3.812 14.886 14.886 0 0 0 1.081 1.067l10.878 10.592a.745.745 0 0 0 .8.056l21.646-8.427 3.087-1.2c.754-.3.073-.844-.51-.614z" class="cls-3"/>
                </g>
            </g>
        </g>
        <g id="Group_904">
            <path id="Rectangle_648" d="M0 0H100.992V69.014H0z" class="cls-5" transform="translate(3352.846 581.264)"/>
            <path id="Path_1864" d="M3453.838 582.694c-3.239 4.829-6.971 11.324-9.291 15.471a7.957 7.957 0 0 1-6.929 4.075l-84.772.187v47.851h100.992z" class="cls-2"/>
            <g id="Group_893">
                <path id="Path_1865" d="M3478.572 571.636l-24.733 9.628v69.014l24.733-9.272z" class="cls-1"/>
                <path id="Path_1866" d="M3478.571 594.515l-8.213 3.3a6.728 6.728 0 0 1-7.884-2.2l-8.636-11.486v66.154l24.733-9.272z" class="cls-5"/>
                <g id="Group_892">
                    <path id="Path_1867" d="M3453.246 584.371v63.49c0 .254 1.185.067 1.185-.318v-63.489c0-.255-1.185-.068-1.185.317z" class="cls-3"/>
                </g>
            </g>
            <g id="Group_894">
                <path id="Path_1868" d="M3352.6 581.553h96.115c1.589 0 3.269.157 4.853 0a10.766 10.766 0 0 0 2.625-.93l7.185-2.8 14.481-5.638.93-.362c.777-.3.057-.577-.441-.383l-11.116 4.327c-4.415 1.719-8.965 3.251-13.294 5.175-.587.261.054.015.077.028-.1-.06-.425 0-.541 0h-81.416c-6.22 0-12.472-.182-18.69 0h-.282c-.386 0-1.277.579-.486.579z" class="cls-3"/>
            </g>
            <g id="Group_895">
                <path id="Path_1869" d="M3477.971 593.129v47.921l.337-.4-11.223 4.208c-4.4 1.649-8.913 3.127-13.239 4.963-.511.216.127.038-.034.017a4.521 4.521 0 0 0-.57 0h-97.917a12.209 12.209 0 0 0-2.146 0 1.649 1.649 0 0 1-.281 0l.549.392v-50.421c0-.623-1.2-.449-1.2.088v50.425c0 .308.287.392.549.392h96a37.7 37.7 0 0 0 4.952 0 12.307 12.307 0 0 0 2.448-.869l7.1-2.661 14.6-5.473.941-.353c.141-.053.337-.23.337-.4V593.04c0-.622-1.2-.448-1.2.089z" class="cls-3"/>
            </g>
            <g id="Group_897">
                <path id="Path_1870" d="M3453.838 581.264h-100.992l-13.316 15.4a.688.688 0 0 0 .52 1.137h99.175a.69.69 0 0 0 .52-.238z" class="cls-5"/>
                <path id="Path_1871" d="M3453.838 581.264h-99.995c-1.538 2.973-3.017 5.985-4.642 8.912-1 1.8-1.191 4.735 1.728 4.735h85.756a6.442 6.442 0 0 0 4.4-1.734z" class="cls-2"/>
                <g id="Group_896">
                    <path id="Path_1872" d="M3454.056 580.88h-100.344a2 2 0 0 0-1.368.266 8.72 8.72 0 0 0-.985 1.139l-2.079 2.4-9.891 11.437c-.7.814-.881 1.951.55 2.056.547.04 1.113 0 1.662 0h95.913c.481 0 .973.03 1.453 0 1.166-.074 1.7-.986 2.4-1.8l10.386-12.009 2.573-2.975c.475-.548-.665-.627-.971-.273l-9.859 11.4c-1.38 1.6-2.715 3.252-4.151 4.8-.189.2.285.033-.1.088a6.33 6.33 0 0 1-.86 0h-94.933a19.863 19.863 0 0 1-2.76 0c-.1-.015-.325.052-.414 0-.768-.449.4-1.37.658-1.673l11.4-13.182 1-1.158-.7.248h88.52c4.076 0 8.225.225 12.3 0h.177c.495.004 1.223-.764.423-.764z" class="cls-3"/>
                </g>
            </g>
            <g id="Group_899">
                <path id="Path_1873" d="M3478.571 571.636l-24.733 9.628 13.808 13.343a1.084 1.084 0 0 0 1.132.235l22.511-8.439a1.082 1.082 0 0 0 .382-1.782z" class="cls-5"/>
                <path id="Path_1874" d="M3477.767 571.949l-23.628 9.434 12.421 12.549a.943.943 0 0 0 1.019.221l9.319-3.652 5.64-2.21c1.842-.722 4.418-1.594 4.194-4.08a5.055 5.055 0 0 0-1.616-2.838c-.84-.897-6.936-8.996-7.349-9.424z" class="cls-2"/>
                <g id="Group_898">
                    <path id="Path_1875" d="M3478.3 571.265l-21.646 8.426-3.087 1.2a.429.429 0 0 0-.186.724l10.2 9.858a44.073 44.073 0 0 0 3.6 3.484c1.205.919 3.067-.2 4.286-.657l16.168-6.061a40.637 40.637 0 0 0 3.912-1.467c2.356-1.18.061-3.01-.984-4.046l-11.46-11.359c-.4-.4-1.517.1-1.083.534l9.5 9.412 2.518 2.5a7.073 7.073 0 0 1 1.074 1.065c.863 1.4-2.225 1.954-3.072 2.271l-15.533 5.823-2.75 1.028a4.265 4.265 0 0 1-1.227.46c-.4-.021-.864-.63-1.123-.879l-2.158-2.086-10.957-10.588-.185.725 21.646-8.427 3.087-1.2c.753-.292.091-.985-.54-.74z" class="cls-3"/>
                </g>
            </g>
            <g id="Group_903">
                <g id="Group_900">
                    <path id="Path_1876" d="M3446.092 599.41v11.725c0 .641 1.2.482 1.2-.079V599.33c0-.641-1.2-.481-1.2.08z" class="cls-3"/>
                </g>
                <g id="Group_901">
                    <path id="Path_1877" d="M3446.1 613.645v1.849c0 .5 1.187.249 1.187-.146V613.5c0-.5-1.187-.249-1.187.146z" class="cls-3"/>
                </g>
                <g id="Group_902">
                    <path id="Path_1878" d="M3446.094 617.625v4.816c0 .6 1.2.413 1.2-.1v-4.816c0-.6-1.2-.412-1.2.1z" class="cls-3"/>
                </g>
            </g>
        </g>
        <g id="Group_913">
            <g id="Group_912">
                <g id="Group_905">
                    <path id="Path_1879" d="M3459.227 635.483l10.706-3.457c.712-.23.513-1.029-.213-.794l-10.706 3.457c-.712.23-.513 1.029.213.794z" class="cls-6"/>
                </g>
                <g id="Group_906">
                    <path id="Path_1880" d="M3459.2 631.238l10.657-3.489c.693-.227.544-.861-.168-.627l-10.657 3.489c-.693.227-.544.861.168.627z" class="cls-6"/>
                </g>
                <g id="Group_907">
                    <path id="Path_1881" d="M3459.194 627.122l10.607-3.52c.685-.227.558-.786-.147-.551l-10.608 3.519c-.684.227-.557.786.148.552z" class="cls-6"/>
                </g>
                <g id="Group_911">
                    <g id="Group_908">
                        <path id="Path_1882" d="M3459.237 638.7l2.364-.755c.245-.079.557-.3.476-.6-.076-.285-.467-.356-.71-.279l-2.364.756c-.245.078-.556.295-.476.6.077.285.468.356.71.278z" class="cls-6"/>
                    </g>
                    <g id="Group_909">
                        <path id="Path_1883" d="M3463.342 637.2l2.385-.762c.154-.049.585-.189.522-.425s-.525-.153-.665-.108l-2.385.762c-.154.049-.585.189-.521.426s.524.152.664.107z" class="cls-6"/>
                    </g>
                    <g id="Group_910">
                        <path id="Path_1884" d="M3467.545 635.921l2.407-.769c.186-.06.576-.221.506-.484s-.5-.223-.68-.166l-2.407.769c-.186.059-.576.22-.506.484s.5.222.68.166z" class="cls-6"/>
                    </g>
                </g>
            </g>
        </g>
        <g id="Group_915">
            <g id="Group_914">
                <path id="Path_1885" d="M3390.194 632.842a18.865 18.865 0 0 1 13.115-6 20.3 20.3 0 0 1 10.408 2.4 18.653 18.653 0 0 1 3.672 2.568c.393.394 1.512-.1 1.083-.532a19.687 19.687 0 0 0-9.563-4.867 21.12 21.12 0 0 0-16.636 3.38 16.692 16.692 0 0 0-3.079 2.679c-.491.572.633.8 1 .376z" class="cls-3"/>
            </g>
            <path id="Path_1886" d="M3394.256 617.817a1.907 1.907 0 0 1-1.22 2.288 1.682 1.682 0 0 1-2.051-1.361 1.909 1.909 0 0 1 1.22-2.288 1.682 1.682 0 0 1 2.051 1.361z" class="cls-3"/>
            <ellipse id="Ellipse_175" cx="1.688" cy="1.883" class="cls-3" rx="1.688" ry="1.883" transform="translate(3414.292 617.035)"/>
        </g>
        <g id="Group_916">
            <path id="Path_1887" d="M3426.761 574.561c-5.434.652-11.283 1.367-16.457-.892-4.3-1.875-7.871-5.818-7.594-10.748.288-5.122 4.019-9.129 8.538-11.131a26.66 26.66 0 0 1 16.023-1.359c2.527.522 5.574 1.268 7.682 2.84 1.763 1.314 2.461 3.659.754 5.3a10.907 10.907 0 0 1-4.745 2.2c-1.709.469-3.444.907-5.19 1.21-8.905 1.549-19.012.078-26-6.042a16.7 16.7 0 0 1-5.891-12.191c-.015-4.777 2.683-9.127 6.3-12.073 7.251-5.9 17.336-7.577 26.421-7.619a82.971 82.971 0 0 1 13.41 1.078 25.428 25.428 0 0 1 7.011 1.774c2.2 1.05 4.442 3.244 3.855 5.917-.554 2.528-3.468 3.329-5.634 3.959a36.4 36.4 0 0 1-8.586 1.317 99.127 99.127 0 0 1-16.423-.842 88.505 88.505 0 0 1-15.172-3.1 33.038 33.038 0 0 1-10.15-4.813 16.5 16.5 0 0 1-6.183-8.74 19.768 19.768 0 0 1 .7-12.271c2.974-7.635 10.463-12.347 17.86-15.012a79.875 79.875 0 0 1 31.735-4.228 83.422 83.422 0 0 1 16.143 2.646 67.721 67.721 0 0 1 7.946 2.6c2.159.867 4.354 1.852 5.457 4.042 2.121 4.213-2.08 8.206-5.433 10.1a51.373 51.373 0 0 1-12.043 4.382 81.37 81.37 0 0 1-16.626 2.286c-5.333.282-10.686.472-16.027.386-10.286-.165-20.836-1.467-30.143-6.121-8.083-4.041-16.044-12.278-14.022-22.125.955-4.646 4.424-8.671 7.994-11.6a41.967 41.967 0 0 1 12.525-6.816c9.261-3.337 19.232-4.5 29.008-5.07a141.3 141.3 0 0 1 32.6 1.754 142.986 142.986 0 0 1 16.084 3.782c.335.1 1.4-.411.952-.545a144.066 144.066 0 0 0-68.793-3.21c-9.7 2.011-19.854 5.6-26.668 13.141-3.344 3.7-5.614 8.222-5.074 13.308a20.605 20.605 0 0 0 6.68 12.682c7.949 7.4 19.613 10.109 30.118 11.032a142.585 142.585 0 0 0 16.971.324 147.678 147.678 0 0 0 18.054-1.324 75.333 75.333 0 0 0 14.67-3.934c3.821-1.425 7.872-3.466 9.978-7.135a5.776 5.776 0 0 0 .229-5.9c-1.168-2.064-3.22-3.041-5.326-3.9a76.55 76.55 0 0 0-16.786-4.533 84.952 84.952 0 0 0-34.967 1.8c-8.307 2.2-17.11 5.924-22.123 13.286-4.69 6.89-4.966 16.932.958 23.194a26.479 26.479 0 0 0 10.282 6.248 76.543 76.543 0 0 0 14.585 3.531 110.126 110.126 0 0 0 18.153 1.368 44.8 44.8 0 0 0 8.379-.812 21.738 21.738 0 0 0 7.148-2.448 4.383 4.383 0 0 0 2.131-4.8c-.565-2.311-2.692-3.825-4.787-4.663a32.4 32.4 0 0 0-7.217-1.628q-3.581-.54-7.2-.792c-9.609-.666-19.768.2-28.469 4.631-4.233 2.155-8.1 5.214-10.221 9.562a14.767 14.767 0 0 0 .738 13.96c4.942 8.527 15.838 11.68 25.132 11.373 3.313-.11 21.786-1.989 17.284-9.027-1.359-2.125-4.351-2.963-6.628-3.634a31.953 31.953 0 0 0-7.819-1.293 25.807 25.807 0 0 0-14.827 3.625c-3.961 2.558-6.928 6.947-6.483 11.825.443 4.841 4.474 8.4 8.826 9.963 5.186 1.865 10.865 1.182 16.208.541.552-.066 1-.7.178-.6z" class="cls-3"/>
        </g>
    </g>
</svg>
