<svg xmlns="http://www.w3.org/2000/svg" width="21.088" height="21.089" viewBox="0 0 21.088 21.089">
    <defs>
        <style>
            .cls-1{fill:#808080}
        </style>
    </defs>
    <g id="Group_1199" transform="translate(-901.69 -483.902)">
        <g id="Group_1196">
            <path id="Path_1352" d="M912.234 483.9a10.544 10.544 0 1 0 10.544 10.545 10.557 10.557 0 0 0-10.544-10.545zm0 18.969a8.424 8.424 0 1 1 8.424-8.424 8.434 8.434 0 0 1-8.424 8.426z" class="cls-1"/>
        </g>
        <g id="Group_1198">
            <g id="Group_1197">
                <path id="Path_1353" d="M916.61 493.729h-3.658v-3.658a.718.718 0 0 0-1.436 0v3.658h-3.658a.718.718 0 0 0 0 1.436h3.658v3.657a.718.718 0 1 0 1.436 0v-3.657h3.658a.718.718 0 0 0 0-1.436z" class="cls-1"/>
                <path id="Path_1354" d="M912.234 499.791a.97.97 0 0 1-.968-.968v-3.408h-3.408a.968.968 0 0 1 0-1.936h3.408v-3.408a.968.968 0 0 1 1.936 0v3.408h3.409a.971.971 0 0 1 .967.969.971.971 0 0 1-.968.968h-3.41v3.408a.97.97 0 0 1-.968.968zm-4.376-5.812a.468.468 0 0 0 0 .936h3.908v3.908a.467.467 0 0 0 .8.329.463.463 0 0 0 .136-.329v-3.908h3.908a.471.471 0 0 0 .468-.468.47.47 0 0 0-.469-.469H912.7v-3.908a.468.468 0 0 0-.936 0v3.908z" class="cls-1"/>
            </g>
        </g>
    </g>
</svg>
