<?xml version="1.0" ?>
<!DOCTYPE svg  PUBLIC '-//W3C//DTD SVG 1.1//EN'  'http://www.w3.org/Graphics/SVG/1.1/DTD/svg11.dtd'>
<svg 
 enable-background="new 0 0 91 91"
 height="91px"
 width="91px" 
 id="Layer_1" 
 version="1.1" 
 viewBox="0 0 91 91" 
 xml:space="preserve" 
 xmlns="http://www.w3.org/2000/svg" 
 xmlns:xlink="http://www.w3.org/1999/xlink"
 >
<g>
<path d="M51.873,27.65H33.385v25.318h15.087v0.001h7.978c2.192,0,3.977-1.783,3.977-3.975V36.824l-8.553-0.001   V27.65z M36.785,49.568V31.051h11.688v5.772h-0.001v12.745H36.785z M57.025,40.225v8.771c0,0.312-0.264,0.574-0.576,0.574h-4.576   v-9.346L57.025,40.225z" fill="#1f901f"/>
<rect fill="#1f901f" height="2.828" width="3.4" x="38.57" y="44.604"/>
<rect fill="#1f901f" height="2.829" width="3.4" x="38.57" y="38.946"/>
<rect fill="#1f901f" height="2.829" width="3.4" x="38.57" y="33.289"/>
<rect fill="#1f901f" height="2.829" width="3.4" x="43.285" y="38.946"/>
<rect fill="#1f901f" height="2.828" width="3.4" x="43.285" y="44.604"/>
<rect fill="#1f901f" height="2.829" width="3.4" x="43.285" y="33.289"/>
<path d="M46.223,17.293c-12.951,0-23.488,10.537-23.488,23.488c0,10.587,7.275,19.985,17.428,22.695l4.471,11.758   c0.252,0.66,0.884,1.096,1.59,1.096c0.003,0,0.007,0,0.01,0c0.71-0.005,1.342-0.449,1.586-1.116l4.277-11.688   c10.263-2.645,17.615-12.061,17.615-22.745C69.711,27.83,59.174,17.293,46.223,17.293z M50.458,60.42   c-0.571,0.122-1.039,0.529-1.24,1.078l-3.026,8.27l-3.169-8.333c-0.202-0.533-0.66-0.93-1.217-1.055   c-9.08-2.036-15.671-10.278-15.671-19.599c0-11.076,9.012-20.088,20.088-20.088s20.088,9.012,20.088,20.088   C66.311,50.192,59.644,58.451,50.458,60.42z" fill="#1f901f"/>
</g>
</svg>