<svg xmlns="http://www.w3.org/2000/svg" width="35.313" height="33.099" viewBox="0 0 35.313 33.099">
    <defs>
        <style>
            .cls-1{fill:#1582c8}
        </style>
    </defs>
    <g id="Group_282" transform="translate(-4179.99 -1519.581)">
        <path id="Path_497" d="M4197.846 1538.146a5.883 5.883 0 0 1-2.894-.653q-6.891-3.629-13.78-7.26a1.523 1.523 0 0 1 0-2.771q6.847-3.584 13.7-7.168a5.744 5.744 0 0 1 5.609.037q6.786 3.571 13.57 7.15a1.531 1.531 0 0 1 0 2.827q-6.814 3.563-13.62 7.139a5.657 5.657 0 0 1-2.585.699zm-.225-2.125l.03-.1a3.791 3.791 0 0 0 1.814-.482q5.772-3.034 11.549-6.064c.187-.1.431-.31.435-.475s-.237-.382-.422-.481c-3.841-2.039-7.692-4.058-11.532-6.1a3.718 3.718 0 0 0-3.7-.018q-5.823 3.068-11.651 6.124c-.154.082-.36.283-.347.409a.715.715 0 0 0 .362.449q5.884 3.12 11.788 6.2a10.051 10.051 0 0 0 1.674.538z" class="cls-1"/>
        <path id="Path_498" d="M4197.7 1545.579a5.649 5.649 0 0 1-2.622-.59q-7.208-3.615-14.413-7.236a1.112 1.112 0 1 1 1.015-1.972q5.83 2.921 11.657 5.851c.872.437 1.741.879 2.615 1.312a3.626 3.626 0 0 0 3.385.007q6.9-3.44 13.79-6.889c.188-.094.375-.192.568-.277a1.107 1.107 0 1 1 .963 1.993c-1.009.516-2.025 1.018-3.038 1.525q-5.516 2.758-11.029 5.519a6.209 6.209 0 0 1-2.891.757z" class="cls-1"/>
        <path id="Path_499" d="M4197.652 1552.68a5.807 5.807 0 0 1-2.522-.578l-14.294-6.836a1.218 1.218 0 0 1-.816-.935 1.056 1.056 0 0 1 .457-1.069 1.126 1.126 0 0 1 1.2-.059q2.389 1.14 4.777 2.285l9.551 4.573a3.654 3.654 0 0 0 3.313-.01q7.115-3.393 14.235-6.775a1.117 1.117 0 0 1 1.723 1.031 1.143 1.143 0 0 1-.758.975q-2.964 1.4-5.923 2.817-4.122 1.962-8.241 3.925a6.186 6.186 0 0 1-2.702.656z" class="cls-1"/>
    </g>
</svg>
