<?xml version="1.0" encoding="UTF-8" standalone="no" ?>
<!DOCTYPE svg PUBLIC "-//W3C//DTD SVG 1.1//EN" "http://www.w3.org/Graphics/SVG/1.1/DTD/svg11.dtd">
<svg xmlns="http://www.w3.org/2000/svg" xmlns:xlink="http://www.w3.org/1999/xlink" version="1.1" width="1080" height="1080" viewBox="0 0 1080 1080" xml:space="preserve">
<desc>Created with Fabric.js 5.2.4</desc>
<defs>
</defs>
<g transform="matrix(1 0 0 1 540 540)" id="2c633e49-6f5f-4453-8a41-a096c6ab032e"  >
<rect style="stroke: none; stroke-width: 1; stroke-dasharray: none; stroke-linecap: butt; stroke-dashoffset: 0; stroke-linejoin: miter; stroke-miterlimit: 4; fill: rgb(255,255,255); fill-rule: nonzero; opacity: 1; visibility: hidden;" vector-effect="non-scaling-stroke"  x="-540" y="-540" rx="0" ry="0" width="1080" height="1080" />
</g>
<g transform="matrix(1 0 0 1 540 540)" id="99535a8b-874a-47f5-b217-cdf53629e8a6"  >
</g>
<g transform="matrix(1 0 0 1 540 540)" id="ebcd2bf4-c8cd-4655-a80a-c616c1ea29eb"  >
<path style="stroke: rgb(0,0,0); stroke-width: 0; stroke-dasharray: none; stroke-linecap: butt; stroke-dashoffset: 0; stroke-linejoin: miter; stroke-miterlimit: 4; fill: rgb(21,130,200); fill-rule: nonzero; opacity: 1;" vector-effect="non-scaling-stroke"  transform=" translate(-275.37, -219.36)" d="M 113.988281 36.46875 C 112.777344 36.976562 111.058594 38.394531 110.148438 39.710938 C 108.632812 41.738281 108.53125 58.148438 108.53125 219.929688 L 108.53125 397.824219 L 110.65625 400.558594 L 112.675781 403.191406 L 200.109375 403.191406 C 286.125 403.191406 287.4375 403.191406 289.457031 401.167969 C 290.875 399.746094 291.480469 397.722656 291.480469 394.78125 C 291.582031 392.453125 291.480469 368.339844 291.480469 341.195312 L 291.378906 291.859375 L 293.601562 290.640625 C 296.839844 288.917969 328.878906 290.035156 340 292.261719 C 367.492188 297.632812 391.144531 307.761719 417.929688 325.289062 C 425.410156 330.25 432.683594 334.304688 433.898438 334.304688 C 436.929688 334.304688 442.085938 329.035156 442.085938 325.996094 C 442.085938 321.945312 439.15625 319.109375 426.519531 310.800781 C 410.449219 300.164062 385.785156 288.007812 370.121094 282.839844 C 348.183594 275.648438 321.300781 271.699219 302.398438 272.8125 L 292.492188 273.421875 L 292.289062 245.660156 C 292.1875 230.367188 292.085938 215.371094 291.984375 212.4375 L 291.984375 207.167969 L 311.191406 207.167969 C 334.035156 207.167969 343.738281 208.6875 364.761719 215.574219 C 381.640625 221.042969 400.441406 230.367188 418.128906 242.015625 C 432.585938 251.539062 435.816406 252.347656 439.859375 247.691406 C 444.8125 241.8125 442.488281 237.964844 427.53125 228.136719 C 387.304688 201.492188 346.367188 188.527344 304.925781 189.542969 L 292.59375 189.84375 L 292.289062 157.023438 L 291.984375 124.097656 L 301.082031 123.390625 C 306.136719 123.082031 315.738281 123.1875 322.511719 123.691406 C 356.574219 126.125 387.808594 137.976562 421.972656 161.277344 C 431.167969 167.457031 434.707031 168.46875 438.75 165.632812 C 441.480469 163.707031 442.691406 158.035156 441.175781 155.097656 C 439.253906 151.652344 416.414062 137.164062 399.632812 128.757812 C 381.84375 119.945312 363.75 113.460938 345.757812 109.710938 C 335.957031 107.6875 329.179688 106.976562 313.007812 106.472656 L 292.59375 105.863281 L 292.1875 73.953125 C 291.882812 52.78125 291.378906 41.230469 290.671875 39.8125 C 290.066406 38.699219 288.042969 37.179688 286.324219 36.570312 C 282.382812 35.253906 117.328125 35.152344 113.988281 36.46875 Z M 275.105469 80.234375 L 274.800781 107.886719 L 269.75 108.699219 C 250.242188 111.941406 232.550781 115.386719 207.082031 121.058594 C 170.089844 129.261719 155.9375 131.59375 139.15625 132.40625 L 125.714844 133.011719 L 125.714844 52.679688 L 275.308594 52.679688 Z M 275.308594 158.542969 C 275.308594 178.296875 274.902344 191.464844 274.398438 191.464844 C 270.253906 191.464844 232.652344 198.65625 206.574219 204.535156 C 168.671875 212.941406 150.78125 215.777344 136.429688 215.777344 L 125.714844 215.777344 L 125.714844 149.929688 L 133.699219 149.929688 C 151.894531 149.929688 172.515625 146.789062 212.539062 137.875 C 246.199219 130.378906 267.929688 126.023438 273.085938 125.71875 L 275.308594 125.617188 Z M 274.800781 242.21875 L 274.800781 274.941406 L 265.605469 276.257812 C 252.972656 277.878906 239.121094 280.613281 207.585938 287.703125 C 192.828125 290.945312 175.546875 294.59375 169.175781 295.808594 C 155.9375 298.140625 129.859375 300.46875 127.332031 299.554688 C 125.917969 298.949219 125.714844 295.605469 125.714844 266.128906 L 125.714844 233.304688 L 141.179688 232.695312 C 162.304688 231.785156 174.433594 229.757812 220.222656 219.425781 C 231.339844 216.996094 246.601562 213.75 254.082031 212.335938 C 271.265625 209.09375 272.582031 208.890625 273.792969 209.195312 C 274.398438 209.292969 274.800781 221.148438 274.800781 242.21875 Z M 275.105469 339.574219 L 274.800781 386.476562 L 200.308594 386.777344 L 125.714844 386.980469 L 125.714844 316.371094 L 142.191406 315.765625 C 161.496094 315.054688 173.21875 313.234375 210.621094 304.824219 C 244.277344 297.328125 266.414062 292.972656 271.570312 292.871094 L 275.308594 292.769531 Z M 275.105469 339.574219" stroke-linecap="round" />
</g>
<g transform="matrix(NaN NaN NaN NaN 0 0)"  >
<g style=""   >
</g>
</g>
</svg>