<svg xmlns="http://www.w3.org/2000/svg" width="35.296" height="31.255">
    <defs>
        <style>
            .cls-1{fill:#1582c8}
        </style>
    </defs>
    <g id="Group_23" data-name="Group 23" transform="translate(-2732.379 -959.896)">
        <g id="Group_22" data-name="Group 22">
            <g id="Group_21" data-name="Group 21">
                <circle id="Ellipse_1" data-name="Ellipse 1" class="cls-1" cx="2.425" cy="2.425" r="2.425" transform="translate(2743.258 967.609)"/>
                <path id="Path_46" data-name="Path 46" class="cls-1" d="M2765.587 978.959a7.464 7.464 0 0 0-4.176-1.987v-12.327a4.849 4.849 0 0 0-1.381-3.368 4.7 4.7 0 0 0-3.368-1.381h-19.534a4.847 4.847 0 0 0-3.368 1.381 4.7 4.7 0 0 0-1.381 3.368v20.107a4.85 4.85 0 0 0 1.381 3.368 4.707 4.707 0 0 0 3.368 1.381h18.894a7.126 7.126 0 0 0 9.565-10.542zm-31.423-14.314a2.822 2.822 0 0 1 .876-2.055 2.955 2.955 0 0 1 2.088-.875h19.534a2.989 2.989 0 0 1 2.964 2.964v10.508l-4.985-4.985a.9.9 0 0 0-1.28 0l-7.51 7.544-5.086-5.119a.9.9 0 0 0-1.28 0l-5.321 5.389zm2.93 23.138v-.067a2.955 2.955 0 0 1-2.088-.876 3.075 3.075 0 0 1-.842-2.088v-4.177l5.961-5.995 5.086 5.086a.937.937 0 0 0 1.28 0l7.51-7.544 4.918 4.951-.3.1a3.077 3.077 0 0 0-.437.134c-.135.034-.27.1-.405.135a1.031 1.031 0 0 0-.269.135 3.123 3.123 0 0 0-.337.168l-.5.3c-.1.068-.168.1-.269.169-.068.034-.1.067-.169.1a4.08 4.08 0 0 0-.808.707 7.125 7.125 0 0 0-2.088 5.052 7.4 7.4 0 0 0 .168 1.482c.034.135.068.236.1.371.1.336.2.673.337 1.01v.034a6.158 6.158 0 0 0 .438.808zm27.18 0a5.329 5.329 0 0 1-7.444.067c-.134-.134-.269-.3-.4-.438-.1-.1-.2-.235-.3-.336a3.211 3.211 0 0 1-.337-.573c-.067-.135-.134-.236-.2-.37a2.91 2.91 0 0 1-.168-.573c-.034-.135-.1-.3-.135-.438a5.612 5.612 0 0 1-.1-1.078 5.407 5.407 0 0 1 1.549-3.772 5.212 5.212 0 0 1 3.773-1.549 5.407 5.407 0 0 1 3.772 1.549 5.269 5.269 0 0 1 1.549 3.772 5.387 5.387 0 0 1-1.559 3.739z"/>
                <path id="Path_47" data-name="Path 47" class="cls-1" d="M2761.141 980.407a1.167 1.167 0 0 0-.3-.2.971.971 0 0 0-.3-.067h-.067a.973.973 0 0 0-.3.067.8.8 0 0 0-.3.2l-2.089 2.088a.905.905 0 0 0 1.28 1.28l.539-.539v3.7a.909.909 0 0 0 1.819 0v-3.7l.539.539a.905.905 0 0 0 1.28-1.28z"/>
            </g>
        </g>
    </g>
</svg>
