<svg id="svg" xmlns="http://www.w3.org/2000/svg" xmlns:xlink="http://www.w3.org/1999/xlink" width="400" height="400" viewBox="0, 0, 400,400"><g id="svgg"><path id="path0" d="M119.304 62.488 C 118.857 62.669,118.022 63.374,117.449 64.056 L 116.406 65.294 116.406 200.975 C 116.406 275.599,116.513 336.933,116.643 337.273 C 116.857 337.829,119.974 337.891,147.893 337.891 L 178.906 337.891 178.906 308.594 L 178.906 279.297 200.586 279.297 L 222.266 279.297 222.266 308.594 L 222.266 337.891 253.307 337.891 C 283.596 337.891,284.357 337.872,284.752 337.135 C 285.496 335.745,285.298 66.250,284.551 64.807 C 283.021 61.848,291.216 62.109,200.781 62.136 C 156.416 62.148,119.751 62.307,119.304 62.488 M290.234 196.094 L 290.234 296.484 326.191 296.484 C 365.883 296.484,363.665 296.624,365.250 294.024 C 366.276 292.341,366.475 101.074,365.453 98.629 C 364.149 95.507,366.818 95.706,326.270 95.705 L 290.234 95.703 290.234 196.094 M165.144 106.543 L 165.249 115.625 156.062 115.625 L 146.875 115.625 146.875 106.438 L 146.875 97.251 155.957 97.356 L 165.039 97.461 165.144 106.543 M209.285 106.543 L 209.389 115.625 200.007 115.625 L 190.625 115.625 190.625 106.706 C 190.625 101.800,190.745 97.666,190.892 97.519 C 191.040 97.372,195.214 97.299,200.170 97.356 L 209.180 97.461 209.285 106.543 M253.125 106.445 L 253.125 115.625 243.945 115.625 L 234.766 115.625 234.766 106.706 C 234.766 101.800,234.883 97.669,235.026 97.526 C 235.169 97.383,239.300 97.266,244.206 97.266 L 253.125 97.266 253.125 106.445 M36.743 115.558 C 33.718 117.180,33.984 108.451,33.986 205.853 C 33.987 291.373,34.000 292.794,34.750 294.024 C 36.336 296.626,34.055 296.484,74.395 296.484 L 110.938 296.484 110.938 205.664 L 110.938 114.844 74.506 114.844 C 39.968 114.844,38.005 114.881,36.743 115.558 M329.688 141.211 L 329.688 150.391 320.508 150.391 L 311.328 150.391 311.328 141.211 L 311.328 132.031 320.508 132.031 L 329.688 132.031 329.688 141.211 M89.453 150.977 L 89.453 160.156 80.273 160.156 L 71.094 160.156 71.094 150.977 L 71.094 141.797 80.273 141.797 L 89.453 141.797 89.453 150.977 M165.234 163.867 L 165.234 173.047 156.055 173.047 L 146.875 173.047 146.875 163.867 L 146.875 154.688 156.055 154.688 L 165.234 154.688 165.234 163.867 M209.285 163.770 L 209.180 172.852 200.000 172.852 L 190.820 172.852 190.715 163.770 L 190.611 154.688 200.000 154.688 L 209.389 154.688 209.285 163.770 M253.125 163.867 L 253.125 173.047 243.945 173.047 L 234.766 173.047 234.766 163.867 L 234.766 154.688 243.945 154.688 L 253.125 154.688 253.125 163.867 M329.597 196.191 L 329.492 205.273 320.410 205.378 L 311.328 205.483 311.328 196.296 L 311.328 187.109 320.515 187.109 L 329.702 187.109 329.597 196.191 M89.453 205.664 L 89.453 214.844 80.273 214.844 L 71.094 214.844 71.094 205.664 L 71.094 196.484 80.273 196.484 L 89.453 196.484 89.453 205.664 M165.144 221.191 L 165.039 230.273 155.957 230.378 L 146.875 230.483 146.875 221.296 L 146.875 212.109 156.062 212.109 L 165.249 212.109 165.144 221.191 M209.285 221.191 L 209.180 230.273 200.000 230.273 L 190.820 230.273 190.715 221.191 L 190.611 212.109 200.000 212.109 L 209.389 212.109 209.285 221.191 M253.125 221.296 L 253.125 230.483 244.043 230.378 L 234.961 230.273 234.856 221.191 L 234.751 212.109 243.938 212.109 L 253.125 212.109 253.125 221.296 M329.688 250.977 L 329.688 260.156 320.508 260.156 L 311.328 260.156 311.328 250.977 L 311.328 241.797 320.508 241.797 L 329.688 241.797 329.688 250.977 M89.453 260.742 L 89.453 269.922 80.273 269.922 L 71.094 269.922 71.094 260.742 L 71.094 251.563 80.273 251.563 L 89.453 251.563 89.453 260.742 " stroke="none" fill="#000000" fill-rule="evenodd"></path></g></svg>