<svg id="svg" xmlns="http://www.w3.org/2000/svg" xmlns:xlink="http://www.w3.org/1999/xlink" width="400" height="400" viewBox="0, 0, 400,400"><g id="svgg"><path id="path0" d="M167.619 54.386 C 158.538 56.027,151.895 64.303,151.827 74.060 C 151.772 81.827,154.045 86.059,161.033 91.198 C 170.156 97.906,175.112 105.337,178.161 116.876 C 180.394 125.329,180.582 124.517,176.085 125.862 C 169.566 127.812,161.178 132.003,153.851 136.973 C 152.654 137.784,151.459 138.498,151.195 138.559 C 150.660 138.682,149.705 135.246,149.679 133.099 C 149.586 125.574,145.961 118.306,140.460 114.617 C 127.032 105.611,108.907 115.156,108.789 131.296 C 108.776 133.077,109.011 134.302,110.055 137.893 C 110.758 140.311,113.916 144.810,116.172 146.606 C 120.112 149.743,123.303 150.821,132.252 152.035 C 136.628 152.629,136.678 152.721,134.521 156.291 C 133.583 157.843,132.062 160.501,131.142 162.199 C 130.221 163.896,129.019 166.066,128.471 167.020 C 127.923 167.975,127.227 169.241,126.923 169.833 C 124.265 175.019,119.313 176.328,111.090 174.018 C 110.347 173.810,108.611 173.353,107.232 173.004 C 105.853 172.654,104.378 172.224,103.954 172.048 C 103.529 171.873,102.067 171.343,100.704 170.872 C 94.252 168.642,88.003 163.883,83.039 157.421 C 78.330 151.289,75.606 148.932,71.553 147.479 C 68.147 146.258,58.542 146.715,56.914 148.176 C 56.713 148.357,56.313 148.505,56.025 148.505 C 55.036 148.505,51.007 151.560,49.500 153.452 C 35.608 170.900,53.261 193.659,73.752 184.717 C 85.794 179.462,90.582 179.303,107.739 183.583 C 120.127 186.673,120.579 187.404,119.562 202.700 C 118.751 214.885,118.592 215.420,116.297 213.718 C 116.085 213.560,114.436 212.867,112.633 212.176 C 110.829 211.485,109.007 210.773,108.582 210.593 C 107.851 210.282,106.417 210.022,103.375 209.645 C 97.510 208.920,89.208 213.135,85.684 218.626 C 76.936 232.259,86.344 249.753,102.411 249.730 C 110.258 249.719,114.183 247.479,120.502 239.403 C 122.602 236.719,124.532 234.523,124.790 234.523 C 125.317 234.523,126.270 235.897,130.002 242.036 C 131.423 244.374,134.160 248.781,136.085 251.828 C 140.135 258.238,140.167 257.587,135.634 260.976 C 128.927 265.991,123.853 267.958,114.368 269.219 C 104.066 270.589,98.955 274.268,95.817 282.572 C 89.594 299.042,106.613 315.035,122.762 307.892 C 129.931 304.720,134.923 297.208,134.991 289.489 C 135.013 287.046,136.453 280.733,137.586 278.110 C 139.628 273.387,141.832 269.866,144.856 266.495 C 147.123 263.969,147.124 263.969,149.174 265.641 C 157.235 272.217,164.477 276.275,174.928 280.071 C 176.625 280.688,178.284 281.193,178.615 281.194 C 180.337 281.199,180.667 282.057,179.965 284.699 C 179.045 288.166,177.825 292.746,177.456 294.118 C 175.468 301.515,169.889 309.236,162.501 314.812 C 151.349 323.230,148.737 334.450,155.685 344.095 C 169.781 363.666,200.650 346.621,190.661 324.783 C 186.175 314.977,185.047 305.172,187.289 295.468 C 189.835 284.444,189.952 284.282,195.325 284.282 C 197.343 284.282,201.129 284.118,203.740 283.918 C 206.350 283.718,211.046 283.457,214.176 283.338 C 220.808 283.086,220.424 282.719,218.747 287.707 C 215.396 297.674,216.393 303.842,222.436 310.531 C 232.404 321.564,252.184 317.071,256.238 302.853 C 257.058 299.977,257.017 292.564,256.169 290.204 C 254.266 284.912,252.070 282.483,245.034 277.885 C 239.698 274.399,239.671 275.072,245.306 271.143 C 246.695 270.175,249.356 268.309,251.220 266.996 C 255.340 264.095,255.120 264.101,257.512 266.827 C 263.106 273.203,265.924 280.149,267.333 291.032 C 270.034 311.898,296.511 316.840,305.566 298.168 C 311.924 285.059,303.916 271.839,287.946 269.081 C 276.344 267.077,270.960 265.058,265.901 260.814 C 262.515 257.974,262.515 257.923,265.796 252.237 C 269.843 245.226,269.739 245.402,271.887 241.920 C 272.976 240.154,273.867 238.638,273.867 238.552 C 273.867 237.094,278.103 232.544,280.325 231.615 C 282.981 230.506,285.441 230.815,295.661 233.548 C 306.230 236.374,314.509 242.024,320.063 250.203 C 331.652 267.268,357.222 259.920,357.175 239.539 C 357.137 223.516,342.500 215.141,326.839 222.182 C 319.958 225.276,309.678 226.651,303.863 225.256 C 302.958 225.039,300.048 224.343,297.396 223.709 C 287.358 221.310,284.974 220.216,283.198 217.195 L 282.160 215.429 282.191 207.302 C 282.227 197.750,282.137 198.036,284.779 199.087 C 289.664 201.030,298.643 201.930,301.292 200.742 C 307.295 198.050,310.428 195.114,312.784 189.971 C 321.074 171.876,300.807 154.050,283.848 164.520 C 282.920 165.093,280.904 166.795,279.368 168.302 C 277.689 169.950,276.447 170.894,276.252 170.670 C 276.073 170.466,273.963 167.175,271.562 163.356 C 269.162 159.537,266.182 154.806,264.940 152.842 C 263.697 150.878,262.681 149.030,262.681 148.737 C 262.681 147.878,270.139 142.477,273.592 140.836 C 277.290 139.078,285.418 136.936,288.406 136.931 C 289.835 136.929,291.338 136.624,294.503 135.692 C 304.938 132.620,310.667 118.458,305.642 108.160 C 300.094 96.791,286.475 93.282,275.688 100.443 C 272.444 102.595,268.467 107.871,268.467 110.021 C 268.467 110.326,268.337 110.705,268.178 110.864 C 267.794 111.248,266.993 115.876,266.954 117.931 C 266.836 124.281,262.325 134.401,257.151 139.921 C 255.279 141.917,255.442 141.914,252.652 140.019 C 251.402 139.171,250.288 138.476,250.177 138.476 C 250.065 138.476,248.426 137.478,246.534 136.258 C 244.643 135.039,241.059 132.742,238.570 131.155 C 234.205 128.373,233.246 127.495,233.987 126.962 C 234.631 126.498,238.254 122.096,239.272 120.540 C 245.570 110.912,241.587 96.153,231.437 91.502 C 230.270 90.967,228.902 90.340,228.396 90.109 C 226.519 89.252,218.384 89.579,215.815 90.615 C 206.283 94.461,201.291 103.053,203.290 112.172 C 203.508 113.168,203.870 114.851,204.095 115.911 C 204.319 116.972,204.775 118.586,205.107 119.497 C 205.941 121.785,205.918 121.794,197.982 122.105 C 189.202 122.450,189.410 122.585,187.832 115.526 C 187.452 113.828,186.840 111.311,186.471 109.932 C 185.554 106.509,185.527 95.678,186.427 92.575 C 186.766 91.408,187.152 90.019,187.285 89.489 C 187.599 88.245,187.840 87.645,189.599 83.749 C 196.899 67.571,184.717 51.297,167.619 54.386 M167.059 170.528 C 188.778 177.514,185.085 208.345,162.410 209.346 C 142.395 210.229,134.194 184.180,150.979 173.038 C 154.952 170.401,162.837 169.170,167.059 170.528 M238.588 171.019 C 247.404 175.124,247.218 188.254,238.290 192.095 C 226.770 197.050,216.542 182.891,224.992 173.686 C 228.293 170.090,234.133 168.944,238.588 171.019 M211.585 216.959 C 218.219 218.687,223.195 223.239,225.516 229.702 C 226.375 232.094,226.490 239.025,225.704 241.080 C 218.610 259.639,193.718 259.041,188.817 240.193 C 185.287 226.618,198.175 213.466,211.585 216.959 " stroke="none" fill="#000000" fill-rule="evenodd"></path></g></svg>