<svg id="svg" xmlns="http://www.w3.org/2000/svg" xmlns:xlink="http://www.w3.org/1999/xlink" width="400" height="341.8181818181818" viewBox="0, 0, 400,341.8181818181818"><g id="svgg"><path id="path0" d="M183.667 40.159 C 165.160 50.200,165.464 81.198,184.163 90.868 C 196.317 97.153,207.378 95.625,217.611 86.247 C 242.832 63.134,213.849 23.782,183.667 40.159 M205.099 46.156 C 214.162 49.602,218.013 55.371,218.105 65.638 C 218.240 80.842,202.541 90.591,189.108 83.645 C 166.353 71.878,181.201 37.070,205.099 46.156 M105.183 79.952 C 97.494 83.059,89.697 94.293,89.697 102.265 C 89.697 122.555,108.258 134.054,126.109 124.823 C 153.353 110.735,133.636 68.455,105.183 79.952 M269.637 82.434 C 254.718 91.530,253.406 110.894,266.935 122.278 C 276.686 130.483,288.163 130.483,297.913 122.278 C 321.602 102.346,296.044 66.334,269.637 82.434 M126.061 92.121 C 139.940 106.001,122.139 125.942,104.362 116.428 C 95.789 111.839,96.311 95.071,105.211 89.128 C 110.302 85.729,121.238 87.299,126.061 92.121 M293.749 91.285 C 303.854 100.430,296.214 119.394,282.424 119.394 C 268.874 119.394,261.453 101.900,270.679 91.706 C 275.678 86.182,287.864 85.960,293.749 91.285 M167.496 104.660 C 150.015 116.599,149.175 119.298,148.329 166.230 L 147.566 208.485 156.207 208.485 L 164.848 208.485 164.848 248.485 C 164.848 282.424,165.399 288.485,168.485 288.485 C 171.596 288.485,172.121 281.481,172.121 240.000 C 172.121 198.519,171.596 191.515,168.485 191.515 C 166.485 191.515,164.848 193.152,164.848 195.152 C 164.848 197.226,162.668 198.788,159.773 198.788 C 152.993 198.788,153.555 135.052,160.446 122.339 C 172.189 100.676,225.563 101.744,236.934 123.870 C 241.662 133.069,241.161 198.788,236.364 198.788 C 234.364 198.788,232.727 197.152,232.727 195.152 C 232.727 193.131,230.572 191.515,227.879 191.515 C 223.192 191.515,223.030 193.131,223.030 240.000 C 223.030 286.869,223.192 288.485,227.879 288.485 C 232.531 288.485,232.727 286.869,232.727 248.485 L 232.727 208.485 241.416 208.485 L 250.106 208.485 249.295 167.879 C 248.407 123.368,246.512 116.574,231.951 105.708 C 220.978 97.519,178.951 96.836,167.496 104.660 M86.697 137.128 C 74.771 143.599,72.727 151.362,72.727 190.183 L 72.727 225.455 81.212 225.455 L 89.697 225.455 89.697 256.970 C 89.697 283.367,90.287 288.485,93.333 288.485 C 96.419 288.485,96.970 282.424,96.970 248.485 C 96.970 214.545,96.419 208.485,93.333 208.485 C 91.333 208.485,89.697 210.121,89.697 212.121 C 89.697 214.141,87.542 215.758,84.848 215.758 C 80.280 215.758,80.000 214.141,80.000 187.758 C 80.000 145.014,83.754 140.606,120.158 140.606 C 136.718 140.606,140.606 139.915,140.606 136.970 C 140.606 131.804,96.270 131.934,86.697 137.128 M256.970 136.970 C 256.970 139.919,260.893 140.606,277.735 140.606 C 312.495 140.606,314.971 143.540,315.074 184.848 C 315.139 210.741,314.561 215.758,311.515 215.758 C 309.515 215.758,307.879 214.121,307.879 212.121 C 307.879 210.101,305.724 208.485,303.030 208.485 C 298.378 208.485,298.182 210.101,298.182 248.485 C 298.182 286.869,298.378 288.485,303.030 288.485 C 307.630 288.485,307.879 286.869,307.879 256.970 L 307.879 225.455 316.534 225.455 L 325.190 225.455 324.413 187.686 L 323.636 149.918 314.581 141.626 C 304.188 132.109,256.970 128.292,256.970 136.970 M130.909 248.663 C 130.909 285.621,131.249 288.775,135.152 288.027 C 138.884 287.311,139.476 283.499,140.072 256.334 L 140.751 225.455 147.951 225.455 C 153.535 225.455,155.152 224.366,155.152 220.606 C 155.152 216.835,153.535 215.758,147.879 215.758 C 143.030 215.758,140.606 214.545,140.606 212.121 C 140.606 210.101,138.451 208.485,135.758 208.485 C 131.104 208.485,130.909 210.101,130.909 248.663 M193.939 248.663 C 193.939 285.621,194.279 288.775,198.182 288.026 C 205.271 286.664,205.926 208.485,198.848 208.485 C 194.117 208.485,193.939 209.937,193.939 248.663 M256.970 211.968 C 256.970 214.123,253.974 215.740,249.111 216.210 C 237.299 217.352,236.594 225.455,248.307 225.455 L 256.970 225.455 256.970 256.970 C 256.970 286.869,257.218 288.485,261.818 288.485 C 266.471 288.485,266.667 286.869,266.667 248.485 C 266.667 210.101,266.471 208.485,261.818 208.485 C 259.152 208.485,256.970 210.052,256.970 211.968 M109.091 256.970 C 109.091 286.869,109.340 288.485,113.939 288.485 C 118.539 288.485,118.788 286.869,118.788 256.970 C 118.788 227.071,118.539 225.455,113.939 225.455 C 109.340 225.455,109.091 227.071,109.091 256.970 M278.788 256.970 C 278.788 283.367,279.378 288.485,282.424 288.485 C 285.470 288.485,286.061 283.367,286.061 256.970 C 286.061 230.572,285.470 225.455,282.424 225.455 C 279.378 225.455,278.788 230.572,278.788 256.970 " stroke="none" fill="#000000" fill-rule="evenodd"></path></g></svg>