<svg id="svg" xmlns="http://www.w3.org/2000/svg" xmlns:xlink="http://www.w3.org/1999/xlink" width="400" height="352.65306122448976" viewBox="0, 0, 400,352.65306122448976"><g id="svgg"><path id="path0" d="M184.286 0.676 C 70.715 9.731,-12.776 112.561,1.651 225.614 C 7.539 271.755,28.999 313.578,63.691 346.520 L 69.791 352.313 80.321 341.565 C 86.113 335.653,99.441 322.017,109.939 311.263 L 129.026 291.710 118.901 281.807 L 108.776 271.903 93.986 286.658 C 81.064 299.548,79.123 301.336,78.617 300.808 C 74.957 296.991,63.687 279.278,59.247 270.363 C 51.055 253.915,44.744 232.735,43.805 218.535 L 43.559 214.825 48.208 214.557 C 50.765 214.410,60.066 214.289,68.878 214.288 L 84.898 214.286 84.898 200.000 L 84.898 185.714 64.029 185.714 L 43.160 185.714 43.446 182.755 C 44.945 167.274,50.520 148.283,58.334 132.041 C 65.463 117.225,75.998 101.224,78.626 101.224 C 80.493 101.224,83.177 103.536,95.526 115.783 L 108.807 128.954 118.789 118.966 L 128.770 108.979 113.941 94.146 L 99.113 79.313 102.720 76.454 C 119.475 63.172,140.713 52.780,161.764 47.562 C 167.481 46.145,182.580 43.265,184.293 43.265 C 185.362 43.265,185.714 50.364,185.714 71.915 C 185.714 81.638,185.831 84.552,186.224 84.676 C 186.505 84.764,192.934 84.956,200.510 85.104 L 214.286 85.371 214.289 67.277 C 214.290 57.326,214.409 47.944,214.552 46.429 L 214.812 43.673 216.971 43.673 C 223.985 43.673,246.710 49.333,258.776 54.085 C 270.846 58.838,292.238 71.031,297.653 76.243 C 300.906 79.374,300.520 79.960,284.752 95.827 L 271.661 109.001 281.644 118.991 L 291.627 128.981 306.326 114.286 C 314.410 106.204,321.163 99.592,321.332 99.592 C 321.501 99.592,323.497 102.085,325.767 105.133 C 343.093 128.389,352.564 152.174,356.922 183.367 L 357.193 185.306 346.214 185.306 C 340.175 185.306,330.796 185.427,325.372 185.575 L 315.510 185.845 315.510 200.065 L 315.510 214.286 336.175 214.286 L 356.840 214.286 356.557 217.653 C 354.403 243.307,344.184 269.328,326.590 293.962 L 321.429 301.190 316.735 296.617 C 314.153 294.102,307.448 287.498,301.834 281.941 L 291.627 271.837 281.640 281.830 L 271.653 291.823 273.302 293.564 C 275.178 295.546,315.997 337.557,324.718 346.483 L 330.457 352.356 336.770 346.401 C 411.688 275.738,421.503 161.303,359.654 79.593 C 325.563 34.554,273.440 5.661,217.551 0.822 C 213.348 0.458,188.393 0.348,184.286 0.676 M140.425 141.257 C 147.311 154.122,179.008 206.734,183.707 213.097 C 197.251 231.434,226.296 216.549,220.476 194.253 C 218.305 185.933,215.093 183.660,160.403 151.737 C 140.777 140.280,139.562 139.643,140.425 141.257 " stroke="none" fill="#000000" fill-rule="evenodd"></path></g></svg>