<svg id="svg" xmlns="http://www.w3.org/2000/svg" xmlns:xlink="http://www.w3.org/1999/xlink" width="400" height="331.70731707317077" viewBox="0, 0, 400,331.70731707317077"><g id="svgg"><path id="path0" d="M166.385 53.535 C 44.712 83.018,66.334 263.451,191.633 264.230 C 209.083 264.339,210.627 264.658,211.145 268.271 C 211.694 272.099,213.093 272.195,268.293 272.195 L 324.878 272.195 325.461 257.563 C 325.782 249.516,326.879 242.096,327.900 241.075 C 328.921 240.055,329.756 229.932,329.756 218.580 C 329.756 191.443,328.373 189.268,311.109 189.268 C 296.621 189.268,297.534 191.161,298.404 162.927 C 300.605 91.524,234.762 36.967,166.385 53.535 M215.213 61.442 C 260.771 73.309,292.485 115.028,290.342 160.275 C 289.404 180.078,282.946 179.542,282.879 159.655 C 282.602 76.666,186.002 35.028,127.569 92.710 C 68.384 151.136,109.123 248.780,192.683 248.780 C 211.809 248.780,219.166 253.435,204.634 256.341 C 162.799 264.709,112.478 233.587,97.505 190.086 C 72.128 116.361,140.245 41.915,215.213 61.442 M187.317 76.864 C 187.317 81.460,193.402 82.463,194.554 78.057 C 196.925 68.993,229.170 79.211,247.595 94.865 C 248.016 95.223,247.195 96.921,245.769 98.638 C 242.458 102.628,247.131 106.403,251.201 103.025 C 252.605 101.860,254.046 101.252,254.404 101.673 C 270.049 120.089,280.276 152.343,271.220 154.712 C 266.140 156.040,266.203 160.074,271.325 161.413 C 282.109 164.233,275.059 172.647,261.463 173.182 C 242.563 173.926,240.325 174.782,238.471 181.976 C 236.879 188.154,236.560 188.314,223.945 189.268 C 207.344 190.524,207.968 189.505,206.829 217.227 L 205.854 240.976 200.743 241.568 C 196.944 242.009,195.363 241.132,194.584 238.154 C 193.230 232.977,189.205 232.990,187.849 238.176 C 186.922 241.721,185.829 242.045,178.763 240.870 C 157.990 237.414,132.121 222.940,136.750 217.363 C 140.170 213.241,136.027 209.098,131.906 212.518 C 126.370 217.113,111.349 190.287,108.108 170.017 C 107.067 163.504,107.450 162.372,111.015 161.439 C 116.299 160.058,116.313 156.044,111.039 154.665 C 105.525 153.222,107.260 140.505,115.370 122.927 C 122.538 107.389,128.342 100.622,131.939 103.607 C 135.637 106.676,138.725 103.870,137.412 98.636 C 135.879 92.531,146.369 84.547,163.667 78.651 C 178.636 73.548,187.317 72.893,187.317 76.864 M184.542 113.012 C 179.126 118.665,179.110 122.927,184.505 122.927 C 189.241 122.927,188.347 145.311,183.415 150.244 C 178.251 155.408,135.870 156.330,137.825 151.236 C 139.790 146.114,132.856 145.498,127.706 150.337 C 121.586 156.086,121.695 158.089,128.479 164.589 C 133.496 169.396,142.054 168.070,137.219 163.235 C 133.220 159.236,179.864 162.094,185.400 166.187 C 196.881 174.676,207.948 161.897,199.275 150.166 C 194.176 143.269,193.174 122.927,197.934 122.927 C 203.329 122.927,203.313 118.665,197.897 113.012 C 194.896 109.880,191.891 107.317,191.220 107.317 C 190.548 107.317,187.543 109.880,184.542 113.012 M194.251 156.268 C 196.262 159.521,191.740 163.252,189.048 160.560 C 186.797 158.309,188.206 154.146,191.220 154.146 C 192.166 154.146,193.530 155.101,194.251 156.268 M290.732 185.366 C 290.732 189.042,289.431 189.268,268.293 189.268 C 247.154 189.268,245.854 189.042,245.854 185.366 C 245.854 181.690,247.154 181.463,268.293 181.463 C 289.431 181.463,290.732 181.690,290.732 185.366 M318.865 196.306 C 321.376 197.270,321.951 200.906,321.951 215.819 L 321.951 234.146 314.374 234.146 C 308.438 234.146,306.576 233.301,305.776 230.244 C 304.921 226.974,303.115 226.341,294.634 226.341 C 286.154 226.341,284.347 226.974,283.492 230.244 C 282.581 233.730,280.831 234.146,267.089 234.146 C 253.008 234.146,251.707 233.816,251.707 230.244 C 251.707 226.852,250.407 226.341,241.769 226.341 C 233.471 226.341,231.661 226.986,230.809 230.244 C 230.010 233.301,228.148 234.146,222.211 234.146 L 214.634 234.146 214.634 215.772 C 214.634 202.899,215.364 197.104,217.073 196.414 C 220.591 194.995,315.186 194.894,318.865 196.306 M245.854 238.049 C 245.854 240.650,244.553 241.951,241.951 241.951 C 239.350 241.951,238.049 240.650,238.049 238.049 C 238.049 235.447,239.350 234.146,241.951 234.146 C 244.553 234.146,245.854 235.447,245.854 238.049 M298.537 238.049 C 298.537 240.650,297.236 241.951,294.634 241.951 C 292.033 241.951,290.732 240.650,290.732 238.049 C 290.732 235.447,292.033 234.146,294.634 234.146 C 297.236 234.146,298.537 235.447,298.537 238.049 M230.809 245.854 C 231.661 249.112,233.471 249.756,241.769 249.756 C 250.407 249.756,251.707 249.245,251.707 245.854 C 251.707 242.281,253.008 241.951,267.089 241.951 C 280.831 241.951,282.581 242.368,283.492 245.854 C 284.347 249.123,286.154 249.756,294.634 249.756 C 303.115 249.756,304.921 249.123,305.776 245.854 C 308.587 235.105,318.049 241.123,318.049 253.659 L 318.049 265.366 268.293 265.366 L 218.537 265.366 218.537 253.659 C 218.537 241.123,227.998 235.105,230.809 245.854 " stroke="none" fill="#000000" fill-rule="evenodd"></path></g></svg>