<svg xmlns="http://www.w3.org/2000/svg" xmlns:xlink="http://www.w3.org/1999/xlink" width="64" height="64" viewBox="0 0 64 64">
  <defs>
    <clipPath id="clip-path">
      <rect id="Rectangle_78266" data-name="Rectangle 78266" width="50.99" height="49.514" fill="none"/>
    </clipPath>
  </defs>
  <g id="Group_59642" data-name="Group 59642" transform="translate(-397 -295)">
    <rect id="Rectangle_78267" data-name="Rectangle 78267" width="64" height="64" transform="translate(397 295)" fill="none"/>
    <g id="Group_59606" data-name="Group 59606" transform="translate(403.506 302.243)">
      <g id="Group_59605" data-name="Group 59605" clip-path="url(#clip-path)">
        <path id="Path_21792" data-name="Path 21792" d="M86.986,49.514H63.52a4.912,4.912,0,0,1-4.907-4.907V4.907A4.912,4.912,0,0,1,63.52,0H86.986a4.912,4.912,0,0,1,4.907,4.907v39.7a4.912,4.912,0,0,1-4.907,4.907M63.52.934a3.977,3.977,0,0,0-3.973,3.972v39.7a3.977,3.977,0,0,0,3.973,3.972H86.986a3.977,3.977,0,0,0,3.972-3.972V4.907A3.977,3.977,0,0,0,86.986.934Z" transform="translate(-49.486)"/>
        <path id="Path_21793" data-name="Path 21793" d="M9.295,97.149C6.5,94.811.064,94.6,0,94.6l.026-.934c.277.008,6.819.217,9.868,2.763Z" transform="translate(0 -79.083)"/>
        <path id="Path_21794" data-name="Path 21794" d="M91.806,96.65a15.148,15.148,0,0,1-3.757-.438l.25-.9c.064.018,6.444,1.716,11.681-2.168l.044-.029c7.512-4.352,19.98.535,25.3,2.622l-.341.87c-5.193-2.036-17.348-6.8-24.473-2.7a14.525,14.525,0,0,1-8.708,2.74" transform="translate(-74.338 -77.138)"/>
        <path id="Path_21795" data-name="Path 21795" d="M9.295,148.137C6.492,145.8.065,145.592,0,145.59l.026-.934c.277.008,6.819.217,9.868,2.763Z" transform="translate(0 -122.13)"/>
        <path id="Path_21796" data-name="Path 21796" d="M91.807,147.636a15.152,15.152,0,0,1-3.758-.438l.25-.9h0c.086.023,6.453,1.709,11.68-2.168l.044-.029c7.512-4.353,19.98.535,25.3,2.622l-.341.87c-5.194-2.036-17.349-6.8-24.473-2.7a14.524,14.524,0,0,1-8.708,2.739" transform="translate(-74.338 -120.185)"/>
        <path id="Path_21797" data-name="Path 21797" d="M9.295,199.124C6.5,196.786.064,196.58,0,196.578l.026-.934c.277.008,6.819.217,9.868,2.763Z" transform="translate(0 -165.178)"/>
        <path id="Path_21798" data-name="Path 21798" d="M91.806,198.626a15.152,15.152,0,0,1-3.757-.438l.25-.9h0c.086.024,6.453,1.709,11.68-2.168l.044-.029c7.512-4.352,19.98.535,25.3,2.622l-.341.87c-5.193-2.036-17.349-6.8-24.473-2.7a14.527,14.527,0,0,1-8.708,2.74" transform="translate(-74.338 -163.234)"/>
      </g>
    </g>
  </g>
</svg>
