<svg xmlns="http://www.w3.org/2000/svg" xmlns:xlink="http://www.w3.org/1999/xlink" width="64" height="64" viewBox="0 0 64 64">
  <defs>
    <clipPath id="clip-Carbon_Monoxide_">
      <rect width="64" height="64"/>
    </clipPath>
  </defs>
  <g id="Carbon_Monoxide_" data-name="Carbon Monoxide " clip-path="url(#clip-Carbon_Monoxide_)">
    <g id="Group_59698" data-name="Group 59698" transform="translate(-397 -295)">
      <g id="Rectangle_78267" data-name="Rectangle 78267" transform="translate(397 295)" fill="#fff" stroke="#707070" stroke-width="1" opacity="0">
        <rect width="64" height="64" stroke="none"/>
        <rect x="0.5" y="0.5" width="63" height="63" fill="none"/>
      </g>
      <g id="Group_59699" data-name="Group 59699" transform="translate(-19402.508 13440.481)">
        <path id="Path_21871" data-name="Path 21871" d="M34,51.443c5.959.882,10.69-.967,14.074-5.505,3.446-4.623,3.872-9.673,1.263-15.009a2.29,2.29,0,0,1,.107-2.408,11.661,11.661,0,0,0-6.387-16.726,3.961,3.961,0,0,1-1.873-1.482,14.479,14.479,0,0,0-9.814-6.371A13.966,13.966,0,0,0,20.315,6.867a2.37,2.37,0,0,1-2.607.461,11.679,11.679,0,0,0-3.936-.691,11.505,11.505,0,0,0-10.931,8A11.643,11.643,0,0,0,4.115,24.659l.1.169-.21.319a1.747,1.747,0,0,1-.137.193c-4.058,4.752-4.929,9.9-2.588,15.295,2.347,5.413,6.641,8.32,12.763,8.641a2.28,2.28,0,0,1,1.489.778c4.431,5.357,11.311,6.131,16.732,1.878A2.48,2.48,0,0,1,34,51.443M24.74,53.285a10.157,10.157,0,0,1-8.2-4.319,2.269,2.269,0,0,0-2.18-1.148A12.448,12.448,0,0,1,2.51,40C.458,34.931,1.323,30.279,5.078,26.179c.844-.922.893-1.413.237-2.392a10.01,10.01,0,0,1,.839-12.209A9.991,9.991,0,0,1,18.118,9.006a1.684,1.684,0,0,0,2.274-.336,12.741,12.741,0,0,1,19.83,2.9,2.923,2.923,0,0,0,1.96,1.482A9.909,9.909,0,0,1,48.888,19.3a10.075,10.075,0,0,1-1.135,9.242,1.828,1.828,0,0,0-.061,2.352A12.236,12.236,0,0,1,47.858,43.7c-2.424,4.277-6.224,6.433-11.618,6.588l-.074,0-.066-.031c-2.252-1.06-4.245.195-6.554,1.647a8.984,8.984,0,0,1-4.806,1.374" transform="translate(19806 -13144)"/>
        <path id="Path_21872" data-name="Path 21872" d="M15.7,87.652A1.108,1.108,0,0,0,16.9,88.9h.028c.736,0,1.145-.416,1.214-1.239-.1-.8-.492-1.175-1.22-1.175h-.051A1.079,1.079,0,0,0,15.7,87.652" transform="translate(19799.998 -13175.629)"/>
        <path id="Path_21873" data-name="Path 21873" d="M78.055,82.616c-.7-.024-1.179.233-1.283,1.5.071.063.146.136.227.213a2.233,2.233,0,0,0,.974.666.99.99,0,0,0,.823-.2,1.277,1.277,0,0,0,.407-.982,1.07,1.07,0,0,0-1.148-1.192" transform="translate(19776.648 -13174.147)"/>
        <path id="Path_21874" data-name="Path 21874" d="M77.251,4.975a1.109,1.109,0,0,0,1.174,1.242,1.149,1.149,0,0,0,1.23-1.251,1.242,1.242,0,0,0-.364-.9,1.176,1.176,0,0,0-.816-.284c-.03,0-.062,0-.093,0a1.078,1.078,0,0,0-1.132,1.195" transform="translate(19776.469 -13144.008)"/>
        <path id="Path_21875" data-name="Path 21875" d="M1.36,6.37H1.348A1.22,1.22,0,0,0,.455,6.7a1.22,1.22,0,0,0-.32.907A1.087,1.087,0,0,0,1.3,8.78,1.065,1.065,0,0,0,2.559,7.694c-.008-.6-.225-1.318-1.2-1.324" transform="translate(19805.951 -13144.998)"/>
        <path id="Path_21876" data-name="Path 21876" d="M.6,80.261A1.1,1.1,0,0,0,1.794,81.4h0c.785,0,1.164-.373,1.229-1.206a1.132,1.132,0,0,0-1.189-1.216H1.789a1.218,1.218,0,0,0-.891.358,1.237,1.237,0,0,0-.3.922" transform="translate(19805.77 -13172.758)"/>
        <path id="Path_21877" data-name="Path 21877" d="M43.724,43.7a4.98,4.98,0,0,0,9.954.31c.1-2.843.1-5.769,0-8.7a4.91,4.91,0,0,0-4.963-4.757h-.11a4.923,4.923,0,0,0-4.883,5.08c-.009.926-.007,1.852,0,2.778l0,1.253,0,1.254c0,.926,0,1.852,0,2.778m1.4-8.17a3.547,3.547,0,0,1,3.5-3.568h.087a3.516,3.516,0,0,1,3.557,3.435c.077,2.678.078,5.526.006,8.468A3.562,3.562,0,0,1,48.7,47.377l-.138,0a3.6,3.6,0,0,1-3.44-3.633c-.017-.489-.013-.978-.009-1.468l0-2.7c0-.437,0-.875,0-1.312-.006-.894-.012-1.817.016-2.728" transform="translate(19789.285 -13154.243)"/>
        <path id="Path_21878" data-name="Path 21878" d="M31.652,45.913a1.384,1.384,0,0,0,.195-.99.7.7,0,0,0-.408-.365c-.448-.2-.668-.054-1.069.712a3.557,3.557,0,0,1-3.994,2.009,3.627,3.627,0,0,1-2.8-3.636c-.021-2.395-.022-5,0-7.951a3.59,3.59,0,0,1,2.615-3.628,3.509,3.509,0,0,1,4.154,1.9c.237.463.437.7.65.768a.7.7,0,0,0,.527-.091c.512-.263.463-.594.07-1.392a4.968,4.968,0,0,0-9.409,2.032c-.025.986-.019,1.992-.013,2.964,0,.442.006.884.006,1.326,0,.476,0,.951,0,1.426-.006.983-.012,2,.014,3a4.987,4.987,0,0,0,4.093,4.707,5.13,5.13,0,0,0,5.373-2.792" transform="translate(19797.527 -13154.233)"/>
      </g>
    </g>
  </g>
</svg>
