<svg xmlns="http://www.w3.org/2000/svg" xmlns:xlink="http://www.w3.org/1999/xlink" width="64" height="64" viewBox="0 0 64 64">
  <defs>
    <clipPath id="clip-path">
      <rect id="Rectangle_78288" data-name="Rectangle 78288" width="58.822" height="47.183" fill="none"/>
    </clipPath>
  </defs>
  <g id="Group_59647" data-name="Group 59647" transform="translate(-397 -295)">
    <g id="Rectangle_78267" data-name="Rectangle 78267" transform="translate(397 295)" fill="#fff" stroke="#707070" stroke-width="1" opacity="0">
      <rect width="64" height="64" stroke="none"/>
      <rect x="0.5" y="0.5" width="63" height="63" fill="none"/>
    </g>
    <g id="Group_59613" data-name="Group 59613" transform="translate(399.589 305.524)">
      <g id="Group_59613-2" data-name="Group 59613" clip-path="url(#clip-path)">
        <path id="Path_21809" data-name="Path 21809" d="M40.637,110.119H31.6q-11.159,0-22.319,0a8.161,8.161,0,0,1-7.934-6.042,12.993,12.993,0,0,1-.089-6.035,8.121,8.121,0,0,1,4.107-5.491,8.287,8.287,0,0,1,6.988-.362,2.24,2.24,0,0,0,.958.205c.713-.053,1.152-.606,1.173-1.478.009-.357.005-.723,0-1.077a10.841,10.841,0,0,1,.333-3.4.864.864,0,0,0,.006-.639.429.429,0,0,0-.277-.206c-.164-.049-.506-.149-.736.582a12.171,12.171,0,0,0-.372,3.8v.237c0,.159,0,.318,0,.492v.765l-.688-.241c-.114-.04-.2-.068-.279-.1a9.242,9.242,0,0,0-12.194,6.4c-.073.284-.137.581-.2.867-.027.125-.054.25-.081.375v4.169a.7.7,0,0,1,.09.232,9.239,9.239,0,0,0,9.441,7.99q11.179,0,22.358,0h8.768c.578,0,.814-.116.91-.213a.4.4,0,0,0,.1-.312c0-.193-.007-.517-1.029-.517" transform="translate(0 -73.527)"/>
        <path id="Path_21810" data-name="Path 21810" d="M153.88,33.539a9.247,9.247,0,0,0-7.088-2.044,15.362,15.362,0,0,0-1.734.369c-.286.072-.581.147-.885.216l-.429.1v-.44c0-.286,0-.572.005-.858.006-.6.012-1.227-.01-1.837a9.217,9.217,0,0,0-12.393-8.285,9.3,9.3,0,0,0-4.774,3.943l-.184.293-.3-.179a9.441,9.441,0,0,0-7.524-1.1,8.994,8.994,0,0,0-3.838,2.2.525.525,0,0,0-.076.759.519.519,0,0,0,.769.008c.055-.042.11-.094.169-.148.039-.037.078-.073.119-.108a8.158,8.158,0,0,1,9.5-.906c1.19.694,1.654.582,2.48-.6a7.9,7.9,0,0,1,8.121-3.568,7.648,7.648,0,0,1,6.609,6.04,13.513,13.513,0,0,1,.276,3.236c0,.307,0,.624.011.931a1.787,1.787,0,0,0,.608,1.52,1.745,1.745,0,0,0,1.55-.029,8.2,8.2,0,0,1,11.291,7.6c.011,1.56.012,3.215,0,5.057A8.21,8.21,0,0,1,147.9,53.93c-.573,0-1.146,0-1.72,0h-.907c-.478,0-.96,0-1.437,0a.713.713,0,0,0-.517.184.463.463,0,0,0-.123.351c.016.45.452.5.638.5l1.1.007c1.16.009,2.359.019,3.533-.022a9.031,9.031,0,0,0,5.764-2.414,8.7,8.7,0,0,0,2.836-5.534,45.529,45.529,0,0,0,.091-7.019,8.947,8.947,0,0,0-3.272-6.45" transform="translate(-98.422 -17.339)"/>
        <path id="Path_21811" data-name="Path 21811" d="M203.791,138.827a4.477,4.477,0,0,0,5.128-3.059,9.051,9.051,0,0,0,.281-1.337c.032-.2.065-.41.1-.616a4.577,4.577,0,0,0-2.93-4.481,5.712,5.712,0,0,0-1.869-.313,4.752,4.752,0,0,0-3.732,1.623,5.3,5.3,0,0,0-.976,3.815,4.248,4.248,0,0,0,3.995,4.368m-2.451-4.833c.011-.124.019-.249.027-.374a6.838,6.838,0,0,1,.093-.87,2.964,2.964,0,0,1,2.982-2.58,2.863,2.863,0,0,1,3.068,2.55,7.9,7.9,0,0,1-.119,2.816,2.735,2.735,0,0,1-2.889,2.184q-.191,0-.391-.017a2.94,2.94,0,0,1-2.68-2.821c-.023-.18-.033-.358-.043-.532l-.066-.006Z" transform="translate(-171.688 -110.878)"/>
        <path id="Path_21812" data-name="Path 21812" d="M213.447,144a2.58,2.58,0,0,0,2.361,2.515,2.455,2.455,0,0,0,2.907-1.894,7.517,7.517,0,0,0,.114-2.688,2.505,2.505,0,0,0-2.714-2.249,2.6,2.6,0,0,0-2.643,2.3,12.125,12.125,0,0,0-.115,1.209l.03,0c.019.27.025.542.059.81m.289-1.174a6.252,6.252,0,0,1,.082-.782,2.249,2.249,0,0,1,2.3-2.01h.06a2.138,2.138,0,0,1,2.3,1.949,7.179,7.179,0,0,1-.109,2.559,2.147,2.147,0,0,1-2.534,1.622,2.227,2.227,0,0,1-2.043-2.208c-.022-.172-.031-.346-.042-.53,0-.087-.01-.174-.016-.261l-.016-.139q.007-.1.013-.2" transform="translate(-183.356 -120.043)" fill="#fff"/>
        <path id="Path_21813" data-name="Path 21813" d="M210.845,141.9a2.94,2.94,0,0,0,2.68,2.821c.134.011.264.017.391.017a2.735,2.735,0,0,0,2.889-2.184,7.9,7.9,0,0,0,.119-2.816,2.863,2.863,0,0,0-3.068-2.55,2.964,2.964,0,0,0-2.982,2.58,6.868,6.868,0,0,0-.093.87c-.008.125-.016.25-.027.374l-.018.35.066.006c.01.174.021.352.043.532m.374-2.066a2.6,2.6,0,0,1,2.643-2.3,2.505,2.505,0,0,1,2.714,2.249,7.516,7.516,0,0,1-.114,2.688,2.455,2.455,0,0,1-2.907,1.894,2.58,2.58,0,0,1-2.361-2.515c-.034-.268-.04-.54-.059-.81l-.03,0a12.144,12.144,0,0,1,.115-1.209" transform="translate(-181.102 -117.896)" fill="#fff"/>
        <path id="Path_21814" data-name="Path 21814" d="M135.642,131.12a2.208,2.208,0,0,0,.408.5.72.72,0,0,0,.861.1.454.454,0,0,0,.275-.576,3.3,3.3,0,0,0-.822-1.325,4.523,4.523,0,0,0-4.938-.511c-1.628.743-2.418,2.175-2.487,4.505,0,.049,0,.1,0,.147,0,.1,0,.2,0,.295a4.7,4.7,0,0,0,2.44,4.011,4.458,4.458,0,0,0,4.5-.221,2.521,2.521,0,0,0,1.279-1.591c.112-.485-.06-.636-.261-.727-.506-.228-.741-.063-.9.129-.106.125-.205.255-.31.394-.072.095-.144.19-.219.283a2.641,2.641,0,0,1-2,1,2.692,2.692,0,0,1-2.074-.911,4.874,4.874,0,0,1,.16-5.813,2.808,2.808,0,0,1,2.291-.8,2.349,2.349,0,0,1,1.793,1.115" transform="translate(-110.807 -110.692)"/>
        <path id="Path_21815" data-name="Path 21815" d="M121.824,279.058h-.014a3.035,3.035,0,1,0-.022,6.07h.013a3.035,3.035,0,0,0,.023-6.07m-.01,5.026h-.007a2,2,0,0,1-1.406-3.414,2,2,0,0,1,1.432-.567,1.99,1.99,0,0,1-.019,3.981" transform="translate(-102.069 -239.817)"/>
        <path id="Path_21816" data-name="Path 21816" d="M332.51,5.013h0a2.525,2.525,0,0,0,2.518-2.478A2.475,2.475,0,0,0,334.3.757,2.506,2.506,0,0,0,332.513,0h0A2.521,2.521,0,0,0,330,2.537a2.49,2.49,0,0,0,2.508,2.476M331.462,1.5a1.44,1.44,0,0,1,1.042-.454h.009a1.5,1.5,0,0,1,1.474,1.435,1.462,1.462,0,0,1-1.424,1.488h-.045a1.447,1.447,0,0,1-1.461-1.389,1.482,1.482,0,0,1,.4-1.081" transform="translate(-283.597)"/>
        <path id="Path_21817" data-name="Path 21817" d="M280.835,188.373h-.013c-.446,0-.892,0-1.338,0h-.849l-.132-.633.2-.131c.187-.123.376-.242.565-.362.4-.255.819-.518,1.2-.8a1.636,1.636,0,0,0,.677-1.177,1.462,1.462,0,0,0-.416-1.142,2.475,2.475,0,0,0-1.787-.6,2.4,2.4,0,0,0-1.727.645,1.465,1.465,0,0,0-.264.433c-.147.375-.077.687.178.8s.466.147.707-.4c.271-.618.643-.78.961-.78a1.017,1.017,0,0,1,.2.021c.271.056.881.323.924.752a1.64,1.64,0,0,1-.385,1.248,6.643,6.643,0,0,1-.961.741c-.195.132-.379.257-.554.393l-.13.1a5.776,5.776,0,0,0-.938.839.567.567,0,0,0-.127.588.437.437,0,0,0,.412.242c1.168.04,2.362.021,3.516,0l.122,0a.373.373,0,0,0,.271-.084.493.493,0,0,0,.078-.35c-.012-.239-.07-.34-.394-.34" transform="translate(-237.869 -157.721)"/>
        <path id="Path_21818" data-name="Path 21818" d="M72.132,309.347h-.015a1.858,1.858,0,0,0-1.839,1.835,1.814,1.814,0,0,0,.535,1.3,1.85,1.85,0,0,0,1.318.544h.012a1.841,1.841,0,0,0-.011-3.683m.476,2.444c-.065.077-.133.157-.2.249l-.291.4-.284-.409c-.065-.093-.131-.174-.2-.252a.833.833,0,0,1-.281-.636.926.926,0,0,1,.775-.707h0a.917.917,0,0,1,.766.722.837.837,0,0,1-.292.63" transform="translate(-60.395 -265.847)"/>
        <path id="Path_21819" data-name="Path 21819" d="M128.226,286.49a2,2,0,0,0-1.432.567,1.993,1.993,0,0,0,1.406,3.414h.007a1.99,1.99,0,0,0,.019-3.981m-.02,3.629a1.639,1.639,0,1,1,1.634-1.6,1.621,1.621,0,0,1-1.634,1.6" transform="translate(-108.463 -246.203)" fill="#fff"/>
        <path id="Path_21820" data-name="Path 21820" d="M130.371,288.99a1.639,1.639,0,1,0-.016,3.277,1.639,1.639,0,0,0,.016-3.277m-.017,2.926h0a1.27,1.27,0,0,1-1.287-1.3h0a1.277,1.277,0,0,1,.374-.914,1.29,1.29,0,0,1,.916-.364h.015a1.275,1.275,0,0,1,.91.384,1.291,1.291,0,0,1,.361.933,1.277,1.277,0,0,1-1.284,1.258" transform="translate(-110.612 -248.352)" fill="#fff"/>
        <path id="Path_21821" data-name="Path 21821" d="M343.276,13.943a.767.767,0,0,0,.741-.767.793.793,0,0,0-.771-.75h0a.743.743,0,0,0-.537.235.765.765,0,0,0-.212.566.729.729,0,0,0,.783.716" transform="translate(-294.331 -10.679)" fill="#fff"/>
        <path id="Path_21822" data-name="Path 21822" d="M338.954,10.349H339a1.462,1.462,0,0,0,1.424-1.488,1.5,1.5,0,0,0-1.474-1.435h-.009a1.441,1.441,0,0,0-1.042.454,1.483,1.483,0,0,0-.4,1.081,1.447,1.447,0,0,0,1.461,1.389m-.012-2.572a1.146,1.146,0,0,1,1.129,1.093A1.114,1.114,0,0,1,338.989,10a1.088,1.088,0,0,1-1.145-1.052,1.117,1.117,0,0,1,1.1-1.168" transform="translate(-290.034 -6.381)" fill="#fff"/>
        <path id="Path_21823" data-name="Path 21823" d="M341.138,12.145a1.114,1.114,0,0,0,1.083-1.127,1.146,1.146,0,0,0-1.129-1.093,1.116,1.116,0,0,0-1.1,1.168,1.088,1.088,0,0,0,1.144,1.052m-.581-1.633a.743.743,0,0,1,.537-.235h0a.794.794,0,0,1,.771.75.767.767,0,0,1-.742.767.729.729,0,0,1-.783-.716.766.766,0,0,1,.212-.566" transform="translate(-292.182 -8.529)" fill="#fff"/>
        <path id="Path_21824" data-name="Path 21824" d="M83.138,322.37l.042.054.043-.053a.53.53,0,0,0-.042-.044.5.5,0,0,0-.043.043" transform="translate(-71.447 -277.001)" fill="#fff"/>
        <path id="Path_21825" data-name="Path 21825" d="M78.707,317.115h0a.926.926,0,0,0-.775.707.833.833,0,0,0,.281.636c.064.078.131.159.2.252l.283.409.291-.4c.066-.092.134-.171.2-.249a.836.836,0,0,0,.292-.63.917.917,0,0,0-.766-.722M78.7,318.51c-.212-.306-.438-.49-.417-.639a.423.423,0,0,1,.845.007c.018.15-.21.33-.428.632" transform="translate(-66.968 -272.522)" fill="#fff"/>
        <path id="Path_21826" data-name="Path 21826" d="M80.856,319.615a.6.6,0,0,0-.427.4c-.021.149.2.333.417.639.217-.3.445-.482.428-.632a.593.593,0,0,0-.418-.411m0,.478-.042-.054a.484.484,0,0,1,.043-.043.529.529,0,0,1,.042.043l-.043.053" transform="translate(-69.118 -274.671)" fill="#fff"/>
      </g>
    </g>
  </g>
</svg>
