<svg xmlns="http://www.w3.org/2000/svg" xmlns:xlink="http://www.w3.org/1999/xlink" width="64" height="64" viewBox="0 0 64 64">
  <defs>
    <clipPath id="clip-Formaldehyde">
      <rect width="64" height="64"/>
    </clipPath>
  </defs>
  <g id="Formaldehyde" clip-path="url(#clip-Formaldehyde)">
    <g id="Group_59702" data-name="Group 59702" transform="translate(-397 -295)">
      <g id="Rectangle_78267" data-name="Rectangle 78267" transform="translate(397 295)" fill="#fff" stroke="#707070" stroke-width="1" opacity="0">
        <rect width="64" height="64" stroke="none"/>
        <rect x="0.5" y="0.5" width="63" height="63" fill="none"/>
      </g>
      <g id="Group_59703" data-name="Group 59703" transform="translate(-19654.328 13444.148)">
        <path id="Path_21885" data-name="Path 21885" d="M250.67,26.97a26.733,26.733,0,1,1,26.784,26.686A26.726,26.726,0,0,1,250.67,26.97m52.738-.065a26,26,0,1,0-26.023,26.021A26.028,26.028,0,0,0,303.408,26.9" transform="translate(19805.924 -13144.077)"/>
        <path id="Path_21886" data-name="Path 21886" d="M277.4,53.7h-.025A26.851,26.851,0,1,1,277.3,0h0a26.779,26.779,0,0,1,19,7.85,26.472,26.472,0,0,1,7.883,18.9,26.9,26.9,0,0,1-7.844,19.082A26.521,26.521,0,0,1,277.4,53.7m-26.686-26.81a26.582,26.582,0,0,0,26.661,26.563h.025a26.271,26.271,0,0,0,18.76-7.8,26.652,26.652,0,0,0,7.773-18.908,26.231,26.231,0,0,0-7.81-18.724A26.536,26.536,0,0,0,277.3.246h0a26.6,26.6,0,0,0-26.578,26.646m26.641,26.081h-.05A26.111,26.111,0,0,1,258.926,8.319,25.842,25.842,0,0,1,277.269.729h.077a26.164,26.164,0,0,1,26.108,26.1h0a26.13,26.13,0,0,1-26.1,26.145m-.089-52A25.593,25.593,0,0,0,259.1,8.494a25.83,25.83,0,0,0-7.655,18.385,25.894,25.894,0,0,0,25.863,25.848h.05a25.882,25.882,0,0,0,25.85-25.9A25.918,25.918,0,0,0,277.345.975h-.076" transform="translate(19806 -13144)"/>
        <path id="Path_21888" data-name="Path 21888" d="M277.811,53.428h-.049A26.111,26.111,0,0,1,259.38,8.774a25.839,25.839,0,0,1,18.342-7.59h.077a26.164,26.164,0,0,1,26.108,26.1h0a26.129,26.129,0,0,1-26.1,26.145m-.089-52a25.593,25.593,0,0,0-18.169,7.518A25.829,25.829,0,0,0,251.9,27.333a25.9,25.9,0,0,0,25.863,25.848h.049a25.882,25.882,0,0,0,25.85-25.9A25.918,25.918,0,0,0,277.8,1.43h-.076m-.286,47.688c-5.229,0-10.124-2.013-14.623-6.028-.28-.249-.421-.41-.419-.6,0-.205.186-.379.446-.6q.769-.662,1.542-1.319l1.084-.925a.743.743,0,0,1,.509-.238.468.468,0,0,1,.32.189c.306.371-.012.644-.2.807l-2.439,2.085a20.722,20.722,0,0,0,32.024-25.62l-6.213,4.634c-.026.019-.051.042-.077.066a.519.519,0,0,1-.273.158,1.775,1.775,0,0,1-.421-.02c-.053-.007-.106-.014-.159-.019l-.14-.013.031-.137a1.528,1.528,0,0,0,.025-.171.61.61,0,0,1,.153-.427c.462-.38.95-.741,1.422-1.09l.437-.324q2.408-1.8,4.817-3.593c.267-.2.471-.339.672-.3s.335.244.507.528a21.651,21.651,0,0,1,1.787,18.554A21.332,21.332,0,0,1,285.258,47.7a23.474,23.474,0,0,1-7.821,1.417m-11.5-9.464a.617.617,0,0,0-.316.182l-1.083.925q-.771.658-1.54,1.318c-.222.191-.36.328-.361.419s.129.224.337.409c6.6,5.893,14.071,7.429,22.2,4.562a21.086,21.086,0,0,0,12.836-12.836,21.405,21.405,0,0,0-1.767-18.343c-.149-.249-.253-.4-.342-.413s-.249.084-.478.255q-2.409,1.794-4.815,3.593l-.439.325c-.47.347-.956.706-1.412,1.082-.04.033-.054.166-.065.264l-.007.065.038,0a1.422,1.422,0,0,0,.36.02.4.4,0,0,0,.137-.1,1.133,1.133,0,0,1,.095-.08l6.426-4.792.071.111a20.965,20.965,0,0,1-32.43,25.947l-.1-.094,2.644-2.261c.248-.212.3-.3.172-.463a.239.239,0,0,0-.151-.1h-.012M277.9,43.125q-.485,0-.974-.044a11.558,11.558,0,0,1-10.539-9.646,8.791,8.791,0,0,1,.252-4.269c.073-.222.063-.3-.147-.424a5.516,5.516,0,0,1-2.792-4.375,5.043,5.043,0,0,1,.508-2.539,29.919,29.919,0,0,1,3.705-6c.235-.315.49-.643.828-1.065.158-.2.333-.379.544-.379h.006c.211,0,.381.192.519.376.6.8,1.186,1.6,1.773,2.4l.671.917c.056.076.111.152.169.233q.349-.481.691-.958c.6-.832,1.167-1.619,1.761-2.413.7-.943,1.444-1.883,2.159-2.792l.231-.294a.746.746,0,0,1,.518-.351h0a.7.7,0,0,1,.494.325,85.127,85.127,0,0,1,8.962,13.255,19.579,19.579,0,0,1,1.891,4.859,9.734,9.734,0,0,1-.49,5.53A11.606,11.606,0,0,1,277.9,43.125m-8.614-28.49c-.084,0-.2.091-.352.286-.336.419-.59.746-.823,1.058a29.745,29.745,0,0,0-3.677,5.946,4.817,4.817,0,0,0-.489,2.416,5.283,5.283,0,0,0,2.672,4.189.515.515,0,0,1,.257.712,8.545,8.545,0,0,0-.244,4.151,11.3,11.3,0,0,0,21.78,2,9.493,9.493,0,0,0,.482-5.393,19.342,19.342,0,0,0-1.87-4.8,84.921,84.921,0,0,0-8.935-13.216c-.124-.156-.224-.232-.3-.232h0c-.083,0-.189.084-.325.257l-.231.294c-.714.908-1.452,1.847-2.156,2.787-.593.792-1.159,1.578-1.758,2.41q-.393.545-.792,1.1l-.1.139-.15-.21c-.076-.107-.145-.2-.215-.3l-.672-.917c-.587-.8-1.174-1.606-1.771-2.4-.139-.185-.246-.276-.326-.278ZM259.7,39a.4.4,0,0,1-.071-.006.745.745,0,0,1-.447-.406A21.714,21.714,0,0,1,272,6.369c7.706-2.051,14.683-.315,20.736,5.16.272.246.428.429.419.628s-.177.361-.484.59l-5.837,4.359c-.054.039-.108.079-.161.119a.638.638,0,0,1-.52.165.407.407,0,0,1-.272-.238.716.716,0,0,1,.206-.7c.65-.513,1.327-1.016,1.981-1.5l3.787-2.83a20.736,20.736,0,0,0-34.609,12.02,20.267,20.267,0,0,0,2.624,13.6l2.559-2.026c.074-.058.146-.12.217-.181a3.168,3.168,0,0,1,.545-.4.741.741,0,0,1,.445-.032,1.662,1.662,0,0,0,.17.016l.141,0-.022.139a1.562,1.562,0,0,0-.013.178.575.575,0,0,1-.129.438c-1.326,1.084-2.643,2.119-3.757,2.987A.549.549,0,0,1,259.7,39M278.105,5.783a23.423,23.423,0,0,0-6.038.825,21.467,21.467,0,0,0-12.679,31.85c.08.134.177.272.282.291a.29.29,0,0,0,.21-.079c1.113-.869,2.428-1.9,3.751-2.985.031-.025.036-.175.039-.257l0-.074-.065-.008a.587.587,0,0,0-.3,0,2.953,2.953,0,0,0-.5.373c-.075.064-.149.127-.225.188l-2.774,2.2-.073-.116a20.5,20.5,0,0,1-2.733-13.883,20.977,20.977,0,0,1,35.127-12.055l.1.1-4.013,3c-.653.485-1.328.985-1.976,1.5a.508.508,0,0,0-.136.4c.043.091.092.1.107.106a.434.434,0,0,0,.313-.121c.054-.041.109-.082.165-.122l1.863-1.39,3.973-2.968c.228-.17.38-.3.385-.405s-.16-.271-.338-.433a21.152,21.152,0,0,0-14.47-5.93" transform="translate(19805.545 -13144.455)"/>
        <path id="Path_21889" data-name="Path 21889" d="M280,25.055c.866-1.193,1.694-2.362,2.551-3.508.779-1.041,1.585-2.061,2.388-3.083.313-.4.518-.405.82-.026a83.6,83.6,0,0,1,8.948,13.236,19.771,19.771,0,0,1,1.881,4.828,9.657,9.657,0,0,1-.485,5.462,11.423,11.423,0,0,1-22.018-2.026,8.721,8.721,0,0,1,.248-4.21.4.4,0,0,0-.2-.568,5.387,5.387,0,0,1-2.732-4.282,4.911,4.911,0,0,1,.5-2.478,29.826,29.826,0,0,1,3.691-5.97c.268-.359.545-.712.826-1.061.349-.435.541-.448.874,0,.825,1.1,1.631,2.212,2.444,3.32.086.118.17.236.267.372m5.4-5.894a.756.756,0,0,0-.148.1q-2.332,3.153-4.65,6.316a.549.549,0,0,0,.011.467c.307.614.707,1.188.956,1.824a8.4,8.4,0,0,1,.722,2.471,5.38,5.38,0,0,1-5.439,5.549c-.573-.009-1.145-.122-1.746-.19-.043.129-.093.268-.134.409a8.478,8.478,0,0,0-.059,4.213,10.538,10.538,0,0,0,8.568,8.269,10.3,10.3,0,0,0,10.742-4.567,9.447,9.447,0,0,0,1.706-7.06,15.487,15.487,0,0,0-1.683-4.567,76.954,76.954,0,0,0-7.559-11.583c-.421-.555-.856-1.1-1.289-1.653m-8.54,2.822c-.454.6-.865,1.131-1.255,1.673a25.1,25.1,0,0,0-3.077,5.136,4.371,4.371,0,0,0,1.121,5.107,4.725,4.725,0,0,0,5.825.484,4.569,4.569,0,0,0,1.747-5.546,34.458,34.458,0,0,0-4.36-6.855" transform="translate(19797.963 -13150.979)"/>
        <path id="Path_21890" data-name="Path 21890" d="M285.4,49.572q-.485,0-.974-.045a11.557,11.557,0,0,1-10.539-9.646,8.789,8.789,0,0,1,.252-4.269c.073-.222.063-.3-.147-.424a5.516,5.516,0,0,1-2.792-4.375,5.038,5.038,0,0,1,.508-2.539,29.958,29.958,0,0,1,3.705-6c.235-.315.49-.643.828-1.065.158-.2.333-.378.544-.378h.006c.211,0,.381.192.519.376.6.8,1.186,1.6,1.773,2.4l.671.917c.056.076.111.152.168.233l.692-.958c.6-.833,1.167-1.62,1.761-2.414.7-.942,1.444-1.882,2.159-2.792l.231-.294a.747.747,0,0,1,.518-.352h0a.7.7,0,0,1,.494.326,85.121,85.121,0,0,1,8.962,13.255,19.584,19.584,0,0,1,1.891,4.859,9.734,9.734,0,0,1-.49,5.53A11.606,11.606,0,0,1,285.4,49.572m-8.614-28.49c-.084,0-.2.091-.352.286-.336.42-.59.746-.823,1.058a29.727,29.727,0,0,0-3.677,5.945,4.814,4.814,0,0,0-.489,2.416,5.281,5.281,0,0,0,2.672,4.189.516.516,0,0,1,.257.713,8.544,8.544,0,0,0-.244,4.151,11.3,11.3,0,0,0,21.781,2,9.5,9.5,0,0,0,.482-5.393,19.343,19.343,0,0,0-1.871-4.8,84.844,84.844,0,0,0-8.934-13.216c-.124-.156-.224-.233-.3-.233h0c-.082,0-.189.084-.325.257l-.231.294c-.714.908-1.452,1.846-2.156,2.787-.593.792-1.159,1.578-1.758,2.41l-.792,1.1-.1.139-.151-.21c-.076-.107-.145-.2-.215-.3l-.672-.917c-.587-.8-1.174-1.606-1.771-2.4-.139-.185-.246-.276-.326-.278Zm8.73,27.734a13.205,13.205,0,0,1-2.133-.18,10.678,10.678,0,0,1-8.668-8.364,8.541,8.541,0,0,1,.06-4.273c.029-.1.064-.2.1-.3l.071-.209.1.012c.193.022.383.048.571.074a9.512,9.512,0,0,0,1.161.115,5.275,5.275,0,0,0,3.873-1.638,5.085,5.085,0,0,0,1.441-3.782,7.265,7.265,0,0,0-.612-2.173l-.1-.259a8.567,8.567,0,0,0-.568-1.116c-.13-.226-.264-.46-.382-.7a.659.659,0,0,1,0-.595c1.464-2.01,2.967-4.041,4.421-6.006l.229-.31a.34.34,0,0,1,.11-.088c.019-.011.042-.025.069-.043l.095-.064.483.616c.3.376.589.75.877,1.129a76.908,76.908,0,0,1,7.572,11.6,15.571,15.571,0,0,1,1.694,4.6,9.531,9.531,0,0,1-1.726,7.15,10.278,10.278,0,0,1-8.729,4.8m-10.4-13.059-.007.021c-.031.094-.065.19-.092.288a8.3,8.3,0,0,0-.057,4.153,10.436,10.436,0,0,0,8.468,8.174,10.147,10.147,0,0,0,10.621-4.517,9.292,9.292,0,0,0,1.685-6.97,15.386,15.386,0,0,0-1.67-4.53,76.7,76.7,0,0,0-7.548-11.564c-.287-.379-.581-.752-.874-1.126l-.345-.439-.022.015-.227.307c-1.453,1.965-2.957,4-4.42,6a.458.458,0,0,0,.021.34c.116.231.249.462.376.685a8.692,8.692,0,0,1,.584,1.148l.1.259a7.446,7.446,0,0,1,.629,2.25,5.334,5.334,0,0,1-1.508,3.966,5.538,5.538,0,0,1-3.968,1.715h-.087a9.973,9.973,0,0,1-1.191-.117c-.154-.022-.31-.044-.467-.062m1.664-.55a4.756,4.756,0,0,1-3.292-1.3,4.519,4.519,0,0,1-1.151-5.242,25.023,25.023,0,0,1,3.092-5.161c.268-.373.546-.739.841-1.127l.416-.549.1-.131.1.13a34.856,34.856,0,0,1,4.375,6.88,4.684,4.684,0,0,1-1.792,5.7,4.908,4.908,0,0,1-2.686.8m0-13.1-.318.42c-.294.386-.57.75-.837,1.121a24.843,24.843,0,0,0-3.063,5.11,4.238,4.238,0,0,0,1.092,4.972,4.621,4.621,0,0,0,5.673.471,4.435,4.435,0,0,0,1.7-5.395,33.957,33.957,0,0,0-4.246-6.7" transform="translate(19798.039 -13150.901)"/>
        <path id="Path_21891" data-name="Path 21891" d="M262.646,40.717l2.668-2.11a5.383,5.383,0,0,1,.744-.572c.144-.077.366-.006.554,0-.029.184.009.451-.1.539-1.237,1.012-2.493,2-3.753,2.986-.321.251-.511.025-.674-.245A21.592,21.592,0,0,1,274.839,9.282c7.749-2.063,14.664-.257,20.622,5.133.523.473.5.61-.057,1.028l-5.711,4.266c-.1.072-.193.14-.289.213-.215.163-.474.246-.606-.029a.6.6,0,0,1,.171-.547c.867-.685,1.763-1.335,2.649-2l3.231-2.417a20.826,20.826,0,0,0-32.2,25.786" transform="translate(19802.742 -13147.248)"/>
        <path id="Path_21892" data-name="Path 21892" d="M262.425,41.713a.4.4,0,0,1-.071-.006.745.745,0,0,1-.447-.406A21.714,21.714,0,0,1,274.733,9.085c7.706-2.051,14.683-.315,20.736,5.16.272.246.428.429.419.628s-.177.361-.484.59l-5.838,4.359-.161.119a.638.638,0,0,1-.52.165.407.407,0,0,1-.271-.238.716.716,0,0,1,.206-.7c.65-.513,1.327-1.016,1.981-1.5l3.787-2.83a20.736,20.736,0,0,0-34.609,12.02,20.267,20.267,0,0,0,2.624,13.6l2.56-2.026c.074-.058.146-.12.217-.181a3.169,3.169,0,0,1,.546-.4.74.74,0,0,1,.445-.032,1.666,1.666,0,0,0,.17.016l.141,0-.022.139a1.577,1.577,0,0,0-.013.178.575.575,0,0,1-.129.438c-1.326,1.084-2.643,2.119-3.756,2.987a.549.549,0,0,1-.336.135M280.834,8.5a23.423,23.423,0,0,0-6.038.825,21.467,21.467,0,0,0-12.679,31.85c.08.134.177.272.282.291a.29.29,0,0,0,.21-.079c1.113-.869,2.428-1.9,3.751-2.985.031-.025.036-.175.039-.257l0-.074-.065-.008a.587.587,0,0,0-.3,0,2.949,2.949,0,0,0-.5.373c-.075.064-.149.127-.225.188l-2.774,2.2-.073-.116a20.5,20.5,0,0,1-2.732-13.883,20.977,20.977,0,0,1,35.127-12.055l.1.1-4.013,3c-.653.485-1.328.985-1.976,1.5a.507.507,0,0,0-.136.4c.043.091.092.1.107.106a.434.434,0,0,0,.313-.121c.054-.041.109-.082.165-.122l1.862-1.39,3.973-2.968c.228-.17.381-.3.385-.405s-.16-.271-.338-.433a21.152,21.152,0,0,0-14.47-5.93" transform="translate(19802.816 -13147.171)"/>
        <path id="Path_21893" data-name="Path 21893" d="M270.251,51.579A20.842,20.842,0,0,0,302.49,25.786l-2.547,1.9L296.17,30.5c-.1.071-.187.188-.291.2a2.783,2.783,0,0,1-.555-.04c.042-.181.022-.437.136-.531.6-.493,1.233-.946,1.856-1.411q2.407-1.8,4.815-3.593c.553-.412.647-.392,1,.194A21.56,21.56,0,0,1,292,56.677c-8.274,2.919-15.769,1.261-22.322-4.586-.513-.457-.5-.558.025-1.013.872-.751,1.751-1.494,2.625-2.243.206-.176.429-.337.654-.065s.014.463-.187.635l-2.542,2.173" transform="translate(19798.764 -13153.547)"/>
        <path id="Path_21894" data-name="Path 21894" d="M284.141,58.135c-5.229,0-10.124-2.013-14.623-6.028-.28-.249-.421-.41-.419-.6,0-.205.186-.379.446-.6q.769-.662,1.542-1.319l1.084-.925a.742.742,0,0,1,.509-.238.468.468,0,0,1,.32.189c.306.371-.012.644-.2.807l-2.439,2.085a20.722,20.722,0,0,0,32.024-25.619l-6.213,4.633c-.026.02-.051.043-.077.066a.519.519,0,0,1-.273.159,1.775,1.775,0,0,1-.421-.02c-.053-.007-.107-.014-.159-.019l-.14-.013.031-.137a1.55,1.55,0,0,0,.025-.171.61.61,0,0,1,.153-.427c.462-.38.95-.741,1.422-1.09l.437-.324,4.816-3.593c.268-.2.472-.339.672-.3s.335.244.507.528a21.652,21.652,0,0,1,1.787,18.553,21.329,21.329,0,0,1-12.986,12.984,23.464,23.464,0,0,1-7.821,1.418m-11.5-9.464a.612.612,0,0,0-.316.182l-1.083.925q-.771.658-1.54,1.318c-.223.191-.36.328-.361.419s.129.224.337.409c6.6,5.893,14.071,7.429,22.2,4.562A21.084,21.084,0,0,0,304.717,43.65a21.4,21.4,0,0,0-1.767-18.343c-.149-.249-.253-.4-.342-.414s-.249.085-.478.255q-2.41,1.8-4.815,3.593l-.438.326c-.47.347-.956.706-1.412,1.082-.04.033-.054.166-.065.264,0,.022,0,.043-.008.065l.039,0a1.421,1.421,0,0,0,.36.02.4.4,0,0,0,.137-.1,1.119,1.119,0,0,1,.095-.08l6.425-4.793.072.112a20.965,20.965,0,0,1-32.43,25.947l-.1-.094,2.644-2.261c.248-.212.3-.3.173-.463a.239.239,0,0,0-.151-.1h-.012" transform="translate(19798.842 -13153.472)"/>
        <path id="Path_21895" data-name="Path 21895" d="M301.868,50.79a8.032,8.032,0,0,1-7.659,7.545c-.089,0-.2.036-.264,0a4.264,4.264,0,0,1-.436-.348c.136-.124.257-.326.413-.359.421-.088.863-.075,1.287-.155a7.264,7.264,0,0,0,5.935-6.917c0-.118-.014-.268.049-.345a.589.589,0,0,1,.378-.229c.1,0,.249.161.284.278a1.943,1.943,0,0,1,.013.533" transform="translate(19789.459 -13163.207)"/>
        <path id="Path_21896" data-name="Path 21896" d="M293.914,58.4a.278.278,0,0,1-.151-.038,2.777,2.777,0,0,1-.329-.255c-.039-.035-.079-.069-.12-.1l-.111-.09.106-.1c.04-.036.078-.08.116-.123a.7.7,0,0,1,.354-.265,5.548,5.548,0,0,1,.69-.086c.2-.017.4-.033.6-.07a7.119,7.119,0,0,0,5.834-6.8c0-.024,0-.05,0-.076a.518.518,0,0,1,.076-.343.707.707,0,0,1,.474-.275h0c.175,0,.358.22.4.366a1.168,1.168,0,0,1,.024.41c0,.053-.007.106-.007.158v.007a8.162,8.162,0,0,1-7.776,7.662.685.685,0,0,0-.071.007.959.959,0,0,1-.111.009m-.342-.5.023.02a2.42,2.42,0,0,0,.3.232.376.376,0,0,0,.1-.006c.032,0,.063-.007.093-.009a7.913,7.913,0,0,0,7.539-7.425c0-.056,0-.113.007-.169a1,1,0,0,0-.014-.326.377.377,0,0,0-.169-.19.487.487,0,0,0-.281.185.445.445,0,0,0-.019.185c0,.03,0,.058,0,.086a7.367,7.367,0,0,1-6.036,7.034,6.283,6.283,0,0,1-.626.073,5.486,5.486,0,0,0-.659.081c-.067.014-.145.1-.22.188l-.037.042" transform="translate(19789.578 -13163.13)"/>
        <path id="Path_21897" data-name="Path 21897" d="M291.43,50.549c-.183-.244-.375-.389-.362-.512a.516.516,0,0,1,.352-.334c.088-.018.31.191.318.308.009.137-.151.283-.307.538" transform="translate(19790.398 -13163.099)"/>
        <path id="Path_21898" data-name="Path 21898" d="M291.363,50.691l-.108-.145c-.06-.081-.122-.15-.176-.211-.125-.142-.224-.253-.21-.389a.631.631,0,0,1,.448-.443.308.308,0,0,1,.235.08.574.574,0,0,1,.231.342.646.646,0,0,1-.178.394c-.045.062-.1.133-.147.216Zm-.017-.944a.432.432,0,0,0-.232.226.788.788,0,0,0,.15.2l.079.092.063-.087a.627.627,0,0,0,.132-.234.436.436,0,0,0-.192-.2" transform="translate(19790.477 -13163.024)"/>
        <path id="Path_21899" data-name="Path 21899" d="M283.36,53.071c-.26.178-.4.348-.537.345-.119,0-.34-.214-.328-.307a.522.522,0,0,1,.319-.372c.122-.022.28.161.546.333" transform="translate(19793.689 -13164.265)"/>
        <path id="Path_21900" data-name="Path 21900" d="M282.749,53.462h0a.575.575,0,0,1-.353-.213.309.309,0,0,1-.094-.234.641.641,0,0,1,.419-.476c.135-.028.252.068.4.183.066.051.142.11.232.167l.155.1-.152.1c-.087.058-.159.117-.223.167a.657.657,0,0,1-.382.2m.01-.68a.422.422,0,0,0-.218.269.516.516,0,0,0,.209.165h0a.622.622,0,0,0,.227-.145l.1-.075-.1-.078a.79.79,0,0,0-.211-.136" transform="translate(19793.768 -13164.188)"/>
        <path id="Path_21901" data-name="Path 21901" d="M297.988,52.235c-.159-.268-.335-.433-.309-.555a.526.526,0,0,1,.384-.3c.088-.011.294.221.289.337-.006.14-.179.273-.365.523" transform="translate(19787.857 -13163.742)"/>
        <path id="Path_21902" data-name="Path 21902" d="M297.9,52.38l-.094-.159c-.053-.089-.107-.166-.155-.233-.11-.155-.2-.278-.168-.411a.637.637,0,0,1,.488-.4.292.292,0,0,1,.229.1.573.573,0,0,1,.2.363.674.674,0,0,1-.217.381c-.052.06-.112.129-.172.211Zm.08-.961a.445.445,0,0,0-.257.209.764.764,0,0,0,.129.217l.07.1.074-.087c.083-.1.155-.18.157-.23a.444.444,0,0,0-.173-.211" transform="translate(19787.934 -13163.665)"/>
        <path id="Path_21903" data-name="Path 21903" d="M289.723,52.239c-.161-.272-.318-.421-.31-.56.007-.116.232-.328.315-.308a.522.522,0,0,1,.35.339c.015.124-.172.272-.355.529" transform="translate(19791.033 -13163.742)"/>
        <path id="Path_21904" data-name="Path 21904" d="M289.637,52.387l-.1-.163c-.053-.089-.106-.165-.151-.232a.668.668,0,0,1-.175-.4.57.57,0,0,1,.239-.348.28.28,0,0,1,.228-.073.641.641,0,0,1,.443.444c.017.134-.079.248-.2.392-.054.064-.115.137-.176.223Zm-.014-.973a.583.583,0,0,0-.164.2.631.631,0,0,0,.132.241l.065.094.079-.094a.778.778,0,0,0,.145-.205.426.426,0,0,0-.257-.233" transform="translate(19791.109 -13163.663)"/>
        <path id="Path_21905" data-name="Path 21905" d="M293.909,42.56c-.182-.243-.357-.375-.364-.516-.006-.115.2-.347.29-.337a.51.51,0,0,1,.378.3c.024.126-.149.289-.3.551" transform="translate(19789.445 -13160.028)"/>
        <path id="Path_21906" data-name="Path 21906" d="M293.844,42.7l-.111-.147c-.059-.079-.118-.147-.169-.206a.67.67,0,0,1-.219-.379.545.545,0,0,1,.189-.355.311.311,0,0,1,.236-.11.619.619,0,0,1,.486.4c.025.134-.06.256-.167.408-.047.066-.1.142-.152.228Zm-.1-.951a.516.516,0,0,0-.154.21c0,.049.075.131.158.227l.071.083c.023-.034.046-.066.067-.1a.734.734,0,0,0,.127-.221.416.416,0,0,0-.27-.2" transform="translate(19789.523 -13159.951)"/>
        <path id="Path_21907" data-name="Path 21907" d="M300.227,50c-.249.182-.384.353-.522.357-.118,0-.346-.2-.336-.292a.511.511,0,0,1,.3-.376c.124-.023.286.151.553.311" transform="translate(19787.207 -13163.097)"/>
        <path id="Path_21908" data-name="Path 21908" d="M299.625,50.408a.576.576,0,0,1-.352-.2.307.307,0,0,1-.1-.231.619.619,0,0,1,.4-.483c.137-.025.254.061.408.171.067.047.143.1.232.155l.16.1-.15.11c-.081.059-.15.117-.21.169a.664.664,0,0,1-.382.212Zm0-.67h0a.413.413,0,0,0-.2.268.508.508,0,0,0,.211.155c.047,0,.135-.075.228-.154.026-.022.054-.046.084-.07l-.1-.07a.788.788,0,0,0-.218-.129" transform="translate(19787.285 -13163.02)"/>
        <path id="Path_21909" data-name="Path 21909" d="M296.072,40.341c-.247.179-.383.351-.519.352-.119,0-.347-.207-.334-.3a.523.523,0,0,1,.312-.376c.12-.024.281.157.541.321" transform="translate(19788.805 -13159.38)"/>
        <path id="Path_21910" data-name="Path 21910" d="M295.476,40.738a.584.584,0,0,1-.363-.212.292.292,0,0,1-.093-.225.636.636,0,0,1,.411-.48c.131-.027.252.064.4.178.066.05.141.106.227.161l.153.1-.147.107c-.081.058-.15.116-.21.167a.644.644,0,0,1-.38.207Zm0-.675a.426.426,0,0,0-.213.273.546.546,0,0,0,.213.156c.044,0,.131-.073.222-.15l.088-.072c-.036-.025-.068-.05-.1-.074a.78.78,0,0,0-.21-.133" transform="translate(19788.881 -13159.301)"/>
        <path id="Path_21911" data-name="Path 21911" d="M284.484,50.752c.185.258.375.408.358.53a.537.537,0,0,1-.356.34c-.079.02-.3-.2-.311-.318-.01-.137.149-.285.308-.552" transform="translate(19793.047 -13163.503)"/>
        <path id="Path_21912" data-name="Path 21912" d="M284.4,51.607a.3.3,0,0,1-.17-.068.614.614,0,0,1-.252-.368.649.649,0,0,1,.174-.394c.046-.066.1-.14.151-.228l.1-.161.109.152c.062.086.124.159.179.223.124.146.221.261.2.4a.656.656,0,0,1-.449.444.181.181,0,0,1-.041,0m.018-.781c-.022.033-.044.064-.064.093a.62.62,0,0,0-.131.236.48.48,0,0,0,.178.2.43.43,0,0,0,.244-.232.847.847,0,0,0-.147-.2l-.081-.1" transform="translate(19793.125 -13163.364)"/>
        <path id="Path_21913" data-name="Path 21913" d="M299.93,37.866c-.247.177-.382.348-.521.351-.118,0-.347-.206-.335-.294a.523.523,0,0,1,.311-.378c.123-.023.284.157.545.321" transform="translate(19787.322 -13158.428)"/>
        <path id="Path_21914" data-name="Path 21914" d="M299.332,38.264a.6.6,0,0,1-.364-.212.279.279,0,0,1-.091-.224.635.635,0,0,1,.409-.481c.135-.025.255.065.407.179.065.049.14.105.227.159l.155.1-.149.107c-.081.058-.149.115-.21.166a.658.658,0,0,1-.381.209Zm0-.674h0a.427.427,0,0,0-.211.275.575.575,0,0,0,.212.153c.047,0,.134-.074.226-.151l.086-.071c-.035-.025-.068-.049-.1-.072a.777.777,0,0,0-.214-.134" transform="translate(19787.4 -13158.351)"/>
        <path id="Path_21915" data-name="Path 21915" d="M301.6,36.225c-.258.171-.415.355-.535.334a.535.535,0,0,1-.324-.369c-.016-.083.21-.295.332-.3s.274.164.528.334" transform="translate(19786.684 -13157.792)"/>
        <path id="Path_21916" data-name="Path 21916" d="M301,36.607a.262.262,0,0,1-.044,0,.645.645,0,0,1-.423-.466.259.259,0,0,1,.073-.211.614.614,0,0,1,.376-.235H301a.653.653,0,0,1,.374.195c.062.049.132.1.216.161l.152.1-.153.1c-.086.057-.16.115-.224.166a.653.653,0,0,1-.357.19M301,35.937h0a.456.456,0,0,0-.216.18.454.454,0,0,0,.226.243.8.8,0,0,0,.2-.137l.1-.076-.089-.07a.641.641,0,0,0-.222-.141" transform="translate(19786.762 -13157.717)"/>
        <path id="Path_21917" data-name="Path 21917" d="M294.412,31c-.267.164-.429.339-.551.316a.523.523,0,0,1-.311-.374c-.013-.084.216-.291.336-.29.137,0,.273.17.526.348" transform="translate(19789.445 -13155.78)"/>
        <path id="Path_21918" data-name="Path 21918" d="M293.807,31.368a.242.242,0,0,1-.047,0,.637.637,0,0,1-.409-.477.271.271,0,0,1,.086-.215.6.6,0,0,1,.371-.216h0a.653.653,0,0,1,.38.2c.062.051.132.108.216.167l.153.108-.159.1c-.091.054-.167.11-.234.159a.683.683,0,0,1-.358.177m0-.666a.45.45,0,0,0-.215.174.44.44,0,0,0,.215.246h0a.778.778,0,0,0,.212-.13l.1-.071-.088-.071c-.092-.076-.18-.147-.225-.147" transform="translate(19789.521 -13155.703)"/>
        <path id="Path_21919" data-name="Path 21919" d="M288.634,57.463c-.166-.26-.331-.4-.326-.545,0-.116.223-.333.313-.316a.51.51,0,0,1,.353.331c.015.127-.167.278-.34.531" transform="translate(19791.459 -13165.752)"/>
        <path id="Path_21920" data-name="Path 21920" d="M288.555,57.609l-.1-.156c-.055-.085-.109-.157-.156-.221a.666.666,0,0,1-.19-.395.546.546,0,0,1,.219-.344.309.309,0,0,1,.24-.091.627.627,0,0,1,.453.438c.016.135-.076.251-.195.4-.051.063-.109.135-.166.218Zm-.033-.964a.524.524,0,0,0-.167.2.621.621,0,0,0,.14.239l.065.088.073-.091c.057-.072.145-.18.142-.213a.412.412,0,0,0-.254-.224" transform="translate(19791.535 -13165.674)"/>
        <path id="Path_21921" data-name="Path 21921" d="M287.5,58.63c-.256.159-.417.337-.54.314a.518.518,0,0,1-.307-.377c-.012-.092.216-.3.329-.3.142.007.275.18.518.361" transform="translate(19792.096 -13166.394)"/>
        <path id="Path_21922" data-name="Path 21922" d="M286.9,58.992a.234.234,0,0,1-.046,0,.632.632,0,0,1-.407-.483.325.325,0,0,1,.111-.245.565.565,0,0,1,.336-.19h.01a.672.672,0,0,1,.379.217c.06.051.127.11.206.168l.145.108-.154.1c-.084.052-.158.107-.223.155a.679.679,0,0,1-.358.179m-.007-.677a.443.443,0,0,0-.2.178.43.43,0,0,0,.209.252h0a.786.786,0,0,0,.211-.131l.1-.07c-.03-.025-.058-.049-.084-.072a.605.605,0,0,0-.231-.157" transform="translate(19792.172 -13166.316)"/>
        <path id="Path_21923" data-name="Path 21923" d="M296.075,29.28c-.243.182-.376.356-.515.361-.119,0-.354-.2-.343-.288a.524.524,0,0,1,.309-.379c.123-.025.287.15.549.307" transform="translate(19788.807 -13155.132)"/>
        <path id="Path_21924" data-name="Path 21924" d="M295.48,29.686a.6.6,0,0,1-.366-.207.282.282,0,0,1-.095-.22.633.633,0,0,1,.406-.484c.137-.026.256.06.408.169.066.047.142.1.228.152l.158.095-.148.11c-.079.06-.147.118-.206.17a.647.647,0,0,1-.378.215h-.007m0-.67h0a.422.422,0,0,0-.211.275.582.582,0,0,0,.218.149c.047,0,.132-.076.223-.155l.084-.073c-.034-.023-.067-.046-.1-.068a.814.814,0,0,0-.216-.128" transform="translate(19788.883 -13155.057)"/>
      </g>
    </g>
  </g>
</svg>
