<svg xmlns="http://www.w3.org/2000/svg" xmlns:xlink="http://www.w3.org/1999/xlink" width="64" height="64" viewBox="0 0 64 64">
  <defs>
    <clipPath id="clip-path">
      <rect id="Rectangle_78289" data-name="Rectangle 78289" width="58.413" height="55.246" fill="none"/>
    </clipPath>
  </defs>
  <g id="Group_59645" data-name="Group 59645" transform="translate(-397 -295)">
    <g id="Rectangle_78267" data-name="Rectangle 78267" transform="translate(397 295)" fill="#fff" stroke="#707070" stroke-width="1" opacity="0">
      <rect width="64" height="64" stroke="none"/>
      <rect x="0.5" y="0.5" width="63" height="63" fill="none"/>
    </g>
    <g id="Group_59616" data-name="Group 59616" transform="translate(399.415 299.181)">
      <g id="Group_59616-2" data-name="Group 59616" clip-path="url(#clip-path)">
        <path id="Path_21827" data-name="Path 21827" d="M88.706,57.846A16.855,16.855,0,0,0,93.968,56.5a17.776,17.776,0,0,0,8.644-24.847c-3.236-6.1-6.547-12.289-9.749-18.276q-2.54-4.75-5.078-9.5c-.258-.483-.469-.655-.807-.656h0c-.34,0-.551.17-.8.647q-2.579,4.842-5.165,9.679L79,17.3a2.718,2.718,0,0,0-.147.3.748.748,0,0,0,.337.938.731.731,0,0,0,.968-.24,3.3,3.3,0,0,0,.218-.376l.055-.1L86.386,6.676c.059-.11.119-.218.187-.338l.367-.659.3.445c.029.043.053.077.073.107a1.544,1.544,0,0,1,.1.163l3.716,6.954c3.362,6.292,6.839,12.8,10.245,19.2a15.729,15.729,0,0,1,1.725,9.831,16.271,16.271,0,0,1-18.749,13.83A16.249,16.249,0,0,1,71.579,34.955a30.56,30.56,0,0,1,1.849-3.963c.244-.464.5-.943.734-1.417.348-.693.721-1.384,1.082-2.053.279-.516.567-1.049.84-1.578a.848.848,0,0,0,.047-.765.747.747,0,0,0-.547-.4c-.224-.045-.559-.035-.887.578q-.728,1.357-1.451,2.717-.914,1.715-1.833,3.427A17.794,17.794,0,0,0,82.675,57.4c.67.153,1.366.268,2.039.38.312.052.623.1.934.159h2.636l.084-.022a1.936,1.936,0,0,1,.338-.069" transform="translate(-57.857 -2.691)"/>
        <path id="Path_21828" data-name="Path 21828" d="M192.08,236.049h-.018a4.1,4.1,0,0,0-4.1,4.039,4.088,4.088,0,0,0,4.091,4.109h0a4.074,4.074,0,1,0,.021-8.149m1.807,5.884a2.582,2.582,0,0,1-1.834.757h-.02a2.583,2.583,0,0,1-2.561-2.56,2.538,2.538,0,0,1,.754-1.817,2.583,2.583,0,0,1,1.836-.757h.017a2.582,2.582,0,0,1,2.563,2.56,2.537,2.537,0,0,1-.756,1.817" transform="translate(-157.159 -197.363)"/>
        <path id="Path_21829" data-name="Path 21829" d="M121.512,176.49h.021a4.114,4.114,0,0,0,4.09-4.093,4.1,4.1,0,0,0-4.065-4.09h-.029a4.127,4.127,0,0,0-4.086,4.093,4.1,4.1,0,0,0,4.069,4.09m-1.777-5.93a2.55,2.55,0,0,1,1.793-.747h.043a2.6,2.6,0,0,1,2.545,2.588,2.6,2.6,0,0,1-2.579,2.58H121.5a2.627,2.627,0,0,1-2.549-2.588,2.6,2.6,0,0,1,.785-1.834" transform="translate(-98.195 -140.723)"/>
        <path id="Path_21830" data-name="Path 21830" d="M147.668,192.107c3.072-5.313,5.907-10.225,8.667-15.016a2.021,2.021,0,0,0,.156-.393l.025-.077c-.041-.536-.28-.686-.534-.766a.777.777,0,0,0-.24-.042c-.192,0-.451.089-.685.494-3.163,5.471-6.006,10.4-8.693,15.063a.957.957,0,0,0-.139.723.708.708,0,0,0,.35.426c.409.232.808.083,1.094-.412" transform="translate(-122.239 -146.999)"/>
        <path id="Path_21831" data-name="Path 21831" d="M114.4,109.433a1.077,1.077,0,1,1-1.1,1.039,1.09,1.09,0,0,1,1.1-1.039" transform="translate(-94.735 -91.498)"/>
        <path id="Path_21832" data-name="Path 21832" d="M112.709,110.242a1.405,1.405,0,0,1,0-2.81h.03a1.405,1.405,0,0,1-.024,2.81Zm0-2.154a.761.761,0,0,0-.749.722.768.768,0,0,0,.748.777h0a.774.774,0,0,0,.748-.745.76.76,0,0,0-.734-.754h-.015" transform="translate(-93.063 -89.825)" fill="#fff"/>
        <path id="Path_21833" data-name="Path 21833" d="M228.155,79.262a.8.8,0,1,1-.82.775.814.814,0,0,1,.82-.775" transform="translate(-190.077 -66.272)"/>
        <path id="Path_21834" data-name="Path 21834" d="M226.89,79.866a1.049,1.049,0,0,1,0-2.1h.022a1.049,1.049,0,0,1-.018,2.1Zm0-1.608a.568.568,0,0,0-.559.539.573.573,0,0,0,.559.58h0a.578.578,0,0,0,.558-.556.567.567,0,0,0-.548-.563h-.011" transform="translate(-188.828 -65.023)" fill="#fff"/>
        <path id="Path_21835" data-name="Path 21835" d="M255.912,21.218c-2.415-4.551-4.885-9.171-7.275-13.638q-1.9-3.545-3.789-7.09c-.193-.361-.35-.489-.6-.49h0c-.254,0-.411.127-.6.483q-1.924,3.613-3.854,7.223l-1.5,2.8a2,2,0,0,0-.11.226.558.558,0,0,0,.252.7.546.546,0,0,0,.723-.179,2.463,2.463,0,0,0,.163-.281l.041-.077L243.8,2.58c.044-.082.089-.163.14-.253l.274-.492.223.332.055.079a1.148,1.148,0,0,1,.078.122l2.773,5.19c2.509,4.7,5.1,9.55,7.646,14.331a11.739,11.739,0,0,1,1.287,7.337A12.116,12.116,0,0,1,246,39.571l-.273,1.173a12.562,12.562,0,0,0,3.73-.983,13.266,13.266,0,0,0,6.451-18.543" transform="translate(-199.112)"/>
        <path id="Path_21836" data-name="Path 21836" d="M34.407,66.537a.427.427,0,0,0,.565-.14,1.963,1.963,0,0,0,.127-.219l.032-.06,3.474-6.5c.034-.064.07-.127.109-.2l.214-.384.174.259.043.062a.885.885,0,0,1,.061.095l2.167,4.057c1.261,2.359,2.549,4.77,3.836,7.183a8.9,8.9,0,0,1,.462-1.013c-1.1-2.069-2.206-4.131-3.288-6.154q-1.482-2.771-2.962-5.543c-.151-.282-.274-.382-.471-.383h0c-.2,0-.322.1-.47.377q-1.5,2.825-3.013,5.647L34.3,65.813a1.558,1.558,0,0,0-.086.177.436.436,0,0,0,.2.547" transform="translate(-28.578 -48.158)"/>
        <path id="Path_21837" data-name="Path 21837" d="M11.7,152.659a9.82,9.82,0,0,1-2.857-.027,9.391,9.391,0,0,1-6.622-4.511,9.3,9.3,0,0,1-.829-7.89,17.791,17.791,0,0,1,1.079-2.312c.142-.271.29-.55.428-.826.2-.4.421-.808.632-1.2.163-.3.331-.612.49-.92a.5.5,0,0,0,.027-.446.436.436,0,0,0-.319-.234c-.131-.026-.326-.02-.518.337q-.425.792-.847,1.585-.533,1-1.069,2a10.38,10.38,0,0,0,6.57,15.109c.391.089.8.156,1.19.221.182.03.364.06.545.093h1.538l.049-.013a1.145,1.145,0,0,1,.2-.04c.168-.015.334-.036.5-.059Z" transform="translate(0 -112.277)"/>
      </g>
    </g>
  </g>
</svg>
