<svg xmlns="http://www.w3.org/2000/svg" xmlns:xlink="http://www.w3.org/1999/xlink" width="64" height="64" viewBox="0 0 64 64">
  <defs>
    <clipPath id="clip-Ozone">
      <rect width="64" height="64"/>
    </clipPath>
  </defs>
  <g id="Ozone" clip-path="url(#clip-Ozone)">
    <g id="Group_59700" data-name="Group 59700" transform="translate(-397 -295)">
      <g id="Rectangle_78267" data-name="Rectangle 78267" transform="translate(397 295)" fill="#fff" stroke="#707070" stroke-width="1" opacity="0">
        <rect width="64" height="64" stroke="none"/>
        <rect x="0.5" y="0.5" width="63" height="63" fill="none"/>
      </g>
      <g id="Group_59701" data-name="Group 59701" transform="translate(-19529.139 13442.776)">
        <path id="Path_21879" data-name="Path 21879" d="M158.688,19.811h-.017a14.469,14.469,0,0,0-.027,28.937h.01a14.469,14.469,0,0,0,.034-28.937m-1.022,1.4.4-.094V25.8l-3.907-.364.055-.343a6.166,6.166,0,0,1,3.453-3.886m.376,5.806v6.648h-5.768l.031-.354c.021-.25.038-.5.055-.744a15.24,15.24,0,0,1,.17-1.646c.157-.883.354-1.77.544-2.627.086-.393.174-.785.257-1.178a.635.635,0,0,1,.762-.574c.881.113,1.762.216,2.662.322Zm-7.62-3.156a12.924,12.924,0,0,1,3.461-1.988l.83-.321-.728,1.329c-.344.629-.668,1.223-1,1.81a.653.653,0,0,1-.538.291.484.484,0,0,1-.124-.016c-.417-.114-.831-.242-1.3-.385l-1.089-.334ZM145.387,33.3c.029-.2.055-.389.081-.58.055-.415.112-.845.2-1.263a13.425,13.425,0,0,1,2.956-5.9.806.806,0,0,1,1.033-.244c.553.218,1.117.413,1.693.612l1.008.352-.094.3a25.637,25.637,0,0,0-1.117,6.787l-.013.312h-5.805Zm3.861,10.069a.692.692,0,0,1-.474-.215,13.131,13.131,0,0,1-3.372-7.92l-.029-.352h5.755l.014.311a26.207,26.207,0,0,0,1.122,6.785l.094.3-.843.307c-.715.261-1.415.517-2.118.762a.462.462,0,0,1-.148.024m4.631,3.3a12.842,12.842,0,0,1-3.459-1.96l-.509-.385L150.981,44c.494-.153.938-.289,1.386-.413a.611.611,0,0,1,.621.284c.333.591.658,1.188,1,1.812l.7,1.278Zm4.163.721-.375-.058c-1.207-.188-3.055-2.229-3.468-3.831l-.094-.367,3.938-.389Zm.036-7.578v1.765l-1.013.092c-.55.049-1.091.1-1.631.153-.478.05-.861.1-1.2.172a1.235,1.235,0,0,1-.232.024.66.66,0,0,1-.675-.6c-.1-.475-.2-.95-.3-1.424-.178-.835-.363-1.7-.515-2.556a13.174,13.174,0,0,1-.154-1.517c-.015-.233-.03-.473-.051-.716l-.031-.353,4.006,0c.374,0,.747.007,1.118,0a.684.684,0,0,1,.517.164.612.612,0,0,1,.165.456c0,1.44,0,2.88,0,4.336m5.376-17.937a12.892,12.892,0,0,1,3.458,1.988l.485.385-1.087.333c-.466.144-.88.272-1.3.388a.492.492,0,0,1-.133.017.6.6,0,0,1-.508-.257c-.343-.6-.675-1.214-1.028-1.86l-.718-1.314Zm-4.174-.9.452.191c1.775.752,2.653,2.234,3.467,3.817l.22.426-4.139.4Zm-.013,6,.65-.054c.261-.021.52-.042.777-.07l.075-.008c.8-.088,1.6-.177,2.4-.285a.666.666,0,0,1,.828.508A25.067,25.067,0,0,1,165,32.912a.771.771,0,0,1-.167.6.757.757,0,0,1-.58.191H164.2c-.954-.018-1.909-.016-2.865-.014l-1.245,0c-.105,0-.211-.006-.331-.012l-.494-.023Zm.145,8.052a.721.721,0,0,1,.517-.174q2.167.026,4.333.009a.767.767,0,0,1,.591.193.727.727,0,0,1,.155.567,26.349,26.349,0,0,1-.972,5.748.741.741,0,0,1-.765.632,1.792,1.792,0,0,1-.248-.02c-.712-.1-1.444-.171-2.152-.241l-.819-.081c-.1-.01-.2-.018-.325-.027l-.476-.038V36.952c0-.463,0-.925-.009-1.387a.71.71,0,0,1,.17-.54m.231,12.323-.392.083V42.856h.325c.117,0,.227,0,.331,0a5.718,5.718,0,0,1,.639.01c.546.049,1.091.109,1.637.17l1.015.11-.072.35c-.305,1.492-2.194,3.583-3.483,3.857m3.687-.476L163,46.314l.353-.647c.334-.612.667-1.224,1.013-1.829a.647.647,0,0,1,.68-.237c.419.116.833.245,1.247.375l.551.17.186.618Zm8.029-8.6a13.548,13.548,0,0,1-2.634,4.719.84.84,0,0,1-.652.352,1.123,1.123,0,0,1-.419-.094c-.538-.219-1.1-.408-1.635-.591-.221-.075-.439-.149-.654-.224l-.265-.093.053-.276q.125-.647.252-1.284c.2-1.016.393-1.975.556-2.958.1-.582.137-1.191.176-1.781l.037-.533a.615.615,0,0,1,.634-.655l4.659.031a.435.435,0,0,1,.217.066l.189.092.038.233a10.953,10.953,0,0,1-.552,3m.529-5.4.1.8H166.2l-.014-.311a25.724,25.724,0,0,0-1.118-6.767l-.095-.3.892-.324c.705-.257,1.393-.508,2.087-.739.343-.113.673.259.71.3a13.2,13.2,0,0,1,3.106,6.488c.049.278.082.558.117.852" transform="translate(19799.492 -13149.982)"/>
        <path id="Path_21880" data-name="Path 21880" d="M173.807,63.241a26.274,26.274,0,0,0,11.922-18.422,25.545,25.545,0,0,0-.014-7.873c-.056-.363-.217-.788-.671-.729-.142.017-.576.069-.487.887.025.237.055.473.083.71.071.586.145,1.192.169,1.8a25.361,25.361,0,0,1-35.5,24.524c-.35-.153-.693-.325-1.035-.5-.267-.133-.533-.266-.8-.39a.578.578,0,1,0-.531,1.026c.122.076.25.145.378.211a25.877,25.877,0,0,0,11.364,2.962h.008a26.6,26.6,0,0,0,15.118-4.206" transform="translate(19798.648 -13155.72)"/>
        <path id="Path_21881" data-name="Path 21881" d="M159.418,4.363a.534.534,0,0,0-.038-.421.922.922,0,0,0-.591-.364,26.083,26.083,0,0,0-5.773-.839,25.738,25.738,0,0,0-15.922,4.716c-7.277,5.16-11.036,12.232-11.493,21.623.026.317.049.658.073,1.017.061.9.129,1.914.268,2.913.127.918.344,1.847.556,2.746.066.281.132.562.195.844a.559.559,0,0,0,.487.475c.123.02.418.044.522-.187a1.135,1.135,0,0,0,.071-.7,25.459,25.459,0,0,1-.761-9.978,24.675,24.675,0,0,1,10.42-17.557A24.646,24.646,0,0,1,158.5,4.717c.233.057.788.138.918-.354" transform="translate(19806 -13144.003)"/>
        <path id="Path_21882" data-name="Path 21882" d="M189.791,8.55V8.257c0-.44,0-.88,0-1.32a4.3,4.3,0,0,0-4.277-4.215h0a4.3,4.3,0,0,0-4.289,4.21c-.018,1.4-.018,2.671,0,3.875a4.3,4.3,0,0,0,3.962,4.181,4.227,4.227,0,0,0,4.532-3.576,9.95,9.95,0,0,0,.035-1.712c-.011-.276-.021-.552-.021-.826V8.55Zm-1.167.894c0,.44.005.881-.006,1.32a3.12,3.12,0,0,1-3.114,3.063h-.01a3.087,3.087,0,0,1-3.1-3.065c-.022-1.261-.022-2.54,0-3.8A3.089,3.089,0,0,1,185.5,3.9h.006a3.117,3.117,0,0,1,3.115,3.062c.011.44.008.88.006,1.32l0,.583Z" transform="translate(19786.541 -13144)"/>
        <path id="Path_21883" data-name="Path 21883" d="M199.362,26.343a3.353,3.353,0,0,0,3.691-1.392,3.31,3.31,0,0,0-.176-3.924,6.815,6.815,0,0,0-.67-.66c-.131-.117-.267-.241-.41-.376l-.248-.236,1.834-1.743a.565.565,0,0,0,.174-.69.543.543,0,0,0-.579-.355h-.395c-1.394-.005-2.788-.01-4.181,0a.584.584,0,0,0-.42.176.573.573,0,0,0-.166.411.593.593,0,0,0,.61.576c.39.007.779.006,1.169,0,.256,0,.513,0,.77,0a1.9,1.9,0,0,1,.277.027l.257.033.272.483-.493.452c-.248.228-.5.454-.74.684-.33.311-.3.528-.224.718a.635.635,0,0,0,.636.385,2.188,2.188,0,0,1-.04,4.373h-.058a2.194,2.194,0,0,1-2.191-2.09c-.023-.257-.128-.683-.579-.683h-.028a.531.531,0,0,0-.412.194.827.827,0,0,0-.151.556,3.372,3.372,0,0,0,2.47,3.076" transform="translate(19781.051 -13148.983)"/>
        <path id="Path_21884" data-name="Path 21884" d="M134.964,69.673a6.7,6.7,0,0,0,5.173-2.464,7.426,7.426,0,0,0,1.511-5.635.55.55,0,0,0-.582-.471c-.426-.017-.852-.015-1.275,0a6.611,6.611,0,0,0-5.571,2.992c-.06.085-.122.169-.177.245l-.307.42-.267-.3c-.165-.186-.323-.374-.479-.559A11.709,11.709,0,0,0,132,62.805a6.8,6.8,0,0,0-4.888-1.73q-.452,0-.937.036a.547.547,0,0,0-.482.573c-.011.315-.009.63-.007.944l0,.339a6.733,6.733,0,0,0,5.234,6.527,11.167,11.167,0,0,0,1.247.176c.21.022.423.045.642.073l.284.036v1.858c0,.98,0,1.958,0,2.939a.579.579,0,0,0,.574.645h.007a.583.583,0,0,0,.579-.633c.007-.346.007-.693,0-1.039V69.722l.465-.034c.095-.008.168-.014.242-.016m-1.929-1.507L133,68.4l-.236.035a4.2,4.2,0,0,1-.607.043,5.268,5.268,0,0,1-3.55-1.491,5.363,5.363,0,0,1-1.713-4.369l.021-.252.249-.041a5.463,5.463,0,0,1,5.873,5.84m1.347.268-.041-.236a5.042,5.042,0,0,1,1.432-4.176,5.22,5.22,0,0,1,4.4-1.7l.263.03.025.264a5.463,5.463,0,0,1-1.7,4.352,5.18,5.18,0,0,1-3.576,1.527,4.506,4.506,0,0,1-.561-.035Z" transform="translate(19805.973 -13164.424)"/>
      </g>
    </g>
  </g>
</svg>
