<svg xmlns="http://www.w3.org/2000/svg" xmlns:xlink="http://www.w3.org/1999/xlink" width="64" height="64" viewBox="0 0 64 64">
  <defs>
    <clipPath id="clip-path">
      <rect id="Rectangle_78272" data-name="Rectangle 78272" width="59.82" height="52.166" fill="none"/>
    </clipPath>
  </defs>
  <g id="Group_59643" data-name="Group 59643" transform="translate(-397 -295)">
    <g id="Rectangle_78267" data-name="Rectangle 78267" transform="translate(397 295)" fill="#fff" stroke="#707070" stroke-width="1" opacity="0">
      <rect width="64" height="64" stroke="none"/>
      <rect x="0.5" y="0.5" width="63" height="63" fill="none"/>
    </g>
    <g id="Group_59609" data-name="Group 59609" transform="translate(399.089 300.917)">
      <g id="Group_59609-2" data-name="Group 59609" clip-path="url(#clip-path)">
        <path id="Path_21799" data-name="Path 21799" d="M151.234,22.6a5.485,5.485,0,0,0-4.389-8.289,5.849,5.849,0,0,0-9.474-3.825,9.12,9.12,0,1,0-15.093,8.392,6.65,6.65,0,0,0,.339,13.291h26.751l.045-.1a4.82,4.82,0,1,0,1.822-9.465" transform="translate(-95.933 -2.482)" fill="#fff"/>
        <path id="Path_21800" data-name="Path 21800" d="M147.933,30.209a5.375,5.375,0,0,1-.686-.044l-.019.044H120.135a7.169,7.169,0,0,1-1.443-14.192,9.638,9.638,0,1,1,16.533-8.88,6.368,6.368,0,0,1,9.587,4.216,6,6,0,0,1,4.706,8.419,5.339,5.339,0,0,1-1.586,10.437m-1.31-1.218.415.088a4.3,4.3,0,0,0,5.2-4.208,4.289,4.289,0,0,0-3.57-4.238l-.746-.128.389-.649a4.967,4.967,0,0,0-3.974-7.506l-.431-.025-.054-.428a5.338,5.338,0,0,0-5.29-4.665,5.273,5.273,0,0,0-3.344,1.18l-.68.548-.155-.86a8.6,8.6,0,1,0-14.235,7.916l.926.839-1.248.063a6.132,6.132,0,0,0,.313,12.256h26.41Z" transform="translate(-93.451)"/>
        <path id="Path_21801" data-name="Path 21801" d="M52.35,90.1a7.675,7.675,0,0,0-6.142-11.6,8.185,8.185,0,0,0-13.257-5.352,12.761,12.761,0,1,0-21.12,11.743,9.305,9.305,0,0,0,.474,18.6H49.738l.063-.147A6.745,6.745,0,1,0,52.35,90.1" transform="translate(-2.482 -51.84)" fill="#fff"/>
        <path id="Path_21802" data-name="Path 21802" d="M48.721,101.524a7.283,7.283,0,0,1-1.088-.082l-.035.082H9.824A9.825,9.825,0,0,1,8.208,82.009a13.28,13.28,0,1,1,22.6-12.235,8.7,8.7,0,0,1,13.368,5.759,8.194,8.194,0,0,1,6.472,11.725,7.263,7.263,0,0,1-1.93,14.266m-1.71-1.26.416.088a6.23,6.23,0,0,0,7.521-6.091,6.208,6.208,0,0,0-5.167-6.135L49.035,88l.389-.649A7.157,7.157,0,0,0,43.7,76.533l-.431-.025-.053-.428A7.676,7.676,0,0,0,35.6,69.37a7.583,7.583,0,0,0-4.809,1.7l-.68.548-.155-.86A12.243,12.243,0,1,0,9.7,82.023l.926.839-1.248.063a8.787,8.787,0,0,0,.448,17.563H46.915Z" transform="translate(0 -49.358)"/>
        <rect id="Rectangle_78268" data-name="Rectangle 78268" width="1.037" height="3.668" transform="translate(21.556 33.772)"/>
        <rect id="Rectangle_78269" data-name="Rectangle 78269" width="1.037" height="3.668" transform="translate(23.48 42.896)"/>
        <rect id="Rectangle_78270" data-name="Rectangle 78270" width="1.037" height="3.668" transform="translate(26.969 42.896)"/>
        <rect id="Rectangle_78271" data-name="Rectangle 78271" width="1.037" height="3.668" transform="translate(29.071 33.772)"/>
        <path id="Path_21803" data-name="Path 21803" d="M109.488,176.543H99.5a1.671,1.671,0,0,1-1.669-1.669v-3.71a1.66,1.66,0,0,1,.183-.754,7.706,7.706,0,0,1-2.692-5.747c0-4.5,4.173-8.167,9.3-8.167s9.3,3.664,9.3,8.167a7.719,7.719,0,0,1-2.883,5.91,1.63,1.63,0,0,1,.11.592v3.71a1.671,1.671,0,0,1-1.669,1.669m-4.86-19.01c-4.558,0-8.265,3.2-8.265,7.13a6.745,6.745,0,0,0,2.681,5.255l.473.374-.441.411a.626.626,0,0,0-.2.461v3.71a.633.633,0,0,0,.632.632h9.984a.633.633,0,0,0,.632-.632v-3.71a.625.625,0,0,0-.145-.395l-.339-.417.429-.324a6.76,6.76,0,0,0,2.828-5.366c0-3.931-3.708-7.13-8.265-7.13" transform="translate(-78.858 -129.461)"/>
      </g>
    </g>
  </g>
</svg>
