<svg xmlns="http://www.w3.org/2000/svg" xmlns:xlink="http://www.w3.org/1999/xlink" width="64" height="64" viewBox="0 0 64 64">
  <defs>
    <clipPath id="clip-Volatile_organic_compounds">
      <rect width="64" height="64"/>
    </clipPath>
  </defs>
  <g id="Volatile_organic_compounds" data-name="Volatile organic compounds" clip-path="url(#clip-Volatile_organic_compounds)">
    <g id="Group_59704" data-name="Group 59704" transform="translate(-397 -295)">
      <g id="Rectangle_78267" data-name="Rectangle 78267" transform="translate(397 295)" fill="#fff" stroke="#707070" stroke-width="1" opacity="0">
        <rect width="64" height="64" stroke="none"/>
        <rect x="0.5" y="0.5" width="63" height="63" fill="none"/>
      </g>
      <g id="Group_59705" data-name="Group 59705" transform="translate(-19779.529 13442.712)">
        <path id="Path_21925" data-name="Path 21925" d="M402.508,55.441a27.153,27.153,0,1,1,27.217-26.715,27.255,27.255,0,0,1-27.217,26.715M420.341,9.488c-7.564-6.536-16.127-8.727-25.717-5.756a25.6,25.6,0,0,0-17.873,22.723,25.364,25.364,0,0,0,6.991,19.567l36.6-36.534M384.814,47.02a25.817,25.817,0,0,0,43.492-16.68,25.275,25.275,0,0,0-6.962-19.775L384.814,47.02" transform="translate(19806 -13144)"/>
        <path id="Path_21926" data-name="Path 21926" d="M394.225,33.417c0-1.729-.009-3.458.006-5.186a.842.842,0,0,0-.481-.854c-1.468-.814-2.923-1.651-4.371-2.5a.67.67,0,0,0-.785-.018c-1.695,1-3.4,1.97-5.11,2.947-.461.265-.843.194-1.06-.174s-.111-.69.354-.961c1.671-.971,3.344-1.937,5.035-2.871a.779.779,0,0,0,.48-.788c-.014-1.864-.005-3.729,0-5.593a3.572,3.572,0,0,1,.006-.406.686.686,0,0,1,.629-.686.674.674,0,0,1,.718.591,2.467,2.467,0,0,1,.042.6c0,1.864-.024,3.728-.005,5.592a.817.817,0,0,0,.336.594c1.472.873,2.97,1.7,4.447,2.569a.813.813,0,0,0,.934-.006q4.213-2.466,8.448-4.9a.972.972,0,0,0,.549-.978c-.024-1.508-.012-3.017-.01-4.525a1.823,1.823,0,0,1,.049-.7.95.95,0,0,1,.489-.485.512.512,0,0,1,.673.381,2.26,2.26,0,0,1,.093.645c.008,1.61.017,3.221,0,4.83a.8.8,0,0,0,.471.8c1.423.791,2.829,1.609,4.24,2.419.117.068.227.149.338.226.329.227.588.491.363.927-.2.385-.559.46-1.055.192-.641-.347-1.266-.721-1.9-1.087-.909-.528-1.824-1.045-2.717-1.6a.723.723,0,0,0-.844.063q-3.172,1.83-6.343,3.661c-.764.44-1.542.857-2.288,1.325a.836.836,0,0,0-.356.586q-.033,5.059,0,10.118a.97.97,0,0,0,.346.609c.328.288.544.568.279,1-.211.343-.54.358-1.029.142a1.506,1.506,0,0,1-.985-1.631c.062-1.624.019-3.253.019-4.88Z" transform="translate(19803.49 -13148.856)"/>
        <path id="Path_21927" data-name="Path 21927" d="M425.17,39.264c0,1.763.008,3.525-.006,5.288a.805.805,0,0,0,.474.8c1.464.819,2.9,1.684,4.372,2.494a.952.952,0,0,0,.787,0c1.633-.9,3.245-1.837,4.859-2.77.715-.414,1.054-.409,1.306.054.226.413.044.716-.648,1.112-1.589.909-3.169,1.833-4.767,2.728a.777.777,0,0,0-.461.795c.024,1.83.011,3.661.011,5.491a3.881,3.881,0,0,1-.011.457c-.046.39-.211.695-.657.7a.62.62,0,0,1-.665-.677c-.017-.643,0-1.287,0-1.931,0-1.339-.006-2.677.013-4.016a.8.8,0,0,0-.447-.781c-1.516-.866-3.021-1.753-4.55-2.594a.893.893,0,0,0-.729.071c-2.565,1.456-5.116,2.936-7.672,4.409a18.063,18.063,0,0,1-1.6.888,1.083,1.083,0,0,1-.838.019c-1.722-.95-3.423-1.937-5.118-2.933a1.3,1.3,0,0,1-.57-.6.686.686,0,0,1,.269-.624,1.067,1.067,0,0,1,.834,0c.943.5,1.849,1.066,2.772,1.6.615.359,1.22.738,1.856,1.052a.912.912,0,0,0,.737.011q4.4-2.5,8.763-5.059a.825.825,0,0,0,.3-.613c.027-2.948.028-5.9.036-8.844a5.045,5.045,0,0,1,.01-.813.961.961,0,0,0-.509-1.143.533.533,0,0,1-.181-.8.613.613,0,0,1,.814-.307c1,.358,1.209.635,1.213,1.7.005,1.61,0,3.22,0,4.83Z" transform="translate(19794.178 -13155.331)"/>
        <path id="Path_21928" data-name="Path 21928" d="M422.449,71.216a3.71,3.71,0,0,1-1.255,2.827c-.283.247-.579.345-.893.03a.619.619,0,0,1-.035-.971,2.562,2.562,0,0,0,.445-3.292,4.014,4.014,0,0,0-.58-.7,3.887,3.887,0,0,1,.016-5.557c.271-.26.565-.456.938-.168a.624.624,0,0,1,.139.97c-.039.055-.088.1-.132.154a2.539,2.539,0,0,0,.153,3.833,3.935,3.935,0,0,1,1.2,2.874" transform="translate(19790.324 -13166.309)"/>
        <path id="Path_21929" data-name="Path 21929" d="M405.143,74.278a.7.7,0,0,1-.7-.948,3.972,3.972,0,0,1,.382-.537,2.521,2.521,0,0,0-.177-3.449,4.292,4.292,0,0,1-1.321-2.4,3.887,3.887,0,0,1,1.035-3.318c.435-.471.726-.509,1.075-.183s.334.616-.067,1.093a2.537,2.537,0,0,0-.395,3.084,5.387,5.387,0,0,0,.68.815,3.921,3.921,0,0,1,.043,5.421,3.552,3.552,0,0,1-.55.422" transform="translate(19795.961 -13166.303)"/>
        <path id="Path_21930" data-name="Path 21930" d="M430.276,70.858a3.872,3.872,0,0,1-1.085,3.057c-.357.379-.743.445-1.023.2-.334-.295-.308-.616-.012-1.08a5.013,5.013,0,0,0,.763-1.455,2.5,2.5,0,0,0-.872-2.412,3.92,3.92,0,0,1-.6-4.926,4.53,4.53,0,0,1,.724-.841.574.574,0,0,1,.828.006.61.61,0,0,1,.124.863,3.544,3.544,0,0,1-.245.322,2.531,2.531,0,0,0,.194,3.718,3.756,3.756,0,0,1,1.208,2.55" transform="translate(19787.5 -13166.302)"/>
        <path id="Path_21931" data-name="Path 21931" d="M412.839,74.354c-.21-.192-.458-.324-.54-.523a.89.89,0,0,1,.083-.641,9.408,9.408,0,0,0,.818-1.544,2.509,2.509,0,0,0-.877-2.506,3.965,3.965,0,0,1,.005-5.613c.415-.4.875-.382,1.08.1a.911.911,0,0,1-.1.766c-1.173,1.553-1.128,2.665.219,4.1a3.9,3.9,0,0,1-.049,5.453,4.187,4.187,0,0,1-.643.413" transform="translate(19793.131 -13166.309)"/>
      </g>
    </g>
  </g>
</svg>
