<svg xmlns="http://www.w3.org/2000/svg" width="15.661" height="18" viewBox="0 0 15.661 18">
    <defs>
        <style>
            .cls-1{fill:#3a4354}
        </style>
    </defs>
    <g id="Group_762" transform="translate(-922.715 -2232.803)">
        <path id="Path_785" d="M938.2 2237.176l-4.819-4.219a.65.65 0 0 0-.426-.154h-8.433a1.707 1.707 0 0 0-1.807 1.582v14.836a1.707 1.707 0 0 0 1.807 1.582h12.047a1.708 1.708 0 0 0 1.807-1.582v-11.672a.5.5 0 0 0-.176-.373zm-4.643-2.573l2.763 2.418h-2.16a.57.57 0 0 1-.6-.527zm3.012 15.145h-12.047a.57.57 0 0 1-.6-.527v-14.836a.57.57 0 0 1 .6-.528h7.831v2.637a1.707 1.707 0 0 0 1.807 1.582h3.012v11.145a.57.57 0 0 1-.603.527z" class="cls-1"/>
        <path id="Path_786" d="M934.16 2240.256h-7.229a.532.532 0 1 0 0 1.054h7.229a.532.532 0 1 0 0-1.054z" class="cls-1"/>
        <path id="Path_787" d="M934.16 2242.365h-7.229a.532.532 0 1 0 0 1.055h7.229a.532.532 0 1 0 0-1.055z" class="cls-1"/>
        <path id="Path_788" d="M934.16 2244.474h-7.229a.532.532 0 1 0 0 1.055h7.229a.532.532 0 1 0 0-1.055z" class="cls-1"/>
        <path id="Path_789" d="M931.75 2246.584h-4.819a.532.532 0 1 0 0 1.054h4.819a.532.532 0 1 0 0-1.054z" class="cls-1"/>
    </g>
</svg>
