<?xml version="1.0" standalone="no"?>
<!DOCTYPE svg PUBLIC "-//W3C//DTD SVG 20010904//EN"
 "http://www.w3.org/TR/2001/REC-SVG-20010904/DTD/svg10.dtd">
<svg version="1.0" xmlns="http://www.w3.org/2000/svg"
 width="512.000000pt" height="512.000000pt" viewBox="0 0 512.000000 512.000000"
 preserveAspectRatio="xMidYMid meet">

<g transform="translate(0.000000,512.000000) scale(0.100000,-0.100000)"
fill="#000000" stroke="none">
<path d="M3493 4978 c-6 -7 -31 -53 -57 -103 -62 -120 -122 -185 -283 -307
-177 -133 -219 -191 -238 -329 -14 -94 32 -231 101 -302 l35 -35 -46 -52 c-52
-59 -89 -127 -106 -196 -7 -27 -13 -51 -15 -53 -2 -2 -23 14 -47 36 l-43 39
28 38 c72 100 92 252 47 371 -31 83 -114 164 -240 233 -198 108 -279 184 -383
355 -13 22 -24 27 -44 25 -25 -3 -30 -12 -63 -113 -55 -164 -74 -285 -73 -450
1 -161 17 -242 69 -351 45 -93 107 -157 193 -197 62 -30 75 -32 172 -32 100 0
109 2 173 34 l68 34 51 -49 c53 -51 108 -128 108 -151 0 -9 -17 -13 -57 -13
-170 0 -384 -55 -568 -144 -401 -196 -683 -555 -776 -989 -25 -120 -37 -320
-19 -342 16 -19 34 -19 54 1 12 11 16 36 16 98 0 244 105 545 264 756 35 47
103 123 151 169 102 98 88 102 164 -49 77 -153 98 -239 81 -331 -15 -80 -48
-122 -137 -173 -167 -95 -193 -125 -193 -215 0 -85 27 -127 156 -246 62 -58
119 -105 127 -105 18 0 37 21 37 41 0 10 -35 48 -77 86 -153 136 -181 175
-168 239 7 40 42 71 133 119 145 76 193 147 200 294 5 107 -21 192 -109 359
l-59 112 52 34 c122 78 328 161 444 180 38 7 42 5 52 -21 38 -96 24 -137 -73
-208 -88 -65 -122 -105 -131 -150 -17 -92 33 -171 146 -228 138 -69 316 -74
464 -11 33 15 87 36 120 47 53 19 61 19 85 6 14 -8 40 -36 57 -62 44 -68 68
-90 119 -116 147 -73 312 -32 467 118 l79 77 49 -82 c122 -206 178 -397 187
-637 5 -118 -8 -303 -23 -328 -2 -4 -37 26 -78 67 -138 138 -295 176 -434 105
-52 -27 -94 -74 -142 -161 -49 -86 -81 -124 -120 -140 -34 -14 -44 -34 -30
-61 13 -24 31 -24 79 0 50 26 88 71 139 163 67 123 138 167 246 154 77 -9 147
-49 218 -124 96 -103 98 -109 66 -199 -15 -41 -24 -81 -21 -88 7 -20 41 -29
57 -16 18 15 80 202 103 311 25 118 25 408 0 533 -59 291 -212 567 -427 770
-112 105 -223 180 -371 251 -133 64 -250 100 -398 121 -70 10 -110 21 -118 31
-17 22 -27 114 -19 171 9 62 55 156 104 212 l39 45 59 -22 c81 -29 140 -36
210 -23 166 31 281 142 330 322 25 89 25 303 0 419 -39 182 -148 440 -185 440
-10 0 -23 -6 -28 -12z m70 -220 c64 -171 81 -256 82 -418 0 -175 -20 -257 -85
-338 -46 -59 -138 -109 -216 -118 -51 -6 -154 11 -154 25 0 5 23 27 51 51 28
24 78 77 111 119 64 80 77 88 145 90 68 2 95 16 91 49 -3 26 -5 27 -66 27 -34
0 -62 2 -62 5 0 3 9 30 20 60 34 98 20 167 -29 141 -13 -7 -23 -29 -31 -66
-13 -62 -76 -193 -114 -240 l-25 -30 -1 36 c0 79 -12 130 -33 141 -17 9 -24 7
-37 -9 -13 -17 -14 -35 -6 -133 l9 -113 -44 -38 c-24 -21 -49 -39 -55 -39 -19
0 -73 64 -96 115 -32 71 -32 191 1 255 31 61 61 91 161 163 163 117 248 203
311 314 13 24 27 43 30 43 4 0 22 -42 42 -92z m-1248 -307 c70 -74 142 -126
280 -204 171 -95 219 -162 219 -302 0 -67 -4 -89 -27 -136 -15 -31 -35 -63
-45 -72 -17 -15 -22 -14 -75 21 l-57 36 0 112 c0 89 -3 116 -16 128 -19 20
-29 20 -48 0 -12 -11 -16 -36 -16 -92 l-1 -77 -39 45 c-52 60 -96 134 -119
200 -22 62 -51 84 -78 57 -14 -14 -15 -22 -4 -59 7 -24 24 -64 37 -90 l24 -48
-45 0 c-58 0 -85 -14 -85 -44 0 -31 16 -36 106 -36 l74 0 67 -68 c38 -38 97
-88 132 -112 72 -48 72 -50 -30 -76 -145 -37 -296 38 -364 181 -57 122 -79
305 -55 478 11 84 19 121 51 242 l11 39 21 -29 c12 -17 48 -59 82 -94z m811
-1136 c178 -31 361 -106 522 -212 83 -55 244 -200 283 -255 l20 -28 -62 -65
c-113 -118 -227 -168 -332 -145 -69 15 -107 42 -153 112 -76 115 -147 129
-300 61 -100 -45 -170 -63 -248 -63 -210 0 -374 123 -296 223 11 14 49 46 84
71 122 87 144 151 101 294 l-7 22 150 0 c90 0 185 -6 238 -15z"/>
<path d="M3039 2117 c-54 -15 -93 -42 -144 -98 -59 -65 -78 -119 -82 -229 -5
-123 12 -194 46 -198 37 -6 52 20 39 66 -20 68 -15 181 10 237 41 91 124 154
201 155 48 0 119 -37 143 -74 20 -33 20 -41 2 -256 -7 -88 11 -150 44 -150 34
0 44 23 35 77 -6 31 -5 74 3 123 25 154 12 221 -57 287 -62 58 -158 82 -240
60z"/>
<path d="M499 1884 c-9 -11 -10 -20 -2 -32 9 -15 41 -17 277 -20 l266 -2 0
-760 0 -760 -264 0 c-282 0 -296 -2 -281 -50 6 -20 13 -20 304 -20 218 0 300
3 309 12 8 8 12 46 12 105 l0 93 88 -6 c219 -15 420 -61 691 -158 298 -108
467 -143 727 -153 235 -9 395 12 694 87 396 100 824 266 1161 450 243 132 289
175 326 299 43 149 -44 315 -196 372 -106 40 -136 33 -670 -160 -261 -94 -476
-171 -479 -171 -2 0 -1 8 3 18 16 41 22 120 13 172 -12 70 -46 127 -103 178
-82 72 -97 74 -480 81 l-340 7 -64 27 c-35 15 -100 53 -145 85 -211 152 -382
218 -596 229 -174 9 -345 -30 -529 -120 -47 -23 -89 -43 -94 -45 -4 -2 -7 50
-7 115 0 79 -4 123 -12 131 -9 9 -90 12 -304 12 -254 0 -293 -2 -305 -16z
m1381 -168 c142 -31 261 -85 396 -182 196 -141 246 -154 639 -154 160 0 305
-4 324 -10 52 -15 110 -59 137 -105 69 -118 23 -264 -104 -327 -46 -22 -56
-23 -381 -28 -309 -5 -335 -6 -345 -23 -9 -15 -6 -22 14 -38 23 -20 35 -21
345 -17 l320 4 135 52 c74 28 344 126 600 218 507 182 548 193 635 159 91 -34
153 -140 143 -244 -8 -79 -48 -135 -136 -192 -103 -66 -415 -223 -582 -294
-306 -129 -805 -276 -1058 -311 -90 -12 -164 -15 -317 -11 -248 6 -396 32
-612 108 -360 126 -466 156 -654 183 -59 9 -141 16 -183 16 l-76 0 0 513 0
512 23 14 c103 65 272 133 387 156 87 18 270 18 350 1z"/>
</g>
</svg>
