<?xml version="1.0" standalone="no"?>
<!DOCTYPE svg PUBLIC "-//W3C//DTD SVG 20010904//EN"
 "http://www.w3.org/TR/2001/REC-SVG-20010904/DTD/svg10.dtd">
<svg version="1.0" xmlns="http://www.w3.org/2000/svg"
 width="512.000000pt" height="512.000000pt" viewBox="0 0 512.000000 512.000000"
 preserveAspectRatio="xMidYMid meet">

<g transform="translate(0.000000,512.000000) scale(0.100000,-0.100000)"
fill="#00000" stroke="none">
<path d="M4260 5109 c-154 -13 -339 -46 -475 -85 -605 -175 -848 -568 -699
-1134 l25 -96 -26 -104 c-14 -58 -30 -154 -36 -215 -18 -174 -12 -170 -100
-69 l-76 86 19 77 c23 92 27 245 9 321 -29 120 -123 251 -235 326 -174 118
-457 184 -785 184 -140 0 -160 -2 -174 -18 -35 -39 -22 -67 58 -127 125 -94
192 -195 306 -461 27 -66 66 -146 84 -180 78 -140 183 -216 320 -233 72 -8
204 1 265 19 19 5 38 10 41 10 4 0 60 -61 125 -135 l118 -135 3 -170 c3 -164
3 -171 -15 -161 -10 5 -25 17 -32 26 -7 9 -50 42 -94 74 -414 298 -919 384
-1406 241 -124 -36 -336 -137 -435 -205 -181 -125 -322 -268 -441 -445 -293
-441 -352 -996 -155 -1486 204 -511 648 -877 1194 -986 161 -32 433 -32 595 0
359 72 674 252 908 519 380 436 500 1024 318 1573 -57 173 -158 357 -270 495
l-45 55 0 307 c-1 170 4 358 11 418 10 100 45 299 55 316 3 3 40 -2 82 -13 95
-24 326 -35 400 -20 248 54 362 184 548 626 156 372 261 524 460 665 86 62 98
83 66 122 -19 24 -21 24 -213 25 -106 1 -240 -2 -298 -7z m214 -181 c-126
-131 -212 -273 -319 -528 -106 -251 -126 -295 -170 -365 -78 -125 -165 -197
-279 -230 -110 -32 -446 -1 -446 40 0 27 111 234 172 320 60 85 254 290 367
388 47 41 53 50 47 74 -8 33 -31 53 -62 53 -27 0 -157 -112 -284 -247 -109
-115 -211 -253 -272 -368 l-42 -80 -9 40 c-15 63 -14 273 2 335 54 219 214
383 483 494 198 82 519 140 797 145 l84 1 -69 -72z m-2238 -679 c330 -63 518
-207 554 -424 10 -57 5 -169 -9 -207 -5 -14 -46 27 -181 177 -96 107 -183 197
-192 201 -37 12 -85 -38 -73 -76 3 -11 85 -106 181 -212 201 -221 199 -208 33
-209 -183 -2 -254 66 -374 356 -58 141 -129 273 -191 354 l-57 74 104 -7 c57
-4 149 -16 205 -27z m-221 -1261 c-18 -294 72 -427 260 -388 31 6 112 40 179
75 121 62 125 63 170 53 52 -11 241 -6 269 6 15 7 37 -10 114 -90 130 -135
288 -374 247 -374 -3 0 -39 16 -80 36 -65 33 -80 36 -128 31 -101 -10 -188
-74 -237 -172 -60 -122 -36 -256 61 -353 85 -85 154 -100 283 -63 38 11 76 17
85 14 9 -4 57 -29 106 -57 l89 -50 -7 -111 c-7 -126 -34 -285 -47 -285 -21 0
-111 52 -161 93 -29 24 -61 46 -70 49 -23 9 -68 -28 -68 -57 0 -34 106 -127
195 -171 41 -20 75 -39 75 -40 0 -11 -53 -134 -58 -134 -3 0 -55 32 -116 72
-148 97 -207 120 -324 126 l-93 5 -33 71 c-38 83 -76 119 -148 141 -194 57
-381 -61 -404 -255 -8 -74 10 -159 46 -209 22 -30 50 -50 114 -80 80 -38 85
-42 101 -88 71 -191 115 -267 187 -316 42 -28 46 -29 136 -24 51 3 92 1 92 -4
0 -17 -146 -111 -255 -164 -224 -110 -390 -148 -645 -149 -228 -1 -365 24
-570 105 l-77 31 14 46 c28 91 1 216 -73 338 l-36 59 11 111 c15 147 14 190
-4 251 -37 124 -135 168 -290 128 -64 -16 -218 -87 -299 -136 -27 -17 -52 -27
-57 -22 -21 22 -109 337 -96 349 1 2 30 -4 62 -14 91 -26 332 -23 447 6 203
50 327 155 378 320 42 136 34 275 -30 539 l-39 162 24 108 c45 194 31 319 -42
395 l-26 27 69 32 c192 87 402 134 617 137 l89 2 -7 -112z m237 77 c155 -33
352 -112 468 -189 l55 -37 -80 6 c-147 12 -142 13 -285 -58 -162 -79 -201 -89
-235 -57 -40 37 -54 143 -39 289 8 70 4 69 116 46z m-1080 -232 c14 -16 31
-38 37 -50 18 -36 13 -141 -15 -268 l-26 -120 41 -171 c22 -93 46 -206 51
-250 34 -260 -69 -423 -302 -479 -101 -24 -280 -30 -367 -11 -40 8 -87 24
-105 34 -39 22 -42 50 -26 219 40 433 248 808 594 1068 39 30 76 54 82 54 5 1
22 -11 36 -26z m1981 -648 c72 -36 114 -43 147 -25 16 9 21 3 39 -45 40 -107
84 -305 67 -305 -3 0 -27 13 -53 29 -77 47 -123 55 -196 35 -102 -28 -132 -29
-172 -4 -79 49 -111 165 -68 247 23 43 104 103 140 103 14 0 57 -16 96 -35z
m-597 -890 c29 -12 40 -27 73 -99 24 -51 49 -90 63 -98 13 -7 70 -15 128 -19
126 -7 160 -20 312 -121 l108 -72 -26 -45 c-40 -70 -128 -185 -198 -258 l-62
-65 -38 26 c-42 28 -82 32 -154 16 -32 -8 -50 -7 -70 2 -36 18 -82 98 -122
210 -43 125 -63 149 -165 197 -48 23 -89 50 -97 63 -7 13 -13 53 -13 89 0 55
4 72 28 108 48 72 150 101 233 66z m-1477 -224 c26 -26 35 -78 27 -159 -22
-235 -22 -237 12 -289 71 -110 106 -226 85 -281 -8 -22 -10 -21 -86 29 -156
104 -307 255 -414 414 -61 91 -76 124 -64 139 15 18 220 123 283 146 72 25
133 25 157 1z"/>
</g>
</svg>
