<svg xmlns="http://www.w3.org/2000/svg" width="29.13" height="27.963" viewBox="0 0 29.13 27.963">
    <defs>
        <style>
            .cls-1{fill:#28a745}
        </style>
    </defs>
    <g id="Group_523" transform="translate(-782.87 -2733.037)">
        <path id="Path_980" d="M793 2755.372c0-.415-.009-.83 0-1.244a3.731 3.731 0 0 0-.693-2.175c-.513-.777-1.036-1.549-1.531-2.335a6 6 0 0 1-.379-6.118 7.269 7.269 0 0 1 5.6-4.069c4.049-.722 8.009 1.654 8.9 5.305a6.177 6.177 0 0 1-1.008 5.171c-.552.8-1.076 1.616-1.588 2.437a3.106 3.106 0 0 0-.456 1.673c0 .95-.021 1.9.007 2.85a1.553 1.553 0 0 1-1.232 1.57.286.286 0 0 0-.157.188 3.431 3.431 0 0 1-.915 1.634c-1.06 1.03-3.9 1.186-4.849-.832a6.644 6.644 0 0 1-.3-.816.241.241 0 0 0-.193-.192 1.453 1.453 0 0 1-1.2-1.44v-.8zm4.456-2.836h3.148a.248.248 0 0 0 .274-.174 5.2 5.2 0 0 1 .369-.729c.518-.819 1.035-1.638 1.579-2.442a5.693 5.693 0 0 0 .971-3.054 4.871 4.871 0 0 0-1.23-3.312 6.69 6.69 0 0 0-7.746-1.782 5.472 5.472 0 0 0-3.287 7.058 14.567 14.567 0 0 0 1.313 2.262 11.907 11.907 0 0 1 1.208 2.055c.048.128.15.112.254.112q1.573.008 3.146.006zm-.033 4.775h2.684c.328 0 .4-.066.4-.355 0-.223-.008-.446.005-.669.01-.156-.06-.2-.22-.194-.464.007-.928 0-1.393 0h-4.369c-.147 0-.2.04-.194.174.008.229 0 .459 0 .688 0 .276.084.353.389.353q1.346.005 2.697.003zm3.08-3.518h-6.133c0 .307.012.6 0 .89-.011.184.068.223.254.222.971-.007 1.942 0 2.913 0h2.766c.1 0 .206.024.2-.121-.003-.328-.003-.651-.003-.991zm-4.755 4.736a1.741 1.741 0 0 0 3.366 0z" class="cls-1"/>
        <path id="Path_981" d="M798.089 2734.9c0 .42.006.841 0 1.262a.616.616 0 0 1-.477.59.668.668 0 0 1-.725-.223.71.71 0 0 1-.129-.374c-.012-.822-.011-1.645-.006-2.467a.62.62 0 0 1 .466-.618.662.662 0 0 1 .742.231.794.794 0 0 1 .124.394c.016.4.005.8.005 1.205z" class="cls-1"/>
        <path id="Path_982" d="M790.287 2753.351a1.781 1.781 0 0 1-.251.4q-.98.909-1.983 1.8a.67.67 0 0 1-.924.008.536.536 0 0 1 0-.85q.992-.912 2-1.812a.655.655 0 0 1 .721-.11.7.7 0 0 1 .437.564z" class="cls-1"/>
        <path id="Path_983" d="M805.336 2752.721a1.4 1.4 0 0 1 .371.183c.677.594 1.344 1.2 2.007 1.807a.545.545 0 0 1 0 .842.687.687 0 0 1-.929 0q-1.014-.907-2.014-1.828a.5.5 0 0 1-.118-.637.714.714 0 0 1 .683-.367z" class="cls-1"/>
        <path id="Path_984" d="M790.244 2739.069a.622.622 0 0 1-.422.625.652.652 0 0 1-.715-.14c-.585-.526-1.166-1.055-1.749-1.582-.085-.077-.175-.149-.254-.23a.547.547 0 0 1 .022-.828.665.665 0 0 1 .9-.019q1.044.921 2.058 1.869a.92.92 0 0 1 .16.305z" class="cls-1"/>
        <path id="Path_985" d="M807.2 2736.728a.706.706 0 0 1 .655.386.507.507 0 0 1-.136.634c-.262.249-.535.488-.8.731-.388.352-.772.707-1.164 1.054a.685.685 0 0 1-.941.048.548.548 0 0 1 .011-.892q.951-.868 1.911-1.728a.812.812 0 0 1 .2-.143 2 2 0 0 1 .264-.09z" class="cls-1"/>
        <path id="Path_986" d="M784.951 2745.638h1.351a.6.6 0 1 1 .022 1.2q-1.4.014-2.808 0a.616.616 0 0 1-.646-.6.625.625 0 0 1 .666-.589c.472-.007.943 0 1.415 0z" class="cls-1"/>
        <path id="Path_987" d="M809.953 2745.636h1.347a.635.635 0 0 1 .7.56.609.609 0 0 1-.636.632q-1.435.019-2.871 0a.614.614 0 0 1-.627-.6.643.643 0 0 1 .673-.588c.471-.008.942-.004 1.414-.004z" class="cls-1"/>
    </g>
</svg>
