<svg xmlns="http://www.w3.org/2000/svg" width="18" height="18" viewBox="0 0 18 18">
    <defs>
        <style>
            .cls-1{fill:#3a4354}
        </style>
    </defs>
    <g id="Group_761" transform="translate(-912.585 -2050.464)">
        <g id="Group_758">
            <g id="Group_757">
                <path id="Path_782" d="M928.285 2050.464h-13.4a2.3 2.3 0 0 0-2.3 2.3v13.4a2.3 2.3 0 0 0 2.3 2.3h13.4a2.3 2.3 0 0 0 2.3-2.3v-13.4a2.3 2.3 0 0 0-2.3-2.3zm1.24 15.7a1.242 1.242 0 0 1-1.24 1.24h-13.4a1.242 1.242 0 0 1-1.24-1.24v-1.934l3.489-2.969a.342.342 0 0 1 .442 0l2.186 1.815a.53.53 0 0 0 .714-.033l5.193-5.2a.344.344 0 0 1 .51.027l3.346 4.12v4.179zm0-5.861L927 2057.2a1.4 1.4 0 0 0-2.083-.107l-4.852 4.86-1.813-1.506a1.4 1.4 0 0 0-1.807.01l-2.8 2.385v-10.074a1.241 1.241 0 0 1 1.24-1.24h13.4a1.242 1.242 0 0 1 1.24 1.24z" class="cls-1"/>
            </g>
        </g>
        <g id="Group_760">
            <g id="Group_759">
                <path id="Path_783" d="M918.251 2052.678a2.557 2.557 0 1 0 2.556 2.557 2.56 2.56 0 0 0-2.556-2.557zm0 4.053a1.5 1.5 0 1 1 1.5-1.5 1.5 1.5 0 0 1-1.5 1.5z" class="cls-1"/>
            </g>
        </g>
    </g>
</svg>
