<svg id="Layer_1" data-name="Layer 1" xmlns="http://www.w3.org/2000/svg" viewBox="0 0 188.33 181.15"><defs><style>.cls-1{fill:#3a4354;}</style></defs><path class="cls-1" d="M91.89,138.21l-2.64-4.05c-6.29-9.67-13.47-21-19.07-32.94a95.56,95.56,0,0,1-9.07-31.66c-1.32-13.92,6.38-27.93,18.33-33.3a29.58,29.58,0,0,1,24.38-.14,31.29,31.29,0,0,1,16.93,19c3.08,9.4,1.62,18.54-.21,26.23-3.39,14.25-10.21,26.82-17.07,38.29-1.94,3.23-3.93,6.38-6,9.71q-1.47,2.31-3,4.74Zm-.06-98.47A24.05,24.05,0,0,0,82,41.89C72.36,46.21,66.17,57.6,67.26,69a89.45,89.45,0,0,0,8.51,29.63,247.3,247.3,0,0,0,16,28.12l.42-.65c2.08-3.31,4-6.42,6-9.59,6.61-11,13.17-23.12,16.37-36.55,1.63-6.86,2.94-14.94.35-22.89a25.17,25.17,0,0,0-13.57-15.29A23.53,23.53,0,0,0,91.83,39.74Z"/><path class="cls-1" d="M74.17,123c-8.62,1.07-16.79,2.46-24.46,5.85a25,25,0,0,0-5.5,3.32c-1.91,1.52-2,3.21.06,4.52a48.12,48.12,0,0,0,9.06,4.71c8.28,3.1,17,4.19,25.77,4.88,13.91,1.09,27.79.7,41.44-2.27a80.58,80.58,0,0,0,16.21-5.54c5.42-2.47,5.31-5.16.18-8.09-6.7-3.83-14.15-5.27-21.63-6.59-1.8-.31-3.63-.49-5.84-.78,1.1-2,2.1-3.91,3.23-5.75a1.7,1.7,0,0,1,1.42-.41c8.8,1.2,17.47,2.93,25.39,7.2a22.8,22.8,0,0,1,5.31,4c3.84,3.9,3.67,9.12-.19,13-4,4-9.16,6-14.47,7.58-15.43,4.49-31.21,5.47-47.17,4.63-11.52-.59-23-1.83-33.74-6.15a38.46,38.46,0,0,1-10.3-6.28c-4-3.43-3.94-8.57-.38-12.56s8.24-6.06,13.16-7.46c5.58-1.59,11.33-2.59,17-3.91a2.22,2.22,0,0,1,3,1.53C72.32,120,73.24,121.37,74.17,123Z"/><path class="cls-1" d="M89.66,67.47l-.18-.17c-1-1-2-2-3-3a1,1,0,0,0-1.56,0l-.78.78a1,1,0,0,0,0,1.56q2.34,2.35,4.7,4.7a1,1,0,0,0,1.64,0L92.77,69l5.5-5.49a1,1,0,0,0,0-1.52l-.78-.77a1,1,0,0,0-1.6,0l-4,4C91.19,65.94,90.44,66.7,89.66,67.47Z"/><path class="cls-1" d="M91.75,81A16.21,16.21,0,1,1,108,64.81,16.22,16.22,0,0,1,91.75,81Zm0-27.78a11.58,11.58,0,1,0,11.58,11.57A11.58,11.58,0,0,0,91.75,53.24Z"/></svg>