<svg width="1920" height="1080" viewBox="0 0 1920 1080" fill="none" xmlns="http://www.w3.org/2000/svg">
<g clip-path="url(#clip0_306_25)">
<mask id="mask0_306_25" style="mask-type:luminance" maskUnits="userSpaceOnUse" x="0" y="0" width="1920" height="1080">
<path d="M1920 0H0V1080H1920V0Z" fill="white"/>
</mask>
<g mask="url(#mask0_306_25)">
<path d="M931.841 270.832C826.79 335.4 829.464 210.963 691.725 132.31C584.173 70.889 614.186 343.83 579.17 431.372C544.154 518.914 514.139 443.879 391.58 401.359C269.021 358.839 177.588 364.281 68.4251 509.533C-40.7379 654.785 -45.075 982.367 -45.075 982.367C-45.075 982.367 896.823 919.11 949.349 919.11C1001.88 919.11 2027.86 1418.52 1988.65 940.644C1949.44 462.766 1692.74 702.278 1692.77 583.11V581.242C1692.75 521.972 1691.36 470.442 1687.21 448.876C1674.7 383.845 1629.68 261.285 1539.64 208.76C1449.59 156.235 1394.57 268.788 1319.53 271.289C1244.49 273.79 1309.42 201.389 1204.47 118.84C1182.76 101.769 1161.06 94.51 1139.72 94.51C1057.82 94.51 981.447 201.504 931.841 270.832Z" fill="url(#paint0_linear_306_25)"/>
<path d="M1353.26 621.604H569V621.996H1353.26V621.604Z" fill="#EBEBEB"/>
<path d="M1274.68 646.852H1222.72V647.244H1274.68V646.852Z" fill="#EBEBEB"/>
<path d="M1088.52 651.105H1074.89V651.497H1088.52V651.105Z" fill="#EBEBEB"/>
<path d="M1221.15 632.285H1191.05V632.677H1221.15V632.285Z" fill="#EBEBEB"/>
<path d="M719.031 634.92H651.282V635.312H719.031V634.92Z" fill="#EBEBEB"/>
<path d="M742.93 634.92H732.997V635.312H742.93V634.92Z" fill="#EBEBEB"/>
<path d="M922.146 641.545H775.214V641.936H922.146V641.545Z" fill="#EBEBEB"/>
<path d="M940.759 551.649H637.881C635.507 551.646 633.232 550.702 631.553 549.024C629.875 547.345 628.931 545.07 628.928 542.696V116.953C628.931 114.579 629.875 112.304 631.553 110.625C633.232 108.947 635.507 108.003 637.881 108H940.759C943.132 108.003 945.407 108.948 947.085 110.626C948.763 112.305 949.707 114.58 949.71 116.953V542.7C949.707 545.073 948.763 547.349 947.085 549.027C945.407 550.705 943.132 551.65 940.759 551.653M637.881 108.392C635.611 108.395 633.435 109.297 631.831 110.902C630.226 112.507 629.323 114.683 629.321 116.953V542.7C629.323 544.97 630.226 547.146 631.831 548.751C633.436 550.356 635.612 551.259 637.882 551.261H940.759C943.029 551.259 945.205 550.356 946.811 548.751C948.416 547.146 949.319 544.97 949.321 542.7V116.953C949.319 114.683 948.416 112.507 946.811 110.902C945.205 109.297 943.029 108.394 940.759 108.392H637.881Z" fill="#EBEBEB"/>
<path d="M1280.02 551.649H977.146C974.772 551.648 972.496 550.705 970.817 549.027C969.137 547.349 968.192 545.074 968.189 542.7V116.953C968.192 114.579 969.136 112.302 970.816 110.624C972.495 108.945 974.772 108.002 977.146 108H1280.02C1282.4 108.003 1284.67 108.947 1286.35 110.625C1288.03 112.304 1288.97 114.579 1288.98 116.953V542.7C1288.97 545.074 1288.03 547.349 1286.35 549.028C1284.67 550.706 1282.4 551.65 1280.02 551.653M977.146 108.392C974.877 108.395 972.702 109.298 971.097 110.903C969.493 112.508 968.591 114.684 968.589 116.953V542.7C968.591 544.97 969.493 547.146 971.098 548.75C972.703 550.355 974.878 551.258 977.148 551.261H1280.02C1282.29 551.259 1284.47 550.357 1286.08 548.752C1287.68 547.147 1288.59 544.97 1288.59 542.7V116.953C1288.59 114.683 1287.68 112.506 1286.08 110.901C1284.47 109.296 1282.29 108.394 1280.02 108.392H977.146Z" fill="#EBEBEB"/>
<path d="M1239.5 153.297H1023.38V294.819H1239.5V153.297Z" fill="#E6E6E6"/>
<path d="M1236.42 153.297H1016.79V294.819H1236.42V153.297Z" fill="#F0F0F0"/>
<path d="M1239.5 294.818H1023.38V322.593H1239.5V294.818Z" fill="#E6E6E6"/>
<path d="M1225.43 294.818H1005.8V322.593H1225.43V294.818Z" fill="#F0F0F0"/>
<path d="M1227.18 162.529H1026.02V285.588H1227.18V162.529Z" fill="#FAFAFA"/>
<path d="M1181.82 285.589L1156.13 162.529H1116.04L1141.73 285.588L1181.82 285.589Z" fill="white"/>
<path d="M1222.91 276.402C1223.08 276.402 1223.25 276.333 1223.37 276.21C1223.5 276.086 1223.57 275.918 1223.57 275.743V168.535C1223.57 168.36 1223.5 168.192 1223.37 168.068C1223.25 167.945 1223.08 167.875 1222.91 167.875C1222.73 167.875 1222.56 167.945 1222.44 168.068C1222.32 168.192 1222.25 168.36 1222.25 168.535V275.742C1222.25 275.916 1222.32 276.084 1222.44 276.208C1222.56 276.331 1222.73 276.4 1222.91 276.4" fill="#F0F0F0"/>
<path d="M1133.12 285.589L1107.42 162.529H1091.79L1117.49 285.589H1133.12Z" fill="white"/>
<path d="M1027.19 162.529H1026.02V285.588H1027.19V162.529Z" fill="#E6E6E6"/>
<mask id="mask1_306_25" style="mask-type:luminance" maskUnits="userSpaceOnUse" x="1020" y="163" width="217" height="11">
<path d="M1236.96 163H1020V173.33H1236.96V163Z" fill="white"/>
</mask>
<g mask="url(#mask1_306_25)">
<path d="M1020 173.33H1236.11L1236.96 163H1020.85L1020 173.33Z" fill="#646262"/>
</g>
<mask id="mask2_306_25" style="mask-type:luminance" maskUnits="userSpaceOnUse" x="1020" y="179" width="217" height="12">
<path d="M1236.96 179.943H1020V190.273H1236.96V179.943Z" fill="white"/>
</mask>
<g mask="url(#mask2_306_25)">
<path d="M1020 190.273H1236.11L1236.96 179.943H1020.85L1020 190.273Z" fill="#646262"/>
</g>
<mask id="mask3_306_25" style="mask-type:luminance" maskUnits="userSpaceOnUse" x="1020" y="196" width="217" height="12">
<path d="M1236.96 196.887H1020V207.217H1236.96V196.887Z" fill="white"/>
</mask>
<g mask="url(#mask3_306_25)">
<path d="M1020 207.217H1236.11L1236.96 196.887H1020.85L1020 207.217Z" fill="#646262"/>
</g>
<mask id="mask4_306_25" style="mask-type:luminance" maskUnits="userSpaceOnUse" x="1020" y="213" width="217" height="12">
<path d="M1236.96 213.83H1020V224.16H1236.96V213.83Z" fill="white"/>
</mask>
<g mask="url(#mask4_306_25)">
<path d="M1020 224.16H1236.11L1236.96 213.83H1020.85L1020 224.16Z" fill="#646262"/>
</g>
<mask id="mask5_306_25" style="mask-type:luminance" maskUnits="userSpaceOnUse" x="1020" y="230" width="217" height="12">
<path d="M1236.96 230.773H1020V241.103H1236.96V230.773Z" fill="white"/>
</mask>
<g mask="url(#mask5_306_25)">
<path d="M1020 241.103H1236.11L1236.96 230.773H1020.85L1020 241.103Z" fill="#646262"/>
</g>
<mask id="mask6_306_25" style="mask-type:luminance" maskUnits="userSpaceOnUse" x="1020" y="247" width="217" height="12">
<path d="M1236.96 247.717H1020V258.047H1236.96V247.717Z" fill="white"/>
</mask>
<g mask="url(#mask6_306_25)">
<path d="M1020 258.047H1236.11L1236.96 247.717H1020.85L1020 258.047Z" fill="#646262"/>
</g>
<path d="M1208.46 518.682H1163.15V527.616H1208.46V518.682Z" fill="#E6E6E6"/>
<path d="M1086.05 416.025H1077.68V621.602H1086.05V416.025Z" fill="#E6E6E6"/>
<path d="M1163.15 518.682H1048.71V527.616H1163.15V518.682Z" fill="#F5F5F5"/>
<path d="M1208.46 567.566H1163.15V576.5H1208.46V567.566Z" fill="#E6E6E6"/>
<path d="M1163.15 567.566H1048.71V576.5H1163.15V567.566Z" fill="#F5F5F5"/>
<path d="M1208.46 420.91H1163.15V429.844H1208.46V420.91Z" fill="#E6E6E6"/>
<path d="M1163.15 420.91H1048.71V429.844H1163.15V420.91Z" fill="#F5F5F5"/>
<path d="M1208.46 469.797H1163.15V478.731H1208.46V469.797Z" fill="#E6E6E6"/>
<path d="M1163.15 469.797H1048.71V478.731H1163.15V469.797Z" fill="#F5F5F5"/>
<path d="M1200.49 416.025H1192.12V621.602H1200.49V416.025Z" fill="#E6E6E6"/>
<path d="M1163.15 416.025H1154.79V621.602H1163.15V416.025Z" fill="#F5F5F5"/>
<path d="M1057.07 416.025H1048.71V621.602H1057.07V416.025Z" fill="#F5F5F5"/>
<path d="M757.146 455.512H671.54V621.605H757.146V455.512Z" fill="#E6E6E6"/>
<path d="M694.399 621.606H671.54V598.678H718.366L694.399 621.606Z" fill="#FAFAFA"/>
<path d="M990.556 455.512H904.95V621.605H990.556V455.512Z" fill="#E6E6E6"/>
<path d="M924.9 455.51H671.54V613.712H924.9V455.51Z" fill="#FAFAFA"/>
<path d="M902.04 621.606H924.9V598.678H878.072L902.04 621.606Z" fill="#FAFAFA"/>
<path d="M907.166 514.461H689.273V554.052H907.166V514.461Z" fill="#646262"/>
<path d="M907.166 562.514H689.273V602.105H907.166V562.514Z" fill="#646262"/>
<path d="M730.689 518.694H865.75C866.693 518.694 867.626 518.509 868.497 518.148C869.368 517.787 870.16 517.259 870.826 516.592C871.493 515.926 872.022 515.134 872.383 514.263C872.743 513.392 872.929 512.459 872.929 511.516V511.031H723.511V511.516C723.511 513.42 724.267 515.246 725.613 516.592C726.96 517.938 728.785 518.694 730.689 518.694Z" fill="#FAFAFA"/>
<path d="M907.166 466.41H689.273V506.001H907.166V466.41Z" fill="#646262"/>
<path d="M730.689 470.642H865.75C866.693 470.643 867.626 470.457 868.497 470.096C869.368 469.736 870.159 469.207 870.826 468.541C871.493 467.874 872.021 467.083 872.382 466.212C872.743 465.341 872.929 464.408 872.929 463.465V462.98H723.511V463.465C723.511 465.369 724.268 467.195 725.614 468.54C726.96 469.886 728.785 470.642 730.689 470.642Z" fill="#FAFAFA"/>
<path d="M730.689 566.749H865.75C866.693 566.749 867.626 566.563 868.497 566.203C869.368 565.842 870.16 565.313 870.826 564.647C871.493 563.98 872.022 563.189 872.383 562.318C872.743 561.447 872.929 560.514 872.929 559.571V559.086H723.511V559.571C723.511 561.475 724.267 563.3 725.613 564.647C726.96 565.993 728.785 566.749 730.689 566.749Z" fill="#FAFAFA"/>
<path d="M901.288 153.297H685.177V294.819H901.288V153.297Z" fill="#E6E6E6"/>
<path d="M898.208 153.297H678.583V294.819H898.208V153.297Z" fill="#F0F0F0"/>
<path d="M901.288 294.818H685.177V322.593H901.288V294.818Z" fill="#E6E6E6"/>
<path d="M887.221 294.818H667.598V322.593H887.221V294.818Z" fill="#F0F0F0"/>
<path d="M888.975 162.529H687.813V285.588H888.975V162.529Z" fill="#646262"/>
<path d="M884.701 276.404C884.876 276.404 885.043 276.334 885.167 276.211C885.291 276.087 885.36 275.919 885.36 275.745V168.537C885.353 168.366 885.281 168.205 885.158 168.087C885.035 167.968 884.871 167.902 884.701 167.902C884.53 167.902 884.366 167.968 884.243 168.087C884.12 168.205 884.048 168.366 884.041 168.537V275.743C884.041 275.918 884.111 276.085 884.235 276.209C884.358 276.332 884.526 276.402 884.701 276.402" fill="#F0F0F0"/>
<path d="M688.987 162.529H687.815V285.588H688.987V162.529Z" fill="#E6E6E6"/>
<mask id="mask7_306_25" style="mask-type:luminance" maskUnits="userSpaceOnUse" x="680" y="166" width="214" height="11">
<path d="M893.361 166.117H680V176.447H893.361V166.117Z" fill="white"/>
</mask>
<g mask="url(#mask7_306_25)">
<path d="M680 176.447H892.526L893.361 166.117H680.836L680 176.447Z" fill="#EBEBEB"/>
</g>
<mask id="mask8_306_25" style="mask-type:luminance" maskUnits="userSpaceOnUse" x="680" y="171" width="214" height="12">
<path d="M893.361 171.945H680V182.275H893.361V171.945Z" fill="white"/>
</mask>
<g mask="url(#mask8_306_25)">
<path d="M680 182.277H892.526L893.361 171.947H680.836L680 182.277Z" fill="#EBEBEB"/>
</g>
<mask id="mask9_306_25" style="mask-type:luminance" maskUnits="userSpaceOnUse" x="680" y="177" width="214" height="12">
<path d="M893.361 177.773H680V188.103H893.361V177.773Z" fill="white"/>
</mask>
<g mask="url(#mask9_306_25)">
<path d="M680 188.103H892.526L893.361 177.773H680.836L680 188.103Z" fill="#EBEBEB"/>
</g>
<mask id="mask10_306_25" style="mask-type:luminance" maskUnits="userSpaceOnUse" x="680" y="183" width="214" height="11">
<path d="M893.361 183.602H680V193.932H893.361V183.602Z" fill="white"/>
</mask>
<g mask="url(#mask10_306_25)">
<path d="M680 193.932H892.526L893.361 183.602H680.836L680 193.932Z" fill="#EBEBEB"/>
</g>
<mask id="mask11_306_25" style="mask-type:luminance" maskUnits="userSpaceOnUse" x="680" y="189" width="214" height="11">
<path d="M893.361 189.428H680V199.76H893.361V189.428Z" fill="white"/>
</mask>
<g mask="url(#mask11_306_25)">
<path d="M680 199.759H892.526L893.361 189.429H680.836L680 199.759Z" fill="#EBEBEB"/>
</g>
<mask id="mask12_306_25" style="mask-type:luminance" maskUnits="userSpaceOnUse" x="680" y="195" width="214" height="11">
<path d="M893.361 195.256H680V205.586H893.361V195.256Z" fill="white"/>
</mask>
<g mask="url(#mask12_306_25)">
<path d="M680 205.586H892.526L893.361 195.256H680.836L680 205.586Z" fill="#EBEBEB"/>
</g>
<path d="M727.069 367.16H719.598V450.435H727.069V367.16Z" fill="#F5F5F5"/>
<path d="M722.672 367.102H720.561V450.377H722.672V367.102Z" fill="#FAFAFA"/>
<path d="M724.382 367.102H723.555V450.377H724.382V367.102Z" fill="#FAFAFA"/>
<path d="M695.678 455.514H750.99C750.99 453.666 750.256 451.893 748.949 450.586C747.642 449.279 745.869 448.545 744.021 448.545H702.647C701.732 448.545 700.825 448.725 699.98 449.075C699.134 449.425 698.366 449.939 697.719 450.586C697.072 451.233 696.558 452.001 696.208 452.847C695.858 453.692 695.678 454.599 695.678 455.514Z" fill="#F0F0F0"/>
<path d="M709.907 418.858C710.477 418.856 711.022 418.629 711.425 418.227C711.828 417.824 712.055 417.278 712.056 416.709V362.109C712.056 361.539 711.83 360.992 711.426 360.589C711.023 360.186 710.476 359.959 709.906 359.959C709.336 359.959 708.789 360.186 708.386 360.589C707.983 360.992 707.756 361.539 707.756 362.109V416.709C707.758 417.278 707.985 417.824 708.387 418.227C708.79 418.629 709.336 418.856 709.905 418.858" fill="#F0F0F0"/>
<path d="M689.891 386.955H756.777L749.077 340.215H697.577L689.891 386.955Z" fill="#E0E0E0"/>
<path d="M1265.25 674.682C1265.25 684.492 1129.09 692.442 961.129 692.442C793.17 692.442 657.012 684.491 657.012 674.682C657.012 664.873 793.17 656.922 961.129 656.922C1129.09 656.922 1265.25 664.874 1265.25 674.682Z" fill="#F4F4F4"/>
<path d="M732.309 339.212L730.745 339.324L732.828 368.25L734.392 368.138L732.309 339.212Z" fill="#407BFF"/>
<path d="M735.468 383.073L733.903 383.186L734.687 394.066L736.252 393.954L735.468 383.073Z" fill="#407BFF"/>
<path d="M1098.7 516.142H762.794C759.055 516.076 755.473 514.628 752.739 512.077C750.004 509.526 748.311 506.053 747.986 502.328L731.479 273.12C731.326 271.351 731.545 269.57 732.121 267.892C732.698 266.213 733.62 264.674 734.827 263.373C736.034 262.072 737.501 261.038 739.132 260.338C740.763 259.638 742.522 259.287 744.297 259.308H1080.21C1083.95 259.373 1087.53 260.821 1090.26 263.372C1093 265.922 1094.69 269.395 1095.02 273.12L1111.52 502.327C1111.67 504.095 1111.45 505.876 1110.88 507.554C1110.3 509.233 1109.38 510.773 1108.17 512.074C1106.97 513.375 1105.5 514.409 1103.87 515.11C1102.24 515.81 1100.48 516.162 1098.7 516.142Z" fill="#407BFF"/>
<path d="M1099.99 516.142H764.082C760.343 516.077 756.761 514.629 754.027 512.078C751.292 509.527 749.599 506.054 749.274 502.328L732.774 273.121C732.621 271.353 732.84 269.572 733.416 267.894C733.993 266.215 734.914 264.676 736.122 263.375C737.329 262.074 738.796 261.04 740.427 260.34C742.058 259.64 743.817 259.289 745.592 259.309H1081.5C1085.24 259.375 1088.82 260.823 1091.56 263.374C1094.29 265.924 1095.98 269.396 1096.31 273.121L1112.81 502.328C1112.97 504.097 1112.75 505.879 1112.17 507.558C1111.6 509.237 1110.67 510.777 1109.47 512.078C1108.26 513.379 1106.79 514.413 1105.16 515.113C1103.53 515.813 1101.77 516.164 1099.99 516.142Z" fill="#407BFF"/>
<mask id="mask13_306_25" style="mask-type:luminance" maskUnits="userSpaceOnUse" x="732" y="259" width="381" height="258">
<path d="M1112.85 259.307H732.734V516.142H1112.85V259.307Z" fill="white"/>
</mask>
<g mask="url(#mask13_306_25)">
<path d="M1099.99 516.143H764.082C760.343 516.077 756.761 514.629 754.026 512.078C751.292 509.527 749.599 506.054 749.274 502.329L732.774 273.122C732.621 271.353 732.84 269.572 733.416 267.894C733.993 266.215 734.914 264.676 736.122 263.375C737.329 262.074 738.795 261.04 740.427 260.34C742.058 259.64 743.817 259.289 745.592 259.31H1081.5C1085.24 259.375 1088.82 260.823 1091.56 263.374C1094.29 265.924 1095.98 269.397 1096.31 273.122L1112.81 502.329C1112.97 504.097 1112.75 505.879 1112.17 507.558C1111.6 509.237 1110.67 510.777 1109.47 512.078C1108.26 513.379 1106.79 514.413 1105.16 515.113C1103.53 515.813 1101.77 516.164 1099.99 516.143Z" fill="#D2DCEB"/>
</g>
<path d="M1081.99 266.215H746.086C745.707 266.215 745.332 266.23 744.961 266.26C736.373 266.967 738.129 280.028 746.795 280.028H1083.28C1091.94 280.028 1091.82 266.967 1083.13 266.26C1082.75 266.23 1082.38 266.215 1082 266.215" fill="#A6AEBA"/>
<path d="M754.835 273.12C754.872 273.526 754.822 273.935 754.691 274.321C754.559 274.706 754.348 275.06 754.071 275.358C753.793 275.657 753.457 275.894 753.082 276.054C752.707 276.214 752.303 276.294 751.896 276.287C751.038 276.275 750.216 275.943 749.589 275.358C748.961 274.773 748.574 273.975 748.502 273.12C748.466 272.715 748.515 272.306 748.647 271.92C748.779 271.535 748.99 271.182 749.267 270.883C749.544 270.584 749.881 270.347 750.255 270.187C750.63 270.027 751.034 269.947 751.441 269.953C752.299 269.966 753.121 270.298 753.748 270.883C754.376 271.468 754.763 272.266 754.835 273.12Z" fill="#FAFAFA"/>
<path d="M765.607 273.12C765.643 273.526 765.594 273.935 765.462 274.321C765.331 274.706 765.12 275.06 764.842 275.358C764.565 275.657 764.229 275.894 763.854 276.054C763.479 276.214 763.075 276.294 762.668 276.287C761.81 276.275 760.988 275.943 760.36 275.358C759.733 274.773 759.346 273.975 759.274 273.12C759.237 272.715 759.287 272.306 759.418 271.92C759.55 271.535 759.761 271.181 760.038 270.883C760.315 270.584 760.652 270.347 761.027 270.187C761.401 270.027 761.806 269.947 762.213 269.953C763.071 269.966 763.893 270.298 764.52 270.883C765.148 271.468 765.535 272.266 765.607 273.12Z" fill="#FAFAFA"/>
<path d="M776.38 273.12C776.416 273.526 776.367 273.935 776.235 274.32C776.103 274.706 775.892 275.059 775.615 275.358C775.338 275.656 775.001 275.893 774.627 276.054C774.252 276.214 773.848 276.293 773.441 276.287C772.583 276.275 771.761 275.943 771.134 275.358C770.506 274.773 770.119 273.975 770.047 273.12C770.011 272.715 770.06 272.306 770.192 271.92C770.324 271.535 770.535 271.182 770.812 270.883C771.089 270.584 771.426 270.347 771.8 270.187C772.175 270.027 772.579 269.947 772.986 269.953C773.844 269.966 774.666 270.298 775.293 270.883C775.921 271.468 776.308 272.266 776.38 273.12Z" fill="#FAFAFA"/>
<path d="M1091.09 493.264H769.693C768.337 493.244 767.036 492.72 766.044 491.795C765.052 490.869 764.44 489.608 764.326 488.256L750.752 299.764C750.695 299.123 750.773 298.477 750.981 297.867C751.19 297.258 751.524 296.699 751.962 296.227C752.4 295.755 752.932 295.38 753.524 295.127C754.116 294.873 754.755 294.747 755.399 294.756H1076.79C1078.15 294.777 1079.45 295.3 1080.44 296.226C1081.43 297.151 1082.05 298.413 1082.16 299.764L1095.73 488.255C1095.79 488.897 1095.71 489.543 1095.5 490.152C1095.3 490.762 1094.96 491.321 1094.52 491.793C1094.09 492.265 1093.55 492.64 1092.96 492.893C1092.37 493.146 1091.73 493.272 1091.09 493.263" fill="#646262"/>
<path d="M955.685 421.46L950.454 348.808L934.606 339.265H890.989L896.909 421.46H955.685Z" fill="white"/>
<path d="M955.686 422.218H896.909C896.718 422.219 896.533 422.147 896.393 422.017C896.252 421.887 896.166 421.709 896.151 421.518L890.231 339.323C890.224 339.219 890.238 339.115 890.272 339.016C890.307 338.917 890.362 338.827 890.433 338.75C890.504 338.674 890.59 338.613 890.686 338.571C890.782 338.529 890.885 338.508 890.99 338.507H934.601C934.739 338.508 934.874 338.546 934.993 338.617L950.846 348.158C950.951 348.222 951.038 348.309 951.102 348.414C951.165 348.518 951.203 348.636 951.211 348.758L956.444 421.41C956.451 421.515 956.437 421.619 956.402 421.718C956.368 421.816 956.313 421.906 956.242 421.983C956.17 422.059 956.084 422.12 955.988 422.162C955.893 422.203 955.789 422.225 955.685 422.224M897.615 420.704H954.867L949.722 349.26L934.388 340.031H891.806L897.615 420.704Z" fill="#444444"/>
<path d="M950.453 348.807L934.6 339.266L940.421 351.907L950.453 348.807Z" fill="#EBEBEB"/>
<path d="M940.421 352.666C940.275 352.667 940.133 352.625 940.01 352.547C939.888 352.468 939.79 352.357 939.729 352.224L933.91 339.583C933.842 339.436 933.823 339.27 933.856 339.111C933.889 338.952 933.972 338.808 934.093 338.7C934.214 338.591 934.367 338.525 934.529 338.509C934.69 338.494 934.853 338.531 934.992 338.614L950.845 348.157C950.97 348.233 951.071 348.344 951.136 348.475C951.2 348.607 951.225 348.755 951.207 348.9C951.189 349.046 951.13 349.183 951.036 349.296C950.942 349.408 950.817 349.491 950.677 349.534L940.645 352.634C940.572 352.656 940.497 352.666 940.421 352.666ZM936.321 341.19L940.83 350.984L948.602 348.584L936.321 341.19Z" fill="#444444"/>
<path d="M915.593 376.298C915.631 376.723 915.579 377.152 915.441 377.556C915.303 377.96 915.082 378.331 914.791 378.644C914.5 378.957 914.147 379.206 913.754 379.373C913.362 379.541 912.938 379.625 912.511 379.619C911.611 379.605 910.749 379.258 910.091 378.644C909.434 378.03 909.027 377.194 908.952 376.298C908.914 375.872 908.965 375.443 909.103 375.039C909.241 374.635 909.463 374.264 909.753 373.951C910.044 373.638 910.397 373.389 910.789 373.222C911.182 373.054 911.606 372.97 912.033 372.977C912.933 372.989 913.796 373.337 914.454 373.95C915.112 374.564 915.518 375.401 915.594 376.298" fill="#444444"/>
<path d="M937.138 376.298C937.176 376.723 937.124 377.152 936.986 377.556C936.848 377.96 936.627 378.331 936.336 378.644C936.045 378.957 935.692 379.206 935.3 379.373C934.907 379.541 934.483 379.625 934.056 379.619C933.156 379.605 932.294 379.258 931.636 378.644C930.979 378.03 930.572 377.194 930.497 376.298C930.459 375.872 930.51 375.443 930.649 375.039C930.787 374.635 931.008 374.264 931.299 373.951C931.589 373.638 931.943 373.389 932.335 373.222C932.728 373.054 933.152 372.97 933.579 372.977C934.478 372.99 935.341 373.337 935.999 373.951C936.656 374.565 937.062 375.401 937.138 376.298Z" fill="#444444"/>
<path d="M943.217 397.835C943.025 397.834 942.84 397.761 942.699 397.63C942.559 397.499 942.473 397.32 942.459 397.128C942.075 391.789 933.702 387.447 923.794 387.447C917.23 387.447 911.337 389.4 908.413 392.542C907.814 393.119 907.346 393.816 907.037 394.588C906.729 395.36 906.588 396.189 906.625 397.02C906.632 397.119 906.62 397.219 906.588 397.314C906.557 397.409 906.507 397.496 906.442 397.572C906.376 397.647 906.297 397.709 906.207 397.754C906.118 397.799 906.021 397.826 905.921 397.833C905.822 397.84 905.722 397.828 905.627 397.796C905.532 397.765 905.444 397.715 905.369 397.65C905.293 397.584 905.231 397.505 905.187 397.416C905.142 397.326 905.115 397.229 905.108 397.13C905.059 396.091 905.229 395.054 905.606 394.085C905.984 393.116 906.562 392.238 907.301 391.507C910.501 388.066 916.822 385.927 923.794 385.927C934.662 385.927 943.527 390.8 943.976 397.02C943.99 397.221 943.925 397.419 943.794 397.572C943.662 397.724 943.476 397.819 943.276 397.835H943.221" fill="#444444"/>
<path d="M903.355 369.571C903.207 369.571 903.062 369.528 902.938 369.447C902.814 369.366 902.716 369.251 902.657 369.115C902.598 368.979 902.58 368.829 902.605 368.683C902.63 368.537 902.697 368.402 902.798 368.294L906.128 364.705C906.265 364.557 906.455 364.469 906.657 364.462C906.858 364.454 907.055 364.527 907.202 364.664C907.35 364.801 907.438 364.991 907.445 365.193C907.453 365.394 907.38 365.591 907.243 365.739L903.913 369.328C903.842 369.404 903.756 369.466 903.66 369.508C903.564 369.549 903.46 369.571 903.355 369.571Z" fill="#444444"/>
<path d="M941.654 369.57C941.462 369.571 941.277 369.5 941.135 369.37L937.287 365.78C937.14 365.643 937.053 365.452 937.046 365.251C937.039 365.049 937.113 364.853 937.25 364.706C937.388 364.559 937.579 364.472 937.78 364.465C937.982 364.458 938.178 364.532 938.325 364.669L942.173 368.258C942.284 368.363 942.361 368.498 942.395 368.647C942.428 368.795 942.416 368.951 942.36 369.093C942.304 369.234 942.207 369.356 942.081 369.442C941.955 369.528 941.806 369.574 941.654 369.574" fill="#444444"/>
<path d="M886.243 438H889.786L894.901 444.8L894.412 438H897.991L898.876 450.286H895.297L890.21 443.54L890.696 450.286H887.126L886.243 438Z" fill="#FEFEFE"/>
<path d="M900.481 443.852C900.319 443.023 900.355 442.168 900.586 441.356C900.817 440.544 901.236 439.798 901.81 439.178C902.383 438.559 903.094 438.083 903.886 437.79C904.678 437.497 905.527 437.395 906.366 437.492C908.134 437.394 909.871 437.984 911.213 439.139C912.452 440.358 913.166 442.013 913.203 443.752C913.34 444.95 913.179 446.163 912.732 447.284C912.33 448.187 911.65 448.938 910.792 449.43C909.76 449.978 908.6 450.243 907.432 450.197C906.235 450.233 905.044 450.007 903.944 449.535C902.977 449.068 902.16 448.341 901.585 447.435C900.914 446.354 900.535 445.118 900.485 443.848M904.285 443.865C904.277 444.829 904.587 445.768 905.168 446.538C905.413 446.805 905.714 447.016 906.049 447.157C906.384 447.297 906.745 447.364 907.108 447.352C907.456 447.375 907.804 447.315 908.124 447.176C908.444 447.036 908.725 446.822 908.945 446.552C909.422 445.68 909.587 444.671 909.411 443.694C909.414 442.773 909.102 441.878 908.528 441.159C908.277 440.894 907.973 440.686 907.636 440.549C907.299 440.411 906.936 440.346 906.572 440.359C906.231 440.342 905.891 440.406 905.581 440.548C905.27 440.689 904.998 440.902 904.787 441.171C904.304 441.979 904.127 442.933 904.287 443.861" fill="#FEFEFE"/>
<path d="M920.585 437.699H926.225C927.155 437.666 928.082 437.82 928.951 438.152C929.64 438.44 930.254 438.885 930.742 439.452C931.237 440.029 931.615 440.698 931.856 441.42C932.115 442.19 932.275 442.99 932.33 443.801C932.449 444.824 932.371 445.86 932.101 446.855C931.878 447.54 931.496 448.163 930.987 448.674C930.535 449.136 929.97 449.473 929.348 449.65C928.62 449.861 927.868 449.974 927.11 449.986H921.47L920.585 437.699ZM924.585 440.482L925.068 447.195H925.998C926.569 447.235 927.141 447.144 927.672 446.93C928.019 446.724 928.277 446.395 928.394 446.009C928.573 445.312 928.618 444.588 928.526 443.876C928.549 442.918 928.258 441.979 927.696 441.203C927.404 440.941 927.061 440.741 926.689 440.617C926.317 440.493 925.924 440.446 925.533 440.481L924.585 440.482Z" fill="#FEFEFE"/>
<path d="M941.44 447.956H937.13L936.677 449.984H932.801L936.534 437.698H940.675L946.175 449.984H942.201L941.44 447.956ZM940.461 445.298L938.786 440.881L937.761 445.298H940.461Z" fill="#FEFEFE"/>
<path d="M944.453 437.7H955.993L956.211 440.734H952.34L953.007 449.987H949.207L948.542 440.734H944.669L944.453 437.7Z" fill="#FEFEFE"/>
<path d="M964.842 447.956H960.532L960.079 449.984H956.203L959.932 437.698H964.073L969.573 449.984H965.598L964.842 447.956ZM963.863 445.299L962.189 440.882L961.162 445.298L963.863 445.299Z" fill="#FEFEFE"/>
<path d="M1123.76 293.287C1125.16 292.587 1126.84 291.676 1128.38 290.828C1129.96 289.964 1131.52 289.062 1133.06 288.128C1136.14 286.236 1139.23 284.367 1142.17 282.29C1148.06 278.261 1153.58 273.719 1158.66 268.718C1159.32 268.118 1159.87 267.454 1160.48 266.818L1161.37 265.857L1161.82 265.379L1162.05 265.137C1162.11 265.074 1162.09 265.088 1162.06 265.124L1162.01 265.201C1161.79 265.618 1161.98 265.493 1162.06 265.088C1162.19 264.526 1162.27 263.953 1162.28 263.377C1162.26 260.042 1161.87 256.72 1161.14 253.467C1159.74 246.431 1157.63 239.197 1155.54 232.107L1161.64 229.434C1165.48 236.237 1168.69 243.376 1171.23 250.763C1172.65 254.758 1173.56 258.918 1173.93 263.143C1174.02 264.457 1173.98 265.777 1173.8 267.082C1173.57 268.924 1172.91 270.687 1171.88 272.231L1171.62 272.593L1171.42 272.856L1171.18 273.151L1170.7 273.738L1169.73 274.914C1169.07 275.687 1168.45 276.506 1167.76 277.231C1162.39 283.163 1156.41 288.501 1149.91 293.155C1146.71 295.491 1143.45 297.708 1140.05 299.727C1138.36 300.749 1136.65 301.735 1134.91 302.684C1133.15 303.664 1131.48 304.516 1129.47 305.454L1123.76 293.287Z" fill="#FFB573"/>
<path d="M1109.82 662.04C1110.99 662.011 1112.15 661.853 1113.28 661.569C1113.34 661.555 1113.4 661.524 1113.44 661.48C1113.48 661.436 1113.51 661.381 1113.52 661.321C1113.53 661.261 1113.52 661.199 1113.5 661.143C1113.48 661.087 1113.44 661.04 1113.38 661.007C1112.93 660.707 1108.94 658.135 1107.42 658.827C1107.24 658.904 1107.1 659.026 1106.99 659.18C1106.88 659.334 1106.81 659.514 1106.8 659.702C1106.73 659.998 1106.75 660.306 1106.84 660.596C1106.93 660.885 1107.09 661.146 1107.31 661.355C1108.04 661.872 1108.92 662.114 1109.81 662.039M1112.4 661.125C1110.11 661.581 1108.39 661.503 1107.73 660.896C1107.58 660.754 1107.48 660.578 1107.42 660.384C1107.37 660.19 1107.36 659.985 1107.41 659.789C1107.41 659.705 1107.44 659.624 1107.48 659.554C1107.53 659.484 1107.59 659.429 1107.67 659.395C1108.47 659.031 1110.77 660.142 1112.4 661.125Z" fill="#A6AEBA"/>
<path d="M1113.21 661.577C1113.27 661.578 1113.32 661.563 1113.37 661.535C1113.42 661.508 1113.45 661.469 1113.48 661.422C1113.51 661.375 1113.52 661.321 1113.52 661.267C1113.52 661.107 1113.5 657.324 1112.08 656.06C1111.9 655.897 1111.69 655.776 1111.46 655.704C1111.24 655.632 1111 655.611 1110.76 655.644C1110.51 655.647 1110.27 655.735 1110.08 655.892C1109.89 656.05 1109.76 656.268 1109.71 656.511C1109.41 657.992 1111.8 660.826 1113.06 661.538C1113.1 661.564 1113.16 661.577 1113.21 661.577ZM1110.97 656.252C1111.23 656.251 1111.48 656.349 1111.66 656.525C1112.51 657.28 1112.81 659.403 1112.88 660.663C1111.63 659.663 1110.14 657.535 1110.32 656.633C1110.35 656.486 1110.43 656.308 1110.83 656.261C1110.88 656.255 1110.93 656.252 1110.97 656.252Z" fill="#A6AEBA"/>
<path d="M1112.05 254.051C1110.53 261.851 1107.31 277.637 1112.76 282.84C1112.76 282.84 1110.63 290.748 1096.14 290.748C1080.21 290.748 1088.53 282.84 1088.53 282.84C1097.22 280.765 1097 274.315 1095.49 268.258L1112.05 254.051Z" fill="#FFB573"/>
<path d="M1085.49 285.981C1082.99 286.32 1085.11 279.842 1086.13 279.172C1088.48 277.621 1118.83 275.423 1118.64 279.108C1118.51 280.694 1117.77 283.788 1116.44 284.839C1115.11 285.89 1107.31 282.714 1085.48 285.981" fill="#646262"/>
<path d="M1090.43 283.802C1088.45 284.473 1088.63 277.947 1089.31 277.161C1090.88 275.345 1115.45 269.031 1116.18 272.604C1116.46 274.146 1116.6 277.226 1115.75 278.422C1114.91 279.618 1107.69 277.639 1090.43 283.802Z" fill="#444444"/>
<path d="M1081.29 239.997C1081.19 240.003 1081.1 239.986 1081.01 239.946C1080.91 239.907 1080.84 239.847 1080.77 239.77C1080.3 239.152 1079.68 238.655 1078.97 238.32C1078.27 237.985 1077.49 237.822 1076.71 237.844C1076.55 237.86 1076.39 237.81 1076.26 237.708C1076.13 237.605 1076.05 237.456 1076.03 237.295C1076.02 237.133 1076.06 236.97 1076.16 236.842C1076.26 236.713 1076.41 236.629 1076.57 236.608C1077.56 236.562 1078.54 236.754 1079.44 237.167C1080.34 237.581 1081.12 238.204 1081.73 238.984C1081.8 239.073 1081.85 239.18 1081.87 239.293C1081.88 239.407 1081.87 239.523 1081.82 239.628C1081.77 239.733 1081.7 239.823 1081.61 239.889C1081.51 239.954 1081.4 239.992 1081.29 239.999" fill="#263238"/>
<path d="M1078.25 247.674C1078.25 247.674 1076.91 252.391 1075.15 254.774C1076.67 255.936 1078.98 255.11 1078.98 255.11L1078.25 247.674Z" fill="#FF5652"/>
<path d="M1079.02 245.77C1079.12 246.824 1078.65 247.734 1077.96 247.803C1077.27 247.872 1076.62 247.071 1076.52 246.015C1076.42 244.959 1076.89 244.051 1077.58 243.984C1078.27 243.917 1078.91 244.715 1079.02 245.77Z" fill="#263238"/>
<path d="M1077.89 244.011L1075.29 243.529C1075.29 243.529 1076.78 245.38 1077.89 244.011Z" fill="#263238"/>
<path d="M1128.49 661.268H1115.35L1116.38 630.842H1129.52L1128.49 661.268Z" fill="#FFB573"/>
<path d="M1114.31 659.745H1129.07C1129.32 659.741 1129.57 659.83 1129.77 659.996C1129.96 660.162 1130.08 660.393 1130.12 660.645L1131.8 672.321C1131.83 672.616 1131.8 672.915 1131.71 673.197C1131.61 673.479 1131.46 673.739 1131.26 673.96C1131.07 674.18 1130.82 674.356 1130.55 674.476C1130.28 674.596 1129.99 674.657 1129.69 674.656C1124.54 674.568 1122.06 674.265 1115.57 674.265C1111.58 674.265 1105.74 674.681 1100.23 674.681C1094.84 674.681 1094.42 669.227 1096.72 668.733C1107.02 666.518 1108.64 663.464 1112.11 660.552C1112.72 660.033 1113.5 659.747 1114.31 659.744" fill="#263238"/>
<mask id="mask14_306_25" style="mask-type:luminance" maskUnits="userSpaceOnUse" x="1115" y="630" width="15" height="17">
<path d="M1129.52 630.85H1115.85V646.533H1129.52V630.85Z" fill="white"/>
</mask>
<g mask="url(#mask14_306_25)">
<path d="M1129.52 630.85H1116.38L1115.85 646.534H1129L1129.52 630.85Z" fill="black"/>
</g>
<path d="M1076.22 301.071C1068.17 297.937 1060.29 294.402 1052.61 290.477C1044.67 286.601 1037.1 281.994 1030.01 276.715C1028.12 275.237 1026.32 273.628 1024.65 271.9C1024.21 271.429 1023.77 270.993 1023.35 270.454C1022.86 269.888 1022.4 269.296 1021.97 268.68C1020.82 266.992 1020.1 265.049 1019.87 263.019C1019.7 261.092 1019.96 259.151 1020.64 257.341C1021.19 255.884 1021.93 254.508 1022.85 253.25C1024.37 251.184 1026.16 249.328 1028.17 247.729C1031.72 244.899 1035.56 242.447 1039.62 240.41C1041.57 239.376 1043.55 238.446 1045.56 237.59C1047.56 236.734 1049.54 235.912 1051.68 235.174L1054.47 241.217C1047.62 245.529 1040.54 250.267 1035.33 255.583C1034.16 256.762 1033.13 258.073 1032.26 259.489C1031.51 260.723 1031.52 261.649 1031.65 261.577C1031.71 261.577 1031.69 261.549 1031.87 261.731L1032.49 262.401C1032.73 262.68 1033.06 262.969 1033.36 263.256C1034.69 264.484 1036.1 265.62 1037.59 266.656C1040.83 268.928 1044.2 271.007 1047.68 272.883C1051.22 274.847 1054.85 276.726 1058.56 278.508C1065.95 282.048 1073.61 285.455 1081.13 288.567L1076.22 301.071Z" fill="#FFB573"/>
<path d="M1058.33 236.936L1060.5 232.224L1050.63 228.795C1050.63 228.795 1047.55 238.052 1051.22 242.325C1052.76 242.08 1054.21 241.46 1055.45 240.52C1056.69 239.58 1057.68 238.349 1058.33 236.936" fill="#FFB573"/>
<path d="M1060.5 222.036L1052.61 219.76L1050.63 228.793L1060.5 232.222V222.036Z" fill="#FFB573"/>
<path d="M1162.45 232.679L1163.6 221.668L1153.43 224.06C1153.43 224.06 1153.27 234.381 1158.66 236.026L1162.45 232.679Z" fill="#FFB573"/>
<path d="M1158.69 213.959L1152.06 217.059L1153.42 224.059L1163.6 221.667L1158.69 213.959Z" fill="#FFB573"/>
<path d="M1114.12 238.658C1114.6 251.688 1115.08 257.193 1109.19 264.485C1100.34 275.452 1084.23 273.19 1079.86 260.565C1075.94 249.203 1075.81 229.802 1087.99 223.401C1090.66 221.977 1093.66 221.26 1096.69 221.32C1099.72 221.379 1102.69 222.213 1105.31 223.742C1107.93 225.271 1110.11 227.444 1111.65 230.055C1113.2 232.665 1114.05 235.627 1114.12 238.658Z" fill="#FFB573"/>
<path d="M1108.44 264.464C1121.24 258.937 1129.64 247.281 1126.1 229.056C1122.7 211.62 1110.93 209.897 1106.07 213.515C1101.21 217.133 1089.09 211.741 1081.81 217.861C1069.21 228.461 1081.12 239.899 1087.33 246.673C1091.04 254.293 1095.89 269.888 1108.44 264.464Z" fill="#263238"/>
<path d="M1103.13 225.927C1107.45 232.178 1115.73 233.942 1121.63 229.869C1127.52 225.796 1128.81 217.429 1124.49 211.179C1120.17 204.929 1111.89 203.164 1106 207.237C1100.1 211.31 1098.82 219.677 1103.13 225.927Z" fill="#263238"/>
<path d="M1106.45 214.735C1104.61 204.235 1114.55 196.129 1127.84 200.044C1141.13 203.959 1134.1 215.744 1131.38 225.154C1128.65 234.564 1135.81 243.528 1138.8 236.361C1141.79 229.194 1136.76 226.981 1136.76 226.981C1136.76 226.981 1150.87 230.64 1137.76 246.553C1124.64 262.466 1112.78 244.895 1115.99 234.526C1118.58 226.145 1108.2 224.668 1106.45 214.735" fill="#263238"/>
<path d="M1093.17 218.708C1087.1 215.543 1076.82 212.983 1070.97 222.822C1068.21 227.476 1069.28 233.784 1069.28 233.784L1087.14 234.973L1093.17 218.708Z" fill="#263238"/>
<path d="M1067.18 230.698H1067.15C1067.05 230.691 1066.95 230.643 1066.88 230.565C1066.82 230.488 1066.78 230.386 1066.79 230.282C1066.8 230.014 1067.23 223.704 1071.04 219.746C1080.25 210.181 1091.04 218.115 1094.13 220.775C1094.2 220.844 1094.25 220.939 1094.26 221.041C1094.26 221.142 1094.23 221.242 1094.16 221.319C1094.1 221.396 1094 221.444 1093.9 221.454C1093.8 221.463 1093.7 221.433 1093.62 221.369C1090.66 218.823 1080.34 211.221 1071.61 220.29C1068 224.037 1067.57 230.267 1067.57 230.33C1067.56 230.429 1067.52 230.523 1067.45 230.591C1067.37 230.659 1067.28 230.698 1067.18 230.698Z" fill="#263238"/>
<path d="M1089.52 246.157C1089.44 248.624 1088.52 250.99 1086.92 252.866C1084.75 255.401 1082.26 254.152 1081.69 251.341C1081.18 248.811 1081.69 244.441 1084.43 242.913C1087.13 241.404 1089.53 243.255 1089.51 246.157" fill="#FFB573"/>
<path d="M1086.69 365.502C1086.69 365.502 1087.53 456.702 1095.44 507.523C1101.83 548.571 1113.66 643.496 1113.66 643.496H1131.57C1131.57 643.496 1133.32 551.856 1130.08 511.258C1121.87 408.524 1143.05 389.317 1125.96 365.502H1086.69Z" fill="#263238"/>
<mask id="mask15_306_25" style="mask-type:luminance" maskUnits="userSpaceOnUse" x="1086" y="365" width="47" height="279">
<path d="M1132.84 365.502H1086.69V643.496H1132.84V365.502Z" fill="white"/>
</mask>
<g mask="url(#mask15_306_25)">
<path d="M1086.69 365.502C1086.69 365.502 1087.53 456.702 1095.44 507.523C1101.83 548.571 1113.66 643.496 1113.66 643.496H1131.57C1131.57 643.496 1133.32 551.856 1130.08 511.258C1121.87 408.524 1143.05 389.317 1125.96 365.502H1086.69Z" fill="#D2DCEB"/>
</g>
<mask id="mask16_306_25" style="mask-type:luminance" maskUnits="userSpaceOnUse" x="1087" y="399" width="13" height="98">
<path d="M1099.11 399.107H1087.56V496.844H1099.11V399.107Z" fill="white"/>
</mask>
<g mask="url(#mask16_306_25)">
<path d="M1096.11 406.875C1102.4 434.402 1097.38 477.756 1093.94 496.845C1090.31 467.859 1088.47 430.293 1087.56 402.766C1090.81 397.496 1093.88 397.151 1096.11 406.876" fill="black"/>
</g>
<path d="M1111.21 643.85H1134.03L1135.23 635.844L1111.08 635.023L1111.21 643.85Z" fill="#A6AEBA"/>
<path d="M1117.72 288.518C1119.86 284.25 1131.4 281.565 1137.71 281.574L1142.43 302.537C1142.43 302.537 1129.86 321.187 1124.64 319.209C1118.47 316.877 1113.12 297.662 1117.72 288.518Z" fill="#407BFF"/>
<mask id="mask17_306_25" style="mask-type:luminance" maskUnits="userSpaceOnUse" x="1115" y="281" width="28" height="39">
<path d="M1142.43 281.576H1115.99V319.357H1142.43V281.576Z" fill="white"/>
</mask>
<g mask="url(#mask17_306_25)">
<path d="M1117.72 288.518C1119.86 284.25 1131.4 281.565 1137.71 281.574L1142.43 302.537C1142.43 302.537 1129.86 321.187 1124.64 319.209C1118.47 316.877 1113.12 297.662 1117.72 288.518Z" fill="#444444"/>
</g>
<path d="M1104.42 638.724C1104.44 638.678 1104.46 638.625 1104.46 638.571C1104.46 638.517 1104.45 638.463 1104.43 638.415C1104.4 638.358 1104.35 638.312 1104.29 638.283C1104.23 638.255 1104.17 638.244 1104.1 638.253C1103.44 638.353 1097.64 639.274 1096.85 640.932C1096.78 641.087 1096.74 641.259 1096.75 641.43C1096.77 641.602 1096.82 641.768 1096.91 641.912C1097.05 642.16 1097.24 642.371 1097.48 642.527C1097.71 642.682 1097.98 642.778 1098.26 642.806C1100.16 643.006 1102.91 640.362 1104.38 638.772C1104.39 638.757 1104.41 638.742 1104.42 638.724ZM1097.45 641.134C1097.99 640.254 1100.99 639.443 1103.28 639.021C1101.21 641.121 1099.39 642.298 1098.32 642.186C1098.14 642.167 1097.96 642.103 1097.81 642C1097.66 641.896 1097.53 641.756 1097.45 641.592C1097.41 641.535 1097.38 641.467 1097.38 641.397C1097.37 641.326 1097.38 641.256 1097.42 641.192C1097.43 641.171 1097.44 641.15 1097.45 641.129" fill="#A6AEBA"/>
<path d="M1104.42 638.722C1104.43 638.702 1104.44 638.681 1104.45 638.659C1104.46 638.609 1104.47 638.554 1104.46 638.502C1104.45 638.449 1104.42 638.4 1104.39 638.359C1104.29 638.245 1101.96 635.559 1099.82 635.424C1099.51 635.398 1099.2 635.435 1098.9 635.535C1098.61 635.635 1098.34 635.794 1098.11 636.003C1097.46 636.582 1097.52 637.084 1097.68 637.403C1098.36 638.749 1102.53 639.218 1104.21 638.868C1104.26 638.859 1104.29 638.842 1104.33 638.817C1104.36 638.792 1104.39 638.761 1104.41 638.725M1098.27 636.75C1098.34 636.645 1098.43 636.55 1098.52 636.468C1098.69 636.314 1098.89 636.197 1099.1 636.124C1099.32 636.051 1099.55 636.025 1099.77 636.046C1101.18 636.139 1102.78 637.596 1103.51 638.338C1101.65 638.495 1098.64 637.93 1098.23 637.122C1098.2 637.063 1098.19 636.996 1098.2 636.93C1098.21 636.864 1098.23 636.802 1098.27 636.75Z" fill="#A6AEBA"/>
<path d="M1118.11 633.157L1106.1 638.498L1100.74 627.354L1093.74 612.761L1092.92 611.061L1104.92 605.715L1105.85 607.624L1112.64 621.756L1118.11 633.157Z" fill="#FFB573"/>
<mask id="mask18_306_25" style="mask-type:luminance" maskUnits="userSpaceOnUse" x="1093" y="607" width="20" height="21">
<path d="M1112.63 607.625H1093.74V627.352H1112.63V607.625Z" fill="white"/>
</mask>
<g mask="url(#mask18_306_25)">
<path d="M1112.63 621.758L1100.73 627.353L1093.73 612.753L1105.85 607.621L1112.63 621.758Z" fill="black"/>
</g>
<path d="M1072.6 365.502C1072.6 365.502 1034.21 460.923 1044.62 505.856C1054.02 546.465 1095.6 623.371 1095.6 623.371L1111.68 615.301C1111.68 615.301 1085.97 522.464 1083.18 502.296C1077.76 463.053 1112.63 407.661 1112.63 365.503L1072.6 365.502Z" fill="#263238"/>
<mask id="mask19_306_25" style="mask-type:luminance" maskUnits="userSpaceOnUse" x="1042" y="365" width="71" height="259">
<path d="M1112.64 365.502H1042.83V623.371H1112.64V365.502Z" fill="white"/>
</mask>
<g mask="url(#mask19_306_25)">
<path d="M1072.6 365.502C1072.6 365.502 1034.21 460.923 1044.62 505.856C1054.02 546.465 1095.6 623.371 1095.6 623.371L1111.68 615.301C1111.68 615.301 1085.97 522.464 1083.18 502.296C1077.76 463.053 1112.63 407.661 1112.63 365.503L1072.6 365.502Z" fill="#D2DCEB"/>
</g>
<path d="M1103.95 636.823L1115.88 628.137C1116.09 627.984 1116.34 627.911 1116.59 627.931C1116.84 627.951 1117.08 628.063 1117.26 628.245L1125.49 636.698C1125.69 636.918 1125.84 637.178 1125.93 637.46C1126.03 637.742 1126.06 638.041 1126.03 638.336C1125.99 638.631 1125.9 638.917 1125.75 639.174C1125.6 639.431 1125.4 639.653 1125.16 639.827C1120.95 642.784 1118.76 643.999 1113.52 647.819C1110.29 650.169 1103.86 655.365 1099.4 658.61C1095.04 661.783 1091.49 657.619 1093.06 655.868C1100.08 648.019 1101.56 643.168 1102.65 638.768C1102.84 637.988 1103.3 637.299 1103.95 636.823" fill="#263238"/>
<path d="M1094.57 626.772L1115.32 617.281L1112.66 608.824L1090.43 618.961L1094.57 626.772Z" fill="#A6AEBA"/>
<path d="M1082.79 287.45C1081.07 282.994 1066.07 278.106 1058.55 276.4L1055.24 301.137C1055.24 301.137 1067.53 318.792 1072.92 317.33C1079.29 315.606 1086.47 297.002 1082.78 287.455" fill="#407BFF"/>
<mask id="mask20_306_25" style="mask-type:luminance" maskUnits="userSpaceOnUse" x="1055" y="276" width="29" height="42">
<path d="M1083.79 276.4H1055.24V317.41H1083.79V276.4Z" fill="white"/>
</mask>
<g mask="url(#mask20_306_25)">
<path d="M1082.79 287.45C1081.07 282.994 1066.07 278.106 1058.55 276.4L1055.24 301.137C1055.24 301.137 1067.53 318.792 1072.92 317.33C1079.29 315.606 1086.47 297.002 1082.78 287.455" fill="#444444"/>
</g>
<path d="M1066.32 286.205C1066.32 286.205 1060.06 288.405 1072.6 365.505H1125.96C1125.06 343.787 1125.04 330.397 1135.42 285.828C1127.95 284.286 1120.38 283.288 1112.76 282.843C1103.78 282.41 1096.43 282.123 1088.53 282.843C1078.12 283.794 1066.32 286.209 1066.32 286.209" fill="#407BFF"/>
<mask id="mask21_306_25" style="mask-type:luminance" maskUnits="userSpaceOnUse" x="1064" y="282" width="72" height="84">
<path d="M1135.42 282.402H1064.76V365.502H1135.42V282.402Z" fill="white"/>
</mask>
<g mask="url(#mask21_306_25)">
<path d="M1066.32 286.206C1066.32 286.206 1060.06 288.406 1072.6 365.506H1125.96C1125.06 343.788 1125.04 330.398 1135.42 285.829C1127.95 284.287 1120.38 283.29 1112.76 282.844C1103.78 282.411 1096.43 282.124 1088.53 282.844C1078.12 283.795 1066.32 286.21 1066.32 286.21" fill="#444444"/>
</g>
<path d="M1126.76 362.37L1129.17 367.146C1129.35 367.516 1128.91 367.894 1128.3 367.894H1072.34C1071.86 367.894 1071.46 367.659 1071.43 367.356L1070.95 362.58C1070.91 362.249 1071.33 361.97 1071.86 361.97H1125.89C1126.06 361.956 1126.23 361.986 1126.38 362.056C1126.53 362.126 1126.66 362.234 1126.76 362.37Z" fill="#407BFF"/>
<mask id="mask22_306_25" style="mask-type:luminance" maskUnits="userSpaceOnUse" x="1070" y="361" width="60" height="7">
<path d="M1129.21 361.971H1070.94V367.895H1129.21V361.971Z" fill="white"/>
</mask>
<g mask="url(#mask22_306_25)">
<path d="M1126.76 362.371L1129.17 367.147C1129.35 367.517 1128.91 367.895 1128.3 367.895H1072.34C1071.86 367.895 1071.46 367.66 1071.43 367.357L1070.95 362.581C1070.91 362.25 1071.33 361.971 1071.86 361.971H1125.89C1126.06 361.957 1126.23 361.986 1126.38 362.056C1126.53 362.126 1126.66 362.235 1126.76 362.371Z" fill="white"/>
</g>
<path d="M1119.5 368.412H1120.95C1121.24 368.412 1121.46 368.263 1121.44 368.083L1120.76 361.876C1120.74 361.694 1120.49 361.547 1120.2 361.547H1118.75C1118.46 361.547 1118.24 361.694 1118.26 361.876L1118.94 368.083C1118.96 368.263 1119.21 368.412 1119.5 368.412Z" fill="#263238"/>
<path d="M1084.43 368.412H1085.87C1086.16 368.412 1086.37 368.263 1086.36 368.083L1085.68 361.876C1085.66 361.694 1085.41 361.547 1085.12 361.547H1083.67C1083.38 361.547 1083.16 361.694 1083.18 361.876L1083.86 368.083C1083.88 368.263 1084.13 368.412 1084.42 368.412" fill="#263238"/>
</g>
</g>
<defs>
<linearGradient id="paint0_linear_306_25" x1="972.335" y1="94.51" x2="972.335" y2="1147.59" gradientUnits="userSpaceOnUse">
<stop stop-color="#2D2E2D"/>
<stop offset="0.8" stop-color="#2D2E2D"/>
</linearGradient>
<clipPath id="clip0_306_25">
<rect width="1920" height="1080" fill="white"/>
</clipPath>
</defs>
</svg>
