<svg xmlns="http://www.w3.org/2000/svg" xmlns:xlink="http://www.w3.org/1999/xlink" width="1515" height="885" viewBox="0 0 1515 885">
  <defs>
    <clipPath id="clip-path">
      <rect id="Rectangle_77989" data-name="Rectangle 77989" width="1515" height="885" transform="translate(379 81)" fill="#fff" stroke="#707070" stroke-width="1"/>
    </clipPath>
    <linearGradient id="linear-gradient" x1="0.5" x2="0.5" y2="1" gradientUnits="objectBoundingBox">
      <stop offset="0" stop-color="#f5fbff"/>
      <stop offset="1" stop-color="#fff"/>
    </linearGradient>
    <clipPath id="clip-path-2">
      <path id="Path_21515" data-name="Path 21515" d="M296.288,308.131c-17.472-4.653-27.661-1.236-27.661-1.236l29.939,21.071,25.4-22.224-9.794-12.637Z" transform="translate(-268.627 -293.105)" fill="none"/>
    </clipPath>
    <linearGradient id="linear-gradient-2" x1="-6.667" y1="3.217" x2="-6.642" y2="3.217" gradientUnits="objectBoundingBox">
      <stop offset="0" stop-color="#343a44"/>
      <stop offset="0.3" stop-color="#232c3d"/>
      <stop offset="0.64" stop-color="#172339"/>
      <stop offset="1" stop-color="#142138"/>
    </linearGradient>
    <clipPath id="clip-path-3">
      <path id="Path_21517" data-name="Path 21517" d="M338.332,313.762c-16.837,6.588-23.03,15.372-23.03,15.372l36.605-.731,7.321-32.944-15.374-4.393Z" transform="translate(-315.302 -291.067)" fill="none"/>
    </clipPath>
    <linearGradient id="linear-gradient-3" x1="-10.914" y1="5.2" x2="-10.88" y2="5.2" xlink:href="#linear-gradient-2"/>
    <clipPath id="clip-path-4">
      <path id="Path_21521" data-name="Path 21521" d="M465.754,144.232a4.453,4.453,0,0,0-2.033,3.829c-.19,8.293,7.232,16.013,12.847,21.237,1.653,1.536-.435,1.373-2.778,1.212a15.47,15.47,0,0,0-3.415,0c-1.631.312-5.862,4.779-6.769,5.456,1.361,1.7,2.638,1.525,4.087,1.355a6.212,6.212,0,0,1,3.54.347c2.935,1.309,1.075,5.044-1.659,5.485-4.238.684-5.962-2.109-5.962-2.109-1.94,1.054-2.252,7.344-3.777,8.989,2.1,1.156,14.381,3.315,17.263,3.278,6.151-.073,9.923-3.476,11.9-8.4.026.023-.371-1.8,2.746-4.736,10.3-9.7-.719-28.676-11.945-31.981-5.745-1.689-9.415.091-11.477-5.617.147.409-2.322,1.457-2.565,1.663" transform="translate(-459.835 -142.569)" fill="none"/>
    </clipPath>
    <linearGradient id="linear-gradient-4" x1="-10.55" y1="6.539" x2="-10.527" y2="6.539" xlink:href="#linear-gradient-2"/>
    <clipPath id="clip-path-5">
      <path id="Path_21523" data-name="Path 21523" d="M450.311,274.107c-46.416,17.606-81.242,4.616-81.242,4.616v5.819s32.632,17.948,79.35,2.877c61.11-19.715,66.28-110.436,66.28-110.436l-5.31-2.693s-12.663,82.212-59.078,99.816" transform="translate(-369.069 -174.291)" fill="none"/>
    </clipPath>
    <linearGradient id="linear-gradient-5" x1="-3.853" y1="2.929" x2="-3.843" y2="2.929" xlink:href="#linear-gradient-2"/>
  </defs>
  <g id="Mask_Group_213" data-name="Mask Group 213" transform="translate(-379 -81)" clip-path="url(#clip-path)">
    <g id="Group_29874" data-name="Group 29874">
      <path id="Path_21512" data-name="Path 21512" d="M681.259,170.908c-101.826,62.585-99.233-58.03-232.744-134.272C344.267-22.9,373.358,241.664,339.417,326.518s-63.034,12.123-181.829-29.092-121.222,109.1-121.222,109.1L0,745.941s647.316,53.337,698.229,53.337,715.2-65.459,715.2-65.459,5.359-144.714,5.387-260.219v-1.81c-.014-57.45-1.368-107.4-5.387-128.3-12.123-63.034-55.762-181.831-143.04-232.742s-140.616,58.185-213.349,60.609-9.8-67.752-111.522-147.768C924.476,7.036,903.435,0,882.754,0c-79.384,0-153.411,103.709-201.5,170.908" transform="translate(501.183 189.396)" fill="url(#linear-gradient)"/>
      <path id="Path_21513" data-name="Path 21513" d="M422.507,248.012l49.966,108,5.632-.017L434.9,241Z" transform="translate(1109.925 384.445)" fill="#dca86e"/>
      <path id="Path_21514" data-name="Path 21514" d="M407.55,247.95,357.584,353.641l-5.632-.018L395.159,245.55Z" transform="translate(1073.199 386.814)" fill="#dca86e"/>
      <g id="Group_29819" data-name="Group 29819" transform="translate(1298.454 704.674)" clip-path="url(#clip-path-2)">
        <rect id="Rectangle_77874" data-name="Rectangle 77874" width="60.849" height="65.237" transform="matrix(0.592, -0.806, 0.806, 0.592, -16.63, 22.652)" fill="url(#linear-gradient-2)"/>
      </g>
      <path id="Path_21516" data-name="Path 21516" d="M457.594,220.8s-56.13,28.773-75.961,37.378-87.3,76.168-87.3,76.168,8.637,17.589,12.958,14.5c38.094-27.234,73.187-51.605,95.738-60.109,44.658-16.837,57.1-20.5,68.542-33.753,0,0-6.709-15.934-13.981-34.183" transform="translate(1043.209 373.93)" fill="#8b9fa3"/>
      <rect id="Rectangle_77875" data-name="Rectangle 77875" width="757.704" height="640.525" transform="translate(890 259)" fill="none"/>
      <g id="Group_29823" data-name="Group 29823" transform="translate(1369.424 701.574)" clip-path="url(#clip-path-3)">
        <rect id="Rectangle_77876" data-name="Rectangle 77876" width="43.926" height="38.068" transform="translate(0)" fill="url(#linear-gradient-3)"/>
      </g>
      <path id="Path_21518" data-name="Path 21518" d="M438.694,215.992s-52.212,5.634-71.246,15.882-34.184,104.241-34.184,104.241,14.784,8.025,16.615,3.039a684.121,684.121,0,0,1,31.143-71.693c18.76-3.427,62.212,17.719,93.617-13.215,0,0-27.16-20.685-35.945-38.255" transform="translate(1063.472 371.43)" fill="#8b9fa3"/>
      <path id="Path_21519" data-name="Path 21519" d="M471.227,179.358a69.617,69.617,0,0,0-6.146,14.062l-21.476-1.984s11.088-16.8,10.239-26.988Z" transform="translate(1120.907 344.6)" fill="#fec4ad"/>
      <path id="Path_21520" data-name="Path 21520" d="M465.282,152.437c-1.219-.324-5.808-1.587-6.737-1.209-1.288.525.21,2.214-.7,3.245-1.466,1.67-4.4,1.7-6.3,2.719a12.52,12.52,0,0,0-5.091,4.688c-1.749,3.073,4.619,9.932,5.617,15.073,2.086,10.753,15.678,12.344,26.72,9.052,3.949-1.177,7.58-4.727,9.733-8.171,2.53-4.048,1.1-10.812-1.016-14.843-1.271-2.418-3.789-4.5-5.988-6.017-1.99-1.373-2.541-7.084-4.939-7.489,0,0-8.557,3.681-11.3,2.953" transform="translate(1122.235 336.811)" fill="#fec4ad"/>
      <rect id="Rectangle_77877" data-name="Rectangle 77877" width="757.704" height="640.525" transform="translate(890 259)" fill="none"/>
      <g id="Group_29827" data-name="Group 29827" transform="translate(1589.19 475.779)" clip-path="url(#clip-path-4)">
        <rect id="Rectangle_77878" data-name="Rectangle 77878" width="65.185" height="66.009" transform="translate(-25.152 21.944) rotate(-41.103)" fill="url(#linear-gradient-4)"/>
      </g>
      <path id="Path_21522" data-name="Path 21522" d="M491.9,177.525c4.5,50.224-53.328,98.378-53.328,98.378s-37.759,1.42-35.945-38.255c0,0,2.938-7.215,26.314-28.4,15.617-14.155,26.589-35.278,37.58-34.857,30.015,1.148,25.379,3.132,25.379,3.132" transform="translate(1099.542 349.773)" fill="#006b4a"/>
      <rect id="Rectangle_77879" data-name="Rectangle 77879" width="757.704" height="640.525" transform="translate(890 259)" fill="none"/>
      <g id="Group_29831" data-name="Group 29831" transform="translate(1451.178 524.014)" clip-path="url(#clip-path-5)">
        <rect id="Rectangle_77880" data-name="Rectangle 77880" width="145.63" height="128.2" transform="translate(0 0)" fill="url(#linear-gradient-5)"/>
      </g>
      <path id="Path_21524" data-name="Path 21524" d="M457.64,213.75s5.56,19.27,5.871,28.875-3.8,42.213-3.8,42.213l8.846,1.121s7.861-38.866,8.045-51.55-7.13-33.231-7.13-33.231Z" transform="translate(1128.213 363.717)" fill="#f8d2a1"/>
      <path id="Path_21525" data-name="Path 21525" d="M461.89,227.555c6.423,28.061,3.76,65.67,3.76,65.67l9.6.611c10.523-22.014,9.538-70.788,3.973-91.309-3.269-12.058-5.2-24.213-13.353-26.088-5.1-1.172-15.59,2.561-17,7.6-3.049,10.937,9.867,29.749,13.017,43.514" transform="translate(1123.409 350.729)" fill="#006b4a"/>
      <path id="Path_21526" data-name="Path 21526" d="M457.218,262.239c-2.118,4.035-3.078,6.993-1.831,8.01.862.7,2.246-3.214,3.92-4.612a12.115,12.115,0,0,1-.487,7.248c-1.181,2.907-1.078,5.395,1.131,5.608s5.805.068,6.6-1.762,2.617-9.471,3.6-12.014-.321-5.463.053-6.918-6.528-3.893-6.528-3.893c-.379.585-2.5,3.485-2.5,3.485a22.518,22.518,0,0,1-2.41,2.536,8.54,8.54,0,0,0-1.548,2.311" transform="translate(1126.751 391.164)" fill="#f8d2a1"/>
      <line id="Line_808" data-name="Line 808" y2="325.902" transform="translate(1531.573)" fill="none" stroke="#717579" stroke-width="0.25"/>
      <path id="Path_21527" data-name="Path 21527" d="M437.755,65.246a11.734,11.734,0,1,1-10.8-12.6,11.734,11.734,0,0,1,10.8,12.6" transform="translate(1105.665 286.385)" fill="#ffba01"/>
      <path id="Path_21528" data-name="Path 21528" d="M496.311,75.683H385.5L434,40.394h13.819Z" transform="translate(1090.664 280.025)" fill="#d2dceb"/>
      <line id="Line_809" data-name="Line 809" y2="325.902" transform="translate(1009.932)" fill="none" stroke="#878889" stroke-width="0.25"/>
      <path id="Path_21529" data-name="Path 21529" d="M94.689,65.246a11.734,11.734,0,1,1-10.8-12.6,11.733,11.733,0,0,1,10.8,12.6" transform="translate(927.09 286.385)" fill="#ffba01"/>
      <path id="Path_21530" data-name="Path 21530" d="M153.245,75.683H42.438L90.932,40.394h13.819Z" transform="translate(912.09 280.025)" fill="#d2dceb"/>
      <line id="Line_810" data-name="Line 810" x2="757.704" transform="translate(890 739.928)" fill="none" stroke="#a6aeba" stroke-width="0.5"/>
      <path id="Path_21531" data-name="Path 21531" d="M181.147,171.558a46.707,46.707,0,0,1,6.585-10.822c4.247-5.1,10.578-13.587,10.578-13.587s-3.088,6.043-7.28,12.87a52.184,52.184,0,0,1-9.883,11.539" transform="translate(984.291 335.594)" fill="#50cc85"/>
      <path id="Path_21532" data-name="Path 21532" d="M184.035,165.314s4.7-3.695,7.525-11.513,5.4-13.773,5.4-13.773-6.1,8.723-8.72,14.77-4.2,10.516-4.2,10.516" transform="translate(985.795 331.889)" fill="#50cc85"/>
      <path id="Path_21533" data-name="Path 21533" d="M181.683,171.957a98.424,98.424,0,0,0,2.942-16.083c.484-7.14.429-11.623.429-11.623s-3.1,12.953-4.037,18.455a17.813,17.813,0,0,0,.666,9.251" transform="translate(984.071 334.086)" fill="#50cc85"/>
      <path id="Path_21534" data-name="Path 21534" d="M181.69,176.965s.786-9.211-1.8-17.453a54.847,54.847,0,0,1-2.729-13.47s-1.242,8.627.233,16.064a106.3,106.3,0,0,0,4.3,14.859" transform="translate(981.96 335.018)" fill="#50cc85"/>
      <path id="Path_21535" data-name="Path 21535" d="M180.472,169.164s6.543-5.588,9.85-6.9,7.913-5.145,7.913-5.145-5.685,7.277-8.859,8.719-8.9,3.328-8.9,3.328" transform="translate(983.94 340.783)" fill="#50cc85"/>
      <path id="Path_21536" data-name="Path 21536" d="M181,177.99s.634-5.03-2.29-12.157a63.812,63.812,0,0,1-3.6-10.653s-.173,9.677,1.75,13.308,4.14,9.5,4.14,9.5" transform="translate(981.149 339.775)" fill="#50cc85"/>
      <path id="Path_21537" data-name="Path 21537" d="M179.389,169.149a21.166,21.166,0,0,1,7.385-3.018,17.855,17.855,0,0,0,4.592-1,8.582,8.582,0,0,1-6.3,3.914c-4.47.564-5.673.1-5.673.1" transform="translate(983.376 344.955)" fill="#50cc85"/>
      <path id="Path_21538" data-name="Path 21538" d="M177.772,182.863c.812-3.163,1.858-8.051,2.938-11.319,2.38-7.21,8.042-16.5,8.042-16.5-3.459,7.671-5.985,11.985-7.723,18.6-.69,2.621-1.881,6.26-2.526,8.638-.1.651-.625,1.2-.731.582" transform="translate(982.535 339.703)" fill="#50cc85"/>
      <path id="Path_21539" data-name="Path 21539" d="M181.885,175.329a49.68,49.68,0,0,0-2.875-13.156c-2.506-6.595-5.933-17.317-5.933-17.317s1.014,7.143,2.866,15.455a55.484,55.484,0,0,0,5.942,15.018" transform="translate(980.091 334.4)" fill="#77e6a6"/>
      <path id="Path_21540" data-name="Path 21540" d="M179.682,167.552s-3.449-5.34-3.581-14.176-.661-15.712-.661-15.712,3.114,10.879,3.657,17.865.585,12.023.585,12.023" transform="translate(981.321 330.658)" fill="#77e6a6"/>
      <path id="Path_21541" data-name="Path 21541" d="M178.912,174.026a104.729,104.729,0,0,1,2.606-17.183c1.984-7.344,3.588-11.831,3.588-11.831s-1.362,14.094-2.325,19.946a18.941,18.941,0,0,1-3.87,9.068" transform="translate(983.128 334.482)" fill="#77e6a6"/>
      <path id="Path_21542" data-name="Path 21542" d="M178.953,178.6s2.395-9.532,7.849-16.919a58.291,58.291,0,0,0,7.4-12.6s-1.735,9.1-5.79,16.066a113.245,113.245,0,0,1-9.462,13.449" transform="translate(983.149 336.604)" fill="#77e6a6"/>
      <path id="Path_21543" data-name="Path 21543" d="M183.6,173.226s-4.644-7.878-7.513-10.346-6.173-7.907-6.173-7.907,3.2,9.281,5.887,11.83,7.8,6.423,7.8,6.423" transform="translate(978.443 339.668)" fill="#77e6a6"/>
      <path id="Path_21544" data-name="Path 21544" d="M178.625,179.812s1.1-5.275,6.508-11.427a67.9,67.9,0,0,0,7.3-9.462s-3.172,9.786-6.362,12.771-7.449,8.118-7.449,8.118" transform="translate(982.979 341.723)" fill="#77e6a6"/>
      <path id="Path_21545" data-name="Path 21545" d="M182.7,172.9a22.5,22.5,0,0,0-6.379-5.588,18.868,18.868,0,0,1-4.27-2.6,9.122,9.122,0,0,0,4.981,6.116c4.3,2.115,5.667,2.068,5.667,2.068" transform="translate(979.557 344.74)" fill="#77e6a6"/>
      <path id="Path_21546" data-name="Path 21546" d="M179.239,187.127c.278-3.459.917-8.735.962-12.392.1-8.072-2.375-19.368-2.375-19.368.823,8.906,1.869,14.115,1.329,21.366-.214,2.874-.275,6.943-.45,9.555-.12.692.214,1.422.534.839" transform="translate(982.563 339.871)" fill="#50cc85"/>
      <path id="Path_21547" data-name="Path 21547" d="M181.474,174.147a46.708,46.708,0,0,0-6.585-10.822c-4.247-5.1-10.578-13.587-10.578-13.587s3.088,6.043,7.28,12.87a52.184,52.184,0,0,0,9.883,11.539" transform="translate(975.527 336.941)" fill="#50cc85"/>
      <path id="Path_21548" data-name="Path 21548" d="M177.132,167.9s-4.7-3.695-7.525-11.513-5.4-13.773-5.4-13.773,6.1,8.723,8.72,14.77,4.2,10.516,4.2,10.516" transform="translate(975.476 333.236)" fill="#50cc85"/>
      <path id="Path_21549" data-name="Path 21549" d="M176.544,174.547a98.423,98.423,0,0,1-2.942-16.083c-.484-7.14-.429-11.623-.429-11.623s3.1,12.953,4.037,18.455a17.813,17.813,0,0,1-.666,9.251" transform="translate(980.14 335.436)" fill="#50cc85"/>
      <path id="Path_21550" data-name="Path 21550" d="M176.813,179.554s-.788-9.211,1.8-17.453a54.757,54.757,0,0,0,2.729-13.47s1.244,8.626-.233,16.063a106.469,106.469,0,0,1-4.3,14.86" transform="translate(981.977 336.365)" fill="#50cc85"/>
      <path id="Path_21551" data-name="Path 21551" d="M182.353,171.754s-6.543-5.588-9.85-6.9-7.913-5.144-7.913-5.144,5.685,7.277,8.859,8.72,8.9,3.327,8.9,3.327" transform="translate(975.673 342.131)" fill="#50cc85"/>
      <path id="Path_21552" data-name="Path 21552" d="M177.777,180.58s-.634-5.03,2.29-12.157a63.81,63.81,0,0,0,3.6-10.653s.173,9.677-1.75,13.308-4.14,9.5-4.14,9.5" transform="translate(982.507 341.123)" fill="#50cc85"/>
      <path id="Path_21553" data-name="Path 21553" d="M181.455,171.738a21.145,21.145,0,0,0-7.385-3.017,17.879,17.879,0,0,1-4.592-1,8.581,8.581,0,0,0,6.3,3.915c4.47.564,5.673.1,5.673.1" transform="translate(978.217 346.301)" fill="#50cc85"/>
      <path id="Path_21554" data-name="Path 21554" d="M182.732,185.453c-.812-3.163-1.86-8.051-2.938-11.319-2.38-7.21-8.042-16.5-8.042-16.5,3.459,7.671,5.985,11.983,7.723,18.6.69,2.621,1.881,6.26,2.526,8.638.1.651.625,1.2.731.582" transform="translate(979.401 341.051)" fill="#50cc85"/>
      <path id="Path_21555" data-name="Path 21555" d="M192.387,201.149h-17.74L169.165,169.9h29.342Z" transform="translate(978.055 347.438)" fill="#d2dceb"/>
      <path id="Path_21556" data-name="Path 21556" d="M317.732,196.11l29.256,182.928,5.63-.018L329.472,196.074Z" transform="translate(1055.387 361.061)" fill="#dca86e"/>
      <path id="Path_21557" data-name="Path 21557" d="M200.733,196.153l-38.1,183.111-7.586.017,29.872-183.089Z" transform="translate(970.705 361.102)" fill="#dca86e"/>
      <rect id="Rectangle_77881" data-name="Rectangle 77881" width="314.786" height="14.088" transform="translate(1111.46 546.48)" fill="#dca86e"/>
      <rect id="Rectangle_77882" data-name="Rectangle 77882" width="344.972" height="9.353" transform="translate(1096.367 546.48)" fill="#f3ba7a"/>
      <path id="Path_21558" data-name="Path 21558" d="M307.536,212.566H295.291l-12.243-78.12h9.309Z" transform="translate(1037.333 328.982)" fill="#a6aeba"/>
      <path id="Path_21559" data-name="Path 21559" d="M317.391,212.566H269.6l-12.243-78.12h47.787Z" transform="translate(1023.963 328.982)" fill="#d2dceb"/>
      <rect id="Rectangle_77883" data-name="Rectangle 77883" width="51.944" height="5.828" transform="translate(1292.925 539.777)" fill="#d2dceb"/>
      <rect id="Rectangle_77884" data-name="Rectangle 77884" width="65.492" height="5.828" transform="translate(1344.869 539.777)" fill="#a6aeba"/>
      <path id="Path_21560" data-name="Path 21560" d="M283,165.309c1.384,5.98.409,12.438-2.174,14.425s-5.8-1.25-7.183-7.23-.409-12.438,2.174-14.425,5.8,1.25,7.183,7.23" transform="translate(1032.11 340.979)" fill="#a6aeba"/>
      <path id="Path_21561" data-name="Path 21561" d="M235.862,195.928h-6.778a5.678,5.678,0,0,1-5.612-4.808l-2.708-17.442h23.419l-2.708,17.442a5.679,5.679,0,0,1-5.612,4.808" transform="translate(1004.912 349.404)" fill="#a6aeba"/>
      <path id="Path_21562" data-name="Path 21562" d="M236.688,191.389c-.246,0-.494-.008-.75-.027l-.316-.024-.252-.195c-.17-.128-4.125-3.225-4.125-7.656,0-4.539,3.014-8.232,6.718-8.232a7.014,7.014,0,0,1,5.454,2.319c.88,1.052,1.814,2.97,1.25,6.1-.891,4.94-3.782,7.714-7.978,7.714m-.255-2.135c4.277.135,5.626-3.144,6.134-5.957a5.123,5.123,0,0,0-.788-4.353,4.894,4.894,0,0,0-3.816-1.556c-2.527,0-4.584,2.735-4.584,6.1,0,2.83,2.3,5.1,3.055,5.767" transform="translate(1010.368 350.225)" fill="#a6aeba"/>
      <path id="Path_21563" data-name="Path 21563" d="M220.849,191.113H250.53l4.733-5.241H216.116Z" transform="translate(1002.494 355.75)" fill="#d2dceb"/>
      <rect id="Rectangle_77885" data-name="Rectangle 77885" width="142.025" height="307.201" transform="translate(924.042 432.838)" fill="#b6bfcc"/>
      <rect id="Rectangle_77886" data-name="Rectangle 77886" width="109.324" height="32.211" transform="translate(940.392 446.262)" fill="#d2dceb"/>
      <path id="Path_21564" data-name="Path 21564" d="M87.057,138.988H60.907a1.217,1.217,0,0,1-1.216-1.216V132.4a1.218,1.218,0,0,1,1.216-1.216h26.15a1.217,1.217,0,0,1,1.216,1.216v5.377a1.216,1.216,0,0,1-1.216,1.216" transform="translate(921.071 327.281)" fill="#fff"/>
      <rect id="Rectangle_77887" data-name="Rectangle 77887" width="109.324" height="32.212" transform="translate(940.392 487.254)" fill="#d2dceb"/>
      <path id="Path_21565" data-name="Path 21565" d="M87.057,165.948H60.907a1.217,1.217,0,0,1-1.216-1.216v-5.377a1.217,1.217,0,0,1,1.216-1.215h26.15a1.216,1.216,0,0,1,1.216,1.215v5.377a1.216,1.216,0,0,1-1.216,1.216" transform="translate(921.071 341.316)" fill="#fff"/>
      <rect id="Rectangle_77888" data-name="Rectangle 77888" width="109.324" height="32.211" transform="translate(940.392 528.246)" fill="#d2dceb"/>
      <path id="Path_21566" data-name="Path 21566" d="M87.057,192.908H60.907a1.217,1.217,0,0,1-1.216-1.216v-5.377a1.217,1.217,0,0,1,1.216-1.215h26.15a1.216,1.216,0,0,1,1.216,1.215v5.377a1.216,1.216,0,0,1-1.216,1.216" transform="translate(921.071 355.35)" fill="#fff"/>
      <rect id="Rectangle_77889" data-name="Rectangle 77889" width="109.324" height="157.894" transform="translate(940.392 569.701)" fill="#d2dceb"/>
      <path id="Path_21567" data-name="Path 21567" d="M87.057,220.171H60.907a1.217,1.217,0,0,1-1.216-1.216v-5.377a1.217,1.217,0,0,1,1.216-1.216h26.15a1.216,1.216,0,0,1,1.216,1.216v5.377a1.216,1.216,0,0,1-1.216,1.216" transform="translate(921.071 369.539)" fill="#fff"/>
      <rect id="Rectangle_77890" data-name="Rectangle 77890" width="757.704" height="640.525" transform="translate(890 259)" fill="none"/>
    </g>
  </g>
</svg>
