<svg xmlns="http://www.w3.org/2000/svg" xmlns:xlink="http://www.w3.org/1999/xlink" width="1428" height="672" viewBox="0 0 1428 672">
  <defs>
    <clipPath id="clip-path">
      <rect id="Rectangle_77989" data-name="Rectangle 77989" width="1428" height="672" transform="translate(513.998 172.018)" fill="#fff" stroke="#707070" stroke-width="1"/>
    </clipPath>
    <linearGradient id="linear-gradient" x1="0.5" x2="0.5" y2="1" gradientUnits="objectBoundingBox">
      <stop offset="0" stop-color="#f5fbff"/>
      <stop offset="1" stop-color="#fff"/>
    </linearGradient>
    <clipPath id="clip-path-2">
      <path id="Path_21515" data-name="Path 21515" d="M297.165,308.607c-18.026-4.8-28.538-1.275-28.538-1.275l30.888,21.739,26.2-22.928-10.1-13.037Z" transform="translate(-268.627 -293.105)" fill="none"/>
    </clipPath>
    <linearGradient id="linear-gradient-2" x1="-6.667" y1="3.217" x2="-6.642" y2="3.217" gradientUnits="objectBoundingBox">
      <stop offset="0" stop-color="#343a44"/>
      <stop offset="0.3" stop-color="#232c3d"/>
      <stop offset="0.64" stop-color="#172339"/>
      <stop offset="1" stop-color="#142138"/>
    </linearGradient>
    <clipPath id="clip-path-3">
      <path id="Path_21517" data-name="Path 21517" d="M339.061,314.481c-17.37,6.8-23.759,15.859-23.759,15.859l37.765-.755L360.62,295.6l-15.861-4.532Z" transform="translate(-315.302 -291.067)" fill="none"/>
    </clipPath>
    <linearGradient id="linear-gradient-3" x1="-10.914" y1="5.2" x2="-10.88" y2="5.2" xlink:href="#linear-gradient-2"/>
    <clipPath id="clip-path-4">
      <path id="Path_21521" data-name="Path 21521" d="M465.942,144.285c-1.391,1.177-2.052,2-2.1,3.95-.2,8.556,7.461,16.52,13.254,21.91,1.705,1.584-.449,1.417-2.866,1.25a15.959,15.959,0,0,0-3.523,0c-1.683.322-6.047,4.93-6.984,5.628,1.4,1.751,2.722,1.573,4.217,1.4a6.409,6.409,0,0,1,3.652.358c3.028,1.351,1.109,5.2-1.711,5.658-4.372.706-6.151-2.176-6.151-2.176-2,1.087-2.323,7.577-3.9,9.274,2.171,1.192,14.837,3.42,17.809,3.382,6.345-.075,10.237-3.586,12.275-8.669.027.024-.383-1.86,2.833-4.886,10.629-10.008-.742-29.584-12.324-32.994-5.927-1.743-9.713.094-11.841-5.795.152.422-2.4,1.5-2.646,1.716" transform="translate(-459.835 -142.569)" fill="none"/>
    </clipPath>
    <linearGradient id="linear-gradient-4" x1="-10.55" y1="6.539" x2="-10.527" y2="6.539" xlink:href="#linear-gradient-2"/>
    <clipPath id="clip-path-5">
      <path id="Path_21523" data-name="Path 21523" d="M452.884,277.27c-47.886,18.164-83.815,4.763-83.815,4.763v6s33.666,18.517,81.864,2.968c63.046-20.34,68.379-113.934,68.379-113.934l-5.478-2.778s-13.064,84.816-60.95,102.979" transform="translate(-369.069 -174.291)" fill="none"/>
    </clipPath>
    <linearGradient id="linear-gradient-5" x1="-3.853" y1="2.929" x2="-3.843" y2="2.929" xlink:href="#linear-gradient-2"/>
  </defs>
  <g id="Mask_Group_213" data-name="Mask Group 213" transform="translate(-513.998 -172.018)" clip-path="url(#clip-path)">
    <g id="Group_29874" data-name="Group 29874" transform="translate(505.053 -2.566)">
      <path id="Path_21512" data-name="Path 21512" d="M702.841,176.322C597.79,240.89,600.464,116.453,462.725,37.8,355.173-23.621,385.186,249.32,350.17,336.862s-65.031,12.507-187.59-30.013S37.518,419.4,37.518,419.4L0,769.572S667.823,824.6,720.349,824.6s737.858-67.533,737.858-67.533,5.529-149.3,5.558-268.462v-1.868c-.014-59.27-1.411-110.8-5.558-132.366-12.507-65.031-57.528-187.591-147.572-240.116s-145.071,60.028-220.108,62.529-10.11-69.9-115.055-152.449C953.763,7.259,932.056,0,910.72,0c-81.9,0-158.272,106.994-207.878,176.322" transform="translate(0 195.397)" fill="url(#linear-gradient)"/>
      <path id="Path_21513" data-name="Path 21513" d="M422.507,248.234l51.549,111.42,5.81-.017L435.29,241Z" transform="translate(641.413 404.259)" fill="#dca86e"/>
      <path id="Path_21514" data-name="Path 21514" d="M409.311,248.026l-51.549,109.04-5.81-.019,44.576-111.5Z" transform="translate(601.288 406.848)" fill="#dca86e"/>
      <g id="Group_29819" data-name="Group 29819" transform="translate(822.529 726.998)" clip-path="url(#clip-path-2)">
        <rect id="Rectangle_77874" data-name="Rectangle 77874" width="62.777" height="67.303" transform="matrix(0.592, -0.806, 0.806, 0.592, -17.157, 23.37)" fill="url(#linear-gradient-2)"/>
      </g>
      <path id="Path_21516" data-name="Path 21516" d="M462.766,220.8S404.858,250.48,384.4,259.358s-90.062,78.581-90.062,78.581,8.91,18.147,13.368,14.959c39.3-28.1,75.506-53.24,98.771-62.014,46.073-17.37,58.912-21.146,70.714-34.822,0,0-6.921-16.438-14.424-35.266" transform="translate(568.523 392.771)" fill="#8b9fa3"/>
      <rect id="Rectangle_77875" data-name="Rectangle 77875" width="781.709" height="660.817" transform="translate(401.135 267.205)" fill="none"/>
      <g id="Group_29823" data-name="Group 29823" transform="translate(895.748 723.8)" clip-path="url(#clip-path-3)">
        <rect id="Rectangle_77876" data-name="Rectangle 77876" width="45.318" height="39.274" transform="translate(0)" fill="url(#linear-gradient-3)"/>
      </g>
      <path id="Path_21518" data-name="Path 21518" d="M442.034,215.992s-53.866,5.812-73.5,16.385S333.264,339.92,333.264,339.92s15.252,8.28,17.141,3.136a705.791,705.791,0,0,1,32.13-73.964c19.355-3.536,64.183,18.28,96.583-13.633,0,0-28.02-21.341-37.084-39.467" transform="translate(590.661 390.039)" fill="#8b9fa3"/>
      <path id="Path_21519" data-name="Path 21519" d="M472.1,179.831a71.823,71.823,0,0,0-6.341,14.507l-22.156-2.047s11.439-17.333,10.564-27.843Z" transform="translate(653.411 360.726)" fill="#fec4ad"/>
      <path id="Path_21520" data-name="Path 21520" d="M465.887,152.53c-1.258-.334-5.992-1.638-6.951-1.247-1.329.541.216,2.284-.72,3.348-1.512,1.722-4.543,1.759-6.5,2.8a12.917,12.917,0,0,0-5.252,4.836c-1.8,3.17,4.766,10.247,5.795,15.55,2.152,11.094,16.175,12.735,27.567,9.338,4.074-1.214,7.82-4.877,10.041-8.43,2.61-4.176,1.139-11.155-1.048-15.314-1.311-2.494-3.909-4.643-6.178-6.207-2.053-1.417-2.621-7.309-5.1-7.726,0,0-8.829,3.8-11.662,3.046" transform="translate(654.861 352.216)" fill="#fec4ad"/>
      <rect id="Rectangle_77877" data-name="Rectangle 77877" width="781.709" height="660.817" transform="translate(401.135 267.205)" fill="none"/>
      <g id="Group_29827" data-name="Group 29827" transform="translate(1122.476 490.852)" clip-path="url(#clip-path-4)">
        <rect id="Rectangle_77878" data-name="Rectangle 77878" width="67.251" height="68.1" transform="translate(-25.949 22.64) rotate(-41.103)" fill="url(#linear-gradient-4)"/>
      </g>
      <path id="Path_21522" data-name="Path 21522" d="M494.727,177.625c4.645,51.816-55.017,101.495-55.017,101.495s-38.955,1.465-37.084-39.467c0,0,3.031-7.443,27.148-29.3,16.112-14.6,27.432-36.4,38.77-35.961,30.966,1.184,26.183,3.232,26.183,3.232" transform="translate(630.069 366.379)" fill="#00355a"/>
      <rect id="Rectangle_77879" data-name="Rectangle 77879" width="781.709" height="660.817" transform="translate(401.135 267.205)" fill="none"/>
      <g id="Group_29831" data-name="Group 29831" transform="translate(980.092 540.615)" clip-path="url(#clip-path-5)">
        <rect id="Rectangle_77880" data-name="Rectangle 77880" width="150.243" height="132.261" transform="translate(0 0)" fill="url(#linear-gradient-5)"/>
      </g>
      <path id="Path_21524" data-name="Path 21524" d="M457.64,214.149s5.737,19.88,6.057,29.79-3.917,43.55-3.917,43.55l9.127,1.156s8.11-40.1,8.3-53.183-7.356-34.284-7.356-34.284Z" transform="translate(661.393 381.613)" fill="#f8d2a1"/>
      <path id="Path_21525" data-name="Path 21525" d="M462.317,229.181c6.626,28.95,3.879,67.75,3.879,67.75l9.9.631c10.857-22.712,9.84-73.031,4.1-94.2-3.373-12.44-5.36-24.98-13.776-26.914-5.261-1.21-16.084,2.642-17.535,7.842-3.145,11.284,10.179,30.692,13.43,44.893" transform="translate(656.144 367.422)" fill="#00355a"/>
      <path id="Path_21526" data-name="Path 21526" d="M457.293,262.5c-2.185,4.163-3.175,7.214-1.889,8.264.889.726,2.317-3.316,4.044-4.758a12.5,12.5,0,0,1-.5,7.478c-1.219,3-1.112,5.566,1.167,5.785s5.989.071,6.813-1.818,2.7-9.771,3.713-12.394-.331-5.636.055-7.138-6.734-4.016-6.734-4.016c-.391.6-2.584,3.6-2.584,3.6a23.233,23.233,0,0,1-2.486,2.617,8.811,8.811,0,0,0-1.6,2.384" transform="translate(659.796 411.6)" fill="#f8d2a1"/>
      <line id="Line_808" data-name="Line 808" y2="336.227" transform="translate(1063.033)" fill="none" stroke="#717579" stroke-width="0.25"/>
      <path id="Path_21527" data-name="Path 21527" d="M438.5,65.647a12.105,12.105,0,1,1-11.138-13,12.106,12.106,0,0,1,11.138,13" transform="translate(636.758 297.124)" fill="#ffba01"/>
      <path id="Path_21528" data-name="Path 21528" d="M499.821,76.8H385.5l50.03-36.406h14.256Z" transform="translate(620.369 290.176)" fill="#d2dceb"/>
      <line id="Line_809" data-name="Line 809" y2="336.227" transform="translate(524.867)" fill="none" stroke="#878889" stroke-width="0.25"/>
      <path id="Path_21529" data-name="Path 21529" d="M95.431,65.647a12.105,12.105,0,1,1-11.138-13,12.105,12.105,0,0,1,11.138,13" transform="translate(441.658 297.124)" fill="#ffba01"/>
      <path id="Path_21530" data-name="Path 21530" d="M156.755,76.8H42.438l50.03-36.406h14.256Z" transform="translate(425.27 290.176)" fill="#d2dceb"/>
      <line id="Line_810" data-name="Line 810" x2="781.709" transform="translate(401.135 763.369)" fill="none" stroke="#a6aeba" stroke-width="0.5"/>
      <path id="Path_21531" data-name="Path 21531" d="M181.147,172.331a48.187,48.187,0,0,1,6.794-11.164c4.381-5.26,10.913-14.018,10.913-14.018s-3.186,6.234-7.511,13.277a53.838,53.838,0,0,1-10.2,11.9" transform="translate(504.152 350.887)" fill="#50cc85"/>
      <path id="Path_21532" data-name="Path 21532" d="M184.035,166.115s4.85-3.812,7.763-11.878,5.567-14.209,5.567-14.209-6.292,9-9,15.238-4.334,10.849-4.334,10.849" transform="translate(505.795 346.839)" fill="#50cc85"/>
      <path id="Path_21533" data-name="Path 21533" d="M181.714,172.835a101.541,101.541,0,0,0,3.035-16.592c.5-7.367.442-11.991.442-11.991s-3.2,13.364-4.165,19.039a18.378,18.378,0,0,0,.687,9.544" transform="translate(503.912 349.24)" fill="#50cc85"/>
      <path id="Path_21534" data-name="Path 21534" d="M181.849,177.945s.811-9.5-1.86-18.005a56.585,56.585,0,0,1-2.816-13.9s-1.282,8.9.24,16.573a109.671,109.671,0,0,0,4.436,15.329" transform="translate(501.605 350.258)" fill="#50cc85"/>
      <path id="Path_21535" data-name="Path 21535" d="M180.472,169.546s6.75-5.765,10.162-7.12,8.163-5.308,8.163-5.308-5.865,7.508-9.139,8.995-9.186,3.434-9.186,3.434" transform="translate(503.769 356.557)" fill="#50cc85"/>
      <path id="Path_21536" data-name="Path 21536" d="M181.192,178.713s.654-5.189-2.362-12.542a65.834,65.834,0,0,1-3.715-10.99s-.179,9.983,1.806,13.729,4.272,9.8,4.272,9.8" transform="translate(500.72 355.456)" fill="#50cc85"/>
      <path id="Path_21537" data-name="Path 21537" d="M179.389,169.276a21.836,21.836,0,0,1,7.619-3.114,18.421,18.421,0,0,0,4.737-1.032,8.854,8.854,0,0,1-6.5,4.038c-4.612.582-5.853.108-5.853.108" transform="translate(503.153 361.115)" fill="#50cc85"/>
      <path id="Path_21538" data-name="Path 21538" d="M177.772,183.744c.838-3.263,1.917-8.306,3.031-11.677,2.455-7.439,8.3-17.023,8.3-17.023-3.569,7.914-6.174,12.364-7.967,19.188-.712,2.7-1.94,6.458-2.606,8.912-.107.671-.645,1.236-.755.6" transform="translate(502.233 355.377)" fill="#50cc85"/>
      <path id="Path_21539" data-name="Path 21539" d="M182.164,176.294a51.254,51.254,0,0,0-2.966-13.572c-2.585-6.8-6.121-17.866-6.121-17.866s1.046,7.37,2.957,15.944a57.242,57.242,0,0,0,6.13,15.494" transform="translate(499.563 349.583)" fill="#77e6a6"/>
      <path id="Path_21540" data-name="Path 21540" d="M179.817,168.5s-3.558-5.509-3.694-14.625-.682-16.209-.682-16.209,3.213,11.224,3.773,18.431.6,12.4.6,12.4" transform="translate(500.907 345.495)" fill="#77e6a6"/>
      <path id="Path_21541" data-name="Path 21541" d="M178.912,174.945a108.047,108.047,0,0,1,2.689-17.728c2.047-7.577,3.7-12.206,3.7-12.206s-1.406,14.54-2.4,20.578a19.541,19.541,0,0,1-3.992,9.356" transform="translate(502.881 349.673)" fill="#77e6a6"/>
      <path id="Path_21542" data-name="Path 21542" d="M178.953,179.537s2.471-9.834,8.1-17.455a60.138,60.138,0,0,0,7.638-13s-1.79,9.389-5.974,16.575a116.831,116.831,0,0,1-9.762,13.875" transform="translate(502.905 351.99)" fill="#77e6a6"/>
      <path id="Path_21543" data-name="Path 21543" d="M184.031,173.8s-4.791-8.127-7.751-10.673-6.369-8.157-6.369-8.157,3.3,9.575,6.074,12.2,8.046,6.626,8.046,6.626" transform="translate(497.763 355.338)" fill="#77e6a6"/>
      <path id="Path_21544" data-name="Path 21544" d="M178.625,180.474s1.139-5.442,6.714-11.789a70.055,70.055,0,0,0,7.534-9.762s-3.272,10.1-6.563,13.175-7.685,8.375-7.685,8.375" transform="translate(502.718 357.583)" fill="#77e6a6"/>
      <path id="Path_21545" data-name="Path 21545" d="M183.038,173.161a23.208,23.208,0,0,0-6.581-5.765,19.465,19.465,0,0,1-4.4-2.678,9.411,9.411,0,0,0,5.139,6.309c4.435,2.182,5.846,2.133,5.846,2.133" transform="translate(498.98 360.88)" fill="#77e6a6"/>
      <path id="Path_21546" data-name="Path 21546" d="M179.283,188.133c.287-3.569.946-9.012.993-12.785.107-8.328-2.45-19.982-2.45-19.982.849,9.188,1.928,14.562,1.371,22.043-.221,2.965-.284,7.163-.464,9.858-.124.714.221,1.467.551.866" transform="translate(502.264 355.56)" fill="#50cc85"/>
      <path id="Path_21547" data-name="Path 21547" d="M182.017,174.92a48.187,48.187,0,0,0-6.794-11.164c-4.381-5.26-10.913-14.018-10.913-14.018s3.186,6.234,7.511,13.277a53.837,53.837,0,0,0,10.2,11.9" transform="translate(494.577 352.359)" fill="#50cc85"/>
      <path id="Path_21548" data-name="Path 21548" d="M177.542,168.705s-4.85-3.812-7.763-11.878-5.567-14.209-5.567-14.209,6.292,9,9,15.238,4.334,10.849,4.334,10.849" transform="translate(494.521 348.311)" fill="#50cc85"/>
      <path id="Path_21549" data-name="Path 21549" d="M176.651,175.425a101.541,101.541,0,0,1-3.035-16.592c-.5-7.367-.442-11.991-.442-11.991s3.2,13.364,4.165,19.039a18.378,18.378,0,0,1-.687,9.544" transform="translate(499.616 350.714)" fill="#50cc85"/>
      <path id="Path_21550" data-name="Path 21550" d="M176.816,180.534s-.813-9.5,1.859-18.005a56.493,56.493,0,0,0,2.816-13.9s1.283,8.9-.24,16.572a109.843,109.843,0,0,1-4.435,15.331" transform="translate(501.623 351.73)" fill="#50cc85"/>
      <path id="Path_21551" data-name="Path 21551" d="M182.916,172.136s-6.75-5.765-10.162-7.122-8.164-5.307-8.164-5.307,5.865,7.508,9.139,9,9.186,3.432,9.186,3.432" transform="translate(494.737 358.029)" fill="#50cc85"/>
      <path id="Path_21552" data-name="Path 21552" d="M177.779,181.3s-.654-5.189,2.362-12.542a65.832,65.832,0,0,0,3.715-10.99s.179,9.983-1.806,13.729-4.272,9.8-4.272,9.8" transform="translate(502.203 356.928)" fill="#50cc85"/>
      <path id="Path_21553" data-name="Path 21553" d="M181.835,171.865a21.815,21.815,0,0,0-7.619-3.112,18.445,18.445,0,0,1-4.737-1.034,8.853,8.853,0,0,0,6.5,4.039c4.612.582,5.853.107,5.853.107" transform="translate(497.516 362.585)" fill="#50cc85"/>
      <path id="Path_21554" data-name="Path 21554" d="M183.08,186.334c-.838-3.263-1.919-8.306-3.031-11.677-2.455-7.439-8.3-17.023-8.3-17.023,3.569,7.914,6.174,12.363,7.967,19.188.712,2.7,1.94,6.458,2.606,8.912.107.671.645,1.236.755.6" transform="translate(498.81 356.849)" fill="#50cc85"/>
      <path id="Path_21555" data-name="Path 21555" d="M193.122,202.139h-18.3L169.165,169.9h30.271Z" transform="translate(497.339 363.827)" fill="#d2dceb"/>
      <path id="Path_21556" data-name="Path 21556" d="M317.732,196.112l30.183,188.723,5.809-.019-23.88-188.742Z" transform="translate(581.827 378.711)" fill="#dca86e"/>
      <path id="Path_21557" data-name="Path 21557" d="M202.181,196.153l-39.31,188.912-7.826.017,30.819-188.89Z" transform="translate(489.308 378.755)" fill="#dca86e"/>
      <rect id="Rectangle_77881" data-name="Rectangle 77881" width="324.759" height="14.534" transform="translate(629.611 563.793)" fill="#dca86e"/>
      <rect id="Rectangle_77882" data-name="Rectangle 77882" width="355.901" height="9.649" transform="translate(614.04 563.793)" fill="#f3ba7a"/>
      <path id="Path_21558" data-name="Path 21558" d="M308.312,215.041H295.679l-12.631-80.595h9.6Z" transform="translate(562.103 343.664)" fill="#a6aeba"/>
      <path id="Path_21559" data-name="Path 21559" d="M319.293,215.041h-49.3l-12.631-80.595h49.3Z" transform="translate(547.495 343.664)" fill="#d2dceb"/>
      <rect id="Rectangle_77883" data-name="Rectangle 77883" width="53.59" height="6.013" transform="translate(816.825 556.878)" fill="#d2dceb"/>
      <rect id="Rectangle_77884" data-name="Rectangle 77884" width="67.567" height="6.013" transform="translate(870.415 556.878)" fill="#a6aeba"/>
      <path id="Path_21560" data-name="Path 21560" d="M283.316,165.557c1.427,6.17.422,12.832-2.243,14.882s-5.983-1.289-7.411-7.459-.422-12.832,2.243-14.882,5.983,1.289,7.411,7.459" transform="translate(556.396 356.77)" fill="#a6aeba"/>
      <path id="Path_21561" data-name="Path 21561" d="M236.34,196.633h-6.993a5.858,5.858,0,0,1-5.79-4.96l-2.794-17.994h24.161l-2.794,17.994a5.859,5.859,0,0,1-5.79,4.96" transform="translate(526.682 365.976)" fill="#a6aeba"/>
      <path id="Path_21562" data-name="Path 21562" d="M236.86,191.9c-.254,0-.51-.008-.773-.028l-.326-.025-.26-.2c-.176-.132-4.256-3.327-4.256-7.9,0-4.683,3.109-8.493,6.93-8.493a7.236,7.236,0,0,1,5.627,2.392c.908,1.086,1.871,3.064,1.289,6.3-.919,5.1-3.9,7.958-8.231,7.958m-.264-2.2c4.413.14,5.8-3.244,6.328-6.146a5.286,5.286,0,0,0-.813-4.491,5.049,5.049,0,0,0-3.937-1.6c-2.607,0-4.73,2.822-4.73,6.292,0,2.919,2.372,5.257,3.151,5.95" transform="translate(532.642 366.872)" fill="#a6aeba"/>
      <path id="Path_21563" data-name="Path 21563" d="M221,191.279H251.62l4.883-5.407H216.116Z" transform="translate(524.039 372.909)" fill="#d2dceb"/>
      <rect id="Rectangle_77885" data-name="Rectangle 77885" width="146.524" height="316.933" transform="translate(436.255 446.55)" fill="#b6bfcc"/>
      <rect id="Rectangle_77886" data-name="Rectangle 77886" width="112.788" height="33.231" transform="translate(453.123 460.399)" fill="#d2dceb"/>
      <path id="Path_21564" data-name="Path 21564" d="M87.924,139.236H60.946a1.256,1.256,0,0,1-1.255-1.255v-5.547a1.257,1.257,0,0,1,1.255-1.255H87.924a1.256,1.256,0,0,1,1.255,1.255v5.547a1.255,1.255,0,0,1-1.255,1.255" transform="translate(435.081 341.805)" fill="#fff"/>
      <rect id="Rectangle_77887" data-name="Rectangle 77887" width="112.788" height="33.233" transform="translate(453.123 502.69)" fill="#d2dceb"/>
      <path id="Path_21565" data-name="Path 21565" d="M87.924,166.2H60.946a1.256,1.256,0,0,1-1.255-1.255v-5.547a1.255,1.255,0,0,1,1.255-1.253H87.924a1.254,1.254,0,0,1,1.255,1.253v5.547a1.255,1.255,0,0,1-1.255,1.255" transform="translate(435.081 357.139)" fill="#fff"/>
      <rect id="Rectangle_77888" data-name="Rectangle 77888" width="112.788" height="33.231" transform="translate(453.123 544.981)" fill="#d2dceb"/>
      <path id="Path_21566" data-name="Path 21566" d="M87.924,193.155H60.946a1.256,1.256,0,0,1-1.255-1.255v-5.547a1.255,1.255,0,0,1,1.255-1.253H87.924a1.254,1.254,0,0,1,1.255,1.253V191.9a1.255,1.255,0,0,1-1.255,1.255" transform="translate(435.081 372.471)" fill="#fff"/>
      <rect id="Rectangle_77889" data-name="Rectangle 77889" width="112.788" height="162.896" transform="translate(453.123 587.749)" fill="#d2dceb"/>
      <path id="Path_21567" data-name="Path 21567" d="M87.924,220.419H60.946a1.256,1.256,0,0,1-1.255-1.255v-5.547a1.256,1.256,0,0,1,1.255-1.255H87.924a1.255,1.255,0,0,1,1.255,1.255v5.547a1.255,1.255,0,0,1-1.255,1.255" transform="translate(435.081 387.974)" fill="#fff"/>
      <rect id="Rectangle_77890" data-name="Rectangle 77890" width="781.709" height="660.817" transform="translate(401.135 267.205)" fill="none"/>
    </g>
  </g>
</svg>
