<svg xmlns="http://www.w3.org/2000/svg" width="23.931" height="20.908" viewBox="0 0 23.931 20.908">
  <defs>
    <style>
      .cls-1 {
        opacity: 0.5;
      }

      .cls-2 {
        fill: #3a4354;
      }
    </style>
  </defs>
  <g id="Group_62" data-name="Group 62" class="cls-1" transform="translate(-644.736 -4467.281)">
    <path id="Path_93" data-name="Path 93" class="cls-2" d="M659.346,4468.878l.967-.963c.109-.108.216-.217.326-.324a1.015,1.015,0,0,1,1.467.007c.5.494.986.994,1.478,1.492.181.182.361.365.542.548a.545.545,0,0,1,.132.762.947.947,0,0,0,.14,1.084.957.957,0,0,0,1.155.209.532.532,0,0,1,.747.121q1,1,2.012,2a1.014,1.014,0,0,1,.018,1.525c-.533.541-1.074,1.076-1.611,1.614l-7.3,7.313q-1.53,1.533-3.061,3.064a1.01,1.01,0,0,1-1.535-.007c-.249-.253-.5-.5-.748-.753-.347.342-.685.674-1.022,1.008-.093.092-.182.188-.274.282a1,1,0,0,1-1.465.019c-.69-.685-1.373-1.379-2.057-2.071a.54.54,0,0,1-.116-.738.947.947,0,0,0-.778-1.4,1.183,1.183,0,0,0-.52.109.547.547,0,0,1-.725-.117q-1.037-1.029-2.069-2.06a1.008,1.008,0,0,1,.018-1.479q1.28-1.282,2.562-2.564l7.774-7.791q.828-.829,1.658-1.659a1.018,1.018,0,0,1,1.5.014C658.814,4468.38,659.076,4468.62,659.346,4468.878Zm-1.494-.057c-.646.641-2.608,2.537-2.775,2.705q-4.587,4.62-9.193,9.222c-.041.041-.079.085-.142.154a1.137,1.137,0,0,1,.134.1q.863.853,1.72,1.713a.263.263,0,0,0,.288.075,1.9,1.9,0,0,1,1.373.126,1.8,1.8,0,0,1,.869,2.145.233.233,0,0,0,.073.257c.578.574,1.152,1.152,1.728,1.728.037.037.078.069.118.1.844-.782,1.589-1.637,2.406-2.42s1.606-1.594,2.407-2.394l2.414-2.41q1.2-1.2,2.4-2.4c.8-.8,1.6-1.607,2.4-2.414-.05-.054-.079-.087-.109-.117-.568-.569-1.139-1.135-1.7-1.709a.3.3,0,0,0-.326-.1,1.789,1.789,0,0,1-1.846-.508,1.82,1.82,0,0,1-.385-1.734.278.278,0,0,0-.087-.315c-.211-.18-.415-.367-.621-.552-.044-.04-.082-.087-.123-.131Zm9.788,5.763c-.047-.05-.084-.09-.122-.128-.547-.543-1.1-1.081-1.637-1.633a.4.4,0,0,0-.439-.131,1.765,1.765,0,0,1-1.954-.735,1.858,1.858,0,0,1-.21-1.544.22.22,0,0,0-.053-.249c-.382-.376-.756-.759-1.133-1.14l-.681-.688-1.35,1.289c.2.2.386.391.568.586a.514.514,0,0,1,.087.66,1.065,1.065,0,0,0-.1.273.96.96,0,0,0,1.37,1.06.536.536,0,0,1,.761.124c.188.183.373.369.559.554.5.5,1,.991,1.5,1.494a1,1,0,0,1,0,1.442c-.129.134-.26.266-.39.4s-6.748,6.792-9.6,9.636l.793.745Q661.591,4480.619,667.64,4474.584Z"/>
    <rect id="Rectangle_51" data-name="Rectangle 51" class="cls-2" width="1.858" height="0.913" rx="0.456" transform="translate(655.822 4471.735) rotate(45)"/>
    <rect id="Rectangle_52" data-name="Rectangle 52" class="cls-2" width="1.858" height="0.913" rx="0.456" transform="translate(657.777 4473.691) rotate(45)"/>
    <rect id="Rectangle_53" data-name="Rectangle 53" class="cls-2" width="1.858" height="0.913" rx="0.456" transform="translate(659.77 4475.684) rotate(45)"/>
  </g>
</svg>
