<svg xmlns="http://www.w3.org/2000/svg" width="40.526" height="33.343" viewBox="0 0 40.526 33.343">
    <defs>
        <style>
            .cls-1{fill:#1582c8}
        </style>
    </defs>
    <g id="Group_4248" transform="translate(-4544.237 -4537.541)">
        <path id="Path_5168" d="M4552.63 4561.785a1.024 1.024 0 0 0-.7.365l-1.793 2.142-.515-.436a1.029 1.029 0 0 0-.752-.241 1.033 1.033 0 0 0-.943 1.113 1.028 1.028 0 0 0 .362.7l1.306 1.106a1.03 1.03 0 0 0 .667.245.856.856 0 0 0 .087 0 1.031 1.031 0 0 0 .7-.365l2.461-2.937a1.034 1.034 0 0 0-.129-1.453 1.053 1.053 0 0 0-.751-.239z" class="cls-1"/>
        <path id="Path_5169" d="M4582.857 4549.907h-1.111c-.841-.039-1.565-.806-2.4-1.694a12.1 12.1 0 0 0-1.9-1.738v-6.549a2.387 2.387 0 0 0-2.385-2.385h-25.5a2.388 2.388 0 0 0-2.385 2.385v18.868a6.6 6.6 0 0 0 3.662 12.09 6.646 6.646 0 0 0 5.577-3.074h18.645a2.387 2.387 0 0 0 2.384-2.386v-3.092c.138-.1.271-.2.4-.3a3.241 3.241 0 0 1 2.083-.94h2.929a1.907 1.907 0 0 0 1.906-1.9v-7.375a1.908 1.908 0 0 0-1.905-1.91zm-27.481 14.374a4.538 4.538 0 1 1-4.538-4.537 4.544 4.544 0 0 1 4.538 4.537zm24.551-5.254a5.111 5.111 0 0 0-3.342 1.368 2.975 2.975 0 0 1-1.872.876h-9.685a.5.5 0 0 1 0-.993h2.6a1.031 1.031 0 1 0 0-2.063h-4.658a.5.5 0 0 1 0-.995h4.658a1.032 1.032 0 0 0 0-2.064h-7.051a.5.5 0 0 1 0-.993h7.051a1.031 1.031 0 1 0 0-2.063h-4.658a.5.5 0 0 1 0-1h11.553a1.032 1.032 0 0 0 0-2.064h-2.829a1.449 1.449 0 0 1-1.364-.933 1.026 1.026 0 0 1-.088-.417.787.787 0 0 1 .178-.022h4.386c1.213.025 2.1.964 3.042 1.962 1.056 1.118 2.148 2.274 3.874 2.339h.983v7.057zm-29.089-1.347a6.585 6.585 0 0 0-1.6.2v-17.951a.329.329 0 0 1 .321-.321h8.4v6.667a1.031 1.031 0 0 0 .532.9 1.05 1.05 0 0 0 1.047-.027l2.771-1.732 2.769 1.731a1.032 1.032 0 0 0 1.579-.874v-6.673h8.4a.328.328 0 0 1 .32.321v5.723a4.714 4.714 0 0 0-.567-.043h-4.42a2.152 2.152 0 0 0-1.87.907 2.488 2.488 0 0 0-.124 2.335c.024.065.051.13.081.193h-5.515a2.564 2.564 0 0 0-2.56 2.56 2.527 2.527 0 0 0 .05.5 2.56 2.56 0 0 0 0 5.115 2.515 2.515 0 0 0-.05.5 2.564 2.564 0 0 1 2.063 3.059 2.562 2.562 0 0 0 2.56 2.559h9.685a4.168 4.168 0 0 0 .667-.053v2.142a.33.33 0 0 1-.321.324h-17.786a6.6 6.6 0 0 0-6.435-8.067zm13.757-13.271l-1.737-1.086a1.035 1.035 0 0 0-1.093 0l-1.74 1.087v-4.81h4.57z" class="cls-1"/>
    </g>
</svg>
