<svg xmlns="http://www.w3.org/2000/svg" xmlns:xlink="http://www.w3.org/1999/xlink" width="1418.817" height="799.278" viewBox="0 0 1418.817 799.278">
  <defs>
    <linearGradient id="linear-gradient" x1="0.5" x2="0.5" y2="1" gradientUnits="objectBoundingBox">
      <stop offset="0" stop-color="#f5fbff"/>
      <stop offset="1" stop-color="#fff"/>
    </linearGradient>
    <clipPath id="clip-path">
      <path id="Path_21511" data-name="Path 21511" d="M0,0H513.837V499.343H0Z" fill="none"/>
    </clipPath>
    <clipPath id="clip-path-2">
      <rect id="Rectangle_77842" data-name="Rectangle 77842" width="52.867" height="56.023" fill="#006c49"/>
    </clipPath>
    <clipPath id="clip-path-3">
      <rect id="Rectangle_77843" data-name="Rectangle 77843" width="5.839" height="5.838" fill="#fff"/>
    </clipPath>
    <clipPath id="clip-path-4">
      <rect id="Rectangle_77844" data-name="Rectangle 77844" width="5.838" height="5.838" fill="#fff"/>
    </clipPath>
    <clipPath id="clip-path-5">
      <rect id="Rectangle_77845" data-name="Rectangle 77845" width="9.556" height="9.554" fill="#fff"/>
    </clipPath>
    <clipPath id="clip-path-6">
      <rect id="Rectangle_77846" data-name="Rectangle 77846" width="12.773" height="12.773" fill="#fff"/>
    </clipPath>
    <clipPath id="clip-path-7">
      <rect id="Rectangle_77848" data-name="Rectangle 77848" width="46.432" height="50.939" fill="#36b2e8"/>
    </clipPath>
    <clipPath id="clip-path-8">
      <rect id="Rectangle_77849" data-name="Rectangle 77849" width="106.927" height="145.48" fill="none"/>
    </clipPath>
    <clipPath id="clip-path-9">
      <rect id="Rectangle_77852" data-name="Rectangle 77852" width="50.461" height="104.952" fill="#006b4a"/>
    </clipPath>
    <clipPath id="clip-path-10">
      <rect id="Rectangle_77853" data-name="Rectangle 77853" width="14.265" height="13.087" fill="none"/>
    </clipPath>
    <clipPath id="clip-path-11">
      <rect id="Rectangle_77854" data-name="Rectangle 77854" width="3.096" height="8.046" fill="none"/>
    </clipPath>
    <clipPath id="clip-path-12">
      <rect id="Rectangle_77855" data-name="Rectangle 77855" width="49.798" height="28.669" fill="#00708c"/>
    </clipPath>
    <clipPath id="clip-path-13">
      <rect id="Rectangle_77856" data-name="Rectangle 77856" width="13.05" height="12.706" fill="#00ad9d"/>
    </clipPath>
    <clipPath id="clip-path-14">
      <rect id="Rectangle_77857" data-name="Rectangle 77857" width="48.473" height="60.103" fill="#006e6f"/>
    </clipPath>
    <clipPath id="clip-path-15">
      <rect id="Rectangle_77858" data-name="Rectangle 77858" width="10.247" height="11.27" fill="none"/>
    </clipPath>
    <clipPath id="clip-path-16">
      <rect id="Rectangle_77859" data-name="Rectangle 77859" width="29.198" height="30.613" fill="#006e6f"/>
    </clipPath>
    <clipPath id="clip-path-17">
      <rect id="Rectangle_77860" data-name="Rectangle 77860" width="85.986" height="76.582" fill="#006b4a"/>
    </clipPath>
    <clipPath id="clip-path-18">
      <rect id="Rectangle_77861" data-name="Rectangle 77861" width="5.791" height="16.887" fill="none"/>
    </clipPath>
    <clipPath id="clip-path-19">
      <rect id="Rectangle_77862" data-name="Rectangle 77862" width="5.335" height="5.889" fill="none"/>
    </clipPath>
    <clipPath id="clip-path-20">
      <rect id="Rectangle_77863" data-name="Rectangle 77863" width="33.953" height="16.462" fill="none"/>
    </clipPath>
    <clipPath id="clip-path-21">
      <rect id="Rectangle_77864" data-name="Rectangle 77864" width="48.504" height="44.056" fill="#006e6f"/>
    </clipPath>
    <clipPath id="clip-path-22">
      <rect id="Rectangle_77865" data-name="Rectangle 77865" width="12.37" height="12.851" fill="#00b985"/>
    </clipPath>
    <clipPath id="clip-path-23">
      <rect id="Rectangle_77866" data-name="Rectangle 77866" width="20.308" height="26.517" fill="none"/>
    </clipPath>
    <clipPath id="clip-path-24">
      <rect id="Rectangle_77867" data-name="Rectangle 77867" width="7.521" height="7.52" fill="none"/>
    </clipPath>
    <clipPath id="clip-path-25">
      <rect id="Rectangle_77868" data-name="Rectangle 77868" width="2.465" height="2.465" fill="none"/>
    </clipPath>
    <clipPath id="clip-path-27">
      <rect id="Rectangle_77870" data-name="Rectangle 77870" width="14.293" height="7.977" fill="none"/>
    </clipPath>
    <clipPath id="clip-path-28">
      <rect id="Rectangle_77871" data-name="Rectangle 77871" width="101.17" height="98.954" fill="none"/>
    </clipPath>
    <clipPath id="clip-path-29">
      <rect id="Rectangle_77873" data-name="Rectangle 77873" width="77.898" height="77.899" fill="#8adbfd"/>
    </clipPath>
  </defs>
  <g id="Group_29875" data-name="Group 29875" transform="translate(-501.183 -131.396)">
    <path id="Path_21512" data-name="Path 21512" d="M681.259,170.908c-101.826,62.585-99.233-58.03-232.744-134.272C344.267-22.9,373.358,241.664,339.417,326.518s-63.034,12.123-181.829-29.092-121.222,109.1-121.222,109.1L0,745.941s647.316,53.337,698.229,53.337,715.2-65.459,715.2-65.459,5.359-144.714,5.387-260.219v-1.81c-.014-57.45-1.368-107.4-5.387-128.3-12.123-63.034-55.762-181.831-143.04-232.742s-140.616,58.185-213.349,60.609-9.8-67.752-111.522-147.768C924.476,7.036,903.435,0,882.754,0c-79.384,0-153.411,103.709-201.5,170.908" transform="translate(501.183 131.396)" fill="url(#linear-gradient)"/>
    <g id="Group_29818" data-name="Group 29818" transform="translate(10.444)">
      <path id="Path_21432" data-name="Path 21432" d="M394.147,100.607l2.357,4.775,5.271.767-3.814,3.717.9,5.249-4.714-2.478-4.714,2.478.9-5.249-3.814-3.717,5.271-.767Z" transform="translate(594.989 296.701)" fill="#ececec"/>
      <path id="Path_21433" data-name="Path 21433" d="M715.44,259.619l-5.269.767,3.813,3.717-.9,5.249,4.712-2.478,4.714,2.478-.9-5.249,3.813-3.717-5.271-.767-2.357-4.775Z" transform="translate(743.081 367.273)" fill="#f5f5f5"/>
      <path id="Path_21434" data-name="Path 21434" d="M651.336,354.7l-5.271.767,3.813,3.717-.9,5.249,4.712-2.478,4.715,2.478-.9-5.249,3.813-3.717-5.269-.767-2.358-4.775Z" transform="translate(713.748 410.781)" fill="#f5f5f5"/>
      <path id="Path_21435" data-name="Path 21435" d="M506.027,42.618l.875,1.772,1.956.284a.6.6,0,0,1,.331,1.016l-1.415,1.38.334,1.947a.6.6,0,0,1-.864.628l-1.749-.92-1.751.92a.6.6,0,0,1-.863-.628l.334-1.947-1.415-1.38a.6.6,0,0,1,.329-1.016l1.956-.284.876-1.772a.594.594,0,0,1,1.067,0" transform="translate(647.654 270.016)" fill="#ececec"/>
      <path id="Path_21436" data-name="Path 21436" d="M340.859,334.472l.875,1.772,1.956.284a.6.6,0,0,1,.331,1.016l-1.415,1.38.334,1.947a.6.6,0,0,1-.864.628l-1.749-.92-1.751.92a.6.6,0,0,1-.863-.628l.334-1.947-1.415-1.38a.6.6,0,0,1,.329-1.016l1.956-.284.876-1.772a.6.6,0,0,1,1.067,0" transform="translate(572.079 403.559)" fill="#f5f5f5"/>
      <path id="Path_21437" data-name="Path 21437" d="M367.838,29.765l.875,1.772,1.956.284A.6.6,0,0,1,371,32.838l-1.415,1.38.334,1.947a.6.6,0,0,1-.864.628l-1.749-.92-1.751.92a.6.6,0,0,1-.863-.628l.334-1.947-1.415-1.38a.6.6,0,0,1,.329-1.016l1.956-.284.876-1.772a.6.6,0,0,1,1.067,0" transform="translate(584.423 264.135)" fill="#ececec"/>
      <path id="Path_21438" data-name="Path 21438" d="M366.044,271.286a1.935,1.935,0,1,1-1.934-1.933,1.935,1.935,0,0,1,1.934,1.933" transform="translate(583.849 373.912)" fill="#ececec"/>
      <path id="Path_21439" data-name="Path 21439" d="M555.585,104.862a1.935,1.935,0,1,1-1.934-1.934,1.934,1.934,0,0,1,1.934,1.934" transform="translate(670.577 297.762)" fill="#ececec"/>
      <path id="Path_21440" data-name="Path 21440" d="M486.62,31.368a1.934,1.934,0,1,1-1.934-1.934,1.934,1.934,0,0,1,1.934,1.934" transform="translate(639.021 264.135)" fill="#f5f5f5"/>
      <path id="Path_21441" data-name="Path 21441" d="M499.913,351.1a10.709,10.709,0,1,0-10.71,10.709,10.711,10.711,0,0,0,10.71-10.709" transform="translate(637.073 406.416)" fill="#f0f0f0"/>
      <path id="Path_21442" data-name="Path 21442" d="M485.492,343.45a10.333,10.333,0,0,0-6.107,1.982,10.7,10.7,0,0,0,15.3,13.453c-.015-.015-.015-.015,0-.015a10.457,10.457,0,0,0-9.2-15.421" transform="translate(637.074 407.816)" fill="#e7e7e7"/>
      <path id="Path_21443" data-name="Path 21443" d="M454.224,265.676h-88.7V225.629l88.7-105.436h42.437V227.9h22v37.776h-22V298.43H454.224Zm0-37.776V172.748L407.356,227.9Z" transform="translate(585.382 305.662)" fill="#1aa3de"/>
      <path id="Path_21444" data-name="Path 21444" d="M481,210.088q0-49.967,17.991-69.931t54.81-19.964q17.69,0,29.048,4.364a53.756,53.756,0,0,1,18.529,11.356,60.452,60.452,0,0,1,11.3,14.7,76.542,76.542,0,0,1,6.636,17.992,168.009,168.009,0,0,1,4.9,40.883q0,47.7-16.138,69.812t-55.586,22.114q-22.117,0-35.744-7.053a57.846,57.846,0,0,1-22.353-20.68q-6.34-9.683-9.863-26.478A180.958,180.958,0,0,1,481,210.088m48.295.12q0,33.473,5.916,45.725t17.154,12.252a17.964,17.964,0,0,0,12.85-5.2q5.44-5.2,8.012-16.436t2.568-35.027q0-34.9-5.916-46.919t-17.753-12.015q-12.073,0-17.453,12.254t-5.378,45.365" transform="translate(638.22 305.662)" fill="#1aa3de"/>
      <path id="Path_21445" data-name="Path 21445" d="M678.287,265.676h-88.7V225.629l88.7-105.436h42.437V227.9h22v37.776h-22V298.43H678.287Zm0-37.776V172.748L631.418,227.9Z" transform="translate(687.906 305.662)" fill="#1aa3de"/>
      <g id="Group_29710" data-name="Group 29710" transform="translate(928.776 250.666)" opacity="0.3">
        <g id="Group_29709" data-name="Group 29709">
          <g id="Mask_Group_212" data-name="Mask Group 212" clip-path="url(#clip-path)">
            <path id="Path_21446" data-name="Path 21446" d="M481.358,78.832a2.718,2.718,0,1,1-2.72-2.718,2.72,2.72,0,0,1,2.72,2.718" transform="translate(-292.88 34.827)" fill="#00b985"/>
            <path id="Path_21447" data-name="Path 21447" d="M354.2,149.094a1.928,1.928,0,1,1-1.928-1.928,1.928,1.928,0,0,1,1.928,1.928" transform="translate(-350.341 67.338)" fill="#00b985"/>
            <path id="Path_21448" data-name="Path 21448" d="M573.379,341.56a2.76,2.76,0,1,1-2.759-2.759,2.759,2.759,0,0,1,2.759,2.759" transform="translate(-250.812 155.024)" fill="#007cff"/>
            <path id="Path_21449" data-name="Path 21449" d="M617.731,264.965a1.928,1.928,0,1,1-1.928-1.928,1.928,1.928,0,0,1,1.928,1.928" transform="translate(-229.757 120.357)" fill="#007cff"/>
            <path id="Path_21450" data-name="Path 21450" d="M704.083,28.584a1.928,1.928,0,1,1-1.928-1.928,1.928,1.928,0,0,1,1.928,1.928" transform="translate(-190.245 12.197)" fill="#006b4a"/>
            <path id="Path_21451" data-name="Path 21451" d="M452.664,1.928A1.928,1.928,0,1,1,450.735,0a1.928,1.928,0,0,1,1.928,1.928" transform="translate(-305.286)" fill="#00b985"/>
            <path id="Path_21452" data-name="Path 21452" d="M558.928,69.908A1.928,1.928,0,1,1,557,67.98a1.928,1.928,0,0,1,1.928,1.928" transform="translate(-256.663 31.105)" fill="#00b985"/>
          </g>
        </g>
      </g>
      <path id="Path_21453" data-name="Path 21453" d="M461.893,58.746a31.935,31.935,0,1,1-31.935-31.935,31.935,31.935,0,0,1,31.935,31.935" transform="translate(600.252 262.934)" fill="#1aa3de"/>
      <g id="Group_29716" data-name="Group 29716" transform="translate(998.278 297.586)" opacity="0.2">
        <g id="Group_29715" data-name="Group 29715">
          <g id="Group_29714" data-name="Group 29714" clip-path="url(#clip-path-2)">
            <path id="Path_21455" data-name="Path 21455" d="M418.95,32.19a31.941,31.941,0,0,0-12.595,2.58,31.95,31.95,0,0,0,36.251,50.849V85.6A31.949,31.949,0,0,0,418.95,32.19" transform="translate(-398.025 -32.19)" fill="#006c49"/>
          </g>
        </g>
      </g>
      <g id="Group_29719" data-name="Group 29719" transform="translate(1010.189 303.111)" opacity="0.2">
        <g id="Group_29718" data-name="Group 29718">
          <g id="Group_29717" data-name="Group 29717" clip-path="url(#clip-path-3)">
            <path id="Path_21456" data-name="Path 21456" d="M412.036,38.9a2.919,2.919,0,1,1-2.919-2.92,2.92,2.92,0,0,1,2.919,2.92" transform="translate(-406.197 -35.981)" fill="#fff"/>
          </g>
        </g>
      </g>
      <g id="Group_29722" data-name="Group 29722" transform="translate(1044.53 300.191)" opacity="0.2">
        <g id="Group_29721" data-name="Group 29721">
          <g id="Group_29720" data-name="Group 29720" clip-path="url(#clip-path-4)">
            <path id="Path_21457" data-name="Path 21457" d="M435.595,36.9a2.919,2.919,0,1,1-2.919-2.92,2.92,2.92,0,0,1,2.919,2.92" transform="translate(-429.757 -33.978)" fill="#fff"/>
          </g>
        </g>
      </g>
      <g id="Group_29725" data-name="Group 29725" transform="translate(1034.974 319.148)" opacity="0.2">
        <g id="Group_29724" data-name="Group 29724">
          <g id="Group_29723" data-name="Group 29723" clip-path="url(#clip-path-5)">
            <path id="Path_21458" data-name="Path 21458" d="M432.756,51.761a4.777,4.777,0,1,1-4.778-4.778,4.778,4.778,0,0,1,4.778,4.778" transform="translate(-423.201 -46.984)" fill="#fff"/>
          </g>
        </g>
      </g>
      <g id="Group_29728" data-name="Group 29728" transform="translate(1016.575 331.16)" opacity="0.2">
        <g id="Group_29727" data-name="Group 29727">
          <g id="Group_29726" data-name="Group 29726" clip-path="url(#clip-path-6)">
            <path id="Path_21459" data-name="Path 21459" d="M423.35,61.612a6.386,6.386,0,1,1-6.386-6.386,6.386,6.386,0,0,1,6.386,6.386" transform="translate(-410.578 -55.225)" fill="#fff"/>
          </g>
        </g>
      </g>
      <path id="Path_21460" data-name="Path 21460" d="M697.716,317.406a28.022,28.022,0,1,1-28.023-28.023,28.024,28.024,0,0,1,28.023,28.023" transform="translate(711.738 383.078)" fill="#00a4dc"/>
      <g id="Group_29734" data-name="Group 29734" transform="translate(1363.02 677.568)">
        <g id="Group_29733" data-name="Group 29733">
          <g id="Group_29732" data-name="Group 29732" clip-path="url(#clip-path-7)">
            <path id="Path_21462" data-name="Path 21462" d="M684.365,294.071A28.026,28.026,0,0,0,658.6,342.644a28.026,28.026,0,0,0,25.765-48.573" transform="translate(-648.265 -292.888)" fill="#36b2e8"/>
          </g>
        </g>
      </g>
      <path id="Path_21463" data-name="Path 21463" d="M646.843,319.8c-29.93,14.083-7.6,24.938,34.562,9.785,39.039-14.032,53.882-31.731,19.023-26.246,1.8,7.447-47.1,26.5-53.584,16.462" transform="translate(707.816 388.994)" fill="#1aa3de"/>
      <g id="Group_29737" data-name="Group 29737" transform="translate(1291.848 425.852)" opacity="0.2">
        <g id="Group_29736" data-name="Group 29736">
          <g id="Group_29735" data-name="Group 29735" clip-path="url(#clip-path-8)">
            <path id="Path_21464" data-name="Path 21464" d="M706.363,120.19c-39.194,26.484-89.932,61.407-103.939,145.48h-2.988c13.628-83.052,62.515-118.894,101.724-145.48Z" transform="translate(-599.436 -120.19)"/>
          </g>
        </g>
      </g>
      <path id="Path_21465" data-name="Path 21465" d="M555.3,414.4c-24.735,0-49.279-11.168-61.2-29.422-7.365-11.282-15.917-34.91,9.554-66.434l2.268,1.834c-18.018,22.3-21.35,44.676-9.381,63.006,14.567,22.312,48.967,33.533,78.315,25.548,30.067-8.181,48.321-34.336,50.083-71.753,6.026-127.985,74.021-167.409,123.669-196.2,30.845-17.884,53.131-30.807,48.232-58.067-.679-3.782-2.186-6.394-4.61-7.989-6.345-4.18-18.734-1.291-33.078,2.052-28.14,6.555-66.678,15.533-89.636-23.516l2.513-1.478c21.872,37.2,57.686,28.86,86.461,22.155,15-3.494,27.952-6.511,35.343-1.649,3.126,2.058,5.048,5.3,5.877,9.91,5.26,29.271-18.967,43.317-49.64,61.1C701,171.952,633.8,210.916,627.849,337.312c-1.825,38.765-20.862,65.894-52.229,74.431A77.608,77.608,0,0,1,555.3,414.4" transform="translate(640.764 274.451)" fill="#1aa3de"/>
      <path id="Path_21467" data-name="Path 21467" d="M591.456,29.311a67.26,67.26,0,0,1,19.8,3.11s15.982,27.359,17.931,33.622c-.671,6.18-11.1,16.312-11.1,16.312Z" transform="translate(688.761 264.074)" fill="#006b4a"/>
      <path id="Path_21469" data-name="Path 21469" d="M639.547,147.134A206.867,206.867,0,0,1,622.7,123.252q-1.839-3.164-3.482-6.435-.936-1.856-1.813-3.742c-.512-1.1-1.643-2.715-1.755-3.912-1.751-18.472,4.572-32.068-1.5-46.893l-24.008,9.382s2.041,26.414,6.7,42.216c2.892,9.8,9.438,18.291,15.747,26.146,1.974,2.456,3.874,4.97,5.845,7.431,1.864,2.329,3.951,4.466,5.822,6.784,2.838,3.516,3.781,6.874,1.625,11.021-.117.223-.236.442-.36.66-.612,1.08,2.253,2.3,4.053.029,2.976-3.761,2.508-3.53,5.046-6.737,1.541-1.947,3.31-4.052,4.838-5.878a4.908,4.908,0,0,0,.086-6.189" transform="translate(688.16 279.158)" fill="#007cff"/>
      <g id="Group_29746" data-name="Group 29746" transform="translate(1278.303 341.428)" opacity="0.7">
        <g id="Group_29745" data-name="Group 29745">
          <g id="Group_29744" data-name="Group 29744" clip-path="url(#clip-path-9)">
            <path id="Path_21470" data-name="Path 21470" d="M639.547,147.134A206.867,206.867,0,0,1,622.7,123.252q-1.839-3.164-3.482-6.435-.936-1.856-1.813-3.742c-.512-1.1-1.643-2.715-1.755-3.912-1.751-18.472,4.572-32.068-1.5-46.893l-24.008,9.382s2.041,26.414,6.7,42.216c2.892,9.8,9.438,18.291,15.747,26.146,1.974,2.456,3.874,4.97,5.845,7.431,1.864,2.329,3.951,4.466,5.822,6.784,2.838,3.516,3.781,6.874,1.625,11.021-.117.223-.236.442-.36.66-.612,1.08,2.253,2.3,4.053.029,2.976-3.761,2.508-3.53,5.046-6.737,1.541-1.947,3.31-4.052,4.838-5.878a4.908,4.908,0,0,0,.086-6.189" transform="translate(-590.143 -62.27)" fill="#006b4a"/>
          </g>
        </g>
      </g>
      <g id="Group_29749" data-name="Group 29749" transform="translate(1309.208 418.693)" opacity="0.3">
        <g id="Group_29748" data-name="Group 29748">
          <g id="Group_29747" data-name="Group 29747" clip-path="url(#clip-path-10)">
            <path id="Path_21471" data-name="Path 21471" d="M623.974,115.279c-3.214,3.884-9.748,8.923-12.628,10.965.625.7,1.248,1.411,1.87,2.124A64.06,64.06,0,0,0,625.61,117.43c-.547-.707-1.092-1.43-1.635-2.151" transform="translate(-611.346 -115.279)" fill="#007cff"/>
          </g>
        </g>
      </g>
      <g id="Group_29752" data-name="Group 29752" transform="translate(1325.667 426.084)" opacity="0.3">
        <g id="Group_29751" data-name="Group 29751">
          <g id="Group_29750" data-name="Group 29750" clip-path="url(#clip-path-11)">
            <path id="Path_21472" data-name="Path 21472" d="M624.673,120.561c-.055-.076-.114-.137-.169-.211a7.434,7.434,0,0,0-1.844,4.619,7.074,7.074,0,0,0,.55,3.427c.485-.563.939-1.119,1.385-1.647a4.9,4.9,0,0,0,.079-6.187" transform="translate(-622.638 -120.35)" fill="#007cff"/>
          </g>
        </g>
      </g>
      <path id="Path_21473" data-name="Path 21473" d="M602.774,44.9a52.2,52.2,0,0,1-9.292,10.486,34.767,34.767,0,0,1-6.438,4.344,27.829,27.829,0,0,1-3.765,1.58l-.984.316-.318.1q-.346.1-.7.189a9.431,9.431,0,0,1-1.273.2,10.89,10.89,0,0,1-3.664-.34,17.644,17.644,0,0,1-4.281-1.842,33.668,33.668,0,0,1-3.14-2.061,57.635,57.635,0,0,1-5.215-4.443,77.622,77.622,0,0,1-8.731-9.818,3.659,3.659,0,0,1,4.886-5.284l.111.071c3.44,2.185,6.91,4.486,10.3,6.547,1.711,1.01,3.382,2.023,5.023,2.813a23.009,23.009,0,0,0,2.313,1.044,4.675,4.675,0,0,0,1.57.389c.076,0-.015-.106-.551-.089a3.258,3.258,0,0,0-.5.066,2.6,2.6,0,0,0-.318.082c-.1.034.042-.028.051-.036l.481-.246a19.291,19.291,0,0,0,1.88-1.15,27.736,27.736,0,0,0,3.647-3.09,95.928,95.928,0,0,0,7.145-8.433l.034-.042A7.29,7.29,0,0,1,602.774,44.9" transform="translate(671.737 265.982)" fill="#007cff"/>
      <g id="Group_29755" data-name="Group 29755" transform="translate(1225.988 299.457)" opacity="0.7">
        <g id="Group_29754" data-name="Group 29754">
          <g id="Group_29753" data-name="Group 29753" clip-path="url(#clip-path-12)">
            <path id="Path_21474" data-name="Path 21474" d="M602.774,44.9a52.2,52.2,0,0,1-9.292,10.486,34.767,34.767,0,0,1-6.438,4.344,27.829,27.829,0,0,1-3.765,1.58l-.984.316-.318.1q-.346.1-.7.189a9.431,9.431,0,0,1-1.273.2,10.89,10.89,0,0,1-3.664-.34,17.644,17.644,0,0,1-4.281-1.842,33.668,33.668,0,0,1-3.14-2.061,57.635,57.635,0,0,1-5.215-4.443,77.622,77.622,0,0,1-8.731-9.818,3.659,3.659,0,0,1,4.886-5.284l.111.071c3.44,2.185,6.91,4.486,10.3,6.547,1.711,1.01,3.382,2.023,5.023,2.813a23.009,23.009,0,0,0,2.313,1.044,4.675,4.675,0,0,0,1.57.389c.076,0-.015-.106-.551-.089a3.258,3.258,0,0,0-.5.066,2.6,2.6,0,0,0-.318.082c-.1.034.042-.028.051-.036l.481-.246a19.291,19.291,0,0,0,1.88-1.15,27.736,27.736,0,0,0,3.647-3.09,95.928,95.928,0,0,0,7.145-8.433l.034-.042A7.29,7.29,0,0,1,602.774,44.9" transform="translate(-554.251 -33.474)" fill="#00708c"/>
          </g>
        </g>
      </g>
      <path id="Path_21475" data-name="Path 21475" d="M551.094,36.446l1.708,2.866s1.3,3.813,3.915,4.518l7.075-2.293-.354-.593h.01c-.907-1.38-.809-4.042-.49-6.256s-.831-2.293-1.679-1.742a5.566,5.566,0,0,0-1.234,2.417A11.193,11.193,0,0,0,558.9,34l-2.162-2.153a2.49,2.49,0,0,0-3.411-.1l-1.752,1.557a2.49,2.49,0,0,0-.484,3.135" transform="translate(670.132 264.908)" fill="#007cff"/>
      <g id="Group_29758" data-name="Group 29758" transform="translate(1220.875 296.033)" opacity="0.7">
        <g id="Group_29757" data-name="Group 29757">
          <g id="Group_29756" data-name="Group 29756" clip-path="url(#clip-path-13)">
            <path id="Path_21476" data-name="Path 21476" d="M551.094,36.446l1.708,2.866s1.3,3.813,3.915,4.518l7.075-2.293-.354-.593h.01c-.907-1.38-.809-4.042-.49-6.256s-.831-2.293-1.679-1.742a5.566,5.566,0,0,0-1.234,2.417A11.193,11.193,0,0,0,558.9,34l-2.162-2.153a2.49,2.49,0,0,0-3.411-.1l-1.752,1.557a2.49,2.49,0,0,0-.484,3.135" transform="translate(-550.743 -31.125)" fill="#00ad9d"/>
          </g>
        </g>
      </g>
      <path id="Path_21477" data-name="Path 21477" d="M604.32,27.637a86.425,86.425,0,0,0-22.372,9.428,6.28,6.28,0,0,0-2.816,6.594c2.8,13.759,9.2,32.19,16.111,43.915l32.23-13.331c.221-5.686-7.6-24.079-15.573-41.858-1.433-3.2-4.174-5.574-7.579-4.747" transform="translate(683.063 263.236)" fill="#007cff"/>
      <g id="Group_29761" data-name="Group 29761" transform="translate(1262.067 290.707)" opacity="0.8">
        <g id="Group_29760" data-name="Group 29760">
          <g id="Group_29759" data-name="Group 29759" clip-path="url(#clip-path-14)">
            <path id="Path_21478" data-name="Path 21478" d="M604.32,27.637a86.425,86.425,0,0,0-22.372,9.428,6.28,6.28,0,0,0-2.816,6.594c2.8,13.759,9.2,32.19,16.111,43.915l32.23-13.331c.221-5.686-7.6-24.079-15.573-41.858-1.433-3.2-4.174-5.574-7.579-4.747" transform="translate(-579.004 -27.471)" fill="#006e6f"/>
          </g>
        </g>
      </g>
      <g id="Group_29764" data-name="Group 29764" transform="translate(1293.555 304.746)" opacity="0.3">
        <g id="Group_29763" data-name="Group 29763">
          <g id="Group_29762" data-name="Group 29762" clip-path="url(#clip-path-15)">
            <path id="Path_21479" data-name="Path 21479" d="M607,39.247l-6.4-2.144c1.431,3.74,6.607,8.484,10.247,11.27-1.2-2.924-2.5-5.98-3.851-9.126" transform="translate(-600.607 -37.103)" fill="#007cff"/>
          </g>
        </g>
      </g>
      <path id="Path_21480" data-name="Path 21480" d="M603,19.918c-2.66-5.074-8.416-7.627-15.328-7.05-5.829.487-11,6.437-10.384,9.651s5.517,4.577,6.406,5.695l-4.042,2.93a4.375,4.375,0,0,0-.869,6.249c1.7,2.16,3.941,4.416,5.244,6.01,11.171-.29,19.432-4.552,22.409-8.652-1.07-5.217-.792-9.785-3.437-14.831" transform="translate(682.257 256.518)" fill="#007cff"/>
      <g id="Group_29767" data-name="Group 29767" transform="translate(1259.499 269.305)" opacity="0.8">
        <g id="Group_29766" data-name="Group 29766">
          <g id="Group_29765" data-name="Group 29765" clip-path="url(#clip-path-16)">
            <path id="Path_21481" data-name="Path 21481" d="M603,19.918c-2.66-5.074-8.416-7.627-15.328-7.05-5.829.487-11,6.437-10.384,9.651s5.517,4.577,6.406,5.695l-4.042,2.93a4.375,4.375,0,0,0-.869,6.249c1.7,2.16,3.941,4.416,5.244,6.01,11.171-.29,19.432-4.552,22.409-8.652-1.07-5.217-.792-9.785-3.437-14.831" transform="translate(-577.242 -12.788)" fill="#006e6f"/>
          </g>
        </g>
      </g>
      <path id="Path_21482" data-name="Path 21482" d="M597.852,22.041a11.038,11.038,0,1,1-14.3-6.263,11.038,11.038,0,0,1,14.3,6.263" transform="translate(681.932 257.537)" fill="#1a2e35"/>
      <path id="Path_21483" data-name="Path 21483" d="M683.079,133.017c-.162-4.794-.37-4.314-.509-8.4-.083-2.482-.095-5.231-.111-7.613a4.908,4.908,0,0,0-3.937-4.776c-1.931-.392-3.868-.765-5.8-1.175-2.516-.536-5-1.115-7.473-1.832q-2.875-.833-5.692-1.847c-2.01-.724-4-1.519-5.96-2.361-2.3-.985-4.565-2.035-6.819-3.116-2.514-1.207-5.01-2.453-7.5-3.717-9.594-15.88-9.8-26.346-20.094-38.618l-22.1,9.995s16.236,28.809,27.293,41.023c6.364,7.03,16.351,10.2,25.255,12.5,6.425,1.659,12.94,2.928,19.463,4.126,2.536.465,5.294.646,7.474,2.159a8.37,8.37,0,0,1,3.116,5.032c.1.4.191.813.268,1.223.232,1.22,3.211.3,3.112-2.6" transform="translate(691.342 277.918)" fill="#007cff"/>
      <g id="Group_29770" data-name="Group 29770" transform="translate(1288.438 337.477)" opacity="0.8">
        <g id="Group_29769" data-name="Group 29769">
          <g id="Group_29768" data-name="Group 29768" clip-path="url(#clip-path-17)">
            <path id="Path_21484" data-name="Path 21484" d="M683.079,133.017c-.162-4.794-.37-4.314-.509-8.4-.083-2.482-.095-5.231-.111-7.613a4.908,4.908,0,0,0-3.937-4.776c-1.931-.392-3.868-.765-5.8-1.175-2.516-.536-5-1.115-7.473-1.832q-2.875-.833-5.692-1.847c-2.01-.724-4-1.519-5.96-2.361-2.3-.985-4.565-2.035-6.819-3.116-2.514-1.207-5.01-2.453-7.5-3.717-9.594-15.88-9.8-26.346-20.094-38.618l-22.1,9.995s16.236,28.809,27.293,41.023c6.364,7.03,16.351,10.2,25.255,12.5,6.425,1.659,12.94,2.928,19.463,4.126,2.536.465,5.294.646,7.474,2.159a8.37,8.37,0,0,1,3.116,5.032c.1.4.191.813.268,1.223.232,1.22,3.211.3,3.112-2.6" transform="translate(-597.096 -59.559)" fill="#006b4a"/>
          </g>
        </g>
      </g>
      <g id="Group_29773" data-name="Group 29773" transform="translate(1357.424 388.191)" opacity="0.3">
        <g id="Group_29772" data-name="Group 29772">
          <g id="Group_29771" data-name="Group 29771" clip-path="url(#clip-path-18)">
            <path id="Path_21485" data-name="Path 21485" d="M650.217,94.948c-.87-.191-1.753-.386-2.632-.595.068,5.033-2.293,13.726-3.158,16.361l2.771.526a55.306,55.306,0,0,0,3.02-16.293" transform="translate(-644.426 -94.353)" fill="#007cff"/>
          </g>
        </g>
      </g>
      <g id="Group_29776" data-name="Group 29776" transform="translate(1368.479 389.867)" opacity="0.3">
        <g id="Group_29775" data-name="Group 29775">
          <g id="Group_29774" data-name="Group 29774" clip-path="url(#clip-path-19)">
            <path id="Path_21486" data-name="Path 21486" d="M657.329,100.556a4.908,4.908,0,0,0-3.927-4.782c-.458-.093-.93-.191-1.392-.271a6.643,6.643,0,0,0,2.373,4.223,7.434,7.434,0,0,0,2.96,1.666c-.012-.29-.013-.563-.015-.835" transform="translate(-652.01 -95.503)" fill="#007cff"/>
          </g>
        </g>
      </g>
      <path id="Path_21487" data-name="Path 21487" d="M593.061,21.65c.59,2.21-1.883,4.533-3.863,2.622-1.606-1.551-4.027-4.148-6-5.383-2.029-1.268.676-3.479,3.863-2.622,2.975.8,5.41,3.173,6,5.383" transform="translate(684.661 258.021)" fill="#fff"/>
      <path id="Path_21488" data-name="Path 21488" d="M589.957,72.722c-1.028.379.85,2.122.85,2.122s20.362-6.977,32.788-14.162a2.72,2.72,0,0,0-.988-2.3,316.959,316.959,0,0,1-32.649,14.34" transform="translate(687.934 277.379)" fill="#007cff"/>
      <g id="Group_29779" data-name="Group 29779" transform="translate(1277.583 335.762)" opacity="0.5">
        <g id="Group_29778" data-name="Group 29778">
          <g id="Group_29777" data-name="Group 29777" clip-path="url(#clip-path-20)">
            <path id="Path_21489" data-name="Path 21489" d="M589.957,72.722c-1.028.379.85,2.122.85,2.122s20.362-6.977,32.788-14.162a2.72,2.72,0,0,0-.988-2.3,316.959,316.959,0,0,1-32.649,14.34" transform="translate(-589.649 -58.382)" fill="#fff"/>
          </g>
        </g>
      </g>
      <path id="Path_21490" data-name="Path 21490" d="M603.479,27.167c4.02,2.03,7.8,4.18,11.583,6.561,1.882,1.185,3.755,2.4,5.6,3.714,1.86,1.287,3.695,2.645,5.537,4.172l.691.566.86.778a18.239,18.239,0,0,1,1.512,1.532c.472.512.861,1,1.245,1.5s.775.984,1.115,1.469a63.825,63.825,0,0,1,3.769,5.857,85.96,85.96,0,0,1,5.781,12.171,3.673,3.673,0,0,1-6.106,3.816l-.071-.079c-2.928-3.1-5.737-6.372-8.563-9.413-2.765-3.03-5.7-6.141-8.071-7.493-3.309-2.064-6.993-4.113-10.655-6.132l-11.022-6.117-.028-.016a7.289,7.289,0,0,1,6.823-12.879" transform="translate(689.423 262.74)" fill="#007cff"/>
      <g id="Group_29782" data-name="Group 29782" transform="translate(1282.327 289.129)" opacity="0.8">
        <g id="Group_29781" data-name="Group 29781">
          <g id="Group_29780" data-name="Group 29780" clip-path="url(#clip-path-21)">
            <path id="Path_21491" data-name="Path 21491" d="M603.479,27.167c4.02,2.03,7.8,4.18,11.583,6.561,1.882,1.185,3.755,2.4,5.6,3.714,1.86,1.287,3.695,2.645,5.537,4.172l.691.566.86.778a18.239,18.239,0,0,1,1.512,1.532c.472.512.861,1,1.245,1.5s.775.984,1.115,1.469a63.825,63.825,0,0,1,3.769,5.857,85.96,85.96,0,0,1,5.781,12.171,3.673,3.673,0,0,1-6.106,3.816l-.071-.079c-2.928-3.1-5.737-6.372-8.563-9.413-2.765-3.03-5.7-6.141-8.071-7.493-3.309-2.064-6.993-4.113-10.655-6.132l-11.022-6.117-.028-.016a7.289,7.289,0,0,1,6.823-12.879" transform="translate(-592.904 -26.389)" fill="#006e6f"/>
          </g>
        </g>
      </g>
      <path id="Path_21492" data-name="Path 21492" d="M632.259,60.664l-1.237-3.1s-.691-3.972-3.159-5.077l-7.348,1.156.256.641-.009,0c.679,1.5.165,4.119-.5,6.254s.461,2.395,1.385,1.984c.535-.236,1.035-1.179,1.6-2.194a11.053,11.053,0,0,0,.914,1.523l1.8,2.466a2.489,2.489,0,0,0,3.352.63l1.975-1.264a2.489,2.489,0,0,0,.969-3.02" transform="translate(701.853 274.684)" fill="#007cff"/>
      <g id="Group_29785" data-name="Group 29785" transform="translate(1321.921 327.174)" opacity="0.8">
        <g id="Group_29784" data-name="Group 29784">
          <g id="Group_29783" data-name="Group 29783" clip-path="url(#clip-path-22)">
            <path id="Path_21493" data-name="Path 21493" d="M632.259,60.664l-1.237-3.1s-.691-3.972-3.159-5.077l-7.348,1.156.256.641-.009,0c.679,1.5.165,4.119-.5,6.254s.461,2.395,1.385,1.984c.535-.236,1.035-1.179,1.6-2.194a11.053,11.053,0,0,0,.914,1.523l1.8,2.466a2.489,2.489,0,0,0,3.352.63l1.975-1.264a2.489,2.489,0,0,0,.969-3.02" transform="translate(-620.068 -52.49)" fill="#00b985"/>
          </g>
        </g>
      </g>
      <g id="Group_29788" data-name="Group 29788" transform="translate(1274.059 306.662)" opacity="0.3">
        <g id="Group_29787" data-name="Group 29787">
          <g id="Group_29786" data-name="Group 29786" clip-path="url(#clip-path-23)">
            <path id="Path_21494" data-name="Path 21494" d="M599.918,38.417l-1.777.144L587.231,64.92a5.749,5.749,0,0,0,1.777-.144s14.226-5.3,18.531-7.246c-2.9-6-7.622-19.113-7.622-19.113" transform="translate(-587.231 -38.417)" fill="#007cff"/>
          </g>
        </g>
      </g>
      <path id="Path_21495" data-name="Path 21495" d="M582.266,45.288c.608,4.747,4.167,14.837,7.237,19.587,5.327-1.837,14.226-5.3,18.531-7.246a198.209,198.209,0,0,1-7.622-19.113c-4.59.306-14.592,4.074-18.147,6.772" transform="translate(684.556 268.289)" fill="#fff"/>
      <g id="Group_29791" data-name="Group 29791" transform="translate(1270.294 314.439)" opacity="0.3">
        <g id="Group_29790" data-name="Group 29790">
          <g id="Group_29789" data-name="Group 29789" clip-path="url(#clip-path-24)">
            <path id="Path_21496" data-name="Path 21496" d="M592.01,48.592a3.759,3.759,0,1,1-2.523-4.679,3.757,3.757,0,0,1,2.523,4.679" transform="translate(-584.648 -43.754)" fill="#007cff"/>
          </g>
        </g>
      </g>
      <g id="Group_29794" data-name="Group 29794" transform="translate(1278.032 312.672)" opacity="0.6">
        <g id="Group_29793" data-name="Group 29793">
          <g id="Group_29792" data-name="Group 29792" clip-path="url(#clip-path-25)">
            <path id="Path_21497" data-name="Path 21497" d="M592.369,44.126a1.232,1.232,0,1,1-.826-1.533,1.232,1.232,0,0,1,.826,1.533" transform="translate(-589.957 -42.54)" fill="#007cff"/>
          </g>
        </g>
      </g>
      <g id="Group_29797" data-name="Group 29797" transform="translate(1281.285 311.404)" opacity="0.6">
        <g id="Group_29796" data-name="Group 29796">
          <g id="Group_29795" data-name="Group 29795" clip-path="url(#clip-path-25)">
            <path id="Path_21498" data-name="Path 21498" d="M594.6,43.257a1.232,1.232,0,1,1-.827-1.533,1.234,1.234,0,0,1,.827,1.533" transform="translate(-592.189 -41.671)" fill="#007cff"/>
          </g>
        </g>
      </g>
      <g id="Group_29800" data-name="Group 29800" transform="translate(1273.99 321.689)" opacity="0.5">
        <g id="Group_29799" data-name="Group 29799">
          <g id="Group_29798" data-name="Group 29798" clip-path="url(#clip-path-27)">
            <path id="Path_21499" data-name="Path 21499" d="M601.477,51.379,588,56.706l-.815-2.651,13.478-5.326Z" transform="translate(-587.184 -48.728)" fill="#007cff"/>
          </g>
        </g>
      </g>
      <g id="Group_29803" data-name="Group 29803" transform="translate(1140.728 508.131)" opacity="0.2">
        <g id="Group_29802" data-name="Group 29802">
          <g id="Group_29801" data-name="Group 29801" clip-path="url(#clip-path-28)">
            <path id="Path_21500" data-name="Path 21500" d="M568.926,195.428q-.437,16.485-2.449,25.289-2.58,11.238-8.017,16.441a17.929,17.929,0,0,1-12.841,5.2q-11.238,0-17.156-12.258a34.674,34.674,0,0,1-1.764-4.533,210.327,210.327,0,0,0-23.2,23.365l-7.74,9.124A56.294,56.294,0,0,0,510,268.54q13.621,7.04,35.74,7.055c2.594,0,5.1-.073,7.536-.219a209,209,0,0,0,22.009-42.3l21.645-56.437Z" transform="translate(-495.756 -176.64)"/>
          </g>
        </g>
      </g>
      <path id="Path_21501" data-name="Path 21501" d="M412.087,256.035l25.51,25.51,71.435-67.293c-24.582-9.344-72.5,17.339-96.946,41.783" transform="translate(606.688 347.826)" fill="#1a2e35"/>
      <path id="Path_21502" data-name="Path 21502" d="M481.129,333.786l-25.51-25.51,67.293-71.435c9.344,24.582-17.338,72.5-41.783,96.946" transform="translate(626.606 359.035)" fill="#1a2e35"/>
      <path id="Path_21503" data-name="Path 21503" d="M591.761,209.9l27.826-53.652-53.652,27.828a210.119,210.119,0,0,0-47.289,33.536l-91.458,86.1,44.937,44.937,86.1-91.458A210.182,210.182,0,0,0,591.761,209.9" transform="translate(613.598 322.16)" fill="#1aa3de"/>
      <path id="Path_21505" data-name="Path 21505" d="M520.093,233.74a18.8,18.8,0,1,1,0-26.589,18.8,18.8,0,0,1,0,26.589" transform="translate(641.421 342.932)" fill="#fff"/>
      <path id="Path_21506" data-name="Path 21506" d="M513.226,226.872a12.076,12.076,0,1,1,0-17.078,12.075,12.075,0,0,1,0,17.078" transform="translate(643.533 345.043)" fill="#127fb5"/>
      <g id="Group_29809" data-name="Group 29809" transform="translate(1056.928 576.77)" opacity="0.3">
        <g id="Group_29808" data-name="Group 29808">
          <g id="Group_29807" data-name="Group 29807" clip-path="url(#clip-path-29)">
            <path id="Path_21507" data-name="Path 21507" d="M482.254,301.631,438.263,257.64l36.018-33.909,41.88,41.882Z" transform="translate(-438.263 -223.732)" fill="#8adbfd"/>
          </g>
        </g>
      </g>
      <path id="Path_21508" data-name="Path 21508" d="M439.045,269.977c-32.948,2.68-43.864,23.767-47.585,51.8-1.9,14.3-2.74,28.762-14.745,37.132a4.031,4.031,0,0,0,2.382,7.375c44.221-1.382,64.847-23.035,67.437-32.1A62.071,62.071,0,0,1,442.9,347.99a4.025,4.025,0,0,0,5.873,4.944c12.416-7.778,27.984-22.089,29.019-45.3-9.178-12.9-38.748-37.659-38.748-37.659" transform="translate(589.688 374.199)" fill="#1aa3de"/>
      <path id="Path_21510" data-name="Path 21510" d="M465.537,321.131l-52.758-52.758,28.106-6.08,30.733,30.731Z" transform="translate(607.004 370.684)" fill="#007fb5"/>
    </g>
  </g>
</svg>
