<?xml version="1.0" encoding="utf-8"?>
<svg viewBox="0 0 34.887 36.5" xmlns="http://www.w3.org/2000/svg">
  <defs>
    <style>
            .cls-1{fill:#1582c8}
        </style>
  </defs>
  <g id="Group_313" transform="matrix(0.630077, 0, 0, 0.600204, -650.416992, -3160.242676)" style="">
    <path id="Path_381" d="M1059.027 5300.549a1 1 0 1 0 1.413 0 1.023 1.023 0 0 0-1.413 0z" class="cls-1"/>
    <path id="Path_382" d="M1059.026 5297.549a1 1 0 1 0 1.414 0 1.024 1.024 0 0 0-1.414 0z" class="cls-1"/>
    <path id="Path_383" d="M 1071.288 5305.252 C 1071.288 5305.252 1070.158 5303.347 1069.896 5301.124 C 1069.532 5298.036 1069.988 5294.337 1069.833 5294.278 C 1068.647 5293.888 1068.429 5293.646 1067.417 5292.914 L 1067.017 5289.928 C 1068.43 5288.052 1069.322 5285.836 1069.604 5283.505 L 1070.182 5283.505 C 1070.686 5283.563 1071.063 5283.053 1070.861 5282.588 C 1070.845 5282.549 1070.824 5282.512 1070.8 5282.477 C 1070.574 5282.103 1070.293 5281.766 1069.966 5281.477 L 1069.966 5279.732 C 1069.941 5274.471 1065.95 5270.077 1060.715 5269.549 C 1060.549 5268.797 1059.632 5268.507 1059.064 5269.027 C 1058.912 5269.166 1058.806 5269.348 1058.762 5269.549 C 1053.525 5270.075 1049.531 5274.47 1049.506 5279.733 L 1049.506 5281.478 C 1049.18 5281.766 1048.9 5282.101 1048.673 5282.472 C 1048.386 5282.891 1048.66 5283.464 1049.166 5283.503 C 1049.208 5283.507 1049.25 5283.506 1049.292 5283.501 L 1049.868 5283.501 C 1050.15 5285.832 1051.043 5288.048 1052.455 5289.924 L 1052.055 5292.91 C 1051.043 5293.642 1049.924 5294.213 1048.737 5294.603 C 1048.47 5294.703 1050.878 5295.667 1050.009 5295.891 L 1048.515 5305.252 L 1071.288 5305.252 Z M 1056.483 5297.576 L 1056.483 5303.256 L 1049.372 5303.256 C 1049.372 5303.256 1049.388 5298.821 1050.434 5296.308 C 1050.956 5295.055 1052.541 5295.009 1052.901 5294.776 L 1055.238 5297.376 C 1055.559 5297.719 1056.071 5297.801 1056.483 5297.576 Z M 1067.963 5280.121 C 1062.688 5277.967 1056.778 5277.967 1051.503 5280.121 L 1051.503 5279.737 C 1051.501 5278.638 1051.724 5277.551 1052.159 5276.542 C 1052.579 5275.561 1053.186 5274.671 1053.945 5273.921 C 1054.7 5273.169 1055.591 5272.568 1056.572 5272.151 C 1058.593 5271.296 1060.873 5271.296 1062.894 5272.151 C 1064.874 5272.995 1066.454 5274.567 1067.308 5276.542 C 1067.742 5277.551 1067.965 5278.638 1067.963 5279.737 L 1067.963 5280.121 Z M 1054.97 5281 C 1058.111 5280.341 1061.355 5280.341 1064.496 5281 C 1065.06 5281.129 1065.614 5281.296 1066.156 5281.5 L 1053.31 5281.5 C 1053.852 5281.296 1054.406 5281.129 1054.97 5281 Z M 1065.418 5293.057 L 1063.394 5295.311 L 1062.094 5294.189 C 1063.266 5293.616 1064.337 5292.855 1065.265 5291.937 L 1065.418 5293.057 Z M 1067.589 5283.505 C 1067.239 5285.819 1066.211 5287.976 1064.634 5289.705 C 1063.85 5290.616 1062.929 5291.4 1061.904 5292.029 C 1060.633 5293.039 1058.833 5293.039 1057.562 5292.029 C 1056.537 5291.4 1055.616 5290.616 1054.832 5289.705 C 1053.255 5287.977 1052.226 5285.819 1051.877 5283.505 L 1067.589 5283.505 Z M 1057.369 5294.189 L 1056.069 5295.311 L 1054.046 5293.057 L 1054.196 5291.937 C 1055.124 5292.855 1056.196 5293.615 1057.369 5294.189 Z M 1058.483 5295.872 L 1059.733 5294.792 L 1060.984 5295.872 L 1060.984 5303.256 L 1058.484 5303.256 L 1058.483 5295.872 Z M 1062.983 5297.572 C 1063.396 5297.796 1063.907 5297.714 1064.229 5297.372 L 1066.566 5294.772 C 1067.648 5295.472 1067.627 5295.554 1068.842 5295.984 C 1069.042 5296.059 1070.407 5303.252 1070.407 5303.252 L 1062.983 5303.252 L 1062.983 5297.572 Z" class="cls-1"/>
    <path id="Path_384" d="M1061.234 5274.023h-1.125l.454-.675a1 1 0 1 0-1.66-1.115l-1.5 2.232a1 1 0 0 0 .83 1.558h1.124l-.454.676a1 1 0 1 0 1.66 1.114l1.5-2.232a1 1 0 0 0-.829-1.558z" class="cls-1"/>
  </g>
  <path id="path-1" d="M 13.518 26.022 L 13.462 26.005 C 13.113 25.915 12.775 25.789 12.452 25.628 C 12.343 25.576 12.244 25.529 12.137 25.488 C 11.661 25.331 11.211 25.102 10.805 24.808 L 10.644 23.608 C 11.212 22.855 11.57 21.965 11.683 21.028 L 11.916 21.028 C 12.118 21.051 12.27 20.846 12.189 20.66 C 12.182 20.644 12.174 20.629 12.164 20.615 C 12.073 20.465 11.96 20.33 11.829 20.213 L 11.829 19.512 C 11.819 17.399 10.215 15.633 8.112 15.421 C 8.046 15.119 7.677 15.003 7.449 15.211 C 7.388 15.267 7.346 15.341 7.328 15.421 C 5.224 15.633 3.619 17.398 3.609 19.513 L 3.609 20.214 C 3.478 20.329 3.366 20.464 3.275 20.613 C 3.159 20.781 3.269 21.012 3.473 21.027 C 3.49 21.029 3.506 21.028 3.523 21.026 L 3.755 21.026 C 3.868 21.963 4.226 22.853 4.794 23.607 L 4.633 24.806 C 4.227 25.1 3.777 25.33 3.3 25.487 C 3.193 25.527 3.094 25.575 2.985 25.627 C 2.662 25.788 2.323 25.914 1.974 26.004 L 1.919 26.02 C 1.2 26.256 0.713 26.927 0.712 27.684 L 0.712 29.765 L 14.728 29.765 L 14.728 27.684 C 14.726 26.927 14.238 26.256 13.518 26.022 Z M 6.412 26.681 L 6.412 28.963 L 1.513 28.963 L 1.513 27.686 C 1.514 27.28 1.772 26.92 2.156 26.789 L 2.188 26.78 C 2.582 26.677 2.965 26.534 3.33 26.353 C 3.424 26.308 3.505 26.269 3.584 26.239 C 4.072 26.066 4.538 25.837 4.973 25.556 L 5.912 26.601 C 6.041 26.738 6.247 26.771 6.412 26.681 Z M 11.024 19.669 C 8.905 18.803 6.531 18.803 4.411 19.669 L 4.411 19.514 C 4.411 19.073 4.5 18.636 4.675 18.231 C 4.844 17.837 5.087 17.479 5.393 17.178 C 5.696 16.876 6.054 16.634 6.448 16.467 C 7.26 16.123 8.176 16.123 8.988 16.467 C 9.783 16.806 10.418 17.437 10.761 18.231 C 10.935 18.636 11.025 19.073 11.024 19.514 L 11.024 19.669 Z M 5.804 20.022 C 7.066 19.757 8.369 19.757 9.631 20.022 C 9.858 20.074 10.081 20.141 10.298 20.223 L 5.137 20.223 C 5.355 20.141 5.578 20.074 5.804 20.022 Z M 10.002 24.865 L 9.189 25.771 L 8.666 25.32 C 9.137 25.09 9.568 24.784 9.94 24.416 L 10.002 24.865 Z M 10.874 21.028 C 10.733 21.957 10.32 22.824 9.687 23.519 C 9.372 23.885 9.002 24.2 8.59 24.452 C 8.079 24.858 7.356 24.858 6.846 24.452 C 6.434 24.2 6.064 23.885 5.749 23.519 C 5.115 22.824 4.702 21.958 4.562 21.028 L 10.874 21.028 Z M 6.768 25.32 L 6.246 25.771 L 5.433 24.865 L 5.493 24.416 C 5.866 24.784 6.297 25.09 6.768 25.32 Z M 7.216 25.996 L 7.718 25.563 L 8.22 25.996 L 8.22 28.963 L 7.216 28.963 L 7.216 25.996 Z M 9.023 26.679 C 9.189 26.769 9.395 26.736 9.524 26.599 L 10.463 25.554 C 10.898 25.836 11.364 26.065 11.852 26.237 C 11.932 26.268 12.013 26.306 12.108 26.352 C 12.472 26.533 12.853 26.675 13.246 26.778 L 13.275 26.786 C 13.661 26.916 13.921 27.277 13.922 27.684 L 13.922 28.961 L 9.023 28.961 L 9.023 26.679 Z" class="cls-1" style=""/>
  <path id="path-2" d="M 32.908 25.955 L 32.852 25.938 C 32.503 25.848 32.165 25.722 31.842 25.561 C 31.733 25.509 31.634 25.462 31.527 25.421 C 31.051 25.264 30.601 25.035 30.195 24.741 L 30.034 23.541 C 30.602 22.788 30.96 21.898 31.073 20.961 L 31.306 20.961 C 31.508 20.984 31.66 20.779 31.579 20.593 C 31.572 20.577 31.564 20.562 31.554 20.548 C 31.463 20.398 31.35 20.263 31.219 20.146 L 31.219 19.445 C 31.209 17.332 29.605 15.566 27.502 15.354 C 27.436 15.052 27.067 14.936 26.839 15.144 C 26.778 15.2 26.736 15.274 26.718 15.354 C 24.614 15.566 23.009 17.331 22.999 19.446 L 22.999 20.147 C 22.868 20.262 22.756 20.397 22.665 20.546 C 22.549 20.714 22.659 20.945 22.863 20.96 C 22.88 20.962 22.896 20.961 22.913 20.959 L 23.145 20.959 C 23.258 21.896 23.616 22.786 24.184 23.54 L 24.023 24.739 C 23.617 25.033 23.167 25.263 22.69 25.42 C 22.583 25.46 22.484 25.508 22.375 25.56 C 22.052 25.721 21.713 25.847 21.364 25.937 L 21.309 25.953 C 20.59 26.189 20.103 26.86 20.102 27.617 L 20.102 29.698 L 34.118 29.698 L 34.118 27.617 C 34.116 26.86 33.628 26.189 32.908 25.955 Z M 25.802 26.614 L 25.802 28.896 L 20.903 28.896 L 20.903 27.619 C 20.904 27.213 21.162 26.853 21.546 26.722 L 21.578 26.713 C 21.972 26.61 22.355 26.467 22.72 26.286 C 22.814 26.241 22.895 26.202 22.974 26.172 C 23.462 25.999 23.928 25.77 24.363 25.489 L 25.302 26.534 C 25.431 26.671 25.637 26.704 25.802 26.614 Z M 30.414 19.602 C 28.295 18.736 25.921 18.736 23.801 19.602 L 23.801 19.447 C 23.801 19.006 23.89 18.569 24.065 18.164 C 24.234 17.77 24.477 17.412 24.783 17.111 C 25.086 16.809 25.444 16.567 25.838 16.4 C 26.65 16.056 27.566 16.056 28.378 16.4 C 29.173 16.739 29.808 17.37 30.151 18.164 C 30.325 18.569 30.415 19.006 30.414 19.447 L 30.414 19.602 Z M 25.194 19.955 C 26.456 19.69 27.759 19.69 29.021 19.955 C 29.248 20.007 29.471 20.074 29.688 20.156 L 24.527 20.156 C 24.745 20.074 24.968 20.007 25.194 19.955 Z M 29.392 24.798 L 28.579 25.704 L 28.056 25.253 C 28.527 25.023 28.958 24.717 29.33 24.349 L 29.392 24.798 Z M 30.264 20.961 C 30.123 21.89 29.71 22.757 29.077 23.452 C 28.762 23.818 28.392 24.133 27.98 24.385 C 27.469 24.791 26.746 24.791 26.236 24.385 C 25.824 24.133 25.454 23.818 25.139 23.452 C 24.505 22.757 24.092 21.891 23.952 20.961 L 30.264 20.961 Z M 26.158 25.253 L 25.636 25.704 L 24.823 24.798 L 24.883 24.349 C 25.256 24.717 25.687 25.023 26.158 25.253 Z M 26.606 25.929 L 27.108 25.496 L 27.61 25.929 L 27.61 28.896 L 26.606 28.896 L 26.606 25.929 Z M 28.413 26.612 C 28.579 26.702 28.785 26.669 28.914 26.532 L 29.853 25.487 C 30.288 25.769 30.754 25.998 31.242 26.17 C 31.322 26.201 31.403 26.239 31.498 26.285 C 31.862 26.466 32.243 26.608 32.636 26.711 L 32.665 26.719 C 33.051 26.849 33.311 27.21 33.312 27.617 L 33.312 28.894 L 28.413 28.894 L 28.413 26.612 Z" class="cls-1" style=""/>
</svg>