<?xml version="1.0" standalone="no"?>
<!DOCTYPE svg PUBLIC "-//W3C//DTD SVG 20010904//EN"
 "http://www.w3.org/TR/2001/REC-SVG-20010904/DTD/svg10.dtd">
<svg version="1.0" xmlns="http://www.w3.org/2000/svg"
 width="225.000000pt" height="225.000000pt" viewBox="0 0 225.000000 225.000000"
 preserveAspectRatio="xMidYMid meet">

<g transform="translate(0.000000,225.000000) scale(0.100000,-0.100000)"
fill="#3a4354" stroke="none">
<path d="M572 2238 c-7 -7 -12 -22 -12 -35 0 -22 -2 -23 -102 -23 -149 -1
-211 -34 -238 -129 -8 -24 -10 -332 -8 -943 l3 -908 28 -27 c24 -25 36 -28
107 -31 l80 -4 10 -42 c19 -72 22 -81 34 -88 20 -14 242 -9 254 5 5 6 15 38
22 69 l13 58 362 0 362 0 13 -57 c7 -32 17 -64 22 -70 12 -14 234 -19 254 -5
7 4 17 27 24 52 6 25 13 52 16 61 4 14 21 18 84 21 71 3 83 6 107 31 l28 27 3
908 c2 611 0 919 -8 943 -27 95 -89 128 -237 129 -101 0 -103 1 -103 23 0 13
-5 28 -12 35 -17 17 -1089 17 -1106 0z m1048 -313 c0 -282 -3 -301 -59 -348
l-33 -27 -403 0 -403 0 -33 27 c-56 47 -59 66 -59 348 l0 255 495 0 495 0 0
-255z m-1060 -31 c0 -239 7 -284 53 -339 61 -74 62 -75 512 -75 450 0 451 1
512 75 46 55 53 100 53 339 l0 216 106 0 106 0 34 -34 34 -34 0 -904 c0 -690
-3 -907 -12 -916 -17 -17 -1649 -17 -1666 0 -9 9 -12 226 -12 916 l0 904 34
34 34 34 106 0 106 0 0 -216z m126 -1776 c-3 -13 -6 -29 -6 -35 0 -9 -23 -13
-80 -13 -44 0 -80 1 -80 3 0 1 -4 17 -9 35 l-10 32 96 0 c94 0 95 0 89 -22z
m1053 -10 c-5 -18 -9 -34 -9 -35 0 -2 -36 -3 -80 -3 -57 0 -80 4 -80 13 0 6
-3 22 -6 35 -6 22 -5 22 89 22 l96 0 -10 -32z"/>
<path d="M1065 1880 c-50 -24 -75 -65 -75 -120 0 -80 57 -140 133 -140 80 0
137 58 137 138 0 57 -25 98 -75 122 -52 25 -70 25 -120 0z m103 -67 c52 -44
24 -123 -43 -123 -43 0 -79 41 -70 80 7 32 40 60 70 60 13 0 32 -8 43 -17z"/>
<path d="M403 2033 c-10 -4 -13 -188 -13 -873 l0 -869 22 -7 c49 -15 48 -31
48 874 0 562 -3 850 -10 863 -11 19 -23 22 -47 12z"/>
<path d="M1800 2021 c-7 -13 -10 -301 -10 -863 0 -905 -1 -889 48 -874 l22 7
0 869 c0 782 -2 868 -16 874 -25 10 -33 7 -44 -13z"/>
<path d="M850 1300 l0 -30 275 0 275 0 0 30 0 30 -275 0 -275 0 0 -30z"/>
<path d="M846 1175 c-3 -8 -3 -22 0 -30 5 -13 46 -15 280 -15 l274 0 0 30 0
30 -274 0 c-234 0 -275 -2 -280 -15z"/>
<path d="M850 1020 l0 -30 274 0 c234 0 275 2 280 15 3 8 3 22 0 30 -5 13 -46
15 -280 15 l-274 0 0 -30z"/>
<path d="M780 791 c-6 -12 -10 -98 -10 -211 0 -113 4 -199 10 -211 10 -18 25
-19 345 -19 320 0 335 1 345 19 5 11 10 35 10 55 0 35 0 35 48 38 l47 3 0 115
0 115 -47 3 c-48 3 -48 3 -48 38 0 20 -5 44 -10 55 -10 18 -25 19 -345 19
-320 0 -335 -1 -345 -19z m630 -100 c0 -54 8 -61 66 -61 l34 0 0 -50 0 -50
-34 0 c-58 0 -66 -7 -66 -61 l0 -49 -285 0 -285 0 0 160 0 160 285 0 285 0 0
-49z"/>
<path d="M1103 695 c-17 -13 -17 -15 1 -67 52 -148 81 -187 113 -155 14 14 12
25 -26 120 -24 58 -49 108 -56 111 -7 2 -21 -1 -32 -9z"/>
</g>
</svg>
