<svg width="24" height="34" viewBox="0 0 24 34" fill="none" xmlns="http://www.w3.org/2000/svg">
<path d="M13.8587 34V30.9918C16.9994 30.8324 19.3872 29.9957 21.2323 28.4816C23.0774 26.9676 24 24.9555 24 22.6246C24 20.1145 23.2538 18.2617 21.6054 17.0863C19.9367 15.7516 17.5489 14.7355 14.035 14.0781H13.8587V6.36172C16.2533 6.70039 18.2883 7.35781 20.3098 8.7125L23.2674 5.02695C20.3098 3.17422 17.169 2.17812 13.8519 2.01875V0H11.0842V2.01211C8.31656 2.17148 5.90842 3.0082 4.06331 4.52227C2.2182 6.03633 1.29565 8.04844 1.29565 10.3793C1.29565 12.7102 2.04183 14.5629 3.69022 15.7383C5.16224 16.9137 7.74675 17.9098 11.0639 18.5871V26.4563C8.47258 26.1176 5.88807 24.9422 3.31713 22.9301L0 26.4563C3.31713 29.1457 7.02092 30.6398 11.0774 30.9785V34H13.8587ZM14.035 19.4172C15.8802 19.9152 16.9927 20.4133 17.7253 20.9313C18.2747 21.6086 18.6478 22.266 18.6478 23.282C18.6478 24.298 18.2747 24.9555 17.3522 25.6328C16.4296 26.3102 15.3103 26.6289 14.035 26.8082V19.4172ZM7.58395 12.2188C7.03448 11.7207 6.66139 10.884 6.66139 10.0473C6.66139 9.05117 7.03448 8.37383 7.76032 7.69648C8.68287 7.01914 9.60543 6.70039 11.0774 6.52109V13.7328C9.23234 13.2148 8.13341 12.7168 7.58395 12.2188Z" fill="#EAB305"/>
</svg>
