<svg xmlns="http://www.w3.org/2000/svg" xmlns:xlink="http://www.w3.org/1999/xlink" fill="none" version="1.1" width="30" height="32" viewBox="0 0 30 32"><defs><clipPath id="master_svg0_59_3336"><rect x="0" y="4" width="30" height="24" rx="0"/></clipPath></defs><g><rect x="0" y="0" width="30" height="32" rx="0" fill="#000000" fill-opacity="0" style="mix-blend-mode:passthrough"/><g><rect x="0" y="0" width="30" height="32" rx="0" fill="#000000" fill-opacity="0" style="mix-blend-mode:passthrough"/><g clip-path="url(#master_svg0_59_3336)"><g transform="matrix(1,0,0,-1,0,57.03125)"><g><path d="M1.5,45.765625Q1.59375,42.906225,3.46875,40.984425Q5.39062,39.109425,8.25,39.015625L14.0156,39.015625Q15.6562,37.562505,18,37.515625Q20.3438,37.562505,21.9844,39.015625L23.25,39.015625Q25.5,39.062525,26.9531,40.562525Q28.4531,42.015625,28.5,44.265625Q28.4531,46.515625,26.9531,47.968725Q25.5,49.468725,23.25,49.515625Q22.5,49.515625,21.7969,49.328125Q21.0469,50.781225,19.6406,51.625025Q18.2344,52.515625,16.5,52.515625Q14.1562,52.468725,12.5156,51.015625Q10.7344,52.468725,8.25,52.515625Q5.39062,52.421825,3.46875,50.546825Q1.59375,48.625025,1.5,45.765625ZM28.875,35.265625L13.125,35.265625L28.875,35.265625L13.125,35.265625Q12.0938,35.171875,12,34.140625Q12.0938,33.109375,13.125,33.015625L28.875,33.015625Q29.9062,33.109375,30,34.140625Q29.9062,35.171875,28.875,35.265625ZM25.875,30.765625L20.625,30.765625L25.875,30.765625L20.625,30.765625Q19.5938,30.671875,19.5,29.640625Q19.5938,28.609375,20.625,28.515625L25.875,28.515625Q26.9062,28.609375,27,29.640625Q26.9062,30.671875,25.875,30.765625ZM16.875,30.765625L1.125,30.765625L16.875,30.765625L1.125,30.765625Q0.09375,30.671875,0,29.640625Q0.09375,28.609375,1.125,28.515625L16.875,28.515625Q17.9062,28.609375,18,29.640625Q17.9062,30.671875,16.875,30.765625ZM10.5,34.140625Q10.4062,35.171875,9.375,35.265625L4.5,35.265625Q3.46875,35.171875,3.375,34.140625Q3.46875,33.109375,4.5,33.015625L9.375,33.015625Q10.4062,33.109375,10.5,34.140625Z" fill="#EAB308" fill-opacity="1" style="mix-blend-mode:passthrough"/></g></g></g></g></g></svg>