<svg xmlns="http://www.w3.org/2000/svg" xmlns:xlink="http://www.w3.org/1999/xlink" fill="none" version="1.1" width="24" height="24" viewBox="0 0 24 24"><g transform="matrix(1,0,0,-1,0,48)"><path d="M0,36Q0.046875,39.2812,1.59375,42Q3.1875,44.7188,6,46.4062Q8.85938,48,12,48Q15.1406,48,18,46.4062Q20.8125,44.7188,22.4062,42Q23.9531,39.2812,24,36Q23.9531,32.71875,22.4062,30Q20.8125,27.28125,18,25.59375Q15.1406,24,12,24Q8.85938,24,6,25.59375Q3.1875,27.28125,1.59375,30Q0.046875,32.71875,0,36ZM13.5,43.5Q13.5,44.1562,13.0781,44.5781Q12.6562,45,12,45Q11.3438,45,10.9219,44.5781Q10.5,44.1562,10.5,43.5Q10.5,42.8438,10.9219,42.4219Q11.3438,42,12,42Q12.6562,42,13.0781,42.4219Q13.5,42.8438,13.5,43.5ZM12,28.5Q13.2656,28.54688,14.1094,29.39062Q14.9531,30.23438,15,31.5Q14.9531,32.76562,14.1562,33.60938L17.1562,40.4062Q17.4844,41.3906,16.5938,41.9062Q15.6094,42.2344,15.0938,41.3438L12.0938,34.5Q12.0469,34.5,12.0469,34.5Q12,34.5,12,34.5Q10.7344,34.4531,9.89062,33.60938Q9.04688,32.76562,9,31.5Q9.04688,30.23438,9.89062,29.39062Q10.7344,28.54688,12,28.5ZM8.25,41.25Q8.25,41.9062,7.82812,42.3281Q7.40625,42.75,6.75,42.75Q6.09375,42.75,5.67188,42.3281Q5.25,41.9062,5.25,41.25Q5.25,40.5938,5.67188,40.1719Q6.09375,39.75,6.75,39.75Q7.40625,39.75,7.82812,40.1719Q8.25,40.5938,8.25,41.25ZM4.5,34.5Q5.15625,34.5,5.57812,34.9219Q6,35.3438,6,36Q6,36.6562,5.57812,37.0781Q5.15625,37.5,4.5,37.5Q3.84375,37.5,3.42188,37.0781Q3,36.6562,3,36Q3,35.3438,3.42188,34.9219Q3.84375,34.5,4.5,34.5ZM21,36Q21,36.6562,20.5781,37.0781Q20.1562,37.5,19.5,37.5Q18.8438,37.5,18.4219,37.0781Q18,36.6562,18,36Q18,35.3438,18.4219,34.9219Q18.8438,34.5,19.5,34.5Q20.1562,34.5,20.5781,34.9219Q21,35.3438,21,36Z" fill="#EAB308" fill-opacity="1" style="mix-blend-mode:passthrough"/></g></svg>