<svg width="40" height="24" viewBox="0 0 40 24" fill="none" xmlns="http://www.w3.org/2000/svg">
<path d="M39.5281 1.5882C39.2303 1.4674 38.7547 1.2163 38.1879 1.0651C37.6211 0.905173 36.8553 0.639255 36.0742 0.572396C35.2852 0.489962 34.3933 0.46565 33.4185 0.512755C32.4669 0.590251 31.5008 0.792348 30.4649 1.06016C29.4301 1.32722 28.4834 1.77168 27.4722 2.25793C26.4853 2.76089 25.5857 3.38846 24.685 4.07186C23.8337 4.77768 23.0261 5.5591 22.2876 6.3899C21.5988 7.2435 20.9143 8.12178 20.387 9.05895C19.8434 9.98966 19.3746 10.9481 19.0354 11.9282C18.3098 13.8686 18.0207 15.8653 17.9904 17.6435C17.993 18.5457 18.0462 19.383 18.1579 20.1522C18.2555 20.917 18.447 21.6228 18.5947 22.1934C18.6544 22.4612 18.7383 22.7172 18.8212 22.9436C18.9667 22.6382 19.1247 22.3161 19.3009 21.9635C20.1766 20.2267 21.453 17.9649 22.9455 15.8467C23.689 14.786 24.5046 13.7775 25.2997 12.8657C25.7209 12.4277 26.1282 12.0064 26.5126 11.6068C26.9259 11.2357 27.3161 10.8839 27.6735 10.5602C28.0614 10.2689 28.4147 10.0037 28.7292 9.76743C29.0309 9.51709 29.3465 9.37159 29.5832 9.22116C30.0656 8.93549 30.3411 8.77252 30.3411 8.77252C30.3411 8.77252 30.0786 8.9579 29.6208 9.27852C29.3982 9.44871 29.0992 9.61396 28.8185 9.88557C28.5275 10.1424 28.1997 10.4315 27.8411 10.7468C27.5125 11.0947 27.1573 11.4682 26.7816 11.8648C26.4359 12.286 26.0704 12.7305 25.6936 13.1909C24.9825 14.149 24.2675 15.194 23.624 16.2889C22.3282 18.4686 21.26 20.7741 20.5413 22.5288C20.3392 23.023 20.169 23.4648 20.0227 23.855C20.3304 23.7729 20.7213 23.6859 21.143 23.5302C21.6779 23.3444 22.3685 23.1529 23.0378 22.8798C23.7231 22.6177 24.4537 22.3081 25.1906 21.9555C25.9394 21.6083 26.6687 21.2003 27.416 20.7711C28.1624 20.3437 28.8694 19.8548 29.5718 19.3518C30.2541 18.8291 30.9314 18.3011 31.546 17.7164C32.1535 17.1155 32.767 16.5517 33.2973 15.9002C34.3879 14.6508 35.3171 13.3144 36.0742 11.9039C36.4682 11.2395 36.7956 10.466 37.1166 9.76705C37.4414 9.07339 37.7172 8.30375 37.9919 7.59793C38.2688 6.90502 38.5249 6.203 38.7509 5.51921C38.9967 4.81491 39.2113 4.20102 39.3895 3.69654C39.595 3.19472 39.7234 2.6701 39.8392 2.36126C39.946 2.01253 40.0007 1.82828 40.0007 1.82828C40.0007 1.82828 39.8351 1.728 39.5281 1.5882Z" fill="#FF8100"/>
<path d="M15.3582 17.2013C14.2976 16.4575 13.2901 15.6415 12.378 14.8457C11.9412 14.4271 11.5195 14.0187 11.1191 13.6342C10.7472 13.2209 10.3977 12.8308 10.0714 12.4733C9.78079 12.087 9.51639 11.7307 9.27897 11.4176C9.02862 11.1156 8.88503 10.8003 8.73346 10.5637C8.44703 10.0824 8.28444 9.8058 8.28444 9.8058C8.28444 9.8058 8.46982 10.0683 8.79196 10.5261C8.95949 10.7483 9.12587 11.0469 9.39901 11.3276C9.65581 11.6197 9.94452 11.9476 10.2602 12.3062C10.6074 12.6336 10.9816 12.99 11.3782 13.3642C11.7987 13.7098 12.2447 14.0753 12.7044 14.4521C13.6613 15.1606 14.7075 15.8782 15.8015 16.5217C16.2544 16.7922 16.7132 17.03 17.1706 17.2743C17.3218 14.8278 17.824 12.4095 18.5758 10.207C18.145 9.65005 17.7082 9.10188 17.2276 8.60006C16.627 7.99149 16.0655 7.37798 15.4118 6.84843C14.1616 5.75779 12.8267 4.82898 11.4166 4.07073C10.7521 3.67679 9.97757 3.34934 9.27859 3.02872C8.58644 2.70392 7.81756 2.42698 7.11136 2.15385C6.4177 1.87806 5.71644 1.62278 5.03189 1.39675C4.32797 1.14906 3.7156 0.93443 3.20922 0.756266C2.7074 0.551889 2.18164 0.42235 1.87394 0.306486C1.52673 0.201259 1.34172 0.145416 1.34172 0.145416C1.34172 0.145416 1.23877 0.312944 1.09784 0.619509C0.978176 0.916576 0.726695 1.39295 0.574742 1.95973C0.415572 2.52461 0.148895 3.29083 0.0839352 4.07225C-1.85662e-05 4.86202 -0.0239511 5.75513 0.0242938 6.72952C0.0995104 7.68036 0.301227 8.64489 0.569804 9.68234C0.83876 10.7164 1.28208 11.6642 1.76757 12.6762C2.27129 13.6605 2.8981 14.56 3.58378 15.4622C4.28922 16.3151 5.07064 17.1223 5.90106 17.8619C6.75313 18.5484 7.63332 19.2333 8.57201 19.7625C9.50082 20.3061 10.4596 20.7753 11.4394 21.1134C13.379 21.8401 15.3757 22.1288 17.1554 22.1599C17.2314 22.1599 17.2964 22.1519 17.3685 22.1497C17.1782 20.9029 17.1091 19.6303 17.1326 18.3524C16.5419 17.9812 15.9485 17.6173 15.3582 17.2013Z" fill="#FF8100"/>
</svg>
