<svg xmlns="http://www.w3.org/2000/svg" xmlns:xlink="http://www.w3.org/1999/xlink" fill="none" version="1.1" width="24" height="24" viewBox="0 0 24 24"><g transform="matrix(1,0,0,-1,0,48)"><path d="M19.5,45Q20.1562,45,20.5781,44.5781Q21,44.1562,21,43.5Q21,42.8438,20.5781,42.4219Q20.1562,42,19.5,42Q18.8438,42,18.4219,42.4219Q18,42.8438,18,43.5Q18,44.1562,18.4219,44.5781Q18.8438,45,19.5,45ZM19.5,39Q20.7188,39,21.75,39.6094Q22.7812,40.2188,23.3906,41.25Q24,42.3281,24,43.5Q24,44.6719,23.3906,45.75Q22.7812,46.7812,21.75,47.3906Q20.7188,48,19.5,48Q18.2812,48,17.25,47.3906Q16.2188,46.7812,15.6094,45.75Q15,44.6719,15,43.5Q15,42.3281,15.6094,41.25Q16.2188,40.2188,17.25,39.6094Q18.2812,39,19.5,39ZM4.5,42.75Q4.54688,43.6875,5.15625,44.3438Q5.8125,44.9531,6.75,45Q7.6875,44.9531,8.34375,44.3438Q8.95312,43.6875,9,42.75L9,35.0156Q9.09375,33.79688,9.70312,33.04688Q10.5,32.0625,10.5,30.75Q10.4531,29.15625,9.42188,28.07812Q8.34375,27.04688,6.75,27Q5.15625,27.04688,4.07812,28.07812Q3.04688,29.15625,3,30.75Q3,32.0625,3.79688,33.04688Q4.45312,33.79688,4.5,35.0156L4.5,42.75ZM6.75,48Q4.5,47.9531,3.04688,46.4531Q1.54688,45,1.5,42.75L1.5,35.0625L1.5,35.0156Q1.45312,34.9688,1.40625,34.875Q0.046875,33.14062,0,30.75Q0.09375,27.89062,1.96875,25.96875Q3.89062,24.09375,6.75,24Q9.60938,24.09375,11.5312,25.96875Q13.4062,27.89062,13.5,30.75Q13.4531,33.14062,12.0938,34.875Q12.0469,34.9688,12,35.0156L12,42.75Q11.9531,45,10.4531,46.4531Q9,47.9531,6.75,48ZM6.75,28.5Q7.6875,28.54688,8.34375,29.15625Q8.95312,29.8125,9,30.75Q8.90625,32.29688,7.5,32.85938L7.5,42.75Q7.45312,43.4531,6.75,43.5Q6.04688,43.4531,6,42.75L6,32.85938Q4.59375,32.29688,4.5,30.75Q4.54688,29.8125,5.15625,29.15625Q5.8125,28.54688,6.75,28.5Z" fill="#EAB308" fill-opacity="1" style="mix-blend-mode:passthrough"/></g></svg>