<svg xmlns="http://www.w3.org/2000/svg" xmlns:xlink="http://www.w3.org/1999/xlink" fill="none" version="1.1" width="24" height="24" viewBox="0 0 24 24"><g transform="matrix(1,0,0,-1,0,48)"><path d="M21,36Q21,38.4375,19.7812,40.5Q18.6094,42.5625,16.5,43.7812Q14.3906,45,12,45Q9.60938,45,7.5,43.7812Q5.39062,42.5625,4.21875,40.5Q3,38.4375,3,36Q3,33.5625,4.21875,31.5Q5.39062,29.4375,7.5,28.21875Q9.60938,27,12,27Q14.3906,27,16.5,28.21875Q18.6094,29.4375,19.7812,31.5Q21,33.5625,21,36ZM0,36Q0.046875,39.2812,1.59375,42Q3.1875,44.7188,6,46.4062Q8.85938,48,12,48Q15.1406,48,18,46.4062Q20.8125,44.7188,22.4062,42Q23.9531,39.2812,24,36Q23.9531,32.71875,22.4062,30Q20.8125,27.28125,18,25.59375Q15.1406,24,12,24Q8.85938,24,6,25.59375Q3.1875,27.28125,1.59375,30Q0.046875,32.71875,0,36ZM12,32.25Q14.1094,32.29688,15.2344,34.125Q16.2656,36,15.2344,37.875Q14.1094,39.7031,12,39.75Q9.89062,39.7031,8.76562,37.875Q7.73438,36,8.76562,34.125Q9.89062,32.29688,12,32.25ZM12,42.75Q13.8281,42.75,15.375,41.8594Q16.9219,40.9688,17.8594,39.375Q18.75,37.7812,18.75,36Q18.75,34.2188,17.8594,32.625Q16.9219,31.03125,15.375,30.14062Q13.8281,29.25,12,29.25Q10.1719,29.25,8.625,30.14062Q7.07812,31.03125,6.14062,32.625Q5.25,34.2188,5.25,36Q5.25,37.7812,6.14062,39.375Q7.07812,40.9688,8.625,41.8594Q10.1719,42.75,12,42.75ZM10.5,36Q10.5,36.6562,10.9219,37.0781Q11.3438,37.5,12,37.5Q12.6562,37.5,13.0781,37.0781Q13.5,36.6562,13.5,36Q13.5,35.3438,13.0781,34.9219Q12.6562,34.5,12,34.5Q11.3438,34.5,10.9219,34.9219Q10.5,35.3438,10.5,36Z" fill="#EAB305" fill-opacity="1" style="mix-blend-mode:passthrough"/></g></svg>