<svg xmlns="http://www.w3.org/2000/svg" xmlns:xlink="http://www.w3.org/1999/xlink" fill="none" version="1.1" width="27" height="18" viewBox="0 0 27 18"><g transform="matrix(1,0,0,-1,0,36)"><path d="M3,36Q1.73438,35.9531,0.890625,35.1094Q0.046875,34.2656,0,33L0,21Q0.046875,19.73438,0.890625,18.890625Q1.73438,18.046875,3,18L24,18Q25.2656,18.046875,26.1094,18.890625Q26.9531,19.73438,27,21L27,33Q26.9531,34.2656,26.1094,35.1094Q25.2656,35.9531,24,36L3,36ZM6,21L3,21L6,21L3,21L3,24Q4.26562,23.95312,5.10938,23.10938Q5.95312,22.26562,6,21ZM3,30L3,33L3,30L3,33L6,33Q5.95312,31.7344,5.10938,30.8906Q4.26562,30.0469,3,30ZM21,21Q21.0469,22.26562,21.8906,23.10938Q22.7344,23.95312,24,24L24,21L21,21ZM24,30Q22.7344,30.0469,21.8906,30.8906Q21.0469,31.7344,21,33L24,33L24,30ZM13.5,31.5Q14.7188,31.5,15.75,30.8906Q16.7812,30.2812,17.3906,29.25Q18,28.1719,18,27Q18,25.82812,17.3906,24.75Q16.7812,23.71875,15.75,23.10938Q14.7188,22.5,13.5,22.5Q12.2812,22.5,11.25,23.10938Q10.2188,23.71875,9.60938,24.75Q9,25.82812,9,27Q9,28.1719,9.60938,29.25Q10.2188,30.2812,11.25,30.8906Q12.2812,31.5,13.5,31.5Z" fill="#EAB308" fill-opacity="1" style="mix-blend-mode:passthrough"/></g></svg>