<svg xmlns="http://www.w3.org/2000/svg" width="21.596" height="22.814" viewBox="0 0 21.596 22.814">
    <path fill="#fff" d="M54.2 672.787a1.182 1.182 0 0 1-1.143-.938l-.565-2.644a.284.284 0 0 0-.06-.07l-1.788-1.035h-.079l-2.565.836a1.178 1.178 0 0 1-1.375-.522l-1.538-2.663a1.181 1.181 0 0 1 .243-1.459l2.01-1.806a.274.274 0 0 0 .03-.084v-2.064a.474.474 0 0 0-.038-.073l-2.008-1.808a1.179 1.179 0 0 1-.234-1.452l1.534-2.656a1.182 1.182 0 0 1 1.385-.52l2.569.834a.367.367 0 0 0 .089-.016l1.789-1.033a.625.625 0 0 0 .044-.069l.563-2.642a1.179 1.179 0 0 1 1.14-.929h3.063a1.183 1.183 0 0 1 1.143.939l.565 2.643a.277.277 0 0 0 .059.07l1.786 1.033a.447.447 0 0 0 .081 0l2.568-.838a1.176 1.176 0 0 1 1.376.523l1.537 2.661a1.183 1.183 0 0 1-.238 1.455l-2.014 1.811a.281.281 0 0 0-.03.085V662.419a.5.5 0 0 0 .037.072l2.01 1.809a1.177 1.177 0 0 1 .234 1.452l-1.535 2.657a1.184 1.184 0 0 1-1.385.52l-2.57-.835a.3.3 0 0 0-.088.016l-1.789 1.032a.787.787 0 0 0-.044.07l-.562 2.642a1.181 1.181 0 0 1-1.14.929zm2.841-1.22v.01zm-2.623-.007v.008zm-1.347-3.66a1.554 1.554 0 0 1 .783 1.025l.528 2.471h2.695l.529-2.48a1.55 1.55 0 0 1 .782-1.015l1.658-.957a1.551 1.551 0 0 1 1.278-.166l2.4.78 1.351-2.338-1.884-1.7a1.546 1.546 0 0 1-.49-1.184v-1.914a1.556 1.556 0 0 1 .5-1.192l1.877-1.688-1.353-2.342-2.409.785a1.546 1.546 0 0 1-1.27-.168l-1.658-.958a1.56 1.56 0 0 1-.783-1.025l-.528-2.471h-2.695l-.529 2.48a1.55 1.55 0 0 1-.782 1.015l-1.657.957a1.556 1.556 0 0 1-1.281.166l-2.4-.78-1.35 2.338 1.883 1.7a1.552 1.552 0 0 1 .489 1.184v1.914a1.556 1.556 0 0 1-.5 1.192l-1.878 1.687 1.353 2.342 2.408-.784a1.545 1.545 0 0 1 1.271.169zm-5.506-.286h-.009zm16.322-.005h.008zm1.323-2.27l.007.006zm-18.954-.009l-.006.005zm-.013-7.913l.007.006zm1.321-2.267h.008zm16.341-.005h-.01zm-6.865-3.952v.009zm-2.619-.008v.009zm1.309 14.822a4.626 4.626 0 1 1 1.407-9.035 4.909 4.909 0 0 1 2.7 2.283 4.624 4.624 0 0 1-3.721 6.735c-.125.01-.256.016-.386.016zm0-7.86c-.091 0-.183 0-.274.011a3.218 3.218 0 0 0-2.2 1.137A3.232 3.232 0 0 0 56 664.6a3.265 3.265 0 0 0 1.215-.349 3.256 3.256 0 0 0 1.6-1.891 3.261 3.261 0 0 0 .14-1.255 3.232 3.232 0 0 0-.349-1.213 3.942 3.942 0 0 0-.578-.765 3.857 3.857 0 0 0-.464-.391 3.992 3.992 0 0 0-.848-.441 3.25 3.25 0 0 0-.984-.149z" transform="translate(-44.932 -649.973)"/>
</svg>
