<svg xmlns="http://www.w3.org/2000/svg" width="79.133" height="72" viewBox="0 0 79.133 72">
    <defs>
        <style>
            .cls-2{fill:#3a4354}
        </style>
    </defs>
    <g id="Group_122" transform="translate(-1994.101 -3466.112)">
        <path id="Path_105" fill="#e91c24" d="M2072.285 3526.9l-32.138-57.052a7.482 7.482 0 0 0-12.955 0l-32.139 57.052a7.53 7.53 0 0 0 6.478 11.211h64.028c5.979-.248 9.467-6.228 6.726-11.211zm-70.754 3.737l32.138-57.052 32.139 57.052z"/>
        <g id="Group_121">
            <path id="Path_106" d="M2028.437 3499.745l1.994 13.2a3.239 3.239 0 0 0 3.238 2.74 3.448 3.448 0 0 0 3.239-2.74l1.993-13.2a5.182 5.182 0 0 0-5.232-5.979 5.314 5.314 0 0 0-5.232 5.979z" class="cls-2"/>
            <circle id="Ellipse_6" cx="2.99" cy="2.99" r="2.99" class="cls-2" transform="translate(2030.68 3518.43)"/>
        </g>
    </g>
</svg>
