<svg xmlns="http://www.w3.org/2000/svg" width="21.7" height="22.319" viewBox="0 0 21.7 22.319">
    <defs>
        <style>
            .cls-1{fill:#ffffff}
        </style>
    </defs>
    <g id="Group_93" transform="translate(-2554.603 -1598.84)">
        <g id="Group_90">
            <rect id="Rectangle_76" width="9.879" height="1.429" class="cls-1" rx=".714" transform="translate(2559.739 1605.847)"/>
            <rect id="Rectangle_77" width="9.879" height="1.429" class="cls-1" rx=".714" transform="translate(2559.739 1608.887)"/>
            <rect id="Rectangle_78" width="7.299" height="1.429" class="cls-1" rx=".714" transform="translate(2559.739 1611.926)"/>
        </g>
        <g id="Group_92">
            <g id="Group_91">
                <path id="Path_96" d="M2573.366 1621.159a.855.855 0 0 0 .3-.768c-.008-1.2 0-2.4 0-3.628.179.158.343.3.5.441.379.355.757.711 1.132 1.072a.553.553 0 0 0 .892 0 .593.593 0 0 0 .11-.351q.009-5.655 0-11.31v-1.613a6.058 6.058 0 0 0-1.07-3.535 5.957 5.957 0 0 0-1.952-1.823 5.486 5.486 0 0 0-2.275-.764c-.153-.014-.306-.041-.459-.041-3.368 0-6.736-.007-10.1 0a3.051 3.051 0 0 0-1.774.654.536.536 0 0 0-.2.624.5.5 0 0 0 .55.367 1.318 1.318 0 0 0 .435-.195 2.079 2.079 0 0 1 1.138-.364c3.188-.016 6.376-.042 9.564-.038a4.951 4.951 0 0 1 2.91.908 5.042 5.042 0 0 1 2.176 4.143q-.011 5.721 0 11.441v.269a.714.714 0 0 1-.148-.075c-.415-.378-.825-.761-1.242-1.135a.55.55 0 0 1-.189-.45q.011-4.914 0-9.828a3.609 3.609 0 0 0-1.239-2.82 3.158 3.158 0 0 0-1.741-.8 5.113 5.113 0 0 0-.566-.042c-4.062 0-8.125-.009-12.188 0a3.162 3.162 0 0 0-2.135.889 3.538 3.538 0 0 0-1.114 1.927 2.7 2.7 0 0 0-.07.573q-.007 4.7 0 9.392a3.385 3.385 0 0 0 .679 2.005 3.52 3.52 0 0 0 2.153 1.412 2.4 2.4 0 0 0 .5.053q5.487 0 10.976-.007a.894.894 0 0 1 .663.287q.9.857 1.8 1.708c.45.425.9.842 1.358 1.262.056.052.113.1.169.152zm-.766-1.793a1.537 1.537 0 0 1-.2-.134c-.414-.391-.825-.786-1.239-1.178-.351-.333-.705-.663-1.056-.995a1.473 1.473 0 0 0-1.07-.393q-5.52.008-11.04 0a1.147 1.147 0 0 1-.212-.007 2.526 2.526 0 0 1-1.567-.93 2.343 2.343 0 0 1-.55-1.465v-9.088a2.542 2.542 0 0 1 .306-1.294 2.3 2.3 0 0 1 2.057-1.289c4.063-.014 8.125-.006 12.188 0a2.2 2.2 0 0 1 .352.04 2.513 2.513 0 0 1 2.031 2.51q.008 6.963 0 13.926z" class="cls-1"/>
            </g>
        </g>
    </g>
</svg>
