<svg xmlns="http://www.w3.org/2000/svg" width="34.195" height="33.862" viewBox="0 0 34.195 33.862">
    <defs>
        <style>
            .cls-1{fill:#ffffff}
        </style>
    </defs>
    <g id="Group_152" transform="translate(-39.805 -472.411)">
        <path id="Path_38" d="M52.672 498.973l-.971 5.582a.636.636 0 0 1-.63.53H43.62a.636.636 0 0 1-.63-.53l-.97-5.582a13.213 13.213 0 0 0 10.652 0zm-11.291-6.55a.606.606 0 0 1 .251-.052h1.139a.594.594 0 1 0 0-1.188h-1.139a1.82 1.82 0 0 0-1.519.812 1.812 1.812 0 0 0-.308 1.012 1.9 1.9 0 0 0 .027.317v-.005l.81 4.854a.593.593 0 0 0 .066.185l1.113 6.4a1.828 1.828 0 0 0 1.8 1.514h7.451a1.828 1.828 0 0 0 1.8-1.514L54.048 498a.7.7 0 0 0 .008-.09l.8-4.584a1.825 1.825 0 0 0-1.081-1.994 1.832 1.832 0 0 0-.718-.147h-5.533a.594.594 0 1 0 0 1.188h5.536a.606.606 0 0 1 .251.052.644.644 0 0 1 .281.233.634.634 0 0 1 .107.351.6.6 0 0 1-.01.111l-.772 4.4a11.891 11.891 0 0 1-11.184-.024L41 493.123a.619.619 0 0 1-.01-.111.635.635 0 0 1 .388-.584z" class="cls-1"/>
        <path id="Path_39" d="M66.721 498.592a1.715 1.715 0 0 1 .372.865.592.592 0 0 0 .589.518H71.8v2.848H58.97v-2.848h4.118a.592.592 0 0 0 .589-.518 1.717 1.717 0 0 1 1.047-1.367h1.319a1.718 1.718 0 0 1 .675.5zm5.934 6.336a.531.531 0 0 1-.377.157H58.495a.534.534 0 0 1-.535-.534.534.534 0 0 1 .535-.536h13.783a.532.532 0 0 1 .377.157.531.531 0 0 1 0 .756zm-7.95-24.846a.765.765 0 0 1-.09-.365v-5.347a.768.768 0 0 1 .727-.768h.089a.77.77 0 0 1 .728.77v5.347a.755.755 0 0 1-.092.365.784.784 0 0 1-.243.272.759.759 0 0 1-.867 0 .8.8 0 0 1-.244-.272zm-.09 16.82a.588.588 0 0 0-.2.035 2.9 2.9 0 0 0-1.8 1.85h-3.64a1.2 1.2 0 0 0-1.2 1.2v3a1.7 1.7 0 0 0-.507.348 1.723 1.723 0 0 0 1.219 2.941h13.791a1.72 1.72 0 0 0 .712-3.289v-3a1.2 1.2 0 0 0-1.2-1.2h-3.64a2.9 2.9 0 0 0-1.8-1.85.572.572 0 0 0-.2-.035h-.11v-15.338a1.857 1.857 0 0 0 .455-.231 1.953 1.953 0 0 0 .852-1.616v-5.347a1.957 1.957 0 0 0-1.824-1.953h-.276a1.954 1.954 0 0 0-1.821 1.952v5.347a1.953 1.953 0 0 0 .852 1.616 1.883 1.883 0 0 0 .573.269v15.3z" class="cls-1"/>
        <path id="Rectangle_16" d="M0 0H0.001V0.002H0z" class="cls-1" transform="translate(64.277 481.332)"/>
        <path id="Rectangle_17" d="M0 0H0.002V0.001H0z" class="cls-1" transform="translate(66.495 481.333)"/>
    </g>
</svg>
