<svg xmlns="http://www.w3.org/2000/svg" width="22.397" height="20.727" viewBox="0 0 22.397 20.727">
    <defs>
        <style>
            .cls-2{fill:#ffffff}
        </style>
    </defs>
    <g id="Group_296" opacity="0.5" transform="translate(-817.533 -3696.136)">
        <g id="Group_295">
            <g id="Group_293">
                <path id="Path_361" d="M822.672 3716.863a8.677 8.677 0 0 1-3.343-.647l-.033-.014a3.015 3.015 0 0 1-1.489-1.172.719.719 0 0 1-.107-.546.561.561 0 0 1 .3-.373c.311-.148.545.064.735.281a2.9 2.9 0 0 0 .795.635 5.858 5.858 0 0 0 1.965.576 8.443 8.443 0 0 0 3.346-.172 3.211 3.211 0 0 0 1.859-1.078.718.718 0 0 1 .631-.36.505.505 0 0 1 .435.362.713.713 0 0 1-.023.36 2.71 2.71 0 0 1-1.844 1.567 9.3 9.3 0 0 1-3.227.581z" class="cls-2"/>
                <path id="Path_362" d="M822.672 3713.931a8.672 8.672 0 0 1-3.343-.647l-.033-.014a3.019 3.019 0 0 1-1.489-1.171.722.722 0 0 1-.107-.547.564.564 0 0 1 .3-.373c.311-.147.545.064.735.282a2.907 2.907 0 0 0 .795.634 5.855 5.855 0 0 0 1.965.577 8.466 8.466 0 0 0 3.346-.173 3.217 3.217 0 0 0 1.859-1.077.718.718 0 0 1 .631-.361.508.508 0 0 1 .435.363.713.713 0 0 1-.023.36 2.712 2.712 0 0 1-1.844 1.567 9.307 9.307 0 0 1-3.227.58z" class="cls-2"/>
                <path id="Path_363" d="M822.672 3711a8.678 8.678 0 0 1-3.343-.648l-.033-.013a3.017 3.017 0 0 1-1.489-1.172.721.721 0 0 1-.107-.547.566.566 0 0 1 .3-.373c.311-.147.545.065.735.282a2.892 2.892 0 0 0 .795.635 5.858 5.858 0 0 0 1.965.576 8.484 8.484 0 0 0 3.346-.172 3.218 3.218 0 0 0 1.859-1.078.716.716 0 0 1 .631-.36.506.506 0 0 1 .435.362.713.713 0 0 1-.023.36 2.71 2.71 0 0 1-1.844 1.567 9.3 9.3 0 0 1-3.227.581z" class="cls-2"/>
                <path id="Path_364" d="M822.729 3702.6c-2.87 0-5.2 1.223-5.2 2.731s2.326 2.732 5.2 2.732 5.2-1.223 5.2-2.732-2.329-2.731-5.2-2.731zm0 4.424c-2.226 0-4.03-.758-4.03-1.693s1.8-1.693 4.03-1.693 4.031.758 4.031 1.693-1.804 1.692-4.031 1.692z" class="cls-2"/>
            </g>
            <g id="Group_294">
                <path id="Path_365" d="M834.733 3696.136c-2.87 0-5.2 1.223-5.2 2.731s2.327 2.732 5.2 2.732 5.2-1.223 5.2-2.732-2.333-2.731-5.2-2.731zm0 4.424c-2.226 0-4.031-.758-4.031-1.693s1.8-1.692 4.031-1.692 4.031.757 4.031 1.692-1.804 1.693-4.031 1.693z" class="cls-2"/>
                <path id="Path_366" d="M834.676 3716.863a8.677 8.677 0 0 1-3.343-.647l-.033-.014a3.016 3.016 0 0 1-1.489-1.172.72.72 0 0 1-.107-.546.558.558 0 0 1 .3-.373c.311-.148.545.064.735.281a2.9 2.9 0 0 0 .8.635 5.858 5.858 0 0 0 1.965.576 8.443 8.443 0 0 0 3.346-.172 3.211 3.211 0 0 0 1.859-1.078.718.718 0 0 1 .631-.36.5.5 0 0 1 .434.362.712.712 0 0 1-.022.36 2.71 2.71 0 0 1-1.844 1.567 9.3 9.3 0 0 1-3.232.581z" class="cls-2"/>
                <path id="Path_367" d="M834.676 3713.848a8.672 8.672 0 0 1-3.343-.647l-.033-.014a3.015 3.015 0 0 1-1.489-1.172.718.718 0 0 1-.107-.546.559.559 0 0 1 .3-.373c.311-.148.545.064.735.281a2.892 2.892 0 0 0 .8.635 5.846 5.846 0 0 0 1.965.576 8.443 8.443 0 0 0 3.346-.172 3.216 3.216 0 0 0 1.859-1.077.716.716 0 0 1 .631-.361.5.5 0 0 1 .434.362.711.711 0 0 1-.022.36 2.708 2.708 0 0 1-1.844 1.567 9.308 9.308 0 0 1-3.232.581z" class="cls-2"/>
                <path id="Path_368" d="M834.676 3710.833a8.677 8.677 0 0 1-3.343-.647l-.033-.014a3.018 3.018 0 0 1-1.489-1.172.718.718 0 0 1-.107-.546.558.558 0 0 1 .3-.373c.311-.148.545.064.735.282a2.907 2.907 0 0 0 .8.634 5.882 5.882 0 0 0 1.965.577 8.462 8.462 0 0 0 3.346-.173 3.215 3.215 0 0 0 1.859-1.077.717.717 0 0 1 .631-.361.5.5 0 0 1 .434.362.712.712 0 0 1-.022.36 2.711 2.711 0 0 1-1.844 1.568 9.325 9.325 0 0 1-3.232.58z" class="cls-2"/>
                <path id="Path_369" d="M834.676 3707.818a8.677 8.677 0 0 1-3.343-.647l-.033-.014a3.016 3.016 0 0 1-1.489-1.172.719.719 0 0 1-.107-.546.561.561 0 0 1 .3-.373c.311-.148.545.064.735.282a2.907 2.907 0 0 0 .8.634 5.854 5.854 0 0 0 1.965.577 8.462 8.462 0 0 0 3.346-.173 3.216 3.216 0 0 0 1.859-1.077.718.718 0 0 1 .631-.361.505.505 0 0 1 .434.363.712.712 0 0 1-.022.36 2.712 2.712 0 0 1-1.844 1.567 9.336 9.336 0 0 1-3.232.58z" class="cls-2"/>
                <path id="Path_370" d="M834.676 3704.8a8.677 8.677 0 0 1-3.343-.647l-.033-.014a3.014 3.014 0 0 1-1.489-1.171.722.722 0 0 1-.107-.547.561.561 0 0 1 .3-.373c.311-.147.545.065.735.282a2.907 2.907 0 0 0 .8.634 5.848 5.848 0 0 0 1.965.577 8.462 8.462 0 0 0 3.346-.173 3.217 3.217 0 0 0 1.859-1.077.715.715 0 0 1 .631-.36.5.5 0 0 1 .434.362.712.712 0 0 1-.022.36 2.712 2.712 0 0 1-1.844 1.567 9.3 9.3 0 0 1-3.232.58z" class="cls-2"/>
            </g>
        </g>
    </g>
</svg>
