<svg xmlns="http://www.w3.org/2000/svg" width="35.816" height="39.751" viewBox="0 0 35.816 39.751">
    <g>
        <path fill="none" stroke="#1582c8" stroke-miterlimit="10" stroke-width="2px" d="M285.108 941.81a48.381 48.381 0 0 1-.923 9.55 18.175 18.175 0 0 1-2.629 6.623A24.507 24.507 0 0 1 268.7 967.4a1.746 1.746 0 0 1-1.056.005 24.105 24.105 0 0 1-6.888-3.394 23.431 23.431 0 0 1-6.268-6.471 17.216 17.216 0 0 1-2.133-5.284 40.39 40.39 0 0 1-1.037-10.966c.058-1.963.233-3.922.376-5.882.071-.96.357-1.274 1.276-1.53q7.265-2.022 14.527-4.049a2.348 2.348 0 0 1 1.319-.005q7.275 2.04 14.558 4.059a1.4 1.4 0 0 1 1.259 1.508c.167 2.142.317 4.281.475 6.419z" transform="translate(-250.293 -928.737)"/>
        <path fill="#1582c8" d="M266.843 949.668c-.075-.07-.122-.111-.165-.154l-2.713-2.71a.877.877 0 0 0-1.4 0q-.35.347-.693.7a.874.874 0 0 0 .011 1.4q2.106 2.109 4.216 4.216a.887.887 0 0 0 1.467 0q1.036-1.032 2.067-2.067l4.926-4.927a.871.871 0 0 0 0-1.355q-.345-.349-.7-.694a.885.885 0 0 0-1.434-.006q-1.773 1.767-3.54 3.537l-2.042 2.06z" transform="translate(-250.293 -928.737)"/>
    </g>
</svg>
