<svg xmlns="http://www.w3.org/2000/svg" width="18.645" height="18.646" viewBox="0 0 18.645 18.646">
    <defs>
        <style>
            .cls-1{fill:#fff}
        </style>
    </defs>
    <g id="Group_1519" transform="translate(-500.313 -490.565)">
        <path id="Path_1458" d="M509.636 490.565a9.323 9.323 0 1 0 9.322 9.324 9.335 9.335 0 0 0-9.322-9.324zm0 16.772a7.449 7.449 0 1 1 7.448-7.448 7.458 7.458 0 0 1-7.448 7.448z" class="cls-1"/>
        <g id="Group_1518">
            <path id="Path_1459" d="M511.922 496.7l-2.286 2.286-2.287-2.286a.635.635 0 1 0-.9.9l2.287 2.287-2.287 2.287a.635.635 0 0 0 .9.9l2.287-2.287 2.286 2.287a.635.635 0 0 0 .9-.9l-2.287-2.287 2.287-2.287a.635.635 0 1 0-.9-.9z" class="cls-1"/>
            <path id="Path_1460" d="M506.9 503.48a.856.856 0 0 1-.6-1.461l2.13-2.131-2.13-2.13a.856.856 0 1 1 1.21-1.211l2.131 2.131 2.13-2.131a.856.856 0 0 1 1.211 1.21l-2.131 2.132 2.13 2.13a.855.855 0 0 1 0 1.209.856.856 0 0 1-1.211 0l-2.13-2.131-2.131 2.131a.852.852 0 0 1-.609.252zm2.736-3.007l2.442 2.444a.414.414 0 0 0 .586-.586l-2.443-2.442 2.443-2.444a.414.414 0 1 0-.586-.585l-2.442 2.443-2.443-2.443a.414.414 0 1 0-.586.585l2.443 2.443-2.443 2.443a.414.414 0 0 0 .586.586z" class="cls-1"/>
        </g>
    </g>
</svg>
