<svg xmlns="http://www.w3.org/2000/svg" width="21.089" height="21.089" viewBox="0 0 21.089 21.089">
    <defs>
        <style>
            .cls-1{fill:#ffffff}
        </style>
    </defs>
    <g id="Group_278" transform="translate(-1324.677 -4518.983)">
        <path id="Path_334" d="M1335.222 4518.983a10.544 10.544 0 1 0 10.544 10.545 10.558 10.558 0 0 0-10.544-10.545zm0 18.969a8.424 8.424 0 1 1 8.424-8.424 8.435 8.435 0 0 1-8.424 8.424z" class="cls-1"/>
        <g id="Group_277">
            <path id="Path_335" d="M1337.808 4525.926l-2.586 2.586-2.587-2.586a.718.718 0 0 0-1.015 1.015l2.586 2.587-2.586 2.586a.718.718 0 0 0 1.015 1.016l2.587-2.587 2.586 2.587a.718.718 0 0 0 1.015-1.016l-2.586-2.586 2.586-2.587a.718.718 0 0 0-1.015-1.015z" class="cls-1"/>
            <path id="Path_336" d="M1332.128 4533.59a.969.969 0 0 1-.685-1.653l2.41-2.41-2.41-2.409a.968.968 0 0 1 1.369-1.369l2.41 2.41 2.409-2.41a.968.968 0 0 1 1.37 1.368l-2.41 2.411 2.409 2.409a.968.968 0 1 1-1.369 1.37l-2.409-2.411-2.41 2.411a.965.965 0 0 1-.684.283zm3.094-3.4l2.762 2.764a.468.468 0 0 0 .662-.662l-2.762-2.763 2.762-2.763a.468.468 0 0 0-.662-.663l-2.762 2.764-2.763-2.764a.468.468 0 0 0-.662.663l2.763 2.762-2.763 2.764a.468.468 0 0 0 .662.662z" class="cls-1"/>
        </g>
    </g>
</svg>
