<svg xmlns="http://www.w3.org/2000/svg" width="30.942" height="34.438" viewBox="0 0 30.942 34.438">
    <defs>
        <style>
            .cls-1{fill:#1582c8}
        </style>
    </defs>
    <g id="Group_2908" transform="translate(-5177.19 -2072.958)">
        <path id="Path_4012" d="M5190.176 2072.958h.942a.533.533 0 0 0 .12.054 3.224 3.224 0 0 1 2.649 2.414 1.762 1.762 0 0 0 .09.211c1.318 0 2.618.006 3.917 0a1.483 1.483 0 0 1 1.243.543.5.5 0 0 0 .344.127c.717.012 1.435 0 2.152.008a4.5 4.5 0 0 1 .87.046 2 2 0 0 1 1.6 2.077q0 7.849-.006 15.7a.511.511 0 0 0 .333.527 6.7 6.7 0 0 1-1.05 12.4c-.466.146-.954.223-1.431.332h-1.278a2.463 2.463 0 0 0-.253-.065 6.18 6.18 0 0 1-2.724-1.07 1.146 1.146 0 0 0-.713-.217q-8.81.009-17.62 0a2.02 2.02 0 0 1-2.168-2.159v-25.422a2.008 2.008 0 0 1 2.132-2.157c.829-.006 1.659.007 2.488-.009a.619.619 0 0 0 .386-.179 1.408 1.408 0 0 1 1.034-.483h4.082a.647.647 0 0 0 .047-.084c.024-.075.044-.151.068-.225a3.259 3.259 0 0 1 2.4-2.273zm-8.922 7.391V2102h13.554a6.807 6.807 0 0 1 5.232-7.932v-13.717c-.125 0-.226.008-.325 0a.909.909 0 0 0-.762.281 2.287 2.287 0 0 1-.933.382 2.5 2.5 0 0 1-.636.011h-13.921a1.515 1.515 0 0 1-1.3-.558.334.334 0 0 0-.22-.112c-.226-.015-.449-.006-.689-.006zm20.16 14.964a5.292 5.292 0 0 0-5.385 5.392 5.382 5.382 0 0 0 10.763.038 5.285 5.285 0 0 0-5.378-5.43zm-19.531-17.655h-2.483c-.653 0-.862.211-.862.868v25.32c0 .628.226.857.846.857h16.308c.093 0 .186-.013.291-.022-.207-.357-.423-.673-.58-1.016a.464.464 0 0 0-.5-.312q-7.061.012-14.123.006c-.67 0-.892-.218-.892-.88v-22.6c0-.674.206-.877.886-.879h1.115zm16.164-.673h-4.487c-.637 0-.841-.187-.9-.817a2.017 2.017 0 0 0-4.021-.016c-.063.652-.261.833-.921.833h-4.449v2.668h14.781v-2.669zm1.353 2.015h1.1c.716 0 .912.2.912.921v13.988l1.327.132a1.489 1.489 0 0 0 .017-.166v-15.5a.657.657 0 0 0-.737-.721c-.571-.006-1.143 0-1.714 0h-.9z" class="cls-1"/>
        <path id="Path_4013" d="M5185.2 2087.907c-.538 0-1.075.005-1.612 0a.663.663 0 0 1-.745-.747q-.008-1.612 0-3.224a.66.66 0 0 1 .7-.73q1.646-.018 3.291 0a.662.662 0 0 1 .713.72q.011 1.627 0 3.257a.664.664 0 0 1-.736.724c-.536.005-1.073 0-1.611 0zm.977-1.354v-1.987h-1.963v1.987z" class="cls-1"/>
        <path id="Path_4014" d="M5185.183 2094.638c-.526 0-1.052.006-1.578 0a.671.671 0 0 1-.761-.767q-.007-1.595 0-3.19a.668.668 0 0 1 .718-.749q1.627-.021 3.257 0a.681.681 0 0 1 .731.774q.008 1.578 0 3.156a.676.676 0 0 1-.755.776c-.537.007-1.074 0-1.612 0zm-.985-1.372h1.987v-1.966h-1.985z" class="cls-1"/>
        <path id="Path_4015" d="M5194.186 2084.879c-1.176 0-2.353.007-3.529 0a.654.654 0 0 1-.687-.867.644.644 0 0 1 .661-.469c.3-.013.6-.005.908-.005h6.186a.676.676 0 0 1 .721.679.654.654 0 0 1-.73.661c-1.176.006-2.353.002-3.53.001z" class="cls-1"/>
        <path id="Path_4016" d="M5193.24 2087.569c-.873 0-1.747.007-2.621 0a.642.642 0 0 1-.683-.637.662.662 0 0 1 .631-.694 2.18 2.18 0 0 1 .268-.009h4.772a2.248 2.248 0 0 1 .367.022.65.65 0 0 1 .57.679.634.634 0 0 1-.649.635c-.885.013-1.77 0-2.655 0z" class="cls-1"/>
        <path id="Path_4017" d="M5195.7 2091.608c-.683 0-1.367.014-2.05 0a.657.657 0 0 1-.643-.9.665.665 0 0 1 .688-.439c1.344-.006 2.688-.01 4.033 0a.672.672 0 1 1-.012 1.34c-.672.011-1.344 0-2.016 0z" class="cls-1"/>
        <path id="Path_4018" d="M5192.113 2094.3c-.482 0-.963.008-1.445 0a.671.671 0 1 1-.016-1.337c1-.012 1.993-.013 2.99 0a.668.668 0 1 1-.017 1.334c-.504.013-1.008.003-1.512.003z" class="cls-1"/>
        <path id="Path_4019" d="M5190.586 2091.6a.649.649 0 0 1-.652-.669.665.665 0 0 1 .667-.662.651.651 0 0 1 .66.694.637.637 0 0 1-.675.637z" class="cls-1"/>
        <path id="Path_4020" d="M5200.569 2101.4l2.613-2.615c.1-.1.2-.212.312-.305a.666.666 0 0 1 .942.938c-.206.235-.437.449-.659.671l-2.614 2.614a.708.708 0 0 1-1.18 0q-.739-.735-1.473-1.474a.7.7 0 0 1-.1-1.037c.292-.3.693-.267 1.059.1s.722.73 1.1 1.108z" class="cls-1"/>
        <path id="Path_4021" d="M5190.644 2075.643a.649.649 0 0 1 .67.644.668.668 0 1 1-1.336 0 .65.65 0 0 1 .666-.644z" class="cls-1"/>
    </g>
</svg>
