<svg xmlns="http://www.w3.org/2000/svg" width="14.708" height="14.228" viewBox="0 0 14.708 14.228">
    <g>
        <path fill="none" stroke="#3a4354" stroke-miterlimit="10" d="M1709.679 214.031a6.618 6.618 0 1 0 6.854 6.614 6.737 6.737 0 0 0-6.854-6.614z" transform="translate(-1702.325 -213.531)"/>
        <path fill="#3a4354" d="M1710.464 220.783l1.565-1.564a.638.638 0 0 0-.9-.9l-1.564 1.564-1.565-1.566a.653.653 0 0 0-.9 0 .636.636 0 0 0 0 .9l1.565 1.564-1.564 1.564a.638.638 0 1 0 .9.9l1.564-1.564 1.564 1.564a.639.639 0 0 0 .9 0 .64.64 0 0 0 0-.9z" transform="translate(-1702.325 -213.531)"/>
    </g>
</svg>
