<svg xmlns="http://www.w3.org/2000/svg" width="12.571" height="17.382" viewBox="0 0 12.571 17.382">
    <defs>
        <style>
            .cls-1{fill:#516575}
        </style>
    </defs>
    <g id="Group_563" transform="translate(-672.764 -365.895)">
        <path id="Path_1196" d="M675.646 371.447h-.007a.387.387 0 0 0-.276.121.393.393 0 0 0 .01.555l.845.812a.386.386 0 0 0 .273.11h.017a.382.382 0 0 0 .278-.131l1.2-1.367a.393.393 0 1 0-.589-.519l-.933 1.058-.55-.528a.384.384 0 0 0-.268-.111z" class="cls-1"/>
        <path id="Path_1197" d="M678.7 372.363h3.539a.393.393 0 0 0 0-.786H678.7a.393.393 0 0 0 0 .786z" class="cls-1"/>
        <path id="Path_1198" d="M677.4 373.975l-.935 1.057-.55-.529a.391.391 0 0 0-.273-.11h-.008a.392.392 0 0 0-.264.675l.844.811a.384.384 0 0 0 .274.112h.015a.387.387 0 0 0 .28-.132l1.206-1.363a.393.393 0 0 0-.589-.521z" class="cls-1"/>
        <path id="Path_1199" d="M678.7 375.3h3.539a.393.393 0 1 0 0-.785H678.7a.393.393 0 1 0 0 .785z" class="cls-1"/>
        <path id="Path_1200" d="M678.7 378.339h1.787a.393.393 0 0 0 0-.785H678.7a.393.393 0 1 0 0 .785z" class="cls-1"/>
        <path id="Path_1201" d="M677.4 376.786h-1.536a.393.393 0 0 0-.393.392v1.537a.393.393 0 0 0 .393.392h1.536a.393.393 0 0 0 .392-.392v-1.537a.393.393 0 0 0-.392-.392zm-1.144 1.535v-.75H677v.75z" class="cls-1"/>
        <path id="Path_1202" d="M684.609 367.165h-4.143a1.426 1.426 0 0 0-.444-.885 1.381 1.381 0 0 0-1.072-.38 1.445 1.445 0 0 0-1.319 1.265h-4.141a.727.727 0 0 0-.726.727v14.658a.727.727 0 0 0 .726.727h11.119a.727.727 0 0 0 .726-.727v-14.658a.727.727 0 0 0-.726-.727zm-6.184.3a.622.622 0 0 1 .11-.52.629.629 0 0 1 .473-.263.646.646 0 0 1 .666.781.385.385 0 0 0 .075.336.4.4 0 0 0 .306.15h1.462v1.2h-4.934v-1.2h1.463a.393.393 0 0 0 .379-.485zm3.317 2.469a.561.561 0 0 0 .56-.56v-.423h1.246v9.866h-2.278a.393.393 0 0 0-.393.393v2.278h-6.326v-12.536h1.249v.423a.56.56 0 0 0 .559.56zm-5.944-1.768h-1.64a.394.394 0 0 0-.393.393v13.322a.394.394 0 0 0 .393.393h7.112a.392.392 0 0 0 .277-.115l2.674-2.673a.409.409 0 0 0 .113-.276v-10.65a.393.393 0 0 0-.393-.393H682.3v-.216h2.248v14.54h-11v-14.54h2.252zm5.864 12.767V379.6h1.331z" class="cls-1"/>
    </g>
</svg>
