<svg xmlns="http://www.w3.org/2000/svg" width="12.848" height="14.73" viewBox="0 0 12.848 14.73">
    <defs>
        <style>
            .cls-1{fill:#ffffff}
        </style>
    </defs>
    <g id="Group_13" transform="translate(-1755.883 -220.077)">
        <g id="Group_12">
            <path id="Path_11" d="M1768.309 223.175l-3-2.7a1.168 1.168 0 0 0-.756-.292h-8.053a.491.491 0 0 0-.514.465v13.589a.491.491 0 0 0 .514.466h11.614a.49.49 0 0 0 .513-.466V224a.97.97 0 0 0-.318-.825zm-.669 1.866v8.678h-10.587v-12.593h6.335c.227 0 .278.046.278.237v2.694a.772.772 0 0 0 .807.732h2.852c.275 0 .315.092.315.252zm-.265-1.05h-2.341a.49.49 0 0 1-.513-.466v-2.055c0-.264.2-.287.4-.109l2.537 2.3c.182.178.094.33-.083.33z" class="cls-1"/>
            <path id="Path_12" d="M1768.113 234.807H1756.5a.6.6 0 0 1-.616-.57v-13.59a.6.6 0 0 1 .616-.57h8.05a1.269 1.269 0 0 1 .826.32l3.009 2.705a1.071 1.071 0 0 1 .347.9v10.237a.6.6 0 0 1-.619.568zm-11.613-14.521a.388.388 0 0 0-.409.361v13.59a.388.388 0 0 0 .409.361h11.614a.389.389 0 0 0 .411-.361V224a.865.865 0 0 0-.287-.749l-3-2.7a1.062 1.062 0 0 0-.687-.265zm11.245 13.537h-10.795v-12.8h6.438c.242 0 .381.056.381.341v2.694a.67.67 0 0 0 .7.628h2.852c.3 0 .419.1.419.356zm-10.587-.208h10.379v-8.574c0-.108 0-.148-.211-.148h-2.852a.876.876 0 0 1-.911-.836v-2.694c0-.128 0-.133-.174-.133h-6.231zm10.219-9.52h-2.342a.6.6 0 0 1-.617-.57v-2.055a.3.3 0 0 1 .161-.306.394.394 0 0 1 .413.12l2.537 2.3c.17.165.139.3.118.353a.277.277 0 0 1-.271.163zm-2.692-2.744a.061.061 0 0 0-.022 0c-.023.01-.037.055-.037.116v2.055a.388.388 0 0 0 .409.362h2.342c.043 0 .072-.015.077-.028s-.005-.063-.067-.123l-2.535-2.3a.278.278 0 0 0-.168-.082z" class="cls-1"/>
        </g>
    </g>
</svg>
