<svg xmlns="http://www.w3.org/2000/svg" width="37.959" height="36.493" viewBox="0 0 37.959 36.493">
    <defs>
        <style>
            .cls-1{fill:#ffffff}
        </style>
    </defs>
    <g id="Group_93" transform="translate(-1182.263 -607.497)">
        <g id="Group_92">
            <path id="Path_130" d="M1182.263 639.91a.837.837 0 0 1 1.5-.01 1.6 1.6 0 0 1 .13.595 2.15 2.15 0 0 0 2.111 1.87q15.273-.021 30.544 0a2.113 2.113 0 0 0 2.048-1.851c.024-.39.07-.78.07-1.17q.008-8.229 0-16.458a2.188 2.188 0 0 0-2.111-2.384q-8.637-.025-17.274-.01a1.476 1.476 0 0 1-1.255-.566c-.658-.792-1.4-1.512-2.1-2.273-.9-.985-1.789-1.979-2.679-2.973a1.1 1.1 0 0 0-.908-.432c-2.026.031-4.053.017-6.079.013a2.312 2.312 0 0 0-2.043.969 2.491 2.491 0 0 0-.389 1.487q-.02 7.34 0 14.679c0 .417-.017.821-.431 1.008a.921.921 0 0 1-1.132-.349v-16.388c.019-.013.052-.024.055-.04a3.744 3.744 0 0 1 3.787-2.992c2.309-.031 4.619-.019 6.929.007a1.322 1.322 0 0 1 .841.331c.623.62 1.179 1.3 1.774 1.954.7.76 1.41 1.5 2.108 2.263.355.386.7.786 1.039 1.183a1.236 1.236 0 0 0 1.029.5q8.393-.036 16.785-.007a3.386 3.386 0 0 1 2.941 1.584 11.8 11.8 0 0 1 .671 1.373v19.2a.427.427 0 0 0-.072.112 3.863 3.863 0 0 1-1.213 1.961 3.458 3.458 0 0 1-2.287.887q-15.39.014-30.779 0a3.386 3.386 0 0 1-2.938-1.586 11.272 11.272 0 0 1-.67-1.373z" class="cls-1"/>
            <path id="Path_131" d="M1220.222 617.817a.942.942 0 0 1-.888.406c-.487-.1-.707-.36-.734-1.012a2.075 2.075 0 0 0-1.8-1.845c-.341-.005-.681-.066-1.022-.067-5.46 0-10.921-.025-16.381.022a2.006 2.006 0 0 1-1.653-.817c-.339-.385-.667-.779-1.014-1.156-.7-.759-1.408-1.507-2.109-2.263-.533-.575-1.05-1.166-1.6-1.727a.776.776 0 0 0-.5-.206q-3.336-.021-6.672-.005a2.093 2.093 0 0 0-1.962 1.784c-.044.326-.02.693-.319.931a.869.869 0 0 1-1.306-.273v-1.112a11.14 11.14 0 0 1 .671-1.373 3.409 3.409 0 0 1 2.941-1.585c2.322-.025 4.646.014 6.968-.022a1.633 1.633 0 0 1 1.359.647c.342.4.683.8 1.039 1.184.715.776 1.447 1.538 2.16 2.317.578.63 1.132 1.283 1.714 1.91a.6.6 0 0 0 .4.106q3.281.009 6.561 0c3.41 0 6.819-.016 10.229.007a3.782 3.782 0 0 1 3.6 2.169 8.444 8.444 0 0 1 .323.864z" class="cls-1"/>
        </g>
    </g>
</svg>
