<svg xmlns="http://www.w3.org/2000/svg" xmlns:xlink="http://www.w3.org/1999/xlink" width="13.167" height="14.404" viewBox="0 0 13.167 14.404">
    <defs>
        <linearGradient id="emmqcs8tya" x2="1" y1=".5" y2=".5" gradientUnits="objectBoundingBox">
            <stop offset="0" stop-color="#3a4354"/>
            <stop offset="1" stop-color="#3a4354"/>
        </linearGradient>
        <linearGradient id="4q2a9kzvjb" x1="0" x2="1" y1=".5" y2=".5" xlink:href="#emmqcs8tya"/>
    </defs>
    <g>
        <path fill="url(#emmqcs8tya)" d="M1092.15 171.991l.148-.217a1.664 1.664 0 0 0 .261-1.672 1 1 0 0 0-.9-.506h-10.805a1 1 0 0 0-.9.506 1.665 1.665 0 0 0 .264 1.675l3.5 5.112V184l1.138-.257v-7.107c-3.806-5.567-3.827-5.607-3.835-5.625l-.171-.334h10.807l-.17.334c-.008.016-.03.057-3.77 5.529v6.54l1.137-.266v-4.422c.055 0 .114.005.179.005a3.962 3.962 0 0 0 3.958-3.958 3.923 3.923 0 0 0-.841-2.448zm-3.112 5.652c-.074 0-.131 0-.179-.005v-.844l2.839-4.144a3.206 3.206 0 0 1-2.66 4.993z" transform="translate(-1079.829 -169.596)"/>
        <path fill="url(#4q2a9kzvjb)" d="M1085.691 173.2a2.882 2.882 0 0 0-2.27-.056l2.149 3.137v4.915l1.377-.312v-4.636l2.057-3a5.457 5.457 0 0 1-3.313-.048z" transform="translate(-1079.829 -169.596)"/>
    </g>
</svg>
