<svg xmlns="http://www.w3.org/2000/svg" width="35.944" height="35.879" viewBox="0 0 35.944 35.879">
    <defs>
        <style>
            .cls-1{fill:#1582c8}
        </style>
    </defs>
    <g id="Group_71" transform="translate(-880.088 -245.053)">
        <path id="Path_111" d="M898.09 275.883a86.81 86.81 0 0 1-6.069-10.477 29.775 29.775 0 0 1-2.829-9.86 9.793 9.793 0 0 1 5.316-9.716 8.745 8.745 0 0 1 11.943 5.476 14.25 14.25 0 0 1-.091 7.9 43.03 43.03 0 0 1-5.38 12.04c-.907 1.517-1.866 2.999-2.89 4.637zm.034-17.678a4.229 4.229 0 0 0 4.145-4.2 4.2 4.2 0 0 0-8.393.021 4.23 4.23 0 0 0 4.248 4.174z" class="cls-1"/>
        <path id="Path_112" d="M892.4 271.108a27.476 27.476 0 0 0-7.87 1.882 8.1 8.1 0 0 0-1.77 1.067c-.613.49-.63 1.032.021 1.455a15.268 15.268 0 0 0 2.913 1.515 30.135 30.135 0 0 0 8.294 1.569 45.561 45.561 0 0 0 13.333-.729 26.046 26.046 0 0 0 5.216-1.781c1.744-.8 1.711-1.66.058-2.605a21.007 21.007 0 0 0-6.959-2.119c-.58-.1-1.168-.159-1.88-.253.353-.641.675-1.258 1.039-1.849a.554.554 0 0 1 .458-.133 23.645 23.645 0 0 1 8.169 2.316 7.274 7.274 0 0 1 1.708 1.294 2.813 2.813 0 0 1-.06 4.179 10.41 10.41 0 0 1-4.656 2.437 45.392 45.392 0 0 1-15.179 1.492 33.435 33.435 0 0 1-10.857-1.981 12.33 12.33 0 0 1-3.312-2.021 2.68 2.68 0 0 1-.124-4.039 8.641 8.641 0 0 1 4.234-2.4c1.8-.512 3.645-.834 5.467-1.256a.716.716 0 0 1 .951.49c.212.485.506.936.806 1.47z" class="cls-1"/>
    </g>
</svg>
