<svg xmlns="http://www.w3.org/2000/svg" width="55.378" height="51.223" viewBox="0 0 55.378 51.223">
    <defs>
        <style>
            .cls-1{fill:#ffffff}
        </style>
    </defs>
    <g id="Group_111" data-name="Group 111" transform="translate(-41.522 -132.245)">
        <path id="Path_151" data-name="Path 151" class="cls-1" d="m96.043 141.309-26.425-9a1.261 1.261 0 0 0-.814 0l-26.426 9a1.264 1.264 0 0 0-.856 1.2v30.7a1.262 1.262 0 0 0 .857 1.2l26.425 9a1.27 1.27 0 0 0 .814 0l26.425-9a1.261 1.261 0 0 0 .857-1.2v-30.7a1.263 1.263 0 0 0-.857-1.2zm-28.1 11.1v28.031l-23.9-8.136V144.27zm26.426-8.136V172.3l-23.9 8.136v-28.03zm-34.094-6.387 8.932-3.041 22.506 7.663-8.932 3.041zm18.587 9-9.655 3.288-22.506-7.663 9.655-3.288z"/>
        <path id="Path_152" data-name="Path 152" class="cls-1" d="m46.9 171.147 10.82 3.645a1.266 1.266 0 0 0 .4.067 1.251 1.251 0 0 0 .737-.238 1.267 1.267 0 0 0 .527-1.026v-8.354a1.263 1.263 0 0 0-.859-1.2l-10.819-3.665a1.262 1.262 0 0 0-1.668 1.2v8.375a1.263 1.263 0 0 0 .862 1.196zm1.667-2.1v-5.706l8.292 2.81v5.69z"/>
    </g>
</svg>
