<svg width="512" height="512" viewBox="0 0 512 512" fill="none" xmlns="http://www.w3.org/2000/svg">
<path d="M128 244.364H81.4551C74.4731 244.364 69.8191 249.019 69.8191 256C69.8191 262.982 74.4741 267.636 81.4551 267.636H128C134.982 267.636 139.636 262.981 139.636 256C139.636 249.018 134.982 244.364 128 244.364Z" fill="white"/>
<path d="M407.273 104.727H290.909C283.927 104.727 279.273 109.382 279.273 116.363C279.273 123.344 283.927 128 290.909 128H407.273C452.655 128 488.728 164.073 488.728 209.455V349.091C488.728 356.073 484.073 360.727 477.092 360.727H34.909C27.927 360.727 23.273 356.072 23.273 349.091V209.455C23.273 164.073 59.346 128 104.728 128C150.11 128 186.183 164.073 186.183 209.455V325.819C186.183 332.801 190.838 337.455 197.819 337.455C204.8 337.455 209.455 332.8 209.455 325.819V209.455C209.455 176.873 194.328 147.782 169.891 128H232.727V256C232.727 262.982 237.382 267.636 244.363 267.636C251.344 267.636 256 262.982 256 256V46.545C256 39.563 260.655 34.909 267.636 34.909H337.454C344.436 34.909 349.09 39.564 349.09 46.545C349.09 53.526 344.435 58.181 337.454 58.181H290.909C283.927 58.181 279.273 62.836 279.273 69.817C279.273 76.798 283.928 81.453 290.909 81.453H337.454C357.236 81.453 372.363 66.326 372.363 46.544C372.363 26.762 357.236 11.635 337.454 11.635H267.636C247.854 11.635 232.727 26.762 232.727 46.544V104.726H104.727C46.545 104.727 0 151.273 0 209.455V349.091C0 368.873 15.127 384 34.909 384H197.818V407.273C197.818 414.255 202.473 418.909 209.454 418.909H221.09V488.727C221.09 495.709 225.745 500.363 232.726 500.363C239.707 500.363 244.362 495.708 244.362 488.727V418.909H267.635V488.727C267.635 495.709 272.29 500.363 279.271 500.363C286.253 500.363 290.907 495.708 290.907 488.727V418.909H302.543C309.525 418.909 314.179 414.254 314.179 407.273V384H477.088C496.873 384 512 368.873 512 349.091V209.455C512 151.273 465.455 104.727 407.273 104.727ZM290.909 395.636H221.091V384H290.909V395.636Z" fill="white"/>
</svg>
