<?xml version="1.0" encoding="iso-8859-1"?>
<!-- Generator: Adobe Illustrator 19.0.0, SVG Export Plug-In . SVG Version: 6.00 Build 0)  -->
<svg version="1.1" id="Layer_1" xmlns="http://www.w3.org/2000/svg" xmlns:xlink="http://www.w3.org/1999/xlink" x="0px" y="0px"
	 viewBox="0 0 512 512" style="enable-background:new 0 0 512 512;" xml:space="preserve">
<g>
	<g>
		<path d="M128,244.364H81.455c-6.982,0-11.636,4.655-11.636,11.636c0,6.982,4.655,11.636,11.636,11.636H128
			c6.982,0,11.636-4.655,11.636-11.636C139.636,249.018,134.982,244.364,128,244.364z"/>
	</g>
</g>
<g>
	<g>
		<path d="M407.273,104.727H290.909c-6.982,0-11.636,4.655-11.636,11.636S283.927,128,290.909,128h116.364
			c45.382,0,81.455,36.073,81.455,81.455v139.636c0,6.982-4.655,11.636-11.636,11.636H34.909c-6.982,0-11.636-4.655-11.636-11.636
			V209.455c0-45.382,36.073-81.455,81.455-81.455c45.382,0,81.455,36.073,81.455,81.455v116.364c0,6.982,4.655,11.636,11.636,11.636
			s11.636-4.655,11.636-11.636V209.455c0-32.582-15.127-61.673-39.564-81.455h62.836v128c0,6.982,4.655,11.636,11.636,11.636
			S256,262.982,256,256V46.545c0-6.982,4.655-11.636,11.636-11.636h69.818c6.982,0,11.636,4.655,11.636,11.636
			s-4.655,11.636-11.636,11.636h-46.545c-6.982,0-11.636,4.655-11.636,11.636s4.655,11.636,11.636,11.636h46.545
			c19.782,0,34.909-15.127,34.909-34.909c0-19.782-15.127-34.909-34.909-34.909h-69.818c-19.782,0-34.909,15.127-34.909,34.909
			v58.182h-128C46.545,104.727,0,151.273,0,209.455v139.636C0,368.873,15.127,384,34.909,384h162.909v23.273
			c0,6.982,4.655,11.636,11.636,11.636h11.636v69.818c0,6.982,4.655,11.636,11.636,11.636s11.636-4.655,11.636-11.636v-69.818
			h23.273v69.818c0,6.982,4.655,11.636,11.636,11.636c6.982,0,11.636-4.655,11.636-11.636v-69.818h11.636
			c6.982,0,11.636-4.655,11.636-11.636V384h162.909C496.873,384,512,368.873,512,349.091V209.455
			C512,151.273,465.455,104.727,407.273,104.727z M290.909,395.636h-69.818V384h69.818V395.636z"/>
	</g>
</g>
<g>
</g>
<g>
</g>
<g>
</g>
<g>
</g>
<g>
</g>
<g>
</g>
<g>
</g>
<g>
</g>
<g>
</g>
<g>
</g>
<g>
</g>
<g>
</g>
<g>
</g>
<g>
</g>
<g>
</g>
</svg>
