<svg xmlns="http://www.w3.org/2000/svg" width="16.843" height="15.153" viewBox="0 0 16.843 15.153">
    <defs>
        <style>
            .cls-1{fill:#3a4354}
        </style>
    </defs>
    <g id="Group_121" transform="translate(-1080.052 -602.847)">
        <g id="Group_120">
            <path id="Path_411" d="M1080.052 614.044l.16-.613a2.929 2.929 0 0 1 .54-1.053 3.46 3.46 0 0 1 1.905-1.266.172.172 0 0 0 .089-.122.37.37 0 0 1 .357-.333q.435-.008.872 0a.384.384 0 0 1 .357.336.173.173 0 0 0 .093.119 3.392 3.392 0 0 1 1.076.5c.1.077.176.075.257-.027a1.142 1.142 0 0 1 .159-.142l-.052-.013a1.379 1.379 0 0 1-.031-.41.374.374 0 0 1 .609-.188 7.686 7.686 0 0 1 .641.636.408.408 0 0 1-.032.53.417.417 0 0 1-.548.013l-.263.271a3.24 3.24 0 0 1 .65 1.215 3.5 3.5 0 0 1-.108 2.316 3.5 3.5 0 0 1-3.584 2.175 3.473 3.473 0 0 1-2.829-2 8.037 8.037 0 0 1-.287-.966.206.206 0 0 0-.031-.05zm.79.463a2.7 2.7 0 0 0 5.394.137 2.7 2.7 0 1 0-5.394-.137z" class="cls-1"/>
            <path id="Path_412" d="M1096.9 614.6a.631.631 0 0 1-.58.231h-7.316a.462.462 0 0 1-.462-.2.408.408 0 0 1 .377-.617H1096.098v-9.89h-1.386a.39.39 0 0 1-.773-.1v-.806a.37.37 0 0 1 .29-.359.392.392 0 0 1 .467.269l.05.191c.561 0 1.12.012 1.678-.006a.5.5 0 0 1 .476.236z" class="cls-1"/>
            <path id="Path_413" d="M1084.924 603.32a.388.388 0 0 1 .64-.37.454.454 0 0 1 .145.355c.005.23 0 .461 0 .691a.441.441 0 0 1-.279.442c-.242.049-.368-.021-.495-.258a.146.146 0 0 0-.107-.068h-1.323v4.9c0 .316-.178.448-.4.451a.4.4 0 0 1-.4-.453c.005-1.742 0-3.485 0-5.228 0-.327.132-.458.46-.458z" class="cls-1"/>
            <path id="Path_414" d="M1093.405 606.774h-.9a.4.4 0 0 1-.41-.368.394.394 0 0 1 .374-.419c.618-.007 1.237-.008 1.856 0a.406.406 0 0 1 .4.407.4.4 0 0 1-.431.379z" class="cls-1"/>
            <path id="Path_415" d="M1089.789 606.774h-.871a.376.376 0 0 1-.412-.363.4.4 0 0 1 .4-.425q.9-.006 1.792 0a.4.4 0 1 1-.007.789c-.299-.005-.6-.001-.902-.001z" class="cls-1"/>
            <path id="Path_416" d="M1093.4 612.136h-.854c-.263 0-.459-.155-.45-.374a.393.393 0 0 1 .442-.416h1.74a.414.414 0 0 1 .444.392.409.409 0 0 1-.436.4c-.296-.009-.592-.002-.886-.002z" class="cls-1"/>
            <path id="Path_417" d="M1089.817 608.682h.936a.338.338 0 0 1 .352.263.411.411 0 0 1-.225.488.825.825 0 0 1-.237.037c-.547 0-1.095.006-1.642 0-.269 0-.424-.1-.481-.3a.374.374 0 0 1 .361-.491z" class="cls-1"/>
            <path id="Path_418" d="M1089.814 612.136h-.9a.369.369 0 0 1-.4-.389.386.386 0 0 1 .393-.4q.9-.006 1.809 0a.4.4 0 1 1-.008.789c-.302-.003-.598 0-.894 0z" class="cls-1"/>
            <path id="Path_419" d="M1086.2 606.774h-.872a.374.374 0 0 1-.411-.38.378.378 0 0 1 .4-.408h1.793a.383.383 0 0 1 .409.43.378.378 0 0 1-.414.359z" class="cls-1"/>
            <path id="Path_420" d="M1093.407 608.682h.936a.378.378 0 0 1 .378.358.41.41 0 0 1-.271.4.84.84 0 0 1-.222.034c-.547 0-1.095.009-1.642 0-.312-.007-.416-.106-.474-.319a.365.365 0 0 1 .343-.468z" class="cls-1"/>
            <path id="Path_421" d="M1086.227 608.682h.937a.367.367 0 0 1 .355.295.382.382 0 0 1-.275.461 1.211 1.211 0 0 1-.255.032h-1.561a.53.53 0 0 1-.388-.12.388.388 0 0 1-.092-.445.354.354 0 0 1 .375-.226c.301.01.603.003.904.003z" class="cls-1"/>
            <path id="Path_422" d="M1087.238 603.652c-.016.155-.02.313-.049.466-.048.248-.168.327-.444.32a.311.311 0 0 1-.307-.321 7.4 7.4 0 0 1 0-.954.329.329 0 0 1 .374-.3.344.344 0 0 1 .375.306c.029.155.035.318.051.483z" class="cls-1"/>
            <path id="Path_423" d="M1089.427 603.645v-.345c0-.254.12-.425.308-.44.268-.023.454.1.472.361a4.646 4.646 0 0 1-.031.943c-.031.226-.176.3-.449.274a.363.363 0 0 1-.3-.366v-.427z" class="cls-1"/>
            <path id="Path_424" d="M1091.7 603.645v.361c0 .242-.118.414-.3.432-.287.028-.446-.058-.478-.364a4.814 4.814 0 0 1 .027-.944c.018-.2.226-.3.46-.27a.369.369 0 0 1 .291.358v.427z" class="cls-1"/>
            <path id="Path_425" d="M1088.7 603.666v.378a.393.393 0 0 1-.785.02c-.014-.279-.012-.559 0-.838a.379.379 0 0 1 .424-.367.375.375 0 0 1 .362.4l-.001.407z" class="cls-1"/>
            <path id="Path_426" d="M1093.21 603.651c0 .125-.007.252 0 .376a.4.4 0 0 1-.293.41c-.258.042-.444-.046-.469-.292a5.411 5.411 0 0 1 .011-1.034c.018-.189.213-.278.425-.251a.388.388 0 0 1 .323.348c.008.148.003.292.003.443z" class="cls-1"/>
            <path id="Path_427" d="M1083.934 614.11c.141 0 .261.005.38 0a.385.385 0 0 1 .425.37.381.381 0 0 1-.39.418q-.419.015-.837 0a.384.384 0 0 1-.368-.407v-1.427a.4.4 0 0 1 .394-.433.422.422 0 0 1 .4.443z" class="cls-1"/>
        </g>
    </g>
</svg>
