<svg xmlns="http://www.w3.org/2000/svg" width="23.548" height="23.948" viewBox="0 0 23.548 23.948">
    <defs>
        <style>
            .cls-1{fill:#ffffff}
        </style>
    </defs>
    <g id="Group_20" transform="translate(-361.452 -206.612)">
        <g id="Group_19">
            <path id="Path_46" d="M375.126 229.721h-3.361a.525.525 0 0 1-.52-.45l-.371-2.563-.034-.01a.525.525 0 1 1 .307-1c.108.032.218.064.329.092a.525.525 0 0 1 .388.433l.355 2.452h2.452l.355-2.452a.527.527 0 0 1 .389-.433 7.816 7.816 0 0 0 2.025-.838.525.525 0 0 1 .582.031l1.984 1.482 1.734-1.734-1.482-1.984a.526.526 0 0 1-.032-.581 7.805 7.805 0 0 0 .839-2.026.523.523 0 0 1 .433-.388l2.452-.355v-2.452l-2.452-.355a.526.526 0 0 1-.433-.389 7.785 7.785 0 0 0-.839-2.025.527.527 0 0 1 .032-.582l1.482-1.984-1.734-1.734-1.984 1.482a.527.527 0 0 1-.582.032 7.785 7.785 0 0 0-2.025-.839.526.526 0 0 1-.389-.433l-.355-2.452h-2.452l-.355 2.452a.523.523 0 0 1-.388.433 7.805 7.805 0 0 0-2.026.839.526.526 0 0 1-.581-.032l-1.984-1.482-1.734 1.734 1.482 1.984a.525.525 0 0 1 .031.582 7.817 7.817 0 0 0-.838 2.025.527.527 0 0 1-.433.389l-2.452.355v2.452l2.452.355a.525.525 0 0 1 .433.388c.06.232.131.464.211.688a.525.525 0 1 1-.989.354c-.052-.144-.1-.292-.144-.44l-2.563-.371a.525.525 0 0 1-.45-.52v-3.361a.525.525 0 0 1 .45-.52l2.563-.371a8.784 8.784 0 0 1 .683-1.65l-1.55-2.075a.524.524 0 0 1 .05-.685l2.376-2.377a.525.525 0 0 1 .686-.05l2.074 1.55a8.89 8.89 0 0 1 1.651-.683l.371-2.563a.525.525 0 0 1 .52-.45h3.361a.526.526 0 0 1 .52.45l.371 2.563a8.853 8.853 0 0 1 1.65.683l2.075-1.55a.524.524 0 0 1 .685.05l2.377 2.377a.524.524 0 0 1 .05.685l-1.55 2.075a8.852 8.852 0 0 1 .683 1.65l2.563.371a.526.526 0 0 1 .45.52v3.361a.525.525 0 0 1-.45.52l-2.563.371a8.89 8.89 0 0 1-.683 1.651l1.55 2.074a.525.525 0 0 1-.05.686l-2.377 2.376a.524.524 0 0 1-.685.05l-2.075-1.55a8.785 8.785 0 0 1-1.65.683l-.371 2.563a.525.525 0 0 1-.52.446z" class="cls-1"/>
            <path id="Path_47" d="M363.88 230.56a2.1 2.1 0 0 1-1.486-.614l-.328-.328a2.1 2.1 0 0 1 0-2.971l6.8-6.8a5.042 5.042 0 0 1 5.777-6.461.991.991 0 0 1 .759.681.973.973 0 0 1-.244.974l-2.016 2.016 1.814 1.814 2.016-2.016a.97.97 0 0 1 .974-.243.988.988 0 0 1 .681.758 5.042 5.042 0 0 1-6.461 5.777l-6.8 6.8a2.094 2.094 0 0 1-1.486.613zm9.79-16.214a3.99 3.99 0 0 0-3.8 5.214.982.982 0 0 1-.234 1l-6.829 6.829a1.051 1.051 0 0 0 0 1.486l.328.328a1.051 1.051 0 0 0 1.486 0l6.829-6.829a.982.982 0 0 1 1-.234 3.991 3.991 0 0 0 5.162-4.443l-1.971 1.972a.978.978 0 0 1-1.382 0l-1.918-1.918a.978.978 0 0 1 0-1.382l1.972-1.971a4.018 4.018 0 0 0-.643-.052z" class="cls-1"/>
        </g>
    </g>
</svg>
