<svg xmlns="http://www.w3.org/2000/svg" width="23.931" height="20.908" viewBox="0 0 23.931 20.908">
    <defs>
        <style>
            .cls-1{fill:#ffffff}
        </style>
    </defs>
    <g id="Group_1194" transform="translate(-599.636 -131.092)">
        <path id="Path_1345" d="M614.246 132.688l.967-.963c.109-.108.216-.217.326-.324a1.017 1.017 0 0 1 1.467.007c.5.495.985.995 1.478 1.492l.542.548a.546.546 0 0 1 .132.762.96.96 0 0 0 1.294 1.293.535.535 0 0 1 .748.121q1 1 2.012 2a1.016 1.016 0 0 1 .018 1.526c-.534.541-1.074 1.075-1.611 1.613l-7.3 7.314q-1.528 1.531-3.06 3.063a1.01 1.01 0 0 1-1.535-.007c-.249-.253-.5-.5-.749-.753l-1.021 1.008c-.093.092-.182.189-.274.282a1 1 0 0 1-1.465.019c-.691-.685-1.373-1.379-2.057-2.071a.539.539 0 0 1-.116-.738.947.947 0 0 0-.779-1.4 1.179 1.179 0 0 0-.519.109.549.549 0 0 1-.726-.116q-1.035-1.029-2.068-2.061a1.008 1.008 0 0 1 .017-1.479q1.281-1.283 2.563-2.564l7.774-7.791 1.657-1.659a1.019 1.019 0 0 1 1.5.014c.253.257.515.497.785.755zm-1.494-.056c-.646.641-2.608 2.537-2.775 2.705q-4.587 4.618-9.193 9.222c-.041.04-.079.084-.142.153a1.288 1.288 0 0 1 .134.1c.575.57 1.15 1.138 1.72 1.713a.264.264 0 0 0 .288.076 1.9 1.9 0 0 1 1.373.125 1.8 1.8 0 0 1 .869 2.145.233.233 0 0 0 .073.257c.578.574 1.152 1.152 1.728 1.728.037.037.078.07.117.1.845-.782 1.589-1.637 2.407-2.419s1.606-1.6 2.407-2.394l2.413-2.411 2.4-2.4q1.2-1.2 2.4-2.414c-.05-.054-.078-.087-.109-.117-.567-.569-1.138-1.135-1.7-1.708a.3.3 0 0 0-.326-.1 1.789 1.789 0 0 1-1.846-.508 1.817 1.817 0 0 1-.385-1.734.276.276 0 0 0-.088-.315c-.21-.179-.414-.366-.62-.552a1.7 1.7 0 0 1-.123-.131zm9.788 5.762c-.047-.05-.084-.09-.122-.128-.547-.543-1.1-1.081-1.637-1.633a.4.4 0 0 0-.439-.131 1.765 1.765 0 0 1-1.954-.734 1.86 1.86 0 0 1-.21-1.545.221.221 0 0 0-.053-.249c-.382-.375-.756-.759-1.133-1.14l-.681-.688-1.35 1.289c.2.2.386.391.568.586a.514.514 0 0 1 .087.66 1.063 1.063 0 0 0-.105.274.96.96 0 0 0 1.369 1.059.537.537 0 0 1 .762.124c.188.183.373.37.559.555.5.5 1 .99 1.5 1.493a1 1 0 0 1 0 1.443c-.129.133-.26.265-.39.4s-6.748 6.791-9.6 9.636l.793.744z" class="cls-1"/>
        <rect id="Rectangle_1030" width="1.858" height=".913" class="cls-1" rx=".456" transform="rotate(45 141.743 804.98)"/>
        <rect id="Rectangle_1031" width="1.858" height=".913" class="cls-1" rx=".456" transform="rotate(45 140.36 808.317)"/>
        <rect id="Rectangle_1032" width="1.858" height=".913" class="cls-1" rx=".456" transform="rotate(45 138.95 811.72)"/>
    </g>
</svg>
