<svg xmlns="http://www.w3.org/2000/svg" width="21.708" height="22" viewBox="0 0 21.708 22">
    <path fill="#3a4354" d="M177.763 217.464l-.009-.006-.009-.006-.658-.38a3.813 3.813 0 0 0-1.858-3.9l-.02-.01-.023-.011-.084-.034a3.437 3.437 0 0 0-1.236-2.343 2.076 2.076 0 0 0-1.282-.474 2.2 2.2 0 0 0-3.393-1.218 2.014 2.014 0 0 0-1.635-.954 1.987 1.987 0 0 0-2.042 1.65v.012l-.075.559-.956-.548a1.245 1.245 0 0 1-.569-.908 3.4 3.4 0 0 0-1.737-2.574 3.475 3.475 0 0 0-3.1.11h-.017l-.021.012h-.005a.625.625 0 0 0-.293.536.635.635 0 0 0 .31.559l2.1 1.219a1.582 1.582 0 0 1-1.229 2.019l-2.01-1.162a.633.633 0 0 0-.648 0 .649.649 0 0 0-.3.58 3.538 3.538 0 0 0 .429 1.52 3.111 3.111 0 0 0 2.361 1.6 3.349 3.349 0 0 0 .362.02 3.714 3.714 0 0 0 1.35-.267h.012a1.169 1.169 0 0 1 1.032.056l.658.386-.4.708a4.185 4.185 0 0 0-.243 3.779V218.007l1.611 3.451a2.121 2.121 0 0 1 .181 1.2l-.108.7-.144.7-.078.335h-.111a1.027 1.027 0 0 0-.978.73l-.227.745-.259.733-.3.719v.01c0 .013-.01.026-.014.039v.016l-.007.029V227.59a.5.5 0 0 0 .044.129v.008l.015.024.009.016.011.015.017.023.006.007a.489.489 0 0 0 .1.089.365.365 0 0 0 .033.02l.041.02h.007a.262.262 0 0 0 .036.013h.018l.027.007.037.005h.008a.387.387 0 0 0 .048 0h9.643a.475.475 0 0 0 .469-.4.553.553 0 0 0 .006-.071 7.913 7.913 0 0 1 .242-1.845 1.014 1.014 0 0 0-.546-1.17c.044-.115.089-.23.137-.342a2.139 2.139 0 0 1 .691-.877 9.815 9.815 0 0 0 2.289-2.657l.316.182.013.008h.006l.012.006a1.945 1.945 0 0 0 .878.211 1.97 1.97 0 0 0 .547-.078 1.939 1.939 0 0 0 .5-3.5zm-1.579-.913l-.5-.29a.474.474 0 0 0-.939-.132 2.853 2.853 0 0 1-1.371 1.984.675.675 0 0 1-.738-.12.655.655 0 0 1-.162-.723l1.22-2.815a.844.844 0 0 1 .465-.448.835.835 0 0 1 .618 0 2.862 2.862 0 0 1 1.407 2.544zm-2.054-3.521a1.886 1.886 0 0 0-.318.091 1.794 1.794 0 0 0-.991.956l-1.1 2.536a.728.728 0 0 1-.794.2.74.74 0 0 1-.5-.7 11.228 11.228 0 0 1 .19-1.461 11.165 11.165 0 0 1 .953-2.8 1.091 1.091 0 0 1 .751-.587 1.109 1.109 0 0 1 .928.233 2.5 2.5 0 0 1 .881 1.532zm-3.345-3.361a1.242 1.242 0 0 1 .865.836 2.047 2.047 0 0 0-.925.928 12.109 12.109 0 0 0-1.035 3.035c-.029.151-.056.3-.08.455a.875.875 0 0 1-.835.2.889.889 0 0 1-.51-.371 3.468 3.468 0 0 0 1.4-1.188 1.389 1.389 0 0 0-.754-2.119 4.43 4.43 0 0 1 .489-1.243 1.246 1.246 0 0 1 1.385-.533zm-3.267-.6a1.061 1.061 0 0 1 .985.794 5.394 5.394 0 0 0-.523 1.408c-.138-.013-.276-.021-.414-.023a.813.813 0 0 1-.233-.035l-1.017-.313.133-.982a1.049 1.049 0 0 1 1.069-.845zm-4.539 3.237a2.125 2.125 0 0 0-1.863-.115 2.645 2.645 0 0 1-1.259.188 2.16 2.16 0 0 1-1.637-1.115 2.441 2.441 0 0 1-.2-.488l1.489.861.028.015a.771.771 0 0 0 .355.084.933.933 0 0 0 .148-.012 2.531 2.531 0 0 0 1.985-3.339v-.005a.793.793 0 0 0-.357-.416l-1.583-.917a2.352 2.352 0 0 1 1.672.117 2.461 2.461 0 0 1 1.219 1.874 2.165 2.165 0 0 0 1.024 1.581l.8.457a1.773 1.773 0 0 0-.614.635l-.556.978zm8.7 13.049a.355.355 0 0 0 .046 0 .359.359 0 0 0 .047 0h.138a.086.086 0 0 1 .062.028.072.072 0 0 1 .01.061 8.862 8.862 0 0 0-.252 1.6h-8.477l.033-.08.008-.023.267-.754.007-.02.23-.755a.07.07 0 0 1 .068-.053h7.811zm.934-2.825a3.09 3.09 0 0 0-.992 1.261c-.086.2-.165.406-.237.613h-6.43l.03-.125v-.013l.148-.718v-.023l.11-.717v-.005a3.066 3.066 0 0 0-.261-1.741l-1.606-3.441a3.235 3.235 0 0 1 .2-2.923v-.005l.61-1.075.021-.033a.416.416 0 0 0 .024-.047l.771-1.357a.838.838 0 0 1 .74-.423h.034a.745.745 0 0 1 .191.034l1.077.331a1.8 1.8 0 0 0 .5.077 4.565 4.565 0 0 1 1.078.145.444.444 0 0 1 .3.269.455.455 0 0 1-.05.41 2.526 2.526 0 0 1-1.327.98.488.488 0 0 0-.074.023c-.074.02-.149.038-.225.052a2.528 2.528 0 0 1-1.893-.417.475.475 0 0 0-.547.777 3.479 3.479 0 0 0 1.151.524 2.867 2.867 0 0 1-1.042 1.453.383.383 0 0 0 .451.62 3.643 3.643 0 0 0 1.359-1.969h.08a3.5 3.5 0 0 0 .52-.039 1.844 1.844 0 0 0 1.187 1.006 1.922 1.922 0 0 0 .5.067 1.813 1.813 0 0 0 .46-.059v.047a1.692 1.692 0 0 0 2.014 1.682 1.614 1.614 0 0 0 1.33 1.324l1.832 1.058a8.876 8.876 0 0 1-2.031 2.381zm4.964-2.936a1.009 1.009 0 0 1-1.32.386l-2.129-1.228a3.711 3.711 0 0 0 1.272-1.552l1.852 1.07a.991.991 0 0 1 .328 1.33z" opacity="0.5" transform="translate(-156.955 -206)"/>
</svg>
