<svg xmlns="http://www.w3.org/2000/svg" width="25.939" height="21.136" viewBox="0 0 25.939 21.136">
    <defs>
        <style>
            .cls-1{fill:#ffffff;stroke:#ffffff;stroke-miterlimit:10;stroke-width:.34px}
        </style>
    </defs>
    <g id="Group_76" transform="translate(-541.231 -118.623)">
        <path id="Path_127" d="M553.856 137.308h-10.678a1.779 1.779 0 0 1-1.777-1.777V122.5a1.779 1.779 0 0 1 1.777-1.777h1.436a.381.381 0 1 1 0 .761h-1.436a1.018 1.018 0 0 0-1.017 1.016v13.034a1.018 1.018 0 0 0 1.017 1.016h10.678a.381.381 0 0 1 0 .761z" class="cls-1"/>
        <path id="Path_128" d="M563.795 127.512a.38.38 0 0 1-.38-.38V122.5a1.018 1.018 0 0 0-1.017-1.016h-1.447a.381.381 0 0 1 0-.761h1.449a1.779 1.779 0 0 1 1.777 1.777v4.635a.38.38 0 0 1-.382.377z" class="cls-1"/>
        <path id="Path_129" d="M559.6 121.481h-13.64a.381.381 0 1 1 0-.761h13.64a.381.381 0 1 1 0 .761z" class="cls-1"/>
        <path id="Path_130" d="M563.714 124.421h-21.852a.38.38 0 0 1 0-.761h21.852a.38.38 0 0 1 0 .761z" class="cls-1"/>
        <path id="Path_131" d="M553.461 127.36h-1.54a.381.381 0 0 1 0-.761h1.354v-.473a.38.38 0 1 1 .76 0v.66a.575.575 0 0 1-.574.574z" class="cls-1"/>
        <path id="Path_132" d="M557.218 127.36h-1.54a.381.381 0 0 1 0-.761h1.354v-.473a.38.38 0 0 1 .76 0v.66a.575.575 0 0 1-.574.574z" class="cls-1"/>
        <path id="Path_133" d="M560.975 127.36h-1.54a.381.381 0 0 1 0-.761h1.353v-.473a.38.38 0 0 1 .761 0v.66a.575.575 0 0 1-.574.574z" class="cls-1"/>
        <path id="Path_134" d="M545.948 129.843h-1.54a.381.381 0 1 1 0-.761h1.353v-.473a.38.38 0 0 1 .761 0v.66a.575.575 0 0 1-.574.574z" class="cls-1"/>
        <path id="Path_135" d="M549.7 129.843h-1.54a.381.381 0 0 1 0-.761h1.354v-.473a.38.38 0 0 1 .761 0v.66a.576.576 0 0 1-.575.574z" class="cls-1"/>
        <path id="Path_136" d="M553.461 129.843h-1.54a.381.381 0 0 1 0-.761h1.354v-.473a.38.38 0 1 1 .76 0v.66a.575.575 0 0 1-.574.574z" class="cls-1"/>
        <path id="Path_137" d="M545.948 132.326h-1.54a.381.381 0 1 1 0-.761h1.353v-.473a.38.38 0 0 1 .761 0v.66a.575.575 0 0 1-.574.574z" class="cls-1"/>
        <path id="Path_138" d="M549.7 132.326h-1.54a.381.381 0 0 1 0-.761h1.354v-.473a.38.38 0 0 1 .761 0v.66a.576.576 0 0 1-.575.574z" class="cls-1"/>
        <path id="Path_139" d="M553.461 132.326h-1.54a.381.381 0 0 1 0-.761h1.354v-.473a.38.38 0 1 1 .76 0v.66a.575.575 0 0 1-.574.574z" class="cls-1"/>
        <path id="Path_140" d="M545.948 134.809h-1.54a.38.38 0 1 1 0-.76h1.353v-.473a.38.38 0 1 1 .761 0v.659a.575.575 0 0 1-.574.574z" class="cls-1"/>
        <path id="Path_141" d="M549.7 134.809h-1.54a.38.38 0 0 1 0-.76h1.354v-.473a.38.38 0 1 1 .761 0v.659a.575.575 0 0 1-.575.574z" class="cls-1"/>
        <path id="Path_142" d="M553.461 134.809h-1.54a.38.38 0 0 1 0-.76h1.354v-.473a.38.38 0 1 1 .76 0v.659a.574.574 0 0 1-.574.574z" class="cls-1"/>
        <path id="Path_143" d="M544.7 122.29a.38.38 0 0 1-.381-.38v-1.992a1.125 1.125 0 0 1 2.251 0 .38.38 0 1 1-.761 0 .365.365 0 0 0-.729 0v1.992a.38.38 0 0 1-.38.38z" class="cls-1"/>
        <path id="Path_144" d="M559.6 122.29a.38.38 0 0 1-.38-.38v-1.992a1.125 1.125 0 0 1 2.251 0 .38.38 0 1 1-.761 0 .365.365 0 0 0-.729 0v1.992a.381.381 0 0 1-.381.38z" class="cls-1"/>
        <path id="Path_145" d="M562.044 135.112c-.192-.1-.3.074-.43.2q-.813.761-1.628 1.521a.437.437 0 0 1-.153.1.31.31 0 0 1-.331-.512c.272-.317.547-.633.822-.949s.534-.612.8-.922a.237.237 0 0 0 .048-.153 1.039 1.039 0 0 1 .191-.672.378.378 0 0 0 .06-.178c.04-.585.07-1.171.111-1.756a.414.414 0 0 1 .631-.321.276.276 0 0 1 .129.237q.078.9.165 1.8a.158.158 0 0 0 .045.1.855.855 0 0 1 .312.845.724.724 0 0 1-.772.66z" class="cls-1"/>
        <path id="Path_146" d="M565.9 130.995l.218-.959c.677.589.684.654.249 2.449-.785-.241-1.789.035-2.193-1.144l1.094.166a4.344 4.344 0 0 0-3.815-1.618 4.484 4.484 0 1 0 4.767 5.266 6.075 6.075 0 0 1 .107-.816c.041-.133.234-.311.351-.305a.464.464 0 0 1 .32.332 6 6 0 0 1-.157 1.359 5.213 5.213 0 1 1-5.892-6.518 5.11 5.11 0 0 1 4.544 1.444c.1.1.206.208.31.31a.467.467 0 0 0 .097.034z" class="cls-1"/>
    </g>
</svg>
