<svg xmlns="http://www.w3.org/2000/svg" width="39.47" height="40" viewBox="0 0 39.47 40">
    <path fill="#ffffff" d="M892.083 705.843l-.017-.01-.016-.011-1.2-.69a6.933 6.933 0 0 0-3.378-7.092h-.005l-.035-.018-.042-.022h-.007c-.05-.022-.1-.043-.151-.063a6.253 6.253 0 0 0-2.248-4.259 3.762 3.762 0 0 0-2.33-.861 4 4 0 0 0-6.169-2.216 3.659 3.659 0 0 0-2.973-1.734 3.613 3.613 0 0 0-3.712 3v.022l-.137 1.015-1.738-1a2.255 2.255 0 0 1-1.035-1.65 6.187 6.187 0 0 0-3.158-4.68 6.318 6.318 0 0 0-5.642.2l-.015.008-.015.008c-.014.007-.026.015-.039.023l-.01.006a1.139 1.139 0 0 0-.532.974 1.159 1.159 0 0 0 .563 1.018l3.824 2.215a2.874 2.874 0 0 1-2.233 3.671l-3.655-2.112a1.154 1.154 0 0 0-1.178.005 1.18 1.18 0 0 0-.551 1.056 6.47 6.47 0 0 0 .78 2.764 5.655 5.655 0 0 0 4.294 2.911 5.73 5.73 0 0 0 .657.037 6.754 6.754 0 0 0 2.454-.485l.012-.006h.011a2.124 2.124 0 0 1 1.876.1l1.2.7-.73 1.286a7.62 7.62 0 0 0-.443 6.873l.007.014v.01l2.928 6.273a3.852 3.852 0 0 1 .329 2.186l-.2 1.276-.261 1.273-.143.609h-.2a1.868 1.868 0 0 0-1.778 1.328l-.413 1.354-.471 1.333-.54 1.308V723.808c-.009.023-.018.046-.025.07l-.008.03c0 .017-.009.034-.013.052s-.005.034-.008.052V724.127a.774.774 0 0 0 0 .084c0 .023.007.047.011.07a.833.833 0 0 0 .08.233l.007.016.026.044.018.029.02.027.03.041.012.012a.836.836 0 0 0 .186.164l.06.036h.005c.024.013.048.024.074.035h.013a.657.657 0 0 0 .066.024l.032.008.048.012.068.01h.015a.848.848 0 0 0 .087.005h17.533a.863.863 0 0 0 .852-.73.8.8 0 0 0 .012-.13 14.433 14.433 0 0 1 .439-3.355 1.841 1.841 0 0 0-.992-2.127c.079-.21.162-.418.249-.622a3.9 3.9 0 0 1 1.256-1.594h.005a17.841 17.841 0 0 0 4.162-4.831l.574.331.024.013.01.006.01.005.022.01a3.52 3.52 0 0 0 1.6.383 3.579 3.579 0 0 0 1-.142 3.526 3.526 0 0 0 .916-6.367zm-2.871-1.66l-.913-.526a.863.863 0 0 0-1.708-.24 5.182 5.182 0 0 1-2.493 3.607 1.224 1.224 0 0 1-1.34-.219 1.186 1.186 0 0 1-.295-1.313l2.218-5.12a1.532 1.532 0 0 1 1.969-.813 5.2 5.2 0 0 1 2.562 4.624zm-3.735-6.4a3.245 3.245 0 0 0-2.381 1.9l-2 4.611a1.321 1.321 0 0 1-1.442.364 1.345 1.345 0 0 1-.9-1.276 20.3 20.3 0 0 1 .345-2.655 20.315 20.315 0 0 1 1.733-5.085 1.98 1.98 0 0 1 1.365-1.068 2.014 2.014 0 0 1 1.688.424 4.536 4.536 0 0 1 1.592 2.784zm-6.082-6.11a2.26 2.26 0 0 1 1.574 1.52 3.711 3.711 0 0 0-1.683 1.685 21.986 21.986 0 0 0-1.881 5.519q-.081.411-.147.828a1.588 1.588 0 0 1-1.517.36 1.62 1.62 0 0 1-.928-.675 6.325 6.325 0 0 0 2.554-2.16 2.525 2.525 0 0 0-1.367-3.856 8.167 8.167 0 0 1 .89-2.26 2.262 2.262 0 0 1 2.51-.962zm-5.939-1.084a1.925 1.925 0 0 1 1.79 1.443 9.858 9.858 0 0 0-.951 2.559q-.375-.035-.752-.041a1.481 1.481 0 0 1-.424-.063l-1.85-.569.241-1.787a1.908 1.908 0 0 1 1.946-1.543zm-8.253 5.885h-.003a3.858 3.858 0 0 0-3.387-.208 4.786 4.786 0 0 1-2.289.342 3.929 3.929 0 0 1-2.977-2.028 4.571 4.571 0 0 1-.37-.885l2.707 1.564.052.027a1.4 1.4 0 0 0 .646.152 1.774 1.774 0 0 0 .268-.022h.005a4.6 4.6 0 0 0 3.609-6.072v-.008a1.43 1.43 0 0 0-.649-.757l-2.878-1.667a4.274 4.274 0 0 1 3.04.214 4.472 4.472 0 0 1 2.217 3.406v.005a3.945 3.945 0 0 0 1.876 2.867l1.448.83a3.225 3.225 0 0 0-1.116 1.156l-1.009 1.778zm15.822 23.726a.828.828 0 0 0 .086.005.809.809 0 0 0 .085-.005h.25a.152.152 0 0 1 .113.051.134.134 0 0 1 .018.112 16.019 16.019 0 0 0-.458 2.912h-15.413l.06-.146.015-.041.486-1.372.011-.036.419-1.372v-.014a.131.131 0 0 1 .124-.1h14.2zm1.7-5.136a5.613 5.613 0 0 0-1.8 2.292c-.156.364-.3.738-.431 1.114H868.8l.053-.228v-.023l.268-1.3.007-.042.2-1.3v-.009a5.577 5.577 0 0 0-.473-3.164l-2.92-6.257a5.884 5.884 0 0 1 .354-5.315v-.005l.006-.01 1.109-1.954a.632.632 0 0 0 .039-.06.778.778 0 0 0 .044-.086l1.4-2.468a1.521 1.521 0 0 1 1.344-.768h.062a1.439 1.439 0 0 1 .347.062l1.958.6a3.271 3.271 0 0 0 .906.139 8.351 8.351 0 0 1 1.959.264.8.8 0 0 1 .554.489.827.827 0 0 1-.09.746 4.6 4.6 0 0 1-2.411 1.783.836.836 0 0 0-.135.04c-.135.038-.272.07-.41.1a4.6 4.6 0 0 1-3.442-.759.863.863 0 0 0-.994 1.412 6.294 6.294 0 0 0 2.093.954 5.216 5.216 0 0 1-1.9 2.642.7.7 0 1 0 .82 1.126 6.612 6.612 0 0 0 2.471-3.58h.145a6.261 6.261 0 0 0 .946-.072 3.351 3.351 0 0 0 2.158 1.829 3.45 3.45 0 0 0 .91.124 3.282 3.282 0 0 0 .835-.109v.086a3.082 3.082 0 0 0 3.083 3.115 3.112 3.112 0 0 0 .579-.056 2.913 2.913 0 0 0 .89 1.656 2.946 2.946 0 0 0 1.528.751l3.331 1.923a16.11 16.11 0 0 1-3.699 4.316zm9.025-5.339a1.835 1.835 0 0 1-2.4.7l-3.869-2.233a6.744 6.744 0 0 0 2.315-2.833l3.368 1.945a1.8 1.8 0 0 1 .586 2.419z" transform="translate(-854.249 -685)"/>
</svg>
