<svg xmlns="http://www.w3.org/2000/svg" width="22.565" height="26.756" viewBox="0 0 22.565 26.756">
    <defs>
        <style>
            .cls-1{fill:#158dcf}
        </style>
    </defs>
    <g id="Group_110" transform="translate(-178.676 -686.421)">
        <path id="Path_138" d="M189.967 710.975a11.28 11.28 0 0 1-7.973-19.271 11.345 11.345 0 0 1 11.743-2.642.516.516 0 1 1-.343.973 10.314 10.314 0 0 0-10.67 2.4 10.253 10.253 0 0 0 14.486 14.515 10.342 10.342 0 0 0 2.428-10.67.517.517 0 0 1 .976-.341 11.386 11.386 0 0 1-2.674 11.742 11.2 11.2 0 0 1-7.973 3.294z" class="cls-1"/>
        <path id="Path_139" d="M189.963 706.851a7.166 7.166 0 1 1 3.261-13.54.516.516 0 1 1-.471.918 6.125 6.125 0 0 0-7.144 1.121 6.141 6.141 0 1 0 8.685 8.684 6.1 6.1 0 0 0 1.12-7.113.516.516 0 1 1 .919-.471 7.141 7.141 0 0 1-6.37 10.4z" class="cls-1"/>
        <path id="Path_140" d="M189.963 702.752a3.047 3.047 0 0 1-2.168-.9 3.085 3.085 0 0 1-.006-4.309 2.889 2.889 0 0 1 1.707-.851.517.517 0 0 1 .121 1.026 1.854 1.854 0 0 0-1.093.55 2.045 2.045 0 0 0 0 2.853 2 2 0 0 0 1.454.6 1.952 1.952 0 0 0 1.394-.594 2.1 2.1 0 0 0 .591-1.128.516.516 0 1 1 1.017.18 3.118 3.118 0 0 1-.873 1.672 2.972 2.972 0 0 1-2.121.9z" class="cls-1"/>
        <path id="Path_141" d="M189.952 700.208a.516.516 0 0 1-.365-.882l8.17-8.139a.517.517 0 0 1 .729.732l-8.17 8.139a.516.516 0 0 1-.364.15z" class="cls-1"/>
        <path id="Path_142" d="M198.121 692.07a.517.517 0 0 1-.492-.361l-.789-2.492a.516.516 0 0 1 .984-.311l.79 2.491a.517.517 0 0 1-.337.648.53.53 0 0 1-.156.025z" class="cls-1"/>
        <path id="Path_143" d="M195.449 694.712a.518.518 0 0 1-.492-.361l-.79-2.49a.516.516 0 0 1 .129-.524l2.673-2.643a.517.517 0 0 1 .726.735l-2.448 2.421.694 2.189a.515.515 0 0 1-.336.648.53.53 0 0 1-.156.025z" class="cls-1"/>
        <path id="Path_144" d="M200.582 692.859a.543.543 0 0 1-.158-.025l-2.46-.789a.517.517 0 1 1 .315-.984l2.46.789a.517.517 0 0 1-.157 1.009z" class="cls-1"/>
        <path id="Path_145" d="M197.939 695.5a.528.528 0 0 1-.156-.024l-2.49-.79a.516.516 0 0 1 .312-.984l2.191.7 2.421-2.421a.516.516 0 1 1 .73.73l-2.647 2.639a.516.516 0 0 1-.361.15z" class="cls-1"/>
        <path id="Path_146" d="M189.952 689.456a.516.516 0 0 1-.517-.516v-2a.517.517 0 0 1 1.033 0v2a.515.515 0 0 1-.516.516z" class="cls-1"/>
        <path id="Path_147" d="M182.966 713.177a.517.517 0 0 1-.438-.791l2.036-3.25a.516.516 0 0 1 .875.549l-2.035 3.249a.518.518 0 0 1-.438.243z" class="cls-1"/>
        <path id="Path_148" d="M196.968 713.177a.519.519 0 0 1-.437-.239l-2.065-3.25a.517.517 0 0 1 .16-.713.512.512 0 0 1 .712.158l2.065 3.25a.517.517 0 0 1-.435.794z" class="cls-1"/>
    </g>
</svg>
