<svg xmlns="http://www.w3.org/2000/svg" width="22.232" height="22.32" viewBox="0 0 22.232 22.32">
    <defs>
        <style>
            .cls-1{fill:#ffffff}
        </style>
    </defs>
    <g id="Group_89" transform="translate(-2554.337 -1544.991)">
        <path id="Path_94" d="M2557.345 1567.311a.846.846 0 0 1-.308-.769c.008-1.2 0-2.4 0-3.627-.183.158-.351.295-.511.441-.389.355-.776.711-1.16 1.072a.576.576 0 0 1-.914 0 .593.593 0 0 1-.113-.351q-.008-5.655 0-11.31v-1.613a5.955 5.955 0 0 1 1.1-3.535 6.046 6.046 0 0 1 2-1.823 5.732 5.732 0 0 1 2.331-.765c.157-.014.314-.04.47-.04h10.352a3.186 3.186 0 0 1 1.818.655.527.527 0 0 1 .2.624.505.505 0 0 1-.563.366 1.341 1.341 0 0 1-.446-.195 2.171 2.171 0 0 0-1.166-.364c-3.266-.015-6.532-.041-9.8-.037a5.165 5.165 0 0 0-2.982.907 5.043 5.043 0 0 0-1.653 1.853 4.93 4.93 0 0 0-.572 2.3q.012 5.721 0 11.441v.269a.692.692 0 0 0 .152-.076c.425-.377.845-.76 1.272-1.135a.539.539 0 0 0 .194-.449q-.01-4.914 0-9.828a3.568 3.568 0 0 1 1.27-2.82 3.262 3.262 0 0 1 1.783-.8 5.388 5.388 0 0 1 .58-.042c4.162 0 8.324-.009 12.487 0a3.275 3.275 0 0 1 2.187.889 3.518 3.518 0 0 1 1.142 1.927 2.644 2.644 0 0 1 .072.573q.006 4.7 0 9.392a3.339 3.339 0 0 1-.695 2.005 3.616 3.616 0 0 1-2.206 1.412 2.444 2.444 0 0 1-.512.052q-5.624 0-11.245-.006a.924.924 0 0 0-.68.287q-.917.857-1.839 1.708c-.46.424-.927.842-1.391 1.262-.057.052-.116.1-.173.152zm.785-1.793a1.694 1.694 0 0 0 .2-.134c.424-.391.845-.786 1.269-1.178.359-.333.722-.663 1.082-1a1.531 1.531 0 0 1 1.1-.392q5.655.008 11.31 0a1.194 1.194 0 0 0 .217-.007 2.608 2.608 0 0 0 1.606-.93 2.313 2.313 0 0 0 .563-1.465c0-3.03 0-6.059.006-9.088a2.491 2.491 0 0 0-.314-1.294 2.362 2.362 0 0 0-2.107-1.289c-4.163-.015-8.325-.007-12.488-.005a2.33 2.33 0 0 0-.361.041 2.529 2.529 0 0 0-2.08 2.51q-.008 6.963 0 13.926z" class="cls-1"/>
        <g id="Group_88">
            <g id="Group_87">
                <path id="Path_95" d="M2565.649 1557.165v-.42a2.178 2.178 0 0 1 .059-.526 1.8 1.8 0 0 1 .182-.45 2.178 2.178 0 0 1 .316-.415 4.53 4.53 0 0 1 .467-.418q.238-.187.4-.336a1.727 1.727 0 0 0 .268-.292 1 1 0 0 0 .147-.3 1.32 1.32 0 0 0 .046-.369.709.709 0 0 0-.219-.535.934.934 0 0 0-.668-.21 2.471 2.471 0 0 0-.845.165 9.278 9.278 0 0 0-.935.4l-.581-1.257a5.684 5.684 0 0 1 .532-.27 5.887 5.887 0 0 1 .6-.227 4.716 4.716 0 0 1 .628-.157 3.811 3.811 0 0 1 1.672.083 2.25 2.25 0 0 1 .791.406 1.8 1.8 0 0 1 .5.649 2.074 2.074 0 0 1 .174.87 2.36 2.36 0 0 1-.08.64 1.93 1.93 0 0 1-.236.523 2.533 2.533 0 0 1-.393.466c-.157.15-.34.309-.548.475q-.239.188-.39.327a1.6 1.6 0 0 0-.236.265.746.746 0 0 0-.116.259 1.329 1.329 0 0 0-.032.315v.341zm-.188 1.945a1.182 1.182 0 0 1 .077-.452.758.758 0 0 1 .213-.3.844.844 0 0 1 .322-.165 1.481 1.481 0 0 1 .4-.051 1.381 1.381 0 0 1 .378.051.855.855 0 0 1 .316.165.8.8 0 0 1 .216.3 1.143 1.143 0 0 1 .08.452 1.088 1.088 0 0 1-.08.438.82.82 0 0 1-.532.475 1.307 1.307 0 0 1-.378.054 1.4 1.4 0 0 1-.4-.054.841.841 0 0 1-.322-.173.809.809 0 0 1-.213-.3 1.125 1.125 0 0 1-.077-.44z" class="cls-1"/>
            </g>
        </g>
    </g>
</svg>
