<svg xmlns="http://www.w3.org/2000/svg" width="41.029" height="38.689" viewBox="0 0 41.029 38.689">
    <defs>
        <style>
            .cls-1{fill:#fff}
        </style>
    </defs>
    <g id="Group_201" transform="translate(-2171.548 -1311.383)">
        <g id="Group_200">
            <path id="Path_314" d="M2180.531 1311.389h4.094c.964 0 1.585.517 1.6 1.314.016.819-.608 1.34-1.621 1.341h-7.874c-1.039 0-1.335.3-1.335 1.358v7.434a1.176 1.176 0 0 1-.758 1.255 1.771 1.771 0 0 1-1.286-.1 1.481 1.481 0 0 1-.585-1.081q-.071-4.062-.011-8.126a3.57 3.57 0 0 1 3.555-3.394c1.406-.028 2.814-.005 4.221-.005z" class="cls-1"/>
            <path id="Path_315" d="M2203.765 1311.389c1.3 0 2.6-.008 3.906 0a3.577 3.577 0 0 1 3.7 3.575c.048 2.625.023 5.251.008 7.877a1.284 1.284 0 0 1-1.347 1.409 1.324 1.324 0 0 1-1.309-1.464c-.013-2.458 0-4.915-.006-7.373 0-1.086-.287-1.368-1.385-1.369h-7.5c-.981 0-1.586-.5-1.6-1.3-.012-.818.622-1.351 1.624-1.353 1.304-.004 2.606-.002 3.909-.002z" class="cls-1"/>
            <path id="Path_316" d="M2203.767 1350.065c-1.365 0-2.73.008-4.095 0a1.325 1.325 0 0 1-1.358-.921 1.123 1.123 0 0 1 .362-1.361 2.138 2.138 0 0 1 1.153-.362c2.351-.032 4.7-.015 7.055-.015h.693c.814-.031 1.133-.345 1.136-1.173q.014-3.526 0-7.055a1.449 1.449 0 0 1 .77-1.466 1.28 1.28 0 0 1 1.878 1.093c.034 2.686.069 5.376-.034 8.059a3.51 3.51 0 0 1-3.655 3.206c-1.301.012-2.603-.004-3.905-.005z" class="cls-1"/>
            <path id="Path_317" d="M2180.438 1350.066c-1.3 0-2.6.009-3.907 0a3.631 3.631 0 0 1-3.792-3.814q-.009-3.341 0-6.679c0-.959.526-1.576 1.327-1.578s1.33.625 1.331 1.579v6.491c0 1.039.3 1.337 1.359 1.338h7.94a1.342 1.342 0 1 1 .029 2.661c-1.429.014-2.857 0-4.285 0z" class="cls-1"/>
        </g>
        <rect id="Rectangle_302" width="41.029" height="2.661" class="cls-1" rx=".899" transform="translate(2171.548 1329.059)"/>
    </g>
</svg>
