<svg xmlns="http://www.w3.org/2000/svg" width="13.709" height="13.228" viewBox="0 0 13.709 13.228">
    <path fill="#fff" d="M5507.324 1450.274a6.618 6.618 0 1 0 6.854 6.614 6.738 6.738 0 0 0-6.854-6.614zm3.339 5.31q-1.293 1.3-2.588 2.589l-1.086 1.086a.466.466 0 0 1-.771 0l-2.216-2.215a.459.459 0 0 1-.006-.736c.121-.123.242-.245.364-.366a.461.461 0 0 1 .738 0c.477.473.951.949 1.426 1.424l.086.081 1.073-1.08 1.86-1.858a.465.465 0 0 1 .754 0c.123.12.245.242.365.364a.457.457 0 0 1 .001.711z" transform="translate(-5500.469 -1450.274)"/>
</svg>
