<?xml version="1.0" standalone="no"?>
<!DOCTYPE svg PUBLIC "-//W3C//DTD SVG 20010904//EN"
 "http://www.w3.org/TR/2001/REC-SVG-20010904/DTD/svg10.dtd">
<svg version="1.0" xmlns="http://www.w3.org/2000/svg"
 width="24.000000pt" height="24.000000pt" viewBox="0 0 24.000000 24.000000"
 preserveAspectRatio="xMidYMid meet">

<g transform="translate(0.000000,24.000000) scale(0.100000,-0.100000)"
fill="#3a4354" stroke="none">
<path d="M70 180 c0 -33 3 -40 20 -40 11 0 20 -7 20 -15 0 -10 -11 -15 -35
-15 -24 0 -35 -5 -35 -15 0 -8 -4 -15 -10 -15 -5 0 -10 -13 -10 -30 0 -25 4
-30 25 -30 21 0 25 5 25 30 0 17 -4 30 -10 30 -5 0 -10 5 -10 10 0 6 14 10 30
10 17 0 30 -4 30 -10 0 -5 -4 -10 -10 -10 -5 0 -10 -13 -10 -30 0 -27 3 -30
30 -30 27 0 30 3 30 30 0 20 -5 30 -15 30 -8 0 -15 5 -15 10 0 6 16 10 35 10
19 0 35 -4 35 -10 0 -5 -4 -10 -10 -10 -5 0 -10 -13 -10 -30 0 -25 4 -30 25
-30 21 0 25 5 25 30 0 17 -4 30 -10 30 -5 0 -10 6 -10 14 0 10 -13 16 -37 18
-42 3 -59 28 -19 28 24 0 26 4 26 40 l0 40 -50 0 -50 0 0 -40z m90 0 c0 -28
-2 -30 -40 -30 -38 0 -40 2 -40 30 0 28 2 30 40 30 38 0 40 -2 40 -30z m-100
-130 c0 -11 -7 -20 -15 -20 -8 0 -15 9 -15 20 0 11 7 20 15 20 8 0 15 -9 15
-20z m80 0 c0 -13 -7 -20 -20 -20 -13 0 -20 7 -20 20 0 13 7 20 20 20 13 0 20
-7 20 -20z m70 0 c0 -11 -7 -20 -15 -20 -8 0 -15 9 -15 20 0 11 7 20 15 20 8
0 15 -9 15 -20z"/>
<path d="M108 173 c6 -2 18 -2 25 0 6 3 1 5 -13 5 -14 0 -19 -2 -12 -5z"/>
</g>
</svg>
