<svg xmlns="http://www.w3.org/2000/svg" width="46.291" height="40.072" viewBox="0 0 46.291 40.072">
    <defs>
        <style>
            .cls-1{fill:#1582c8}
        </style>
    </defs>
    <g id="Group_101" transform="translate(-446.983 -683)">
        <path id="Path_317" d="M470.633 712.052a.883.883 0 0 1-.44-.116l-1.9-1.1a.911.911 0 0 1-.4-1.066l.717-1.938-.013-.042-.7-1.225-2.026-.326a.915.915 0 0 1-.74-.883v-2.2a.91.91 0 0 1 .723-.881l2.066-.375.707-1.223-.728-1.922a.914.914 0 0 1 .4-1.081l1.9-1.1a.912.912 0 0 1 1.125.187l1.317 1.589h.02l.022.012H474.096l1.3-1.59a.916.916 0 0 1 1.134-.2l1.9 1.095a.911.911 0 0 1 .4 1.067l-.717 1.938.013.041.705 1.225 2.027.327a.915.915 0 0 1 .74.882v2.2a.911.911 0 0 1-.724.881h-.014l-2.051.372-.707 1.223.729 1.922a.913.913 0 0 1-.4 1.081l-1.9 1.1a.909.909 0 0 1-1.124-.186l-1.318-1.59h-.02l-.022-.011h-1.414l-1.3 1.591a.922.922 0 0 1-.7.322zm-1.614-2.09l1.57.905 1.208-1.458a1.184 1.184 0 0 1 .9-.383h1.327a1.166 1.166 0 0 1 .889.371l1.217 1.47 1.573-.908-.661-1.774a1.172 1.172 0 0 1 .117-.97l.663-1.15a1.161 1.161 0 0 1 .767-.584l1.881-.318v-1.819l-1.866-.314a1.166 1.166 0 0 1-.782-.586l-.664-1.149a1.162 1.162 0 0 1-.122-.956l.662-1.79-1.57-.9-1.208 1.459a1.178 1.178 0 0 1-.9.383h-1.326a1.163 1.163 0 0 1-.889-.372l-1.217-1.469-1.572.908.66 1.774a1.175 1.175 0 0 1-.117.97l-.662 1.149a1.164 1.164 0 0 1-.766.585l-1.882.317v1.82l1.866.313a1.17 1.17 0 0 1 .782.587l.663 1.148a1.168 1.168 0 0 1 .122.955zm4.34-2.412h-.152a3.293 3.293 0 0 1-.969-6.388 3.282 3.282 0 0 1 1.271-.194 3.308 3.308 0 0 1 2.284 1.073 3.492 3.492 0 0 1 .742 1.4 3.813 3.813 0 0 1 .114.967 3.3 3.3 0 0 1-3.29 3.143zm0-5.466a2.2 2.2 0 0 0-1.463.566 2.17 2.17 0 0 0-.578 2.344 2.173 2.173 0 0 0 3.5.866 2.206 2.206 0 0 0 .5-.683 2.168 2.168 0 0 0 .2-.822 2.372 2.372 0 0 0-.564-1.562 2.178 2.178 0 0 0-1.505-.706z" class="cls-1"/>
        <path id="Path_318" d="M493.274 723.072H452.5a5.52 5.52 0 0 1-5.514-5.515V687.9a4.9 4.9 0 0 1 9.714-.869h36.577zm-41.4-38.4a3.229 3.229 0 0 0-3.225 3.226v29.661a3.849 3.849 0 0 0 3.851 3.841h39.1v-32.7h-34.826v29.988l-1.388-1.226a5.966 5.966 0 0 0-4.432-1.34.835.835 0 0 1-.291-1.645 6.946 6.946 0 0 1 4.441.806V687.9a3.229 3.229 0 0 0-3.226-3.23z" class="cls-1"/>
    </g>
</svg>
