<?xml version="1.0" encoding="iso-8859-1"?>
<!-- Generator: Adobe Illustrator 19.0.0, SVG Export Plug-In . SVG Version: 6.00 Build 0)  -->
<svg version="1.1" id="Layer_1" xmlns="http://www.w3.org/2000/svg" xmlns:xlink="http://www.w3.org/1999/xlink" x="0px" y="0px"
	 viewBox="0 0 512 512" style="enable-background:new 0 0 512 512;" xml:space="preserve">
<path style="fill:#0071CE;" d="M476.072,141.848L342.531,8.309C331.454-2.77,313.321-2.77,302.242,8.31L44.494,266.056
	c-11.079,11.08-18.531,32.864-16.559,48.409l12.403,97.734c1.971,15.545,16.304,29.876,31.848,31.849l97.73,12.398
	c15.543,1.972,37.328-5.48,48.407-16.56L476.07,182.14C487.151,171.059,487.151,152.928,476.072,141.848z M157.371,364.516
	c-10.355,10.355-27.145,10.355-37.502,0c-10.356-10.356-10.356-27.148,0-37.502c10.357-10.359,27.149-10.359,37.504-0.001
	C167.73,337.37,167.73,354.161,157.371,364.516z"/>
<path style="fill:#FFFFFF;" d="M440.033,148.584L281.057,307.562c-8.422,8.422-22.205,8.422-30.627,0l-73.606-73.604
	c-8.421-8.422-8.422-22.205,0-30.628L335.801,44.351L440.033,148.584z"/>
<g>
	<path style="fill:#333E48;" d="M170.435,313.95c-17.571-17.571-46.057-17.571-63.629,0c-17.568,17.569-17.57,46.057,0.001,63.627
		c17.57,17.57,46.057,17.57,63.628-0.001C188.003,360.008,188.005,331.521,170.435,313.95z M153.543,360.688
		c-8.24,8.242-21.603,8.242-29.847,0c-8.242-8.242-8.242-21.605,0-29.847c8.243-8.244,21.606-8.243,29.847,0
		C161.786,339.084,161.786,352.447,153.543,360.688z"/>
	<path style="fill:#333E48;" d="M204.745,512c-40.946,0-74.257-33.312-74.257-74.257v-71.594c0-4.485,3.636-8.121,8.121-8.121
		s8.121,3.636,8.121,8.121v71.594c0,31.99,26.025,58.015,58.015,58.015c15.497,0,30.065-6.035,41.023-16.992L465.06,259.473
		c3.172-3.172,8.314-3.172,11.486,0c3.172,3.172,3.172,8.314,0,11.486L257.254,490.25C243.229,504.276,224.581,512,204.745,512z"/>
	<path style="fill:#333E48;" d="M232.441,228.371c-4.157,0-8.313-1.585-11.486-4.758c-6.342-6.343-6.342-16.627,0.001-22.97
		l94.396-94.394c6.343-6.343,16.626-6.342,22.97,0c6.342,6.343,6.342,16.627,0,22.97l-94.396,94.394
		C240.755,226.784,236.598,228.371,232.441,228.371z"/>
	<path style="fill:#333E48;" d="M286.654,253.791c-4.157,0-8.314-1.585-11.486-4.758c-6.343-6.343-6.343-16.627,0-22.97
		l65.603-65.603c6.343-6.343,16.627-6.343,22.97,0c6.343,6.343,6.343,16.627,0,22.97l-65.603,65.603
		C294.968,252.205,290.811,253.791,286.654,253.791z"/>
</g>
<rect x="383.489" y="12.074" transform="matrix(0.7071 -0.7071 0.7071 0.7071 56.0974 306.9849)" style="fill:#FF9E16;" width="30.246" height="147.407"/>
<g>
</g>
<g>
</g>
<g>
</g>
<g>
</g>
<g>
</g>
<g>
</g>
<g>
</g>
<g>
</g>
<g>
</g>
<g>
</g>
<g>
</g>
<g>
</g>
<g>
</g>
<g>
</g>
<g>
</g>
</svg>
