<svg xmlns="http://www.w3.org/2000/svg" width="45.248" height="47.257" viewBox="0 0 45.248 47.257">
    <g>
        <path fill="#ffffff" stroke="#ffffff" stroke-miterlimit="10" stroke-width="0.5px" d="M101.692 2471.353h-.457v-5.653a17.781 17.781 0 0 0 2.74-9.415c0-8.554-6.33-16.106-15.525-18.693v-3.407a1.369 1.369 0 0 0-1.37-1.369H76.122a1.369 1.369 0 0 0-1.37 1.369v3.407c-9.195 2.587-15.525 10.139-15.525 18.693a17.781 17.781 0 0 0 2.74 9.415v5.654h-.457a1.37 1.37 0 1 0 0 2.739h2.283v2.283a3.2 3.2 0 0 0 3.2 3.2h3.653a3.2 3.2 0 0 0 3.2-3.2v-2.283h15.517v2.283a3.2 3.2 0 0 0 3.2 3.2h3.653a3.2 3.2 0 0 0 3.2-3.2v-2.283h2.283a1.37 1.37 0 1 0 0-2.739zm-36.986 0v-2.74h2.74v2.74zm0-5.48v-2.283a.457.457 0 0 1 .457-.456h2.283v2.739zm6.393 10.5a.458.458 0 0 1-.457.457h-3.653a.457.457 0 0 1-.456-.457v-2.283H71.1zm14.155-5.022h-7.306v-3.651h7.306zm2.74 0v-5.023a1.37 1.37 0 0 0-1.37-1.37H76.578a1.37 1.37 0 0 0-1.37 1.37v5.023h-5.022v-8.219h22.83v8.219zm5.022-11.413v.454h-22.83v-.454a29.852 29.852 0 0 1 22.83.002zm-18.264-4.268v-5.323h13.7v5.323a31.708 31.708 0 0 0-13.7 0zm21.917 20.7a.457.457 0 0 1-.456.457H92.56a.458.458 0 0 1-.457-.457v-2.283h4.566zm1.827-5.022h-2.74v-2.74H98.5zm0-5.48h-2.74v-2.739h2.283a.457.457 0 0 1 .457.456zm-.457-5.479h-2.283v-1.37a1.371 1.371 0 0 0-.83-1.259 37.14 37.14 0 0 0-3.736-1.374v-6.042h1.37a1.37 1.37 0 0 0 0-2.74H70.642a1.37 1.37 0 0 0 0 2.74h1.37v6.042a37.139 37.139 0 0 0-3.736 1.374 1.371 1.371 0 0 0-.83 1.259v1.37h-2.283a3.187 3.187 0 0 0-2.285.964 14.748 14.748 0 0 1-.911-5.074c0-7.6 5.949-14.3 14.467-16.3a1.368 1.368 0 0 0 1.057-1.333v-3.1h8.219v3.1a1.369 1.369 0 0 0 1.058 1.333c8.518 2 14.467 8.7 14.467 16.3a14.748 14.748 0 0 1-.911 5.074 3.189 3.189 0 0 0-2.285-.959z" transform="translate(-58.977 -2432.565)"/>
    </g>
</svg>
