<svg xmlns="http://www.w3.org/2000/svg" width="23.931" height="20.908" viewBox="0 0 23.931 20.908">
    <defs>
        <style>
            .cls-2{fill:#ffffff}
        </style>
    </defs>
    <g id="Group_291" opacity="0.5" transform="translate(-6957.21 -3389.106)">
        <path id="Path_375" d="M6971.82 3390.7l.968-.963c.108-.108.215-.217.325-.324a1.017 1.017 0 0 1 1.468.007c.5.494.985.994 1.477 1.492l.542.548a.545.545 0 0 1 .132.762.947.947 0 0 0 .14 1.084.957.957 0 0 0 1.155.209.532.532 0 0 1 .747.121c.671.667 1.339 1.336 2.012 2a1.015 1.015 0 0 1 .019 1.525c-.534.541-1.074 1.076-1.611 1.614q-3.651 3.656-7.3 7.313l-3.06 3.064a1.011 1.011 0 0 1-1.536-.008c-.249-.252-.5-.5-.748-.752-.347.341-.685.674-1.021 1.008-.093.092-.183.188-.275.282a1 1 0 0 1-1.464.019c-.691-.685-1.374-1.379-2.058-2.071a.539.539 0 0 1-.116-.738.947.947 0 0 0-.778-1.4 1.173 1.173 0 0 0-.52.109.547.547 0 0 1-.725-.117q-1.036-1.029-2.068-2.06a1.007 1.007 0 0 1 .017-1.479l2.562-2.564 7.774-7.791q.83-.829 1.658-1.659a1.019 1.019 0 0 1 1.5.014c.252.26.514.5.784.755zm-1.494-.057c-.646.641-2.607 2.537-2.774 2.705q-4.588 4.62-9.194 9.222c-.041.041-.078.085-.142.154a1.067 1.067 0 0 1 .134.1c.575.569 1.151 1.138 1.72 1.713a.266.266 0 0 0 .289.075 1.9 1.9 0 0 1 1.373.126 1.8 1.8 0 0 1 .869 2.144.232.232 0 0 0 .072.258c.579.574 1.153 1.152 1.728 1.728.037.037.078.069.118.1.844-.782 1.589-1.637 2.407-2.42s1.6-1.594 2.406-2.394l2.414-2.41 2.4-2.4q1.2-1.2 2.4-2.414c-.05-.054-.079-.087-.109-.118-.568-.568-1.139-1.134-1.7-1.708a.3.3 0 0 0-.327-.1 1.789 1.789 0 0 1-1.846-.508 1.82 1.82 0 0 1-.385-1.734.277.277 0 0 0-.087-.315c-.211-.18-.415-.367-.62-.552a1.685 1.685 0 0 1-.123-.131zm9.789 5.763c-.048-.05-.084-.09-.123-.128-.547-.544-1.1-1.081-1.637-1.633a.4.4 0 0 0-.439-.131 1.763 1.763 0 0 1-1.953-.735 1.854 1.854 0 0 1-.21-1.544.22.22 0 0 0-.053-.249c-.382-.376-.756-.759-1.133-1.14l-.682-.688-1.35 1.289c.2.2.386.391.568.586a.512.512 0 0 1 .087.659 1.079 1.079 0 0 0-.1.274.96.96 0 0 0 1.37 1.059.538.538 0 0 1 .762.124c.188.184.372.37.558.555.5.5 1 .991 1.5 1.494a1 1 0 0 1 0 1.442l-.389.4c-.129.134-6.749 6.792-9.6 9.636l.793.744q5.981-5.976 12.031-12.011z" class="cls-2"/>
        <rect id="Rectangle_263" width="1.858" height=".913" class="cls-2" rx=".456" transform="rotate(45 -612.241 10108.257)"/>
        <rect id="Rectangle_264" width="1.858" height=".913" class="cls-2" rx=".456" transform="rotate(45 -613.625 10111.595)"/>
        <rect id="Rectangle_265" width="1.858" height=".913" class="cls-2" rx=".456" transform="rotate(45 -615.034 10114.999)"/>
    </g>
</svg>
