<svg xmlns="http://www.w3.org/2000/svg" width="51.208" height="44.739" viewBox="0 0 51.208 44.739">
    <defs>
        <style>
            .cls-1{fill:#3a4354}
        </style>
    </defs>
    <g id="Group_675" transform="translate(-44.196 -1759.249)">
        <path id="Path_861" d="M75.46 1762.665l2.07-2.06c.232-.231.462-.465.7-.693a2.174 2.174 0 0 1 3.14.015c1.06 1.057 2.108 2.127 3.161 3.191l1.161 1.173a1.168 1.168 0 0 1 .282 1.631 2.054 2.054 0 0 0 2.77 2.767 1.14 1.14 0 0 1 1.6.259l4.306 4.282a2.172 2.172 0 0 1 .039 3.264c-1.142 1.157-2.3 2.3-3.447 3.452q-7.811 7.824-15.62 15.65-3.273 3.279-6.549 6.556a2.163 2.163 0 0 1-3.286-.016c-.532-.541-1.069-1.077-1.6-1.612-.741.732-1.464 1.444-2.185 2.158-.2.2-.39.4-.587.6a2.14 2.14 0 0 1-3.134.042c-1.478-1.467-2.938-2.952-4.4-4.433a1.154 1.154 0 0 1-.249-1.579 2.025 2.025 0 0 0-1.665-2.986 2.518 2.518 0 0 0-1.112.232 1.171 1.171 0 0 1-1.552-.249q-2.217-2.2-4.426-4.409a2.155 2.155 0 0 1 .037-3.164q2.739-2.747 5.483-5.487l16.635-16.671 3.547-3.551a2.182 2.182 0 0 1 3.216.03c.527.543 1.087 1.056 1.665 1.608zm-3.2-.121c-1.382 1.372-5.579 5.429-5.937 5.789q-9.817 9.885-19.673 19.733c-.087.087-.167.181-.3.329a2.417 2.417 0 0 1 .287.2c1.23 1.218 2.462 2.435 3.68 3.665a.565.565 0 0 0 .617.162 4.073 4.073 0 0 1 2.938.269 3.849 3.849 0 0 1 1.86 4.588.5.5 0 0 0 .155.552c1.238 1.227 2.466 2.464 3.7 3.7.079.079.167.149.252.224 1.807-1.673 3.4-3.5 5.15-5.177s3.436-3.412 5.149-5.123l5.162-5.155 5.142-5.131q2.571-2.565 5.14-5.165c-.107-.115-.168-.186-.233-.251-1.215-1.217-2.437-2.428-3.641-3.656a.639.639 0 0 0-.7-.2 3.824 3.824 0 0 1-3.949-1.087 3.893 3.893 0 0 1-.824-3.711.594.594 0 0 0-.187-.674c-.451-.384-.888-.784-1.327-1.18-.1-.086-.177-.186-.264-.28zm20.946 12.331c-.1-.107-.18-.193-.262-.274-1.17-1.163-2.353-2.313-3.5-3.495a.858.858 0 0 0-.94-.28 3.773 3.773 0 0 1-4.18-1.571 3.977 3.977 0 0 1-.449-3.306.472.472 0 0 0-.113-.532c-.818-.8-1.618-1.625-2.425-2.439l-1.459-1.472-2.888 2.758c.422.433.826.837 1.216 1.253a1.1 1.1 0 0 1 .186 1.412 2.262 2.262 0 0 0-.225.586 2.053 2.053 0 0 0 2.931 2.266 1.15 1.15 0 0 1 1.63.266c.4.392.8.791 1.195 1.187 1.07 1.064 2.149 2.12 3.207 3.195a2.145 2.145 0 0 1 0 3.087c-.276.287-.557.569-.834.854-.249.257-14.441 14.533-20.541 20.619l1.7 1.593z" class="cls-1"/>
        <rect id="Rectangle_613" width="3.977" height="1.954" class="cls-1" rx=".261" transform="rotate(45 -2101.147 966.375)"/>
        <rect id="Rectangle_614" width="3.977" height="1.954" class="cls-1" rx=".261" transform="rotate(45 -2104.105 973.518)"/>
        <rect id="Rectangle_615" width="3.977" height="1.954" class="cls-1" rx=".261" transform="rotate(45 -2107.12 980.8)"/>
    </g>
</svg>
