<svg xmlns="http://www.w3.org/2000/svg" width="28.375" height="31.19" viewBox="0 0 28.375 31.19">
    <defs>
        <style>
            .cls-1{fill:#2d9483}
        </style>
    </defs>
    <g id="Group_1203" transform="translate(-5952.731 -385.753)">
        <path id="Path_1164" d="M5973.988 399.255v-5.9a.677.677 0 0 0-.189-.448l-6.617-6.949a.661.661 0 0 0-.475-.2h-10.492a3.5 3.5 0 0 0-3.484 3.517v19.84a3.473 3.473 0 0 0 3.484 3.49h8.282a8.94 8.94 0 1 0 9.491-13.345zm-6.631-11.22l4.44 4.674h-2.88a1.571 1.571 0 0 1-1.56-1.567zm-11.142 23.265a2.178 2.178 0 0 1-2.184-2.19v-19.84a2.2 2.2 0 0 1 2.184-2.217h9.842v4.089a2.866 2.866 0 0 0 2.86 2.867h3.771v5.077c-.195-.007-.351-.026-.52-.026a9.072 9.072 0 0 0-5.929 2.236h-8.255a.65.65 0 1 0 0 1.3h7.046a10.37 10.37 0 0 0-1.144 2.015h-5.9a.65.65 0 1 0 0 1.3h5.48a8.921 8.921 0 0 0 .39 5.4h-7.639zm15.946 4.349a7.638 7.638 0 1 1 7.638-7.638 7.646 7.646 0 0 1-7.638 7.638z" class="cls-1"/>
        <path id="Path_1165" d="M5957.984 399.339h6.585a.65.65 0 1 0 0-1.3h-6.585a.65.65 0 1 0 0 1.3z" class="cls-1"/>
        <path id="Path_1166" d="M5968.817 408.187l2.671-2.88v7.1a.65.65 0 0 0 1.3 0v-7.1l2.692 2.88a.656.656 0 0 0 .923.032.648.648 0 0 0 .032-.917l-3.8-4.088a.645.645 0 0 0-.949 0l-3.809 4.088a.647.647 0 1 0 .943.885z" class="cls-1"/>
    </g>
</svg>
