<svg xmlns="http://www.w3.org/2000/svg" width="25.521" height="25.518" viewBox="0 0 25.521 25.518">
    <defs>
        <style>
            .cls-1{fill:#ffffff}
        </style>
    </defs>
    <g id="Group_318" transform="translate(-684.406 -647.027)">
        <path id="Path_515" d="M690.168 652.377v-2.656-2.135c0-.425.131-.559.546-.559h12.912c.4 0 .535.138.535.545v8.921h4.385c.421 0 .553.132.553.553v13.441h.38a.408.408 0 0 1 .441.43c.008.394.007.789 0 1.183a.411.411 0 0 1-.43.442h-24.433c-.556 0-.651-.1-.651-.661v-.848c0-.417.133-.546.558-.548h.265V653c0-.509.109-.619.616-.619h4.323zm13.152 18.1v-22.615h-12.314v22.606h2.866v-5.984c0-.459.122-.582.574-.582h5.428c.458 0 .583.123.583.575v5.998zm-17.249-17.262v17.262h4.083v-17.265zm18.109 4.116v13.137h4.084v-13.14zm-6.593 13.145h2.032v-5.73h-2.032zm-.839-5.727h-2.035v5.72h2.035zM685.24 671.7h23.849v-.381H685.24z" class="cls-1"/>
        <path id="Path_516" d="M697.165 648.673h4.784c.438 0 .566.129.566.566v3.01c0 .4-.138.539-.541.54h-9.62c-.4 0-.539-.137-.539-.541v-3.035c0-.4.136-.539.54-.54zm4.513 3.28v-2.44h-1.613v2.44zm-4.082-2.447v2.446h1.611v-2.446zm-.856 2.449v-2.443h-1.616v2.443zm-2.471.005v-2.446h-1.612v2.446z" class="cls-1"/>
        <path id="Path_517" d="M697.139 662.667h-4.759c-.437 0-.565-.128-.566-.565v-3.01c0-.4.136-.54.539-.54h9.62c.4 0 .54.137.541.54v3.035c0 .4-.137.54-.54.54zm-4.484-3.281v2.437h1.615v-2.437zm2.47 0v2.437h1.615v-2.437zm4.076 2.447v-2.444h-1.608v2.444zm2.481-2.44h-1.615v2.436h1.615z" class="cls-1"/>
        <path id="Path_518" d="M697.164 653.612h4.785c.438 0 .566.128.566.565v3.01c0 .4-.137.54-.54.54h-9.62c-.4 0-.54-.136-.54-.54v-3.035c0-.4.136-.539.539-.54zm-4.508.835v2.437h1.614v-2.437zm2.469 0v2.437h1.615v-2.437zm2.469 0v2.437h1.615v-2.437zm4.086.006h-1.615v2.439h1.615z" class="cls-1"/>
        <path id="Path_519" d="M686.464 655.258v-1.157c0-.337.151-.487.487-.488h2.315c.336 0 .487.151.488.487q.006 1.158 0 2.315c0 .336-.152.487-.487.489h-2.315c-.336 0-.485-.152-.488-.488-.003-.386 0-.772 0-1.158zm2.457-.808H687.3v1.612h1.617z" class="cls-1"/>
        <path id="Path_520" d="M689.756 663.47v1.157c0 .356-.147.507-.495.508h-2.314c-.333 0-.481-.154-.482-.494v-2.315c0-.333.153-.48.493-.482h2.315c.333 0 .48.153.483.493.003.378 0 .755 0 1.133zm-.841.831v-1.614H687.3v1.613z" class="cls-1"/>
        <path id="Path_521" d="M688.084 661.02h-1.131c-.336 0-.487-.152-.488-.488v-2.314c0-.337.151-.487.487-.488h2.315c.336 0 .487.151.488.487q.006 1.158 0 2.315c0 .336-.152.485-.487.488-.395.003-.789 0-1.184 0zm-.775-2.464v1.624h1.6v-1.624z" class="cls-1"/>
        <path id="Path_522" d="M704.573 659.373v-1.158c0-.336.152-.485.489-.486h2.314c.336 0 .486.152.488.488v2.315c0 .335-.153.486-.489.487h-2.315c-.336 0-.484-.152-.487-.489-.003-.386 0-.771 0-1.157zm.843-.812v1.624h1.612v-1.624z" class="cls-1"/>
        <path id="Path_523" d="M706.219 661.844h1.158c.336 0 .486.152.488.488v2.315c0 .336-.153.487-.489.488h-2.315c-.335 0-.486-.152-.487-.488v-2.315c0-.337.151-.485.488-.488.386-.003.772 0 1.157 0zm.8 2.457v-1.614h-1.609v1.613z" class="cls-1"/>
    </g>
</svg>
