<svg xmlns="http://www.w3.org/2000/svg" width="23.751" height="19.782" viewBox="0 0 23.751 19.782">
    <defs>
        <style>
            .cls-1{fill:#ed4136}
        </style>
    </defs>
    <g id="Group_213" transform="translate(-1581.687 -574.713)">
        <path id="Path_339" d="M1592.267 581.5a1.3 1.3 0 0 1 2.591 0v5.348a1.3 1.3 0 0 1-2.591 0z" class="cls-1"/>
        <g id="Group_212">
            <path id="Path_340" d="M1604.086 594.495h-21.048a1.368 1.368 0 0 1-1.164-.64 1.259 1.259 0 0 1 0-1.322l10.517-17.179a1.38 1.38 0 0 1 2.331 0l10.436 17.045a1.273 1.273 0 0 1 .28.794 1.329 1.329 0 0 1-1.352 1.302zm-10.53-18.854a.434.434 0 0 0-.373.2l-10.518 17.181a.329.329 0 0 0 0 .352.433.433 0 0 0 .373.2h21.048a.4.4 0 0 0 .424-.373.338.338 0 0 0-.084-.223l-.023-.028-.019-.031-10.454-17.074a.434.434 0 0 0-.374-.204z" class="cls-1"/>
            <path id="Path_341" d="M1593.562 592.206a1.5 1.5 0 1 1 1.5-1.5 1.5 1.5 0 0 1-1.5 1.5z" class="cls-1"/>
        </g>
    </g>
</svg>
