<svg xmlns="http://www.w3.org/2000/svg" width="38.222" height="39.652" viewBox="0 0 38.222 39.652">
    <defs>
        <style>
            .cls-1{fill:#3a4354}
        </style>
    </defs>
    <g id="Group_92" transform="translate(-249.089 -807)">
        <path id="Path_281" d="M278.588 845.171H250.57v-26.18h7.413v-8.647a1.919 1.919 0 0 1 .412-1.256 1.944 1.944 0 0 1 1.319-.605h18.874v16.561l1.482-1.481V807h-22.015a2.222 2.222 0 0 0-1.894.892l-6.449 8.351a3.4 3.4 0 0 0-.623 1.937v28.47h30.981v-13.305l-1.482 1.481z" class="cls-1"/>
        <path id="Path_282" d="M272.848 827.278a.846.846 0 0 0-.847-.846h-14.845a.846.846 0 1 0 0 1.692H272a.846.846 0 0 0 .848-.846z" class="cls-1"/>
        <path id="Path_283" d="M262.983 833.071a.846.846 0 1 0 0-1.692h-5.827a.846.846 0 1 0 0 1.692z" class="cls-1"/>
        <path id="Path_284" d="M257.157 823.178h11.8a.846.846 0 1 0 0-1.692h-11.8a.846.846 0 1 0 0 1.692z" class="cls-1"/>
        <path id="Path_285" d="M257.643 841a.688.688 0 0 0 .766-.6 5.472 5.472 0 0 1 1.515-3.458 3.184 3.184 0 0 1 .2 1.371c0 2.152.307 3.147 1.059 3.436.858.33 1.632-.529 2.094-1.042.22-.245.384-.332.463-.332.191 0 .542.385.8.666.148.162.3.329.464.481a2.055 2.055 0 0 0 1.388.575 2.841 2.841 0 0 0 1.915-.909l.116-.108a6 6 0 0 0 3.309-1.493l1.788-1.788-2.8-2.8-1.789 1.789a6.011 6.011 0 0 0-1.495 3.326l-.071.065c-.893.833-1.254.5-1.428.334-.122-.114-.25-.254-.385-.4a2.621 2.621 0 0 0-1.814-1.113h-.005a2.034 2.034 0 0 0-1.481.787 5.221 5.221 0 0 1-.567.563 7.237 7.237 0 0 1-.188-2.036c0-2.224-.781-2.738-1.435-2.778-1.457-.088-2.734 2.359-3.018 4.7a.687.687 0 0 0 .599.764z" class="cls-1"/>
        <path id="Path_286" d="M286.731 821.792a1.977 1.977 0 0 0-2.8 0L271.724 834l2.8 2.8 11.636-11.635a1.318 1.318 0 0 1-.4 1.145l-5.018 5.018a.448.448 0 0 0 .634.634l5.018-5.018a2.166 2.166 0 0 0 .471-2.5 1.976 1.976 0 0 0-.134-2.652z" class="cls-1"/>
    </g>
</svg>
