<svg xmlns="http://www.w3.org/2000/svg" width="45.251" height="46.946" viewBox="0 0 45.251 46.946">
    <defs>
        <style>
            .cls-1{fill:#ffffff}
        </style>
    </defs>
    <g id="Group_1023" transform="translate(-4854.616 -288.2)">
        <path id="Path_1217" d="M4889.541 333.393h-33.173v-31h8.778V292.16a2.267 2.267 0 0 1 .487-1.488 2.3 2.3 0 0 1 1.561-.716h22.347v19.608l1.754-1.754V288.2h-26.064a2.635 2.635 0 0 0-2.243 1.057l-7.635 9.887a4.034 4.034 0 0 0-.737 2.294v33.706h36.679v-15.753l-1.754 1.754z" class="cls-1"/>
        <path id="Path_1218" d="M4882.745 312.209a1 1 0 0 0-1-1h-17.577a1 1 0 0 0 0 2h17.577a1 1 0 0 0 1-1z" class="cls-1"/>
        <path id="Path_1219" d="M4871.065 319.068a1 1 0 0 0 0-2h-6.9a1 1 0 0 0 0 2z" class="cls-1"/>
        <path id="Path_1220" d="M4864.167 307.354h13.968a1 1 0 1 0 0-2h-13.968a1 1 0 1 0 0 2z" class="cls-1"/>
        <path id="Path_1221" d="M4864.743 328.459a.812.812 0 0 0 .906-.709 6.494 6.494 0 0 1 1.794-4.1 3.752 3.752 0 0 1 .234 1.624c0 2.548.363 3.726 1.254 4.068 1.016.391 1.931-.626 2.478-1.233.262-.29.455-.394.549-.394.226 0 .642.456.946.789.175.192.356.39.549.57a2.437 2.437 0 0 0 1.644.68 3.363 3.363 0 0 0 2.267-1.076l.138-.128a7.106 7.106 0 0 0 3.917-1.767l2.117-2.117-3.311-3.311-2.117 2.117a7.126 7.126 0 0 0-1.771 3.938l-.083.077c-1.058.986-1.486.587-1.691.395-.145-.134-.3-.3-.456-.475a3.1 3.1 0 0 0-2.149-1.32h-.006a2.4 2.4 0 0 0-1.753.932 5.99 5.99 0 0 1-.671.665 8.487 8.487 0 0 1-.224-2.41c0-2.633-.924-3.241-1.7-3.288-1.724-.1-3.236 2.792-3.573 5.563a.813.813 0 0 0 .712.91z" class="cls-1"/>
        <path id="Path_1222" d="M4899.182 305.714a2.34 2.34 0 0 0-3.311 0l-14.457 14.456 3.311 3.311L4898.5 309.7a1.564 1.564 0 0 1-.475 1.357l-5.941 5.94a.531.531 0 0 0 .751.751l5.941-5.941a2.564 2.564 0 0 0 .558-2.958 2.34 2.34 0 0 0-.152-3.135z" class="cls-1"/>
    </g>
</svg>
