<?xml version="1.0" encoding="UTF-8" standalone="no" ?>
<!DOCTYPE svg PUBLIC "-//W3C//DTD SVG 1.1//EN" "http://www.w3.org/Graphics/SVG/1.1/DTD/svg11.dtd">
<svg xmlns="http://www.w3.org/2000/svg" xmlns:xlink="http://www.w3.org/1999/xlink" version="1.1" width="1080" height="1080" viewBox="0 0 1080 1080" xml:space="preserve">
<desc>Created with Fabric.js 5.2.4</desc>
<defs>
</defs>
<g transform="matrix(1 0 0 1 540 540)" id="8cd6bee7-5231-45cb-8668-e18b449777f4"  >
<rect style="stroke: none; stroke-width: 1; stroke-dasharray: none; stroke-linecap: butt; stroke-dashoffset: 0; stroke-linejoin: miter; stroke-miterlimit: 4; fill: rgb(255,255,255); fill-rule: nonzero; opacity: 1; visibility: hidden;" vector-effect="non-scaling-stroke"  x="-540" y="-540" rx="0" ry="0" width="1080" height="1080" />
</g>
<g transform="matrix(1 0 0 1 540 540)" id="38646103-a163-4b09-8556-f418b10204e2"  >
</g>
<g transform="matrix(1 0 0 1 540 540)"  >
<g style="" vector-effect="non-scaling-stroke"   >
		<g transform="matrix(1.56 0 0 1.56 0 0)"  >
<path style="stroke: none; stroke-width: 1; stroke-dasharray: none; stroke-linecap: butt; stroke-dashoffset: 0; stroke-linejoin: miter; stroke-miterlimit: 4; fill: rgb(235,179,5); fill-rule: nonzero; opacity: 1;" vector-effect="non-scaling-stroke"  transform=" translate(-256, -256)" d="M 255.996 74.939 C 114.838 74.939 0 189.784 0 330.942 C 0 350.588 2.24 370.175 6.667 389.17 C 7.176 391.35 7.76 393.372 8.411999999999999 395.244 C 16.125999999999998 419.91600000000005 39.36 437.06100000000004 65.277 437.06100000000004 L 446.64099999999996 437.06100000000004 C 470.74499999999995 437.06100000000004 492.48799999999994 422.276 501.64099999999996 400.38200000000006 C 502.74899999999997 398.20200000000006 503.67099999999994 395.7830000000001 504.37499999999994 393.08600000000007 C 504.6449999999999 392.06000000000006 505.06399999999996 390.3450000000001 505.6929999999999 387.55800000000005 C 509.8719999999999 369.08000000000004 511.99999999999994 350.01800000000003 511.99999999999994 330.94100000000003 C 512 189.784 397.155 74.939 255.996 74.939 z M 475.763 380.811 C 474.73699999999997 385.358 474.407 386.45099999999996 474.332 386.45099999999996 L 474.399 385.53 C 470.82 397.88 459.502 406.38199999999995 446.641 406.38199999999995 L 65.277 406.38199999999995 C 52.446 406.38199999999995 41.158 397.92599999999993 37.548 385.61199999999997 L 37.758 387.02799999999996 C 37.713 387.02799999999996 37.428000000000004 386.00199999999995 36.544000000000004 382.212 C 32.709 365.741 30.679000000000002 348.581 30.679000000000002 330.942 C 30.679000000000002 206.49400000000003 131.55599999999998 105.618 255.996 105.618 C 380.43600000000004 105.618 481.32000000000005 206.494 481.32000000000005 330.942 C 481.321 348.08 479.396 364.767 475.763 380.811 z" stroke-linecap="round" />
</g>
		<g transform="matrix(1.56 0 0 1.56 -0.01 117.09)"  >
<path style="stroke: none; stroke-width: 1; stroke-dasharray: none; stroke-linecap: butt; stroke-dashoffset: 0; stroke-linejoin: miter; stroke-miterlimit: 4; fill: rgb(235,179,5); fill-rule: nonzero; opacity: 1;" vector-effect="non-scaling-stroke"  transform=" translate(-256, -330.94)" d="M 267.569 297.207 C 263.93600000000004 295.96299999999997 260.04900000000004 295.252 255.997 295.252 C 236.29000000000002 295.252 220.31400000000002 311.228 220.31400000000002 330.942 C 220.31400000000002 350.648 236.29000000000002 366.624 255.997 366.624 C 274.033 366.624 288.909 353.232 291.305 335.855 C 291.53000000000003 334.237 291.67900000000003 332.612 291.67900000000003 330.942 C 291.679 315.288 281.59 302.015 267.569 297.207 z" stroke-linecap="round" />
</g>
		<g transform="matrix(1.56 0 0 1.56 119.33 2.45)"  >
<path style="stroke: none; stroke-width: 1; stroke-dasharray: none; stroke-linecap: butt; stroke-dashoffset: 0; stroke-linejoin: miter; stroke-miterlimit: 4; fill: rgb(235,179,5); fill-rule: nonzero; opacity: 1;" vector-effect="non-scaling-stroke"  transform=" translate(-332.37, -257.57)" d="M 399.716 194.787 C 396.57800000000003 191.395 390.908 191.31900000000002 386.459 194.607 L 262.865 285.611 C 265.56100000000004 286.02299999999997 268.243 286.65999999999997 270.879 287.566 C 286.84700000000004 293.049 298.285 306.748 301.154 322.94899999999996 L 398.944 208.03599999999994 C 402.548 203.813 402.877 198.143 399.716 194.787 z" stroke-linecap="round" />
</g>
		<g transform="matrix(1.56 0 0 1.56 140.93 -129.89)"  >
<path style="stroke: none; stroke-width: 1; stroke-dasharray: none; stroke-linecap: butt; stroke-dashoffset: 0; stroke-linejoin: miter; stroke-miterlimit: 4; fill: rgb(235,179,5); fill-rule: nonzero; opacity: 1;" vector-effect="non-scaling-stroke"  transform=" translate(-346.2, -172.87)" d="M 340.402 182.908 C 345.945 186.12199999999999 353.03 184.21099999999998 356.236 178.66899999999998 C 359.442 173.118 357.539 166.033 351.997 162.82 C 346.454 159.63 339.353 161.53199999999998 336.148 167.067 C 332.956 172.624 334.844 179.717 340.402 182.908 z" stroke-linecap="round" />
</g>
		<g transform="matrix(1.56 0 0 1.56 5.06 -166.29)"  >
<path style="stroke: none; stroke-width: 1; stroke-dasharray: none; stroke-linecap: butt; stroke-dashoffset: 0; stroke-linejoin: miter; stroke-miterlimit: 4; fill: rgb(235,179,5); fill-rule: nonzero; opacity: 1;" vector-effect="non-scaling-stroke"  transform=" translate(-259.24, -149.57)" d="M 259.239 161.172 C 265.65099999999995 161.172 270.834 155.966 270.834 149.577 C 270.834 143.166 265.651 137.975 259.239 137.975 C 252.843 137.975 247.64499999999998 143.166 247.64499999999998 149.577 C 247.645 155.966 252.843 161.172 259.239 161.172 z" stroke-linecap="round" />
</g>
		<g transform="matrix(1.56 0 0 1.56 -280.99 120.47)"  >
<path style="stroke: none; stroke-width: 1; stroke-dasharray: none; stroke-linecap: butt; stroke-dashoffset: 0; stroke-linejoin: miter; stroke-miterlimit: 4; fill: rgb(235,179,5); fill-rule: nonzero; opacity: 1;" vector-effect="non-scaling-stroke"  transform=" translate(-76.17, -333.1)" d="M 76.175 320.898 C 69.449 320.898 63.965999999999994 326.36600000000004 63.965999999999994 333.107 C 63.965999999999994 339.848 69.448 345.30100000000004 76.175 345.30100000000004 C 82.916 345.30100000000004 88.369 339.84800000000007 88.369 333.107 C 88.369 326.366 82.916 320.898 76.175 320.898 z" stroke-linecap="round" />
</g>
		<g transform="matrix(1.56 0 0 1.56 -230.24 -30.44)"  >
<path style="stroke: none; stroke-width: 1; stroke-dasharray: none; stroke-linecap: butt; stroke-dashoffset: 0; stroke-linejoin: miter; stroke-miterlimit: 4; fill: rgb(235,179,5); fill-rule: nonzero; opacity: 1;" vector-effect="non-scaling-stroke"  transform=" translate(-108.64, -236.52)" d="M 114.441 226.471 C 108.899 223.26500000000001 101.798 225.18200000000002 98.592 230.725 C 95.402 236.267 97.304 243.353 102.831 246.566 C 108.38900000000001 249.772 115.489 247.862 118.69500000000001 242.31900000000002 C 121.886 236.776 119.984 229.677 114.441 226.471 z" stroke-linecap="round" />
</g>
		<g transform="matrix(1.56 0 0 1.56 -130.79 -129.89)"  >
<path style="stroke: none; stroke-width: 1; stroke-dasharray: none; stroke-linecap: butt; stroke-dashoffset: 0; stroke-linejoin: miter; stroke-miterlimit: 4; fill: rgb(235,179,5); fill-rule: nonzero; opacity: 1;" vector-effect="non-scaling-stroke"  transform=" translate(-172.3, -172.87)" d="M 166.497 162.82 C 160.93900000000002 166.033 159.05200000000002 173.118 162.258 178.66899999999998 C 165.449 184.21099999999998 172.549 186.12199999999999 178.092 182.908 C 183.63500000000002 179.718 185.537 172.60899999999998 182.346 167.06699999999998 C 179.141 161.531 172.04 159.629 166.497 162.82 z" stroke-linecap="round" />
</g>
		<g transform="matrix(1.56 0 0 1.56 240.38 -30.44)"  >
<path style="stroke: none; stroke-width: 1; stroke-dasharray: none; stroke-linecap: butt; stroke-dashoffset: 0; stroke-linejoin: miter; stroke-miterlimit: 4; fill: rgb(235,179,5); fill-rule: nonzero; opacity: 1;" vector-effect="non-scaling-stroke"  transform=" translate(-409.84, -236.52)" d="M 404.038 226.471 C 398.49600000000004 229.677 396.593 236.77700000000002 399.79900000000004 242.32 C 403.00500000000005 247.878 410.091 249.773 415.648 246.567 C 421.19 243.354 423.093 236.268 419.887 230.726 C 416.696 225.182 409.595 223.265 404.038 226.471 z" stroke-linecap="round" />
</g>
		<g transform="matrix(1.56 0 0 1.56 276.79 105.41)"  >
<path style="stroke: none; stroke-width: 1; stroke-dasharray: none; stroke-linecap: butt; stroke-dashoffset: 0; stroke-linejoin: miter; stroke-miterlimit: 4; fill: rgb(235,179,5); fill-rule: nonzero; opacity: 1;" vector-effect="non-scaling-stroke"  transform=" translate(-433.14, -323.46)" d="M 433.144 335.062 C 439.556 335.062 444.73900000000003 329.878 444.73900000000003 323.475 C 444.73900000000003 317.06300000000005 439.55600000000004 311.865 433.144 311.865 C 426.733 311.865 421.55 317.063 421.55 323.475 C 421.55 329.878 426.733 335.062 433.144 335.062 z" stroke-linecap="round" />
</g>
</g>
</g>
<g transform="matrix(NaN NaN NaN NaN 0 0)"  >
<g style=""   >
</g>
</g>
</svg>