<svg id="svg" xmlns="http://www.w3.org/2000/svg" xmlns:xlink="http://www.w3.org/1999/xlink" width="400" height="370.94972067039106" viewBox="0, 0, 400,370.94972067039106"><g id="svgg"><path id="path0" d="M157.062 37.430 L 152.357 43.575 168.301 59.777 L 184.246 75.978 167.591 92.744 L 150.937 109.510 157.641 116.214 L 164.345 122.918 181.001 106.150 L 197.657 89.382 213.854 105.471 L 230.050 121.559 235.696 116.256 C 243.266 109.144,243.418 109.548,226.432 91.542 L 211.523 75.738 227.594 59.559 L 243.665 43.380 236.873 36.873 L 230.081 30.366 213.867 46.471 L 197.653 62.577 182.127 46.931 C 164.619 29.289,163.593 28.899,157.062 37.430 M155.196 143.925 C 141.013 150.103,131.883 166.994,131.856 187.105 L 131.844 196.556 86.592 197.160 L 41.341 197.765 40.713 225.140 L 40.086 252.514 50.211 252.514 L 60.335 252.514 60.335 297.207 L 60.335 341.899 87.053 341.899 L 113.771 341.899 114.427 325.698 L 115.084 309.497 123.464 308.804 L 131.844 308.110 131.844 325.005 L 131.844 341.899 141.899 341.899 L 151.955 341.899 151.955 325.140 L 151.955 308.380 197.765 308.380 L 243.575 308.380 243.575 325.140 L 243.575 341.899 252.416 341.899 L 261.257 341.899 261.913 325.698 L 262.570 309.497 271.508 309.497 L 280.447 309.497 281.103 325.698 L 281.760 341.899 308.478 341.899 L 335.196 341.899 335.196 297.207 L 335.196 252.514 344.134 252.514 L 353.073 252.514 353.073 224.581 L 353.073 196.648 307.263 196.648 L 261.453 196.648 261.453 181.336 C 261.453 162.606,256.189 153.277,241.408 145.810 C 229.345 139.716,167.942 138.374,155.196 143.925 M237.816 165.194 C 242.727 169.813,243.575 172.530,243.575 183.630 L 243.575 196.648 197.765 196.648 L 151.955 196.648 152.026 183.799 C 152.152 161.173,157.234 158.596,200.385 159.277 C 230.489 159.752,232.341 160.045,237.816 165.194 M335.196 225.698 L 335.196 234.637 197.765 234.637 L 60.335 234.637 60.335 225.698 L 60.335 216.760 197.765 216.760 L 335.196 216.760 335.196 225.698 M96.089 290.503 L 96.089 328.492 87.151 328.492 L 78.212 328.492 78.212 290.503 L 78.212 252.514 87.151 252.514 L 96.089 252.514 96.089 290.503 M281.096 272.067 L 281.745 290.503 197.856 290.503 L 113.966 290.503 113.966 271.481 L 113.966 252.460 197.207 253.045 L 280.447 253.631 281.096 272.067 M317.318 290.503 L 317.318 328.492 308.380 328.492 L 299.441 328.492 299.441 290.503 L 299.441 252.514 308.380 252.514 L 317.318 252.514 317.318 290.503 " stroke="none" fill="#000000" fill-rule="evenodd"></path></g></svg>