<svg xmlns="http://www.w3.org/2000/svg" width="22.567" height="33.247" viewBox="0 0 22.567 33.247">
    <defs>
        <style>
            .cls-2{fill:#ffffff}
        </style>
    </defs>
    <g id="Group_234" data-name="Group 234" transform="translate(-3041.433 -110.502)" style="opacity:1">
        <g id="Group_233" data-name="Group 233">
            <g id="Group_232" data-name="Group 232">
                <path id="Path_239" data-name="Path 239" class="cls-2" d="M3052.717 110.5a11.3 11.3 0 0 0-11.284 11.283c0 2.5 1.472 6.3 4.633 11.966a126.16 126.16 0 0 0 4.394 7.266l1.551 2.352a.845.845 0 0 0 1.411 0l1.552-2.352c.09-.136 2.221-3.372 4.394-7.266 3.16-5.663 4.632-9.465 4.632-11.966a11.3 11.3 0 0 0-11.283-11.283zm5.174 22.425c-2.143 3.84-4.24 7.025-4.328 7.159l-.846 1.282-.846-1.282c-.089-.135-2.2-3.348-4.329-7.159-2.931-5.253-4.418-9-4.418-11.142a9.593 9.593 0 0 1 19.185 0c0 2.142-1.486 5.891-4.418 11.144z"/>
                <path id="Path_240" data-name="Path 240" class="cls-2" d="M3052.717 115.459a6.256 6.256 0 1 0 6.256 6.256 6.263 6.263 0 0 0-6.256-6.256zm0 10.821a4.565 4.565 0 1 1 4.565-4.565 4.57 4.57 0 0 1-4.565 4.565z"/>
            </g>
        </g>
    </g>
</svg>
