<svg xmlns="http://www.w3.org/2000/svg" width="30.672" height="30.667" viewBox="0 0 30.672 30.667">
    <defs>
        <style>
            .cls-2{fill:#ffffff}
        </style>
    </defs>
    <g id="Group_236" data-name="Group 236" transform="translate(-3417.328 -111.792)" style="opacity:1">
        <g id="Group_235" data-name="Group 235">
            <path id="Path_242" data-name="Path 242" class="cls-2" d="M3423.746 111.835a7.543 7.543 0 0 0-3.466 1.391 8.947 8.947 0 0 0-1.513 1.513 7.361 7.361 0 0 0-1.04 6.754 8.471 8.471 0 0 0 1.04 1.977c.169.229.8.918 1.4 1.522l1.086 1.1.623-.619.619-.618-1.1-1.115a6.466 6.466 0 0 1-2-2.777 5.476 5.476 0 0 1-.295-2.394 5.572 5.572 0 0 1 5.011-5.011 5.783 5.783 0 0 1 3.026.552c.8.4.75.356 6.712 6.309l5.677 5.673.623-.623.618-.619-5.667-5.662c-4.145-4.141-5.78-5.743-6.089-5.968a7.9 7.9 0 0 0-2.96-1.3 9.812 9.812 0 0 0-2.305-.085z"/>
            <path id="Path_243" data-name="Path 243" class="cls-2" d="M3439.948 111.816a7.9 7.9 0 0 0-2.67.815 9.353 9.353 0 0 0-2.473 1.981l-1.092 1.078.623.623.619.623 1.1-1.092a6.4 6.4 0 0 1 2.764-1.99 5.532 5.532 0 0 1 4.243.22 4.91 4.91 0 0 1 1.462 1.007 4.818 4.818 0 0 1 1.133 1.55 5.537 5.537 0 0 1-.585 5.9c-.141.178-2.183 2.257-4.539 4.613l-4.291 4.286-.608-.609a7.4 7.4 0 0 0-.623-.585c-.024.033-1.345 4.979-1.331 4.993s4.815-1.274 4.947-1.321c.046-.014-.127-.22-.534-.628l-.609-.609 4.384-4.388c3.157-3.162 4.468-4.511 4.693-4.815a7.387 7.387 0 0 0 0-8.736 9.2 9.2 0 0 0-1.508-1.508 7.3 7.3 0 0 0-4.45-1.433c-.271.009-.566.016-.655.025z"/>
            <path id="Path_244" data-name="Path 244" class="cls-2" d="m3428.528 120.322-2.445.665.562.562a5.858 5.858 0 0 1 .563.609c0 .024-1.832 1.878-4.066 4.122-2.9 2.909-4.159 4.2-4.38 4.5a7.371 7.371 0 0 0 .005 8.73 8.874 8.874 0 0 0 1.513 1.513 7.362 7.362 0 0 0 6.754 1.04 8.456 8.456 0 0 0 1.977-1.04c.234-.168.932-.815 1.56-1.433l1.138-1.124-.623-.623-.618-.623-1.153 1.138a6.558 6.558 0 0 1-2.81 2.038 5.576 5.576 0 0 1-7.321-6.338 6.452 6.452 0 0 1 .468-1.4c.389-.773.464-.857 4.741-5.143l4.1-4.108.632.633.637.637.642-2.4c.356-1.321.655-2.45.669-2.511s.01-.1-.032-.1-1.164.295-2.513.656z"/>
            <path id="Path_245" data-name="Path 245" class="cls-2" d="M3443.376 128.706a5.421 5.421 0 0 0-.571.619c0 .023.5.548 1.115 1.166a6.528 6.528 0 0 1 2.014 2.791 5.534 5.534 0 0 1-.22 4.244 4.881 4.881 0 0 1-.984 1.438 5.556 5.556 0 0 1-5.134 1.639 6.411 6.411 0 0 1-1.405-.468c-.8-.4-.749-.356-6.712-6.309l-5.677-5.672-.623.622-.618.619 5.668 5.663c4.145 4.14 5.78 5.742 6.089 5.967a7.371 7.371 0 0 0 8.73 0 8.813 8.813 0 0 0 1.513-1.513 7.359 7.359 0 0 0 1.04-6.754 8.453 8.453 0 0 0-1.04-1.976 32.187 32.187 0 0 0-2.561-2.652 5.547 5.547 0 0 0-.624.576z"/>
        </g>
    </g>
</svg>
