<?xml version="1.0" encoding="iso-8859-1"?>
<!-- Generator: Adobe Illustrator 19.0.0, SVG Export Plug-In . SVG Version: 6.00 Build 0)  -->
<svg version="1.1" id="Layer_1" xmlns="http://www.w3.org/2000/svg" xmlns:xlink="http://www.w3.org/1999/xlink" x="0px" y="0px"
	 viewBox="0 0 463 463" style="enable-background:new 0 0 463 463;" xml:space="preserve">
	  <defs>
        <style>
            .cls-1{fill:#2d9483}
        </style>
    </defs>
<g>
	<g>
		<g>
			<path d="M275,159.5c0-4.142-3.358-7.5-7.5-7.5h-112c-4.142,0-7.5,3.358-7.5,7.5c0,4.142,3.358,7.5,7.5,7.5h112
				C271.642,167,275,163.642,275,159.5z" class="cls-1" />
			<path d="M259,191.5c0-4.142-3.358-7.5-7.5-7.5h-80c-4.142,0-7.5,3.358-7.5,7.5c0,4.142,3.358,7.5,7.5,7.5h80
				C255.642,199,259,195.642,259,191.5z" class="cls-1" />
			<path d="M259.5,135c12.958,0,23.5-10.542,23.5-23.5S272.458,88,259.5,88h-96c-12.958,0-23.5,10.542-23.5,23.5
				s10.542,23.5,23.5,23.5H259.5z M155,111.5c0-4.687,3.813-8.5,8.5-8.5h96c4.687,0,8.5,3.813,8.5,8.5s-3.813,8.5-8.5,8.5h-96
				C158.813,120,155,116.187,155,111.5z" class="cls-1" />
			<path d="M346.723,417.14c-1.57-19.72-10.354-37.431-23.723-50.486V15.5C323,6.953,316.047,0,307.5,0h-192
				C106.953,0,100,6.953,100,15.5v432c0,8.547,6.953,15.5,15.5,15.5h224c12.958,0,23.5-10.542,23.5-23.5
				C363,429.062,356.157,420.195,346.723,417.14z M331.55,416h-128.1c3.73-32.043,31.023-57,64.05-57S327.82,383.957,331.55,416z
				 M173.597,448H115.5c-0.276,0-0.5-0.224-0.5-0.5v-432c0-0.276,0.224-0.5,0.5-0.5h192c0.276,0,0.5,0.224,0.5,0.5v339.627
				c-9.839-5.85-21.036-9.638-33-10.763V327h8.5c4.142,0,7.5-3.358,7.5-7.5c0-4.142-3.358-7.5-7.5-7.5h-32
				c-4.142,0-7.5,3.358-7.5,7.5c0,4.142,3.358,7.5,7.5,7.5h8.5v17.364c-38.239,3.596-68.667,34.385-71.723,72.776
				C178.843,420.195,172,429.062,172,439.5C172,442.497,172.57,445.362,173.597,448z M339.5,448h-144c-4.687,0-8.5-3.813-8.5-8.5
				s3.813-8.5,8.5-8.5h144c4.687,0,8.5,3.813,8.5,8.5S344.187,448,339.5,448z" class="cls-1" />
		</g>
	</g>
</g>
<g>
</g>
<g>
</g>
<g>
</g>
<g>
</g>
<g>
</g>
<g>
</g>
<g>
</g>
<g>
</g>
<g>
</g>
<g>
</g>
<g>
</g>
<g>
</g>
<g>
</g>
<g>
</g>
<g>
</g>
</svg>
