<?xml version="1.0" encoding="UTF-8" standalone="no" ?>
<!DOCTYPE svg PUBLIC "-//W3C//DTD SVG 1.1//EN" "http://www.w3.org/Graphics/SVG/1.1/DTD/svg11.dtd">
<svg xmlns="http://www.w3.org/2000/svg" xmlns:xlink="http://www.w3.org/1999/xlink" version="1.1" width="1080" height="1080" viewBox="0 0 1080 1080" xml:space="preserve">
<desc>Created with Fabric.js 5.2.4</desc>
<defs>
</defs>
<g transform="matrix(1 0 0 1 540 540)" id="4ab6500e-5cc4-4b25-b7f6-d1190e12b310"  >
<rect style="stroke: none; stroke-width: 1; stroke-dasharray: none; stroke-linecap: butt; stroke-dashoffset: 0; stroke-linejoin: miter; stroke-miterlimit: 4; fill: rgb(255,255,255); fill-rule: nonzero; opacity: 1; visibility: hidden;" vector-effect="non-scaling-stroke"  x="-540" y="-540" rx="0" ry="0" width="1080" height="1080" />
</g>
<g transform="matrix(1 0 0 1 540 540)" id="02fd11d0-d36c-47f4-b5ea-1ea5c05cae7c"  >
</g>
<g transform="matrix(1 0 0 1 540 540)"  >
<g style="" vector-effect="non-scaling-stroke"   >
		<g transform="matrix(1 0 0 1 34.21 51.31)"  >
<path style="stroke: none; stroke-width: 1; stroke-dasharray: none; stroke-linecap: butt; stroke-dashoffset: 0; stroke-linejoin: miter; stroke-miterlimit: 4; fill: rgb(21,130,200); fill-rule: nonzero; opacity: 1;" vector-effect="non-scaling-stroke"  transform=" translate(-290.21, -307.31)" d="M 290.208 239.432 C 262.21200000000005 239.432 239.43500000000003 262.209 239.43500000000003 290.205 L 239.43500000000003 324.40999999999997 C 239.43500000000003 352.40599999999995 262.21200000000005 375.183 290.208 375.183 C 318.204 375.183 340.98100000000005 352.406 340.98100000000005 324.40999999999997 L 340.98100000000005 290.205 C 340.981 262.208 318.203 239.432 290.208 239.432 z M 324.947 324.409 C 324.947 343.56399999999996 309.362 359.14799999999997 290.208 359.14799999999997 C 271.05400000000003 359.14799999999997 255.46900000000002 343.563 255.46900000000002 324.409 L 255.46900000000002 290.204 C 255.46900000000002 271.049 271.05400000000003 255.465 290.208 255.465 C 309.36300000000006 255.465 324.947 271.05 324.947 290.204 L 324.947 324.409 z" stroke-linecap="round" />
</g>
		<g transform="matrix(1 0 0 1 -72.68 51.31)"  >
<path style="stroke: none; stroke-width: 1; stroke-dasharray: none; stroke-linecap: butt; stroke-dashoffset: 0; stroke-linejoin: miter; stroke-miterlimit: 4; fill: rgb(21,130,200); fill-rule: nonzero; opacity: 1;" vector-effect="non-scaling-stroke"  transform=" translate(-183.32, -307.31)" d="M 226.613 343.656 C 223.073 340.998 218.048 341.712 215.388 345.25100000000003 C 208.752 354.08400000000006 198.62 359.15000000000003 187.591 359.15000000000003 C 168.436 359.15000000000003 152.852 343.56500000000005 152.852 324.41100000000006 L 152.852 290.2060000000001 C 152.852 271.05100000000004 168.437 255.46700000000007 187.591 255.46700000000007 C 198.609 255.46700000000007 208.734 260.52400000000006 215.37 269.3420000000001 C 218.032 272.8800000000001 223.056 273.5900000000001 226.596 270.9270000000001 C 230.13400000000001 268.26400000000007 230.844 263.23800000000006 228.181 259.7010000000001 C 218.488 246.82100000000008 203.693 239.43400000000008 187.59 239.43400000000008 C 159.594 239.43400000000008 136.817 262.21100000000007 136.817 290.2070000000001 L 136.817 324.4120000000001 C 136.817 352.4080000000001 159.594 375.1850000000001 187.59 375.1850000000001 C 203.709 375.1850000000001 218.513 367.78500000000014 228.20600000000002 354.8830000000001 C 230.866 351.34 230.152 346.315 226.613 343.656 z" stroke-linecap="round" />
</g>
		<g transform="matrix(1 0 0 1 119.72 98.34)"  >
<path style="stroke: none; stroke-width: 1; stroke-dasharray: none; stroke-linecap: butt; stroke-dashoffset: 0; stroke-linejoin: miter; stroke-miterlimit: 4; fill: rgb(21,130,200); fill-rule: nonzero; opacity: 1;" vector-effect="non-scaling-stroke"  transform=" translate(-375.72, -354.34)" d="M 392.822 376.251 L 371.265 376.251 L 390.791 361.60699999999997 C 397.08299999999997 356.88899999999995 400.839 349.37699999999995 400.839 341.51199999999994 C 400.839 327.66099999999994 389.571 316.3929999999999 375.72 316.3929999999999 C 361.869 316.3929999999999 350.601 327.66099999999994 350.601 341.51199999999994 C 350.601 345.93899999999996 354.19 349.52899999999994 358.618 349.52899999999994 C 363.045 349.52899999999994 366.635 345.93999999999994 366.635 341.51199999999994 C 366.635 336.50199999999995 370.711 332.42599999999993 375.721 332.42599999999993 C 380.731 332.42599999999993 384.807 336.50199999999995 384.807 341.51199999999994 C 384.807 344.35599999999994 383.44800000000004 347.07399999999996 381.173 348.78099999999995 L 357.23 366.7389999999999 C 353.081 369.8519999999999 350.603 374.8059999999999 350.603 379.99299999999994 L 350.603 384.26899999999995 C 350.603 388.69599999999997 354.192 392.28599999999994 358.62 392.28599999999994 L 392.825 392.28599999999994 C 397.252 392.28599999999994 400.842 388.69699999999995 400.842 384.26899999999995 C 400.842 379.84099999999995 397.25 376.251 392.822 376.251 z" stroke-linecap="round" />
</g>
		<g transform="matrix(1 0 0 1 0 0)"  >
<path style="stroke: none; stroke-width: 1; stroke-dasharray: none; stroke-linecap: butt; stroke-dashoffset: 0; stroke-linejoin: miter; stroke-miterlimit: 4; fill: rgb(21,130,200); fill-rule: nonzero; opacity: 1;" vector-effect="non-scaling-stroke"  transform=" translate(-256, -256)" d="M 428.699 248.556 C 417.656 247.316 406.548 248.092 395.683 250.864 C 395.48199999999997 250.916 395.346 250.797 395.33 250.769 C 391.53299999999996 237.326 385.722 224.495 378.238 212.71 L 468.31399999999996 212.71 C 490.667 212.71 509.77099999999996 195.97400000000002 511.80899999999997 174.609 C 512.942 162.72400000000002 509.01399999999995 150.872 501.03099999999995 142.09300000000002 C 493.042 133.30700000000002 481.65399999999994 128.26700000000002 469.78499999999997 128.26700000000002 C 465.19699999999995 128.26700000000002 460.66999999999996 129.01700000000002 456.32699999999994 130.497 C 456.2149999999999 130.43900000000002 455.97099999999995 130.262 455.80799999999994 129.881 C 446.4119999999999 108.121 425.04599999999994 94.061 401.37499999999994 94.061 C 378.19199999999995 94.061 357.2969999999999 107.611 347.64199999999994 128.335 C 330.67999999999995 129.306 316.23599999999993 140.405 310.57199999999995 156 C 304.39699999999993 153.481 298.06399999999996 151.378 291.58799999999997 149.747 C 280.332 126.21400000000001 256.61499999999995 111.16300000000001 230.34799999999996 111.16300000000001 C 226.41999999999996 111.16300000000001 222.43799999999996 111.52100000000002 218.51499999999996 112.22900000000001 C 218.11299999999997 112.302 217.67699999999996 112.11000000000001 217.53099999999995 111.88300000000001 C 203.36299999999994 90.01400000000001 179.38299999999995 76.96000000000001 153.38699999999994 76.96000000000001 C 122.56799999999994 76.96000000000001 94.93299999999994 95.35300000000001 82.98099999999994 123.81800000000001 C 82.82899999999994 124.17800000000001 82.55999999999993 124.36200000000001 82.42899999999993 124.41600000000001 C 70.70499999999993 119.433 57.78299999999993 118.391 45.05499999999993 121.40500000000002 C 23.085999999999927 126.60700000000001 5.9169999999999305 144.264 1.313999999999929 166.389 C -2.408000000000071 184.281 1.952999999999929 202.53 13.278999999999929 216.454 C 21.503999999999927 226.566 32.611999999999924 233.52700000000002 44.94199999999993 236.591 C 35.69399999999993 243.55200000000002 27.50599999999993 251.851 20.684999999999928 261.298 C 7.504 279.551 0.355 300.767 0.014 322.65 C -0.452 352.54699999999997 10.834 380.73499999999996 31.793 402.024 C 52.756 423.31600000000003 80.755 435.04200000000003 110.631 435.04200000000003 L 415.457 435.04200000000003 C 435.731 435.04200000000003 455.195 429.019 471.74399999999997 417.624 C 488.654 405.98 500.924 389.781 507.22499999999997 370.776 C 516.0419999999999 344.18600000000004 512.415 315.368 497.27399999999994 291.713 C 481.964 267.793 456.328 251.659 428.699 248.556 z M 350.045 144.299 C 350.165 144.303 350.516 144.351 350.774 144.387 C 351.269 144.454 351.764 144.518 352.266 144.561 C 355.916 144.87 359.312 142.66400000000002 360.514 139.203 C 366.56 121.793 382.979 110.096 401.373 110.096 C 418.64 110.096 434.228 120.357 441.085 136.238 C 444.609 144.399 453.366 148.462 461.453 145.689 C 464.13899999999995 144.768 466.94199999999995 144.301 469.782 144.301 C 477.144 144.301 484.209 147.428 489.16499999999996 152.879 C 494.18899999999996 158.404 496.561 165.581 495.84599999999995 173.088 C 494.5849999999999 186.316 482.49099999999993 196.678 468.31299999999993 196.678 L 366.455 196.678 C 359.796 188.793 352.31399999999996 181.584 344.099 175.26999999999998 C 338.057 170.62699999999998 331.726 166.522 325.164 162.933 C 328.418 152.043 338.414 144.3 350.045 144.299 z M 25.72 206.333 C 17.451999999999998 196.168 14.277999999999999 182.797 17.012999999999998 169.65 C 20.302 153.839 33.056 140.72 48.75 137.00400000000002 C 58.147 134.77900000000002 67.642 135.53500000000003 76.211 139.19100000000003 C 80.119 140.85800000000003 84.468 140.88600000000002 88.454 139.27100000000004 C 92.61099999999999 137.58600000000004 96.005 134.21500000000003 97.764 130.02200000000005 C 107.209 107.52700000000004 129.042 92.99200000000005 153.387 92.99200000000005 C 173.925 92.99200000000005 192.874 103.31300000000005 204.074 120.60000000000005 C 207.782 126.32400000000005 214.567 129.23100000000005 221.358 128.00900000000004 C 224.345 127.47100000000005 227.37 127.19800000000004 230.348 127.19800000000004 C 246.12800000000001 127.19800000000004 260.704 134.31300000000005 270.392 146.09600000000003 C 265.64 145.63200000000003 260.842 145.36900000000003 256.001 145.36900000000003 C 230.59099999999998 145.36900000000003 205.58899999999997 152.04600000000002 183.70199999999997 164.67800000000003 C 162.47699999999998 176.92900000000003 144.56299999999996 194.49900000000002 131.89999999999998 215.49200000000002 C 131.84099999999998 215.58900000000003 131.66199999999998 215.88600000000002 131.16799999999998 215.79000000000002 C 110.89199999999998 211.86700000000002 90.95299999999997 213.752 71.89999999999998 221.39100000000002 C 71.15099999999998 221.69100000000003 70.41299999999998 222.01500000000001 69.67199999999998 222.329 L 59.324 222.329 L 59.324 222.33 C 46.237 222.33 33.989 216.499 25.72 206.333 z M 492.007 365.729 C 481.44 397.596 450.677 419.008 415.457 419.008 L 110.632 419.008 C 85.08500000000001 419.008 61.145 408.98199999999997 43.21900000000001 390.775 C 25.29800000000001 372.573 15.648000000000007 348.46799999999996 16.04600000000001 322.9 C 16.33600000000001 304.31899999999996 22.43600000000001 286.262 33.68600000000001 270.681 C 44.784000000000006 255.31099999999998 60.063 243.41299999999998 77.869 236.272 C 88.65 231.94899999999998 99.458 229.79999999999998 110.565 229.79999999999998 C 116.325 229.79999999999998 122.167 230.378 128.123 231.53099999999998 C 135.106 232.88299999999998 141.974 229.837 145.631 223.77299999999997 C 156.898 205.09699999999998 172.835 189.46399999999997 191.719 178.56499999999997 C 211.173 167.33699999999996 233.402 161.40299999999996 256.003 161.40299999999996 C 313.366 161.40299999999996 364.31399999999996 199.94499999999996 379.902 255.12899999999996 C 382.272 263.518 391.128 268.573 399.647 266.402 C 408.629 264.11 417.802 263.46799999999996 426.912 264.491 C 449.78499999999997 267.061 471.043 280.46799999999996 483.77299999999997 300.358 C 496.477 320.208 499.403 343.425 492.007 365.729 z" stroke-linecap="round" />
</g>
</g>
</g>
<g transform="matrix(NaN NaN NaN NaN 0 0)"  >
<g style=""   >
</g>
</g>
</svg>