<svg xmlns="http://www.w3.org/2000/svg" width="20.665" height="27.674" viewBox="0 0 20.665 27.674">
    <defs>
        <style>
            .cls-1{fill:#1582c8}
        </style>
    </defs>
    <g id="Group_41" transform="translate(-1285.664 -5001.679)">
        <path id="Path_8" d="M1297.782 5029.353c-.358-.072-.719-.132-1.073-.218a7.911 7.911 0 0 1-3.312-1.7 12.237 12.237 0 0 1-2.494-3.121c-1.016-1.693-2.1-3.343-3.15-5.017-.547-.874-1.1-1.744-1.6-2.646a3.645 3.645 0 0 1-.487-1.823 1.691 1.691 0 0 1 1.522-1.532 3.855 3.855 0 0 1 2.378.853c.535.355 1.03.771 1.569 1.179v-.291-7.673a2.141 2.141 0 0 1 1.422-1.987 2.234 2.234 0 0 1 2.452.539 2.037 2.037 0 0 1 .609 1.482c.005 1.387 0 2.774 0 4.161v.321a2.3 2.3 0 0 1 1.935-.315 2.125 2.125 0 0 1 1.444 1.319 2.378 2.378 0 0 1 2.416-.329 2.181 2.181 0 0 1 1.359 1.987c.117-.059.227-.121.342-.173a2.273 2.273 0 0 1 2.653.523 1.983 1.983 0 0 1 .553 1.342c0 1.946.019 3.891-.007 5.836a7.158 7.158 0 0 1-1.5 4.276 7.381 7.381 0 0 1-2.864 2.322 6.551 6.551 0 0 1-2.251.635c-.029 0-.055.033-.083.051zm-5.73-11.805l-.077.043a9.174 9.174 0 0 0-.681-.742c-.719-.635-1.443-1.266-2.192-1.866a3.691 3.691 0 0 0-1.579-.759c-.369-.075-1 .275-.922.758a3.143 3.143 0 0 0 .309 1.079c.939 1.574 1.919 3.124 2.884 4.683.626 1.011 1.238 2.032 1.883 3.033a12.838 12.838 0 0 0 2.308 2.9 7 7 0 0 0 3.252 1.61 6.562 6.562 0 0 0 2.7.027 6.906 6.906 0 0 0 5.469-6.856c-.015-1.621 0-3.243-.006-4.864a1.777 1.777 0 0 0-.055-.472 1.288 1.288 0 0 0-2.536.088c-.032.216-.056.433-.083.644h-.891v-.359c-.017-.708 0-1.419-.066-2.122a1.277 1.277 0 0 0-2.092-.722 1.456 1.456 0 0 0-.489 1.16c-.007.392 0 .785 0 1.172h-.919c0-.363.007-.705 0-1.047a12.652 12.652 0 0 0-.061-1.446 1.277 1.277 0 0 0-1.609-1.006 1.382 1.382 0 0 0-.973 1.362c-.013.91 0 1.82 0 2.729v.279h-.919v-.332-8.565a4.3 4.3 0 0 0-.055-.717 1.325 1.325 0 0 0-1.366-1.064 1.406 1.406 0 0 0-1.226 1.411v9.673z" class="cls-1"/>
        <path id="Path_9" d="M1294.16 5001.679c.453.125.916.222 1.356.383a5.279 5.279 0 0 1 1.752 1.074 5.735 5.735 0 0 1 1.922 4.094 5.628 5.628 0 0 1-.542 2.762 8.588 8.588 0 0 1-.473.82c-.034.051-.17.064-.25.05-.274-.048-.543-.117-.838-.183a4.748 4.748 0 0 0 1.108-2.373 4.5 4.5 0 0 0-.27-2.448 4.837 4.837 0 0 0-2.037-2.447 4.756 4.756 0 0 0-5.426.268 4.893 4.893 0 0 0-1.913 3.147 4.566 4.566 0 0 0 .853 3.515 11.18 11.18 0 0 0 .784.863.352.352 0 0 1 .079.21c.008.323 0 .648 0 1a4.661 4.661 0 0 1-1.247-1.045 5.818 5.818 0 0 1-1.408-4.686 5.462 5.462 0 0 1 1.225-2.881 5.6 5.6 0 0 1 3.333-2.017c.142-.027.281-.07.422-.106z" class="cls-1"/>
        <path id="Path_10" d="M1290.269 5009.985a3.8 3.8 0 0 1-.725-3.816 3.89 3.89 0 0 1 3.411-2.7 3.959 3.959 0 0 1 4.169 2.481 3.853 3.853 0 0 1-.64 4.036c0-.82.012-1.617 0-2.415a3.143 3.143 0 0 0-2.473-3.116 3.092 3.092 0 0 0-3.627 2.3 4.7 4.7 0 0 0-.109.975c-.017.746-.006 1.489-.006 2.255z" class="cls-1"/>
    </g>
</svg>
