<svg xmlns="http://www.w3.org/2000/svg" width="68.985" height="45.022" viewBox="0 0 68.985 45.022">
    <path fill="#2d9483" d="M219.819 160.869v-8.931l-15.537-6.6v17.25l-.644-.1v-17.149l-9.133 6.6v9.085l-15.528-2.486v29.017h-1.349v-29.176l-12.953 5.22v23.955h-3.735v2.807h68.985v-2.807h-3.246v-24.067zM169.55 167.5l1.975-.618v2.7l-1.975.538zm0 6.973l1.975-.407v2.7l-1.975.327zm0 6.973l1.975-.2v2.7l-1.975.115zm-3.444-12.868l1.768-.554v2.553l-1.768.482zm0 6.6l1.768-.364v2.552l-1.768.293zm0 6.6l1.768-.175v2.552l-1.768.1zm57.721-16.394l1.575.53v2.17l-1.575-.479zm0 3.528l1.575.448v2.169l-1.575-.4zm0 3.529l1.575.364v2.17l-1.575-.312zm0 3.529l1.575.281v2.169l-1.575-.228zm0 3.529l1.575.2v2.169l-1.575-.146zm0 3.528l1.575.115v2.17l-1.575-.063zm-3.167-18.707l1.725.582v2.27l-1.725-.525zm0 3.7l1.725.491v2.269l-1.725-.433zm0 3.7l1.725.4v2.269l-1.725-.341zm0 3.7l1.725.309v2.269l-1.725-.25zm0 3.7l1.725.216v2.27l-1.725-.159zm0 3.7l1.725.125v2.27l-1.725-.068zm-3.326-.243l1.892.138v2.375l-1.892-.09zm0-3.871l1.892.237v2.357l-1.892-.175zm0-11.616l1.892.538v2.375l-1.892-.475zm0-3.871l1.892.637v2.375l-1.892-.575zm1.892 8.181v2.375l-1.892-.375v-2.438zm0 3.772v2.374l-1.892-.274v-2.438zm-12.619-24.4l11.522 4.373v2.256l-11.522-4.101zm0 5.007l11.522 3.784v.685l-2.326-.889v28.219h-.6v-28.3l-2.319.953-6.278-1.9zm7.344 9.764l-1.379.451v-2.4l1.379-.5zm0 7.785l-1.379.294v-2.4l1.379-.343zm0 3.892l-1.379.216v-2.4l1.379-.265zm0 7.785l-1.379.058v-2.4l1.379-.108zm-2.434-14.912l-.925.249v-2.33l.925-.283zm0 7.508l-.925.144v-2.33l.925-.178zm0 3.754l-.925.092v-2.331l.925-.125zm-.925 1.462l.925-.072v2.363l-.925.04zm1.98-1.567v-2.4l1.379-.186v2.45zm-1.98-7.206v-2.331l.925-.23v2.364zm1.98-4.236v-2.4l1.379-.421v2.45zm-1.055-5.833v2.364l-.925.3v-2.33zm-4.91-3.189l2.946.817-.4.165v1.624l-2.544-.407zm-6.717 1.123l2.415-1.138v1.525zm-4.365-6.781l6.78-4.378v2.559l-6.78 4.076zm0 4.42l6.78-3.788v2.559l-5.9 3.033-.882-.142zm-11.99 6.014l23.781 2.978v2.491l-23.781-2.6zm0 7.644l23.781 1.966v2.492l-23.781-1.586zm0 7.645l23.781.953v2.492l-23.781-.573z" transform="translate(-160.94 -145.339)"/>
</svg>
