<svg xmlns="http://www.w3.org/2000/svg" width="32.345" height="32.815" viewBox="0 0 32.345 32.815">
    <defs>
        <style>
            .cls-1{fill:#fff}
        </style>
    </defs>
    <g id="Group_158" transform="translate(-40.97 -558.185)">
        <path id="Path_30" d="M56.513 591H41.5a.524.524 0 1 1 0-1.048h15.013a.524.524 0 0 1 0 1.048z" class="cls-1"/>
        <g id="Group_20">
            <g id="Group_19">
                <g id="Group_18">
                    <path id="Path_31" d="M48.361 564.459a3.137 3.137 0 1 1 3.137-3.137 3.141 3.141 0 0 1-3.137 3.137zm0-5.227a2.09 2.09 0 1 0 2.089 2.09 2.091 2.091 0 0 0-2.089-2.09z" class="cls-1"/>
                </g>
            </g>
            <path id="Path_32" d="M50.346 591h-3.97a1.343 1.343 0 0 1-1.322-1.25l-.761-10.295c-1.161-.267-2.624-1.157-2.731-2.356l-.589-7.908c-.005-.1 0-.161 0-.2a3.419 3.419 0 0 1 3.275-3.424h18.1a.523.523 0 0 1 .523.524 3.075 3.075 0 0 1-3.072 3.071H53.2l-1.532 20.588a1.341 1.341 0 0 1-1.322 1.25zm-6.087-24.382a2.369 2.369 0 0 0-2.24 2.4.791.791 0 0 0 0 .109l.587 7.888c.054.611 1.23 1.328 2.119 1.459.035.005.071.01.107.013a.523.523 0 0 1 .475.483l.792 10.7a.306.306 0 0 0 .277.279h3.97a.3.3 0 0 0 .277-.279l1.57-21.069a.524.524 0 0 1 .522-.485H59.8a2.027 2.027 0 0 0 1.956-1.5z" class="cls-1"/>
        </g>
        <path id="Path_33" d="M48.359 590.662a.524.524 0 0 1-.524-.523v-11.884a.524.524 0 0 1 1.048 0v11.884a.524.524 0 0 1-.524.523z" class="cls-1"/>
        <path id="Path_34" d="M44.784 579.53a.523.523 0 0 1-.522-.485l-.66-8.926a.523.523 0 1 1 1.044-.077l.661 8.926a.525.525 0 0 1-.484.561z" class="cls-1"/>
        <path id="Path_35" d="M61.939 591h-5.426a.524.524 0 0 1-.524-.524V581.3a.523.523 0 0 1 .524-.524h5.426a.523.523 0 0 1 .523.524v9.174a.524.524 0 0 1-.523.526zm-4.9-1.048h4.379v-8.127h-4.382z" class="cls-1"/>
        <path id="Path_36" d="M67.365 591h-5.426a.524.524 0 0 1-.524-.524V573.7a.524.524 0 0 1 .524-.524h5.426a.524.524 0 0 1 .523.524v16.778a.524.524 0 0 1-.523.522zm-4.9-1.048h4.379v-15.73h-4.382z" class="cls-1"/>
        <path id="Path_37" d="M72.791 591h-5.426a.524.524 0 0 1-.524-.524v-24.381a.524.524 0 0 1 .524-.524h5.426a.524.524 0 0 1 .524.524v24.381a.524.524 0 0 1-.524.524zm-4.9-1.048h4.379v-23.334h-4.382z" class="cls-1"/>
    </g>
</svg>
