<svg xmlns="http://www.w3.org/2000/svg" width="9.538" height="9.538" viewBox="0 0 9.538 9.538">
    <defs>
        <style>
            .cls-1{fill:#00be4b}
        </style>
    </defs>
    <g id="Group_133" transform="translate(-1183.462 -528.844)">
        <path id="Path_407" d="M1188.231 538.382a4.769 4.769 0 1 1 4.769-4.769 4.774 4.774 0 0 1-4.769 4.769zm0-8.842a4.073 4.073 0 1 0 4.073 4.073 4.077 4.077 0 0 0-4.073-4.073z" class="cls-1"/>
        <path id="Path_408" d="M1187.928 534.031l-.056-.052-.925-.925a.3.3 0 0 0-.479 0c-.08.078-.158.158-.236.237a.3.3 0 0 0 0 .478l1.438 1.438a.3.3 0 0 0 .5 0l.705-.705 1.68-1.68a.3.3 0 0 0 0-.463l-.237-.236a.3.3 0 0 0-.49 0l-1.207 1.206z" class="cls-1"/>
    </g>
</svg>
