<svg xmlns="http://www.w3.org/2000/svg" width="72" height="74.347" viewBox="0 0 72 74.347">
    <defs>
        <style>
            .cls-1{fill:#2d9483}
        </style>
    </defs>
    <g id="Group_402" transform="translate(-7316.883 -3453.404)">
        <g id="Group_401">
            <path id="Path_535" d="M7388.671 3493.938l-7.371-10.647-.022-.029-.033-.042-.006-.008-.012-.016-.022-.024-.038-.039-.018-.019-.02-.018-.043-.036-.047-.038c-.014-.011-.03-.021-.045-.031l-.053-.035-.046-.025c-.019-.011-.039-.021-.06-.031l-.045-.02a.7.7 0 0 0-.065-.025l-.025-.01-18.72-6.183a1.194 1.194 0 0 0-.749 2.268l15.758 5.2-22.885 10.012-1.549-.638 6.255-17.794a11.329 11.329 0 0 0 4.8-19.408 1.194 1.194 0 0 0-1.926.491l-2.421 6.885-3.337 1.331-1.769-3.126 2.42-6.885a1.2 1.2 0 0 0-1.2-1.589 11.328 11.328 0 0 0-8.4 18.145l-6.037 17.172-11.232-4.625 12.054-3.955a1.194 1.194 0 1 0-.744-2.269l-15.127 4.962c-.021.007-.041.016-.061.024l-.032.012c-.026.011-.05.023-.075.035l-.029.015-.022.012-.019.012-.027.017-.032.02-.021.013-.037.03-.037.029-.017.013-.032.031a.4.4 0 0 0-.039.037l-.04.044-.038.044-.014.017-8.189 10.646a1.195 1.195 0 0 0 .438 1.809l7.5 3.531v14.224a1.194 1.194 0 0 0 .686 1.081l27.844 13.1.015.006a.807.807 0 0 0 .087.035l.031.012q.047.015.1.027l.027.007c.034.007.069.012.1.017h.023a1.059 1.059 0 0 0 .128.007c.044 0 .088 0 .131-.007h.031c.033-.005.067-.01.1-.018l.035-.008.093-.028.035-.013c.03-.011.06-.024.089-.038l.021-.009 26.206-13.1a1.2 1.2 0 0 0 .661-1.069v-14.412l6.71-3.355a1.194 1.194 0 0 0 .448-1.748zm-39.217-22.221a1.193 1.193 0 0 0-.219-1.172 8.942 8.942 0 0 1 4.419-14.451l-1.935 5.506a1.2 1.2 0 0 0 .087.985l2.551 4.506a1.2 1.2 0 0 0 1.482.52l4.81-1.918a1.2 1.2 0 0 0 .684-.713l1.935-5.506a8.941 8.941 0 0 1-5.594 14.037 1.194 1.194 0 0 0-.9.778l-6.433 18.3-7.18-2.956zm-22.8 13.706l25.653 10.563-6.807 10.214-18.568-8.738a1.16 1.16 0 0 0-.321-.151l-6.68-3.144zm.8 14.93l17.951 8.448a1.194 1.194 0 0 0 1.5-.418l6-9v25.294l-25.455-11.979zm51.662 12.362l-23.818 11.909v-25.734l6.875 8.75a1.194 1.194 0 0 0 1.473.33l15.47-7.735zm-15.667-7.317l-7.453-9.486 23.892-10.452 6.027 8.705z" class="cls-1"/>
            <path id="Path_536" d="M7352.77 3480.231a1.194 1.194 0 1 0-2.253-.792l-2.5 7.123a1.194 1.194 0 1 0 2.253.792z" class="cls-1"/>
        </g>
    </g>
</svg>
