<svg xmlns="http://www.w3.org/2000/svg" width="32.097" height="26.202" viewBox="0 0 32.097 26.202">
    <defs>
        <style>
            .cls-1{fill:#2d9483}
        </style>
    </defs>
    <g id="Group_286" transform="translate(-709.228 -4183.836)">
        <g id="Group_285">
            <g id="Group_284">
                <path id="Path_343" d="M739.347 4191.625a7.846 7.846 0 0 0-8.7-2.237 8.2 8.2 0 0 0-5.313 7.4 8.047 8.047 0 0 0 4.748 7.456c.105.055.214.1.344.167-.11.118-.192.213-.28.3a10.71 10.71 0 0 1-8.872 3.255 10.53 10.53 0 0 1-6.891-3.205 11.128 11.128 0 0 1 9.467-18.8 10.553 10.553 0 0 1 4.845 1.96 1.364 1.364 0 0 0 .812.229.892.892 0 0 0 .824-.753.99.99 0 0 0-.45-1.09 12.571 12.571 0 0 0-9.467-2.312 13 13 0 0 0-6.83 22.588 12.475 12.475 0 0 0 11.759 3.066 13.2 13.2 0 0 0 7.09-4.472.508.508 0 0 1 .35-.185 8.18 8.18 0 0 0 8.066-5.315 7.882 7.882 0 0 0 .447-2.056 8.089 8.089 0 0 0-1.949-5.996zm-6.005 11.356a6.045 6.045 0 1 1 6.086-6.035 5.876 5.876 0 0 1-6.086 6.035z" class="cls-1"/>
                <path id="Path_344" d="M721 4195.221l-2.96-2.959a1.011 1.011 0 1 0-1.417 1.431q.867.87 1.736 1.736 1.6 1.6 3.205 3.2a.96.96 0 0 0 1.124.238.94.94 0 0 0 .615-.908c0-3.032.009-6.063-.009-9.094a1.223 1.223 0 0 0-.275-.675.931.931 0 0 0-1.088-.254 1.012 1.012 0 0 0-.64.991v6.561c-.126-.117-.21-.188-.291-.267z" class="cls-1"/>
            </g>
        </g>
        <path id="Path_345" d="M732.81 4198.039v-1.7c0-.691-.005-1.383 0-2.075a.625.625 0 0 1 .86-.642.608.608 0 0 1 .386.607v3.81c.1-.1.159-.15.215-.206.318-.317.632-.64.955-.953a.622.622 0 0 1 .923-.028.63.63 0 0 1-.042.91q-1.089 1.1-2.187 2.187a.628.628 0 0 1-.982-.01q-1.08-1.078-2.157-2.157a.628.628 0 0 1-.152-.79.589.589 0 0 1 .688-.295.961.961 0 0 1 .361.226c.326.31.638.634.956.952.044.046.09.085.176.164z" class="cls-1"/>
    </g>
</svg>
