<svg xmlns="http://www.w3.org/2000/svg" width="22.398" height="20.727" viewBox="0 0 22.398 20.727">
  <defs>
    <style>
      .cls-1 {
        fill: #3a4354;
      }
    </style>
  </defs>
  <g id="Group_48" data-name="Group 48" transform="translate(-788.207 -130.121)">
    <g id="Group_47" data-name="Group 47">
      <g id="Group_45" data-name="Group 45">
        <path id="Path_37" data-name="Path 37" class="cls-1" d="M793.347,150.848A8.675,8.675,0,0,1,790,150.2l-.033-.014a3.009,3.009,0,0,1-1.489-1.171.722.722,0,0,1-.107-.547.561.561,0,0,1,.3-.373c.311-.147.545.065.735.282a2.907,2.907,0,0,0,.795.634,5.854,5.854,0,0,0,1.965.577,8.463,8.463,0,0,0,3.346-.173,3.216,3.216,0,0,0,1.859-1.077.718.718,0,0,1,.631-.361.505.505,0,0,1,.434.363.711.711,0,0,1-.022.36,2.712,2.712,0,0,1-1.844,1.567A9.306,9.306,0,0,1,793.347,150.848Z"/>
        <path id="Path_38" data-name="Path 38" class="cls-1" d="M793.347,147.917a8.677,8.677,0,0,1-3.343-.648l-.033-.013a3.011,3.011,0,0,1-1.489-1.172.721.721,0,0,1-.107-.547.559.559,0,0,1,.3-.372c.311-.148.545.064.735.281a2.892,2.892,0,0,0,.795.635,5.852,5.852,0,0,0,1.965.576,8.462,8.462,0,0,0,3.346-.172,3.217,3.217,0,0,0,1.859-1.078.715.715,0,0,1,.631-.36.5.5,0,0,1,.434.362.711.711,0,0,1-.022.36,2.71,2.71,0,0,1-1.844,1.567A9.307,9.307,0,0,1,793.347,147.917Z"/>
        <path id="Path_39" data-name="Path 39" class="cls-1" d="M793.347,144.985a8.675,8.675,0,0,1-3.343-.647l-.033-.014a3.011,3.011,0,0,1-1.489-1.172.719.719,0,0,1-.107-.546.559.559,0,0,1,.3-.373c.311-.148.545.064.735.282a2.907,2.907,0,0,0,.795.634,5.877,5.877,0,0,0,1.965.577,8.462,8.462,0,0,0,3.346-.173,3.216,3.216,0,0,0,1.859-1.077.716.716,0,0,1,.631-.361.506.506,0,0,1,.434.362.711.711,0,0,1-.022.36,2.711,2.711,0,0,1-1.844,1.568A9.329,9.329,0,0,1,793.347,144.985Z"/>
        <path id="Path_40" data-name="Path 40" class="cls-1" d="M793.4,136.584c-2.87,0-5.2,1.223-5.2,2.732s2.327,2.731,5.2,2.731,5.2-1.223,5.2-2.731S796.274,136.584,793.4,136.584Zm0,4.424c-2.226,0-4.031-.757-4.031-1.692s1.8-1.693,4.031-1.693,4.031.758,4.031,1.693S795.631,141.008,793.4,141.008Z"/>
      </g>
      <g id="Group_46" data-name="Group 46">
        <path id="Path_41" data-name="Path 41" class="cls-1" d="M805.408,130.121c-2.87,0-5.2,1.223-5.2,2.732s2.327,2.732,5.2,2.732,5.2-1.224,5.2-2.732S808.278,130.121,805.408,130.121Zm0,4.425c-2.226,0-4.031-.758-4.031-1.693s1.8-1.693,4.031-1.693,4.031.758,4.031,1.693S807.634,134.546,805.408,134.546Z"/>
        <path id="Path_42" data-name="Path 42" class="cls-1" d="M805.351,150.848a8.676,8.676,0,0,1-3.343-.647l-.033-.014a3.009,3.009,0,0,1-1.489-1.171.726.726,0,0,1-.108-.547.562.562,0,0,1,.3-.373c.311-.147.545.065.735.282a2.908,2.908,0,0,0,.8.634,5.847,5.847,0,0,0,1.965.577,8.463,8.463,0,0,0,3.346-.173,3.216,3.216,0,0,0,1.859-1.077.717.717,0,0,1,.631-.361.505.505,0,0,1,.434.363.712.712,0,0,1-.022.36,2.714,2.714,0,0,1-1.844,1.567A9.31,9.31,0,0,1,805.351,150.848Z"/>
        <path id="Path_43" data-name="Path 43" class="cls-1" d="M805.351,147.833a8.676,8.676,0,0,1-3.343-.647l-.033-.013A3.017,3.017,0,0,1,800.486,146a.726.726,0,0,1-.108-.547.564.564,0,0,1,.3-.373c.311-.147.545.065.735.282a2.931,2.931,0,0,0,.8.635,5.845,5.845,0,0,0,1.965.576,8.463,8.463,0,0,0,3.346-.173,3.21,3.21,0,0,0,1.859-1.077.714.714,0,0,1,.631-.36.5.5,0,0,1,.434.362.712.712,0,0,1-.022.36,2.714,2.714,0,0,1-1.844,1.567A9.309,9.309,0,0,1,805.351,147.833Z"/>
        <path id="Path_44" data-name="Path 44" class="cls-1" d="M805.351,144.818a8.676,8.676,0,0,1-3.343-.647l-.033-.013a3.017,3.017,0,0,1-1.489-1.172.726.726,0,0,1-.108-.547.564.564,0,0,1,.3-.373c.311-.147.545.065.735.282a2.893,2.893,0,0,0,.8.635,5.845,5.845,0,0,0,1.965.576,8.463,8.463,0,0,0,3.346-.173,3.21,3.21,0,0,0,1.859-1.077.714.714,0,0,1,.631-.36.5.5,0,0,1,.434.362.712.712,0,0,1-.022.36,2.714,2.714,0,0,1-1.844,1.567A9.286,9.286,0,0,1,805.351,144.818Z"/>
        <path id="Path_45" data-name="Path 45" class="cls-1" d="M805.351,141.8a8.677,8.677,0,0,1-3.343-.648l-.033-.013a3.011,3.011,0,0,1-1.489-1.172.726.726,0,0,1-.108-.547.564.564,0,0,1,.3-.373c.311-.147.545.065.735.282a2.893,2.893,0,0,0,.8.635,5.845,5.845,0,0,0,1.965.576,8.481,8.481,0,0,0,3.346-.172,3.217,3.217,0,0,0,1.859-1.078.714.714,0,0,1,.631-.36.5.5,0,0,1,.434.362.712.712,0,0,1-.022.36,2.712,2.712,0,0,1-1.844,1.567A9.31,9.31,0,0,1,805.351,141.8Z"/>
        <path id="Path_46" data-name="Path 46" class="cls-1" d="M805.351,138.789a8.658,8.658,0,0,1-3.343-.648l-.033-.013a3.011,3.011,0,0,1-1.489-1.172.724.724,0,0,1-.108-.546.56.56,0,0,1,.3-.373c.311-.148.545.064.735.281a2.893,2.893,0,0,0,.8.635,5.845,5.845,0,0,0,1.965.576,8.462,8.462,0,0,0,3.346-.172,3.217,3.217,0,0,0,1.859-1.078.714.714,0,0,1,.631-.36.5.5,0,0,1,.434.362.712.712,0,0,1-.022.36,2.712,2.712,0,0,1-1.844,1.567A9.31,9.31,0,0,1,805.351,138.789Z"/>
      </g>
    </g>
  </g>
</svg>
