<svg xmlns="http://www.w3.org/2000/svg" width="14.159" height="17.868" viewBox="0 0 14.159 17.868">
    <defs>
        <style>
            .cls-1{fill:#3a4354}
        </style>
    </defs>
    <g id="Group_346" transform="translate(-3179.768 -3451.152)">
        <path id="Path_501" d="M3183.483 3459.889h4.562a.525.525 0 0 0 .524-.524v-.486a.369.369 0 0 0 0-.05 2.813 2.813 0 0 0-1.456-2.2 1.684 1.684 0 1 0-2.687 0 2.815 2.815 0 0 0-1.462 2.252v.484a.524.524 0 0 0 .523.524zm2.283-4.909a.636.636 0 1 1-.636.636.636.636 0 0 1 .636-.636zm0 2.354a1.759 1.759 0 0 1 1.748 1.508h-3.495a1.774 1.774 0 0 1 1.747-1.508z" class="cls-1"/>
        <path id="Path_502" d="M3193.4 3453.317h-1.642v-1.642a.523.523 0 0 0-.523-.523h-8.21a.523.523 0 0 0-.37.153l-2.737 2.737a.523.523 0 0 0-.153.37v11.919a.523.523 0 0 0 .523.523h1.642v1.643a.524.524 0 0 0 .524.523h10.946a.524.524 0 0 0 .524-.523v-14.656a.525.525 0 0 0-.524-.524zm-10.9-.378v.949h-.949zm-1.69 2h2.213a.523.523 0 0 0 .524-.523v-2.216h7.163v13.609h-9.9zm12.066 13.038h-9.9v-1.119h8.258a.523.523 0 0 0 .523-.523v-11.967h1.119z" class="cls-1"/>
        <path id="Path_503" d="M3189.257 3461.132h-7.01a.523.523 0 0 0 0 1.047h7.01a.523.523 0 1 0 0-1.047z" class="cls-1"/>
        <path id="Path_504" d="M3189.257 3463.228h-7.01a.523.523 0 0 0 0 1.047h7.01a.523.523 0 1 0 0-1.047z" class="cls-1"/>
    </g>
</svg>
