<?xml version="1.0" standalone="no"?>
<!DOCTYPE svg PUBLIC "-//W3C//DTD SVG 20010904//EN"
 "http://www.w3.org/TR/2001/REC-SVG-20010904/DTD/svg10.dtd">
<svg version="1.0" xmlns="http://www.w3.org/2000/svg"
 width="512.000000pt" height="512.000000pt" viewBox="0 0 512.000000 512.000000"
 preserveAspectRatio="xMidYMid meet">

<g transform="translate(0.000000,512.000000) scale(0.100000,-0.100000)"
fill="#ffffff" stroke="none">
<path d="M2977 5106 c-133 -48 -194 -200 -133 -332 82 -177 337 -177 428 0 29
56 30 155 1 211 -57 108 -184 160 -296 121z m124 -146 c10 -6 26 -24 35 -41
45 -88 -67 -172 -140 -104 -29 27 -36 87 -13 116 28 36 80 49 118 29z"/>
<path d="M4180 5104 c-138 -37 -259 -133 -315 -251 -28 -61 -31 -63 -67 -63
-151 0 -323 -97 -408 -230 -109 -170 -95 -421 31 -565 l31 -35 -450 0 -450 0
-4 118 c-3 102 -6 121 -25 148 -45 63 -52 64 -466 64 -372 0 -374 0 -408 -23
-57 -38 -79 -95 -79 -208 l0 -97 -163 -4 c-162 -3 -164 -3 -213 -33 -30 -19
-60 -49 -79 -79 l-30 -49 -3 -332 c-3 -312 -2 -333 16 -355 27 -34 78 -32 109
4 l23 27 0 309 0 308 31 26 c25 22 41 26 90 26 l59 0 0 -402 c0 -384 1 -405
21 -448 27 -60 54 -88 114 -116 l50 -24 534 0 533 0 -6 -54 c-5 -34 -3 -63 4
-76 6 -12 74 -52 161 -96 140 -69 151 -77 146 -99 -2 -14 -37 -191 -78 -394
-80 -401 -81 -416 -26 -435 68 -24 57 -41 386 615 297 593 304 606 290 635 -9
18 -53 55 -119 100 -57 39 -106 76 -108 82 -3 9 120 644 134 695 3 9 13 17 22
17 15 0 17 -13 18 -93 0 -120 25 -185 101 -267 64 -69 147 -115 241 -131 l62
-11 0 -333 0 -332 -109 -5 c-130 -6 -167 -24 -200 -92 -21 -42 -21 -55 -21
-724 l0 -682 -1000 0 -1000 0 0 682 c0 669 0 682 -21 724 -32 68 -70 86 -199
92 l-108 5 -4 97 c-2 79 -7 102 -22 119 -25 27 -79 28 -106 1 -19 -19 -20 -33
-20 -369 l0 -349 -307 -4 c-284 -4 -313 -6 -374 -26 -186 -62 -330 -217 -379
-407 -77 -300 92 -592 400 -690 46 -15 104 -19 357 -23 l303 -4 0 -104 c0
-119 10 -148 65 -190 30 -22 49 -28 110 -32 l75 -5 0 -276 c0 -310 0 -311 77
-358 34 -21 50 -23 158 -23 106 0 125 3 159 23 78 43 81 56 84 365 l3 272 74
0 c63 0 78 3 101 23 35 31 38 82 5 109 -22 17 -49 18 -392 18 l-369 0 0 90 0
90 1330 0 1330 0 0 -90 0 -90 -815 0 c-802 0 -815 0 -835 -20 -30 -30 -27 -83
6 -109 26 -21 36 -21 545 -21 l518 0 3 -273 c3 -308 6 -321 84 -364 34 -20 54
-23 157 -23 135 0 180 15 216 73 20 33 21 47 21 309 l0 275 75 5 c61 4 80 10
110 32 55 42 65 71 65 190 l0 104 303 4 c333 5 351 8 477 74 120 63 230 194
271 323 102 324 -97 666 -427 736 -51 11 -142 15 -346 15 l-278 0 0 530 c0
292 4 530 8 530 5 0 35 -9 68 -21 83 -30 229 -37 314 -15 141 35 276 131 351
247 70 110 105 284 82 409 -8 41 -6 49 24 93 49 72 66 143 61 247 -5 110 -37
181 -120 264 l-59 58 13 74 c56 336 -273 635 -602 548z m264 -168 c80 -39 150
-120 176 -203 20 -65 24 -126 11 -173 -6 -22 -11 -24 -57 -21 -66 3 -98 -21
-98 -74 0 -46 31 -75 78 -75 48 0 117 -27 158 -60 108 -89 117 -270 20 -374
-34 -36 -117 -76 -159 -76 -71 0 -115 -48 -94 -103 19 -49 83 -61 177 -32 27
8 53 15 58 15 5 0 6 -34 3 -77 -11 -150 -103 -279 -245 -346 -62 -30 -75 -32
-172 -32 -97 0 -110 2 -170 31 -36 17 -89 51 -118 76 -48 42 -58 46 -121 51
-82 7 -125 23 -175 67 -59 53 -81 102 -81 190 0 58 5 84 23 117 12 23 22 59
22 80 0 33 -8 44 -80 112 -103 98 -134 161 -134 271 0 133 69 242 191 302 56
27 79 33 157 36 113 6 135 19 164 99 40 108 108 177 215 215 74 27 177 20 251
-16z m-2044 -886 l0 -90 -340 0 -340 0 0 90 0 90 340 0 340 0 0 -90z m400
-252 c0 -7 -25 -196 -57 -420 l-58 -408 -538 0 -538 0 -24 25 -25 24 0 396 0
395 620 0 c489 0 620 -3 620 -12z m423 -355 c-40 -203 -72 -381 -71 -398 3
-26 17 -40 102 -97 55 -38 104 -72 109 -77 5 -5 -54 -132 -138 -297 -80 -159
-144 -278 -141 -264 3 14 15 78 27 142 18 89 20 122 12 140 -7 16 -57 46 -159
97 -82 41 -151 76 -153 77 -3 3 137 1009 144 1032 3 9 47 12 173 12 l169 0
-74 -367z m-1815 -1630 l-3 -668 -87 -3 -88 -3 0 671 0 670 90 0 90 0 -2 -667z
m2482 -3 l0 -671 -87 3 -88 3 -3 668 -2 667 90 0 90 0 0 -670z m-2810 90 l0
-90 -263 0 c-286 0 -328 -6 -392 -54 -131 -100 -119 -310 22 -393 l48 -28 290
-5 290 -5 0 -90 0 -90 -245 -3 c-353 -4 -428 12 -541 116 -98 89 -147 214
-136 345 11 132 99 267 216 331 91 49 134 55 434 55 l277 1 0 -90z m3565 75
c128 -34 225 -113 282 -231 79 -166 43 -355 -93 -484 -110 -104 -191 -122
-544 -118 l-245 3 0 90 0 90 290 5 290 5 46 27 c54 32 93 86 110 150 31 128
-51 258 -181 287 -25 6 -161 11 -302 11 l-258 0 0 90 0 90 273 0 c213 0 286
-3 332 -15z m-3567 -407 l3 -88 -275 0 -274 0 -26 31 c-29 34 -32 55 -14 95
23 49 50 54 328 51 l255 -2 3 -87z m3501 81 c32 -11 61 -52 61 -88 0 -11 -12
-33 -26 -50 l-26 -31 -274 0 -274 0 0 83 c0 46 3 87 7 90 11 12 497 8 532 -4z
m-2919 -1079 l0 -90 -90 0 -90 0 0 90 0 90 90 0 90 0 0 -90z m1980 0 l0 -90
-90 0 -90 0 0 90 0 90 90 0 90 0 0 -90z m-1982 -327 l-3 -88 -87 -3 -88 -3 0
91 0 90 90 0 91 0 -3 -87z m1982 -3 l0 -91 -87 3 -88 3 -3 88 -3 87 91 0 90 0
0 -90z"/>
<path d="M1835 3616 c-37 -17 -70 -52 -84 -89 -6 -16 -11 -80 -11 -144 0 -134
16 -176 80 -212 36 -20 51 -21 325 -21 318 0 334 3 378 64 20 28 22 45 25 166
3 128 2 137 -20 169 -13 19 -36 44 -51 55 -27 20 -42 21 -320 23 -228 2 -299
0 -322 -11z m565 -226 l0 -90 -255 0 -255 0 0 90 0 90 255 0 255 0 0 -90z"/>
<path d="M975 4936 c-146 -64 -191 -255 -87 -376 137 -160 394 -81 419 128 17
144 -93 262 -242 262 -33 -1 -73 -7 -90 -14z m146 -149 c50 -39 48 -115 -4
-148 -89 -55 -186 63 -112 136 27 28 88 34 116 12z"/>
<path d="M480 3940 c-96 -45 -144 -118 -144 -220 0 -240 313 -329 439 -126 27
44 30 58 30 126 0 68 -3 82 -30 126 -62 99 -194 141 -295 94z m149 -156 c25
-20 31 -34 31 -64 0 -30 -6 -44 -31 -64 -38 -33 -79 -33 -116 -2 -39 34 -39
98 0 132 37 31 78 31 116 -2z"/>
<path d="M1864 1798 c-22 -10 -44 -47 -44 -72 0 -7 9 -25 21 -40 20 -25 23
-26 139 -26 116 0 119 1 139 26 12 15 21 33 21 40 0 26 -23 62 -47 73 -30 14
-200 13 -229 -1z"/>
<path d="M1874 1471 c-26 -11 -54 -49 -54 -72 0 -9 9 -28 21 -43 20 -25 23
-26 139 -26 116 0 119 1 139 26 27 35 26 57 -3 91 -23 27 -29 28 -123 30 -54
2 -108 -1 -119 -6z"/>
</g>
</svg>
