<svg xmlns="http://www.w3.org/2000/svg" width="16.404" height="14.177" viewBox="0 0 16.404 14.177">
    <path fill="#3a4354" d="M388.759 206.2l-5.28-2.016v13.337h-.246v-13.337l-2.884 2.267v3.936l-2.289-.421v7.555h-.3v-7.555l-2.74 1.8v5.759h-1.332v.84h16.4v-.84h-1.333zm-13.075 10.585l-.4.042v-1.019l.4-.086zm0-1.52l-.4.1v-1.019l.4-.148zm0-1.52l-.4.167v-1.019l.4-.21zm.769 2.959l-.468.049v-1.094l.468-.1zm0-1.638l-.468.121v-1.094l.468-.172zm0-1.637l-.468.192v-1.094l.468-.243zm.9 3.18l-.548.058v-1.182l.548-.117zm0-1.775l-.548.142v-1.182l.548-.2zm0-1.775l-.548.226V212.1l.548-.284zm1.821 3.54l-.653-.019v-1.271l.653.039zm0-1.79l-.653-.047v-1.271l.653.067zm0-1.79l-.653-.076v-1.271l.653.1zm1.06 3.611l-.62-.018v-1.238l.62.037zm0-1.744l-.62-.045V213.6l.62.063zm0-1.745l-.62-.072v-1.238l.62.09zm1.007 3.519l-.589-.017v-1.207l.589.035zm0-1.7l-.589-.043v-1.207l.589.06zm0-1.7l-.589-.068v-1.207l.589.086zm.175-2.674l-.236-.044.236-.113zm0-.783l-.587.3v-1.025l.587-.343zm0-1.69l-.587.367v-1.024l.587-.407zm1.177 8.356l-.677.055v-1.1l.677-.1zm0-1.818l-.677.129v-1.1l.677-.175zm0-1.819l-.677.2v-1.1l.677-.249zm0-1.818l-.677.276v-1.1l.677-.322zm0-1.819l-.677.35v-1.1l.677-.4zm0-1.818l-.677.423v-1.1l.677-.47zm2.618 9.108l-.9-.035v-1.162l.9.066zm0-1.8l-.9-.084v-1.161l.9.113zm0-1.8l-.9-.131V211.6l.9.161zm0-1.8l-.9-.179v-1.161l.9.208zm0-1.8l-.9-.226v-1.162l.9.256zm0-1.8l-.9-.274v-1.161l.9.3zm1.5 9.044l-.822-.033V215.4l.822.06zm0-1.717l-.822-.076v-1.096l.822.1zm0-1.718l-.822-.119v-1.109l.822.147zm0-1.717l-.822-.163v-1.109l.822.19zm0-1.718l-.822-.206v-1.109l.822.234zm0-1.717l-.822-.25V206.6l.822.277zm1.437 8.644l-.75-.03v-1.058l.75.054zm0-1.642l-.75-.069v-1.045l.75.094zm0-1.641l-.75-.109v-1.059l.75.134zm0-1.642l-.75-.148v-1.059l.75.174zm0-1.641l-.75-.188v-1.059l.75.213zm0-1.641l-.75-.228V207.1l.75.253z" transform="translate(-373.688 -204.184)"/>
</svg>
