<svg xmlns="http://www.w3.org/2000/svg" width="11.649" height="18.61" viewBox="0 0 11.649 18.61">
    <g>
        <g>
            <path fill="#2d9483" d="M7273.328 475.324c.048.034.093.073.143.1.817.488 1.631.98 2.455 1.457a.509.509 0 0 1 .292.506c-.011 1.08 0 2.16-.008 3.24 0 .168.035.256.212.308.366.106.721.247 1.083.367a.349.349 0 0 1 .267.378v3.107c.318.032.624.06.93.1.264.031.341.116.341.374v6.1a.362.362 0 0 1-.251.376c-1.8.724-3.592 1.453-5.392 2.171a.532.532 0 0 1-.363 0c-1.8-.718-3.6-1.447-5.392-2.171a.36.36 0 0 1-.251-.375v-6.1c0-.257.079-.343.341-.373.306-.036.613-.064.93-.1v-.213-2.875c0-.252.047-.32.281-.4.361-.126.719-.258 1.084-.369.157-.049.2-.125.195-.284-.008-1.08 0-2.16-.009-3.239a.521.521 0 0 1 .293-.525c.824-.476 1.638-.969 2.455-1.457.05-.03.1-.069.142-.1zm-.777 2.9v-1c0-.176-.056-.209-.211-.128-.4.211-.8.421-1.2.643a.291.291 0 0 0-.127.209c-.01.606-.007 1.211-.005 1.817 0 .178.047.208.208.143.4-.16.794-.325 1.193-.483a.2.2 0 0 0 .144-.221c-.005-.323-.002-.65-.002-.977zm1.338 0v.981a.2.2 0 0 0 .143.221c.4.158.8.323 1.193.483.161.065.208.034.208-.143 0-.606 0-1.211-.005-1.817a.29.29 0 0 0-.126-.209c-.39-.22-.787-.426-1.183-.635-.176-.092-.226-.062-.228.138-.004.33-.002.657-.002.984zm-1.338 4.328v-1c0-.12-.023-.206-.179-.16-.412.119-.827.228-1.237.354a.226.226 0 0 0-.123.167c-.009.623-.006 1.246 0 1.87 0 .112.051.163.173.143.4-.068.8-.134 1.2-.19.133-.019.172-.083.171-.2-.007-.327-.005-.654-.005-.981zm0 7.581v-1c0-.1-.015-.18-.136-.2q-.611-.09-1.221-.186c-.136-.022-.189.034-.188.167v1.819a.182.182 0 0 0 .158.2c.392.1.781.218 1.172.326.18.049.213.023.215-.168.002-.312 0-.633 0-.955zm1.338-7.585v.964c0 .138.036.208.187.228.379.049.755.117 1.132.175.2.031.225.011.226-.188v-1.765a.2.2 0 0 0-.171-.234c-.385-.1-.769-.217-1.153-.325-.183-.051-.219-.024-.221.162-.002.335 0 .658 0 .986zm0 7.566v.964c0 .216.03.239.231.183.373-.1.744-.216 1.119-.311a.216.216 0 0 0 .2-.25c-.007-.575 0-1.151 0-1.727 0-.227-.029-.25-.257-.215-.371.057-.742.121-1.113.171a.172.172 0 0 0-.174.2c-.004.334-.006.661-.006.988zm0-3.255v1c0 .106.013.2.156.186.4-.037.809-.076 1.213-.11.129-.011.177-.072.176-.2q-.006-.9 0-1.8c0-.14-.056-.2-.194-.2-.382-.008-.764-.02-1.146-.038-.149-.007-.21.046-.207.2.006.322.002.643.002.965zm-1.338.023v-.965c0-.163-.052-.229-.222-.219-.364.02-.728.034-1.091.035-.186 0-.239.075-.237.252q.014.855 0 1.71c0 .174.062.237.227.248.369.026.738.055 1.1.1.167.02.219-.038.217-.2.003-.315.006-.637.006-.958zm-1.952 2.834v-.892c0-.117-.036-.176-.16-.193-.3-.039-.6-.087-.9-.138-.151-.026-.212.026-.21.18v1.582a.189.189 0 0 0 .163.219c.3.077.609.162.91.253.156.048.2-.015.194-.157.004-.281.004-.57.004-.851zm5.241-.026v.891c0 .133.04.192.186.148.307-.092.616-.179.927-.258a.18.18 0 0 0 .153-.207v-1.582c0-.165-.064-.214-.221-.187-.3.051-.6.1-.9.139-.115.016-.151.074-.149.183.006.294.004.583.004.876zm-5.241-6.7v-.892c0-.139-.048-.192-.186-.152-.314.089-.631.171-.942.271a.226.226 0 0 0-.131.161c-.01.558-.007 1.116 0 1.674 0 .114.059.162.177.142.3-.051.609-.1.915-.145a.174.174 0 0 0 .173-.205c-.012-.281-.005-.566-.005-.851zm5.241-.027c0 .285.008.57 0 .854-.006.155.052.217.2.237.288.037.575.084.86.136.144.026.207-.02.206-.165v-1.618a.175.175 0 0 0-.144-.2c-.309-.085-.618-.173-.926-.261-.145-.042-.2.011-.2.16.009.294.004.575.004.86zm0 3.846v.891c0 .121.044.181.173.167.313-.032.627-.064.94-.09a.143.143 0 0 0 .152-.162v-1.654c0-.113-.052-.161-.167-.163q-.453-.009-.908-.033c-.143-.008-.194.05-.191.19.005.288.001.572.001.857zm-5.241.014v-.854c0-.146-.041-.213-.2-.2-.3.018-.6.027-.907.034-.119 0-.161.06-.161.169v1.635c0 .123.057.168.176.177.295.023.591.051.885.086.155.019.208-.04.205-.19.003-.285.003-.57.003-.854zm6.8 2.535v.78c0 .141.038.2.194.155.236-.074.476-.137.715-.2a.182.182 0 0 0 .154-.207q-.007-.717 0-1.433c0-.147-.061-.2-.2-.173q-.358.059-.717.11c-.113.016-.148.079-.146.187l.001.784zm-8.358-.006v-.783a.153.153 0 0 0-.155-.179c-.234-.033-.468-.07-.7-.108-.134-.022-.207.014-.206.166q.006.728 0 1.456a.174.174 0 0 0 .153.19c.24.063.48.126.718.2.139.042.192 0 .19-.141-.003-.265-.001-.532-.001-.798zm0-2.566v-.781c0-.141-.048-.2-.191-.19q-.345.021-.69.024c-.131 0-.183.057-.182.188q.006.717 0 1.435c0 .127.044.189.176.2q.346.023.687.064c.14.017.2-.027.2-.175-.005-.251-.001-.508-.001-.762zm8.359-.026v.781c0 .14.044.2.192.183.234-.028.47-.047.705-.067.108-.009.165-.054.164-.17v-1.471c0-.123-.052-.175-.174-.177q-.354-.006-.708-.024c-.134-.007-.183.049-.18.182l.001.766z" transform="translate(-7267.395 -475.324)"/>
        </g>
    </g>
</svg>
