<svg xmlns="http://www.w3.org/2000/svg" width="22.757" height="24.927" viewBox="0 0 22.757 24.927">
    <defs>
        <style>
            .cls-1{fill:#3a4354}
        </style>
    </defs>
    <g id="Group_25" transform="translate(6186.462 -203.143)">
        <g id="Group_51">
            <path id="Path_76" d="M-6168.421 228.07h-13.326a4.73 4.73 0 0 1-4.715-4.735v-13.384a4.73 4.73 0 0 1 4.715-4.735.793.793 0 0 1 .792.795.793.793 0 0 1-.792.795 3.142 3.142 0 0 0-3.132 3.145v13.384a3.142 3.142 0 0 0 3.132 3.145h13.326a3.142 3.142 0 0 0 3.133-3.145v-13.384a3.142 3.142 0 0 0-3.133-3.145.793.793 0 0 1-.791-.795.793.793 0 0 1 .791-.795 4.73 4.73 0 0 1 4.716 4.735v13.384a4.73 4.73 0 0 1-4.716 4.735z" class="cls-1"/>
            <path id="Path_77" d="M-6172.634 206.806h-4.947a.794.794 0 0 1-.792-.795.794.794 0 0 1 .792-.795h4.947a.793.793 0 0 1 .792.795.793.793 0 0 1-.792.795z" class="cls-1"/>
            <path id="Path_78" d="M-6164.941 212.382h-20.507a.794.794 0 0 1-.792-.795.794.794 0 0 1 .792-.795h20.507a.793.793 0 0 1 .791.795.793.793 0 0 1-.791.795z" class="cls-1"/>
            <path id="Path_79" d="M-6169.021 218.355h-12.125a.793.793 0 0 1-.792-.795.793.793 0 0 1 .792-.795h12.125a.793.793 0 0 1 .792.795.794.794 0 0 1-.792.795z" class="cls-1"/>
            <path id="Path_80" d="M-6172.427 222.072h-5.166a.793.793 0 0 1-.791-.8.793.793 0 0 1 .791-.795h5.166a.794.794 0 0 1 .792.795.794.794 0 0 1-.792.8z" class="cls-1"/>
            <path id="Path_81" d="M-6179.69 209.325a.792.792 0 0 1-.791-.795v-4.592a.793.793 0 0 1 .791-.795.793.793 0 0 1 .792.795v4.592a.793.793 0 0 1-.792.795z" class="cls-1"/>
            <path id="Path_82" d="M-6170.478 209.325a.792.792 0 0 1-.791-.795v-4.592a.793.793 0 0 1 .791-.795.794.794 0 0 1 .792.795v4.592a.793.793 0 0 1-.792.795z" class="cls-1"/>
        </g>
    </g>
</svg>
