<svg xmlns="http://www.w3.org/2000/svg" width="20.736" height="15.213" viewBox="0 0 20.736 15.213">
    <path fill="#fff" d="M2511.913 500.21c-.116-.108-.188-.172-.255-.239q-2.106-2.1-4.212-4.207a1.36 1.36 0 0 0-2.18.006q-.543.537-1.076 1.081a1.357 1.357 0 0 0 .016 2.175q3.271 3.275 6.546 6.545a1.377 1.377 0 0 0 2.279.006q1.608-1.6 3.208-3.209l7.649-7.649a1.354 1.354 0 0 0 0-2.1q-.535-.542-1.079-1.076a1.374 1.374 0 0 0-2.227-.009q-2.751 2.742-5.5 5.491c-1.049 1.047-2.096 2.105-3.169 3.185z" transform="translate(-2503.653 -490.965)"/>
</svg>
