<svg xmlns="http://www.w3.org/2000/svg" width="48.99" height="39.245">
    <defs>
        <style>
            .cls-1{fill:#2d9483}
        </style>
    </defs>
    <g id="Group_4" data-name="Group 4" transform="translate(-29.525 -50.914)">
        <path id="Path_20" data-name="Path 20" class="cls-1" d="M46.112 79.035 46.088 79a2.134 2.134 0 0 0 .95-1.227 2.02 2.02 0 0 0-.212-1.8l-.027-.036a1.936 1.936 0 0 0 .8-1.2 2.124 2.124 0 0 0-.27-1.723 1.955 1.955 0 0 0 .821-1.2 2.084 2.084 0 0 0-.326-1.768 1.531 1.531 0 0 0-1.233-.581h-4.26a12.741 12.741 0 0 0 1.194-2.565v-.014a5.274 5.274 0 0 0-1.513-4.69 2.446 2.446 0 0 0-2.359-.679 1.432 1.432 0 0 0-1.109.98 2.782 2.782 0 0 0 .056 1.233 2.984 2.984 0 0 1-.323 2.463 41.512 41.512 0 0 1-3.768 4.022.5.5 0 0 0-.193-.039H30.7a.5.5 0 0 0 0 1h3.117v4.682a.5.5 0 1 0 1 0v-4.565a47.086 47.086 0 0 0 4.288-4.558 3.912 3.912 0 0 0 .47-3.194 2.256 2.256 0 0 1-.073-.79c.013-.048.047-.174.433-.288a1.554 1.554 0 0 1 1.413.463 4.294 4.294 0 0 1 1.208 3.762 17.258 17.258 0 0 1-1.508 3.023.495.495 0 0 0 .424.75h5.12a.544.544 0 0 1 .456.2 1.126 1.126 0 0 1-1.1 1.73h-.016a.4.4 0 0 0-.049 0h-.01c-.013 0-.026 0-.038.006h-.016l-.031.008-.018.006-.027.01-.019.009-.024.011-.018.011-.022.013-.017.013-.021.015-.016.014-.019.017-.015.016-.017.018-.014.018-.014.019-.013.02-.012.02-.011.021-.011.021-.009.023-.008.021-.007.025-.006.022-.005.026v.074a.208.208 0 0 0 0 .025V72.966l.006.025.005.022.009.025.007.021.01.024.009.02.013.022.011.02.015.02.013.018.016.019.015.017.017.017.017.016.019.015.019.015.019.012.021.014.021.011.021.01.023.01.022.008.025.007.023.007h.102a.764.764 0 0 1 .617.23 1.169 1.169 0 0 1 .1.9 1.1 1.1 0 0 1-1.242.8h-.078l-.031.005h-.018l-.029.007-.02.007-.025.009-.021.009-.021.011-.023.013-.018.01-.024.017-.014.011-.023.02-.013.011-.021.022-.011.012-.02.025-.009.013-.017.026-.009.015-.014.026-.008.017-.011.027-.007.018-.007.027-.006.021V75.871l.006.023.006.024.007.023.009.023.01.022.01.021.012.021.012.02.014.02.014.019.016.018.016.017.017.017.017.016.019.014.019.015.02.013.021.012.02.011.022.011.023.009.022.008.024.007.024.006H45.387a.753.753 0 0 1 .645.249 1.071 1.071 0 0 1 .069.915 1.165 1.165 0 0 1-1.252.841h-.101a.5.5 0 0 0-.362.277v.006l-.014.033v.014l-.008.027-.006.022V78.8a.243.243 0 0 0 0 .027V78.899l.005.025.006.023.008.022.008.024.009.02.011.023.011.019.013.022.013.019.015.02.015.018.016.017.018.018.016.015.02.016.018.013.021.014.019.012.022.011.022.011.021.008.024.009.021.006.027.007h.021l.029.005h.006a.633.633 0 0 1 .5.267.887.887 0 0 1 .038.748c-.17.5-.485.991-2.271.991h-5.106a5.96 5.96 0 0 1-3.266-1.102v-.935a.5.5 0 0 0-1 0v1.8H30.7a.5.5 0 1 0 0 1h3.486a.5.5 0 0 0 .5-.5v-.188a6.694 6.694 0 0 0 3.266.926h5.092c1.309 0 2.712-.2 3.208-1.665a1.853 1.853 0 0 0-.14-1.603z"/>
        <path id="Path_21" data-name="Path 21" class="cls-1" d="M77.849 62.258a4.78 4.78 0 0 0-4.118-2.348H52.74a4.774 4.774 0 0 0-3.5 1.524.545.545 0 1 0 .8.743A3.658 3.658 0 0 1 52.74 61h20.991a3.692 3.692 0 0 1 3.694 3.694V76.4a3.685 3.685 0 0 1-1.337 2.844.545.545 0 0 0 .7.839 4.772 4.772 0 0 0 1.73-3.683V64.694a4.775 4.775 0 0 0-.669-2.436z"/>
        <path id="Path_22" data-name="Path 22" class="cls-1" d="M69.825 64.04H48.833a4.78 4.78 0 0 0-3.63 1.669.545.545 0 1 0 .827.71 3.69 3.69 0 0 1 2.8-1.288h20.995a3.7 3.7 0 0 1 3.694 3.693v11.707a3.7 3.7 0 0 1-3.694 3.694h-1.008a.52.52 0 0 0-.137.017.542.542 0 0 0-.185.087l-.013.01-.008.006-.009.008-.011.01-.015.014a.576.576 0 0 0-.105.148.552.552 0 0 0-.043.132l-.821 4.1L59.6 84.3l-.021-.011-.022-.01-.021-.008h-.005l-.019-.007H48.833a3.669 3.669 0 0 1-2.083-.644.545.545 0 0 0-.616.9 4.754 4.754 0 0 0 2.7.834h10.351l8.392 4.773a.545.545 0 0 0 .8-.367l.882-4.406h.562a4.783 4.783 0 0 0 4.784-4.784V68.824a4.785 4.785 0 0 0-4.784-4.784z"/>
        <path id="Path_23" data-name="Path 23" class="cls-1" d="M49.8 70.417h4.047a.545.545 0 1 0 0-1.09H49.8a.545.545 0 0 0 0 1.09z"/>
        <path id="Path_24" data-name="Path 24" class="cls-1" d="M59.078 69.327h-1.6a.545.545 0 1 0 0 1.09h1.6a.545.545 0 1 0 0-1.09z"/>
        <path id="Path_25" data-name="Path 25" class="cls-1" d="M68.812 69.327h-6.525a.545.545 0 1 0 0 1.09h6.525a.545.545 0 1 0 0-1.09z"/>
        <path id="Path_26" data-name="Path 26" class="cls-1" d="M49.8 75.431h6.7a.545.545 0 0 0 0-1.09h-6.7a.545.545 0 0 0 0 1.09z"/>
        <path id="Path_27" data-name="Path 27" class="cls-1" d="M58.533 74.886a.545.545 0 0 0 .545.545h5.231a.545.545 0 1 0 0-1.09h-5.231a.545.545 0 0 0-.545.545z"/>
        <path id="Path_28" data-name="Path 28" class="cls-1" d="M68.812 75.431a.545.545 0 1 0 0-1.09H67.1a.545.545 0 1 0 0 1.09z"/>
        <path id="Path_29" data-name="Path 29" class="cls-1" d="M49.847 79.354a.546.546 0 1 0 0 1.091h1.767a.546.546 0 0 0 0-1.091z"/>
        <path id="Path_30" data-name="Path 30" class="cls-1" d="M54.265 79.354a.546.546 0 0 0 0 1.091h6.557a.546.546 0 0 0 0-1.091z"/>
        <path id="Path_31" data-name="Path 31" class="cls-1" d="M62.857 79.9a.546.546 0 0 0 .546.545h5.456a.546.546 0 1 0 0-1.091H63.4a.547.547 0 0 0-.543.546z"/>
        <path id="Path_32" data-name="Path 32" class="cls-1" d="M48.242 58.007a.494.494 0 0 0 .353-.146l2.534-2.534a.5.5 0 0 0-.707-.707l-2.534 2.534a.5.5 0 0 0 .354.853z"/>
        <path id="Path_33" data-name="Path 33" class="cls-1" d="M35.766 57.861a.5.5 0 0 0 .707-.707l-2.534-2.534a.5.5 0 1 0-.707.707z"/>
        <path id="Path_34" data-name="Path 34" class="cls-1" d="M34.109 63.569a.5.5 0 0 0-.5-.5h-3.584a.5.5 0 0 0 0 1h3.584a.5.5 0 0 0 .5-.5z"/>
        <path id="Path_35" data-name="Path 35" class="cls-1" d="M42.181 55.5a.5.5 0 0 0 .5-.5v-3.587a.5.5 0 0 0-1 0V55a.5.5 0 0 0 .5.5z"/>
    </g>
</svg>
