<svg xmlns="http://www.w3.org/2000/svg" width="20.319" height="19.352" viewBox="0 0 20.319 19.352">
    <defs>
        <style>
            .cls-1{fill:#2d9483}
        </style>
    </defs>
    <g id="Group_22" transform="translate(-536.681 -209.648)">
        <g id="Group_21">
            <path id="Path_48" d="M541.035 218.357h11.611a4.354 4.354 0 0 0 0-8.709h-11.611a4.354 4.354 0 0 0 0 8.709zm11.611-7.741a3.387 3.387 0 0 1 0 6.773h-8.88a4.345 4.345 0 0 0 0-6.773zm-11.611 0a3.387 3.387 0 1 1-3.387 3.384 3.39 3.39 0 0 1 3.387-3.384z" class="cls-1"/>
            <path id="Path_49" d="M552.646 220.292h-11.611a4.354 4.354 0 0 0 0 8.708h11.611a4.354 4.354 0 1 0 0-8.708zm-11.611 7.74a3.386 3.386 0 1 1 0-6.773h8.88a4.345 4.345 0 0 0 0 6.773zm11.611 0a3.386 3.386 0 1 1 3.386-3.386 3.391 3.391 0 0 1-3.386 3.386z" class="cls-1"/>
        </g>
    </g>
</svg>
