<svg xmlns="http://www.w3.org/2000/svg" width="32.096" height="26.202" viewBox="0 0 32.096 26.202">
    <defs>
        <style>
            .cls-1{fill:#2d9483}
        </style>
    </defs>
    <g id="Group_283" transform="translate(-192.277 -4183.836)">
        <g id="Group_281">
            <g id="Group_280">
                <path id="Path_339" d="M222.4 4191.625a7.848 7.848 0 0 0-8.7-2.237 8.2 8.2 0 0 0-5.312 7.4 8.045 8.045 0 0 0 4.748 7.456c.105.055.213.1.344.167-.11.118-.192.213-.28.3a10.711 10.711 0 0 1-8.873 3.255 10.53 10.53 0 0 1-6.891-3.205 11.129 11.129 0 0 1 9.467-18.8 10.544 10.544 0 0 1 4.845 1.96 1.367 1.367 0 0 0 .813.229.891.891 0 0 0 .823-.753.989.989 0 0 0-.449-1.09 12.574 12.574 0 0 0-9.468-2.312 13 13 0 0 0-6.83 22.588 12.477 12.477 0 0 0 11.76 3.066 13.2 13.2 0 0 0 7.089-4.472.51.51 0 0 1 .35-.185 8.179 8.179 0 0 0 8.066-5.315 7.884 7.884 0 0 0 .447-2.056 8.089 8.089 0 0 0-1.949-5.996zm-6 11.356a6.045 6.045 0 1 1 6.086-6.035 5.877 5.877 0 0 1-6.095 6.035z" class="cls-1"/>
                <path id="Path_340" d="M204.051 4195.221l-2.959-2.959a1.011 1.011 0 1 0-1.417 1.431q.867.87 1.735 1.736 1.6 1.6 3.205 3.2a.962.962 0 0 0 1.125.238.942.942 0 0 0 .615-.908c0-3.032.008-6.063-.01-9.094a1.214 1.214 0 0 0-.274-.675.932.932 0 0 0-1.089-.254 1.01 1.01 0 0 0-.639.991v6.561c-.13-.117-.213-.188-.292-.267z" class="cls-1"/>
            </g>
        </g>
        <g id="Group_282">
            <path id="Path_341" d="M215.492 4193.855a.829.829 0 1 1 1.659 0v3.425a.829.829 0 1 1-1.659 0z" class="cls-1"/>
            <path id="Path_342" d="M216.321 4200.715a.962.962 0 1 1 .963-.962.962.962 0 0 1-.963.962z" class="cls-1"/>
        </g>
    </g>
</svg>
