<svg xmlns="http://www.w3.org/2000/svg" width="26" height="26" viewBox="0 0 26 26">
    <defs>
        <style>
            .cls-1{fill:#2d9483}
        </style>
    </defs>
    <g id="Group_65" transform="translate(-735.1 -4970.19)">
        <path id="Path_106" d="M746.809 4982.031l-2.96-2.959a1.012 1.012 0 1 0-1.417 1.432l1.736 1.736 3.2 3.2a.96.96 0 0 0 1.124.237.941.941 0 0 0 .615-.908c.005-3.031.009-6.063-.009-9.094a1.223 1.223 0 0 0-.275-.675.935.935 0 0 0-1.089-.254 1.012 1.012 0 0 0-.639.991v6.562c-.124-.117-.208-.19-.286-.268z" class="cls-1"/>
        <path id="Path_107" d="M748.1 4996.19a13 13 0 1 1 13-13 13.015 13.015 0 0 1-13 13zm0-24a11 11 0 1 0 11 11 11.012 11.012 0 0 0-11-11z" class="cls-1"/>
    </g>
</svg>
