<svg xmlns="http://www.w3.org/2000/svg" width="25.633" height="32.819" viewBox="0 0 25.633 32.819">
    <defs>
        <clipPath id="clip-path">
            <path id="Path_4121" d="M2283.593 1925.327h3.975c.469 0 .721.157.833.489a.7.7 0 0 1-.542.931 1.882 1.882 0 0 1-.36.024h-7.8a1.918 1.918 0 0 1-.394-.031.71.71 0 0 1 .031-1.389 3.717 3.717 0 0 1 .54-.025z" class="cls-1"/>
        </clipPath>
        <clipPath id="clip-path-2">
            <path id="Path_4124" d="M2283.588 1930.847h3.83a2.512 2.512 0 0 1 .467.029.709.709 0 0 1 .049 1.374 1.563 1.563 0 0 1-.393.041h-7.878a1.828 1.828 0 0 1-.323-.021.711.711 0 0 1 .021-1.4 3.29 3.29 0 0 1 .433-.02q1.896-.005 3.794-.003z" class="cls-1"/>
        </clipPath>
        <clipPath id="clip-path-3">
            <path id="Path_4127" d="M2283.625 1919.806h3.794a2.6 2.6 0 0 1 .468.029.709.709 0 0 1 .045 1.374 1.7 1.7 0 0 1-.429.041h-7.8a1.933 1.933 0 0 1-.4-.03.71.71 0 0 1 .024-1.39 2.588 2.588 0 0 1 .432-.025z" class="cls-1"/>
        </clipPath>
        <clipPath id="clip-path-4">
            <path id="Path_4130" d="M2274.15 1920.532c.536-.539.989-1 1.45-1.453a.692.692 0 0 1 .889-.136.654.654 0 0 1 .337.764.876.876 0 0 1-.221.4q-.906.932-1.833 1.839a.721.721 0 0 1-1.138 0c-.295-.283-.585-.571-.866-.867a.72.72 0 1 1 1-1.029 4.267 4.267 0 0 1 .382.482z" class="cls-1"/>
        </clipPath>
        <clipPath id="clip-path-5">
            <path id="Path_4133" d="M2274.178 1926.035c.52-.526.97-.992 1.433-1.444a.683.683 0 0 1 .889-.121.652.652 0 0 1 .323.77.986.986 0 0 1-.252.422q-.881.9-1.782 1.788a.729.729 0 0 1-1.164.005q-.429-.414-.841-.842a.725.725 0 1 1 1.026-1.013c.121.116.218.256.368.435z" class="cls-1"/>
        </clipPath>
        <clipPath id="clip-path-6">
            <path id="Path_4136" d="M2274.168 1931.564c.5-.509.923-.938 1.347-1.361.4-.4.821-.428 1.138-.1a.76.76 0 0 1-.113 1.114q-.851.858-1.708 1.709a.754.754 0 0 1-1.242.012c-.275-.269-.55-.539-.815-.817a.723.723 0 1 1 1.018-1.02 4.958 4.958 0 0 1 .375.463z" class="cls-1"/>
        </clipPath>
        <clipPath id="clip-path-7">
            <path id="Path_4139" d="M2287.728 1936.726c-.471 0-.941.008-1.411 0a.72.72 0 1 1-.009-1.438q1.446-.02 2.893 0a.72.72 0 1 1-.027 1.438c-.482.008-.964 0-1.446 0z" class="cls-1"/>
        </clipPath>
        <clipPath id="clip-path-8">
            <path id="Path_4142" d="M2284.171 1936.723a.7.7 0 0 1-.714-.706.723.723 0 0 1 .732-.733.744.744 0 0 1 .723.715.724.724 0 0 1-.741.724z" class="cls-1"/>
        </clipPath>
        <clipPath id="clip-path-9">
            <path id="Path_4145" d="M2281.433 1913.024a.676.676 0 0 0 .681-.674.665.665 0 0 0-1.33 0 .68.68 0 0 0 .649.674z" class="cls-1"/>
        </clipPath>
        <clipPath id="clip-path-10">
            <path id="Path_4148" d="M2294.108 1939.562a3.838 3.838 0 0 0 .027-.478c-.021-8.667-.012-15.733-.012-24.4a3.074 3.074 0 0 0-.025-.394v-.062a2.069 2.069 0 0 0-.07-.31 1.618 1.618 0 0 0-.446-.734 1.708 1.708 0 0 0-1.055-.464.916.916 0 0 0-.1 0 .647.647 0 0 0-.16-.023.7.7 0 0 0-.194.025h-3.356c-.2 0-.284-.049-.326-.265a2.187 2.187 0 0 0-.136-.44 2.008 2.008 0 0 0-1.825-1.278c-.5-.024-1 0-1.5-.019a.408.408 0 0 1-.3-.136 4.058 4.058 0 0 0-.374-.557 3.59 3.59 0 0 0-.265-.3c-.047-.046-.094-.092-.143-.135l-.085-.072-.028-.024a3.737 3.737 0 0 0-1.681-.766l-.109-.032a.215.215 0 0 0-.025-.019h-.934c-.306.093-.621.163-.916.284a3.391 3.391 0 0 0-1.735 1.538.4.4 0 0 1-.2.2h-.01a.476.476 0 0 1-.177.024c-.477-.01-.956-.015-1.433.007a2.14 2.14 0 0 0-1.044.322 1.868 1.868 0 0 0-.732.787 2.159 2.159 0 0 0-.212.6c-.041.215-.125.266-.325.264-1.156-.007-2.311-.005-3.467 0a1.768 1.768 0 0 0-1.951 1.965c0 8.667.009 15.733-.012 24.4a3.759 3.759 0 0 0 .024.46 1.946 1.946 0 0 0 .034.316 1.835 1.835 0 0 0 1.363 1.4h22.546a2.05 2.05 0 0 0 .932-.577 1.667 1.667 0 0 0 .423-.837 1.738 1.738 0 0 0 .014-.27zm-18.311-26.3c0-.123-.005-.245 0-.367a.8.8 0 0 1 .828-.819c.622-.015 1.244 0 1.866-.007a.728.728 0 0 0 .847-.584 2.25 2.25 0 0 1 4.059-.33 2.34 2.34 0 0 1 .15.317 1.658 1.658 0 0 0 .142.294c.146.236.33.3.712.3h1.733a.892.892 0 0 1 .822.354l.02.035.014.028c.008.017.017.034.024.052l.006.016a1.047 1.047 0 0 1 .068.326c.008.121 0 .244 0 .366 0 1.235-.15 1.387-1.37 1.387h-8.832c-.551 0-.852-.113-1-.423a2.861 2.861 0 0 1-.086-.94zm-1.625.769c.214 0 .3.054.349.28a2.157 2.157 0 0 0 .149.441 1.838 1.838 0 0 0 1.137 1.068 1.909 1.909 0 0 0 .336.1 2.97 2.97 0 0 0 .615.065c1.678.007 3.357 0 5.035 0 1.534 0 3.068.013 4.6-.016a2.029 2.029 0 0 0 1.342-.538 1.725 1.725 0 0 0 .385-.477 2.15 2.15 0 0 0 .248-.627c.05-.227.135-.282.349-.281 1.156.009 2.312 0 3.467.005.274 0 .43.038.515.158l.01.016.011.019a.984.984 0 0 1 .059.424v24.608c0 .515-.106.62-.626.62h-21.441c-.3 0-.463-.042-.542-.184a1 1 0 0 1-.061-.422v-24.607c0-.463.07-.559.455-.635h.14c1.156-.01 2.312-.004 3.468-.012z" class="cls-1"/>
        </clipPath>
        <style>
            .cls-1{fill:#2d9483}
        </style>
    </defs>
    <g id="Group_2995" transform="translate(-2268.628 -1908.555)">
        <g id="Group_2967">
            <g id="Group_2966">
                <path id="Path_4120" d="M2283.593 1925.327h3.975c.469 0 .721.157.833.489a.7.7 0 0 1-.542.931 1.882 1.882 0 0 1-.36.024h-7.8a1.918 1.918 0 0 1-.394-.031.71.71 0 0 1 .031-1.389 3.717 3.717 0 0 1 .54-.025z" class="cls-1"/>
                <g id="Group_2965" clip-path="url(#clip-path)">
                    <path id="Rectangle_2380" d="M0 0H0.007V1.449H0z" class="cls-1" transform="translate(2278.744 1925.324)"/>
                    <path id="Rectangle_2381" d="M0 0H9.69V1.449H0z" class="cls-1" transform="translate(2278.751 1925.324)"/>
                    <path id="Rectangle_2382" d="M0 0H0.101V1.449H0z" class="cls-1" transform="translate(2288.441 1925.324)"/>
                </g>
            </g>
            <path id="Path_4122" d="M2283.771 1926.9h-4.077a2.012 2.012 0 0 1-.421-.034.836.836 0 0 1 .038-1.638 3.185 3.185 0 0 1 .508-.026h7.749a.871.871 0 0 1 .953.576.831.831 0 0 1-.638 1.1 2.035 2.035 0 0 1-.383.026zm-3.974-1.446a2.987 2.987 0 0 0-.447.023.583.583 0 0 0-.024 1.14 1.784 1.784 0 0 0 .368.028h7.8a1.778 1.778 0 0 0 .336-.023.577.577 0 0 0 .446-.765c-.1-.285-.3-.4-.714-.4h-7.77z" class="cls-1"/>
        </g>
        <g id="Group_2970">
            <g id="Group_2969">
                <path id="Path_4123" d="M2283.588 1930.847h3.83a2.512 2.512 0 0 1 .467.029.709.709 0 0 1 .049 1.374 1.563 1.563 0 0 1-.393.041h-7.878a1.828 1.828 0 0 1-.323-.021.711.711 0 0 1 .021-1.4 3.29 3.29 0 0 1 .433-.02q1.896-.005 3.794-.003z" class="cls-1"/>
                <g id="Group_2968" clip-path="url(#clip-path-2)">
                    <path id="Rectangle_2383" d="M0 0H0.005V1.448H0z" class="cls-1" transform="translate(2278.746 1930.846)"/>
                    <path id="Rectangle_2384" d="M0 0H9.694V1.448H0z" class="cls-1" transform="translate(2278.75 1930.846)"/>
                    <path id="Rectangle_2385" d="M0 0H0.012V1.448H0z" class="cls-1" transform="translate(2288.445 1930.846)"/>
                </g>
            </g>
            <path id="Path_4125" d="M2283.133 1932.42h-3.47a1.968 1.968 0 0 1-.346-.023.838.838 0 0 1 .026-1.655 2.968 2.968 0 0 1 .431-.02h7.644a2.627 2.627 0 0 1 .491.031.836.836 0 0 1 .057 1.621 1.673 1.673 0 0 1-.425.045q-2.203.002-4.408.001zm-3.363-1.446a2.844 2.844 0 0 0-.391.018.584.584 0 0 0-.017 1.154 1.7 1.7 0 0 0 .3.02h7.877a1.416 1.416 0 0 0 .36-.037.582.582 0 0 0-.039-1.127 2.5 2.5 0 0 0-.444-.026H2279.768z" class="cls-1"/>
        </g>
        <g id="Group_2973">
            <g id="Group_2972">
                <path id="Path_4126" d="M2283.625 1919.806h3.794a2.6 2.6 0 0 1 .468.029.709.709 0 0 1 .045 1.374 1.7 1.7 0 0 1-.429.041h-7.8a1.933 1.933 0 0 1-.4-.03.71.71 0 0 1 .024-1.39 2.588 2.588 0 0 1 .432-.025z" class="cls-1"/>
                <g id="Group_2971" clip-path="url(#clip-path-3)">
                    <path id="Rectangle_2386" d="M0 0H0.005V1.448H0z" class="cls-1" transform="translate(2278.746 1919.805)"/>
                    <path id="Rectangle_2387" d="M0 0H9.694V1.448H0z" class="cls-1" transform="translate(2278.75 1919.805)"/>
                    <path id="Rectangle_2388" d="M0 0H0.011V1.448H0z" class="cls-1" transform="translate(2288.445 1919.805)"/>
                </g>
            </g>
            <path id="Path_4128" d="M2283.355 1921.38h-3.657a2.062 2.062 0 0 1-.42-.032.837.837 0 0 1 .027-1.639 2.787 2.787 0 0 1 .454-.027h7.66a2.586 2.586 0 0 1 .491.031.836.836 0 0 1 .054 1.621 1.83 1.83 0 0 1-.461.045zm-1.516-1.447h-2.08a2.418 2.418 0 0 0-.411.023.583.583 0 0 0-.019 1.141 1.863 1.863 0 0 0 .369.027h7.8a1.606 1.606 0 0 0 .4-.037.582.582 0 0 0-.038-1.126 2.41 2.41 0 0 0-.436-.027h-5.589z" class="cls-1"/>
        </g>
        <g id="Group_2976">
            <g id="Group_2975">
                <path id="Path_4129" d="M2274.15 1920.532c.536-.539.989-1 1.45-1.453a.692.692 0 0 1 .889-.136.654.654 0 0 1 .337.764.876.876 0 0 1-.221.4q-.906.932-1.833 1.839a.721.721 0 0 1-1.138 0c-.295-.283-.585-.571-.866-.867a.72.72 0 1 1 1-1.029 4.267 4.267 0 0 1 .382.482z" class="cls-1"/>
                <g id="Group_2974" clip-path="url(#clip-path-4)">
                    <path id="Rectangle_2389" d="M0 0H0.08V3.559H0z" class="cls-1" transform="translate(2272.442 1918.758)"/>
                    <path id="Rectangle_2390" d="M0 0H4.325V3.559H0z" class="cls-1" transform="translate(2272.522 1918.758)"/>
                    <path id="Rectangle_2391" d="M0 0H0.051V3.559H0z" class="cls-1" transform="translate(2276.847 1918.758)"/>
                </g>
            </g>
            <path id="Path_4131" d="M2274.208 1922.347a.967.967 0 0 1-.661-.312c-.317-.3-.6-.589-.871-.872a.847.847 0 1 1 1.185-1.208 2.216 2.216 0 0 1 .265.329l.038.054.361-.363c.346-.349.664-.67.987-.987a.819.819 0 0 1 1.04-.156.784.784 0 0 1 .4.9 1.006 1.006 0 0 1-.253.46c-.592.608-1.209 1.227-1.836 1.841a.938.938 0 0 1-.655.314zm-.982-2.408a.565.565 0 0 0-.4.166.6.6 0 0 0 .032.883c.266.281.548.563.862.864a.6.6 0 0 0 .961 0c.625-.613 1.241-1.231 1.831-1.837a.747.747 0 0 0 .188-.338.525.525 0 0 0-.275-.627.564.564 0 0 0-.738.116c-.322.316-.639.636-.984.984l-.568.572-.088-.116c-.047-.061-.089-.121-.13-.178a1.911 1.911 0 0 0-.233-.292.67.67 0 0 0-.458-.197z" class="cls-1"/>
        </g>
        <g id="Group_2979">
            <g id="Group_2978">
                <path id="Path_4132" d="M2274.178 1926.035c.52-.526.97-.992 1.433-1.444a.683.683 0 0 1 .889-.121.652.652 0 0 1 .323.77.986.986 0 0 1-.252.422q-.881.9-1.782 1.788a.729.729 0 0 1-1.164.005q-.429-.414-.841-.842a.725.725 0 1 1 1.026-1.013c.121.116.218.256.368.435z" class="cls-1"/>
                <g id="Group_2977" clip-path="url(#clip-path-5)">
                    <path id="Rectangle_2392" d="M0 0H0.086V3.56H0z" class="cls-1" transform="translate(2272.437 1924.28)"/>
                    <path id="Rectangle_2393" d="M0 0H4.326V3.56H0z" class="cls-1" transform="translate(2272.522 1924.28)"/>
                    <path id="Rectangle_2394" d="M0 0H0.055V3.56H0z" class="cls-1" transform="translate(2276.849 1924.28)"/>
                </g>
            </g>
            <path id="Path_4134" d="M2274.206 1927.868a.977.977 0 0 1-.669-.322c-.291-.281-.575-.565-.845-.845a.851.851 0 1 1 1.206-1.192 2.608 2.608 0 0 1 .242.278l.047.058.361-.367c.337-.343.653-.663.974-.978a.807.807 0 0 1 1.042-.139.779.779 0 0 1 .382.91 1.122 1.122 0 0 1-.284.48c-.546.56-1.129 1.146-1.785 1.789a.968.968 0 0 1-.671.328zm-.989-2.407a.552.552 0 0 0-.4.178.606.606 0 0 0 .061.886c.267.278.549.56.838.838a.6.6 0 0 0 .987 0c.654-.643 1.236-1.227 1.78-1.786a.863.863 0 0 0 .22-.364.529.529 0 0 0-.264-.631.56.56 0 0 0-.737.1c-.32.313-.634.632-.97.974l-.559.567-.089-.107c-.052-.061-.1-.118-.139-.171a2.687 2.687 0 0 0-.219-.254.741.741 0 0 0-.509-.23z" class="cls-1"/>
        </g>
        <g id="Group_2982">
            <g id="Group_2981">
                <path id="Path_4135" d="M2274.168 1931.564c.5-.509.923-.938 1.347-1.361.4-.4.821-.428 1.138-.1a.76.76 0 0 1-.113 1.114q-.851.858-1.708 1.709a.754.754 0 0 1-1.242.012c-.275-.269-.55-.539-.815-.817a.723.723 0 1 1 1.018-1.02 4.958 4.958 0 0 1 .375.463z" class="cls-1"/>
                <g id="Group_2980" clip-path="url(#clip-path-6)">
                    <path id="Rectangle_2395" d="M0 0H0.083V3.596H0z" class="cls-1" transform="translate(2272.439 1929.775)"/>
                    <path id="Rectangle_2396" d="M0 0H4.326V3.596H0z" class="cls-1" transform="translate(2272.522 1929.775)"/>
                    <path id="Rectangle_2397" d="M0 0H0.1V3.596H0z" class="cls-1" transform="translate(2276.848 1929.775)"/>
                </g>
            </g>
            <path id="Path_4137" d="M2274.2 1933.388a1.031 1.031 0 0 1-.7-.356c-.276-.271-.551-.541-.818-.821a.849.849 0 1 1 1.2-1.2 2.672 2.672 0 0 1 .256.3l.042.056.382-.388c.3-.308.583-.591.865-.872a1.076 1.076 0 0 1 .74-.36h.009a.8.8 0 0 1 .569.265.879.879 0 0 1-.114 1.291q-.85.858-1.709 1.71a1.049 1.049 0 0 1-.722.375zm-.983-2.409a.562.562 0 0 0-.4.173.6.6 0 0 0 .046.884c.264.278.538.546.812.815.39.382.668.38 1.064-.012q.858-.849 1.707-1.709c.316-.319.359-.678.111-.937a.544.544 0 0 0-.389-.186h-.006a.833.833 0 0 0-.561.285c-.281.281-.56.564-.863.871l-.584.591-.089-.11c-.049-.061-.093-.119-.134-.174a2.416 2.416 0 0 0-.23-.274.707.707 0 0 0-.48-.217z" class="cls-1"/>
        </g>
        <g id="Group_2985">
            <g id="Group_2984">
                <path id="Path_4138" d="M2287.728 1936.726c-.471 0-.941.008-1.411 0a.72.72 0 1 1-.009-1.438q1.446-.02 2.893 0a.72.72 0 1 1-.027 1.438c-.482.008-.964 0-1.446 0z" class="cls-1"/>
                <g id="Group_2983" clip-path="url(#clip-path-7)">
                    <path id="Rectangle_2398" d="M0 0H0.012V1.461H0z" class="cls-1" transform="translate(2285.54 1935.272)"/>
                    <path id="Rectangle_2399" d="M0 0H4.4V1.461H0z" class="cls-1" transform="translate(2285.552 1935.272)"/>
                    <path id="Rectangle_2400" d="M0 0H0.003V1.461H0z" class="cls-1" transform="translate(2289.951 1935.272)"/>
                </g>
            </g>
            <path id="Path_4140" d="M2288.608 1936.856h-2.294a.829.829 0 0 1-.889-.818.839.839 0 0 1 .223-.611.914.914 0 0 1 .658-.263c.97-.013 1.945-.013 2.9 0a.847.847 0 1 1-.026 1.692h-.572zm-.88-.257h1.444a.591.591 0 0 0 .652-.593.584.584 0 0 0-.625-.591c-.95-.014-1.922-.014-2.889 0a.656.656 0 0 0-.478.185.6.6 0 0 0 .488 1c.326.007.652.005.978 0z" class="cls-1"/>
        </g>
        <g id="Group_2988">
            <g id="Group_2987">
                <path id="Path_4141" d="M2284.171 1936.723a.7.7 0 0 1-.714-.706.723.723 0 0 1 .732-.733.744.744 0 0 1 .723.715.724.724 0 0 1-.741.724z" class="cls-1"/>
                <g id="Group_2986" clip-path="url(#clip-path-8)">
                    <path id="Rectangle_2401" d="M0 0H0.004V1.448H0z" class="cls-1" transform="translate(2283.453 1935.278)"/>
                    <path id="Rectangle_2402" d="M0 0H1.455V1.448H0z" class="cls-1" transform="translate(2283.457 1935.278)"/>
                    <path id="Rectangle_2403" d="M0 0H0.006V1.448H0z" class="cls-1" transform="translate(2284.912 1935.278)"/>
                </g>
            </g>
            <path id="Path_4143" d="M2284.178 1936.849h-.008a.828.828 0 0 1-.84-.831.849.849 0 0 1 .861-.86.872.872 0 0 1 .847.839.82.82 0 0 1-.242.6.862.862 0 0 1-.618.252zm-.006-.253a.666.666 0 0 0 .444-.181.569.569 0 0 0 .169-.414.6.6 0 0 0-1.025-.417.6.6 0 0 0-.176.432.572.572 0 0 0 .588.58z" class="cls-1"/>
        </g>
        <g id="Group_2991">
            <g id="Group_2990">
                <path id="Path_4144" d="M2281.433 1913.024a.676.676 0 0 0 .681-.674.665.665 0 0 0-1.33 0 .68.68 0 0 0 .649.674z" class="cls-1"/>
                <g id="Group_2989" clip-path="url(#clip-path-9)">
                    <path id="Rectangle_2404" d="M0 0H0.001V1.356H0z" class="cls-1" transform="translate(2280.783 1911.678)"/>
                    <path id="Rectangle_2405" d="M0 0H1.33V1.356H0z" class="cls-1" transform="translate(2280.784 1911.678)"/>
                    <rect id="Rectangle_2406" height="1.356" class="cls-1" transform="translate(2282.114 1911.678)"/>
                </g>
            </g>
            <path id="Path_4146" d="M2281.45 1913.151h-.02a.8.8 0 0 1-.773-.8.789.789 0 0 1 .233-.568.8.8 0 0 1 .577-.225.785.785 0 0 1 .774.791.812.812 0 0 1-.246.576.775.775 0 0 1-.545.226zm0-1.339a.54.54 0 0 0-.383.152.532.532 0 0 0-.157.387.553.553 0 0 0 .526.546.508.508 0 0 0 .382-.153.554.554 0 0 0 .168-.394.526.526 0 0 0-.525-.537z" class="cls-1"/>
        </g>
        <g id="Group_2994">
            <g id="Group_2993">
                <path id="Path_4147" d="M2294.108 1939.562a3.838 3.838 0 0 0 .027-.478c-.021-8.667-.012-15.733-.012-24.4a3.074 3.074 0 0 0-.025-.394v-.062a2.069 2.069 0 0 0-.07-.31 1.618 1.618 0 0 0-.446-.734 1.708 1.708 0 0 0-1.055-.464.916.916 0 0 0-.1 0 .647.647 0 0 0-.16-.023.7.7 0 0 0-.194.025h-3.356c-.2 0-.284-.049-.326-.265a2.187 2.187 0 0 0-.136-.44 2.008 2.008 0 0 0-1.825-1.278c-.5-.024-1 0-1.5-.019a.408.408 0 0 1-.3-.136 4.058 4.058 0 0 0-.374-.557 3.59 3.59 0 0 0-.265-.3c-.047-.046-.094-.092-.143-.135l-.085-.072-.028-.024a3.737 3.737 0 0 0-1.681-.766l-.109-.032a.215.215 0 0 0-.025-.019h-.934c-.306.093-.621.163-.916.284a3.391 3.391 0 0 0-1.735 1.538.4.4 0 0 1-.2.2h-.01a.476.476 0 0 1-.177.024c-.477-.01-.956-.015-1.433.007a2.14 2.14 0 0 0-1.044.322 1.868 1.868 0 0 0-.732.787 2.159 2.159 0 0 0-.212.6c-.041.215-.125.266-.325.264-1.156-.007-2.311-.005-3.467 0a1.768 1.768 0 0 0-1.951 1.965c0 8.667.009 15.733-.012 24.4a3.759 3.759 0 0 0 .024.46 1.946 1.946 0 0 0 .034.316 1.835 1.835 0 0 0 1.363 1.4h22.546a2.05 2.05 0 0 0 .932-.577 1.667 1.667 0 0 0 .423-.837 1.738 1.738 0 0 0 .014-.27zm-18.311-26.3c0-.123-.005-.245 0-.367a.8.8 0 0 1 .828-.819c.622-.015 1.244 0 1.866-.007a.728.728 0 0 0 .847-.584 2.25 2.25 0 0 1 4.059-.33 2.34 2.34 0 0 1 .15.317 1.658 1.658 0 0 0 .142.294c.146.236.33.3.712.3h1.733a.892.892 0 0 1 .822.354l.02.035.014.028c.008.017.017.034.024.052l.006.016a1.047 1.047 0 0 1 .068.326c.008.121 0 .244 0 .366 0 1.235-.15 1.387-1.37 1.387h-8.832c-.551 0-.852-.113-1-.423a2.861 2.861 0 0 1-.086-.94zm-1.625.769c.214 0 .3.054.349.28a2.157 2.157 0 0 0 .149.441 1.838 1.838 0 0 0 1.137 1.068 1.909 1.909 0 0 0 .336.1 2.97 2.97 0 0 0 .615.065c1.678.007 3.357 0 5.035 0 1.534 0 3.068.013 4.6-.016a2.029 2.029 0 0 0 1.342-.538 1.725 1.725 0 0 0 .385-.477 2.15 2.15 0 0 0 .248-.627c.05-.227.135-.282.349-.281 1.156.009 2.312 0 3.467.005.274 0 .43.038.515.158l.01.016.011.019a.984.984 0 0 1 .059.424v24.608c0 .515-.106.62-.626.62h-21.441c-.3 0-.463-.042-.542-.184a1 1 0 0 1-.061-.422v-24.607c0-.463.07-.559.455-.635h.14c1.156-.01 2.312-.004 3.468-.012z" class="cls-1"/>
                <g id="Group_2992" clip-path="url(#clip-path-10)">
                    <path id="Rectangle_2407" d="M0 0H22.671V25.865H0z" class="cls-1" transform="translate(2270.109 1914.034)"/>
                    <path id="Rectangle_2408" d="M0 0H11.306V4.612H0z" class="cls-1" transform="translate(2275.792 1910.029)"/>
                    <rect id="Rectangle_2409" height="32.565" class="cls-1" transform="translate(2268.754 1908.681)"/>
                    <path id="Rectangle_2410" d="M0 0H25.38V32.565H0z" class="cls-1" transform="translate(2268.755 1908.681)"/>
                    <rect id="Rectangle_2411" height="32.565" class="cls-1" transform="translate(2294.135 1908.681)"/>
                </g>
            </g>
            <path id="Path_4149" d="M2292.743 1941.374l-22.607-.007a1.951 1.951 0 0 1-1.448-1.495 2.054 2.054 0 0 1-.035-.338 3.9 3.9 0 0 1-.025-.464c.016-6.588.014-12.323.013-18.395v-6a1.9 1.9 0 0 1 2.078-2.092c1.156 0 2.312-.005 3.468 0 .144 0 .17-.012.2-.163a2.277 2.277 0 0 1 .224-.632 1.978 1.978 0 0 1 .779-.836 2.277 2.277 0 0 1 1.1-.341c.488-.022.981-.016 1.441-.007a.371.371 0 0 0 .132-.016.275.275 0 0 0 .145-.146 3.516 3.516 0 0 1 1.8-1.595 5.9 5.9 0 0 1 .642-.205c.1-.027.191-.053.285-.082l.037-.005h.971l.046.029.086.026a3.878 3.878 0 0 1 1.727.791l.028.023.088.075c.051.044.1.092.148.14a3.447 3.447 0 0 1 .277.31 4.306 4.306 0 0 1 .386.574.319.319 0 0 0 .192.071c.227.008.454.008.682.007.272 0 .547 0 .82.013a2.124 2.124 0 0 1 1.939 1.363 2.265 2.265 0 0 1 .141.457c.029.151.053.165.2.162 1.114-.007 2.227-.006 3.34 0a.894.894 0 0 1 .214-.025.8.8 0 0 1 .172.023.817.817 0 0 1 .1 0 1.839 1.839 0 0 1 1.133.5 1.748 1.748 0 0 1 .479.79 2.016 2.016 0 0 1 .075.327l.009.067a3.22 3.22 0 0 1 .026.408v6.189c0 6.011 0 11.688.012 18.209a3.816 3.816 0 0 1-.027.49 1.784 1.784 0 0 1-.033.285 1.821 1.821 0 0 1-.454.9 2.164 2.164 0 0 1-.985.61zm-22.546-.254h22.5a1.9 1.9 0 0 0 .857-.534 1.534 1.534 0 0 0 .393-.778 1.756 1.756 0 0 0 .03-.252v-.009a3.753 3.753 0 0 0 .026-.463c-.016-6.522-.014-12.2-.013-18.21v-6.189a2.894 2.894 0 0 0-.024-.377l.122-.049h-.128a1.9 1.9 0 0 0-.068-.3 1.5 1.5 0 0 0-.411-.679 1.586 1.586 0 0 0-.98-.431h-.107l-.017-.005a.72.72 0 0 0-.142-.019.531.531 0 0 0-.147.021H2288.693a.389.389 0 0 1-.444-.368 2.04 2.04 0 0 0-.129-.414 1.872 1.872 0 0 0-1.715-1.2c-.268-.013-.537-.012-.807-.012-.231 0-.461 0-.691-.007a.519.519 0 0 1-.4-.2 4.008 4.008 0 0 0-.363-.54 3.475 3.475 0 0 0-.256-.287c-.046-.046-.092-.089-.139-.131-.024-.022-.048-.042-.072-.062l.043-.128-.08.1a3.634 3.634 0 0 0-1.625-.741l-.152-.048h-.873l-.273.078a5.539 5.539 0 0 0-.614.2 3.268 3.268 0 0 0-1.672 1.482.526.526 0 0 1-.269.258.678.678 0 0 1-.235.036c-.456-.01-.944-.015-1.425.006a2.031 2.031 0 0 0-.983.3 1.729 1.729 0 0 0-.684.734 1.982 1.982 0 0 0-.2.567.388.388 0 0 1-.445.367h-.006c-1.155-.007-2.311-.006-3.466 0a1.641 1.641 0 0 0-1.825 1.839v6c0 6.072 0 11.807-.012 18.395a3.712 3.712 0 0 0 .023.445 1.846 1.846 0 0 0 .032.306 1.69 1.69 0 0 0 1.264 1.299zm21.957-1.094h-21.441c-.308 0-.537-.043-.653-.249a1.062 1.062 0 0 1-.077-.484v-24.609c0-.487.08-.665.556-.76l.034-.006h3.603a.416.416 0 0 1 .474.38 2.079 2.079 0 0 0 .14.415 1.708 1.708 0 0 0 1.065 1 1.852 1.852 0 0 0 .317.091 2.934 2.934 0 0 0 .591.062c1.388.006 2.776 0 4.164 0h2.121c1.1 0 2.233 0 3.349-.017a1.913 1.913 0 0 0 1.259-.505 1.627 1.627 0 0 0 .359-.443 2.059 2.059 0 0 0 .235-.595.412.412 0 0 1 .466-.379h.008c.729.005 1.459.005 2.189 0h1.278c.282 0 .494.036.618.211l.03.051a1.1 1.1 0 0 1 .073.481v24.608c-.005.587-.167.748-.758.748zm-20.785-25.859h-.781c-.312.064-.352.1-.352.513v24.609a.908.908 0 0 0 .048.366c.038.068.125.113.429.113h21.441c.448 0 .5-.05.5-.493v-24.608a.906.906 0 0 0-.045-.367c-.05-.072-.126-.122-.423-.123h-1.277c-.73 0-1.461 0-2.191-.005-.154 0-.187.014-.225.181a2.259 2.259 0 0 1-.262.665 1.874 1.874 0 0 1-.41.507 2.167 2.167 0 0 1-1.423.57c-1.119.021-2.255.018-3.354.017h-6.285a3.128 3.128 0 0 1-.642-.068 2.129 2.129 0 0 1-.354-.1 1.971 1.971 0 0 1-1.21-1.142 2.236 2.236 0 0 1-.155-.458c-.037-.168-.06-.177-.224-.181-.726.005-1.451 0-2.178 0zm8.783.6h-3.261c-.436 0-.908-.06-1.11-.5a2.923 2.923 0 0 1-.111-1v-.106-.269a.919.919 0 0 1 .951-.937c.4-.011.8-.009 1.205-.008h.664c.451 0 .567-.082.729-.5a2.378 2.378 0 0 1 2.226-1.542 2.352 2.352 0 0 1 2.06 1.193 2.617 2.617 0 0 1 .159.335 1.433 1.433 0 0 0 .13.272c.116.188.252.242.606.244h1.733a1.009 1.009 0 0 1 .928.414l.04.073.028.06a1.238 1.238 0 0 1 .084.383v.374c0 .649-.04 1.02-.263 1.246s-.591.268-1.234.268zm-2.731-2.567c-.263 0-.527 0-.79.008a.67.67 0 0 0-.705.7c-.005.083 0 .166 0 .25v.109a2.811 2.811 0 0 0 .09.9c.094.2.281.342.877.342h8.831c.56 0 .893-.031 1.053-.193s.191-.5.191-1.068v-.108-.251a.977.977 0 0 0-.06-.287l-.055-.111a.773.773 0 0 0-.714-.293h-1.733a.828.828 0 0 1-.819-.363 1.767 1.767 0 0 1-.152-.316 2.321 2.321 0 0 0-.142-.3 2.1 2.1 0 0 0-1.84-1.066 2.128 2.128 0 0 0-1.99 1.38.846.846 0 0 1-.964.665h-1.073z" class="cls-1"/>
        </g>
    </g>
</svg>
