<svg xmlns="http://www.w3.org/2000/svg" width="20.5" height="20.499" viewBox="0 0 20.5 20.499">
    <defs>
        <style>
            .cls-2{fill:#2d9483}
        </style>
    </defs>
    <g id="Group_4251" opacity="0.5" transform="translate(-3826.004 -4271.647)">
        <path id="Path_5174" d="M3845.9 4271.647h-11.691a.6.6 0 0 0-.6.6v6.259a7.569 7.569 0 0 0-2.274.112.6.6 0 0 0-.481.589v1.021c-.067.026-.133.054-.2.083l-.722-.723a.6.6 0 0 0-.756-.076 7.575 7.575 0 0 0-2.13 2.13.6.6 0 0 0 .076.756l.722.723c-.028.066-.056.132-.082.2h-1.022a.6.6 0 0 0-.588.48 7.538 7.538 0 0 0 0 3.013.6.6 0 0 0 .588.481h1.022l.082.2-.722.723a.6.6 0 0 0-.076.756 7.575 7.575 0 0 0 2.13 2.13.6.6 0 0 0 .756-.076l.722-.723c.066.029.132.057.2.083v1.021a.6.6 0 0 0 .481.589 7.524 7.524 0 0 0 1.506.151h13.059a.6.6 0 0 0 .6-.6v-19.3a.6.6 0 0 0-.6-.6zm-12.291 14.923a1.48 1.48 0 1 1 0-2.526zm-.768 4.375a6.418 6.418 0 0 1-.786-.048v-.94a.6.6 0 0 0-.428-.575 4.249 4.249 0 0 1-.807-.335.6.6 0 0 0-.711.1l-.665.665a6.351 6.351 0 0 1-1.111-1.111l.665-.665a.6.6 0 0 0 .1-.711 4.274 4.274 0 0 1-.335-.807.6.6 0 0 0-.575-.428h-.94a6.349 6.349 0 0 1 0-1.572h.94a.6.6 0 0 0 .575-.429 4.221 4.221 0 0 1 .335-.806.6.6 0 0 0-.1-.712l-.665-.664a6.364 6.364 0 0 1 .521-.591 6.5 6.5 0 0 1 .59-.521l.665.665a.6.6 0 0 0 .711.1 4.346 4.346 0 0 1 .807-.335.6.6 0 0 0 .428-.575v-.939a6.413 6.413 0 0 1 1.554 0v3.026a2.644 2.644 0 0 0-.768-.114 2.68 2.68 0 1 0 .768 5.248v3.071zm12.459 0h-10.49v-18.1h10.49z" class="cls-2"/>
        <path id="Path_5175" d="M3837.615 4280.8v7.826a.6.6 0 1 0 1.2 0v-7.826a1.881 1.881 0 0 0 0-3.566v-2.061a.6.6 0 0 0-1.2 0v2.061a1.881 1.881 0 0 0 0 3.566zm.6-2.464a.681.681 0 1 1 0 1.362.681.681 0 1 1 0-1.362z" class="cls-2"/>
        <path id="Path_5176" d="M3841.419 4286.549v2.074a.6.6 0 1 0 1.2 0v-2.047a1.882 1.882 0 0 0 .04-3.58v-7.826a.6.6 0 0 0-1.2 0v7.83a1.882 1.882 0 0 0-.04 3.553zm.641-2.45a.68.68 0 1 1-.681.68.68.68 0 0 1 .681-.679z" class="cls-2"/>
    </g>
</svg>
