<svg xmlns="http://www.w3.org/2000/svg" width="18.341" height="15.803" viewBox="0 0 18.341 15.803">
    <defs>
        <style>
            .cls-1{fill:#3a4354}
        </style>
    </defs>
    <g id="Group_345" transform="translate(-3178.886 -3390.462)">
        <path id="Path_496" d="M3197.193 3399.341l-.116.046.116-.046-3.416-8.576a.48.48 0 0 0-.624-.269l-13.86 5.519a.466.466 0 0 0-.175.131.476.476 0 0 0-.232.405v9.234a.481.481 0 0 0 .48.48h14.916a.481.481 0 0 0 .48-.48v-4.958l2.163-.862a.481.481 0 0 0 .268-.624zm-2.829-3.262l-.729-1.83a.29.29 0 0 0-.026-.042.478.478 0 0 0-.5-.344 1.99 1.99 0 0 1-1.754-.756.48.48 0 0 0-.594-.121.517.517 0 0 0-.055.014l-7.259 2.89a.469.469 0 0 0-.223.181h-1.479l11.315-4.505 3.061 7.685-1.362.543v-3.243a.48.48 0 0 0-.395-.472zm-3.513-2.1a2.972 2.972 0 0 0 1.982.855l.495 1.243h-7.741zm2.95 3.056v8.274h-13.955v-8.274z" class="cls-1"/>
        <path id="Path_497" d="M3180.314 3402.645a.48.48 0 0 0 .334.507 1.988 1.988 0 0 1 1.35 1.348.478.478 0 0 0 .466.342l.045-.005a.429.429 0 0 0 .051.007h8.54l.029-.005a.379.379 0 0 0 .076.007.457.457 0 0 0 .443-.348v-.005a1.994 1.994 0 0 1 1.348-1.341.478.478 0 0 0 .334-.5c0-.016 0-.034.008-.059v-2.857c0-.015-.005-.029-.007-.043a.477.477 0 0 0-.335-.5 1.993 1.993 0 0 1-1.35-1.352.464.464 0 0 0-.507-.333.512.512 0 0 0-.056-.008h-8.537a.424.424 0 0 0-.047.007.478.478 0 0 0-.5.335 1.993 1.993 0 0 1-1.351 1.35.478.478 0 0 0-.334.5c0 .017-.006.035-.008.06v2.858zm.953-.284v-2.386a2.965 2.965 0 0 0 1.523-1.523h8.068a2.961 2.961 0 0 0 1.523 1.523v2.386a2.963 2.963 0 0 0-1.523 1.523h-8.068a2.967 2.967 0 0 0-1.523-1.523z" class="cls-1"/>
        <path id="Path_498" d="M3186.824 3403.424a2.256 2.256 0 1 0-2.256-2.256 2.259 2.259 0 0 0 2.256 2.256zm0-3.551a1.295 1.295 0 1 1-1.3 1.295 1.3 1.3 0 0 1 1.3-1.295z" class="cls-1"/>
        <path id="Path_499" d="M3182.917 3401.826a.658.658 0 1 0-.657-.658.658.658 0 0 0 .657.658zm-.052-.658a.052.052 0 0 1 .052-.053.053.053 0 0 1 .053.053c0 .06-.105.059-.105 0z" class="cls-1"/>
        <path id="Path_500" d="M3190.73 3401.826a.658.658 0 1 0-.658-.658.658.658 0 0 0 .658.658zm-.052-.658a.052.052 0 0 1 .052-.053.053.053 0 0 1 .053.053c0 .059-.105.06-.105 0z" class="cls-1"/>
    </g>
</svg>
