<svg xmlns="http://www.w3.org/2000/svg" width="18.077" height="18.08" viewBox="0 0 18.077 18.08">
    <defs>
        <style>
            .cls-1{fill:#ff1e32}
        </style>
    </defs>
    <g id="Group_127" transform="translate(-1079.435 -692)">
        <g id="Group_126">
            <path id="Path_451" d="M1085.831 706.721l-1.459-.959c-.106.114-.228.248-.353.378a4.3 4.3 0 0 1-.317.314.462.462 0 0 0-.189.532c.144.582-.275.956-.852.789a1.275 1.275 0 0 1-.924-.936.638.638 0 0 1 .849-.831.291.291 0 0 0 .364-.1 2.1 2.1 0 0 1 .244-.236c.193-.176.388-.35.566-.511l-.95-1.455c-.122.048-.27.108-.42.163-.2.071-.351.018-.4-.146-.058-.184.035-.295.2-.364l.391-.169c-.1-.546-.2-1.065-.3-1.582a.186.186 0 0 0-.136-.113q-.562-.014-1.124 0a.261.261 0 0 0-.158.1c-.08.1-.132.22-.22.308a.6.6 0 0 1-.889-.016 1.319 1.319 0 0 1 0-1.709.633.633 0 0 1 1.053.2.312.312 0 0 0 .329.19c.324-.012.65 0 .975-.009a.228.228 0 0 0 .17-.12c.054-.248.074-.5.126-.752s.129-.491.2-.763c-.141-.063-.285-.13-.432-.191-.167-.07-.255-.181-.194-.365.053-.163.2-.212.406-.142.073.025.143.059.216.087l.2.075.939-1.447c-.21-.21-.45-.436-.672-.678a.494.494 0 0 0-.553-.191c-.575.135-.933-.276-.774-.85a1.3 1.3 0 0 1 .891-.919.69.69 0 0 1 .735.125.671.671 0 0 1 .138.731.288.288 0 0 0 .1.346c.277.25.545.512.821.774l1.385-.914c-.051-.128-.113-.276-.168-.426a.279.279 0 0 1 .136-.391c.152-.063.286 0 .368.185.064.141.126.282.185.415.438-.094.863-.191 1.29-.275.4-.078.4-.073.4-.485 0-.262.006-.524-.005-.785a.244.244 0 0 0-.094-.183c-.306-.166-.557-.377-.486-.76a.826.826 0 0 1 .742-.635 1.255 1.255 0 0 1 1.086.222.632.632 0 0 1-.128 1.109.321.321 0 0 0-.2.344c.01.318.006.637 0 .955 0 .117.028.168.159.192q.666.119 1.325.278c.131.032.194.019.235-.112a2.419 2.419 0 0 1 .139-.333.27.27 0 0 1 .505.19c-.05.168-.123.33-.182.486l1.436.93.653-.636a1.277 1.277 0 0 1 .1-.107.354.354 0 0 0 .126-.433.632.632 0 0 1 .832-.817 1.272 1.272 0 0 1 .94.919.64.64 0 0 1-.843.852.351.351 0 0 0-.415.124c-.244.263-.5.517-.739.766l.932 1.411.424-.169a.273.273 0 0 1 .391.136c.069.145 0 .284-.182.368-.141.065-.282.127-.42.188.091.41.18.807.266 1.205.033.15.009.367.1.434.108.08.311.032.473.037.12 0 .24-.006.36 0a.623.623 0 0 0 .7-.311.59.59 0 0 1 1.015 0 1.36 1.36 0 0 1 .025 1.532.639.639 0 0 1-1.147-.112.313.313 0 0 0-.343-.2c-.318.01-.637 0-.955.008a.224.224 0 0 0-.17.122c-.1.5-.193 1.009-.293 1.548.109.049.256.112.4.178a.288.288 0 0 1 .19.37.283.283 0 0 1-.393.139c-.151-.053-.3-.117-.428-.168l-.932 1.427c.288.292.587.6.892.9a.188.188 0 0 0 .13.024.963.963 0 0 0 .143-.039.643.643 0 0 1 .827.847 1.276 1.276 0 0 1-.927.933.638.638 0 0 1-.844-.835.35.35 0 0 0-.116-.416c-.22-.209-.43-.429-.638-.65-.094-.1-.162-.108-.283-.021-.406.291-.825.565-1.259.858.048.122.11.27.165.421a.276.276 0 1 1-.507.208c-.063-.141-.122-.284-.182-.421-.414.092-.811.181-1.209.268-.149.032-.366.01-.433.1-.08.108-.034.31-.039.472 0 .106.008.212 0 .318a.669.669 0 0 0 .33.748.584.584 0 0 1 .022.976 1.351 1.351 0 0 1-1.564.054.637.637 0 0 1 .089-1.137.352.352 0 0 0 .21-.38c-.012-.31 0-.622-.009-.933 0-.058-.059-.154-.1-.164-.51-.1-1.023-.2-1.561-.3-.051.116-.113.264-.181.409-.084.179-.225.247-.372.177a.273.273 0 0 1-.136-.376c.041-.138.107-.282.16-.417zm2.643-.987a4.694 4.694 0 1 0-4.7-4.692 4.685 4.685 0 0 0 4.7 4.692z" class="cls-1"/>
            <path id="Path_452" d="M1090.362 701.151a1.016 1.016 0 0 1 .023-2.032 1.016 1.016 0 1 1-.023 2.032z" class="cls-1"/>
            <path id="Path_453" d="M1086.748 700.553a1.016 1.016 0 1 1 1.013-1.009 1.009 1.009 0 0 1-1.013 1.009z" class="cls-1"/>
            <path id="Path_454" d="M1087.846 701.98a1.011 1.011 0 0 1 1.018 1.025 1.016 1.016 0 1 1-2.031-.02 1.006 1.006 0 0 1 1.013-1.005z" class="cls-1"/>
        </g>
    </g>
</svg>
