<svg xmlns="http://www.w3.org/2000/svg" width="9.538" height="9.538" viewBox="0 0 9.538 9.538">
    <defs>
        <style>
            .cls-1{fill:#ff1e32}
        </style>
    </defs>
    <g id="Group_119" transform="translate(-1263.462 -528.844)">
        <path id="Path_404" d="M1268.231 538.382a4.769 4.769 0 1 1 4.769-4.769 4.774 4.774 0 0 1-4.769 4.769zm0-8.842a4.073 4.073 0 1 0 4.073 4.073 4.077 4.077 0 0 0-4.073-4.073z" class="cls-1"/>
        <path id="Path_405" d="M1266.549 535.711a.386.386 0 0 1-.273-.66l3.332-3.331a.386.386 0 0 1 .546.546l-3.331 3.332a.39.39 0 0 1-.274.113z" class="cls-1"/>
        <path id="Path_406" d="M1269.881 535.711a.385.385 0 0 1-.273-.113l-3.332-3.332a.386.386 0 0 1 .547-.546l3.331 3.331a.386.386 0 0 1-.273.66z" class="cls-1"/>
    </g>
</svg>
