<svg xmlns="http://www.w3.org/2000/svg" width="38.615" height="28.955" viewBox="0 0 38.615 28.955">
    <defs>
        <style>
            .cls-1{fill:#1582c8}
        </style>
    </defs>
    <g id="Group_59" transform="translate(-791 -284.643)">
        <path id="Path_104" d="M791 297.755c.025-.425.048-.85.075-1.274.009-.131.024-.262.045-.391a.552.552 0 0 1 .608-.542c.977-.031 1.955-.065 2.933-.07q4.57-.024 9.14-.025 5.524-.008 11.05-.008 6.2.008 12.409.037c.538 0 1.076.026 1.613.06.413.026.579.181.616.6.051.581.088 1.165.1 1.748.019 1.235.021 2.469.022 3.7 0 3.677 0 7.354.007 11.031a.81.81 0 0 1-.235.592 1.018 1.018 0 0 1-1.633-.056 1.064 1.064 0 0 1-.178-.564c-.025-.571-.013-1.142-.016-1.714v-.23h-9.61c0 .3.005.59 0 .884-.006.374-.01.748-.035 1.121a1 1 0 0 1-.832.923 1.02 1.02 0 0 1-1.106-.536 1.237 1.237 0 0 1-.106-.493c-.028-1.195-.058-2.389-.061-3.584q-.013-5.544-.009-11.09v-.269h-22.65v.262q-.028 6.775-.059 13.552c0 .407-.02.814-.044 1.22a.9.9 0 0 1-.85.935 1 1 0 0 1-.947-.369.755.755 0 0 1-.158-.408c-.034-.6-.042-1.193-.061-1.79 0-.1-.016-.2-.024-.292zm36.525-.149h-9.571v3.294h9.571zm.018 4.374h-9.587v3.232h9.587zm-9.59 4.31v3.21h9.566v-3.21z" class="cls-1"/>
        <path id="Path_105" d="M808.421 293.386h1.727a6.5 6.5 0 0 1-.058.689c-.072.372-.178.452-.557.456-2.12.022-4.241.051-6.361.056-2.35.005-4.7-.009-7.051-.024-.412 0-.825-.039-1.236-.08s-.467-.127-.458-.523v-.569h1.635v-.265l.022-7.446c0-.2.018-.393.038-.589.025-.25.116-.367.365-.383.569-.037 1.14-.065 1.71-.065q4.441 0 8.883.017c.282 0 .563.029.844.052a.531.531 0 0 1 .205.062.441.441 0 0 1 .252.436c.006 2.653.024 5.305.04 7.958zm-11.315-.7h10.271v-6.926h-10.271zm6.149.949v-.4h-2.03v.4z" class="cls-1"/>
        <path id="Path_106" d="M822.717 299.447c-.393 0-.787.014-1.179 0a.459.459 0 0 1-.477-.619.378.378 0 0 1 .345-.328c.385-.022.771-.038 1.158-.042s.8.005 1.2.011a1.423 1.423 0 0 1 .234.025.529.529 0 0 1 .458.485.521.521 0 0 1-.5.468c-.413.011-.826 0-1.239 0z" class="cls-1"/>
        <path id="Path_107" d="M822.755 303.742c-.4 0-.8.009-1.2 0-.349-.01-.5-.144-.519-.411a.507.507 0 0 1 .493-.553c.779-.019 1.559-.012 2.338 0a.789.789 0 0 1 .374.151.375.375 0 0 1 .2.433.474.474 0 0 1-.444.38c-.065.006-.131.011-.2.011h-1.042z" class="cls-1"/>
        <path id="Path_108" d="M822.756 307.133c.387 0 .774-.008 1.161 0a.489.489 0 1 1 .017.976c-.787.011-1.574.016-2.36-.005-.406-.012-.6-.27-.531-.611a.358.358 0 0 1 .338-.328c.458-.028.916-.045 1.374-.067z" class="cls-1"/>
    </g>
</svg>
