<svg xmlns="http://www.w3.org/2000/svg" xmlns:xlink="http://www.w3.org/1999/xlink" width="131.69" height="131.955" viewBox="0 0 131.69 131.955">
    <defs>
        <linearGradient id="xfufox38ta" x1=".853" x2=".227" y1=".023" y2="1.103" gradientUnits="objectBoundingBox">
            <stop offset="0" stop-color="#51b8d6"/>
            <stop offset="1" stop-color="#437fec"/>
        </linearGradient>
        <linearGradient id="1xntgdrkeb" x1=".638" x2=".362" y1="-1.846" y2="2.846" xlink:href="#xfufox38ta"/>
        <linearGradient id="eejvac1dwc" x1=".638" x2=".362" y1="-1.846" y2="2.846" xlink:href="#xfufox38ta"/>
        <linearGradient id="tlludf7fnd" x1=".638" x2=".362" y1="-1.846" y2="2.845" xlink:href="#xfufox38ta"/>
        <linearGradient id="k36exp3bme" x1=".644" x2=".356" y1="-1.124" y2="2.124" xlink:href="#xfufox38ta"/>
    </defs>
    <g>
        <path fill="url(#xfufox38ta)" d="M1603.073 320.865a8.162 8.162 0 0 0-2.695-6.566 9.387 9.387 0 0 0-6.114-1.96c-4.057.125-8.12.041-12.181.037-.47 0-.941-.043-1.414-.066-.035-.323-.071-.5-.07-.674q.008-16.6.03-33.2c.007-2.523-1.005-3.657-3.484-3.658h-79.788c-2.485 0-3.462.994-3.465 3.511q-.012 10.376 0 20.75v13.332h-1.484q-6.09 0-12.182.008c-5.506.01-8.822 3.33-8.823 8.836v76.709a8.61 8.61 0 0 0 8.781 8.8h114.192c5.183 0 8.71-3.545 8.712-8.755q.006-17.471 0-34.94-.004-21.08-.015-42.164zm-22.426-2.929h12.284l-12.284 10.29zm-81.167-37.556h75.51c.025.466.07.9.07 1.326q0 24.9.021 49.8a2.739 2.739 0 0 1-1.127 2.354q-15.888 13.238-31.723 26.541c-3.458 2.9-6.249 2.9-9.671.032q-16.106-13.5-32.2-27.014a2.627 2.627 0 0 1-.9-1.741q-.072-25.3-.038-50.6c.003-.178.03-.357.058-.698zm-5.644 37.6v10.013l-11.97-10.013zm-16.83 78.931V321.07l45.144 37.8zm3.525 4.207l45.925-38.687c3.092 2.875 6.254 5.368 10.768 5.343 4.4-.024 7.727-2.089 10.731-5.094l45.973 38.438zm116.926-4.208l-45.171-37.764 45.171-37.831z" transform="translate(-1471.397 -274.776)"/>
        <path fill="url(#1xntgdrkeb)" d="M1510.742 296h53a3 3 0 0 0 0-6h-53a3 3 0 0 0 0 6z" transform="translate(-1471.397 -274.776)"/>
        <path fill="url(#eejvac1dwc)" d="M1510.742 309.333h53a3 3 0 0 0 0-6h-53a3 3 0 0 0 0 6z" transform="translate(-1471.397 -274.776)"/>
        <path fill="url(#tlludf7fnd)" d="M1510.742 322.667h53a3 3 0 0 0 0-6h-53a3 3 0 0 0 0 6z" transform="translate(-1471.397 -274.776)"/>
        <path fill="url(#k36exp3bme)" d="M1553.742 330h-33a3 3 0 0 0 0 6h33a3 3 0 0 0 0-6z" transform="translate(-1471.397 -274.776)"/>
    </g>
</svg>
