<svg xmlns="http://www.w3.org/2000/svg" width="16.15" height="16.12" viewBox="0 0 16.15 16.12">
    <defs>
        <style>
            .cls-1{fill:#516575}
        </style>
    </defs>
    <g id="Group_569" transform="translate(-851.98 -367.214)">
        <path id="Path_1204" d="M868.088 379.941a3.99 3.99 0 0 0-.1-.4 2.882 2.882 0 0 0-2.774-2h-.112a.264.264 0 0 1-.216-.084q-1.336-1.344-2.682-2.681l-.03-.027a.657.657 0 0 1-.05-.047.344.344 0 0 0 .1-.067c1.7-1.689 3.449-3.435 5.166-5.16a1.615 1.615 0 0 0 .314-.484c.11-.246.208-.5.3-.747l.118-.306.005-.276-.009-.036c-.223-.417-.441-.5-.894-.325-.053.02-.106.042-.158.063a2.977 2.977 0 0 1-.346.125 2.4 2.4 0 0 0-1.167.755c-.231.252-.48.5-.722.733-.122.119-.245.239-.365.36a.373.373 0 0 0-.12.3.277.277 0 0 0 .132.207.332.332 0 0 0 .44-.082c.462-.464.925-.928 1.392-1.387a.743.743 0 0 1 .233-.148c.257-.1.516-.2.792-.3l.131-.049-.01.024a3.091 3.091 0 0 0-.125.351 2.636 2.636 0 0 1-.782 1.213c-1.414 1.394-2.843 2.822-4.223 4.2L861 374.988l-.063.07-.669-.667a.633.633 0 0 0 .065-.055q1.513-1.508 3.024-3.017l.78-.778c.027-.027.054-.053.078-.082a.31.31 0 0 0-.007-.425.306.306 0 0 0-.426-.009c-.028.024-.054.05-.08.077l-3.008 3c-.025.026-.049.054-.074.084a.675.675 0 0 1-.055-.049l-.676-.675q-1.016-1.014-2.033-2.025a.235.235 0 0 1-.076-.2 2.892 2.892 0 0 0-3.349-2.988.581.581 0 0 0-.339 1.038q.263.258.522.519c.2.194.389.389.586.581.067.065.067.1.039.158a.709.709 0 0 0-.074.232c-.037.447-.34.531-.692.628-.076.021-.151.042-.224.067a.291.291 0 0 1-.06-.047c-.374-.37-.747-.739-1.116-1.113a.6.6 0 0 0-.635-.2.576.576 0 0 0-.4.53c-.01.091-.023.182-.037.273l-.016.118v.168c.011.066.02.132.03.2a3.682 3.682 0 0 0 .079.435 2.879 2.879 0 0 0 2.979 2.155.171.171 0 0 1 .107.033c.549.541 1.094 1.086 1.648 1.639l.238.237c-.021.024-.043.046-.065.068l-2.768 2.764a1.015 1.015 0 0 0-.072.075.308.308 0 0 0 0 .438.3.3 0 0 0 .439-.012c.179-.173.356-.35.533-.527l.176-.177q.608-.6 1.214-1.213c.114-.112.176-.1.218-.081a.3.3 0 0 1 .151.16.33.33 0 0 1-.088.221c-.282.293-.576.585-.86.867l-.611.608q-.708.71-1.419 1.414a.454.454 0 0 1-.171.118.175.175 0 0 1-.21-.087.185.185 0 0 1 .015-.242c.066-.073.136-.142.205-.211l.142-.144a.315.315 0 0 0 .035-.463.292.292 0 0 0-.208-.1.383.383 0 0 0-.264.126q-.526.522-1.05 1.048a.81.81 0 0 0-.2.893.131.131 0 0 1 .009.062c-.051.126-.108.251-.164.375l-.058.13-.007.436.006.03a3.465 3.465 0 0 0 1.852 1.848l.436.007.157-.064c.126-.057.252-.113.379-.166a.088.088 0 0 1 .046 0 .85.85 0 0 0 .957-.241q.908-.912 1.821-1.82l2.728-2.722.065-.063.053.05.491.489q.654.654 1.311 1.3a.2.2 0 0 1 .068.174 2.865 2.865 0 0 0 2.657 3.028.587.587 0 0 1 .082.014l.06.012h.161l.167-.024.27-.038a.561.561 0 0 0 .48-.4.552.552 0 0 0-.156-.587l-.053-.053c-.364-.366-.729-.732-1.1-1.093-.057-.055-.065-.084-.04-.148.037-.1.071-.2.105-.3s.069-.21.109-.313a.175.175 0 0 1 .086-.088c.108-.041.217-.077.327-.112l.307-.1c.055-.022.078-.014.124.033.161.163.323.324.485.485.206.2.413.41.616.618a.605.605 0 0 0 .664.205.593.593 0 0 0 .394-.556.577.577 0 0 1 .019-.092l.013-.067v-.578c-.021-.052-.035-.114-.047-.173zm-12.316 1.506q1.268-1.268 2.536-2.533l.423-.422a.231.231 0 0 1 .157-.082.139.139 0 0 1 .075.022.545.545 0 0 1 .128.133l.034.044-.027.054a.536.536 0 0 1-.078.123q-1.475 1.479-2.958 2.955a.243.243 0 0 1-.17.077.193.193 0 0 1-.141-.062.207.207 0 0 1 .021-.309zm-.467-.4a.793.793 0 0 0-.234.64.843.843 0 0 0 .369.614l.037.024c-.126.14-.213.223-.3.225-.079 0-.183-.071-.336-.229-.445-.46-.908-.918-1.354-1.361q-.289-.285-.576-.572c-.2-.2-.2-.267 0-.468a.6.6 0 0 0 .071-.094.8.8 0 0 0 .956.382 1.085 1.085 0 0 0 .4-.258c.354-.349.7-.7 1.056-1.054.583-.584 1.185-1.188 1.789-1.768a.974.974 0 0 0 .327-.806.845.845 0 0 0-.37-.59l.289-.268 2.457 2.451-.288.279-.015-.022a.847.847 0 0 0-.615-.374.778.778 0 0 0-.639.229c-.97.956-1.989 1.973-3.029 3.017zm.3-10.642c.067-.215.14-.428.212-.641l.033-.1a.6.6 0 0 0-.158-.662c-.29-.285-.578-.573-.865-.86l-.24-.241-.043-.044a2.23 2.23 0 0 1 1.988.675 2.16 2.16 0 0 1 .615 1.837.447.447 0 0 0 .158.389q1.121 1.114 2.236 2.231l.559.558c.023.022.044.045.066.068l-.371.355-.12-.121c-.108-.108-.219-.221-.332-.331a.574.574 0 0 0-.894 0l-.244.242a.576.576 0 0 0-.134.8l-.034.005c-.133.019-.26.038-.373.049a.3.3 0 0 1-.05-.047l-.34-.34c-.569-.566-1.138-1.132-1.7-1.7a.523.523 0 0 0-.4-.173h-.064a2.248 2.248 0 0 1-2.463-1.88 2 2 0 0 1 0-.723l.04.039.24.239c.289.287.578.574.864.863a.6.6 0 0 0 .675.16c.224-.079.45-.152.675-.225l.048-.016a.613.613 0 0 0 .411-.411zm4.6 6.359c-.013.14-.033.28-.053.42v.012l-2.013-2.009h.021c.147-.021.3-.042.439-.057a.159.159 0 0 1 .06.044q.758.752 1.509 1.508a.137.137 0 0 1 .032.079zm-1.326-2.777l2.454 2.449-.241.231-2.453-2.447zm5.645 6.145c-.081.246-.161.492-.246.737a.594.594 0 0 0 .158.66q.437.43.868.865l.248.248.031.032a2.264 2.264 0 0 1-2.607-2.395.676.676 0 0 0-.221-.578c-.375-.365-.746-.736-1.116-1.106q-.416-.416-.833-.828c-.085-.084-.1-.138-.084-.225a2.107 2.107 0 0 0 .044-.267v-.012a.553.553 0 0 0 .718-.056c.115-.106.231-.223.368-.367a.552.552 0 0 0 0-.813c-.125-.128-.254-.253-.383-.377l-.119-.116.371-.363.062.059.465.464q1.165 1.162 2.327 2.326a.5.5 0 0 0 .435.151 2.269 2.269 0 0 1 2.473 2.605l-.038-.037-.292-.29c-.268-.266-.536-.531-.8-.8a.616.616 0 0 0-.7-.167c-.224.079-.463.161-.707.237a.605.605 0 0 0-.426.41zm-10.232 2.547a.628.628 0 0 1-.661-.125c-.3-.284-.594-.575-.868-.867a.622.622 0 0 1-.12-.653z" class="cls-1"/>
        <path id="Path_1205" d="M856.066 371.959h.02a.516.516 0 0 0 .29-.157c.153-.133.379-.392.378-.562v-.027l-.017-.021a.26.26 0 0 1-.017-.025.316.316 0 0 0-.14-.141.356.356 0 0 0-.316.028 2.582 2.582 0 0 0-.418.418.347.347 0 0 0-.032.318.354.354 0 0 0 .252.169z" class="cls-1"/>
        <path id="Path_1206" d="M864.333 378.776l-.017-.025a.32.32 0 0 0-.14-.143.359.359 0 0 0-.316.028 2.623 2.623 0 0 0-.418.418.3.3 0 0 0 .22.488h.023c.041 0 .125-.018.279-.151s.386-.4.386-.57v-.021z" class="cls-1"/>
        <path id="Path_1207" d="M858.067 377.393a.465.465 0 0 0-.144-.142.3.3 0 0 0-.369.082l-2.949 2.944a.306.306 0 0 0-.026.452.294.294 0 0 0 .211.1.353.353 0 0 0 .249-.116q1.477-1.47 2.949-2.945a.508.508 0 0 0 .091-.142l.043-.08.027-.047-.035-.04c-.014-.023-.031-.045-.047-.066z" class="cls-1"/>
    </g>
</svg>
