<svg xmlns="http://www.w3.org/2000/svg" width="24.311" height="12.565" viewBox="0 0 24.311 12.565">
  <defs>
    <style>
      .cls-1 {
        fill: #1582c8;
      }
    </style>
  </defs>
  <g id="Group_64" data-name="Group 64" transform="translate(-1336.789 -5114.316)">
    <path id="Path_104" data-name="Path 104" class="cls-1" d="M1336.789,5120.576c.507-.49.992-.985,1.5-1.446a20.52,20.52,0,0,1,5.766-3.761,12.411,12.411,0,0,1,5.184-1.049,12.8,12.8,0,0,1,4.989,1.212,21.676,21.676,0,0,1,6.79,4.972c.021.023.042.047.062.071a.206.206,0,0,1,.017.041c-.219.227-.437.464-.666.688a21.4,21.4,0,0,1-6.393,4.447,12.922,12.922,0,0,1-4.452,1.112,12.661,12.661,0,0,1-6.349-1.4,21.88,21.88,0,0,1-6.362-4.779C1336.857,5120.658,1336.838,5120.633,1336.789,5120.576Zm12.216,4.847a4.842,4.842,0,1,0-4.411-4.843A4.635,4.635,0,0,0,1349.005,5125.423Zm-3.308-.2a6.275,6.275,0,0,1-.073-9.285,5.174,5.174,0,1,0,.073,9.285Zm6.594-.039a18.6,18.6,0,0,0,7.354-4.611,19.887,19.887,0,0,0-3.424-2.76,16.342,16.342,0,0,0-3.873-1.825A6.24,6.24,0,0,1,1352.291,5125.184Z"/>
    <path id="Path_105" data-name="Path 105" class="cls-1" d="M1348.415,5117.721a2.51,2.51,0,0,1,2.743,1.209,3.1,3.1,0,0,1-.218,3.523,2.49,2.49,0,0,1-3.214.643,2.936,2.936,0,0,1-1.387-2.926,1.475,1.475,0,0,0,1.179.489,1.448,1.448,0,0,0,1.106-.626,1.775,1.775,0,0,0-.209-2.312Z"/>
  </g>
</svg>
