<svg width="318" height="313" viewBox="0 0 318 313" fill="none" xmlns="http://www.w3.org/2000/svg">
<path d="M5.29978 299.891H15.9C18.8272 299.891 21.1998 302.825 21.1998 306.445C21.1998 310.066 18.8272 313 15.9 313H5.29978C2.37257 313 2.06408e-07 310.066 2.06408e-07 306.445C2.06408e-07 302.825 2.37257 299.891 5.29978 299.891Z" fill="#ffffff"/>
<path d="M275.6 188.457H201.4C195.548 188.45 190.806 182.584 190.799 175.346V77.0225C190.805 69.785 195.548 63.9201 201.4 63.9124H275.6C281.452 63.9193 286.194 69.785 286.2 77.0225V175.346C286.194 182.584 281.452 188.45 275.6 188.457ZM227.9 175.347H249.1V162.237C249.096 158.619 246.725 155.687 243.8 155.682H233.2C230.274 155.687 227.904 158.619 227.9 162.237V175.347V175.347ZM275.6 77.0233H201.4L201.392 175.347H217.3V162.237C217.309 151.382 224.422 142.584 233.2 142.572H243.8C252.577 142.584 259.691 151.382 259.7 162.237V175.347H275.6V77.0233Z" fill="#ffffff"/>
<path d="M206.7 201.567H270.3C276.152 201.574 280.894 207.439 280.9 214.677V273.671C280.895 280.909 276.152 286.774 270.3 286.781H206.7C200.848 286.774 196.106 280.909 196.1 273.671V214.677C196.106 207.439 200.848 201.574 206.7 201.567ZM270.3 273.671V214.677H206.7L206.693 273.671H270.3Z" fill="#3a4354"/>
<path d="M222.6 227.786H254.4C257.327 227.786 259.7 230.721 259.7 234.341C259.7 237.961 257.327 240.895 254.4 240.895H222.6C219.673 240.895 217.3 237.96 217.3 234.341C217.3 230.721 219.673 227.786 222.6 227.786Z" fill="#ffffff"/>
<path d="M222.6 247.451H254.4C257.327 247.451 259.7 250.385 259.7 254.006C259.7 257.626 257.327 260.56 254.4 260.56H222.6C219.673 260.56 217.3 257.626 217.3 254.006C217.3 250.385 219.673 247.451 222.6 247.451Z" fill="#ffffff"/>
<path d="M0 26.1583C-0.00372656 17.6194 3.36446 9.61601 9.02138 4.72132C14.6783 -0.173369 21.9122 -1.3425 28.3964 1.59032C28.4641 1.62258 28.538 1.63103 28.6038 1.66636C31.4491 2.95303 34.0347 4.98634 36.1837 7.62649L62.0454 39.6117L62.0485 39.6156L93.8454 78.9413L93.8485 78.9452L125.645 118.271L125.649 118.275L169.257 172.209C169.37 172.287 169.487 172.358 169.6 172.439V49.5955C163.265 46.8355 159.02 39.4443 159 31.1382V11.4734C159 7.85309 161.373 4.91874 164.3 4.91874H312.7C315.627 4.91874 318 7.85386 318 11.4734V31.1382C317.98 39.4443 313.734 46.8355 307.4 49.5947V299.891H312.7C315.627 299.891 318 302.825 318 306.445C318 310.066 315.627 313 312.7 313H37.1004C34.1732 313 31.8006 310.066 31.8006 306.445C31.8006 302.825 34.1738 299.891 37.1004 299.891H137.8V207.427L118.154 183.129L118.151 183.126L86.3544 143.8L86.3513 143.796L54.5544 104.47L54.5513 104.466L22.7544 65.1406L22.7513 65.1368L6.21653 44.6869C2.25209 39.7638 0.0186328 33.1055 0 26.1583ZM180.2 299.891H296.8V50.803H180.2V299.891H180.2ZM174.9 37.6936H302.1C305.025 37.689 307.396 34.757 307.4 31.139V18.0289H169.6V31.139C169.604 34.757 171.975 37.689 174.9 37.6936ZM148.4 299.891H169.6V195.012C169.6 187.771 164.854 181.902 158.999 181.902C153.145 181.902 148.399 187.771 148.399 195.012V299.891H148.4ZM127.2 175.779L138.291 189.497C139.921 180.346 145.377 172.969 152.601 170.146L127.201 138.732V175.779H127.2ZM95.4 136.449L116.6 162.669V125.621L95.4 99.4019V136.449ZM63.6 97.1197L84.7998 123.339V86.2918L63.6 60.0723V97.1197ZM31.8 57.7901L52.9998 84.0096V46.9622L31.8 20.7427V57.7901ZM13.7107 35.4176L21.1998 44.68V13.0643C18.3906 13.0581 15.6957 14.437 13.7107 16.8958C11.7194 19.3485 10.6002 22.6808 10.6002 26.1567C10.6002 29.6326 11.7194 32.9649 13.7107 35.4176Z" fill="#ffffff"/>
<path d="M154.124 199.073C154.241 198.656 154.403 198.261 154.603 197.896C154.813 197.566 155.025 197.24 155.237 196.913C156.761 195.05 159.042 194.507 161.016 195.534C161.664 195.851 162.258 196.319 162.763 196.913C162.975 197.24 163.187 197.566 163.4 197.896C163.6 198.261 163.761 198.657 163.879 199.073C164.031 199.445 164.138 199.843 164.194 200.254C164.256 200.687 164.292 201.126 164.3 201.567C164.292 202.423 164.149 203.269 163.878 204.057C163.621 204.86 163.243 205.594 162.763 206.221C162.248 206.799 161.657 207.264 161.016 207.597C160.378 207.934 159.693 208.112 159 208.122C158.645 208.11 158.291 208.066 157.942 207.991C157.609 207.918 157.288 207.785 156.987 207.597C156.649 207.452 156.327 207.253 156.032 207.004C155.768 206.745 155.504 206.483 155.237 206.22C154.759 205.593 154.381 204.858 154.124 204.056C153.853 203.268 153.709 202.422 153.7 201.566C153.709 201.126 153.745 200.687 153.806 200.254C153.865 199.844 153.972 199.446 154.124 199.073Z" fill="#ffffff"/>
</svg>
