<svg xmlns="http://www.w3.org/2000/svg" width="30.527" height="40.88" viewBox="0 0 30.527 40.88">
    <defs>
        <style>
            .cls-2{fill:#2d9483}
        </style>
    </defs>
    <g id="Group_135" transform="translate(-150.473 -570.074)">
        <path id="Path_223" fill="#2d9483" d="M168.374 610.954c-.529-.106-1.061-.2-1.585-.322a11.679 11.679 0 0 1-4.891-2.512 18.032 18.032 0 0 1-3.685-4.611c-1.5-2.5-3.1-4.938-4.653-7.411-.808-1.291-1.632-2.576-2.367-3.908a5.4 5.4 0 0 1-.72-2.693 2.5 2.5 0 0 1 2.249-2.263 5.691 5.691 0 0 1 3.513 1.259c.79.525 1.521 1.139 2.318 1.742v-.43-11.335a3.162 3.162 0 0 1 2.1-2.935 3.3 3.3 0 0 1 3.623.8 3.016 3.016 0 0 1 .9 2.189c.008 2.049 0 4.1 0 6.147v.474a3.4 3.4 0 0 1 2.86-.464 3.137 3.137 0 0 1 2.133 1.947 3.514 3.514 0 0 1 3.568-.486 3.226 3.226 0 0 1 2.009 2.936c.172-.088.335-.178.5-.256a3.357 3.357 0 0 1 3.919.773 2.929 2.929 0 0 1 .817 1.983c0 2.874.028 5.748-.009 8.621a10.581 10.581 0 0 1-2.214 6.316 10.892 10.892 0 0 1-4.231 3.43 9.7 9.7 0 0 1-3.326.939c-.042 0-.081.049-.121.074zm-8.464-17.438l-.114.063a13.582 13.582 0 0 0-1.005-1.095c-1.063-.939-2.133-1.871-3.239-2.758a5.461 5.461 0 0 0-2.333-1.121c-.545-.111-1.478.407-1.361 1.12a4.6 4.6 0 0 0 .457 1.594c1.387 2.325 2.833 4.615 4.259 6.918.925 1.494 1.83 3 2.782 4.48a18.97 18.97 0 0 0 3.41 4.282 10.346 10.346 0 0 0 4.8 2.378 9.679 9.679 0 0 0 3.988.04 10.2 10.2 0 0 0 8.079-10.129c-.022-2.394 0-4.789-.008-7.184a2.726 2.726 0 0 0-.081-.7 1.9 1.9 0 0 0-3.748.13c-.046.32-.083.641-.122.952h-1.316v-.531c-.025-1.045 0-2.095-.1-3.134a1.887 1.887 0 0 0-3.091-1.067 2.145 2.145 0 0 0-.722 1.713c-.01.58 0 1.16 0 1.732h-1.357c0-.537.01-1.042 0-1.547a18.959 18.959 0 0 0-.091-2.135 1.885 1.885 0 0 0-2.377-1.486 2.039 2.039 0 0 0-1.437 2.012c-.019 1.343-.005 2.687-.005 4.031v.412h-1.357V592v-12.652a6.242 6.242 0 0 0-.082-1.059 1.957 1.957 0 0 0-2.017-1.572 2.077 2.077 0 0 0-1.811 2.084q.006 7.145 0 14.289z"/>
        <path id="Path_224" d="M163.024 570.074c.669.185 1.354.328 2 .565a7.82 7.82 0 0 1 2.588 1.587 8.482 8.482 0 0 1 2.84 6.048 8.324 8.324 0 0 1-.8 4.08 12.764 12.764 0 0 1-.7 1.211c-.05.076-.25.1-.37.074-.4-.071-.8-.172-1.237-.27a7.02 7.02 0 0 0 1.637-3.506 6.651 6.651 0 0 0-.4-3.615 7.144 7.144 0 0 0-3.009-3.616 6.976 6.976 0 0 0-4.434-1.031 6.905 6.905 0 0 0-3.582 1.427 7.23 7.23 0 0 0-2.825 4.649A6.74 6.74 0 0 0 156 582.87a16.528 16.528 0 0 0 1.158 1.275.52.52 0 0 1 .116.309c.012.478 0 .957 0 1.478a6.9 6.9 0 0 1-1.843-1.544 8.6 8.6 0 0 1-2.079-6.922 8.066 8.066 0 0 1 1.809-4.256 8.268 8.268 0 0 1 4.924-2.979c.21-.041.415-.1.623-.157z" class="cls-2"/>
        <path id="Path_225" d="M157.276 582.344a5.606 5.606 0 0 1-1.07-5.637 5.746 5.746 0 0 1 5.038-3.992 5.847 5.847 0 0 1 6.158 3.665 5.7 5.7 0 0 1-.944 5.963c0-1.212.017-2.39 0-3.568a4.644 4.644 0 0 0-3.654-4.6 4.565 4.565 0 0 0-5.356 3.405 6.8 6.8 0 0 0-.161 1.439c-.027 1.095-.011 2.194-.011 3.325z" class="cls-2"/>
    </g>
</svg>
