<svg xmlns="http://www.w3.org/2000/svg" width="33.765" height="33.104" viewBox="0 0 33.765 33.104">
    <defs>
        <style>
            .cls-1{fill:#2d9483}
        </style>
    </defs>
    <g id="Group_88" transform="translate(-655.174 -693.896)">
        <path id="Path_270" d="M687.6 726.017c.208-.2.373-.366.373-.366l.375-.365c.208-.2-.144-1.138-.789-2.087l-1.65-2.439a4.976 4.976 0 0 0-2.276-1.949l-1.106-.224-4.976-4.841-1.81 1.761 4.97 4.844.234 1.077a4.922 4.922 0 0 0 2 2.214l2.509 1.607c.975.627 1.937.969 2.143.768zm0 0" class="cls-1"/>
        <path id="Path_271" d="M656.322 700.273l8.316 8.095c.02.02.042.033.062.054l1.22-1.191-8.72-8.487a.516.516 0 0 1 0-.741.547.547 0 0 1 .765 0l8.717 8.487 1.361-1.325-8.72-8.487a.513.513 0 0 1 0-.745.545.545 0 0 1 .759 0l8.726 8.493 1.22-1.191a.75.75 0 0 1-.052-.063l-.968-.943-7.348-7.149a3.849 3.849 0 0 0-5.338 0 3.6 3.6 0 0 0 0 5.193zm0 0" class="cls-1"/>
        <path id="Path_272" d="M660.289 727a5.169 5.169 0 0 1-3.612-1.451 4.918 4.918 0 0 1 0-7.081l15.788-15.37a7.96 7.96 0 0 1 2.347-6.843 8.36 8.36 0 0 1 6.83-2.3 1.716 1.716 0 0 1 1.529 1.1 1.913 1.913 0 0 1-.617 1.974l-2.984 2.9a1.018 1.018 0 0 0-.311.734 1.03 1.03 0 0 0 .315.739l1.871 1.817a1.124 1.124 0 0 0 1.547 0l2.89-2.814a1.921 1.921 0 0 1 2.007-.564 1.662 1.662 0 0 1 1.023 1.522 7.941 7.941 0 0 1-2.4 6.32 8.443 8.443 0 0 1-6.639 2.317l-15.97 15.548a5.175 5.175 0 0 1-3.614 1.452zm20.361-31.827a7.063 7.063 0 0 0-4.944 2 6.678 6.678 0 0 0-1.926 6.038l.062.335-16.271 15.84a3.643 3.643 0 0 0 0 5.251 3.936 3.936 0 0 0 5.444 0s11.521-11.214 16.187-15.759l.222-.217.308.041a7.17 7.17 0 0 0 5.9-1.928 6.666 6.666 0 0 0 2.017-5.3c-.018-.227-.092-.387-.2-.427-.13-.049-.393.02-.666.285l-2.888 2.811a2.392 2.392 0 0 1-3.332 0l-1.87-1.816a2.3 2.3 0 0 1 0-3.3l2.986-2.9c.269-.26.343-.512.3-.647s-.215-.211-.466-.24a7.342 7.342 0 0 0-.863-.067zm-19.708 28.539a2.448 2.448 0 0 1-1.711-.687 2.337 2.337 0 0 1 0-3.366 2.472 2.472 0 0 1 3.415 0 2.34 2.34 0 0 1 .005 3.365 2.452 2.452 0 0 1-1.709.688zm0-3.7a1.4 1.4 0 0 0-.981.394 1.294 1.294 0 0 0 0 1.871 1.424 1.424 0 0 0 1.969 0 1.3 1.3 0 0 0 0-1.872 1.411 1.411 0 0 0-.989-.392z" class="cls-1"/>
    </g>
</svg>
