<svg xmlns="http://www.w3.org/2000/svg" width="51.504" height="41.97" viewBox="0 0 51.504 41.97">
    <path fill="#3a4354" d="M1608.469 376.1h27.656v1.825h-27.656a4.586 4.586 0 0 1-4.6-4.562v-21.9a4.585 4.585 0 0 1 4.6-4.562h9.454l1.63-4.851a.919.919 0 0 1 .873-.624h12.874a.919.919 0 0 1 .872.624l1.63 4.851h9.454a4.585 4.585 0 0 1 4.6 4.562v12.773h-1.84v-12.772a2.751 2.751 0 0 0-2.759-2.738h-10.117a.918.918 0 0 1-.872-.623l-1.63-4.851h-11.551l-1.629 4.851a.92.92 0 0 1-.873.623h-10.117a2.752 2.752 0 0 0-2.759 2.738v21.9a2.752 2.752 0 0 0 2.76 2.736zm29.431-13.686a11.037 11.037 0 1 1-11.036-10.948 11 11 0 0 1 11.036 10.946zm-1.839 0a9.2 9.2 0 1 0-9.2 9.124 9.172 9.172 0 0 0 9.2-9.126zm-3.679 0a5.519 5.519 0 1 1-5.518-5.474 5.5 5.5 0 0 1 5.518 5.472zm-1.84 0a3.679 3.679 0 1 0-3.678 3.65 3.667 3.667 0 0 0 3.678-3.652zm24.833 11.861a9.2 9.2 0 1 1-9.2-9.124 9.171 9.171 0 0 1 9.2 9.122zm-1.839 0a7.358 7.358 0 1 0-7.358 7.3 7.337 7.337 0 0 0 7.358-7.302zm-7.91-5.292l-3.679 2.738 1.1 1.459 2.207-1.642v8.211h1.839v-8.211l2.208 1.642 1.1-1.459-3.679-2.738a.924.924 0 0 0-1.096-.002z" transform="translate(-1603.871 -341.427)"/>
</svg>
