<svg xmlns="http://www.w3.org/2000/svg" width="21" height="14.432" viewBox="0 0 21 14.432">
    <defs>
        <style>
            .cls-1{fill:#1582c8}
        </style>
    </defs>
    <g id="Group_272" transform="translate(-1611.93 -4468.002)">
        <g id="Group_270">
            <path id="Path_328" d="M1622.433 4477.265l-7.539-7.537a.864.864 0 0 1 1.222-1.222l6.317 6.315 6.313-6.315a.864.864 0 0 1 1.222 1.222z" class="cls-1"/>
            <path id="Path_329" d="M1622.433 4477.618l-7.716-7.713a1.115 1.115 0 0 1 .788-1.9 1.106 1.106 0 0 1 .787.328l6.14 6.138 6.136-6.138a1.139 1.139 0 0 1 1.576 0 1.114 1.114 0 0 1 0 1.573zm-6.928-9.116a.612.612 0 0 0-.435.181.6.6 0 0 0-.181.43.612.612 0 0 0 .181.439l7.363 7.359 7.358-7.359a.616.616 0 0 0 0-.868.623.623 0 0 0-.868 0l-6.491 6.493-6.494-6.492a.607.607 0 0 0-.433-.181z" class="cls-1"/>
        </g>
        <g id="Group_271">
            <path id="Line_74" d="M0 0L19 0" class="cls-1" transform="translate(1612.93 4481.435)"/>
            <path id="Path_330" d="M1631.93 4482.434h-19a1 1 0 1 1 0-2h19a1 1 0 0 1 0 2z" class="cls-1"/>
        </g>
    </g>
</svg>
