<svg xmlns="http://www.w3.org/2000/svg" width="15.116" height="13.228" viewBox="0 0 15.116 13.228">
    <defs>
        <style>
            .cls-1{fill:#2d9483}
        </style>
    </defs>
    <g id="Group_11" transform="translate(-1823.946 -220.828)">
        <g id="Group_10">
            <path id="Path_9" d="M1838.224 230.187a.841.841 0 0 0-.839.839v1.354h-11.763v-1.354a.838.838 0 1 0-1.676 0v2.192a.84.84 0 0 0 .838.838h13.44a.84.84 0 0 0 .838-.838v-2.192a.841.841 0 0 0-.838-.839z" class="cls-1"/>
            <path id="Path_10" d="M1832.376 223.813v2.36c0 .963.007 1.926 0 2.888a.869.869 0 0 1-1.2.893.846.846 0 0 1-.538-.845c-.005-.625-.005-1.251-.005-1.877v-3.423c-.141.133-.222.207-.3.285-.443.442-.879.891-1.328 1.326a.87.87 0 1 1-1.227-1.226q1.515-1.528 3.043-3.043a.874.874 0 0 1 1.367.013l3 3a.875.875 0 0 1 .211 1.1.82.82 0 0 1-.957.409 1.355 1.355 0 0 1-.5-.314c-.453-.431-.888-.882-1.33-1.324-.051-.057-.112-.111-.236-.222z" class="cls-1"/>
        </g>
    </g>
</svg>
