<svg xmlns="http://www.w3.org/2000/svg" width="67.375" height="72" viewBox="0 0 67.375 72">
    <defs>
        <style>
            .cls-1{fill:#3a4354}
        </style>
    </defs>
    <g id="Group_113" transform="translate(-3015.808 -3590.964)">
        <path id="Path_88" d="M3048.372 3618.114c-1.947 0-3.331.822-3.331 2.034v16.486c0 1.038 1.384 2.077 3.331 2.077 1.861 0 3.375-1.039 3.375-2.077v-16.486c0-1.212-1.514-2.034-3.375-2.034z" class="cls-1"/>
        <path id="Path_89" d="M3048.372 3607.946a3.118 3.118 0 1 0 3.5 3.072 3.352 3.352 0 0 0-3.5-3.072z" class="cls-1"/>
        <path id="Path_90" fill="#22b173" d="M3031.558 3596.158a33.667 33.667 0 0 0 26.415 61.077l12.5 5.472a3.062 3.062 0 0 0 4.288-2.7l.466-13.637a33.667 33.667 0 0 0-43.668-50.212zm38.375 46.962a3.061 3.061 0 0 0-.791 1.951l-.349 10.216-9.363-4.1a3.062 3.062 0 0 0-2.1-.129 27.56 27.56 0 1 1 12.605-7.938z"/>
    </g>
</svg>
