<svg id="Layer_1" data-name="Layer 1" xmlns="http://www.w3.org/2000/svg" viewBox="0 0 249.07 349.13"><defs><style>.cls-1{fill:#2d9483;}</style></defs><path class="cls-1" d="M486.85,467.55l-37.49-66.81a6.94,6.94,0,0,0-9.47-2.66l-4.54,2.54-4.4-7.84a69.67,69.67,0,1,0-12.14,6.8l4.41,7.85L418.69,410a7,7,0,0,0-2.67,9.48l37.49,66.81a6.94,6.94,0,0,0,4.19,3.29,7.1,7.1,0,0,0,1.88.26,7,7,0,0,0,3.41-.89l21.2-11.9A7,7,0,0,0,486.85,467.55Zm-68.59-83.21,0,0a55.43,55.43,0,1,1,21.23-75.46A55.39,55.39,0,0,1,418.22,384.36Zm44,89-30.68-54.66,4.5-2.53,0,0h0l4.51-2.53,30.68,54.67Z" transform="translate(-238.67 -140.68)"/><path class="cls-1" d="M319.49,382.65H252V154H383.06v40a6.66,6.66,0,0,0,6.67,6.67h40v64.07a6.67,6.67,0,0,0,13.34,0V194.05c0-.21,0-.43,0-.65a.77.77,0,0,1,0-.15,4.33,4.33,0,0,0-.08-.5l0-.13c0-.17-.08-.34-.13-.5l0-.1a5.44,5.44,0,0,0-.19-.52s0,0,0-.07-.15-.35-.24-.52a.22.22,0,0,1-.05-.08,4.57,4.57,0,0,0-.29-.47c0-.07-.1-.14-.15-.21a3.71,3.71,0,0,0-.23-.32c-.14-.17-.29-.34-.45-.5h0l-46.69-46.69s-.05,0-.07-.06a3.79,3.79,0,0,0-.42-.38l-.25-.2-.27-.19-.31-.19-.25-.15-.32-.15-.27-.13-.31-.11-.31-.11-.32-.08-.31-.08-.38-.06-.27,0a4.87,4.87,0,0,0-.66,0H245.34a6.67,6.67,0,0,0-6.67,6.67v242a6.67,6.67,0,0,0,6.67,6.67h74.15a6.67,6.67,0,1,0,0-13.34ZM396.4,163.46l23.92,23.92H396.4Z" transform="translate(-238.67 -140.68)"/><path class="cls-1" d="M277,187.11H362a6.68,6.68,0,0,0,0-13.35H277a6.68,6.68,0,0,0,0,13.35Z" transform="translate(-238.67 -140.68)"/><path class="cls-1" d="M411.42,224.39a6.67,6.67,0,0,0-6.67-6.67H277a6.67,6.67,0,1,0,0,13.34H404.75A6.67,6.67,0,0,0,411.42,224.39Z" transform="translate(-238.67 -140.68)"/><path class="cls-1" d="M347.56,268.34a6.67,6.67,0,0,0-6.67-6.67H277A6.67,6.67,0,1,0,277,275h63.87A6.67,6.67,0,0,0,347.56,268.34Z" transform="translate(-238.67 -140.68)"/><path class="cls-1" d="M304.45,305.62H277A6.67,6.67,0,1,0,277,319h27.43a6.67,6.67,0,0,0,0-13.34Z" transform="translate(-238.67 -140.68)"/><path class="cls-1" d="M304.45,349.57H277a6.67,6.67,0,1,0,0,13.34h27.43a6.67,6.67,0,0,0,0-13.34Z" transform="translate(-238.67 -140.68)"/><path class="cls-1" d="M426,306.74a6.67,6.67,0,0,0-9.25,1.85L388.1,351.53l-22-19.56a6.67,6.67,0,1,0-8.86,10L385,366.6a6.69,6.69,0,0,0,4.43,1.69,6,6,0,0,0,.85-.06,6.66,6.66,0,0,0,4.7-2.92L427.84,316A6.68,6.68,0,0,0,426,306.74Z" transform="translate(-238.67 -140.68)"/></svg>