<svg xmlns="http://www.w3.org/2000/svg" width="17.431" height="16.509" viewBox="0 0 17.431 16.509">
    <defs>
        <style>
            .cls-1{fill:#3a4354;fill-rule:evenodd}
        </style>
    </defs>
    <g id="Group_347" transform="translate(-3179.289 -3513.556)">
        <path id="Path_505" d="M3188.831 3516.124a.552.552 0 0 0-.783 0l-.7.7a2.822 2.822 0 1 0 .688.879l.791-.791a.554.554 0 0 0 .004-.788zm-2.1 4.052a1.715 1.715 0 1 1-.164-2.57l-.981.981-.3-.3a.554.554 0 0 0-.784.784l.7.7a.554.554 0 0 0 .783 0l1.207-1.207a1.716 1.716 0 0 1-.463 1.612z" class="cls-1"/>
        <circle id="Ellipse_18" cx=".554" cy=".554" r=".554" fill="#3a4354" transform="translate(3181.505 3526.186)"/>
        <path id="Path_506" d="M3184.274 3527.294a.554.554 0 0 1 0-1.108h5.355a.554.554 0 1 1 0 1.108z" class="cls-1"/>
        <path id="Path_507" d="M3194 3513.556h-12.057a2.663 2.663 0 0 0-2.659 2.659v13.3a.554.554 0 0 0 .554.554h12a.554.554 0 0 0 .554-.554v-10.523h3.767a.554.554 0 0 0 .554-.554v-2.164a2.721 2.721 0 0 0-2.713-2.718zm-2.714 2.714v12.687H3180.4v-12.742a1.554 1.554 0 0 1 1.551-1.551h9.872a2.7 2.7 0 0 0-.532 1.606zm4.321 1.61h-3.207v-1.61a1.607 1.607 0 0 1 3.213 0z" class="cls-1"/>
        <path id="Path_508" d="M3182.059 3523.97a.554.554 0 1 0 .554.554.554.554 0 0 0-.554-.554z" class="cls-1"/>
        <path id="Path_509" d="M3184.274 3525.078h5.355a.554.554 0 1 0 0-1.108h-5.355a.554.554 0 0 0 0 1.108z" class="cls-1"/>
    </g>
</svg>
