<svg xmlns="http://www.w3.org/2000/svg" width="23.513" height="12.106" viewBox="0 0 23.513 12.106">
    <defs>
        <style>
            .cls-1{fill:#3a4354}
        </style>
    </defs>
    <g id="Group_1516" transform="translate(-683.288 -445.577)" style="opacity:.2">
        <path id="Path_1455" d="M706.189 445.577h-14.984a.643.643 0 0 0-.612.669v.828h-4.257a.671.671 0 0 0 0 1.337h4.257v6.437h-2.484a.672.672 0 0 0 0 1.338h2.484v.828a.643.643 0 0 0 .612.669h14.984a.643.643 0 0 0 .612-.669v-10.768a.643.643 0 0 0-.612-.669zm-7.491 6.832l-5.939-5.495h11.905zm-6.88 3.936V447.8l6.483 6a.588.588 0 0 0 .791 0l6.484-5.972v8.521z" class="cls-1"/>
        <path id="Path_1456" d="M689.476 451.577a.643.643 0 0 0-.612-.668H683.9a.671.671 0 0 0 0 1.337h4.963a.643.643 0 0 0 .613-.669z" class="cls-1"/>
        <path id="Path_1457" d="M686.583 454.848h-.247a.672.672 0 0 0 0 1.338h.247a.672.672 0 0 0 0-1.338z" class="cls-1"/>
    </g>
</svg>
