<?xml version="1.0" encoding="iso-8859-1"?>
<!-- Generator: Adobe Illustrator 19.0.0, SVG Export Plug-In . SVG Version: 6.00 Build 0)  -->
<svg version="1.1" id="Capa_1" xmlns="http://www.w3.org/2000/svg" xmlns:xlink="http://www.w3.org/1999/xlink" x="0px" y="0px"
	 viewBox="0 0 490.009 490.009" style="enable-background:new 0 0 490.009 490.009;" xml:space="preserve">
	 <defs>
        <style>
            .cls-1{fill:#2d9483}
        </style>
    </defs>
<g>
	<path d="M487.019,312.917l-44.644-96.75c-1.409-3.049-4.235-5.204-7.552-5.748l-188.158-30.924c-0.112-0.019-2.104-0.303-3.282,0
		L55.229,210.419c-3.317,0.544-6.144,2.699-7.552,5.748l-44.649,96.75c-4.059,10.122,5.41,14.758,9.194,14.363h34.527v121.675
		c0,4.956,3.588,9.182,8.481,9.988l188.153,30.924c1.526,0.456,5.313-0.334,5.313-0.334l186.127-30.59
		c4.893-0.806,8.481-5.032,8.481-9.988V327.28h34.523C481.995,327.707,490.89,322.364,487.019,312.917z M28.041,307.036
		l35.768-77.511l166.032-27.29l-36.643,104.801H28.041z M234.902,467.957l-167.91-27.598V327.28H200.38
		c4.305,0,8.135-2.719,9.554-6.782l24.969-71.407V467.957z M423.06,440.359l-167.914,27.598V249.088l24.973,71.41
		c1.419,4.063,5.254,6.782,9.554,6.782H423.06V440.359z M296.854,307.036l-36.647-104.8l166.036,27.29l35.763,77.511H296.854z" class="cls-1" />
	<path d="M211.347,161.86h67.359V79.65h46.438L245.024,0l-80.115,79.65h46.438V161.86z M245.024,28.547l31.042,30.859h-17.604v82.21
		H231.59v-82.21h-17.605L245.024,28.547z" class="cls-1" />
</g>
<g>
</g>
<g>
</g>
<g>
</g>
<g>
</g>
<g>
</g>
<g>
</g>
<g>
</g>
<g>
</g>
<g>
</g>
<g>
</g>
<g>
</g>
<g>
</g>
<g>
</g>
<g>
</g>
<g>
</g>
</svg>
