<svg xmlns="http://www.w3.org/2000/svg" width="24.108" height="22" viewBox="0 0 24.108 22">
    <g opacity="0.5">
        <g>
            <path fill="#2d9483" d="M820.214 223.4c0-.81.005-1.62 0-2.429a.485.485 0 0 1 .252-.46c1.806-1.143 3.606-2.293 5.412-3.435a.368.368 0 0 0 .2-.36c-.007-1.507 0-3.014-.008-4.521a.525.525 0 0 1 .267-.5q2.841-1.8 5.675-3.606a.429.429 0 0 1 .518 0q2.835 1.809 5.675 3.607a.525.525 0 0 1 .267.5c-.006 1.514 0 3.029-.006 4.544a.334.334 0 0 0 .176.325c1.8 1.138 3.593 2.285 5.393 3.421a.557.557 0 0 1 .29.532q-.012 2.383 0 4.769a.556.556 0 0 1-.287.532q-2.833 1.788-5.655 3.6a.447.447 0 0 1-.539-.009c-1.794-1.146-3.593-2.284-5.386-3.432a.3.3 0 0 0-.377 0c-1.793 1.147-3.592 2.285-5.387 3.431a.446.446 0 0 1-.538.006q-2.852-1.822-5.71-3.635a.451.451 0 0 1-.228-.427c-.001-.82-.004-1.638-.004-2.453zm23.1-2.536c-.122-.08-.208-.138-.3-.194q-2.352-1.5-4.7-3a.315.315 0 0 0-.4 0q-2.346 1.5-4.7 3c-.091.057-.177.12-.277.188.055.043.077.063.1.079q2.466 1.57 4.93 3.142a.254.254 0 0 0 .321-.016q1.6-1.026 3.2-2.043zm-22.083-.008c.061.048.088.073.119.092q2.438 1.551 4.874 3.106a.313.313 0 0 0 .4-.006q2.13-1.367 4.267-2.72c.231-.148.461-.3.719-.463-.107-.072-.185-.127-.265-.178q-2.379-1.514-4.758-3.031a.27.27 0 0 0-.341.007c-1 .644-2.01 1.281-3.015 1.921-.664.416-1.321.834-2.005 1.27zm16.223-8.79c-.065-.05-.1-.079-.134-.1q-2.448-1.559-4.9-3.117a.258.258 0 0 0-.322.006q-2.436 1.557-4.875 3.106a1.141 1.141 0 0 0-.125.1c.061.046.107.083.156.115q2.438 1.554 4.873 3.109a.241.241 0 0 0 .3-.022q1.592-1.017 3.187-2.03zm.308.658c-.085.045-.151.075-.211.113q-2.391 1.52-4.783 3.037a.3.3 0 0 0-.153.294v3.8c0 .07.006.139.011.246.108-.062.18-.1.248-.143q2.367-1.509 4.737-3.017a.314.314 0 0 0 .166-.308v-3.8c-.008-.067-.015-.131-.02-.224zm.722 16.273a1.351 1.351 0 0 0 .136-.062l4.835-3.075a.322.322 0 0 0 .166-.311c-.005-1.266 0-2.532 0-3.8 0-.064-.011-.129-.02-.216-.073.038-.126.06-.174.091q-2.409 1.53-4.813 3.068a.374.374 0 0 0-.136.27c-.009 1.281-.006 2.562-.006 3.843-.009.056.001.113.007.19zm-11.7-16.285a1.136 1.136 0 0 0-.019.117v3.979a.327.327 0 0 0 .137.226q2.288 1.47 4.583 2.927c.127.081.261.151.411.236.007-.075.013-.112.013-.149 0-1.3.005-2.607-.006-3.911a.4.4 0 0 0-.173-.272c-1.234-.8-2.474-1.584-3.713-2.373-.4-.258-.804-.511-1.234-.782zm5.829 8.791v.323c0 1.2.007 2.4-.006 3.6a.511.511 0 0 0 .272.5c1.568.985 3.128 1.983 4.691 2.976.053.034.112.059.2.1v-.256-3.757a.353.353 0 0 0-.19-.341c-1.344-.848-2.684-1.7-4.025-2.557-.293-.182-.591-.368-.943-.591zm-.717.031c-.071.036-.118.056-.16.082q-2.418 1.538-4.838 3.072a.3.3 0 0 0-.136.3v3.777c0 .071.009.142.014.235a1.211 1.211 0 0 0 .14-.066l4.835-3.075a.32.32 0 0 0 .164-.311c-.005-1.259 0-2.518 0-3.777-.003-.071-.015-.145-.015-.239zm-5.841 7.484c.008-.082.013-.111.013-.141 0-1.311 0-2.623-.007-3.934a.4.4 0 0 0-.172-.273q-1.976-1.272-3.961-2.527c-.319-.2-.641-.4-.987-.621-.011.092-.024.149-.024.205v3.845a.32.32 0 0 0 .185.3q2.136 1.353 4.267 2.714c.214.137.431.273.685.43z" transform="translate(-820.211 -208)"/>
        </g>
    </g>
</svg>
