<svg xmlns="http://www.w3.org/2000/svg" width="17.825" height="17.825" viewBox="0 0 17.825 17.825">
    <defs>
        <style>
            .cls-1{fill:#fff}
        </style>
    </defs>
    <g id="Group_921" transform="translate(-2459.875 -267.345)">
        <g id="Group_918">
            <path id="Path_1888" d="M2468.788 267.345a8.913 8.913 0 1 0 8.912 8.913 8.924 8.924 0 0 0-8.912-8.913zm0 16.033a7.12 7.12 0 1 1 7.12-7.12 7.129 7.129 0 0 1-7.12 7.12z" class="cls-1"/>
        </g>
        <g id="Group_920">
            <g id="Group_919">
                <path id="Path_1889" d="M2472.486 275.651h-3.092v-3.092a.607.607 0 0 0-1.214 0v3.092h-3.092a.607.607 0 1 0 0 1.214h3.092v3.091a.607.607 0 0 0 1.213 0v-3.091h3.092a.607.607 0 0 0 0-1.214z" class="cls-1"/>
                <path id="Path_1890" d="M2468.787 280.775a.82.82 0 0 1-.818-.818v-2.881h-2.88a.818.818 0 1 1 0-1.636h2.88v-2.881a.818.818 0 1 1 1.636 0v2.881h2.882a.818.818 0 0 1 0 1.637h-2.887v2.881a.818.818 0 0 1-.818.818zm-3.7-4.912a.4.4 0 1 0 0 .79h3.3v3.3a.4.4 0 0 0 .676.278.391.391 0 0 0 .115-.278v-3.3h3.3a.4.4 0 0 0 .4-.4.4.4 0 0 0-.4-.4h-3.3v-3.3a.4.4 0 0 0-.791 0v3.3z" class="cls-1"/>
            </g>
        </g>
    </g>
</svg>
