<svg xmlns="http://www.w3.org/2000/svg" width="46.781" height="38.197" viewBox="0 0 46.781 38.197">
    <defs>
        <style>
            .cls-1{fill:#2d9483}
        </style>
    </defs>
    <g id="Group_100" transform="translate(-446.737 -809.419)">
        <path id="Path_314" d="M464.442 833a4.7 4.7 0 0 0 1.94 1.845 5.076 5.076 0 0 0 2.4.558h15.514c.146 0 .293-.005.439 0a1.152 1.152 0 0 1 .166 2.279 2.613 2.613 0 0 1-.509.036h-15.551a7.243 7.243 0 0 1-7.145-5.215c-1.979-6-3.987-11.985-5.983-17.976-.116-.347-.224-.7-.354-1.039a2.616 2.616 0 0 0-2.447-1.721c-1.647-.016-3.293 0-4.94-.01a1.162 1.162 0 0 1-1.126-1.638 1.084 1.084 0 0 1 1.04-.684c1.744-.009 3.489-.047 5.231.013a4.931 4.931 0 0 1 4.5 3.454l5.8 17.421a.449.449 0 0 0 .517.365q8.928-.012 17.856-.006a3.15 3.15 0 0 0 3.063-1.916c2.061-4.3 4.111-8.6 6.188-12.894a.82.82 0 0 0-.82-1.272q-14.416.03-28.832.012a3.953 3.953 0 0 1-.475-.012 1.157 1.157 0 0 1-1.038-1.137 1.17 1.17 0 0 1 1.047-1.169 2.4 2.4 0 0 1 .328-.012h29.053a3.066 3.066 0 0 1 3.178 2.606 2.721 2.721 0 0 1-.209 1.647c-2.142 4.49-4.262 8.991-6.459 13.454a5.2 5.2 0 0 1-4.983 3c-5.61.014-11.22.005-16.831.005z" class="cls-1"/>
        <path id="Path_315" d="M483.883 838.641a4.488 4.488 0 1 1-4.482 4.5 4.493 4.493 0 0 1 4.482-4.5zm2.161 4.5a2.159 2.159 0 1 0-4.317-.02 2.159 2.159 0 0 0 4.317.02z" class="cls-1"/>
        <path id="Path_316" d="M465.52 838.641a4.488 4.488 0 1 1-4.5 4.48 4.491 4.491 0 0 1 4.5-4.48zm-2.167 4.465a2.157 2.157 0 1 0 2.178-2.139 2.157 2.157 0 0 0-2.178 2.139z" class="cls-1"/>
    </g>
</svg>
