<svg xmlns="http://www.w3.org/2000/svg" width="6.727" height="12.594" viewBox="0 0 6.727 12.594">
    <defs>
        <linearGradient id="6f04gj3jda" x2="1" y1=".5" y2=".5" gradientUnits="objectBoundingBox">
            <stop offset="0" stop-color="#3a4354"/>
            <stop offset="1" stop-color="#3a4354"/>
        </linearGradient>
    </defs>
    <g>
        <path fill="url(#6f04gj3jda)" d="M1838.688 213.422a6.124 6.124 0 0 1 .66-.493 4.676 4.676 0 0 1 .764-.4 5.041 5.041 0 0 1 .894-.268 5.187 5.187 0 0 1 1.033-.1 4.339 4.339 0 0 1 1.386.208 3.083 3.083 0 0 1 1.063.6 2.683 2.683 0 0 1 .685.931 2.97 2.97 0 0 1 .242 1.216 2.991 2.991 0 0 1-.643 1.939 3.434 3.434 0 0 1-.607.6q-.333.255-.63.476a4.851 4.851 0 0 0-.514.438.921.921 0 0 0-.268.481l-.213 1.216h-1.606l-.163-1.378a1.129 1.129 0 0 1 .1-.71 2.072 2.072 0 0 1 .434-.553 5.559 5.559 0 0 1 .607-.484 6.043 6.043 0 0 0 .63-.5 2.689 2.689 0 0 0 .493-.6 1.528 1.528 0 0 0 .2-.795 1.119 1.119 0 0 0-.387-.893 1.522 1.522 0 0 0-1.025-.332 2.608 2.608 0 0 0-.786.1 3.4 3.4 0 0 0-.549.226c-.153.082-.284.157-.391.225a.579.579 0 0 1-.306.1.525.525 0 0 1-.485-.28zm1.59 9.984a1.358 1.358 0 0 1 .4-.966 1.437 1.437 0 0 1 1.531-.289 1.393 1.393 0 0 1 .442.289 1.358 1.358 0 0 1 .4.966 1.314 1.314 0 0 1-.107.535 1.316 1.316 0 0 1-.735.715 1.515 1.515 0 0 1-1.093 0 1.326 1.326 0 0 1-.731-.715 1.314 1.314 0 0 1-.107-.535z" transform="translate(-1838.688 -212.164)"/>
    </g>
</svg>
