<svg xmlns="http://www.w3.org/2000/svg" width="20.369" height="21.4" viewBox="0 0 20.369 21.4">
    <defs>
        <style>
            .cls-2{fill:#3a4354}
        </style>
    </defs>
    <g id="Group_294" opacity="0.5" transform="translate(-7124.21 -3390.547)">
        <rect id="Rectangle_269" width="1.858" height=".913" class="cls-2" rx=".456" transform="rotate(45 -529.866 10310.31)"/>
        <rect id="Rectangle_270" width="1.858" height=".913" class="cls-2" rx=".456" transform="rotate(45 -531.25 10313.648)"/>
        <rect id="Rectangle_271" width="1.858" height=".913" class="cls-2" rx=".456" transform="rotate(45 -532.659 10317.052)"/>
        <g id="Group_293">
            <path id="Path_377" d="M7138.531 3403.86a4.043 4.043 0 1 0 4.043 4.044 4.048 4.048 0 0 0-4.043-4.044zm0 7.274a3.23 3.23 0 1 1 3.23-3.23 3.235 3.235 0 0 1-3.23 3.23z" class="cls-2"/>
            <path id="Path_378" d="M7140.21 3407.532h-1.31v-1.306a.371.371 0 1 0-.742 0v1.306h-1.307a.371.371 0 0 0 0 .743h1.307v1.306a.371.371 0 1 0 .742 0v-1.306h1.307a.372.372 0 0 0 .371-.372.371.371 0 0 0-.368-.371z" class="cls-2"/>
        </g>
        <path id="Path_379" d="M7133.488 3408.438c0-.182.01-.361.027-.538-.66.665-1.3 1.356-2 2-.04-.035-.081-.067-.118-.1q-.862-.864-1.728-1.728a.232.232 0 0 1-.072-.258 1.8 1.8 0 0 0-.869-2.144 1.906 1.906 0 0 0-1.373-.126.265.265 0 0 1-.289-.075c-.569-.575-1.145-1.144-1.72-1.713a1.092 1.092 0 0 0-.134-.1c.064-.069.1-.113.142-.154q4.6-4.608 9.194-9.222c.167-.168 2.128-2.064 2.774-2.705l1.027 1.129a1.682 1.682 0 0 0 .123.131c.205.185.409.372.62.552a.277.277 0 0 1 .087.314 1.821 1.821 0 0 0 .385 1.735 1.789 1.789 0 0 0 1.846.508.3.3 0 0 1 .327.095c.562.574 1.133 1.14 1.7 1.708.03.031.059.064.109.118q-1.2 1.209-2.4 2.414t-2.4 2.4l-.208.207c.174-.016.349-.027.527-.027a5.566 5.566 0 0 1 .863.074l3.955-3.96c.129-.133.26-.265.389-.4a1 1 0 0 0 0-1.443c-.5-.5-1-1-1.5-1.493-.186-.185-.37-.371-.558-.555a.539.539 0 0 0-.762-.124.96.96 0 0 1-1.37-1.059 1.083 1.083 0 0 1 .1-.274.512.512 0 0 0-.087-.659c-.182-.2-1.814-1.832-2.064-2.083a1.02 1.02 0 0 0-1.5-.015l-1.658 1.66-7.774 7.791-2.562 2.564a1.007 1.007 0 0 0-.017 1.479q1.032 1.032 2.068 2.06a.546.546 0 0 0 .725.116 1.182 1.182 0 0 1 .52-.108.947.947 0 0 1 .778 1.4.539.539 0 0 0 .116.738c.684.692 1.367 1.386 2.058 2.071a1 1 0 0 0 1.464-.019c.092-.094.182-.19.275-.282l1.033-1.033a5.615 5.615 0 0 1-.069-.867z" class="cls-2"/>
    </g>
</svg>
