<svg xmlns="http://www.w3.org/2000/svg" width="41.242" height="42.948" viewBox="0 0 41.242 42.948">
    <defs>
        <style>
            .cls-1{fill:#1582c8}
        </style>
    </defs>
    <g id="Group_90" transform="translate(-651.435 -927.052)">
        <path id="Path_277" d="M670.391 941.676h-1.351c-.026-.346-.024-.687-.081-1.018a3.01 3.01 0 0 0-2.953-2.561q-5.078-.033-10.154 0a3.023 3.023 0 0 0-3 3.131c.035 1.331.178 2.66.276 3.99q.183 2.469.37 4.935c.035.48.058.961.1 1.44a1.177 1.177 0 0 0 .125.431 3.13 3.13 0 0 0 1.757 1.37c-.028-.453-.047-.843-.077-1.233q-.277-3.662-.557-7.321c-.054-.713-.1-1.427-.146-2.14a.676.676 0 0 1 .634-.765.648.648 0 0 1 .736.655c.114 1.342.213 2.686.315 4.029q.2 2.611.387 5.223l.356 4.812.385 5.224.358 4.853c.034.466.062.933.095 1.4.019.265.137.462.422.468.589.013 1.178 0 1.81 0 .011-.207.028-.379.029-.552v-13.006a2.306 2.306 0 0 1 .038-.533.679.679 0 0 1 1.331.068 3.257 3.257 0 0 1 .013.453c0 4.35.006 8.7-.008 13.048 0 .407.084.576.52.533a10.638 10.638 0 0 1 1.237-.007.467.467 0 0 0 .533-.492c.119-1.618.232-3.236.351-4.854q.184-2.508.376-5.016c.094-1.262.191-2.523.278-3.785.04-.595.192-.771.768-.873a3.623 3.623 0 0 0 2.065-1.037 1.942 1.942 0 0 0 .517-1.033c.142-1.352.2-2.714.293-4.072.019-.272.058-.544.1-.891h12.525l.038-.117c-.271-.238-.539-.479-.814-.713-.4-.339-.8-.669-1.2-1.011a.718.718 0 0 1-.156-1.081.741.741 0 0 1 1.067.021q1.762 1.492 3.52 2.99a.711.711 0 0 1 .005 1.14q-1.756 1.5-3.523 2.986c-.411.346-.8.34-1.086.01s-.215-.711.2-1.071c.66-.575 1.33-1.141 2.067-1.773h-11.355c-.055.7-.113 1.4-.165 2.107-.036.494-.065.988-.1 1.482a3.2 3.2 0 0 1-1.646 2.57 8.69 8.69 0 0 1-1.482.706.407.407 0 0 0-.315.406q-.249 3.58-.511 7.159c-.149 2.015-.288 4.032-.476 6.043a1.666 1.666 0 0 1-1.75 1.576q-2.658.021-5.315-.02a1.78 1.78 0 0 1-1.6-1.8c-.216-2.962-.441-5.923-.657-8.884-.1-1.3-.189-2.605-.258-3.909a.588.588 0 0 0-.487-.63 4.266 4.266 0 0 1-2.443-1.727 3.333 3.333 0 0 1-.511-1.451c-.281-3.3-.5-6.607-.761-9.91a4.512 4.512 0 0 1 4.475-4.943c3.261-.013 6.522.033 9.782-.015a4.52 4.52 0 0 1 4.68 4.118c.025.291.004.573.004.867z" class="cls-1"/>
        <path id="Path_278" d="M674.315 949.325h1.385c.055.688.135 1.367.157 2.049a1.62 1.62 0 0 0 .518 1.17 3.861 3.861 0 0 0 2.109 1.039c.518.086.722.287.76.808.174 2.385.338 4.771.512 7.157.159 2.193.327 4.386.488 6.579.02.268.127.457.418.46.588.008 1.177 0 1.825 0v-.5-13.047a2.084 2.084 0 0 1 .063-.569.632.632 0 0 1 .767-.464.615.615 0 0 1 .562.613c.012.136.006.275.006.412v13.557c.671 0 1.313.027 1.949-.023.124-.01.3-.313.322-.493.116-1.273.2-2.55.289-3.825q.221-3.023.445-6.046l.382-5.182q.183-2.468.37-4.934.189-2.55.373-5.1a3.2 3.2 0 0 1 .053-.49.668.668 0 0 1 .786-.556.641.641 0 0 1 .564.736c-.057 1.016-.129 2.031-.2 3.046-.126 1.727-.259 3.454-.389 5.182-.043.562-.088 1.124-.128 1.686-.018.244-.028.488-.042.74a2.316 2.316 0 0 0 1.906-2.064c.214-2.962.447-5.922.641-8.885a7.038 7.038 0 0 0-.077-2.078 2.881 2.881 0 0 0-2.846-2.206c-3.4-.02-6.8-.027-10.194 0a3.007 3.007 0 0 0-2.956 3.043c.009.974.115 1.948.176 2.922.007.107 0 .214 0 .385h-12.326l-.053.116c.162.146.322.3.488.439.522.447 1.051.885 1.567 1.34a.69.69 0 0 1 .131 1.021.7.7 0 0 1-1.03.026q-1.8-1.514-3.585-3.041a.686.686 0 0 1 .009-1.134q1.738-1.489 3.486-2.966c.43-.364.845-.368 1.125-.024s.213.709-.2 1.075c-.33.291-.671.569-1.005.855l-1.059.909h10.982c-.026-.382-.032-.762-.079-1.137a4.553 4.553 0 0 1 3.521-5.13 5.084 5.084 0 0 1 1.025-.086q4.891-.009 9.782 0a4.434 4.434 0 0 1 4.58 4.29 20.622 20.622 0 0 1-.144 2.551q-.189 2.612-.391 5.223c-.079 1.042-.126 2.087-.251 3.124a3.073 3.073 0 0 1-1.593 2.2 8.36 8.36 0 0 1-1.444.69c-.225.088-.327.171-.344.421q-.322 4.669-.666 9.337c-.093 1.275-.19 2.55-.312 3.822a1.685 1.685 0 0 1-1.722 1.611q-2.6.037-5.2 0a1.768 1.768 0 0 1-1.746-1.743q-.363-4.956-.737-9.912-.113-1.523-.2-3.045a.486.486 0 0 0-.41-.511 4.851 4.851 0 0 1-2.249-1.4 2.54 2.54 0 0 1-.731-1.448c-.089-.854-.143-1.714-.213-2.595z" class="cls-1"/>
        <path id="Path_279" d="M660.915 927.053a4.1 4.1 0 1 1-4.1 4.134 4.127 4.127 0 0 1 4.1-4.134zm.015 6.809a2.7 2.7 0 0 0 2.727-2.714 2.726 2.726 0 0 0-5.451 0 2.693 2.693 0 0 0 2.724 2.714z" class="cls-1"/>
        <path id="Path_280" d="M683.267 927.053a4.105 4.105 0 1 1-4.165 3.975 4.118 4.118 0 0 1 4.165-3.975zm-.08 6.809a2.711 2.711 0 0 0 2.751-2.694 2.75 2.75 0 0 0-2.731-2.734 2.723 2.723 0 0 0-2.716 2.735 2.68 2.68 0 0 0 2.696 2.693z" class="cls-1"/>
    </g>
</svg>
