<svg xmlns="http://www.w3.org/2000/svg" width="14.088" height="16.649" viewBox="0 0 14.088 16.649">
    <defs>
        <style>
            .cls-1{fill:#1582c8;stroke:#1582c8;stroke-miterlimit:10;stroke-width:.25px}
        </style>
    </defs>
    <g id="Group_2191" transform="translate(-10769.274 -3881.53)">
        <path id="Path_3279" d="M10780.421 3881.655a.835.835 0 0 1 .619.625 1.4 1.4 0 0 1 .021.287v1.263h1.387a.789.789 0 0 1 .784.738c.006.063 0 .128 0 .192v9.208a2.055 2.055 0 0 1-.683 1.564c-.67.628-1.336 1.259-2.006 1.887a2.252 2.252 0 0 1-1.594.632h-6.453a.815.815 0 0 1-.922-.926v-1.249H10770.188a.788.788 0 0 1-.786-.752v-.208q0-6.126-.006-12.251a.919.919 0 0 1 .645-1.011zm-1.135 15.785v-.2-1.729a1.542 1.542 0 0 1 .036-.38 1.065 1.065 0 0 1 1.078-.828h1.9c.334 0 .334 0 .334-.334v-9.205c0-.3-.043-.343-.341-.343h-9.781c-.3 0-.347.046-.347.34v12.359c0 .3.041.343.342.343h6.437c.111-.003.217-.015.342-.023zm1.182-13.61v-1.381a.194.194 0 0 0-.209-.2h-9.912a1.472 1.472 0 0 0-.16.006.187.187 0 0 0-.182.187v12.586c0 .194.067.26.261.261h1.233a.416.416 0 0 0 .085-.017v-.211-10.312a1.4 1.4 0 0 1 .019-.286.8.8 0 0 1 .86-.631h8.008zm-.589 13.336l.044.031 2.407-2.266c-.686-.034-1.344-.044-2-.029a.455.455 0 0 0-.446.46c-.011.601-.005 1.203-.005 1.804z" class="cls-1"/>
        <path id="Path_3280" d="M10777.4 3887.19h-2.72c-.281 0-.428-.1-.435-.292s.147-.306.436-.306h5.487c.249 0 .395.113.395.3s-.146.3-.4.3z" class="cls-1"/>
        <path id="Path_3281" d="M10777.41 3888.572h2.783c.216 0 .331.078.361.238a.278.278 0 0 1-.23.34 1.435 1.435 0 0 1-.207.011h-5.423a1.511 1.511 0 0 1-.176-.007.29.29 0 0 1-.269-.286.3.3 0 0 1 .265-.291 1.254 1.254 0 0 1 .16 0z" class="cls-1"/>
        <path id="Path_3282" d="M10777.407 3891.137h-2.735a1.14 1.14 0 0 1-.176-.007.3.3 0 0 1-.247-.292.291.291 0 0 1 .257-.281 1.388 1.388 0 0 1 .191-.009h5.423a1.374 1.374 0 0 1 .19.009.285.285 0 0 1 .255.282.294.294 0 0 1-.247.291 1.037 1.037 0 0 1-.177.007z" class="cls-1"/>
        <path id="Path_3283" d="M10776.117 3893.117h-1.5c-.271 0-.427-.191-.34-.405a.322.322 0 0 1 .338-.192H10777.574a.821.821 0 0 1 .221.024.287.287 0 0 1 0 .548.737.737 0 0 1-.205.024c-.49.002-.983.001-1.473.001z" class="cls-1"/>
    </g>
</svg>
