<svg xmlns="http://www.w3.org/2000/svg" xmlns:xlink="http://www.w3.org/1999/xlink" width="17.149" height="27.891" viewBox="0 0 17.149 27.891">
    <defs>
        <linearGradient id="linear-gradient" x2="1" y1=".5" y2=".5" gradientUnits="objectBoundingBox">
            <stop offset="0" stop-color="#3a4354"/>
            <stop offset="1" stop-color="#3a4354"/>
        </linearGradient>
        <linearGradient id="linear-gradient-3" x1="0" x2="1" y1=".5" y2=".5" xlink:href="#linear-gradient"/>
        <style>
            .cls-1{fill:#fff}
        </style>
    </defs>
    <g id="Group_313" transform="translate(-46.679 -814.96)">
        <path id="Path_477" d="M63.826 826.949v-6.842a2.136 2.136 0 0 0-2.206-2.331H57.52v-.328-1.879c0-.4-.195-.6-.57-.606q-1.7-.006-3.389 0c-.376 0-.565.205-.573.6v2.21H48.89a2.506 2.506 0 0 0-.561.045 2.146 2.146 0 0 0-1.644 2.145q-.008 10.348 0 20.7v.055a2.16 2.16 0 0 0 1.039 1.827 5.186 5.186 0 0 0 .7.3h13.658c.013-.012.024-.03.038-.034a2.192 2.192 0 0 0 1.706-2.4v-13.256c0-.063.003-.135 0-.206zm-9.8-10.889h2.443v4.5h-2.438zm8.774 24.459a1.1 1.1 0 0 1-1.179 1.242H48.888a1.093 1.093 0 0 1-1.181-1.24V820.1a1.083 1.083 0 0 1 1.159-1.231h3.851c.082 0 .164.01.253.016v1.7c-.176 0-.337-.008-.5 0a.523.523 0 0 0-.515.555.508.508 0 0 0 .535.529h5.519a.509.509 0 0 0 .539-.525.525.525 0 0 0-.537-.561c-.159-.007-.318 0-.473 0v-1.712h4.046c.815 0 1.214.422 1.214 1.283V827.961c.002 3.22.002 10.257.002 12.558z" class="cls-1"/>
        <path id="Path_478" d="M55.254 823.076h3.772a1.411 1.411 0 0 1 1.452 1.533q.006 3.785 0 7.568a1.406 1.406 0 0 1-1.453 1.531q-3.773.006-7.545 0a1.413 1.413 0 0 1-1.452-1.534q-.008-3.785 0-7.568a1.407 1.407 0 0 1 1.454-1.53zm-3.967 9.524h7.934a1.871 1.871 0 0 0-1.134-1.568c-.42-.179-.849-.331-1.274-.5a1.231 1.231 0 0 1-.8-.944.394.394 0 0 0-.035-.1h-1.442c-.295.8-.345.845-1.176 1.166-.313.121-.629.234-.937.367a1.864 1.864 0 0 0-1.136 1.579zm2.39-6.292h-.009c0 .172-.007.345 0 .517a1.659 1.659 0 0 0 1.513 1.621 1.583 1.583 0 0 0 1.615-1.394 5.991 5.991 0 0 0 .013-1.435 1.574 1.574 0 0 0-1.59-1.453 1.616 1.616 0 0 0-1.539 1.493 5.651 5.651 0 0 0-.003.653zm-.5-2.145h-1.678c-.327 0-.442.123-.442.48v5.826a1.5 1.5 0 0 0 .033.2 3.3 3.3 0 0 1 1.38-.826l.8-.3a.52.52 0 0 0 .157-.812 2.566 2.566 0 0 1-.741-1.574 4.285 4.285 0 0 1 .488-2.992zm6.278 6.541v-5.4-.653c0-.373-.113-.491-.458-.492h-1.436a1.97 1.97 0 0 0-.209.023 3.008 3.008 0 0 1 .517 1.681c0 .309.006.617 0 .926a2.852 2.852 0 0 1-.77 1.929.52.52 0 0 0 .184.835 5.455 5.455 0 0 1 2.169 1.153z" class="cls-1"/>
        <path id="Path_479" d="M55.249 838.492h3.926a.523.523 0 0 1 .527.311.467.467 0 0 1-.064.555.839.839 0 0 1-.495.215c-.838.021-1.676.01-2.515.01h-5.306a.547.547 0 0 1-.568-.564.536.536 0 0 1 .574-.524q1.958-.006 3.921-.003z" class="cls-2"/>
        <path id="Path_480" d="M55.228 835.663h2.257c.389 0 .633.218.627.552a.548.548 0 0 1-.616.537h-4.592a.547.547 0 0 1-.614-.538c0-.332.241-.549.629-.55q1.155-.003 2.309-.001z" class="cls-2"/>
    </g>
</svg>
