<svg xmlns="http://www.w3.org/2000/svg" width="25.051" height="25.071" viewBox="0 0 25.051 25.071">
    <defs>
        <style>
            .cls-1{fill:#2d9483}
        </style>
    </defs>
    <g id="Group_317" transform="translate(-157.877 -645.777)">
        <path id="Path_505" d="M164.022 670.848h-.049c-.033-.063-.062-.129-.1-.19-1.047-1.663-2.123-3.308-3.134-4.992a29.476 29.476 0 0 1-2.431-4.955 5.861 5.861 0 0 1-.155-3.975 6.137 6.137 0 0 1 7.359-4.081c.211.051.418.116.663.185v-5.605h3v-1.458h10.8v1.463h.294q1.2 0 2.4.009a1.935 1.935 0 0 1 .262.035v19.6h-.416q-7.843 0-15.686-.005a.411.411 0 0 0-.4.228c-.313.525-.638 1.043-.969 1.557-.48.73-.96 1.456-1.438 2.184zm9.859-5.445v-3.016h1.476v3h6.068V648.71h-2.936v-1.459h-7.856v1.474h-2.991v.3c0 1.437.005 2.874-.005 4.31a.6.6 0 0 0 .246.535 5.959 5.959 0 0 1 1.835 6.795 35.628 35.628 0 0 1-2.137 4.474c-.046.082-.088.166-.142.269zm-9.89 2.778a.471.471 0 0 0 .067-.065 48.59 48.59 0 0 0 4.091-7.478 5.736 5.736 0 0 0 .519-2.027 4.685 4.685 0 0 0-4.252-4.657 4.53 4.53 0 0 0-4.212 1.961 4.083 4.083 0 0 0-.666 3.779 19.537 19.537 0 0 0 .891 2.246 50.22 50.22 0 0 0 2.9 5.209c.219.344.44.684.662 1.032z" class="cls-1"/>
        <path id="Path_506" d="M173.863 653.554v1.432h-2.922v-1.432z" class="cls-1"/>
        <path id="Path_507" d="M175.361 654.975v-1.434c.073-.006.143-.017.213-.018.831 0 1.661.005 2.492 0 .183 0 .24.054.234.235-.012.4 0 .8 0 1.221z" class="cls-1"/>
        <path id="Path_508" d="M173.857 652.033h-2.916v-1.441h2.916z" class="cls-1"/>
        <path id="Path_509" d="M178.28 650.59v1.438h-2.913v-1.438z" class="cls-1"/>
        <path id="Path_510" d="M170.943 657.859v-1.444h2.91v1.444z" class="cls-1"/>
        <path id="Path_511" d="M175.359 657.855v-1.436h2.92v1.436z" class="cls-1"/>
        <path id="Path_512" d="M173.861 660.817h-2.916v-1.452h2.916z" class="cls-1"/>
        <path id="Path_513" d="M175.363 659.365h2.917v1.442h-2.917z" class="cls-1"/>
        <path id="Path_514" d="M161.057 658.595a2.948 2.948 0 1 1 2.934 2.95 2.947 2.947 0 0 1-2.934-2.95zm1.48.018a1.468 1.468 0 0 0 1.49 1.458 1.47 1.47 0 1 0-.047-2.939 1.468 1.468 0 0 0-1.443 1.481z" class="cls-1"/>
    </g>
</svg>
