<svg xmlns="http://www.w3.org/2000/svg" width="13.812" height="19.412" viewBox="0 0 13.812 19.412">
    <defs>
        <style>
            .cls-1{fill:#3a4354}
        </style>
    </defs>
    <g id="Group_127" transform="translate(-2922.308 -132.339)">
        <path id="Path_247" d="M2923.059 151.751a.387.387 0 0 0-.062-.036.942.942 0 0 1-.687-.957V133.4a.96.96 0 0 1 .772-1.041 1.344 1.344 0 0 1 .246-.017h11.774a.946.946 0 0 1 1.017 1.02v17.361a1.014 1.014 0 0 1-.752 1.031zm-.117-9.707v8.625c0 .373.082.454.459.454h11.624c.378 0 .46-.081.46-.453v-17.25c0-.373-.081-.453-.459-.453H2923.4c-.379 0-.46.079-.46.452z" class="cls-1"/>
        <path id="Path_248" d="M2934.855 133.6v12.5h-11.28v-12.5zm-10.649 11.878h1.864a3.171 3.171 0 0 1 1.632-2.739c-.013-.022-.016-.037-.025-.042a2.787 2.787 0 0 1-1.592-2.408c-.008-.111-.063-.127-.156-.139a1.239 1.239 0 0 1-.9-1.917.233.233 0 0 0 .023-.269 2.173 2.173 0 0 1 1.305-3.047.292.292 0 0 0 .146-.076c.138-.2.265-.4.4-.612h-2.7zm10.015.013v-11.253h-1.816c.077.069.129.114.18.161a3.049 3.049 0 0 1 .769 3.481.294.294 0 0 0 .027.335 1.237 1.237 0 0 1-.84 1.929c-.153.02-.2.07-.205.217a2.719 2.719 0 0 1-1.086 2.022c-.162.127-.343.228-.53.351a3.185 3.185 0 0 1 1.638 2.751c.065 0 .108.007.152.007zm-2.535-7.838h-.19c-.658 0-1.316-.008-1.974 0a2.48 2.48 0 0 1-1.958-.835.246.246 0 0 0-.205-.052.906.906 0 0 0-.652.879c0 .858-.009 1.717 0 2.576a2.189 2.189 0 0 0 1.4 1.981 3.829 3.829 0 0 0 1.518.14 2.1 2.1 0 0 0 2.038-1.8c.084-.942.023-1.904.023-2.888zm1.053.062c.017-.031.032-.052.042-.075a2.417 2.417 0 0 0-1.757-3.345 15.314 15.314 0 0 0-2.818-.04 1.318 1.318 0 0 0-1.069.758 1.667 1.667 0 0 1 .808 1.22.373.373 0 0 0 .1.175 1.8 1.8 0 0 0 1.409.624h2.9v.606zm-2.045 5.753l-.371 1.824-1.109-1.472-1.11 1.473-.37-1.826a2.525 2.525 0 0 0-1.03 2.014h5.019a2.524 2.524 0 0 0-1.029-2.012zm-3.41-7.342a1.048 1.048 0 0 0-.433-.552.357.357 0 0 0-.354-.043 1.564 1.564 0 0 0-.972 1.944c.079.25.079.25.33.205l.212-.038a1.607 1.607 0 0 1 1.217-1.515zm5.08 3.4a.606.606 0 0 0 .613-.631.6.6 0 0 0-.613-.585zm-6.306.006V138.3a.616.616 0 0 0 0 1.232zm3.367 3.455l-.023.041.584.776.128-.664zm-1.114.155l.133.662.581-.778-.029-.039z" class="cls-1"/>
        <path id="Path_249" d="M2923.579 146.75h4.367v3.736h-4.367zm2.5 3.109h1.237v-1.241c-.383 0-.749 0-1.115.006a.169.169 0 0 0-.117.116c-.013.366-.009.731-.009 1.119zm-1.869-1.252h1.23v-1.231h-1.23zm3.114-.619v-.621h-1.161a.116.116 0 0 0-.079.079c-.007.179 0 .359 0 .539zm-1.88 1.883v-.612h-1.233v.6c.045 0 .081.011.117.011z" class="cls-1"/>
        <path id="Path_250" d="M2928.6 148.006h6.257v.6h-6.257z" class="cls-1"/>
        <path id="Path_251" d="M2931.1 147.351v-.6h3.746v.6z" class="cls-1"/>
        <path id="Path_252" d="M2932.365 149.256h2.487v.6h-2.487z" class="cls-1"/>
        <path id="Path_253" d="M2928.6 147.351v-.6h1.859v.6z" class="cls-1"/>
        <path id="Path_254" d="M2928.594 149.856v-.6h1.863v.6z" class="cls-1"/>
        <path id="Path_255" d="M2931.707 149.865h-.593v-.606h.593z" class="cls-1"/>
        <path id="Path_256" d="M2927.672 139.856h3.079a1.568 1.568 0 1 1-3.079 0zm.684.628a.887.887 0 0 0 .921.613.844.844 0 0 0 .783-.613z" class="cls-1"/>
        <path id="Path_257" d="M2927.032 139.208a.928.928 0 0 1 1.855 0h-.6a.328.328 0 0 0-.331-.295.317.317 0 0 0-.313.3z" class="cls-1"/>
        <path id="Path_258" d="M2931.4 139.222h-.52c-.035 0-.092-.029-.1-.057a.313.313 0 0 0-.335-.25c-.174.011-.261.135-.3.3h-.6a.908.908 0 0 1 .892-.922.923.923 0 0 1 .963.929z" class="cls-1"/>
        <path id="Path_259" d="M2924.821 148.3a.313.313 0 0 1-.313-.309.313.313 0 0 1 .626 0 .313.313 0 0 1-.313.309z" class="cls-1"/>
    </g>
</svg>
