<svg
    xmlns="http://www.w3.org/2000/svg"
    viewBox="0 0 491 491"
    id="vector">
    <path
        id="path"
        d="M 436.714 0 L 149.471 0 C 133.033 0 119.659 13.374 119.659 29.812 L 119.659 96.526 C 65.169 112.12 25.17 162.383 25.17 221.814 C 25.17 281.245 65.168 331.508 119.659 347.102 L 119.659 461.885 C 119.659 478.323 133.033 491.697 149.471 491.697 L 384.204 491.697 C 386.989 491.697 389.659 490.591 391.629 488.622 L 463.45 416.8 C 465.419 414.831 466.525 412.16 466.525 409.375 L 466.525 29.812 C 466.525 13.374 453.152 0 436.714 0 Z M 149.471 21 L 436.714 21 C 441.572 21 445.525 24.953 445.525 29.812 L 445.525 61.501 L 140.659 61.501 L 140.659 29.812 C 140.659 24.953 144.612 21 149.471 21 Z M 46.17 221.813 C 46.17 161.55 95.197 112.523 155.46 112.523 C 215.723 112.523 264.75 161.55 264.75 221.813 C 264.75 282.076 215.723 331.104 155.46 331.104 C 95.197 331.104 46.17 282.076 46.17 221.813 Z M 140.659 461.884 L 140.659 351.258 C 145.519 351.81 150.456 352.104 155.461 352.104 C 194.596 352.104 229.753 334.757 253.656 307.352 L 317.992 307.352 C 323.791 307.352 328.492 302.651 328.492 296.852 C 328.492 291.053 323.791 286.352 317.992 286.352 L 268.611 286.352 C 277.744 270.402 283.595 252.347 285.255 233.11 L 317.991 233.11 C 323.79 233.11 328.491 228.409 328.491 222.61 C 328.491 216.811 323.79 212.11 317.991 212.11 L 285.388 212.11 C 283.968 192.916 278.368 174.868 269.502 158.869 L 317.99 158.869 C 323.789 158.869 328.49 154.168 328.49 148.369 C 328.49 142.57 323.789 137.869 317.99 137.869 L 255.016 137.869 C 231.098 109.546 195.346 91.522 155.458 91.522 C 150.453 91.522 145.516 91.816 140.656 92.368 L 140.656 82.501 L 445.522 82.501 L 445.522 398.873 L 403.513 398.873 C 387.074 398.873 373.702 412.247 373.702 428.684 L 373.702 470.695 L 149.471 470.695 C 144.612 470.695 140.659 466.743 140.659 461.884 Z M 394.705 455.845 L 394.705 428.685 C 394.705 423.826 398.658 419.874 403.516 419.874 L 430.676 419.874 L 394.705 455.845 Z"
        fill="#ffffff"
        stroke-width="1"/>
    <path
        id="path_1"
        d="M 359.246 158.869 L 394.116 158.869 C 399.915 158.869 404.616 154.168 404.616 148.369 C 404.616 142.57 399.915 137.869 394.116 137.869 L 359.246 137.869 C 353.447 137.869 348.746 142.57 348.746 148.369 C 348.746 154.168 353.447 158.869 359.246 158.869 Z M 359.246 233.11 L 394.116 233.11 C 399.915 233.11 404.616 228.409 404.616 222.61 C 404.616 216.811 399.915 212.11 394.116 212.11 L 359.246 212.11 C 353.447 212.11 348.746 216.811 348.746 222.61 C 348.746 228.409 353.447 233.11 359.246 233.11 Z M 359.246 307.352 L 394.116 307.352 C 399.915 307.352 404.616 302.651 404.616 296.852 C 404.616 291.053 399.915 286.352 394.116 286.352 L 359.246 286.352 C 353.447 286.352 348.746 291.053 348.746 296.852 C 348.746 302.651 353.447 307.352 359.246 307.352 Z M 394.116 381.593 C 399.915 381.593 404.616 376.892 404.616 371.093 C 404.616 365.294 399.915 360.593 394.116 360.593 L 295.891 360.593 C 290.092 360.593 285.391 365.294 285.391 371.093 C 285.391 376.892 290.092 381.593 295.891 381.593 L 394.116 381.593 Z M 236.982 168.845 L 224.172 156.035 C 220.722 152.586 216.136 150.686 211.257 150.686 C 206.378 150.686 201.792 152.586 198.342 156.035 L 131.152 223.225 L 112.579 204.652 C 109.13 201.204 104.543 199.304 99.665 199.304 C 94.787 199.304 90.2 201.204 86.751 204.653 L 73.938 217.465 C 66.818 224.586 66.818 236.173 73.939 243.294 L 118.236 287.59 C 121.686 291.041 126.273 292.941 131.152 292.941 L 131.153 292.941 C 136.031 292.941 140.618 291.041 144.066 287.592 L 236.983 194.675 C 244.103 187.554 244.103 175.966 236.982 168.845 Z M 131.151 270.807 L 90.722 230.379 L 99.664 221.437 L 123.726 245.499 C 127.827 249.6 134.475 249.6 138.576 245.499 L 211.257 172.818 L 220.199 181.76 L 131.151 270.807 Z"
        fill="#ffffff"
        stroke-width="1"/>
</svg>
