<svg xmlns="http://www.w3.org/2000/svg" width="15.674" height="16.25" viewBox="0 0 15.674 16.25">
    <defs>
        <style>
            .cls-1{fill:#fff}
        </style>
    </defs>
    <g id="Group_1514" transform="translate(-683.556 -491.24)">
        <path id="Path_1449" d="M695.459 506.643H684.4v-10.314h3v-3.614a.653.653 0 0 1 .135-.425.664.664 0 0 1 .438-.2h7.491v6.859l.848-.848v-6.859h-9a1 1 0 0 0-.868.409l-2.6 3.372a1.508 1.508 0 0 0-.276.855v11.612h12.751v-5.8l-.848.848z" class="cls-1"/>
        <path id="Path_1450" d="M693.393 499.548a.467.467 0 0 0-.466-.467h-5.99a.467.467 0 1 0 0 .933h5.99a.466.466 0 0 0 .466-.466z" class="cls-1"/>
        <path id="Path_1451" d="M689.754 501.544a.467.467 0 0 0-.466-.467h-2.352a.467.467 0 0 0 0 .933h2.352a.467.467 0 0 0 .466-.466z" class="cls-1"/>
        <path id="Path_1452" d="M686.937 498.018h4.76a.467.467 0 1 0 0-.933h-4.76a.467.467 0 1 0 0 .933z" class="cls-1"/>
        <path id="Path_1453" d="M687.118 505.21a.4.4 0 0 0 .448-.351 2.616 2.616 0 0 1 .423-1.168 2.161 2.161 0 0 1 .019.311c0 .929.147 1.364.508 1.5.427.164.788-.238.982-.453.054-.06.091-.086.085-.093a1.469 1.469 0 0 1 .239.228c.062.068.126.138.194.2a.96.96 0 0 0 .646.266 1.282 1.282 0 0 0 .858-.4l.019-.018a2.51 2.51 0 0 0 1.366-.631l.81-.81-1.305-1.306-.81.81a2.51 2.51 0 0 0-.632 1.368c-.273.254-.354.178-.4.132s-.093-.094-.148-.155a1.173 1.173 0 0 0-.827-.49.935.935 0 0 0-.69.358c-.021.024-.04.045-.059.064a4.662 4.662 0 0 1-.028-.574c0-.994-.379-1.226-.7-1.246h-.038c-.66 0-1.192 1.029-1.311 2.007a.4.4 0 0 0 .351.448z" class="cls-1"/>
        <path id="Path_1454" d="M698.959 497.246a.945.945 0 0 0-1.306 0l-5.015 5.015 1.3 1.305 2.343-2.343a.314.314 0 0 0-.012.086.308.308 0 0 0 .089.217.315.315 0 0 0 .433 0l2.025-2.025a1 1 0 0 0 .246-1.079.92.92 0 0 0-.103-1.176z" class="cls-1"/>
    </g>
</svg>
