<svg xmlns="http://www.w3.org/2000/svg" width="32.965" height="22.072">
    <path data-name="Path 23" d="M1653.757 403.846a2.476 2.476 0 0 0-.692-1.758 2.333 2.333 0 0 0-1.7-.669h-.007q-10.1.025-20.2.015h-8.082a2.183 2.183 0 0 0-2.28 2.281v17.431a2.2 2.2 0 0 0 2.351 2.346H1651.332a3.142 3.142 0 0 0 .752-.064 2.2 2.2 0 0 0 1.664-2.318v-4.6c-.008-4.226-.011-8.446.009-12.664zM1636.8 416.2l-3.049-2.6q-5.578-4.761-11.165-9.511c-.181-.153-.168-.276-.1-.63a.463.463 0 0 1 .422-.358 1.589 1.589 0 0 1 .181-.007h28.171a2.965 2.965 0 0 1 .391.013.425.425 0 0 1 .4.356c.08.366.081.475-.092.623q-5.544 4.705-11.072 9.431l-3.142 2.682c-.378.311-.58.309-.945.001zm-13.044 5.614 7.873-7.849 4.151 3.54a2.225 2.225 0 0 0 3-.014l4.115-3.513 7.945 7.836zm-1.28-1.229V406.15l7.8 6.658zm21.767-7.755 7.83-6.683v14.414z" transform="translate(-1620.792 -401.419)" style="fill:#3a4354"/>
</svg>
