<svg xmlns="http://www.w3.org/2000/svg" width="19.394" height="19.394" viewBox="0 0 19.394 19.394">
    <defs>
        <style>
            .cls-1{fill:#1582c8}
        </style>
    </defs>
    <g id="Group_159" data-name="Group 159" transform="translate(-392.862 -680.941)">
        <path id="Path_357" data-name="Path 357" class="cls-1" d="M403.7 687.008a.815.815 0 0 0-1.391.577.8.8 0 0 0 .24.576l1.575 1.575h-4.754a.854.854 0 1 0 0 1.708h4.754l-1.573 1.573a.816.816 0 0 0 .573 1.393.808.808 0 0 0 .577-.24l3.58-3.581z"/>
        <g id="Group_158" data-name="Group 158">
            <g id="Group_157" data-name="Group 157">
                <path id="Path_358" data-name="Path 358" class="cls-1" d="M402.558 680.941a9.7 9.7 0 1 0 9.7 9.7 9.708 9.708 0 0 0-9.7-9.7zm7.76 9.7a7.759 7.759 0 1 1-7.76-7.76 7.768 7.768 0 0 1 7.76 7.757z"/>
            </g>
        </g>
    </g>
</svg>
