<svg xmlns="http://www.w3.org/2000/svg" width="39.878" height="41.178" viewBox="0 0 39.878 41.178">
    <defs>
        <style>
            .cls-2{fill:#2d9483}
        </style>
    </defs>
    <g id="Group_231" data-name="Group 231" transform="translate(-2646.489 -106.536)" style="opacity:.2">
        <g id="Group_230" data-name="Group 230">
            <path id="Path_237" data-name="Path 237" class="cls-2" d="m2686.249 128.986-4.082-5.9-.012-.016-.019-.023v-.005l-.007-.009-.012-.013-.021-.022-.01-.01-.011-.01-.024-.02-.026-.021-.025-.017-.029-.019-.025-.015-.033-.016-.025-.012-.037-.014-.014-.005-10.368-3.425a.662.662 0 0 0-.415 1.257l8.728 2.882-12.682 5.547-.858-.354 3.464-9.855a6.275 6.275 0 0 0 2.661-10.75.662.662 0 0 0-1.067.273l-1.341 3.813-1.848.737-.98-1.731 1.34-3.814a.661.661 0 0 0-.662-.88 6.275 6.275 0 0 0-4.651 10.05l-3.343 9.511-6.221-2.562 6.676-2.19a.661.661 0 1 0-.412-1.257l-8.378 2.749a.248.248 0 0 0-.035.013l-.017.006-.042.02-.016.008-.012.007-.011.006-.014.01-.018.011-.012.007-.02.017-.021.016-.009.007-.018.017-.022.021-.022.024-.021.025-.008.009-4.536 5.9a.661.661 0 0 0 .242 1l4.157 1.956v7.878a.66.66 0 0 0 .379.6l15.422 7.257h.009a.533.533 0 0 0 .048.019l.017.006a.477.477 0 0 0 .053.015h.015l.057.01h.013a.537.537 0 0 0 .07 0 .584.584 0 0 0 .073 0h.017l.055-.01.019-.005a.443.443 0 0 0 .052-.015l.019-.007.049-.022.012-.005 14.515-7.257a.661.661 0 0 0 .365-.592v-7.982l3.717-1.859a.654.654 0 0 0 .345-.427.661.661 0 0 0-.097-.538zm-21.721-12.307a.66.66 0 0 0-.121-.649 4.952 4.952 0 0 1 2.448-8l-1.072 3.05a.663.663 0 0 0 .048.545l1.413 2.5a.661.661 0 0 0 .821.288l2.664-1.062a.665.665 0 0 0 .379-.4l1.072-3.05a4.953 4.953 0 0 1-3.1 7.775.661.661 0 0 0-.5.43l-3.563 10.137-3.977-1.638zm-12.628 7.591 14.208 5.851-3.772 5.658-10.284-4.84a.658.658 0 0 0-.178-.083l-3.7-1.742zm.446 8.27 9.942 4.679a.673.673 0 0 0 .282.063.664.664 0 0 0 .551-.295l3.324-4.986v14.009l-14.1-6.634zm28.613 6.847-13.191 6.6v-14.258l3.807 4.846a.663.663 0 0 0 .521.253.646.646 0 0 0 .3-.07l8.568-4.284zm-8.677-4.053-4.128-5.254 13.233-5.789 3.338 4.821z"/>
            <path id="Path_238" data-name="Path 238" class="cls-2" d="M2666.365 121.395a.662.662 0 1 0-1.248-.439l-1.387 3.945a.662.662 0 0 0 1.248.439z"/>
        </g>
    </g>
</svg>
