<svg xmlns="http://www.w3.org/2000/svg" width="19.396" height="19.396" viewBox="0 0 19.396 19.396">
    <defs>
        <style>
            .cls-1{fill:#009937}
        </style>
    </defs>
    <g id="Group_140" data-name="Group 140" transform="translate(-294.078 -680.946)">
        <g id="Group_139" data-name="Group 139">
            <path id="Path_317" data-name="Path 317" class="cls-1" d="M303.776 680.946a9.7 9.7 0 1 0 9.7 9.7 9.708 9.708 0 0 0-9.7-9.7zm7.76 9.7a7.76 7.76 0 1 1-7.76-7.761 7.769 7.769 0 0 1 7.76 7.759z"/>
            <path id="Path_318" data-name="Path 318" class="cls-1" d="m302.959 691.279-.1-.092-1.633-1.631a.527.527 0 0 0-.845 0q-.21.209-.417.419a.526.526 0 0 0 .006.843l2.538 2.537a.533.533 0 0 0 .883 0c.416-.414.829-.83 1.244-1.244l2.965-2.965a.526.526 0 0 0 0-.816c-.139-.14-.278-.279-.419-.418a.533.533 0 0 0-.863 0q-1.066 1.063-2.13 2.129l-1.229 1.238z"/>
        </g>
    </g>
</svg>
