<svg xmlns="http://www.w3.org/2000/svg" width="19.394" height="19.394" viewBox="0 0 19.394 19.394">
    <defs>
        <style>
            .cls-1{fill:#ec5824}
        </style>
    </defs>
    <g id="Group_138" data-name="Group 138" transform="translate(-491.119 -680.946)">
        <path id="Path_315" data-name="Path 315" class="cls-1" d="m502.118 690.643 2.087-2.087a.921.921 0 0 0-.651-1.572.91.91 0 0 0-.65.27l-2.087 2.087-2.087-2.087a.915.915 0 0 0-.651-.27.921.921 0 0 0-.651 1.572l2.087 2.087-2.087 2.087a.92.92 0 0 0 0 1.3.942.942 0 0 0 1.3 0l2.087-2.087 2.086 2.087a.921.921 0 1 0 1.3-1.3z"/>
        <path id="Path_316" data-name="Path 316" class="cls-1" d="M500.816 680.946a9.7 9.7 0 1 0 9.7 9.7 9.708 9.708 0 0 0-9.7-9.7zm7.759 9.7a7.76 7.76 0 1 1-7.759-7.76 7.768 7.768 0 0 1 7.759 7.757z"/>
    </g>
</svg>
