<svg xmlns="http://www.w3.org/2000/svg" width="20.293" height="20.292" viewBox="0 0 20.293 20.292">
    <defs>
        <style>
            .cls-3{fill:#00be4b}
        </style>
    </defs>
    <g id="Group_94" transform="translate(-331.988 -668.708)">
        <path id="Path_291" fill="#8cfa50" d="M342.134 689a10.146 10.146 0 1 1 10.147-10.146A10.158 10.158 0 0 1 342.134 689zm0-20.058a9.912 9.912 0 1 0 9.913 9.912 9.923 9.923 0 0 0-9.913-9.912z"/>
        <path id="Path_292" fill="#00d74b" d="M342.134 687.7a8.849 8.849 0 1 1 8.849-8.849 8.859 8.859 0 0 1-8.849 8.849zm0-17.113a8.264 8.264 0 1 0 8.265 8.264 8.274 8.274 0 0 0-8.265-8.261z"/>
        <path id="Path_293" d="M342.134 686.066a7.212 7.212 0 1 1 7.212-7.212 7.22 7.22 0 0 1-7.212 7.212zm0-13.372a6.16 6.16 0 1 0 6.16 6.16 6.167 6.167 0 0 0-6.16-6.16z" class="cls-3"/>
        <path id="Path_294" d="M341.657 682.481a.585.585 0 0 1-.413-.171l-2.478-2.478a.585.585 0 0 1 .827-.827l1.986 1.987 3.454-4.919a.584.584 0 1 1 .956.672l-3.854 5.488a.583.583 0 0 1-.427.246.432.432 0 0 1-.051.002z" class="cls-3"/>
    </g>
</svg>
