<svg xmlns="http://www.w3.org/2000/svg" width="34.864" height="36" viewBox="0 0 34.864 36">
    <defs>
        <style>
            .cls-1{fill:#1582c8}
        </style>
    </defs>
    <g id="Group_1364" transform="translate(-819.01 -278.883)">
        <path id="Path_1242" d="M853.771 298.51l-3.569-5.155-.011-.014-.016-.02-.006-.008-.01-.011-.019-.019-.009-.009-.009-.009-.021-.017-.023-.018-.022-.016-.025-.016-.022-.013-.029-.015-.022-.009-.032-.013h-.012l-9.064-2.994a.578.578 0 1 0-.363 1.1l7.63 2.52-11.081 4.848-.751-.309 3.029-8.616a5.486 5.486 0 0 0 2.326-9.4.579.579 0 0 0-.933.238l-1.172 3.334-1.615.645-.857-1.514 1.172-3.334a.579.579 0 0 0-.579-.769 5.486 5.486 0 0 0-4.066 8.786l-2.923 8.315-5.439-2.24 5.837-1.915a.578.578 0 0 0-.361-1.1l-7.324 2.4-.03.012-.015.006-.036.017-.014.007-.011.006-.009.005-.013.009-.015.009-.011.007-.018.014-.018.014-.008.007-.015.014-.019.019-.02.021-.018.021-.007.009-3.966 5.155a.578.578 0 0 0 .212.876l3.634 1.71v6.888a.577.577 0 0 0 .332.523l13.483 6.345h.007l.042.017.015.005.046.013h.013l.05.008h.073a.445.445 0 0 0 .063 0h.015l.048-.008h.017l.045-.013.017-.006.043-.019h.01l12.69-6.345a.578.578 0 0 0 .32-.517v-6.979l3.249-1.625a.577.577 0 0 0 .217-.846zm-18.989-10.76a.578.578 0 0 0-.107-.567 4.331 4.331 0 0 1 2.14-7l-.937 2.667a.576.576 0 0 0 .043.476l1.235 2.182a.577.577 0 0 0 .717.252l2.329-.929a.576.576 0 0 0 .331-.345l.938-2.666a4.33 4.33 0 0 1-2.709 6.8.58.58 0 0 0-.439.376l-3.115 8.862-3.476-1.431zm-11.039 6.637l12.421 5.115-3.3 4.946-8.991-4.231a.6.6 0 0 0-.155-.073l-3.235-1.522zm.389 7.23l8.693 4.09a.578.578 0 0 0 .727-.2l2.906-4.359v12.247l-12.326-5.8zm25.016 5.985l-11.533 5.767v-12.461l3.329 4.237a.579.579 0 0 0 .714.16l7.49-3.746zm-7.586-3.543l-3.609-4.593 11.569-5.061 2.918 4.215z" class="cls-1"/>
        <path id="Path_1243" d="M836.387 291.873a.578.578 0 0 0-1.091-.384l-1.212 3.449a.579.579 0 0 0 .353.738.592.592 0 0 0 .192.033.579.579 0 0 0 .546-.387z" class="cls-1"/>
    </g>
</svg>
