<svg xmlns="http://www.w3.org/2000/svg" width="35.196" height="35.195" viewBox="0 0 35.196 35.195">
    <defs>
        <style>
            .cls-1{fill:#ffffff}
        </style>
    </defs>
    <g id="Group_95" transform="translate(-250.602 -688.125)">
        <path id="Path_295" d="M251.477 723.32a.874.874 0 0 1-.822-1.175l4.239-11.6a.882.882 0 0 1 .2-.319l21.85-21.849a.874.874 0 0 1 1.237 0l7.357 7.357a.876.876 0 0 1 0 1.239l-21.849 21.849a.878.878 0 0 1-.319.2l-11.6 4.239a.886.886 0 0 1-.293.059zm4.994-11.988l-3.526 9.645 9.646-3.526 21.094-21.094-6.12-6.12z" class="cls-1"/>
        <path id="Path_296" d="M263.073 719.082a.872.872 0 0 1-.619-.256l-7.357-7.357a.875.875 0 0 1 1.237-1.239l7.358 7.358a.875.875 0 0 1-.619 1.494z" class="cls-1"/>
        <path id="Path_297" d="M281.514 700.642a.872.872 0 0 1-.619-.256l-7.357-7.358a.875.875 0 0 1 1.237-1.238l7.358 7.357a.876.876 0 0 1-.619 1.5z" class="cls-1"/>
        <path id="Path_298" d="M259.394 715.4a.875.875 0 0 1-.618-1.494l18.441-18.44a.875.875 0 0 1 1.237 1.238l-18.441 18.44a.872.872 0 0 1-.619.256z" class="cls-1"/>
        <path id="Path_299" d="M284.923 723.316H268.2a.875.875 0 1 1 0-1.75h16.723a.875.875 0 0 1 0 1.75z" class="cls-1"/>
    </g>
</svg>
