<?xml version="1.0" standalone="no"?>
<!DOCTYPE svg PUBLIC "-//W3C//DTD SVG 20010904//EN"
 "http://www.w3.org/TR/2001/REC-SVG-20010904/DTD/svg10.dtd">
<svg version="1.0" xmlns="http://www.w3.org/2000/svg"
 width="66.000000pt" height="66.000000pt" viewBox="0 0 66.000000 66.000000"
 preserveAspectRatio="xMidYMid meet">

<g transform="translate(0.000000,66.000000) scale(0.100000,-0.100000)"
fill="#1582c8" stroke="none">
<path d="M35 617 c-3 -7 -4 -129 -3 -272 3 -259 3 -260 25 -263 14 -2 23 -11
25 -25 3 -22 5 -22 208 -22 l205 0 5 29 5 28 19 -21 c37 -41 106 -18 106 35 0
26 -56 85 -102 109 -14 7 -22 19 -21 31 4 35 3 77 -4 209 -8 123 -9 130 -29
133 -12 2 -24 12 -27 23 -5 18 -15 19 -206 19 -154 0 -203 -3 -206 -13z m385
-91 l0 -75 -32 10 c-39 11 -95 -3 -133 -33 -57 -44 -72 -140 -32 -198 38 -57
71 -75 138 -75 55 0 59 -2 59 -22 l0 -23 -185 0 -185 0 0 245 0 245 185 0 185
0 0 -74z m60 -37 c0 -52 -3 -70 -12 -67 -8 3 -14 29 -16 71 -2 55 0 67 13 67
12 0 15 -14 15 -71z m-52 -69 c59 -36 78 -118 42 -177 -32 -54 -71 -71 -145
-63 -25 3 -23 4 14 9 25 3 46 12 49 19 3 9 -15 12 -66 12 -52 0 -71 4 -75 15
-5 11 8 15 69 17 41 2 74 7 74 13 0 6 -37 12 -82 15 -51 3 -83 10 -85 17 -3 9
20 13 81 15 112 4 117 22 8 26 -109 4 -108 25 1 32 43 3 77 10 77 15 0 6 -27
12 -61 15 -48 4 -59 8 -48 16 37 30 102 31 147 4z m65 -241 c-17 -17 -37 -1
-22 17 8 10 15 12 23 4 7 -7 7 -13 -1 -21z m109 -62 c6 -13 6 -23 -3 -33 -18
-22 -36 -17 -77 20 l-37 34 24 26 25 26 29 -27 c16 -16 33 -36 39 -46z m-122
-34 l0 -23 -185 0 c-117 0 -185 4 -185 10 0 6 59 10 158 10 169 0 182 3 182
50 l1 25 14 -25 c8 -14 14 -35 15 -47z"/>
<path d="M90 524 l0 -45 43 3 c42 3 42 3 45 46 l3 42 -45 0 -46 0 0 -46z m60
6 c0 -13 -7 -20 -20 -20 -13 0 -20 7 -20 20 0 13 7 20 20 20 13 0 20 -7 20
-20z"/>
<path d="M215 560 c3 -5 44 -10 91 -10 49 0 84 4 84 10 0 6 -37 10 -91 10 -57
0 -88 -4 -84 -10z"/>
<path d="M217 514 c-16 -17 11 -24 88 -24 79 0 114 11 79 24 -21 8 -159 8
-167 0z"/>
<path d="M90 416 l0 -46 46 0 45 0 -3 43 c-3 42 -3 42 -45 45 l-43 3 0 -45z
m60 -6 c0 -13 -7 -20 -20 -20 -13 0 -20 7 -20 20 0 13 7 20 20 20 13 0 20 -7
20 -20z"/>
<path d="M90 294 l0 -45 43 3 c42 3 42 3 45 46 l3 42 -45 0 -46 0 0 -46z m60
6 c0 -13 -7 -20 -20 -20 -13 0 -20 7 -20 20 0 13 7 20 20 20 13 0 20 -7 20
-20z"/>
<path d="M90 186 l0 -46 46 0 45 0 -3 43 c-3 42 -3 42 -45 45 l-43 3 0 -45z
m60 -6 c0 -13 -7 -20 -20 -20 -13 0 -20 7 -20 20 0 13 7 20 20 20 13 0 20 -7
20 -20z"/>
</g>
</svg>
