<svg xmlns="http://www.w3.org/2000/svg" width="27.895" height="44.567" viewBox="0 0 27.895 44.567">
    <defs>
        <linearGradient id="qp6q6d7rda" x2="1" y1=".5" y2=".5" gradientUnits="objectBoundingBox">
            <stop offset="0" stop-color="#3a4354"/>
            <stop offset="1" stop-color="#3a4354"/>
        </linearGradient>
    </defs>
    <g>
        <g>
            <path fill="url(#qp6q6d7rda)" d="M1595.633 130.668a4.218 4.218 0 0 0 .342.248c1.956 1.168 3.906 2.347 5.878 3.489a1.222 1.222 0 0 1 .7 1.213c-.028 2.585 0 5.171-.021 7.757 0 .4.085.613.508.737.876.256 1.728.593 2.595.88a.837.837 0 0 1 .639.906c-.013 2.309-.005 4.619-.005 6.929v.511c.76.077 1.494.144 2.226.228.632.073.817.277.817.894q0 7.3.006 14.6a.862.862 0 0 1-.6.9c-4.3 1.735-8.6 3.48-12.913 5.2a1.284 1.284 0 0 1-.869 0c-4.31-1.72-8.609-3.465-12.913-5.2a.865.865 0 0 1-.6-.9q.012-7.3.006-14.6c0-.615.188-.822.817-.9.732-.083 1.466-.151 2.227-.228v-.51-6.886c0-.6.114-.765.675-.96.863-.3 1.721-.617 2.594-.884.376-.115.471-.3.468-.679-.018-2.586.007-5.172-.021-7.757a1.254 1.254 0 0 1 .7-1.258c1.973-1.138 3.921-2.32 5.877-3.488.12-.072.228-.165.341-.248zm-1.861 6.954c0-.8.007-1.6 0-2.393-.005-.422-.134-.5-.506-.306-.962.5-1.926 1.007-2.871 1.54a.7.7 0 0 0-.3.5c-.024 1.45-.017 2.9-.012 4.35 0 .426.111.5.5.344.953-.383 1.9-.779 2.857-1.157a.489.489 0 0 0 .345-.529c-.02-.783-.012-1.571-.013-2.349zm3.2 0c0 .783.007 1.566 0 2.349a.489.489 0 0 0 .342.531c.956.377 1.9.773 2.858 1.156.386.155.5.08.5-.344.005-1.45.013-2.9-.012-4.35a.694.694 0 0 0-.3-.5c-.933-.527-1.884-1.022-2.832-1.521-.421-.222-.541-.149-.545.33-.013.782-.008 1.565-.008 2.348zm-3.2 10.364v-2.391c0-.289-.054-.493-.427-.385-.987.286-1.981.548-2.962.85a.534.534 0 0 0-.3.4c-.021 1.492-.015 2.985-.011 4.478 0 .269.123.392.415.343.957-.162 1.914-.321 2.874-.455.319-.044.411-.2.408-.49-.002-.786.004-1.568.004-2.351zm0 18.156v-2.4c0-.238-.036-.432-.326-.475q-1.462-.216-2.925-.446c-.325-.051-.451.083-.45.4q.008 2.178 0 4.357a.436.436 0 0 0 .378.489c.939.248 1.871.521 2.807.779.431.118.511.057.514-.4.007-.766.003-1.536.003-2.305zm3.2-18.165c0 .77.009 1.54-.005 2.309-.005.33.087.5.449.546.907.118 1.807.28 2.71.42.479.074.54.024.541-.451 0-1.409-.006-2.818.007-4.227a.489.489 0 0 0-.41-.56c-.924-.249-1.841-.522-2.763-.779-.437-.122-.524-.058-.527.389-.003.783.001 1.567.001 2.352zm0 18.119v2.308c0 .516.072.572.552.439.894-.248 1.782-.517 2.68-.745a.519.519 0 0 0 .467-.6c-.016-1.379-.005-2.758-.007-4.136 0-.543-.069-.6-.616-.516-.889.137-1.775.29-2.665.412a.41.41 0 0 0-.415.486c.013.783.007 1.567.007 2.356zm0-7.8v2.4c0 .254.032.478.374.446.968-.089 1.937-.181 2.906-.263.308-.026.422-.172.42-.479q-.014-2.157 0-4.314c0-.335-.133-.469-.464-.476-.914-.019-1.829-.047-2.743-.091-.357-.018-.5.11-.5.471.019.769.01 1.54.01 2.31zm-3.2.055c0-.77-.013-1.54.005-2.31.009-.392-.123-.549-.532-.526-.87.05-1.741.082-2.613.085-.444 0-.572.179-.565.6.019 1.365.021 2.731 0 4.1-.006.416.149.567.544.594.884.061 1.768.131 2.647.235.4.047.525-.091.519-.468-.013-.767-.004-1.537-.004-2.307zm-4.677 6.786c0-.711-.007-1.423 0-2.134 0-.28-.086-.423-.383-.462-.718-.1-1.435-.21-2.149-.332-.361-.061-.506.062-.5.432q.015 1.895 0 3.789a.455.455 0 0 0 .391.524q1.1.274 2.178.6c.375.114.47-.035.465-.375-.007-.674.003-1.356.003-2.039zm12.551-.062v2.133c0 .321.1.46.446.356.735-.22 1.474-.429 2.218-.618a.431.431 0 0 0 .367-.5c-.006-1.263-.011-2.525 0-3.788 0-.4-.154-.513-.529-.449q-1.071.185-2.148.334c-.277.039-.362.178-.359.439.012.703.006 1.4.006 2.096zm-12.55-16.044c0-.712-.008-1.423 0-2.135.006-.333-.115-.459-.445-.366-.752.215-1.51.411-2.255.65a.539.539 0 0 0-.313.387c-.024 1.335-.016 2.671-.013 4.007 0 .274.141.388.423.341q1.094-.185 2.191-.348a.413.413 0 0 0 .414-.489c-.014-.678.002-1.362.002-2.044zm12.552-.064c0 .682.018 1.365-.008 2.046-.014.369.123.519.48.566.69.09 1.377.2 2.061.326.343.062.494-.047.494-.4 0-1.291-.005-2.583 0-3.874a.423.423 0 0 0-.346-.473c-.74-.2-1.479-.413-2.217-.625-.347-.1-.478.026-.471.383.018.69.008 1.372.008 2.054zm0 9.21c0 .711.005 1.422 0 2.133 0 .291.106.434.416.4.749-.078 1.5-.153 2.251-.216a.341.341 0 0 0 .362-.388v-3.96c0-.271-.124-.386-.4-.392-.725-.015-1.45-.04-2.174-.079-.344-.019-.467.119-.459.456.014.685.003 1.369.003 2.049zm-12.55.032c0-.681-.012-1.363.005-2.045.009-.348-.1-.509-.471-.487-.724.042-1.449.066-2.174.081-.285.006-.385.143-.385.4v3.916c0 .3.137.4.421.424.708.055 1.416.121 2.12.207.372.045.5-.1.491-.455-.018-.674-.005-1.356-.005-2.038zm16.281 6.072c0 .623.006 1.245 0 1.868 0 .338.091.489.465.371.565-.178 1.139-.328 1.713-.476a.435.435 0 0 0 .367-.5q-.016-1.716 0-3.432c0-.351-.146-.468-.48-.413q-.856.141-1.716.263c-.272.038-.354.189-.349.448.007.628 0 1.251-.001 1.874zm-20.013-.016c0-.624-.008-1.249 0-1.873a.369.369 0 0 0-.372-.43c-.56-.079-1.119-.167-1.678-.259-.322-.053-.5.034-.493.4q.013 1.743 0 3.486a.416.416 0 0 0 .367.455c.574.152 1.15.3 1.718.476.334.1.461 0 .457-.336-.006-.637 0-1.277 0-1.916zm0-6.143c0-.624-.012-1.248.005-1.871.009-.338-.114-.475-.456-.454-.55.034-1.1.052-1.652.057-.315 0-.439.137-.436.45q.012 1.717 0 3.437c0 .3.107.452.422.473q.825.054 1.645.153c.335.041.486-.064.477-.418-.017-.606-.006-1.215-.006-1.824zm20.016-.063c0 .624.01 1.247 0 1.871-.007.334.105.482.459.439.561-.068 1.125-.115 1.688-.161.26-.021.395-.13.394-.407q-.008-1.763 0-3.524c0-.293-.123-.419-.416-.423-.565-.009-1.131-.029-1.7-.057-.321-.017-.439.118-.431.435.016.612.005 1.221.005 1.83z" transform="translate(-1581.424 -130.668)"/>
        </g>
    </g>
</svg>
