<svg xmlns="http://www.w3.org/2000/svg" width="14.195" height="12.809" viewBox="0 0 14.195 12.809"><defs><style>.a{fill:#1582c8;}</style></defs><g transform="translate(-1042.161 -264.828)"><path class="a" d="M1046.153,271.038h-.887a.416.416,0,1,0,0,.832h.887a.416.416,0,1,0,0-.832Z"/><path class="a" d="M1046.153,272.813h-.887a.416.416,0,1,0,0,.831h.887a.416.416,0,1,0,0-.831Z"/><path class="a" d="M1046.153,274.587h-.887a.416.416,0,1,0,0,.832h.887a.416.416,0,1,0,0-.832Z"/><path class="a" d="M1049.7,271.038h-.887a.416.416,0,0,0,0,.832h.887a.416.416,0,1,0,0-.832Z"/><path class="a" d="M1049.7,272.813h-.887a.416.416,0,1,0,0,.831h.887a.416.416,0,1,0,0-.831Z"/><path class="a" d="M1049.7,274.587h-.887a.416.416,0,0,0,0,.832h.887a.416.416,0,1,0,0-.832Z"/><path class="a" d="M1053.251,271.038h-.887a.416.416,0,1,0,0,.832h.887a.416.416,0,1,0,0-.832Z"/><path class="a" d="M1053.251,272.813h-.887a.416.416,0,1,0,0,.831h.887a.416.416,0,1,0,0-.831Z"/><path class="a" d="M1053.251,274.587h-.887a.416.416,0,1,0,0,.832h.887a.416.416,0,1,0,0-.832Z"/><path class="a" d="M1055.108,265.937h-1v-.693a.415.415,0,1,0-.831,0v.693h-3.605v-.693a.415.415,0,1,0-.831,0v.693h-3.6v-.693a.416.416,0,1,0-.831,0v.693h-1a1.25,1.25,0,0,0-1.248,1.248v9.2a1.25,1.25,0,0,0,1.248,1.248h11.7a1.25,1.25,0,0,0,1.248-1.248v-9.2A1.25,1.25,0,0,0,1055.108,265.937Zm-12.115,1.248a.416.416,0,0,1,.416-.416h1v.693a.416.416,0,1,0,.831,0v-.693h3.6v.693a.415.415,0,1,0,.831,0v-.693h3.605v.693a.415.415,0,1,0,.831,0v-.693h1a.416.416,0,0,1,.416.416v1.635h-12.531Zm12.115,9.62h-11.7a.416.416,0,0,1-.416-.416v-6.737h12.531v6.737A.416.416,0,0,1,1055.108,276.8Z"/></g></svg>