<svg xmlns="http://www.w3.org/2000/svg" width="70.246" height="72" viewBox="0 0 70.246 72">
    <defs>
        <style>
            .cls-2{fill:#3a4354}
        </style>
    </defs>
    <g id="Group_131" transform="translate(-1034.959 -3470.485)">
        <path id="Path_121" fill="#e91c24" d="M1095.394 3529.688h-4.219v-21.235a21.094 21.094 0 0 0-42.187 0v21.235h-4.219a2.109 2.109 0 0 0-2.109 2.109v8.578a2.11 2.11 0 0 0 2.109 2.11h50.625a2.111 2.111 0 0 0 2.11-2.11v-8.575a2.11 2.11 0 0 0-2.11-2.112zm-42.187-21.235a16.875 16.875 0 0 1 33.75 0v21.235h-33.75zm40.078 29.813h-46.406v-4.36h46.406z"/>
        <g id="Group_130">
            <path id="Path_122" d="M1069.941 3483.141a2.11 2.11 0 0 0 2.109-2.11v-8.437a2.109 2.109 0 0 0-4.218 0v8.437a2.11 2.11 0 0 0 2.109 2.11z" class="cls-2"/>
            <path id="Path_123" d="M1053.332 3486.122a2.109 2.109 0 0 0 3.654-2.109l-4.219-7.307a2.109 2.109 0 0 0-3.653 2.109z" class="cls-2"/>
            <path id="Path_124" d="M1046.2 3497.009a2.11 2.11 0 0 0-.772-2.882l-7.307-4.218a2.109 2.109 0 1 0-2.109 3.653l7.307 4.219a2.109 2.109 0 0 0 2.881-.772z" class="cls-2"/>
            <path id="Path_125" d="M1083.95 3486.894a2.108 2.108 0 0 0 2.881-.772l4.219-7.307a2.109 2.109 0 0 0-3.654-2.109l-4.218 7.307a2.108 2.108 0 0 0 .772 2.881z" class="cls-2"/>
            <path id="Path_126" d="M1104.922 3490.681a2.11 2.11 0 0 0-2.882-.772l-7.307 4.218a2.11 2.11 0 0 0 2.109 3.654l7.308-4.219a2.109 2.109 0 0 0 .772-2.881z" class="cls-2"/>
        </g>
    </g>
</svg>
