<svg xmlns="http://www.w3.org/2000/svg" width="21.089" height="21.088" viewBox="0 0 21.089 21.088">
    <defs>
        <style>
            .cls-1{fill:#3a4354}
        </style>
    </defs>
    <g id="Group_279" transform="translate(-1324.677 -4464.674)">
        <path id="Path_337" d="M1335.222 4464.674a10.544 10.544 0 1 0 10.544 10.545 10.558 10.558 0 0 0-10.544-10.545zm0 18.968a8.424 8.424 0 1 1 8.424-8.423 8.435 8.435 0 0 1-8.424 8.423z" class="cls-1"/>
        <path id="Path_338" d="M1334.252 4475.972c-.054-.05-.087-.079-.118-.11l-1.938-1.936a.626.626 0 0 0-1 0q-.249.248-.495.5a.623.623 0 0 0 .008 1q1.5 1.508 3.012 3.012a.633.633 0 0 0 1.048 0c.493-.491.984-.985 1.476-1.477q1.761-1.759 3.52-3.519a.623.623 0 0 0 0-.969l-.5-.5a.633.633 0 0 0-1.025 0q-1.266 1.263-2.528 2.527l-1.46 1.472z" class="cls-1"/>
    </g>
</svg>
