<svg xmlns="http://www.w3.org/2000/svg" width="12.867" height="12.867" viewBox="0 0 12.867 12.867">
    <defs>
        <style>
            .cls-2{fill:#3a4354}
        </style>
    </defs>
    <g id="Group_382" opacity="0.5" transform="translate(-5046.971 -1659.044)">
        <g id="Group_381">
            <path id="Path_585" d="M5053.4 1659.044a6.434 6.434 0 1 0 6.434 6.434 6.441 6.441 0 0 0-6.434-6.434zm0 11.817a5.383 5.383 0 1 1 5.383-5.383 5.389 5.389 0 0 1-5.383 5.383z" class="cls-2"/>
            <path id="Path_586" d="M5055.324 1662.2l-1.92 1.92-1.92-1.92-1.114 1.114 1.92 1.92-1.92 1.92 1.114 1.115 1.92-1.92 1.919 1.92 1.115-1.114-1.92-1.92 1.92-1.92z" class="cls-2"/>
        </g>
    </g>
</svg>
