<svg xmlns="http://www.w3.org/2000/svg" width="12.693" height="12.693" viewBox="0 0 12.693 12.693">
    <defs>
        <style>
            .cls-1{fill:#516575}
        </style>
    </defs>
    <g id="Group_1203" transform="translate(-1795.207 -211.511)">
        <path id="Path_1361" d="M1801.554 211.511a6.346 6.346 0 1 0 6.346 6.347 6.354 6.354 0 0 0-6.346-6.347zm0 11.657a5.311 5.311 0 1 1 5.309-5.31 5.316 5.316 0 0 1-5.309 5.31z" class="cls-1"/>
        <path id="Path_1362" d="M1803.448 214.622l-1.894 1.894-1.894-1.894-1.1 1.1 1.894 1.894-1.894 1.894 1.1 1.1 1.894-1.894 1.894 1.894 1.1-1.1-1.894-1.894 1.894-1.894z" class="cls-1"/>
    </g>
</svg>
