<svg xmlns="http://www.w3.org/2000/svg" xmlns:xlink="http://www.w3.org/1999/xlink" width="22" height="28.229" viewBox="0 0 22 28.229">
    <defs>
        <linearGradient id="bvtbmpqc4a" x2="1" y1=".5" y2=".5" gradientUnits="objectBoundingBox">
            <stop offset="0" stop-color="#ffffff"/>
            <stop offset="1" stop-color="#ffffff"/>
        </linearGradient>
        <linearGradient id="cs9yz2p4yb" x1="0" x2="1" y1=".5" y2=".5" xlink:href="#bvtbmpqc4a"/>
        <linearGradient id="xdigv2qk4c" x1="0" x2="1" y1=".5" y2=".5" xlink:href="#bvtbmpqc4a"/>
        <linearGradient id="qfwxg72dxd" x1="0" x2="1" y1=".5" y2=".5" xlink:href="#bvtbmpqc4a"/>
        <linearGradient id="mz3yssedse" x1="0" x2="1" y1=".5" y2=".5" xlink:href="#bvtbmpqc4a"/>
        <linearGradient id="ryq8j8a5ef" x1="0" x2="1" y1=".5" y2=".5" xlink:href="#bvtbmpqc4a"/>
        <linearGradient id="2bdy6jp3yg" x1="0" x2="1" y1=".5" y2=".5" xlink:href="#bvtbmpqc4a"/>
        <linearGradient id="erf3509fah" x1="0" x2="1" y1=".5" y2=".5" xlink:href="#bvtbmpqc4a"/>
        <linearGradient id="ctm7sblnli" x1="0" x2="1" y1=".5" y2=".5" xlink:href="#bvtbmpqc4a"/>
        <linearGradient id="u8ooca8aoj" x1="0" x2="1" y1=".5" y2=".5" xlink:href="#bvtbmpqc4a"/>
    </defs>
    <g>
        <path fill="url(#bvtbmpqc4a)" d="M2157.672 2615.479h3.445c.407 0 .626.136.723.424a.609.609 0 0 1-.47.807 1.625 1.625 0 0 1-.312.021h-6.765a1.638 1.638 0 0 1-.343-.027.615.615 0 0 1 .027-1.2 3.061 3.061 0 0 1 .469-.021q1.612-.006 3.226-.004z" transform="translate(-2144.81 -2601.05)"/>
        <path fill="url(#cs9yz2p4yb)" d="M2157.667 2620.264h3.321a2.176 2.176 0 0 1 .405.025.615.615 0 0 1 .042 1.191 1.384 1.384 0 0 1-.341.036h-6.828a1.657 1.657 0 0 1-.281-.018.617.617 0 0 1 .019-1.218 2.74 2.74 0 0 1 .375-.016q1.644-.002 3.288 0z" transform="translate(-2144.81 -2601.05)"/>
        <path fill="url(#xdigv2qk4c)" d="M2157.7 2610.694h3.289a2.2 2.2 0 0 1 .405.025.614.614 0 0 1 .04 1.191 1.544 1.544 0 0 1-.372.035h-6.766a1.681 1.681 0 0 1-.342-.026.616.616 0 0 1 .02-1.2 2.219 2.219 0 0 1 .374-.021q1.677-.006 3.352-.004z" transform="translate(-2144.81 -2601.05)"/>
        <path fill="url(#qfwxg72dxd)" d="M2149.486 2611.323c.466-.467.858-.868 1.258-1.26a.6.6 0 0 1 .77-.118.567.567 0 0 1 .292.663.76.76 0 0 1-.192.346q-.784.807-1.589 1.594a.625.625 0 0 1-.986 0c-.255-.245-.507-.495-.751-.752a.625.625 0 1 1 .872-.892 3.658 3.658 0 0 1 .326.419z" transform="translate(-2144.81 -2601.05)"/>
        <path fill="url(#mz3yssedse)" d="M2149.511 2616.093c.451-.456.841-.859 1.242-1.252a.594.594 0 0 1 .771-.1.566.566 0 0 1 .28.668.868.868 0 0 1-.219.366q-.764.784-1.545 1.55a.632.632 0 0 1-1.009 0c-.247-.239-.491-.482-.729-.73a.628.628 0 1 1 .89-.878c.108.1.189.221.319.376z" transform="translate(-2144.81 -2601.05)"/>
        <path fill="url(#ryq8j8a5ef)" d="M2149.5 2620.886c.437-.441.8-.813 1.168-1.18.343-.342.712-.371.986-.084a.657.657 0 0 1-.1.965q-.737.744-1.48 1.482a.654.654 0 0 1-1.077.011c-.238-.234-.476-.468-.706-.709a.626.626 0 1 1 .882-.884 4.381 4.381 0 0 1 .327.399z" transform="translate(-2144.81 -2601.05)"/>
        <path fill="url(#2bdy6jp3yg)" d="M2161.256 2625.36c-.407 0-.815.007-1.222 0a.624.624 0 1 1-.008-1.246q1.254-.016 2.508 0a.625.625 0 1 1-.024 1.247c-.418.006-.836 0-1.254-.001z" transform="translate(-2144.81 -2601.05)"/>
        <path fill="url(#erf3509fah)" d="M2158.173 2625.357a.608.608 0 0 1-.619-.611.626.626 0 0 1 .635-.635.643.643 0 0 1 .626.619.626.626 0 0 1-.642.627z" transform="translate(-2144.81 -2601.05)"/>
        <g>
            <path fill="url(#ctm7sblnli)" d="M2155.8 2604.815a.587.587 0 0 0 .59-.585.576.576 0 0 0-1.153 0 .589.589 0 0 0 .563.585z" transform="translate(-2144.81 -2601.05)"/>
            <path fill="url(#u8ooca8aoj)" d="M2166.787 2627.819a3.468 3.468 0 0 0 .023-.415c-.018-7.512-.01-13.637-.01-21.15a2.666 2.666 0 0 0-.022-.341v-.054a1.726 1.726 0 0 0-.061-.268 1.4 1.4 0 0 0-.387-.637 1.479 1.479 0 0 0-.915-.4h-.088a.64.64 0 0 0-.14-.02.583.583 0 0 0-.168.022h-2.909c-.173 0-.246-.043-.282-.23a1.9 1.9 0 0 0-.118-.381 1.739 1.739 0 0 0-1.582-1.108c-.433-.021-.867 0-1.3-.017a.349.349 0 0 1-.258-.118 3.68 3.68 0 0 0-.325-.483 3 3 0 0 0-.23-.257c-.04-.04-.082-.079-.124-.117l-.074-.062-.024-.02a3.238 3.238 0 0 0-1.457-.665l-.094-.028-.022-.016h-.81c-.265.081-.538.142-.794.246a2.943 2.943 0 0 0-1.5 1.333.348.348 0 0 1-.176.174h-.009a.447.447 0 0 1-.154.02c-.414-.009-.828-.013-1.242.006a1.862 1.862 0 0 0-.905.279 1.606 1.606 0 0 0-.634.683 1.825 1.825 0 0 0-.184.517c-.036.187-.109.231-.282.23-1-.006-2 0-3.005 0a1.533 1.533 0 0 0-1.692 1.7c0 7.512.008 13.637-.01 21.149a3.358 3.358 0 0 0 .021.4 1.647 1.647 0 0 0 .029.274 1.591 1.591 0 0 0 1.182 1.214h19.544a1.77 1.77 0 0 0 .808-.5 1.454 1.454 0 0 0 .366-.725 1.572 1.572 0 0 0 .014-.235zm-15.873-22.794v-.318a.689.689 0 0 1 .718-.709c.539-.014 1.078 0 1.618-.007a.632.632 0 0 0 .734-.506 1.95 1.95 0 0 1 3.518-.287 2.039 2.039 0 0 1 .13.275 1.466 1.466 0 0 0 .123.256c.127.2.286.26.617.262h1.5a.774.774 0 0 1 .712.307l.017.03.013.024.02.045.006.014a.976.976 0 0 1 .059.282c.006.106 0 .212 0 .318 0 1.071-.13 1.2-1.188 1.2h-7.656c-.477 0-.738-.1-.862-.366a2.493 2.493 0 0 1-.079-.82zm-1.408.667c.185 0 .259.047.3.243a1.856 1.856 0 0 0 .13.382 1.591 1.591 0 0 0 .985.926 1.665 1.665 0 0 0 .291.083 2.611 2.611 0 0 0 .533.056c1.455.006 2.91 0 4.365 0 1.329 0 2.659.011 3.988-.014a1.76 1.76 0 0 0 1.164-.467 1.493 1.493 0 0 0 .333-.412 1.873 1.873 0 0 0 .215-.545c.043-.2.117-.244.3-.242 1 .007 2 0 3.006 0 .238 0 .373.033.446.137l.009.014.01.016a.866.866 0 0 1 .051.367v21.332c0 .446-.093.537-.543.537h-18.586c-.262 0-.4-.037-.47-.16a.861.861 0 0 1-.053-.366v-21.331c0-.4.06-.485.394-.551h.121c1.005-.003 2.005.003 3.011-.005z" transform="translate(-2144.81 -2601.05)"/>
        </g>
    </g>
</svg>
