<svg xmlns="http://www.w3.org/2000/svg" width="25.576" height="25.573" viewBox="0 0 25.576 25.573">
    <defs>
        <style>
            .cls-1{fill:#158dcf}
        </style>
    </defs>
    <g id="Group_112" transform="translate(-1020.171 -399.91)">
        <path id="Path_162" d="M1032.306 423.509h-.349a11.8 11.8 0 1 1 11.816-11.785v.319a.494.494 0 0 1-.988 0v-.319a10.814 10.814 0 1 0-10.828 10.8h.349a.493.493 0 0 1 0 .986z" class="cls-1"/>
        <path id="Path_163" d="M1031.551 421.536h-.021a9.832 9.832 0 1 1 10.27-10.236.494.494 0 0 1-.47.516.508.508 0 0 1-.516-.47 8.858 8.858 0 1 0-9.241 9.209.493.493 0 0 1-.02.986z" class="cls-1"/>
        <path id="Path_164" d="M1031.957 403.8a.493.493 0 0 1-.493-.493v-.929a.494.494 0 0 1 .987 0v.929a.493.493 0 0 1-.494.493z" class="cls-1"/>
        <path id="Path_165" d="M1023.568 412.217h-.958a.493.493 0 1 1 0-.986h.958a.493.493 0 1 1 0 .986z" class="cls-1"/>
        <path id="Path_166" d="M1032.857 411.841a.494.494 0 0 1-.189-.95l2.584-1.074a.494.494 0 0 1 .379.912l-2.584 1.074a.507.507 0 0 1-.19.038zm-1.655-.234a.49.49 0 0 1-.31-.11l-4.761-3.86a.493.493 0 1 1 .622-.766l4.761 3.86a.493.493 0 0 1-.312.876z" class="cls-1"/>
        <path id="Path_167" d="M1031.957 413.175a1.453 1.453 0 0 1-1.451-1.451 1.466 1.466 0 1 1 1.451 1.451zm0-1.945a.48.48 0 0 0-.464.494.47.47 0 0 0 .464.465.48.48 0 1 0 0-.959z" class="cls-1"/>
        <path id="Path_168" d="M1039.447 425.483a6.3 6.3 0 1 1 6.3-6.3 6.306 6.306 0 0 1-6.3 6.3zm0-11.612a5.313 5.313 0 1 0 5.313 5.314 5.321 5.321 0 0 0-5.313-5.314z" class="cls-1"/>
        <path id="Path_169" d="M1038.867 419.678a1.611 1.611 0 0 1 0-3.221.493.493 0 1 1 0 .986.611.611 0 0 0-.61.61.618.618 0 0 0 .61.639.493.493 0 1 1 0 .986z" class="cls-1"/>
        <path id="Path_170" d="M1040 421.913a.493.493 0 1 1 0-.986.625.625 0 1 0 0-1.249.493.493 0 1 1 0-.986 1.611 1.611 0 1 1 0 3.221z" class="cls-1"/>
        <path id="Path_171" d="M1040 419.678h-1.132a.493.493 0 1 1 0-.986H1040a.493.493 0 0 1 0 .986z" class="cls-1"/>
        <path id="Path_172" d="M1040 421.913h-2.236a.493.493 0 0 1 0-.986H1040a.493.493 0 0 1 0 .986z" class="cls-1"/>
        <path id="Path_173" d="M1041.131 417.443h-2.264a.493.493 0 1 1 0-.986h2.264a.493.493 0 1 1 0 .986z" class="cls-1"/>
        <path id="Path_174" d="M1039.447 417.443a.493.493 0 0 1-.493-.493v-.93a.494.494 0 0 1 .987 0v.93a.493.493 0 0 1-.494.493z" class="cls-1"/>
        <path id="Path_175" d="M1039.447 422.842a.493.493 0 0 1-.493-.493v-.929a.494.494 0 0 1 .987 0v.929a.493.493 0 0 1-.494.493z" class="cls-1"/>
    </g>
</svg>
