<svg xmlns="http://www.w3.org/2000/svg" width="25.021" height="28.151" viewBox="0 0 25.021 28.151">
    <defs>
        <style>
            .cls-1{fill:#158dcf}
        </style>
    </defs>
    <g id="Group_111" transform="translate(-599.448 -685.403)">
        <path id="Path_149" d="M615.458 707.068a.543.543 0 0 1-.543-.543 4.939 4.939 0 0 1 1.61-3.689 6.722 6.722 0 1 0-11.293-4.939 6.782 6.782 0 0 0 2.133 4.943 4.934 4.934 0 0 1 1.606 3.685.544.544 0 0 1-1.087 0 3.821 3.821 0 0 0-1.265-2.894 7.818 7.818 0 1 1 13.153-5.734 7.773 7.773 0 0 1-2.506 5.734 3.824 3.824 0 0 0-1.266 2.894.543.543 0 0 1-.542.543z" class="cls-1"/>
        <path id="Path_150" d="M614.755 711.733h-5.592a2.111 2.111 0 0 1-2.109-2.109v-3.1a.542.542 0 0 1 .543-.543h8.724a.542.542 0 0 1 .543.543v3.1a2.111 2.111 0 0 1-2.109 2.109zm-6.615-4.665v2.556a1.024 1.024 0 0 0 1.023 1.024h5.592a1.024 1.024 0 0 0 1.022-1.024v-2.556z" class="cls-1"/>
        <path id="Path_151" d="M613.828 713.554h-3.77a1.455 1.455 0 0 1-1.439-1.469v-.9a.543.543 0 0 1 .544-.542h5.592a.542.542 0 0 1 .543.542v.9a1.47 1.47 0 0 1-1.47 1.469zm-4.122-1.821v.352a.379.379 0 0 0 .352.384h3.77a.384.384 0 0 0 .384-.384v-.352z" class="cls-1"/>
        <path id="Path_152" d="M611.943 688.277a.542.542 0 0 1-.543-.542v-1.789a.543.543 0 0 1 1.086 0v1.789a.542.542 0 0 1-.543.542z" class="cls-1"/>
        <path id="Path_153" d="M601.749 698.472h-1.757a.543.543 0 1 1 0-1.086h1.757a.543.543 0 0 1 0 1.086z" class="cls-1"/>
        <path id="Path_154" d="M623.926 698.472h-1.757a.543.543 0 1 1 0-1.086h1.757a.543.543 0 0 1 0 1.086z" class="cls-1"/>
        <path id="Path_155" d="M604.721 691.249a.542.542 0 0 1-.384-.159l-1.246-1.246a.543.543 0 0 1 .768-.768l1.246 1.246a.543.543 0 0 1-.384.927z" class="cls-1"/>
        <path id="Path_156" d="M620.411 706.94a.541.541 0 0 1-.384-.159l-1.246-1.246a.543.543 0 0 1 .768-.768l1.246 1.246a.543.543 0 0 1-.384.927z" class="cls-1"/>
        <path id="Path_157" d="M603.475 706.94a.543.543 0 0 1-.384-.927l1.246-1.246a.543.543 0 0 1 .768.768l-1.246 1.246a.541.541 0 0 1-.384.159z" class="cls-1"/>
        <path id="Path_158" d="M619.165 691.249a.543.543 0 0 1-.384-.927l1.246-1.246a.543.543 0 0 1 .768.768l-1.246 1.246a.542.542 0 0 1-.384.159z" class="cls-1"/>
        <path id="Path_159" d="M610.505 704.83a.542.542 0 0 1-.54-.485l-.639-6.071a.543.543 0 1 1 1.08-.115l.639 6.071a.534.534 0 0 1-.54.6z" class="cls-1"/>
        <path id="Path_160" d="M613.381 704.83a.534.534 0 0 1-.54-.6l.639-6.071a.533.533 0 0 1 .6-.483.544.544 0 0 1 .483.6l-.639 6.071a.542.542 0 0 1-.543.483z" class="cls-1"/>
        <path id="Path_161" d="M614.02 698.76a.547.547 0 0 1-.3-.091 3.232 3.232 0 0 0-3.557 0 .544.544 0 0 1-.593-.911 4.326 4.326 0 0 1 4.752 0 .544.544 0 0 1-.3 1z" class="cls-1"/>
    </g>
</svg>
