<svg xmlns="http://www.w3.org/2000/svg" width="15.936" height="10.624" viewBox="0 0 15.936 10.624"><defs><style>.a{fill:#3a4354;}</style></defs><g transform="translate(-489.107 -283.921)"><path class="a" d="M504.226,283.921h-14.3a.82.82,0,0,0-.817.817v8.99a.82.82,0,0,0,.817.817h14.3a.819.819,0,0,0,.817-.817v-8.99A.82.82,0,0,0,504.226,283.921Zm-.307.613-6.374,4.781a.854.854,0,0,1-.94,0l-6.374-4.781Zm-3.4,5.1,3.473,4.291.011.011H490.151l.012-.011,3.473-4.291a.306.306,0,1,0-.477-.385l-3.439,4.248v-8.576l6.518,4.888a1.46,1.46,0,0,0,1.675,0l6.517-4.888v8.576l-3.439-4.248a.306.306,0,1,0-.476.385Z"/></g></svg>