<?xml version="1.0" standalone="no"?>
<!DOCTYPE svg PUBLIC "-//W3C//DTD SVG 20010904//EN"
 "http://www.w3.org/TR/2001/REC-SVG-20010904/DTD/svg10.dtd">
<svg version="1.0" xmlns="http://www.w3.org/2000/svg"
 width="234.000000pt" height="216.000000pt" viewBox="0 0 234.000000 216.000000"
 preserveAspectRatio="xMidYMid meet">

<g transform="translate(0.000000,216.000000) scale(0.100000,-0.100000)"
fill="#000000" stroke="none">
<path d="M400 2110 c0 -39 1 -40 35 -40 34 0 35 1 35 40 0 39 -1 40 -35 40
-34 0 -35 -1 -35 -40z"/>
<path d="M1070 2013 c-147 -23 -205 -48 -181 -77 9 -11 24 -10 89 6 110 27
290 26 397 -2 160 -41 297 -122 411 -243 156 -163 235 -364 233 -590 -1 -155
-3 -156 -88 -42 -51 67 -77 95 -88 91 -8 -3 -17 -6 -19 -6 -25 0 156 -263 191
-276 15 -6 265 174 265 192 0 6 -7 17 -15 24 -15 13 -12 15 -160 -96 l-30 -23
0 132 c-1 102 -6 152 -23 220 -89 358 -369 619 -729 682 -79 14 -194 18 -253
8z"/>
<path d="M345 1971 c-53 -25 -101 -76 -120 -130 -29 -83 -16 -141 51 -232 28
-39 38 -64 46 -121 14 -95 44 -128 113 -128 38 0 52 5 75 28 17 17 31 44 34
65 3 21 8 53 11 72 3 19 22 58 42 87 66 98 77 147 48 229 -31 87 -118 149
-210 149 -28 0 -68 -9 -90 -19z m172 -72 c43 -26 77 -99 69 -144 -4 -19 -26
-65 -49 -104 l-42 -70 -57 -1 c-55 0 -58 1 -74 33 -9 17 -27 44 -40 59 -71 86
-41 207 61 243 46 16 86 11 132 -16z m-47 -418 c0 -35 -22 -55 -49 -46 -22 7
-38 46 -26 64 3 6 22 11 41 11 31 0 34 -3 34 -29z"/>
<path d="M89 1928 c-11 -27 -10 -32 6 -44 28 -21 43 -17 59 14 15 28 14 29
-19 45 l-33 16 -13 -31z"/>
<path d="M725 1938 c-11 -6 -21 -12 -23 -14 -4 -3 27 -64 33 -64 12 0 55 24
55 31 0 18 -24 59 -34 59 -6 0 -20 -6 -31 -12z"/>
<path d="M122 1622 c-21 -16 -22 -21 -11 -45 14 -32 28 -34 59 -9 22 18 22 19
5 45 -20 32 -23 32 -53 9z"/>
<path d="M696 1618 c-22 -31 -20 -43 11 -57 24 -11 29 -10 45 9 24 30 23 37
-11 55 -28 14 -31 14 -45 -7z"/>
<path d="M156 1204 c-89 -67 -126 -100 -124 -112 6 -33 39 -23 114 33 41 30
80 58 87 60 9 4 12 -30 12 -142 0 -170 14 -236 76 -371 203 -440 710 -642
1155 -462 56 23 71 42 49 60 -10 8 -33 4 -97 -18 -117 -42 -218 -56 -341 -49
-124 7 -194 26 -312 81 -297 141 -488 449 -484 781 1 44 4 92 8 107 6 26 9 23
79 -68 50 -65 79 -94 90 -92 9 2 17 13 16 23 0 22 -167 250 -188 258 -6 3 -69
-38 -140 -89z"/>
<path d="M1346 1269 c-79 -12 -159 -50 -201 -96 l-34 -37 -38 21 c-57 32 -156
54 -226 51 -57 -3 -62 -5 -71 -31 -14 -40 8 -180 40 -244 55 -114 163 -166
344 -166 144 1 259 41 318 113 30 36 62 112 73 174 12 73 9 190 -6 205 -15 14
-133 20 -199 10z m162 -109 c4 -66 -13 -162 -38 -210 -37 -73 -111 -115 -230
-132 -44 -6 -83 -8 -87 -4 -4 4 46 60 110 124 118 118 118 118 97 137 -21 19
-21 18 -131 -98 -61 -64 -115 -117 -121 -117 -14 0 -2 119 17 180 28 85 98
147 192 169 21 5 72 9 113 8 l75 -2 3 -55z m-499 -31 c71 -30 76 -38 60 -101
-7 -29 -14 -55 -16 -57 -2 -3 -25 17 -52 43 -48 48 -49 48 -61 26 -11 -20 -7
-28 49 -84 49 -50 61 -68 61 -94 0 -40 -21 -42 -89 -7 -79 40 -113 96 -132
216 -6 38 -7 74 -3 80 10 17 124 4 183 -22z"/>
<path d="M1934 786 c-13 -33 0 -51 39 -54 36 -3 37 -3 37 32 0 34 -2 36 -35
36 -22 0 -38 -6 -41 -14z"/>
<path d="M1875 631 c-80 -37 -125 -111 -125 -206 0 -55 25 -125 51 -141 22
-13 59 -109 59 -153 0 -36 6 -49 34 -77 48 -48 104 -48 152 0 27 27 34 42 34
72 1 53 21 104 66 170 33 48 39 64 42 123 4 74 -9 113 -57 164 -61 67 -171 87
-256 48z m183 -78 c15 -10 37 -39 50 -64 30 -58 23 -95 -34 -181 l-44 -68 -55
0 c-60 0 -56 -3 -133 119 -42 66 -18 147 59 199 27 19 43 23 82 19 27 -2 61
-13 75 -24z m-48 -407 c0 -26 -23 -56 -44 -56 -20 0 -36 22 -36 52 0 26 3 28
40 28 36 0 40 -3 40 -24z"/>
<path d="M1627 585 l-17 -35 31 -16 c17 -8 32 -14 34 -12 7 9 25 48 25 55 0 5
-13 16 -28 25 l-29 17 -16 -34z"/>
<path d="M2259 602 c-25 -17 -26 -19 -13 -45 16 -29 39 -34 66 -14 15 12 15
16 1 45 -18 36 -19 37 -54 14z"/>
<path d="M1658 282 l-27 -18 20 -33 19 -32 30 21 c30 21 30 22 13 51 -20 34
-20 34 -55 11z"/>
<path d="M2227 271 c-16 -28 -16 -29 8 -45 34 -22 42 -20 59 12 14 27 14 29
-14 45 -36 21 -33 22 -53 -12z"/>
</g>
</svg>
