<svg xmlns="http://www.w3.org/2000/svg" width="26.082" height="23.919" viewBox="0 0 26.082 23.919">
    <defs>
        <style>
            .cls-1{fill:#158dcf}
        </style>
    </defs>
    <g id="Group_113" transform="translate(-175.918 -402.086)">
        <path id="Path_176" d="M201.5 406.051h-25.079a.5.5 0 0 1-.5-.5v-2.959a.5.5 0 0 1 .5-.5H201.5a.5.5 0 0 1 .5.5v2.959a.5.5 0 0 1-.5.5zm-24.573-1.005h24.069v-1.955h-24.072z" class="cls-1"/>
        <path id="Path_177" d="M199.6 422.364h-21.284a.5.5 0 0 1-.5-.5v-16.316a.5.5 0 0 1 .5-.5H199.6a.5.5 0 0 1 .5.5v16.313a.5.5 0 0 1-.5.503zm-20.783-1.006H199.1v-15.307h-20.281z" class="cls-1"/>
        <path id="Path_178" d="M188.944 423.9a.5.5 0 0 1-.5-.5v-1.539a.5.5 0 0 1 1.006 0v1.539a.5.5 0 0 1-.506.5z" class="cls-1"/>
        <path id="Path_179" d="M188.944 426.005a1.554 1.554 0 1 1 1.569-1.569 1.556 1.556 0 0 1-1.569 1.569zm0-2.1a.548.548 0 0 0-.533.533.548.548 0 1 0 .533-.533z" class="cls-1"/>
        <path id="Path_180" d="M181.987 418.515a.5.5 0 0 1-.5-.5V411.8a.5.5 0 0 1 1.007 0v6.217a.5.5 0 0 1-.507.498z" class="cls-1"/>
        <path id="Path_181" d="M184.77 418.515a.5.5 0 0 1-.5-.5v-3.019a.5.5 0 0 1 1.007 0v3.019a.5.5 0 0 1-.507.5z" class="cls-1"/>
        <path id="Path_182" d="M187.553 418.515a.5.5 0 0 1-.5-.5v-4.5a.5.5 0 0 1 1.006 0v4.5a.5.5 0 0 1-.506.5z" class="cls-1"/>
        <path id="Path_183" d="M190.335 418.515a.5.5 0 0 1-.5-.5V409.4a.5.5 0 0 1 1.007 0v8.614a.5.5 0 0 1-.507.501z" class="cls-1"/>
        <path id="Path_184" d="M193.148 418.515a.5.5 0 0 1-.5-.5v-6.987a.5.5 0 0 1 1.006 0v6.987a.5.5 0 0 1-.506.5z" class="cls-1"/>
        <path id="Path_185" d="M195.931 418.515a.5.5 0 0 1-.5-.5v-5.447a.5.5 0 0 1 1.006 0v5.447a.5.5 0 0 1-.506.5z" class="cls-1"/>
    </g>
</svg>
