<?xml version="1.0" standalone="no"?>
<!DOCTYPE svg PUBLIC "-//W3C//DTD SVG 20010904//EN"
 "http://www.w3.org/TR/2001/REC-SVG-20010904/DTD/svg10.dtd">
<svg version="1.0" xmlns="http://www.w3.org/2000/svg"
 width="940.000000pt" height="980.000000pt" viewBox="0 0 940.000000 980.000000"
 preserveAspectRatio="xMidYMid meet">

<g transform="translate(0.000000,980.000000) scale(0.100000,-0.100000)"
fill="#000000" stroke="none">
<path d="M660 9785 c-200 -43 -394 -173 -504 -339 -82 -124 -127 -246 -146
-400 -14 -111 -14 -8181 0 -8292 14 -111 35 -187 75 -272 118 -249 324 -415
581 -467 71 -14 418 -15 3564 -13 3324 3 3488 4 3545 21 288 87 505 312 581
604 23 87 27 124 31 325 3 126 3 228 0 228 -4 0 -60 -27 -125 -59 -143 -72
-289 -131 -420 -170 l-97 -29 -6 -73 c-3 -41 -12 -87 -21 -104 -25 -46 -72
-86 -114 -96 -52 -11 -6766 -11 -6818 0 -47 11 -92 52 -117 106 -18 39 -19
170 -19 4145 0 3949 1 4107 19 4145 10 22 34 55 55 73 l37 32 3434 0 3434 0
37 -32 c21 -18 45 -51 55 -73 18 -38 19 -111 19 -1545 l0 -1505 99 -28 c128
-37 320 -115 440 -177 52 -28 98 -50 103 -50 5 0 7 706 6 1668 l-3 1667 -27
98 c-82 297 -293 516 -583 604 -57 17 -208 18 -3555 20 -2951 1 -3505 -1
-3560 -12z"/>
<path d="M2560 8551 l0 -170 -57 -11 c-109 -21 -251 -72 -328 -116 -260 -153
-418 -474 -402 -819 10 -222 76 -384 215 -536 116 -125 274 -211 647 -349 382
-141 477 -201 511 -317 23 -78 16 -182 -17 -253 -37 -79 -81 -125 -156 -162
-58 -28 -76 -32 -174 -36 -186 -8 -297 27 -399 124 -69 65 -117 153 -144 260
-10 38 -20 74 -21 80 -3 11 -547 -125 -562 -140 -9 -9 32 -155 67 -239 137
-330 392 -531 743 -587 l77 -13 0 -218 0 -219 185 0 185 0 0 220 c0 121 2 220
4 220 2 0 42 7 89 15 295 51 510 184 650 401 90 139 134 286 143 479 13 261
-64 479 -227 645 -121 123 -284 208 -719 375 -376 145 -452 209 -453 383 -1
156 88 274 238 317 118 35 259 3 360 -80 54 -44 126 -149 168 -245 17 -41 35
-77 38 -80 9 -8 491 193 496 206 8 20 -62 191 -112 273 -127 210 -333 355
-570 400 -33 7 -70 14 -82 17 -23 4 -23 6 -23 174 l0 170 -185 0 -185 0 0
-169z"/>
<path d="M5090 7925 l0 -325 1010 0 1010 0 0 325 0 325 -1010 0 -1010 0 0
-325z"/>
<path d="M4537 6243 c-4 -3 -7 -150 -7 -325 l0 -318 523 0 522 0 100 66 c119
77 361 198 499 249 239 88 482 138 764 157 l172 12 0 83 0 83 -1283 0 c-706 0
-1287 -3 -1290 -7z"/>
<path d="M6880 5704 c-552 -68 -1010 -286 -1384 -658 -296 -294 -515 -683
-610 -1086 -100 -419 -81 -842 54 -1250 109 -333 277 -611 522 -865 355 -369
804 -602 1318 -681 160 -25 500 -25 660 0 515 79 977 321 1329 692 169 179
288 352 402 589 152 314 223 629 222 990 -1 205 -24 388 -72 571 -205 777
-810 1397 -1578 1618 -211 61 -339 78 -598 81 -126 2 -246 1 -265 -1z m575
-584 c616 -132 1103 -564 1300 -1153 60 -179 76 -277 82 -502 5 -175 3 -216
-16 -328 -79 -461 -328 -860 -709 -1135 -106 -76 -334 -191 -460 -232 -904
-291 -1873 190 -2181 1082 -72 209 -86 301 -86 558 0 259 13 349 76 543 120
368 353 680 668 895 218 150 452 243 721 287 131 22 474 13 605 -15z"/>
<path d="M6933 4686 c-28 -24 -28 -26 -33 -161 l-5 -137 -52 -18 c-29 -10 -78
-30 -110 -44 l-56 -26 -97 95 c-70 69 -104 95 -122 95 -37 0 -89 -42 -230
-188 -164 -169 -164 -161 -33 -292 l96 -96 -30 -65 c-16 -35 -37 -88 -46 -117
l-17 -52 -138 0 c-191 0 -180 16 -180 -270 0 -286 -11 -270 179 -270 l138 0
28 -77 c15 -43 35 -93 46 -112 l20 -33 -96 -99 c-133 -139 -136 -124 68 -327
90 -89 171 -162 181 -162 31 0 60 21 148 108 l87 85 68 -31 c38 -17 86 -38
108 -45 l40 -14 5 -137 c5 -136 5 -138 33 -162 28 -24 31 -24 237 -24 212 0
251 6 267 39 4 9 10 76 13 150 l5 134 30 10 c17 5 67 25 112 44 l82 34 93 -91
c51 -50 103 -93 114 -96 36 -9 73 19 222 168 183 187 182 180 48 317 l-94 96
21 40 c11 22 32 72 47 110 l26 70 134 3 c192 4 180 -15 180 271 -1 186 -3 230
-16 246 -13 18 -30 21 -156 25 l-142 5 -22 60 c-11 33 -33 83 -47 110 l-25 50
94 96 c136 139 138 129 -64 331 -199 199 -185 197 -322 62 l-98 -95 -48 24
c-27 13 -77 35 -111 47 l-63 23 0 134 c0 129 -1 135 -25 158 l-24 25 -220 0
c-218 0 -220 0 -248 -24z m365 -572 c130 -36 202 -68 328 -142 69 -40 73 -44
131 -149 70 -127 80 -152 122 -299 l31 -112 -31 -113 c-39 -138 -54 -175 -126
-306 l-57 -101 -115 -66 c-113 -63 -192 -94 -338 -131 l-71 -18 -119 33 c-140
40 -177 55 -305 128 l-96 55 -50 91 c-81 148 -89 167 -127 299 l-36 126 26 98
c41 151 59 196 125 314 60 106 64 110 133 151 133 78 186 101 314 139 71 20
129 37 131 38 1 1 59 -15 130 -35z"/>
<path d="M7068 3885 c-186 -47 -329 -192 -367 -373 -69 -331 210 -627 547
-581 139 19 288 122 354 245 120 222 47 509 -163 644 -103 67 -258 94 -371 65z
m189 -316 c87 -42 123 -171 70 -250 -102 -152 -327 -87 -327 96 0 132 135 213
257 154z"/>
<path d="M1535 4237 c-3 -7 -4 -152 -3 -322 l3 -310 1466 -3 1466 -2 7 77 c12
140 37 284 72 422 18 75 34 139 34 144 0 4 -684 7 -1520 7 -1214 0 -1522 -3
-1525 -13z"/>
<path d="M1532 1928 l3 -323 1849 -3 1848 -2 -53 60 c-157 177 -276 338 -373
508 l-48 82 -1614 0 -1614 0 2 -322z"/>
</g>
</svg>
