<?xml version="1.0" standalone="no"?>
<!DOCTYPE svg PUBLIC "-//W3C//DTD SVG 20010904//EN"
 "http://www.w3.org/TR/2001/REC-SVG-20010904/DTD/svg10.dtd">
<svg version="1.0" xmlns="http://www.w3.org/2000/svg"
 width="820.000000pt" height="820.000000pt" viewBox="0 0 820.000000 820.000000"
 preserveAspectRatio="xMidYMid meet">

<g transform="translate(0.000000,820.000000) scale(0.100000,-0.100000)"
fill="#000000" stroke="none">
<path d="M3459 7527 c-19 -12 -45 -44 -58 -71 -31 -62 -30 -69 90 -345 68
-155 98 -215 113 -221 21 -7 863 -7 870 1 2 2 39 60 82 129 69 111 78 132 82
183 4 49 1 63 -21 96 -33 50 -72 66 -192 80 -226 27 -495 79 -734 141 -138 36
-186 38 -232 7z"/>
<path d="M3300 6602 c-84 -37 -125 -145 -85 -221 22 -44 70 -78 117 -86 24 -4
46 -9 50 -11 4 -3 -25 -57 -64 -122 -39 -64 -102 -166 -138 -227 -37 -60 -151
-249 -255 -420 -103 -170 -238 -393 -300 -495 -61 -102 -138 -228 -170 -280
-79 -129 -149 -279 -174 -373 -49 -180 -47 -373 4 -563 94 -352 367 -639 711
-748 166 -52 142 -51 1034 -51 934 0 921 -1 1105 72 336 133 573 403 666 758
20 77 23 113 23 255 0 148 -3 175 -27 263 -39 143 -75 217 -217 452 -149 247
-831 1370 -897 1478 -2 4 4 10 14 13 81 25 123 79 123 161 0 61 -29 110 -80
135 -32 17 -87 18 -730 17 -382 0 -702 -3 -710 -7z m798 -1002 c41 -25 62 -73
62 -144 0 -50 2 -56 23 -60 12 -3 69 -14 126 -25 84 -16 109 -25 132 -47 59
-56 60 -151 3 -207 -44 -45 -84 -49 -209 -26 -173 34 -300 10 -345 -63 -26
-43 -25 -67 3 -109 31 -47 88 -79 271 -154 87 -35 179 -76 204 -91 257 -151
298 -492 84 -696 -66 -63 -126 -96 -230 -128 l-72 -22 0 -74 c0 -122 -42 -184
-122 -184 -88 0 -128 51 -128 164 0 42 -1 76 -2 76 -21 0 -253 44 -282 52 -22
7 -54 27 -72 45 -59 59 -56 165 7 218 52 43 96 45 219 9 46 -13 97 -19 175
-19 94 0 117 3 160 23 65 30 90 64 90 122 0 84 -57 128 -291 222 -169 68 -255
119 -322 193 -139 152 -119 415 43 563 57 53 149 102 225 122 25 7 48 17 52
24 4 6 8 41 8 78 0 79 10 105 53 136 40 28 91 28 135 2z"/>
<path d="M5959 2989 c-20 -4 -112 -38 -205 -75 -466 -183 -684 -268 -734 -286
-30 -11 -59 -24 -64 -28 -4 -5 23 -11 60 -15 107 -10 164 -23 234 -56 l66 -30
429 212 c237 116 436 216 443 222 18 14 -12 33 -84 52 -64 16 -91 17 -145 4z"/>
<path d="M6544 2896 c-36 -11 -296 -142 -619 -311 -55 -29 -181 -94 -280 -145
-99 -51 -181 -94 -183 -95 -1 -1 12 -32 29 -69 25 -54 33 -85 38 -162 l6 -95
415 253 c228 140 525 321 659 403 l244 148 -26 23 c-65 55 -193 78 -283 50z"/>
<path d="M1200 2857 c-3 -2 -93 -7 -200 -11 -296 -11 -461 -23 -506 -40 -92
-32 -172 -104 -214 -192 -44 -90 -44 -119 -11 -754 48 -917 48 -912 70 -975
51 -146 180 -243 336 -253 92 -5 714 25 774 39 64 14 121 50 173 107 l43 49
63 -23 c71 -27 9 -22 1047 -90 380 -24 922 -60 1205 -79 727 -48 722 -48 857
-36 248 22 431 71 638 170 137 66 193 103 725 477 212 149 589 414 838 589
249 175 471 337 493 359 22 23 52 66 67 96 23 47 27 68 27 140 0 73 -4 93 -28
142 -36 74 -119 150 -194 178 -69 26 -178 29 -240 6 -37 -13 -481 -277 -1465
-872 -131 -79 -264 -157 -296 -173 -76 -39 -199 -77 -287 -90 -41 -6 -342 -11
-718 -13 l-649 -3 -19 24 c-21 25 -25 71 -9 101 5 10 25 23 42 29 19 5 249 12
548 16 684 9 782 14 841 43 242 118 216 467 -41 542 -48 14 -179 27 -495 50
-673 49 -785 68 -1240 217 -468 152 -696 196 -1030 196 -270 0 -413 -21 -673
-99 l-83 -25 -64 59 c-40 38 -81 66 -111 76 -47 17 -203 34 -214 23z m-98
-1503 c74 -51 110 -142 89 -221 -43 -157 -224 -221 -345 -121 -101 83 -103
256 -3 332 50 38 76 46 149 43 56 -2 74 -8 110 -33z"/>
</g>
</svg>
