<?xml version="1.0" standalone="no"?>
<!DOCTYPE svg PUBLIC "-//W3C//DTD SVG 20010904//EN"
 "http://www.w3.org/TR/2001/REC-SVG-20010904/DTD/svg10.dtd">
<svg version="1.0" xmlns="http://www.w3.org/2000/svg"
 width="300.000000pt" height="272.000000pt" viewBox="0 0 300.000000 272.000000"
 preserveAspectRatio="xMidYMid meet">

<g transform="translate(0.000000,272.000000) scale(0.100000,-0.100000)"
fill="#000000" stroke="none">
<path d="M1190 2605 c-413 -57 -746 -223 -890 -447 -79 -122 -92 -284 -33
-409 116 -246 433 -427 888 -506 153 -26 520 -24 675 5 307 56 549 161 704
304 138 127 191 240 184 390 -4 75 -9 96 -42 163 -128 258 -500 452 -971 505
-122 13 -399 11 -515 -5z m-41 -270 l48 -45 77 15 c101 19 246 19 321 0 68
-18 142 -62 128 -76 -5 -5 -48 -22 -97 -39 l-88 -29 -28 20 c-36 27 -103 34
-158 17 l-43 -13 94 -93 95 -93 43 8 c24 4 123 8 219 8 161 0 180 -2 234 -24
111 -45 170 -123 146 -195 -14 -43 -99 -124 -165 -156 -27 -14 -52 -26 -54
-28 -3 -1 17 -24 43 -51 l48 -49 -78 -26 -79 -26 -48 48 -48 48 -92 -24 c-79
-20 -110 -23 -217 -20 -135 5 -205 25 -249 72 l-21 22 99 32 99 33 36 -22 c31
-18 48 -21 99 -17 34 3 77 12 95 19 l34 14 -109 101 -108 101 -65 -9 c-114
-18 -337 -15 -402 5 -105 32 -189 121 -174 183 11 43 74 101 159 144 45 24 84
45 87 47 3 3 -17 24 -45 48 -36 32 -46 45 -35 49 64 24 127 45 138 45 7 1 34
-19 61 -44z"/>
<path d="M1081 2104 c-88 -44 -89 -94 -4 -130 34 -15 132 -18 197 -6 l38 7
-81 78 c-44 42 -84 77 -89 77 -4 0 -32 -12 -61 -26z"/>
<path d="M1658 1892 l-37 -7 89 -82 c48 -46 94 -83 101 -83 21 0 98 49 109 70
14 26 -4 62 -43 85 -34 20 -151 29 -219 17z"/>
<path d="M196 1807 c-14 -18 -38 -60 -53 -93 -25 -52 -28 -71 -28 -164 0 -100
2 -108 36 -181 123 -258 482 -449 954 -510 116 -14 394 -14 510 0 455 58 817
247 939 491 49 100 48 119 -6 68 -225 -208 -632 -337 -1064 -338 -646 -1
-1184 272 -1254 637 -7 34 -10 76 -8 93 3 16 3 30 2 30 -2 0 -14 -15 -28 -33z"/>
<path d="M2641 1526 c-30 -42 -33 -56 -36 -124 -4 -137 -62 -251 -185 -364
-380 -351 -1237 -440 -1819 -190 -96 42 -104 37 -39 -24 360 -340 1118 -454
1717 -258 196 64 354 158 467 275 110 116 148 209 142 348 -3 77 -7 96 -42
165 -25 52 -61 102 -106 149 l-67 70 -32 -47z"/>
<path d="M265 968 c-37 -83 -45 -199 -20 -284 44 -151 197 -310 400 -411 229
-115 522 -177 840 -176 238 0 409 26 610 90 203 65 352 149 466 263 56 56 129
158 129 182 0 5 -28 -13 -62 -38 -35 -25 -108 -68 -163 -94 -415 -199 -987
-226 -1456 -70 -311 103 -529 278 -594 476 -13 40 -26 58 -63 85 -26 19 -50
35 -53 37 -3 1 -19 -26 -34 -60z"/>
</g>
</svg>
