<svg xmlns="http://www.w3.org/2000/svg" width="13.011" height="14.571" viewBox="0 0 13.011 14.571">
    <path fill="#3a4354" d="M1853.449 220.157h4.772a2.13 2.13 0 0 1 1.01.21 1.352 1.352 0 0 1 .6 1.753 2.6 2.6 0 0 1-.58.868q-1.883 1.969-3.765 3.94a.4.4 0 0 0-.094.245q-.01 1.973 0 3.943a.808.808 0 0 1-.23.6q-1.307 1.374-2.6 2.762a.611.611 0 0 1-.739.192c-.277-.123-.339-.4-.339-.7v-6.794a.341.341 0 0 0-.1-.262q-1.941-2.025-3.874-4.058a1.916 1.916 0 0 1-.568-1.193 1.265 1.265 0 0 1 .632-1.256 2.093 2.093 0 0 1 1.138-.252zm-5.124 1.474l-.023.048c.083.1.162.2.248.289q1.939 2.064 3.882 4.123a1 1 0 0 1 .286.736c-.008 1.383 0 2.766 0 4.148v1.306c.055-.05.086-.075.114-.1.409-.434.821-.866 1.224-1.308a.436.436 0 0 0 .1-.263q.01-1.92 0-3.84a.85.85 0 0 1 .236-.622c.283-.294.561-.594.841-.892l3.128-3.327c.074-.079.141-.167.21-.251l-.022-.043z" transform="translate(-1846.932 -220.156)"/>
</svg>
