<svg xmlns="http://www.w3.org/2000/svg" width="21.362" height="21.151" viewBox="0 0 21.362 21.151">
    <defs>
        <linearGradient id="xmouqampka" x1=".059" x2=".941" y1=".757" y2=".243" gradientUnits="objectBoundingBox">
            <stop offset="0" stop-color="#ffa000"/>
            <stop offset="1" stop-color="#ffbe00"/>
        </linearGradient>
    </defs>
    <g transform="translate(-1646.882 -202.859)">
        <rect width="21.362" height="21.151" fill="url(#xmouqampka)" rx="9.975" transform="translate(1646.882 202.859)"/>
        <path fill="#fff" fill-rule="evenodd" d="M1657.429 213.84a.371.371 0 0 0-.024-.089.351.351 0 0 0-.087.043 1.143 1.143 0 0 1-.649.317 1.762 1.762 0 0 0-.629.191 2.556 2.556 0 0 0-.974.962c-.054.088-.051.1.046.142l2.707 1.145c.061.027.1.03.12-.047a2.782 2.782 0 0 0 .092-.986 1.763 1.763 0 0 0-.345-.945 1.2 1.2 0 0 1-.257-.733zm.069-1.636a.455.455 0 0 1 .056.1 1.92 1.92 0 0 1 .11.7.232.232 0 0 0 .027.076.228.228 0 0 0 .066-.034 1.809 1.809 0 0 1 .519-.378.43.43 0 0 1 .143-.054 1.9 1.9 0 0 0 1.154-.535l.054-.052c.013-.06-.028-.067-.07-.07l-2.2-.19c-.106-.009-.125.014-.073.106.066.11.142.219.216.327zm4.538-1.607l-5.555-2.348a.164.164 0 0 0-.214.087l-.23.541a.166.166 0 0 0 .088.215l.405.171-.063.149a3.611 3.611 0 0 0-.311 1.2 2.841 2.841 0 0 0 .45 1.867.65.65 0 0 1 .1.464.321.321 0 0 1-.288.307 2.7 2.7 0 0 0-1.494.692 3.5 3.5 0 0 0-.9 1.253c-.034.078-.067.158-.1.238l-.406-.172a.165.165 0 0 0-.214.087l-.229.542a.165.165 0 0 0 .087.215l5.554 2.348a.164.164 0 0 0 .214-.087l.229-.542a.163.163 0 0 0-.086-.214l-.452-.191.064-.15a3.479 3.479 0 0 0 .249-.8 2.952 2.952 0 0 0-.493-2.375.365.365 0 0 1-.057-.214.584.584 0 0 1 .4-.426 2.768 2.768 0 0 0 1.474-.722 3.529 3.529 0 0 0 .883-1.259l.095-.224.451.19a.163.163 0 0 0 .214-.087l.229-.542a.164.164 0 0 0-.094-.21zm-1.336.971a3 3 0 0 1-1.13 1.236 2.228 2.228 0 0 1-.873.306.371.371 0 0 0-.137.047 1.009 1.009 0 0 0-.506.562.6.6 0 0 0 .086.568 2.558 2.558 0 0 1 .468 1.978 3.593 3.593 0 0 1-.3.981.287.287 0 0 1-.022.036l-4.036-1.706c.062-.148.115-.3.187-.436a2.977 2.977 0 0 1 1.139-1.238 2.184 2.184 0 0 1 .851-.3.68.68 0 0 0 .629-.623 1.267 1.267 0 0 0-.048-.516.213.213 0 0 0-.037-.072 2.488 2.488 0 0 1-.471-1.718 3.472 3.472 0 0 1 .325-1.215.438.438 0 0 1 .024-.037l4.034 1.706c-.059.152-.111.301-.183.441z"/>
    </g>
</svg>
