<svg xmlns="http://www.w3.org/2000/svg" width="39.84" height="31.744" viewBox="0 0 39.84 31.744">
    <defs>
        <style>
            .cls-1{fill:#1582c8}
        </style>
    </defs>
    <g id="Group_4219" transform="translate(-2933.456 -4268.911)">
        <path id="Path_5159" d="M2971.318 4299.213v-14.43a.762.762 0 0 0-.8-.721h-10.413v-14.43a.762.762 0 0 0-.8-.721h-17.145a.763.763 0 0 0-.8.721v14.43h-5.137a.763.763 0 0 0-.8.721v14.43h-1.978v1.442h39.84v-1.442zm-29.151-9.631a.838.838 0 0 0 .557-.205l.761-.672.761.672a.865.865 0 0 0 1.116 0l.761-.672.761.672a.864.864 0 0 0 1.115 0 .692.692 0 0 0 .24-.515v-3.362h4.34v13.71h-15.55v-13.71h4.34v3.359a.763.763 0 0 0 .798.723zm4.477-2.431a.868.868 0 0 0-1.079.03l-.761.673-.761-.673a.842.842 0 0 0-.558-.2.85.85 0 0 0-.521.174v-1.655h3.68zm1.457-12.719a.842.842 0 0 0 .558-.205l.761-.673.761.673a.867.867 0 0 0 1.115 0l.761-.673.762.673a.865.865 0 0 0 1.115 0 .693.693 0 0 0 .24-.515v-3.358h4.339v13.709h-15.549v-13.709h4.339v3.358a.764.764 0 0 0 .797.72zm4.478-2.432a.869.869 0 0 0-1.08.03l-.76.673-.762-.673a.84.84 0 0 0-.557-.2.85.85 0 0 0-.521.174v-1.647h3.68zm6.732 17.582a.841.841 0 0 0 .558-.205l.761-.672.761.672a.864.864 0 0 0 1.115 0l.761-.672.762.672a.864.864 0 0 0 1.115 0 .691.691 0 0 0 .239-.515v-3.362h4.34v13.71h-15.549v-13.71h4.339v3.359a.764.764 0 0 0 .798.723zm4.477-2.431a.868.868 0 0 0-1.079.03l-.76.673-.762-.673a.839.839 0 0 0-.557-.2.852.852 0 0 0-.522.174v-1.655h3.68z" class="cls-1"/>
        <path id="Rectangle_3806" d="M0 0H3.573V1.441H0z" class="cls-1" transform="translate(2938.072 4289.889)"/>
        <path id="Rectangle_3807" d="M0 0H4.892V1.441H0z" class="cls-1" transform="translate(2938.072 4292.22)"/>
        <path id="Rectangle_3808" d="M0 0H4.233V1.441H0z" class="cls-1" transform="translate(2955.216 4289.889)"/>
        <path id="Rectangle_3809" d="M0 0H6.21V1.441H0z" class="cls-1" transform="translate(2955.216 4292.22)"/>
        <path id="Rectangle_3810" d="M0 0H2.254V1.441H0z" class="cls-1" transform="translate(2944.007 4274.738)"/>
        <path id="Rectangle_3811" d="M0 0H6.21V1.441H0z" class="cls-1" transform="translate(2944.007 4277.069)"/>
        <path id="Path_5160" d="M2948.1 4298.323h2.638a.762.762 0 0 0 .8-.721v-2.33a.762.762 0 0 0-.8-.721h-2.638a.763.763 0 0 0-.8.721v2.33a.763.763 0 0 0 .8.721zm.8-1.441v-.89h1.042v.89z" class="cls-1"/>
        <path id="Path_5161" d="M2965.245 4298.323h2.638a.762.762 0 0 0 .8-.721v-2.33a.762.762 0 0 0-.8-.721h-2.638a.763.763 0 0 0-.8.721v2.33a.763.763 0 0 0 .8.721zm.8-1.441v-.89h1.043v.89z" class="cls-1"/>
        <path id="Path_5162" d="M2954.036 4283.172h2.637a.763.763 0 0 0 .8-.72v-2.331a.764.764 0 0 0-.8-.721h-2.637a.764.764 0 0 0-.8.721v2.331a.763.763 0 0 0 .8.72zm.8-1.441v-.889h1.043v.889z" class="cls-1"/>
    </g>
</svg>
