<svg
    xmlns="http://www.w3.org/2000/svg"
    viewBox="0 0 385 385"
    id="vector">
    <path
        id="path"
        d="M 192.656 245.332 C 202.671 245.332 212.361 243.292 221.457 239.27 C 227.013 236.813 229.525 230.317 227.068 224.76 C 224.611 219.203 218.112 216.693 212.558 219.149 C 206.283 221.924 199.586 223.332 192.656 223.332 C 165.493 223.332 143.394 201.232 143.394 174.068 C 143.394 146.905 165.493 124.806 192.656 124.806 C 219.799 124.806 241.438 146.529 241.922 174.258 C 241.98 177.585 241.332 181.975 237.92 183.997 C 235.522 185.419 232.121 185.429 229.648 184.019 C 227.445 182.764 226.374 180.673 226.374 177.628 L 226.374 161.171 C 226.374 155.096 221.449 150.171 215.374 150.171 C 214.853 150.171 214.341 150.207 213.84 150.277 C 208.048 144.776 200.224 141.396 191.624 141.396 C 173.824 141.396 159.342 155.878 159.342 173.679 C 159.342 191.48 173.823 205.961 191.624 205.961 C 199.562 205.961 206.841 203.08 212.469 198.311 C 214.289 200.165 216.394 201.787 218.759 203.134 C 228.062 208.433 239.986 208.348 249.141 202.919 C 258.754 197.22 264.141 186.634 263.919 173.874 C 263.588 154.862 256.108 137.046 242.857 123.705 C 229.469 110.226 211.641 102.804 192.657 102.804 C 153.363 102.804 121.395 134.772 121.395 174.066 C 121.395 213.363 153.362 245.332 192.656 245.332 Z M 191.623 183.964 C 185.954 183.964 181.341 179.352 181.341 173.682 C 181.341 168.012 185.953 163.399 191.623 163.399 C 197.293 163.399 201.906 168.012 201.906 173.682 C 201.906 179.352 197.293 183.964 191.623 183.964 Z M 385.313 325.107 C 385.313 331.182 380.388 336.107 374.313 336.107 L 11 336.107 C 4.925 336.107 0 331.182 0 325.107 C 0 319.032 4.925 314.107 11 314.107 L 374.313 314.107 C 380.388 314.107 385.313 319.032 385.313 325.107 Z M 62.104 298.933 L 323.213 298.933 C 341.836 298.933 356.987 283.783 356.987 265.161 L 356.987 82.978 C 356.987 64.356 341.836 49.206 323.213 49.206 L 62.104 49.206 C 43.481 49.206 28.331 64.356 28.331 82.978 L 28.331 265.16 C 28.331 283.782 43.482 298.933 62.104 298.933 Z M 50.331 82.978 C 50.331 76.487 55.613 71.206 62.104 71.206 L 323.213 71.206 C 329.705 71.206 334.987 76.487 334.987 82.978 L 334.987 265.16 C 334.987 271.651 329.705 276.932 323.213 276.932 L 62.104 276.932 C 55.612 276.932 50.331 271.651 50.331 265.16 L 50.331 82.978 Z"
        fill="#1582c8"
        stroke-width="1"/>
</svg>
