<svg xmlns="http://www.w3.org/2000/svg" width="45.066" height="42.129" viewBox="0 0 45.066 42.129">
    <defs>
        <style>
            .cls-1{fill:#3a4354}
        </style>
    </defs>
    <g id="Group_208" transform="translate(-2213.878 -132.264)">
        <g id="Group_207">
            <path id="Path_326" d="M2228.043 172.768a1 1 0 0 1-.809-.411c-.544-.749-13.356-18.418-13.356-25.928a14.166 14.166 0 0 1 28.331 0c0 7.51-12.812 25.179-13.357 25.928a1 1 0 0 1-.809.411zm0-38.5a12.179 12.179 0 0 0-12.165 12.165c0 5.848 9.327 19.574 12.165 23.614 2.838-4.04 12.166-17.766 12.166-23.614a12.179 12.179 0 0 0-12.166-12.169z" class="cls-1"/>
            <path id="Path_327" d="M2228.043 153.587a7.159 7.159 0 1 1 7.158-7.158 7.166 7.166 0 0 1-7.158 7.158zm0-12.317a5.159 5.159 0 1 0 5.158 5.159 5.164 5.164 0 0 0-5.158-5.159z" class="cls-1"/>
        </g>
        <path id="Path_328" d="M2236.819 174.393a.624.624 0 0 1-.586-.839l2.724-7.455a.626.626 0 0 1 .145-.227l14.046-14.046a.625.625 0 0 1 .884 0l4.73 4.73a.626.626 0 0 1 0 .883l-14.046 14.046a.627.627 0 0 1-.228.145l-7.454 2.725a.612.612 0 0 1-.215.038zm3.265-7.735l-2.216 6.061 6.061-2.215L2257.436 157l-3.846-3.845z" class="cls-1"/>
        <path id="Path_329" d="M2244.274 171.668a.623.623 0 0 1-.443-.183l-4.729-4.729a.625.625 0 1 1 .884-.884l4.73 4.729a.625.625 0 0 1-.442 1.067z" class="cls-1"/>
        <path id="Path_330" d="M2256.128 159.814a.623.623 0 0 1-.442-.183l-4.73-4.73a.625.625 0 0 1 .885-.884l4.729 4.73a.625.625 0 0 1-.442 1.067z" class="cls-1"/>
        <path id="Path_331" d="M2241.909 169.3a.626.626 0 0 1-.442-1.067l11.854-11.855a.625.625 0 1 1 .885.884l-11.854 11.854a.622.622 0 0 1-.443.184z" class="cls-1"/>
    </g>
</svg>
