<svg xmlns="http://www.w3.org/2000/svg" width="13.492" height="19.289" viewBox="0 0 13.492 19.289">
    <defs>
        <style>
            .cls-2{fill:#3a4354}
        </style>
    </defs>
    <g id="Group_291" opacity="0.5" transform="translate(-649.026 -3697.574)">
        <g id="Group_290">
            <path id="Path_357" d="M655.771 3716.863a.477.477 0 0 1-.385-.2c-.259-.357-6.36-8.771-6.36-12.348a6.746 6.746 0 0 1 13.492 0c0 3.577-6.1 11.991-6.362 12.348a.476.476 0 0 1-.385.2zm0-18.337a5.8 5.8 0 0 0-5.793 5.793c0 2.786 4.442 9.322 5.793 11.246 1.352-1.924 5.794-8.46 5.794-11.246a5.8 5.8 0 0 0-5.794-5.793z" class="cls-2"/>
            <path id="Path_358" d="M655.771 3707.729a3.409 3.409 0 1 1 3.409-3.41 3.413 3.413 0 0 1-3.409 3.41zm0-5.866a2.456 2.456 0 1 0 2.457 2.456 2.459 2.459 0 0 0-2.457-2.456z" class="cls-2"/>
        </g>
    </g>
</svg>
