<svg xmlns="http://www.w3.org/2000/svg" width="24.694" height="22.282" viewBox="0 0 24.694 22.282">
    <defs>
        <style>
            .cls-1{fill:#158dcf}
        </style>
    </defs>
    <g id="Group_109" transform="translate(-600.612 -402.699)">
        <path id="Path_132" d="M624.829 422.037h-23.74a.477.477 0 0 1-.477-.476v-16.649a.476.476 0 0 1 .477-.476h23.74a.476.476 0 0 1 .477.476v16.649a.477.477 0 0 1-.477.476zm-23.264-.952h22.788v-15.7h-22.788z" class="cls-1"/>
        <path id="Path_133" d="M617.542 405.388a.477.477 0 0 1-.477-.476v-1.261h-8.24v1.261a.477.477 0 0 1-.953 0v-1.737a.475.475 0 0 1 .476-.476h9.194a.475.475 0 0 1 .476.476v1.737a.476.476 0 0 1-.476.476z" class="cls-1"/>
        <path id="Path_134" d="M603.387 424.981a.487.487 0 0 1-.188-.039.477.477 0 0 1-.25-.625l1.261-2.944a.476.476 0 1 1 .876.375l-1.261 2.943a.476.476 0 0 1-.438.29z" class="cls-1"/>
        <path id="Path_135" d="M622.531 424.981a.476.476 0 0 1-.437-.286l-1.289-2.943a.476.476 0 1 1 .873-.382l1.289 2.943a.475.475 0 0 1-.245.627.483.483 0 0 1-.191.041z" class="cls-1"/>
        <path id="Path_136" d="M606.077 417.217a.477.477 0 0 1-.377-.767l3.84-4.989a.476.476 0 1 1 .755.581l-3.839 4.989a.478.478 0 0 1-.379.186z" class="cls-1"/>
        <path id="Path_137" d="M615.972 415.17a.481.481 0 0 1-.208-.047l-6.054-2.943a.477.477 0 0 1 .416-.858l5.705 2.774 3.6-4.682a.477.477 0 0 1 .755.582l-3.839 4.989a.475.475 0 0 1-.375.185z" class="cls-1"/>
    </g>
</svg>
