<svg xmlns="http://www.w3.org/2000/svg" width="38.829" height="19.991" viewBox="0 0 38.829 19.991">
    <defs>
        <style>
            .cls-1{fill:#3a4354}
        </style>
    </defs>
    <g id="Group_859" transform="translate(-2578.181 -1965.781)">
        <path id="Path_821" d="M2616 1965.781h-24.743a1.061 1.061 0 0 0-1.011 1.1v1.369h-7.031a1.108 1.108 0 0 0 0 2.207h7.031v10.63h-4.1a1.109 1.109 0 0 0 0 2.209h4.1v1.367a1.062 1.062 0 0 0 1.011 1.1H2616a1.062 1.062 0 0 0 1.012-1.1v-17.782a1.062 1.062 0 0 0-1.012-1.1zm-12.37 11.282l-9.807-9.074h19.659zm-11.362 6.5v-14.117l10.707 9.9a.97.97 0 0 0 1.306 0l10.708-9.862v14.072z" class="cls-1"/>
        <path id="Path_822" d="M2588.4 1975.69a1.062 1.062 0 0 0-1.011-1.1h-8.2a1.108 1.108 0 0 0 0 2.208h8.2a1.062 1.062 0 0 0 1.011-1.108z" class="cls-1"/>
        <path id="Path_823" d="M2583.621 1981.091h-.408a1.109 1.109 0 0 0 0 2.209h.408a1.109 1.109 0 0 0 0-2.209z" class="cls-1"/>
    </g>
</svg>
