<svg xmlns="http://www.w3.org/2000/svg" width="23.042" height="10.656" viewBox="0 0 23.042 10.656">
    <defs>
        <style>
            .cls-1{fill:#fff}
        </style>
    </defs>
    <g id="Group_810" transform="translate(-503.374 -2116.039)">
        <path id="Path_832" d="M514.9 2119.5a1.866 1.866 0 1 0 1.867 1.866 1.868 1.868 0 0 0-1.867-1.866zm0 2.577a.71.71 0 1 1 .711-.711.712.712 0 0 1-.711.712z" class="cls-1"/>
        <path id="Path_833" d="M525.735 2119.965l-4.5-3.542a1.786 1.786 0 0 0-2.889 1.4v7.081a1.79 1.79 0 0 0 1.787 1.787 1.794 1.794 0 0 0 1.1-.383l1.558-1.226a.726.726 0 0 0-.9-1.141l-1.558 1.226a.334.334 0 0 1-.54-.263v-7.081a.334.334 0 0 1 .54-.263l4.5 3.541a.334.334 0 0 1 0 .525l-1.741 1.374a.726.726 0 0 0 .9 1.141l1.746-1.373a1.786 1.786 0 0 0 0-2.806z" class="cls-1"/>
        <path id="Path_834" d="M510.441 2116.221a1.774 1.774 0 0 0-1.884.2l-4.5 3.541a1.785 1.785 0 0 0 0 2.807l4.5 3.541a1.784 1.784 0 0 0 2.888-1.4v-4.01a.726.726 0 0 0-1.451 0v4.008a.334.334 0 0 1-.54.263l-4.5-3.541a.334.334 0 0 1 0-.525l4.5-3.541a.334.334 0 0 1 .54.263v1.557a.726.726 0 0 0 1.451 0v-1.557a1.771 1.771 0 0 0-1.004-1.606z" class="cls-1"/>
    </g>
</svg>
