<svg xmlns="http://www.w3.org/2000/svg" width="22.139" height="22.14" viewBox="0 0 22.139 22.14">
    <defs>
        <style>
            .cls-1{fill:#3a4354}
        </style>
    </defs>
    <g id="Group_4249" transform="translate(-3389.319 -4272.012)">
        <path id="Path_5171" d="M3401.859 4294.152h-2.941a.866.866 0 0 1-.865-.865V4292a9.153 9.153 0 0 1-2.316-.961l-.913.914a.866.866 0 0 1-1.223 0l-2.08-2.079a.866.866 0 0 1 0-1.223l.914-.914a9.1 9.1 0 0 1-.96-2.316h-1.291a.866.866 0 0 1-.865-.865v-2.94a.866.866 0 0 1 .865-.865h1.288a9.131 9.131 0 0 1 .959-2.32l-.91-.91a.866.866 0 0 1 0-1.223l2.08-2.079a.866.866 0 0 1 1.223 0l.906.907a9.112 9.112 0 0 1 2.323-.965v-1.28a.866.866 0 0 1 .865-.865h2.941a.865.865 0 0 1 .864.865v1.277a9.159 9.159 0 0 1 2.328.964l.9-.9a.866.866 0 0 1 1.223 0l2.08 2.079a.866.866 0 0 1 0 1.223l-.9.9a9.094 9.094 0 0 1 .963 2.327h1.277a.866.866 0 0 1 .865.865v2.94a.866.866 0 0 1-.865.865h-1.28a9.12 9.12 0 0 1-.964 2.323l.906.907a.864.864 0 0 1 0 1.223l-2.079 2.079a.866.866 0 0 1-1.223 0l-.909-.91a9.149 9.149 0 0 1-2.321.96v1.288a.865.865 0 0 1-.865.861zm-6.187-4.1a.439.439 0 0 1 .233.068 8.258 8.258 0 0 0 2.674 1.109.433.433 0 0 1 .339.423v1.631h2.941v-1.629a.432.432 0 0 1 .339-.422 8.291 8.291 0 0 0 2.678-1.108.434.434 0 0 1 .539.059l1.15 1.151 2.079-2.08-1.148-1.147a.433.433 0 0 1-.058-.539 8.267 8.267 0 0 0 1.113-2.681.432.432 0 0 1 .422-.339h1.62v-2.94h-1.618a.432.432 0 0 1-.422-.34 8.272 8.272 0 0 0-1.111-2.684.434.434 0 0 1 .058-.539l1.144-1.143-2.079-2.08-1.144 1.144a.432.432 0 0 1-.538.059 8.306 8.306 0 0 0-2.685-1.112.431.431 0 0 1-.339-.422v-1.618h-2.941v1.62a.433.433 0 0 1-.339.423 8.249 8.249 0 0 0-2.68 1.113.433.433 0 0 1-.539-.059l-1.148-1.148-2.079 2.08 1.15 1.15a.432.432 0 0 1 .059.538 8.278 8.278 0 0 0-1.107 2.678.432.432 0 0 1-.422.34h-1.629v2.94h1.631a.432.432 0 0 1 .422.339 8.284 8.284 0 0 0 1.109 2.674.433.433 0 0 1-.059.539l-1.154 1.154 2.079 2.08 1.155-1.155a.433.433 0 0 1 .305-.123z" class="cls-1"/>
        <path id="Path_5172" d="M3399.778 4286.267a.434.434 0 0 1-.306-.126l-2.734-2.735a.431.431 0 0 1 0-.611l1.551-1.551a.432.432 0 0 1 .612 0l.877.877 2.1-2.1a.432.432 0 0 1 .611 0l1.551 1.551a.433.433 0 0 1 0 .612l-3.955 3.955a.432.432 0 0 1-.307.128zm-2.123-3.167l2.123 2.123 3.344-3.343-.94-.939-2.1 2.1a.435.435 0 0 1-.612 0l-.877-.878z" class="cls-1"/>
        <path id="Path_5173" d="M3406.56 4284.419a6.3 6.3 0 0 0-.523-4.156.429.429 0 0 0-.125-.15 6.292 6.292 0 0 0-2.273-2.37.425.425 0 0 0-.166-.168 6.354 6.354 0 0 0-3.909-.751 6.3 6.3 0 0 0-5.255 4.566 6.314 6.314 0 1 0 12.206 3.223c.017-.066.031-.13.045-.194zm-4.646-6.567a.427.427 0 0 0 .188.125 5.441 5.441 0 0 1 3.722 5.169 5.536 5.536 0 0 1-.109 1.091l-.009.037-.027.117a5.447 5.447 0 1 1-6.782-6.49.433.433 0 0 0 .18-.1 5.464 5.464 0 0 1 2.837.051z" class="cls-1"/>
    </g>
</svg>
