<svg xmlns="http://www.w3.org/2000/svg" width="20.062" height="17.528" viewBox="0 0 20.062 17.528">
    <defs>
        <style>
            .cls-1{fill:#1582c8}
        </style>
    </defs>
    <g id="Group_67" transform="translate(-502.266 -5026.662)">
        <g id="Group_66">
            <path id="Path_108" d="M514.514 5028l.812-.808c.091-.09.18-.182.273-.271a.852.852 0 0 1 1.23.006c.415.414.826.833 1.238 1.25.152.153.3.307.455.459a.457.457 0 0 1 .11.64.805.805 0 0 0 1.086 1.084.445.445 0 0 1 .626.1c.563.559 1.123 1.12 1.687 1.678a.851.851 0 0 1 .016 1.278c-.448.454-.9.9-1.351 1.353l-6.12 6.131-2.565 2.569a.848.848 0 0 1-1.288-.006c-.208-.212-.419-.422-.627-.632l-.856.846c-.078.077-.153.158-.23.236a.838.838 0 0 1-1.228.016c-.579-.574-1.151-1.156-1.725-1.736a.453.453 0 0 1-.1-.619.794.794 0 0 0-.653-1.17.991.991 0 0 0-.435.091.458.458 0 0 1-.608-.1q-.869-.862-1.734-1.727a.844.844 0 0 1 .014-1.24q1.074-1.076 2.148-2.149l6.518-6.532q.695-.7 1.39-1.391a.853.853 0 0 1 1.259.012c.213.214.432.415.658.632zm-1.252-.048c-.541.538-2.186 2.127-2.326 2.268q-3.846 3.872-7.708 7.731c-.034.034-.065.071-.119.129a.9.9 0 0 1 .113.08c.482.478.964.955 1.442 1.436a.222.222 0 0 0 .242.064 1.6 1.6 0 0 1 1.151.1 1.509 1.509 0 0 1 .728 1.8.2.2 0 0 0 .061.216c.485.481.966.965 1.449 1.448.031.031.065.059.1.088.708-.655 1.332-1.372 2.018-2.028s1.346-1.337 2.018-2.007l2.023-2.021c.675-.673 1.344-1.339 2.015-2.01s1.341-1.348 2.014-2.024l-.092-.1c-.476-.477-.954-.951-1.426-1.432a.253.253 0 0 0-.274-.081 1.5 1.5 0 0 1-1.547-.425 1.524 1.524 0 0 1-.323-1.454.232.232 0 0 0-.073-.264c-.177-.151-.348-.307-.52-.463a1.3 1.3 0 0 1-.1-.11zm8.206 4.831l-.1-.107c-.459-.456-.922-.906-1.373-1.369a.335.335 0 0 0-.368-.11 1.478 1.478 0 0 1-1.638-.616 1.558 1.558 0 0 1-.176-1.295.183.183 0 0 0-.044-.208c-.32-.315-.634-.637-.95-.956l-.571-.577-1.132 1.081c.165.17.323.328.476.491a.429.429 0 0 1 .073.553.882.882 0 0 0-.088.23.8.8 0 0 0 1.148.888.451.451 0 0 1 .639.1c.158.153.312.31.468.465.419.417.842.83 1.257 1.252a.84.84 0 0 1 0 1.209l-.326.335c-.108.112-5.658 5.693-8.048 8.078l.665.624z" class="cls-1"/>
            <rect id="Rectangle_67" width=".765" height="1.558" class="cls-1" rx=".383" transform="rotate(-45 6328.388 1898.614)"/>
            <rect id="Rectangle_68" width=".765" height="1.558" class="cls-1" rx=".383" transform="rotate(-45 6331.186 1897.455)"/>
            <rect id="Rectangle_69" width=".765" height="1.558" class="cls-1" rx=".383" transform="rotate(-45 6334.038 1896.273)"/>
        </g>
    </g>
</svg>
