<svg xmlns="http://www.w3.org/2000/svg" width="47.435" height="44.547" viewBox="0 0 47.435 44.547">
    <defs>
        <style>
            .cls-1{fill:#1582c8}
        </style>
    </defs>
    <g id="Group_82" transform="translate(-2136.565 -1218)">
        <g id="Group_81">
            <g id="Group_80">
                <g id="Group_79">
                    <path id="Path_86" d="M2145.644 1226.865l-2.548 2.547-.788-.788a.883.883 0 1 0-1.248 1.249l1 1a1.466 1.466 0 0 0 2.07 0l2.761-2.762a.883.883 0 0 0-1.248-1.248z" class="cls-1"/>
                    <path id="Path_87" d="M2149.2 1229.837h14.87a.883.883 0 0 0 0-1.765h-14.87a.883.883 0 1 0 0 1.765z" class="cls-1"/>
                    <path id="Path_88" d="M2145.644 1235.294l-2.548 2.547-.788-.788a.883.883 0 1 0-1.248 1.249l1 1a1.465 1.465 0 0 0 2.07 0l2.761-2.762a.883.883 0 0 0-1.248-1.248z" class="cls-1"/>
                    <path id="Path_89" d="M2145.644 1243.723l-2.548 2.547-.788-.788a.883.883 0 1 0-1.248 1.249l1 1a1.466 1.466 0 0 0 2.07 0l2.761-2.762a.882.882 0 0 0-1.248-1.248z" class="cls-1"/>
                    <path id="Path_90" d="M2169.186 1231.177v-8.552a4.63 4.63 0 0 0-4.625-4.625h-23.371a4.63 4.63 0 0 0-4.625 4.625v29.518a4.629 4.629 0 0 0 4.625 4.624h14.955a15.694 15.694 0 1 0 13.041-25.59zm-14.3 23.825h-13.7a2.862 2.862 0 0 1-2.859-2.859v-29.518a2.861 2.861 0 0 1 2.859-2.859h23.371a2.862 2.862 0 0 1 2.859 2.859v8.552h-.047q-.356.021-.706.057l-.05.006c-.24.026-.479.056-.717.093h-.021q-.367.057-.729.131c-.239.049-.476.1-.711.163l-.03.007q-.342.088-.678.192l-.048.014c-.219.067-.436.14-.651.217l-.061.022q-.316.114-.626.243l-.069.028c-.2.085-.406.175-.6.268l-.074.034q-.3.141-.585.294l-.075.039q-.288.155-.568.319l-.073.043q-.279.166-.552.344l-.069.046c-.182.12-.36.243-.536.37l-.064.047q-.266.194-.522.4l-.056.045q-.258.207-.509.425l-.045.04c-.169.149-.334.3-.5.456l-.032.032q-.249.24-.487.49l-.017.018q-.2.215-.4.437h-7.308a.883.883 0 1 0 0 1.766h5.969l-.028.042-.029.044q-.181.282-.352.572l-.034.058c-.111.19-.217.384-.32.579l-.037.069c-.1.194-.2.39-.289.588l-.037.078c-.091.2-.177.4-.26.6l-.035.084q-.122.3-.232.61l-.031.087c-.072.206-.139.413-.2.623l-.026.088c-.063.21-.121.423-.175.637l-.021.086c-.053.216-.1.435-.146.655l-.016.079q-.064.335-.116.674l-.01.069c-.016.114-.032.228-.046.343h-3.529a.883.883 0 1 0 0 1.766h3.41v.153c0 .163 0 .324.009.485 0 .054 0 .108.006.163 0 .105.009.21.016.314 0 .067.008.134.013.2l.021.258c.016.174.034.347.055.52l.008.068a15.473 15.473 0 0 0 2.15 6.145zm13.415 5.779a13.918 13.918 0 0 1-11.157-5.6l-.008-.01q-.2-.264-.382-.537v-.005a13.864 13.864 0 0 1-2.218-5.65l-.006-.042q-.044-.294-.075-.593c-.006-.049-.011-.1-.015-.149-.017-.169-.029-.34-.039-.511 0-.058-.008-.116-.011-.173q-.015-.327-.017-.655v-.009a13.951 13.951 0 0 1 8.456-12.808c.13-.056.262-.107.394-.159a13.761 13.761 0 0 1 1.383-.462q.6-.164 1.212-.275c.222-.041.447-.076.673-.1.292-.038.585-.068.882-.088s.618-.034.932-.034a13.932 13.932 0 0 1 0 27.863z" class="cls-1"/>
                </g>
            </g>
            <path id="Path_91" d="M2167.823 1248.528c-.074-.069-.119-.109-.162-.151q-1.332-1.332-2.665-2.662a.861.861 0 0 0-1.379 0c-.229.226-.455.454-.68.684a.859.859 0 0 0 .01 1.376q2.07 2.071 4.141 4.14a.871.871 0 0 0 1.442 0q1.017-1.012 2.03-2.03l4.839-4.839a.857.857 0 0 0 0-1.332q-.339-.342-.683-.681a.87.87 0 0 0-1.409-.005q-1.741 1.734-3.477 3.473l-2.007 2.027z" class="cls-1"/>
        </g>
    </g>
</svg>
