<svg xmlns="http://www.w3.org/2000/svg" width="13.308" height="13.308" viewBox="0 0 13.308 13.308">
    <defs>
        <style>
            .cls-1{fill:#3a4354}
        </style>
    </defs>
    <g id="Group_9" transform="translate(-1777.973 -220.788)">
        <g id="Group_8">
            <g id="Group_5">
                <path id="Path_5" d="M1784.627 220.788a6.654 6.654 0 1 0 6.654 6.654 6.662 6.662 0 0 0-6.654-6.654zm0 11.97a5.316 5.316 0 1 1 5.316-5.316 5.322 5.322 0 0 1-5.316 5.316z" class="cls-1"/>
            </g>
            <g id="Group_7">
                <g id="Group_6">
                    <path id="Path_6" d="M1787.388 226.989h-2.308v-2.308a.453.453 0 0 0-.906 0v2.308h-2.308a.453.453 0 1 0 0 .906h2.308v2.305a.453.453 0 0 0 .906 0v-2.3h2.308a.453.453 0 1 0 0-.906z" class="cls-1"/>
                    <path id="Path_7" d="M1784.627 230.814a.612.612 0 0 1-.611-.611v-2.15h-2.151a.611.611 0 0 1 0-1.222h2.151v-2.15a.611.611 0 0 1 1.222 0v2.15h2.151a.612.612 0 0 1 .61.611.613.613 0 0 1-.611.611h-2.15v2.15a.611.611 0 0 1-.611.611zm-2.762-3.667a.295.295 0 1 0 0 .59h2.467v2.463a.3.3 0 0 0 .295.3.3.3 0 0 0 .3-.3v-2.466h2.466a.3.3 0 0 0 .3-.295.3.3 0 0 0-.3-.3h-2.466v-2.466a.295.295 0 1 0-.59 0v2.466z" class="cls-1"/>
                </g>
            </g>
        </g>
    </g>
</svg>
