<svg xmlns="http://www.w3.org/2000/svg" width="15.504" height="20.354" viewBox="0 0 15.504 20.354">
    <defs>
        <style>
            .cls-2{fill:#3a4354}
        </style>
    </defs>
    <g id="Group_75" opacity="0.5" transform="translate(-340.496 -118)">
        <g id="Group_74">
            <path id="Path_120" d="M342.4 138.354a4.818 4.818 0 0 1-.777-.281 2.118 2.118 0 0 1-1.131-1.96v-7.652q0-3.487.008-6.976a2.152 2.152 0 0 1 1.508-2.169 4.984 4.984 0 0 1 1.057-.121c.2-.015.394 0 .6 0 0-.082.007-.147.01-.212A.994.994 0 0 1 344.7 118h7.115a.981.981 0 0 1 1.007.985v.206c.175 0 .338-.006.5 0a5.975 5.975 0 0 1 .987.066 2.145 2.145 0 0 1 1.691 2.152q.006 2.942 0 5.883 0 4.383-.012 8.765a2.2 2.2 0 0 1-1.536 2.195c-.118.037-.238.068-.357.1zm1.269-17.968h-.821a1.02 1.02 0 0 0-1.152 1.146l-.012 14.528a1 1 0 0 0 1.093 1.1h10.956a1.031 1.031 0 0 0 .814-.343 1.1 1.1 0 0 0 .247-.775q0-5.148.011-10.295v-4.333a.926.926 0 0 0-.693-.971 9.961 9.961 0 0 0-1.274-.077c-.007.076-.011.1-.012.127a1 1 0 0 1-1.11 1.084H344.7a.993.993 0 0 1-1.017-.98zm7.952-1.177h-6.738v1.165h6.738z" class="cls-2"/>
            <path id="Path_121" d="M350.592 132.709h2.044a.6.6 0 1 1 0 1.192h-4.108a.6.6 0 1 1 0-1.192q1.032-.002 2.064 0z" class="cls-2"/>
            <path id="Path_122" d="M350.575 124.758h2.045a.6.6 0 1 1 0 1.192h-4.091a.6.6 0 1 1 0-1.193z" class="cls-2"/>
            <path id="Path_123" d="M350.574 129.926h-2.045a.6.6 0 1 1 0-1.192h4.09a.6.6 0 1 1 0 1.192q-1.019.002-2.045 0z" class="cls-2"/>
            <path id="Path_124" d="M344.518 129.408c.465-.466.9-.9 1.336-1.333a.9.9 0 0 1 .328-.211.572.572 0 0 1 .665.267.581.581 0 0 1-.1.729c-.587.593-1.179 1.181-1.769 1.771a.244.244 0 0 1-.029.027.578.578 0 0 1-.81.006c-.273-.251-.535-.514-.788-.785a.593.593 0 0 1 .838-.838 4.875 4.875 0 0 1 .329.367z" class="cls-2"/>
            <path id="Path_125" d="M344.56 133.408a3.2 3.2 0 0 1 .223-.289c.376-.383.753-.765 1.139-1.137a.593.593 0 0 1 .841.836q-.9.914-1.813 1.811a.564.564 0 0 1-.808.012c-.273-.25-.535-.514-.788-.785a.585.585 0 0 1 .021-.824.593.593 0 0 1 .826-.005c.112.102.209.22.359.381z" class="cls-2"/>
            <path id="Path_126" d="M344.575 125.156a1.147 1.147 0 0 1 .127-.211q.585-.594 1.178-1.181a.607.607 0 0 1 .87-.038.594.594 0 0 1-.03.883q-.861.867-1.727 1.727a.594.594 0 0 1-.911 0q-.348-.339-.688-.687a.6.6 0 1 1 .837-.848c.1.094.192.199.344.355z" class="cls-2"/>
        </g>
    </g>
</svg>
