<svg xmlns="http://www.w3.org/2000/svg" width="13.879" height="16.025" viewBox="0 0 13.879 16.025">
    <defs>
        <style>
            .cls-1{fill:#516575}
        </style>
    </defs>
    <g id="Group_625" transform="translate(-9460.676 -4662.342)">
        <path id="Path_627" d="M9466.878 4673.276a.391.391 0 1 0 .277.669.393.393 0 0 0 0-.553.386.386 0 0 0-.277-.116z" class="cls-1"/>
        <path id="Path_628" d="M9474.132 4670.416a1.192 1.192 0 0 0-1.664.128l-1.478 1.519a1.188 1.188 0 0 0-.831-.339h-2.943a3.56 3.56 0 0 0-1.357-.266 3.412 3.412 0 0 0-3.069 1.692.933.933 0 0 0-.733.268l-1.267 1.269a.4.4 0 0 0 0 .553l2.989 3.011a.391.391 0 0 0 .553 0l1.291-1.271a.936.936 0 0 0 .242-.877l.224-.216a.669.669 0 0 1 .467-.188h3.539a2.482 2.482 0 0 0 1.744-.7c.02-.013.02-.013.932-1.106l1.506-1.8a1.193 1.193 0 0 0-.145-1.677zm-9.062 6.011l-1.012 1-2.44-2.459.991-.994a.143.143 0 0 1 .18-.017c.018.013.114.111.437.433l1.842 1.844a.14.14 0 0 1 .002.193zm5.089-3.1h-2.172a.391.391 0 0 0 0 .782h2.172a1.191 1.191 0 0 0 1.19-1.19v-.094l1.15-1.182.558-.574a.408.408 0 0 1 .574-.049.394.394 0 0 1 .142.277.4.4 0 0 1-.095.3l-2.379 2.845a1.731 1.731 0 0 1-1.2.483h-3.539a1.446 1.446 0 0 0-1.011.41l-.137.132-1.933-1.931a2.611 2.611 0 0 1 2.385-1.288 2.761 2.761 0 0 1 1.12.233.4.4 0 0 0 .158.032h3.022a.408.408 0 1 1 0 .816z" class="cls-1"/>
        <path id="Path_629" d="M9463.964 4670.612h7.55a.36.36 0 0 0 .359-.361v-7.551a.36.36 0 0 0-.359-.36h-7.55a.361.361 0 0 0-.36.36v7.549a.361.361 0 0 0 .36.363zm2.58-5.76l.47.47a.373.373 0 0 0 .51 0l.215-.216.215.216a.377.377 0 0 0 .511 0l.47-.47a.359.359 0 0 0 .1-.255v-1.535h2.115v6.829h-6.829v-6.829h2.115v1.535a.359.359 0 0 0 .108.255zm1.774-.4l-.109.11-.216-.215a.354.354 0 0 0-.254-.1.363.363 0 0 0-.255.1l-.215.216-.109-.11v-1.386h1.159z" class="cls-1"/>
        <path id="Path_630" d="M9464.544 4667.9a1.777 1.777 0 1 0 1.785-1.77 1.779 1.779 0 0 0-1.785 1.77zm2.835 0a1.058 1.058 0 1 1-1.05-1.05 1.051 1.051 0 0 1 1.05 1.05z" class="cls-1"/>
        <path id="Path_631" d="M9465.382 4668.019a.362.362 0 0 0 .1.256l.354.352a.361.361 0 0 0 .509 0l.705-.705a.36.36 0 0 0-.509-.51l-.451.451-.1-.1a.372.372 0 0 0-.511 0 .36.36 0 0 0-.097.256z" class="cls-1"/>
        <path id="Path_632" d="M9469.634 4669.2h.939a.36.36 0 1 0 0-.72h-.939a.36.36 0 1 0 0 .72z" class="cls-1"/>
    </g>
</svg>
