<svg xmlns="http://www.w3.org/2000/svg" width="43.157" height="28.763" viewBox="0 0 43.157 28.763">
    <path fill="#3a4354" d="M8905.047 12679.945h-8.892l-4.6-3.545a6.974 6.974 0 0 0-4.24-1.446h-12.411v-.379a.992.992 0 0 0-.991-.991h-7.365a.992.992 0 0 0-.991.991v14.06a.993.993 0 0 0 .991.991h7.365a.993.993 0 0 0 .991-.991v-.425h1.007c.43.2.887.4 1.363.59v9.878a3.673 3.673 0 0 0 3.669 3.669h24.1a3.672 3.672 0 0 0 3.668-3.669v-15.064a3.671 3.671 0 0 0-3.664-3.669zm-25.79 18.716h27.478v.017a1.689 1.689 0 0 1-1.687 1.688h-24.1a1.689 1.689 0 0 1-1.687-1.688zm27.478-3.684v1.7h-27.478v-1.7zm-16.615-5.894a2.886 2.886 0 0 0-1.319-3.535l-3.484-1.894a.913.913 0 0 1-.476-.8.928.928 0 0 1 .927-.928h19.28a1.689 1.689 0 0 1 1.688 1.688v9.386h-27.478v-3.479a29.124 29.124 0 0 0 6.562 1.308l1.374.113c.076.007.155.01.233.01a2.89 2.89 0 0 0 2.692-1.868zm-4.353-9.139a2.9 2.9 0 0 0-1.4 5.451l3.485 1.893a.894.894 0 0 1-.5 1.676l-1.375-.113a27.1 27.1 0 0 1-9.423-2.527 1 1 0 0 0-.424-.1h-1.227v-9.293h12.411a4.982 4.982 0 0 1 3.03 1.033l2.563 1.977zm-12.843-4.38v12.079h-5.384v-12.079z" transform="translate(-8865.558 -12673.584)"/>
</svg>
