<svg xmlns="http://www.w3.org/2000/svg" xmlns:xlink="http://www.w3.org/1999/xlink" width="388.64" height="437" viewBox="0 0 388.64 437">
    <defs>
        <linearGradient id="linear-gradient" x1=".781" x2="-.068" y1=".869" y2=".357" gradientUnits="objectBoundingBox">
            <stop offset=".006" stop-color="#eff1fe"/>
            <stop offset=".059" stop-color="#edeffd"/>
            <stop offset=".517" stop-color="#e4e7fb"/>
            <stop offset=".726" stop-color="#e6e9fb"/>
            <stop offset=".88" stop-color="#f0f1fb"/>
            <stop offset="1" stop-color="#fefefc"/>
        </linearGradient>
        <linearGradient id="linear-gradient-2" x1="-.034" x2="1.034" y1=".298" y2=".702" gradientUnits="objectBoundingBox">
            <stop offset="0" stop-color="#437fec"/>
            <stop offset=".358" stop-color="#326cd4"/>
            <stop offset="1" stop-color="#184eae"/>
        </linearGradient>
        <linearGradient id="linear-gradient-3" x1=".203" x2=".797" y1=".931" y2=".069" gradientUnits="objectBoundingBox">
            <stop offset="0" stop-color="#f2f5ff"/>
            <stop offset=".607" stop-color="#f7f9ff"/>
            <stop offset="1" stop-color="#fff"/>
        </linearGradient>
        <linearGradient id="linear-gradient-4" x2="1" y1=".5" y2=".5" gradientUnits="objectBoundingBox">
            <stop offset="0" stop-color="#4cd9ed"/>
            <stop offset=".544" stop-color="#46a5ec"/>
            <stop offset="1" stop-color="#437fec"/>
        </linearGradient>
        <linearGradient id="linear-gradient-13" x1="-76.727" x2="-77.727" y1=".5" y2=".5" xlink:href="#linear-gradient-2"/>
        <linearGradient id="linear-gradient-20" x1="0" x2="1" y1=".5" y2=".5" xlink:href="#linear-gradient-3"/>
        <linearGradient id="linear-gradient-21" x1="0" x2="1" y1=".5" y2=".5" xlink:href="#linear-gradient-4"/>
        <linearGradient id="linear-gradient-22" x1="0" x2="1" y1=".5" y2=".5" xlink:href="#linear-gradient-3"/>
        <linearGradient id="linear-gradient-24" x1="0" x2="1" y1=".5" y2=".5" xlink:href="#linear-gradient-2"/>
        <linearGradient id="linear-gradient-28" x1="180.723" x2="182.119" y1="-83.936" y2="-83.936" gradientUnits="objectBoundingBox">
            <stop offset="0" stop-color="#eff1fe"/>
            <stop offset=".367" stop-color="#dde1f8"/>
            <stop offset="1" stop-color="#b7c0eb"/>
        </linearGradient>
        <linearGradient id="linear-gradient-29" x1="24.377" x2="25.772" y1="-94.292" y2="-94.292" gradientUnits="objectBoundingBox">
            <stop offset="0" stop-color="#51b8d6"/>
            <stop offset="1" stop-color="#437fec"/>
        </linearGradient>
        <linearGradient id="linear-gradient-30" x1="179.12" x2="180.516" y1="-83.414" y2="-83.414" xlink:href="#linear-gradient-28"/>
        <linearGradient id="linear-gradient-31" x1="24.158" x2="25.554" y1="-93.717" y2="-93.717" xlink:href="#linear-gradient-29"/>
        <linearGradient id="linear-gradient-32" x1="184.765" x2="186.161" y1="-83.577" y2="-83.577" xlink:href="#linear-gradient-28"/>
        <linearGradient id="linear-gradient-33" x1="24.926" x2="26.321" y1="-93.894" y2="-93.894" xlink:href="#linear-gradient-29"/>
        <clipPath id="clip-path">
            <path id="Path_244" fill="none" d="M1051.643 211.209l-3.529-2.051z"/>
        </clipPath>
        <style>
            .cls-3{opacity:.5}.cls-230,.cls-3{mix-blend-mode:multiply}.cls-230,.cls-3,.cls-66{isolation:isolate}.cls-230,.cls-4{fill:#b7c0eb}.cls-65,.cls-70{fill:#fff}.cls-65{opacity:0}.cls-72{fill:url(#linear-gradient-4)}.cls-73{fill:url(#linear-gradient-13)}.cls-163{fill:url(#linear-gradient-22)}.cls-164{fill:url(#linear-gradient-24)}.cls-230{opacity:.2}
        </style>
    </defs>
    <g id="Group_102" transform="translate(-836 -132)">
        <path id="Path_64" fill="url(#linear-gradient)" d="M1167.661 351.4L915.7 206.666l-46.163 26.842 251.579 144.666L836 542.169 882.472 569l285.211-164.048 46.568-26.785z"/>
        <g id="Group_74">
            <g id="Group_23" class="cls-3">
                <g id="Group_22">
                    <path id="Path_65" d="M1155.554 393.81l-56.068-13.978-40.445 23.351 54.089 17.4z" class="cls-4"/>
                    <path id="Path_66" fill="#b8c1eb" d="M1156.687 393.979l-55.887-13.854-40.569 23.483 53.539 17.158z" opacity="0.984"/>
                    <path id="Path_67" fill="#b9c2ec" d="M1157.819 394.147l-55.713-13.73-40.693 23.615 52.99 16.92z" opacity="0.967"/>
                    <path id="Path_68" fill="#bbc3ec" d="M1158.952 394.315l-55.536-13.605-40.816 23.748 52.44 16.683z" opacity="0.951"/>
                    <path id="Path_69" fill="#bcc4ec" d="M1160.084 394.484L1104.726 381l-40.941 23.88 51.89 16.445z" opacity="0.934"/>
                    <path id="Path_70" fill="#bdc5ed" d="M1161.217 394.652l-55.181-13.352-41.065 24.012 51.34 16.208z" opacity="0.918"/>
                    <path id="Path_71" fill="#bec6ed" d="M1162.35 394.821l-55-13.233-41.189 24.144 50.79 15.97z" opacity="0.902"/>
                    <path id="Path_72" fill="#bfc7ed" d="M1163.482 394.989l-54.827-13.109-41.313 24.276 50.24 15.733z" opacity="0.885"/>
                    <path id="Path_73" fill="#c0c8ee" d="M1164.615 395.157l-54.649-12.984-41.437 24.409 49.69 15.5z" opacity="0.869"/>
                    <path id="Path_74" fill="#c2c9ee" d="M1165.747 395.326l-54.472-12.86-41.561 24.541 49.14 15.258z" opacity="0.852"/>
                    <path id="Path_75" fill="#c3caee" d="M1166.88 395.494l-54.295-12.736-41.685 24.673 48.59 15.02z" opacity="0.836"/>
                    <path id="Path_76" fill="#c4cbef" d="M1168.012 395.663l-54.112-12.612-41.809 24.805 48.04 14.783z" opacity="0.82"/>
                    <path id="Path_77" fill="#c5ccef" d="M1169.145 395.831l-53.94-12.487-41.933 24.937 47.49 14.545z" opacity="0.803"/>
                    <path id="Path_78" fill="#c6cdef" d="M1170.277 396l-53.763-12.363-42.057 25.069 46.94 14.308z" opacity="0.787"/>
                    <path id="Path_79" fill="#c8cef0" d="M1171.41 396.168l-53.585-12.239-42.181 25.2 46.391 14.07z" opacity="0.77"/>
                    <path id="Path_80" fill="#c9cff0" d="M1172.543 396.336l-53.408-12.115-42.3 25.334 45.841 13.833z" opacity="0.754"/>
                    <path id="Path_81" fill="#cad1f0" d="M1173.675 396.5l-53.231-11.991-42.429 25.466 45.291 13.6z" opacity="0.738"/>
                    <path id="Path_82" fill="#cbd2f1" d="M1174.808 396.673l-53.053-11.866L1079.2 410.4l44.741 13.358z" opacity="0.721"/>
                    <path id="Path_83" fill="#ccd3f1" d="M1175.94 396.842l-52.876-11.742-42.677 25.73 44.191 13.121z" opacity="0.705"/>
                    <path id="Path_84" fill="#cdd4f1" d="M1177.073 397.01l-52.7-11.618-42.8 25.862 43.641 12.883z" opacity="0.689"/>
                    <path id="Path_85" fill="#cfd5f2" d="M1178.205 397.178l-52.521-11.494-42.925 25.995 43.091 12.646z" opacity="0.672"/>
                    <path id="Path_86" fill="#d0d6f2" d="M1179.338 397.347l-52.344-11.369-43.049 26.122 42.541 12.408z" opacity="0.656"/>
                    <path id="Path_87" fill="#d1d7f2" d="M1180.471 397.515L1128.3 386.27l-43.173 26.259 41.991 12.171z" opacity="0.639"/>
                    <path id="Path_88" fill="#d2d8f3" d="M1181.6 397.684l-51.989-11.121-43.3 26.391 41.441 11.933z" opacity="0.623"/>
                    <path id="Path_89" fill="#d3d9f3" d="M1182.736 397.852l-51.812-11-43.424 26.527 40.891 11.7z" opacity="0.607"/>
                    <path id="Path_90" fill="#d5daf3" d="M1183.868 398.021l-51.635-10.873-43.544 26.652 40.341 11.458z" opacity="0.59"/>
                    <path id="Path_91" fill="#d6dbf4" d="M1185 398.189l-51.457-10.748-43.669 26.788 39.791 11.221z" opacity="0.574"/>
                    <path id="Path_92" fill="#d7dcf4" d="M1186.133 398.357l-51.28-10.624-43.793 26.92 39.241 10.983z" opacity="0.557"/>
                    <path id="Path_93" fill="#d8ddf4" d="M1187.266 398.526l-51.1-10.5-43.917 27.052 38.692 10.746z" opacity="0.541"/>
                    <path id="Path_94" fill="#d9def5" d="M1188.4 398.694l-50.925-10.376-44.042 27.182 38.142 10.508z" opacity="0.525"/>
                    <path id="Path_95" fill="#dadff5" d="M1189.531 398.863l-50.748-10.251-44.164 27.316 37.591 10.272z" opacity="0.508"/>
                    <path id="Path_96" fill="#dce0f5" d="M1190.664 399.031l-50.571-10.131-44.293 27.452 37.042 10.033z" opacity="0.492"/>
                    <path id="Path_97" fill="#dde1f5" d="M1191.8 399.2l-50.393-10-44.412 27.581 36.492 9.8z" opacity="0.475"/>
                    <path id="Path_98" fill="#dee2f6" d="M1192.929 399.368l-50.216-9.879-44.537 27.711 35.942 9.558z" opacity="0.459"/>
                    <path id="Path_99" fill="#dfe3f6" d="M1194.061 399.536l-50.039-9.755-44.66 27.845 35.392 9.321z" opacity="0.443"/>
                    <path id="Path_100" fill="#e0e4f6" d="M1195.194 399.7l-49.861-9.63-44.784 27.977 34.842 9.083z" opacity="0.426"/>
                    <path id="Path_101" fill="#e1e5f7" d="M1196.326 399.873l-49.684-9.506-44.908 28.109 34.292 8.846z" opacity="0.41"/>
                    <path id="Path_102" fill="#e3e6f7" d="M1197.459 400.042l-49.507-9.382-45.032 28.24 33.742 8.608z" opacity="0.393"/>
                    <path id="Path_103" fill="#e4e7f7" d="M1198.592 400.21l-49.329-9.258-45.156 28.374 33.193 8.374z" opacity="0.377"/>
                    <path id="Path_104" fill="#e5e8f8" d="M1199.724 400.378l-49.152-9.134-45.28 28.506 32.642 8.133z" opacity="0.361"/>
                    <path id="Path_105" fill="#e6e9f8" d="M1200.857 400.547l-48.975-9.009-45.4 28.638 32.093 7.9z" opacity="0.344"/>
                    <path id="Path_106" fill="#e7eaf8" d="M1201.989 400.715l-48.8-8.885-45.528 28.77 31.543 7.658z" opacity="0.328"/>
                    <path id="Path_107" fill="#e9ebf9" d="M1203.122 400.884l-48.62-8.761-45.652 28.9 30.993 7.421z" opacity="0.311"/>
                    <path id="Path_108" fill="#eaecf9" d="M1204.254 401.052l-48.443-8.637-45.776 29.035 30.443 7.183z" opacity="0.295"/>
                    <path id="Path_109" fill="#ebedf9" d="M1205.387 401.221l-48.265-8.512-45.9 29.167 29.893 6.946z" opacity="0.279"/>
                    <path id="Path_110" fill="#eceefa" d="M1206.519 401.389L1158.431 393l-46.024 29.3 29.343 6.708z" opacity="0.262"/>
                    <path id="Path_111" fill="#edf0fa" d="M1207.652 401.557l-47.911-8.264-46.148 29.431 28.793 6.471z" opacity="0.246"/>
                    <path id="Path_112" fill="#eef1fa" d="M1208.785 401.726l-47.734-8.14-46.272 29.563 28.243 6.233z" opacity="0.23"/>
                    <path id="Path_113" fill="#f0f2fb" d="M1209.917 401.894l-47.556-8.016-46.4 29.7 27.693 6z" opacity="0.213"/>
                    <path id="Path_114" fill="#f1f3fb" d="M1211.05 402.063l-47.379-7.891-46.52 29.828 27.143 5.758z" opacity="0.197"/>
                    <path id="Path_115" fill="#f2f4fb" d="M1212.182 402.231l-47.2-7.767-46.644 29.96 26.593 5.521z" opacity="0.18"/>
                    <path id="Path_116" fill="#f3f5fc" d="M1213.315 402.4l-47.024-7.643-46.768 30.092 26.043 5.283z" opacity="0.164"/>
                    <path id="Path_117" fill="#f4f6fc" d="M1214.447 402.568l-46.847-7.519-46.892 30.224 25.493 5.046z" opacity="0.148"/>
                    <path id="Path_118" fill="#f6f7fc" d="M1215.58 402.736l-46.67-7.394-47.015 30.358 24.943 4.808z" opacity="0.131"/>
                    <path id="Path_119" fill="#f7f8fd" d="M1216.713 402.9l-46.492-7.27-47.14 30.489 24.394 4.571z" opacity="0.115"/>
                    <path id="Path_120" fill="#f8f9fd" d="M1217.845 403.073l-46.315-7.146-47.264 30.621 23.844 4.333z" opacity="0.098"/>
                    <path id="Path_121" fill="#f9fafd" d="M1218.978 403.242l-46.138-7.022-47.388 30.753 23.294 4.1z" opacity="0.082"/>
                    <path id="Path_122" fill="#fafbfe" d="M1220.11 403.41l-45.96-6.9-47.512 30.89 22.744 3.858z" opacity="0.066"/>
                    <path id="Path_123" fill="#fbfcfe" d="M1221.243 403.578l-45.783-6.773-47.636 31.017 22.194 3.621z" opacity="0.049"/>
                    <path id="Path_124" fill="#fdfdfe" d="M1222.375 403.747l-45.605-6.647-47.76 31.149 21.644 3.383z" opacity="0.033"/>
                    <path id="Path_125" fill="#fefeff" d="M1223.508 403.915l-45.428-6.525-47.88 31.282 21.094 3.146z" opacity="0.016"/>
                    <path id="Path_126" d="M1224.64 404.084l-45.251-6.4-48.007 31.416 20.544 2.908z" class="cls-65"/>
                </g>
            </g>
            <g id="Group_31">
                <g id="Group_30" class="cls-66">
                    <g id="Group_24">
                        <path id="Path_127" d="M1099.686 259.8l.343 121.2-40.262 23.243-.344-121.2z" class="cls-4"/>
                    </g>
                    <g id="Group_25">
                        <path id="Path_128" d="M1059.768 404.237l-37.985-22.073-.344-121.2 37.984 22.071z" class="cls-4"/>
                    </g>
                    <g id="Group_26">
                        <path id="Path_129" fill="#e4e7fb" d="M1099.686 258.754l.343 121.2-40.261 23.246-.344-121.2z"/>
                    </g>
                    <g id="Group_27">
                        <path id="Path_130" fill="url(#linear-gradient-2)" d="M1088.314 365.422l.12 21.2-14.088 8.134-.121-21.2z"/>
                    </g>
                    <g id="Group_28">
                        <path id="Path_131" fill="#eff1fe" d="M1059.768 403.2l-37.985-22.073-.344-121.2L1059.423 282z"/>
                    </g>
                    <g id="Group_29">
                        <path id="Path_132" d="M1059.423 282l-37.984-22.071 40.261-23.247 37.986 22.074z" class="cls-70"/>
                        <path id="Path_133" fill="url(#linear-gradient-3)" d="M1023.662 259.929l38.038-21.963 35.765 20.784-38.039 21.96z"/>
                    </g>
                </g>
            </g>
            <g id="Group_32">
                <path id="Path_134" d="M1028.393 282.414l24.3 14.026c1.058.612 1.922.122 1.924-1.1a4.221 4.221 0 0 0-1.911-3.314l-24.3-14.024c-1.061-.615-1.922-.121-1.925 1.1a4.214 4.214 0 0 0 1.912 3.312z" class="cls-72"/>
                <path id="Path_135" d="M1052.7 302.85l-24.3-14.029c-1.061-.609-1.922-.121-1.925 1.1a4.207 4.207 0 0 0 1.912 3.309l24.3 14.028c1.058.61 1.92.12 1.924-1.1a4.207 4.207 0 0 0-1.911-3.308z" class="cls-72"/>
                <path id="Path_136" d="M1052.7 313.661l-24.3-14.027c-1.061-.612-1.922-.121-1.925 1.1a4.22 4.22 0 0 0 1.912 3.312l24.3 14.023c1.058.615 1.92.124 1.924-1.1a4.215 4.215 0 0 0-1.911-3.308z" class="cls-72"/>
                <path id="Path_137" d="M1052.7 324.478l-24.3-14.026c-1.061-.614-1.922-.121-1.925 1.1a4.211 4.211 0 0 0 1.912 3.313l24.3 14.027c1.058.611 1.92.119 1.924-1.1a4.214 4.214 0 0 0-1.911-3.314z" class="cls-72"/>
                <path id="Path_138" d="M1052.7 335.294l-24.3-14.027c-1.061-.61-1.922-.119-1.925 1.1a4.214 4.214 0 0 0 1.912 3.311l24.3 14.028c1.058.612 1.922.12 1.924-1.1a4.213 4.213 0 0 0-1.911-3.312z" class="cls-72"/>
                <path id="Path_139" d="M1052.7 346.109l-24.3-14.028c-1.061-.612-1.922-.122-1.925 1.1a4.206 4.206 0 0 0 1.912 3.311l24.3 14.027c1.058.613 1.92.123 1.924-1.1a4.214 4.214 0 0 0-1.911-3.31z" class="cls-72"/>
                <path id="Path_140" d="M1052.7 356.925l-24.3-14.029c-1.061-.61-1.922-.119-1.925 1.1a4.218 4.218 0 0 0 1.912 3.311l24.3 14.025c1.058.614 1.92.122 1.924-1.094a4.214 4.214 0 0 0-1.911-3.313z" class="cls-72"/>
                <path id="Path_141" d="M1052.7 367.911l-24.3-14.03c-1.061-.61-1.922-.119-1.925 1.1a4.22 4.22 0 0 0 1.912 3.313l24.3 14.025c1.058.612 1.92.119 1.924-1.1a4.209 4.209 0 0 0-1.911-3.308z" class="cls-72"/>
                <path id="Path_142" d="M1052.7 378.9l-24.3-14.028c-1.061-.612-1.922-.121-1.925 1.1a4.219 4.219 0 0 0 1.912 3.312l24.3 14.023c1.058.616 1.92.122 1.924-1.093a4.212 4.212 0 0 0-1.911-3.314z" class="cls-72"/>
            </g>
            <g id="Group_54">
                <g id="Group_35">
                    <g id="Group_34" class="cls-66">
                        <g id="Group_33">
                            <path id="Path_143" d="M1068.788 292.032l24.3-14.026c1.059-.615 1.92-.121 1.924 1.1a4.216 4.216 0 0 1-1.912 3.312l-24.3 14.022c-1.059.613-1.922.122-1.925-1.1a4.213 4.213 0 0 1 1.912-3.313z" class="cls-73"/>
                        </g>
                    </g>
                </g>
                <g id="Group_38">
                    <g id="Group_37" class="cls-66">
                        <g id="Group_36">
                            <path id="Path_144" d="M1068.788 302.85l24.3-14.029c1.059-.609 1.92-.121 1.924 1.1a4.213 4.213 0 0 1-1.912 3.31l-24.3 14.026c-1.059.61-1.921.12-1.925-1.1a4.207 4.207 0 0 1 1.912-3.309z" class="cls-73"/>
                        </g>
                    </g>
                </g>
                <g id="Group_41">
                    <g id="Group_40" class="cls-66">
                        <g id="Group_39">
                            <path id="Path_145" d="M1068.788 313.661l24.3-14.027c1.059-.61 1.92-.118 1.924 1.1a4.219 4.219 0 0 1-1.912 3.311l-24.3 14.023c-1.059.615-1.921.124-1.925-1.1a4.214 4.214 0 0 1 1.912-3.312z" class="cls-73"/>
                        </g>
                    </g>
                </g>
                <g id="Group_44">
                    <g id="Group_43" class="cls-66">
                        <g id="Group_42">
                            <path id="Path_146" d="M1068.788 324.479l24.3-14.027c1.059-.611 1.92-.119 1.924 1.1a4.213 4.213 0 0 1-1.912 3.311l-24.3 14.024c-1.059.611-1.921.123-1.925-1.1a4.209 4.209 0 0 1 1.912-3.312z" class="cls-73"/>
                        </g>
                    </g>
                </g>
                <g id="Group_47">
                    <g id="Group_46" class="cls-66">
                        <g id="Group_45">
                            <path id="Path_147" d="M1068.788 335.294l24.3-14.027c1.059-.61 1.92-.119 1.924 1.1a4.216 4.216 0 0 1-1.912 3.311l-24.3 14.022c-1.059.612-1.922.12-1.925-1.1a4.215 4.215 0 0 1 1.912-3.31z" class="cls-73"/>
                        </g>
                    </g>
                </g>
                <g id="Group_50">
                    <g id="Group_49" class="cls-66">
                        <g id="Group_48">
                            <path id="Path_148" d="M1068.788 346.109l24.3-14.028c1.059-.612 1.92-.121 1.924 1.1a4.208 4.208 0 0 1-1.912 3.311l-24.3 14.024c-1.059.612-1.921.122-1.925-1.1a4.212 4.212 0 0 1 1.912-3.311z" class="cls-73"/>
                        </g>
                    </g>
                </g>
                <g id="Group_53">
                    <g id="Group_52" class="cls-66">
                        <g id="Group_51">
                            <path id="Path_149" d="M1068.788 356.925l24.3-14.029c1.059-.61 1.92-.118 1.924 1.1a4.221 4.221 0 0 1-1.912 3.311l-24.3 14.022c-1.059.614-1.921.122-1.925-1.094a4.212 4.212 0 0 1 1.912-3.31z" class="cls-73"/>
                        </g>
                    </g>
                </g>
            </g>
            <g id="Group_57">
                <g id="Group_56">
                    <g id="Group_55">
                        <path id="Path_150" fill="none" stroke="#4cd9ed" stroke-linejoin="round" stroke-width="0.5px" d="M1064.169 274.067a10.489 10.489 0 0 1-9.483-.013l-28.509-16.567c-2.606-1.514-2.6-3.986.008-5.493l30.77-17.765a10.491 10.491 0 0 1 9.484.013l28.509 16.566c2.606 1.515 2.6 3.986-.007 5.493z"/>
                    </g>
                </g>
            </g>
            <g id="Group_58" style="isolation:isolate;mix-blend-mode:multiply" opacity="0.3">
                <path id="Path_152" fill="#b7c0eb" d="M1077.9 252.317a57.113 57.113 0 0 0-35.466-.922c-5.7 1.973-9.043 5.038-9.176 8.406s2.99 6.627 8.571 8.908a51.75 51.75 0 0 0 17.628 3.285 52.3 52.3 0 0 0 17.841-2.36c5.7-1.981 9.04-5.044 9.172-8.41s-2.99-6.629-8.57-8.907" opacity="0.024"/>
                <path id="Path_153" fill="#b7c0eb" d="M1077.489 252.508a55.812 55.812 0 0 0-34.66-.9c-5.57 1.928-8.835 4.922-8.964 8.211s2.92 6.473 8.373 8.7a50.615 50.615 0 0 0 17.227 3.21 51.105 51.105 0 0 0 17.436-2.307c5.567-1.935 8.832-4.927 8.96-8.214s-2.921-6.475-8.372-8.7" opacity="0.049"/>
                <path id="Path_154" fill="#b7c0eb" d="M1077.079 252.7a54.5 54.5 0 0 0-33.855-.881c-5.438 1.882-8.625 4.8-8.752 8.015s2.851 6.319 8.175 8.495a49.4 49.4 0 0 0 16.827 3.135 49.912 49.912 0 0 0 17.031-2.252c5.436-1.89 8.623-4.811 8.749-8.019s-2.852-6.321-8.175-8.493" opacity="0.073"/>
                <path id="Path_155" fill="#b7c0eb" d="M1076.669 252.889a53.212 53.212 0 0 0-33.049-.86c-5.307 1.837-8.417 4.689-8.54 7.821s2.781 6.163 7.977 8.287a48.239 48.239 0 0 0 16.427 3.061 48.727 48.727 0 0 0 16.626-2.2c5.3-1.844 8.414-4.694 8.536-7.824s-2.782-6.166-7.977-8.286" opacity="0.098"/>
                <path id="Path_156" fill="#b7c0eb" d="M1076.26 253.08a51.928 51.928 0 0 0-32.245-.839c-5.176 1.791-8.208 4.571-8.328 7.625s2.712 6.009 7.78 8.081a47.061 47.061 0 0 0 16.026 2.985 47.534 47.534 0 0 0 16.221-2.144c5.174-1.8 8.206-4.578 8.325-7.629s-2.713-6.012-7.779-8.079" opacity="0.122"/>
                <path id="Path_157" fill="#b7c0eb" d="M1075.85 253.27a50.636 50.636 0 0 0-31.439-.818c-5.045 1.746-8 4.455-8.116 7.43s2.642 5.855 7.581 7.874a45.893 45.893 0 0 0 15.626 2.911 46.365 46.365 0 0 0 15.816-2.091c5.043-1.753 8-4.461 8.113-7.434s-2.643-5.856-7.581-7.872" opacity="0.146"/>
                <path id="Path_158" fill="#b7c0eb" d="M1075.44 253.461a49.328 49.328 0 0 0-30.634-.8c-4.914 1.7-7.79 4.338-7.9 7.235s2.573 5.7 7.384 7.666a44.739 44.739 0 0 0 15.226 2.837 45.18 45.18 0 0 0 15.411-2.038c4.911-1.707 7.788-4.344 7.9-7.238s-2.573-5.7-7.383-7.665" opacity="0.171"/>
                <path id="Path_159" fill="#b7c0eb" d="M1075.03 253.652a48.028 48.028 0 0 0-29.828-.777c-4.783 1.655-7.581 4.222-7.692 7.04s2.5 5.546 7.186 7.46a43.53 43.53 0 0 0 14.825 2.761 43.987 43.987 0 0 0 15.006-1.983c4.781-1.662 7.579-4.228 7.689-7.043s-2.5-5.548-7.186-7.458" opacity="0.195"/>
                <path id="Path_160" fill="#b7c0eb" d="M1074.621 253.842a46.752 46.752 0 0 0-29.024-.755c-4.651 1.61-7.372 4.1-7.48 6.844s2.434 5.392 6.988 7.253a42.389 42.389 0 0 0 14.426 2.687 42.8 42.8 0 0 0 14.6-1.93c4.649-1.616 7.37-4.111 7.476-6.848s-2.435-5.393-6.987-7.251" opacity="0.22"/>
                <path id="Path_161" fill="#b7c0eb" d="M1074.211 254.033a45.452 45.452 0 0 0-28.218-.735c-4.521 1.565-7.164 3.989-7.268 6.649s2.365 5.238 6.79 7.046a41.208 41.208 0 0 0 14.025 2.613 41.625 41.625 0 0 0 14.2-1.877c4.518-1.571 7.161-3.994 7.265-6.652s-2.366-5.239-6.79-7.044" opacity="0.244"/>
                <path id="Path_162" fill="#b7c0eb" d="M1073.8 254.224a44.144 44.144 0 0 0-27.413-.714c-4.389 1.519-6.954 3.872-7.055 6.454s2.3 5.082 6.592 6.839a40.03 40.03 0 0 0 13.624 2.537 40.413 40.413 0 0 0 13.791-1.822c4.388-1.526 6.953-3.878 7.053-6.457s-2.3-5.085-6.592-6.837" opacity="0.268"/>
                <path id="Path_163" fill="#b7c0eb" d="M1073.391 254.414a42.852 42.852 0 0 0-26.607-.693c-4.258 1.474-6.746 3.756-6.844 6.259s2.226 4.928 6.394 6.632a38.863 38.863 0 0 0 13.225 2.463 39.224 39.224 0 0 0 13.386-1.769c4.256-1.48 6.743-3.761 6.84-6.262s-2.226-4.929-6.394-6.63" opacity="0.293"/>
                <path id="Path_164" fill="#b7c0eb" d="M1072.982 254.6a41.568 41.568 0 0 0-25.8-.672c-4.127 1.428-6.537 3.639-6.631 6.063s2.156 4.774 6.2 6.425a37.659 37.659 0 0 0 12.824 2.388 38.032 38.032 0 0 0 12.981-1.714c4.125-1.435 6.535-3.644 6.629-6.067s-2.157-4.775-6.2-6.423" opacity="0.317"/>
                <path id="Path_165" fill="#b7c0eb" d="M1072.572 254.795a40.277 40.277 0 0 0-25-.651c-4 1.383-6.328 3.523-6.42 5.869s2.087 4.619 6 6.217a36.476 36.476 0 0 0 12.424 2.314 36.862 36.862 0 0 0 12.575-1.661c3.995-1.389 6.326-3.527 6.417-5.871s-2.087-4.621-6-6.217" opacity="0.341"/>
                <path id="Path_166" fill="#b7c0eb" d="M1072.162 254.986a38.969 38.969 0 0 0-24.192-.63c-3.865 1.337-6.119 3.406-6.207 5.673s2.017 4.465 5.8 6.011a35.357 35.357 0 0 0 12.024 2.239 35.677 35.677 0 0 0 12.171-1.608c3.863-1.343 6.117-3.41 6.2-5.676s-2.018-4.466-5.8-6.009" opacity="0.366"/>
                <path id="Path_167" fill="#b7c0eb" d="M1071.752 255.177a37.668 37.668 0 0 0-23.386-.61c-3.734 1.292-5.91 3.29-6 5.478s1.948 4.311 5.6 5.8a34.13 34.13 0 0 0 11.623 2.164 34.485 34.485 0 0 0 11.766-1.553c3.732-1.3 5.908-3.294 5.993-5.481s-1.948-4.312-5.6-5.8" opacity="0.39"/>
                <path id="Path_168" fill="#b7c0eb" d="M1071.342 255.367a36.389 36.389 0 0 0-22.581-.588c-3.6 1.246-5.7 3.173-5.783 5.283s1.878 4.156 5.405 5.6a32.974 32.974 0 0 0 11.223 2.09 33.289 33.289 0 0 0 11.36-1.5c3.6-1.252 5.7-3.177 5.782-5.285s-1.88-4.157-5.406-5.6" opacity="0.415"/>
                <path id="Path_169" fill="#b7c0eb" d="M1070.933 255.558a35.092 35.092 0 0 0-21.776-.568c-3.472 1.2-5.493 3.057-5.572 5.088s1.809 4 5.208 5.39a31.82 31.82 0 0 0 10.822 2.015 32.155 32.155 0 0 0 10.956-1.446c3.47-1.207 5.491-3.061 5.569-5.091s-1.81-4-5.207-5.388" opacity="0.439"/>
                <path id="Path_170" fill="#b7c0eb" d="M1070.523 255.748a33.794 33.794 0 0 0-20.971-.546c-3.34 1.156-5.283 2.939-5.359 4.892s1.74 3.847 5.009 5.183a30.628 30.628 0 0 0 10.422 1.94 30.935 30.935 0 0 0 10.551-1.392c3.339-1.161 5.282-2.944 5.357-4.9s-1.74-3.848-5.009-5.182" opacity="0.463"/>
                <path id="Path_171" fill="#b7c0eb" d="M1070.113 255.939a32.493 32.493 0 0 0-20.165-.526c-3.21 1.111-5.075 2.823-5.148 4.7s1.671 3.693 4.812 4.976a29.445 29.445 0 0 0 10.022 1.866 29.745 29.745 0 0 0 10.146-1.339c3.207-1.115 5.073-2.827 5.145-4.7s-1.671-3.694-4.812-4.975" opacity="0.488"/>
                <path id="Path_172" fill="#b7c0eb" d="M1069.7 256.13a31.2 31.2 0 0 0-19.36-.505c-3.078 1.065-4.865 2.706-4.935 4.5s1.6 3.538 4.614 4.769a28.29 28.29 0 0 0 9.621 1.791 28.581 28.581 0 0 0 9.741-1.285c3.077-1.07 4.864-2.711 4.933-4.505s-1.6-3.539-4.614-4.767" opacity="0.512"/>
                <path id="Path_173" fill="#b7c0eb" d="M1069.294 256.32a29.916 29.916 0 0 0-18.555-.484c-2.947 1.02-4.657 2.59-4.723 4.307s1.531 3.384 4.415 4.562a27.122 27.122 0 0 0 9.222 1.716 27.36 27.36 0 0 0 9.335-1.231c2.946-1.025 4.656-2.594 4.722-4.309s-1.532-3.385-4.416-4.561" opacity="0.537"/>
                <path id="Path_174" fill="#b7c0eb" d="M1068.884 256.511a28.619 28.619 0 0 0-17.75-.464c-2.816.975-4.448 2.474-4.511 4.112s1.462 3.23 4.218 4.355a25.945 25.945 0 0 0 8.821 1.642 26.2 26.2 0 0 0 8.931-1.178c2.814-.979 4.446-2.477 4.509-4.114s-1.462-3.229-4.218-4.353" opacity="0.561"/>
                <path id="Path_175" fill="#b7c0eb" d="M1068.474 256.7a27.308 27.308 0 0 0-16.944-.443c-2.685.929-4.239 2.357-4.3 3.917s1.392 3.075 4.02 4.148a24.737 24.737 0 0 0 8.42 1.566 25.01 25.01 0 0 0 8.526-1.123c2.684-.934 4.238-2.361 4.3-3.919s-1.393-3.075-4.02-4.146" opacity="0.585"/>
                <path id="Path_176" fill="#b7c0eb" d="M1068.064 256.892a26.039 26.039 0 0 0-16.139-.422c-2.553.884-4.03 2.241-4.087 3.722s1.323 2.92 3.822 3.941a23.592 23.592 0 0 0 8.021 1.492 23.811 23.811 0 0 0 8.12-1.07c2.553-.888 4.029-2.244 4.086-3.723s-1.324-2.921-3.823-3.94" opacity="0.61"/>
                <path id="Path_177" fill="#b7c0eb" d="M1067.655 257.083a24.732 24.732 0 0 0-15.334-.4c-2.423.839-3.821 2.124-3.875 3.526s1.253 2.766 3.624 3.734a22.409 22.409 0 0 0 7.62 1.418 22.652 22.652 0 0 0 7.716-1.016c2.421-.843 3.82-2.128 3.873-3.529s-1.254-2.766-3.624-3.732" opacity="0.634"/>
                <path id="Path_178" fill="#b7c0eb" d="M1067.245 257.273a23.443 23.443 0 0 0-14.529-.38c-2.291.794-3.612 2.008-3.663 3.331s1.184 2.612 3.427 3.528a21.256 21.256 0 0 0 7.22 1.342 21.458 21.458 0 0 0 7.31-.962c2.291-.8 3.611-2.01 3.662-3.333s-1.185-2.612-3.427-3.526" opacity="0.659"/>
                <path id="Path_179" fill="#b7c0eb" d="M1066.835 257.464a22.132 22.132 0 0 0-13.723-.359c-2.161.748-3.4 1.891-3.451 3.136s1.114 2.457 3.228 3.32a20.063 20.063 0 0 0 6.82 1.268 20.271 20.271 0 0 0 6.906-.909c2.159-.751 3.4-1.893 3.449-3.137s-1.115-2.457-3.229-3.319" opacity="0.683"/>
                <path id="Path_180" fill="#b7c0eb" d="M1066.425 257.655a20.854 20.854 0 0 0-12.918-.339c-2.029.7-3.194 1.775-3.239 2.941s1.046 2.3 3.031 3.113a18.884 18.884 0 0 0 6.419 1.194 19.1 19.1 0 0 0 6.5-.855c2.028-.706 3.193-1.777 3.237-2.943s-1.045-2.3-3.031-3.111" opacity="0.707"/>
                <path id="Path_181" fill="#b7c0eb" d="M1066.016 257.845a19.557 19.557 0 0 0-12.113-.317c-1.9.657-2.986 1.658-3.027 2.745s.976 2.149 2.833 2.907a17.731 17.731 0 0 0 6.019 1.118 17.88 17.88 0 0 0 6.095-.8c1.9-.66 2.985-1.66 3.026-2.747s-.976-2.148-2.833-2.9" opacity="0.732"/>
                <path id="Path_182" fill="#b7c0eb" d="M1065.606 258.036a18.259 18.259 0 0 0-11.308-.3c-1.767.612-2.777 1.542-2.814 2.551s.906 1.994 2.634 2.7a16.557 16.557 0 0 0 5.619 1.044 16.748 16.748 0 0 0 5.691-.747c1.766-.615 2.776-1.544 2.813-2.552s-.906-1.994-2.635-2.7" opacity="0.756"/>
                <path id="Path_183" fill="#b7c0eb" d="M1065.2 258.226a16.958 16.958 0 0 0-10.5-.275c-1.636.566-2.568 1.424-2.6 2.355s.837 1.839 2.437 2.492a15.33 15.33 0 0 0 5.218.969 15.53 15.53 0 0 0 5.286-.693c1.635-.569 2.567-1.427 2.6-2.357s-.838-1.839-2.438-2.491" opacity="0.78"/>
                <path id="Path_184" fill="#b7c0eb" d="M1064.786 258.417a15.679 15.679 0 0 0-9.7-.255c-1.505.521-2.359 1.308-2.39 2.16s.767 1.685 2.239 2.286a14.2 14.2 0 0 0 4.818.894 14.332 14.332 0 0 0 4.88-.64c1.5-.524 2.359-1.31 2.39-2.161s-.768-1.685-2.24-2.284" opacity="0.805"/>
                <path id="Path_185" fill="#b7c0eb" d="M1064.377 258.608a14.372 14.372 0 0 0-8.892-.234c-1.374.475-2.15 1.191-2.179 1.965s.7 1.53 2.041 2.078a13.031 13.031 0 0 0 4.418.82 13.175 13.175 0 0 0 4.476-.586c1.373-.479 2.149-1.194 2.177-1.966s-.7-1.53-2.041-2.077" opacity="0.829"/>
                <path id="Path_186" fill="#b7c0eb" d="M1063.967 258.8a13.084 13.084 0 0 0-8.087-.213c-1.242.431-1.941 1.075-1.966 1.77s.628 1.376 1.843 1.871a11.855 11.855 0 0 0 4.018.745 11.955 11.955 0 0 0 4.07-.532c1.242-.433 1.941-1.077 1.966-1.771s-.629-1.375-1.844-1.87" opacity="0.854"/>
                <path id="Path_187" fill="#b7c0eb" d="M1063.557 258.989a11.773 11.773 0 0 0-7.281-.192c-1.112.385-1.733.958-1.755 1.574s.559 1.222 1.646 1.665a10.675 10.675 0 0 0 3.617.67 10.793 10.793 0 0 0 3.666-.479c1.11-.387 1.731-.96 1.753-1.575s-.559-1.221-1.646-1.663" opacity="0.878"/>
                <path id="Path_188" fill="#b7c0eb" d="M1063.147 259.18a10.495 10.495 0 0 0-6.476-.172c-.98.34-1.523.842-1.542 1.379s.489 1.068 1.447 1.458a9.5 9.5 0 0 0 3.217.6 9.628 9.628 0 0 0 3.261-.425c.98-.342 1.523-.844 1.542-1.38s-.49-1.067-1.449-1.456" opacity="0.902"/>
                <path id="Path_189" fill="#b7c0eb" d="M1062.738 259.37a9.2 9.2 0 0 0-5.671-.15c-.849.294-1.315.725-1.331 1.184s.421.913 1.25 1.25a8.322 8.322 0 0 0 2.817.521 8.4 8.4 0 0 0 2.855-.371c.849-.3 1.314-.727 1.33-1.185s-.42-.912-1.25-1.249" opacity="0.927"/>
                <path id="Path_190" fill="#b7c0eb" d="M1062.328 259.561a7.094 7.094 0 0 0-2.417-.449 7.184 7.184 0 0 0-2.449.319c-.718.249-1.1.609-1.118.989s.351.759 1.052 1.043a7.144 7.144 0 0 0 2.416.447 7.193 7.193 0 0 0 2.451-.317c.718-.25 1.105-.611 1.117-.99s-.351-.757-1.052-1.042" opacity="0.951"/>
                <path id="Path_191" fill="#b7c0eb" d="M1061.918 259.751a6.617 6.617 0 0 0-4.06-.108c-.587.2-.9.492-.906.793s.281.6.853.837a5.977 5.977 0 0 0 2.017.371 6 6 0 0 0 2.045-.263c.587-.2.9-.494.906-.8s-.282-.6-.855-.835" opacity="0.976"/>
                <path id="Path_192" d="M1061.508 259.942a5.314 5.314 0 0 0-3.255-.088c-.91.316-.928.868-.038 1.228a5.355 5.355 0 0 0 3.256.087c.91-.318.929-.867.037-1.227" class="cls-4"/>
            </g>
            <g id="Group_59" style="mix-blend-mode:hard-light;isolation:isolate" opacity="0.5">
                <path id="Path_193" fill="#4cd9ed" stroke="#f1f4fe" stroke-miterlimit="10" stroke-width="0.5px" d="M1064.71 260.247a11.69 11.69 0 0 1-10.563-.016l-27.431-15.94c-2.9-1.688-2.9-4.44.008-6.118l29.692-17.143a11.685 11.685 0 0 1 10.562.014l27.431 15.942c2.9 1.686 2.9 4.439-.009 6.118z"/>
            </g>
            <g id="Group_60" style="mix-blend-mode:hard-light;isolation:isolate" opacity="0.7">
                <path id="Path_194" fill="#5fefc0" stroke="#f1f4fe" stroke-miterlimit="10" stroke-width="0.5px" d="M1065.626 246.7a11.682 11.682 0 0 1-10.562-.015l-27.431-15.94c-2.9-1.688-2.9-4.44.008-6.117l29.692-17.144a11.678 11.678 0 0 1 10.562.014l27.431 15.943c2.9 1.686 2.9 4.439-.008 6.117z"/>
            </g>
            <g id="Group_61" class="cls-3">
                <path id="Path_195" d="M1059.792 236.42a89.057 89.057 0 0 1-17.911-2.233c-5.7-1.434-8.937-3.385-8.883-5.354s3.365-3.691 9.087-4.738a98.727 98.727 0 0 1 35.9 1.178c5.7 1.431 8.937 3.383 8.883 5.351s-3.365 3.69-9.085 4.741a88.275 88.275 0 0 1-17.991 1.055z" class="cls-65"/>
                <path id="Path_196" fill="#fdfdff" d="M1086.317 230.582c.037-1.923-3.136-3.83-8.716-5.229a96.917 96.917 0 0 0-35.185-1.147c-5.612 1.027-8.856 2.722-8.91 4.644s3.118 3.841 8.71 5.247a87.322 87.322 0 0 0 17.579 2.191 86.54 86.54 0 0 0 17.658-1.035c5.638-1.036 8.868-2.742 8.864-4.671" opacity="0.024"/>
                <path id="Path_197" fill="#fbfcfe" d="M1085.765 230.541c.022-1.878-3.089-3.741-8.547-5.107a85.606 85.606 0 0 0-17.2-2.135 84.648 84.648 0 0 0-17.269 1.018c-5.5 1.007-8.68 2.667-8.732 4.55s3.055 3.763 8.536 5.141a85.719 85.719 0 0 0 17.247 2.149 84.92 84.92 0 0 0 17.324-1.015c5.557-1.021 8.707-2.706 8.643-4.6" opacity="0.049"/>
                <path id="Path_198" fill="#fafafe" d="M1085.213 230.5c.007-1.834-3.042-3.652-8.378-4.985a84.017 84.017 0 0 0-16.846-2.086 83.017 83.017 0 0 0-16.912 1c-5.39.987-8.5 2.613-8.554 4.456s2.992 3.684 8.364 5.034a84.042 84.042 0 0 0 16.914 2.108 83.308 83.308 0 0 0 16.99-.995c5.475-1.006 8.545-2.669 8.422-4.531" opacity="0.073"/>
                <path id="Path_199" fill="#f8f9fd" d="M1084.661 230.459c-.008-1.79-2.995-3.563-8.209-4.864a82.444 82.444 0 0 0-16.49-2.035 81.311 81.311 0 0 0-16.554.979c-5.28.967-8.326 2.558-8.376 4.362s2.928 3.6 8.19 4.928a82.44 82.44 0 0 0 16.578 2.071 81.687 81.687 0 0 0 16.656-.976c5.394-.991 8.383-2.632 8.2-4.46" opacity="0.098"/>
                <path id="Path_200" fill="#f6f7fd" d="M1084.109 230.418c-.024-1.746-2.947-3.474-8.041-4.742a80.91 80.91 0 0 0-16.133-1.986 79.665 79.665 0 0 0-16.2.96c-5.169.947-8.149 2.5-8.2 4.268s2.864 3.527 8.016 4.822a80.85 80.85 0 0 0 16.25 2.024 80.074 80.074 0 0 0 16.322-.956c5.313-.976 8.222-2.6 7.98-4.39" opacity="0.122"/>
                <path id="Path_201" fill="#f4f6fc" d="M1083.558 230.377c-.04-1.7-2.9-3.385-7.873-4.62a79.257 79.257 0 0 0-15.778-1.936 77.954 77.954 0 0 0-15.837.94c-5.059.927-7.972 2.449-8.021 4.173s2.8 3.449 7.843 4.716a79.181 79.181 0 0 0 15.918 1.983 78.455 78.455 0 0 0 15.988-.936c5.232-.962 8.06-2.559 7.76-4.32" opacity="0.146"/>
                <path id="Path_202" fill="#f3f4fc" d="M1083.006 230.335c-.055-1.656-2.854-3.3-7.7-4.5a77.816 77.816 0 0 0-15.422-1.886 76.33 76.33 0 0 0-15.48.921c-4.947.907-7.8 2.4-7.842 4.079s2.737 3.37 7.669 4.61a77.588 77.588 0 0 0 15.586 1.941 76.843 76.843 0 0 0 15.654-.916c5.15-.947 7.9-2.523 7.539-4.251" opacity="0.171"/>
                <path id="Path_203" fill="#f1f3fb" d="M1082.454 230.294c-.071-1.612-2.807-3.206-7.535-4.376a76.171 76.171 0 0 0-15.066-1.836 74.471 74.471 0 0 0-15.122.9c-4.837.886-7.618 2.339-7.664 3.984s2.673 3.291 7.495 4.5a75.92 75.92 0 0 0 15.254 1.9 75.164 75.164 0 0 0 15.321-.9c5.068-.931 7.736-2.486 7.317-4.18" opacity="0.195"/>
                <path id="Path_204" fill="#eff1fb" d="M1081.9 230.253c-.086-1.568-2.759-3.118-7.367-4.254a74.563 74.563 0 0 0-14.71-1.787 72.824 72.824 0 0 0-14.763.883c-4.726.865-7.442 2.285-7.487 3.89s2.611 3.213 7.323 4.4a74.229 74.229 0 0 0 14.921 1.858 73.553 73.553 0 0 0 14.987-.877c4.987-.917 7.574-2.45 7.1-4.11" opacity="0.22"/>
                <path id="Path_205" fill="#edf0fa" d="M1081.351 230.212c-.1-1.524-2.713-3.029-7.2-4.132a72.982 72.982 0 0 0-14.354-1.737 71.116 71.116 0 0 0-14.405.863c-4.616.845-7.265 2.23-7.309 3.8s2.547 3.134 7.149 4.291a72.572 72.572 0 0 0 14.589 1.816 72.008 72.008 0 0 0 14.653-.857c4.906-.9 7.412-2.413 6.876-4.04" opacity="0.244"/>
                <path id="Path_206" fill="#eceefa" d="M1080.8 230.171c-.118-1.479-2.666-2.94-7.03-4.011a71.484 71.484 0 0 0-14-1.687 69.5 69.5 0 0 0-14.048.844c-4.5.825-7.087 2.176-7.13 3.7s2.483 3.055 6.975 4.184a70.9 70.9 0 0 0 14.257 1.775 70.393 70.393 0 0 0 14.319-.837c4.824-.888 7.251-2.377 6.655-3.97" opacity="0.268"/>
                <path id="Path_207" fill="#eaedf9" d="M1080.247 230.13c-.133-1.435-2.619-2.851-6.861-3.889a69.834 69.834 0 0 0-13.643-1.637 67.789 67.789 0 0 0-13.689.824c-4.394.805-6.911 2.121-6.953 3.607s2.42 2.977 6.8 4.079a69.305 69.305 0 0 0 13.925 1.733 68.633 68.633 0 0 0 13.985-.818c4.743-.872 7.089-2.34 6.434-3.9" opacity="0.293"/>
                <path id="Path_208" fill="#e8ebf9" d="M1079.695 230.088c-.148-1.39-2.572-2.761-6.693-3.766a68.238 68.238 0 0 0-13.286-1.587 66.078 66.078 0 0 0-13.331.8c-4.283.785-6.734 2.067-6.775 3.513s2.356 2.9 6.628 3.972a67.635 67.635 0 0 0 13.593 1.692 67.015 67.015 0 0 0 13.651-.8c4.662-.858 6.927-2.3 6.213-3.83" opacity="0.317"/>
                <path id="Path_209" fill="#e6e9f8" d="M1079.143 230.047c-.163-1.346-2.522-2.68-6.524-3.645a66.107 66.107 0 0 0-12.93-1.537 64.44 64.44 0 0 0-12.973.785c-4.173.765-6.558 2.012-6.6 3.419s2.292 2.82 6.454 3.866a66.045 66.045 0 0 0 13.261 1.65 65.4 65.4 0 0 0 13.317-.778c4.58-.843 6.766-2.267 5.992-3.76" opacity="0.341"/>
                <path id="Path_210" fill="#e5e8f8" d="M1078.592 230.006c-.18-1.3-2.476-2.592-6.356-3.523a64.454 64.454 0 0 0-12.575-1.483 62.74 62.74 0 0 0-12.615.765c-4.061.745-6.38 1.958-6.419 3.325s2.229 2.741 6.282 3.759a64.344 64.344 0 0 0 12.928 1.609 63.8 63.8 0 0 0 12.984-.759c4.5-.827 6.6-2.23 5.771-3.689" opacity="0.366"/>
                <path id="Path_211" fill="#e3e6f7" d="M1078.04 229.965c-.2-1.257-2.428-2.5-6.187-3.4a62.952 62.952 0 0 0-12.219-1.438 61.025 61.025 0 0 0-12.257.747c-3.951.724-6.2 1.9-6.241 3.23s2.166 2.663 6.108 3.653a62.763 62.763 0 0 0 12.6 1.567 62.177 62.177 0 0 0 12.65-.739c4.417-.813 6.441-2.193 5.55-3.619" opacity="0.39"/>
                <path id="Path_212" fill="#e1e5f7" d="M1077.488 229.924c-.21-1.213-2.381-2.415-6.019-3.279a61.267 61.267 0 0 0-11.862-1.388 59.317 59.317 0 0 0-11.9.727c-3.841.7-6.027 1.848-6.063 3.135s2.1 2.585 5.934 3.548a61.1 61.1 0 0 0 12.264 1.524 60.5 60.5 0 0 0 12.316-.718c4.336-.8 6.28-2.157 5.329-3.549" opacity="0.415"/>
                <path id="Path_213" fill="#dfe3f6" d="M1076.936 229.883c-.226-1.169-2.334-2.327-5.85-3.158a59.777 59.777 0 0 0-11.506-1.338 57.683 57.683 0 0 0-11.541.708c-3.73.684-5.85 1.793-5.886 3.041s2.039 2.506 5.761 3.441a59.427 59.427 0 0 0 11.932 1.483 58.884 58.884 0 0 0 11.982-.7c4.254-.784 6.118-2.121 5.108-3.479" opacity="0.439"/>
                <path id="Path_214" fill="#dee2f6" d="M1076.385 229.841c-.242-1.124-2.287-2.237-5.682-3.035a58.045 58.045 0 0 0-11.151-1.288 55.989 55.989 0 0 0-11.183.688c-3.619.664-5.673 1.739-5.707 2.947s1.975 2.427 5.587 3.335a57.826 57.826 0 0 0 11.6 1.441 57.187 57.187 0 0 0 11.648-.679c4.173-.768 5.956-2.084 4.888-3.409" opacity="0.463"/>
                <path id="Path_215" fill="#dce0f5" d="M1075.833 229.8c-.257-1.079-2.24-2.149-5.513-2.913a56.47 56.47 0 0 0-10.795-1.239 54.276 54.276 0 0 0-10.825.669c-3.508.644-5.5 1.684-5.529 2.853s1.911 2.349 5.413 3.228a56.168 56.168 0 0 0 11.268 1.4 55.574 55.574 0 0 0 11.314-.659c4.092-.754 5.8-2.047 4.667-3.339" opacity="0.488"/>
                <path id="Path_216" fill="#dadff5" d="M1075.281 229.759c-.272-1.035-2.193-2.061-5.345-2.792a54.884 54.884 0 0 0-10.438-1.188 52.574 52.574 0 0 0-10.467.649c-3.4.624-5.319 1.63-5.352 2.759s1.848 2.27 5.241 3.122a54.546 54.546 0 0 0 10.935 1.358 54.032 54.032 0 0 0 10.98-.639c4.011-.739 5.633-2.011 4.446-3.269" opacity="0.512"/>
                <path id="Path_217" fill="#d8ddf4" d="M1074.729 229.718c-.288-.991-2.145-1.972-5.176-2.67a53.312 53.312 0 0 0-10.083-1.139 50.931 50.931 0 0 0-10.108.63c-3.287.6-5.143 1.575-5.174 2.665s1.784 2.191 5.067 3.015a52.8 52.8 0 0 0 10.6 1.317 52.355 52.355 0 0 0 10.647-.62c3.928-.723 5.47-1.974 4.224-3.2" opacity="0.537"/>
                <path id="Path_218" fill="#d7dcf4" d="M1074.177 229.677c-.3-.947-2.1-1.883-5.007-2.548a51.656 51.656 0 0 0-9.727-1.089 49.247 49.247 0 0 0-9.751.61c-3.176.584-4.965 1.521-4.995 2.57s1.721 2.113 4.893 2.91a51.143 51.143 0 0 0 10.271 1.275 50.736 50.736 0 0 0 10.313-.6c3.847-.709 5.309-1.937 4-3.128" opacity="0.561"/>
                <path id="Path_219" fill="#d5daf3" d="M1073.626 229.636c-.319-.9-2.052-1.795-4.839-2.427a50.094 50.094 0 0 0-9.371-1.038 47.459 47.459 0 0 0-9.393.591c-3.065.562-4.789 1.465-4.818 2.475s1.658 2.035 4.72 2.8a49.549 49.549 0 0 0 9.939 1.233 49.127 49.127 0 0 0 9.979-.58c3.766-.694 5.147-1.9 3.783-3.058" opacity="0.585"/>
                <path id="Path_220" fill="#d3d9f3" d="M1073.074 229.594c-.335-.857-2.005-1.7-4.671-2.3a48.506 48.506 0 0 0-9.015-.989 45.822 45.822 0 0 0-9.034.572c-2.955.542-4.612 1.411-4.64 2.381s1.594 1.956 4.546 2.7a47.872 47.872 0 0 0 9.607 1.192 47.509 47.509 0 0 0 9.645-.56c3.684-.68 4.985-1.865 3.562-2.989" opacity="0.61"/>
                <path id="Path_221" fill="#d1d7f2" d="M1072.522 229.553c-.35-.813-1.957-1.616-4.5-2.182a46.86 46.86 0 0 0-8.659-.939 44.123 44.123 0 0 0-8.676.552c-2.844.522-4.435 1.356-4.462 2.287s1.53 1.877 4.372 2.591a46.279 46.279 0 0 0 9.275 1.15 45.89 45.89 0 0 0 9.311-.541c3.6-.664 4.824-1.827 3.341-2.918" opacity="0.634"/>
                <path id="Path_222" fill="#d0d6f2" d="M1071.97 229.512c-.365-.769-1.91-1.528-4.333-2.06a45.3 45.3 0 0 0-8.3-.89 42.507 42.507 0 0 0-8.319.533c-2.733.5-4.258 1.3-4.284 2.193s1.467 1.8 4.2 2.484a44.609 44.609 0 0 0 8.943 1.109 44.275 44.275 0 0 0 8.977-.521c3.522-.65 4.662-1.791 3.12-2.848" opacity="0.659"/>
                <path id="Path_223" fill="#ced4f1" d="M1071.418 229.471c-.38-.724-1.863-1.439-4.164-1.939a43.749 43.749 0 0 0-7.947-.839 40.812 40.812 0 0 0-7.961.513c-2.622.482-4.081 1.247-4.106 2.1s1.4 1.72 4.026 2.378a43 43 0 0 0 8.61 1.067 42.657 42.657 0 0 0 8.643-.5c3.441-.635 4.5-1.755 2.9-2.778" opacity="0.683"/>
                <path id="Path_224" fill="#ccd2f1" d="M1070.867 229.43c-.4-.68-1.817-1.35-4-1.817a42.168 42.168 0 0 0-7.591-.79 39.184 39.184 0 0 0-7.6.494c-2.512.462-3.905 1.192-3.928 2s1.339 1.642 3.852 2.272a41.322 41.322 0 0 0 8.278 1.026 40.985 40.985 0 0 0 8.31-.482c3.358-.619 4.338-1.718 2.678-2.707" opacity="0.707"/>
                <path id="Path_225" fill="#cad1f0" d="M1070.315 229.389c-.412-.636-1.77-1.261-3.828-1.7a40.519 40.519 0 0 0-7.235-.74 37.49 37.49 0 0 0-7.244.474c-2.4.442-3.728 1.138-3.751 1.91s1.276 1.563 3.679 2.166a39.738 39.738 0 0 0 7.946.984 39.367 39.367 0 0 0 7.976-.462c3.277-.6 4.176-1.681 2.457-2.637" opacity="0.732"/>
                <path id="Path_226" fill="#c9cff0" d="M1069.763 229.347c-.427-.591-1.722-1.171-3.659-1.573a39.259 39.259 0 0 0-6.879-.69 35.866 35.866 0 0 0-6.886.455c-2.291.422-3.551 1.083-3.573 1.816s1.213 1.485 3.505 2.06a38.138 38.138 0 0 0 7.614.942 37.751 37.751 0 0 0 7.642-.442c3.2-.59 4.014-1.645 2.236-2.568" opacity="0.756"/>
                <path id="Path_227" fill="#c7ceef" d="M1069.211 229.306a6.655 6.655 0 0 0-3.49-1.451 37.639 37.639 0 0 0-6.524-.64 34.1 34.1 0 0 0-6.528.436c-2.18.4-3.374 1.028-3.394 1.721s1.149 1.406 3.331 1.953a36.4 36.4 0 0 0 7.282.9 36.146 36.146 0 0 0 7.308-.421c3.115-.576 3.853-1.609 2.015-2.5" opacity="0.78"/>
                <path id="Path_228" fill="#c5ccef" d="M1068.66 229.265a6.744 6.744 0 0 0-3.323-1.329 36.176 36.176 0 0 0-6.167-.591 32.489 32.489 0 0 0-6.17.417c-2.069.381-3.2.973-3.217 1.627s1.086 1.327 3.158 1.847a34.8 34.8 0 0 0 6.95.858 34.448 34.448 0 0 0 6.974-.4c3.033-.56 3.691-1.571 1.8-2.427" opacity="0.805"/>
                <path id="Path_229" fill="#c3cbee" d="M1068.108 229.224a6.882 6.882 0 0 0-3.154-1.207 34.563 34.563 0 0 0-5.811-.541 30.8 30.8 0 0 0-5.812.4c-1.959.361-3.021.919-3.039 1.533s1.022 1.248 2.985 1.74a33.122 33.122 0 0 0 6.617.817 32.834 32.834 0 0 0 6.64-.382c2.952-.546 3.529-1.535 1.574-2.357" opacity="0.829"/>
                <path id="Path_230" fill="#c2c9ee" d="M1067.556 229.183a7.1 7.1 0 0 0-2.985-1.086 33.158 33.158 0 0 0-5.456-.49 29.114 29.114 0 0 0-5.453.377c-1.848.341-2.844.864-2.862 1.438s.959 1.171 2.812 1.635a31.446 31.446 0 0 0 6.285.775 31.22 31.22 0 0 0 6.306-.362c2.871-.531 3.368-1.5 1.353-2.287" opacity="0.854"/>
                <path id="Path_231" fill="#c0c8ed" d="M1067 229.141a7.435 7.435 0 0 0-2.817-.963 31.747 31.747 0 0 0-5.1-.441 27.529 27.529 0 0 0-5.1.358c-1.737.321-2.666.81-2.683 1.344s.9 1.092 2.638 1.528a29.777 29.777 0 0 0 5.953.734 29.527 29.527 0 0 0 5.972-.343c2.789-.515 3.206-1.462 1.132-2.217" opacity="0.878"/>
                <path id="Path_232" fill="#bec6ed" d="M1066.452 229.1a7.962 7.962 0 0 0-2.648-.841 30.4 30.4 0 0 0-4.743-.391 25.86 25.86 0 0 0-4.738.338c-1.626.3-2.49.755-2.505 1.25s.831 1.013 2.464 1.422a28.113 28.113 0 0 0 5.621.692 28 28 0 0 0 5.639-.323c2.707-.5 3.043-1.425.91-2.147" opacity="0.902"/>
                <path id="Path_233" fill="#bcc5ec" d="M1065.9 229.059a8.752 8.752 0 0 0-2.48-.72 29.341 29.341 0 0 0-4.388-.341 24.274 24.274 0 0 0-4.379.319c-1.516.281-2.313.7-2.328 1.156s.769.935 2.291 1.316a26.523 26.523 0 0 0 5.29.65 26.382 26.382 0 0 0 5.3-.3c2.626-.486 2.882-1.389.69-2.077" opacity="0.927"/>
                <path id="Path_234" fill="#bbc3ec" d="M1065.349 229.018a10 10 0 0 0-2.311-.6 28.094 28.094 0 0 0-4.032-.291 22.621 22.621 0 0 0-4.021.3c-1.405.26-2.136.646-2.15 1.062s.705.856 2.117 1.209a24.844 24.844 0 0 0 4.958.609 24.763 24.763 0 0 0 4.97-.283c2.545-.472 2.72-1.353.469-2.007" opacity="0.951"/>
                <path id="Path_235" fill="#b9c2eb" d="M1064.8 228.977a12.137 12.137 0 0 0-2.143-.476 27.352 27.352 0 0 0-3.675-.242 20.994 20.994 0 0 0-3.664.281c-1.294.239-1.959.591-1.971.967s.641.777 1.944 1.1a23.232 23.232 0 0 0 4.625.567 23.065 23.065 0 0 0 4.636-.264c2.463-.456 2.558-1.315.248-1.936" opacity="0.976"/>
                <path id="Path_236" d="M1064.245 228.936a24.008 24.008 0 0 0-8.6-.285c-2.38.441-2.4 1.277-.023 1.869a24.215 24.215 0 0 0 8.595.282c2.382-.442 2.4-1.279.027-1.866" class="cls-4"/>
            </g>
            <g id="Group_72">
                <path id="Path_237" fill="url(#linear-gradient-20)" d="M1057.627 210.754l-.01-.006a.808.808 0 0 0-.089-.043l-.016-.006-.031-.011-.046-.016c-.016 0-.033-.007-.05-.011l-.031-.007-.018-.005a.935.935 0 0 0-.106-.012H1057.032c-.017 0-.033 0-.05.005l-.043.009c-.024 0-.049.01-.073.016s-.026 0-.039.008-.025.009-.037.013q-.065.019-.129.045c-.014 0-.028.008-.042.014l-.023.011a2.382 2.382 0 0 0-.22.109l-.024.015-.026.015-.02.012-.026.016-.019.012-.025.018-.021.013-.024.017-.02.014-.025.017-.019.014-.025.019-.019.014-.025.019-.019.016-.024.019-.02.016-.023.019-.019.017-.024.02-.019.017-.023.02-.019.018-.023.021-.018.017-.023.022-.018.017-.024.023-.016.017-.023.022-.017.019-.023.023-.016.018-.023.025-.016.018-.023.025-.006.007-.009.01-.013.016-.01.011-.015.018-.022.026-.016.019-.022.027-.014.017-.022.029-.01.012v.005l-.011.014-.012.016-.013.017-.023.03-.012.018-.022.031-.012.016-.015.02-.008.011-.011.017-.023.032-.01.017-.023.033-.009.014-.014.021-.008.013-.006.008-.023.036-.01.016-.021.035-.009.016-.018.03v.006l-.009.015-.021.037-.008.015-.028.051-.028.052-.025.05-.027.055-.026.055-.024.051-.024.054-.023.054-.023.055-.013.035-.01.025-.019.052-.019.054-.019.054c-.006.015-.01.03-.019.058l-.017.053-.015.054v.012l-.009.035v.015l-.011.04v.016l-.012.052-.009.041v.015l-.011.051c0 .015-.005.03-.009.055l-.008.044v.018l-.005.037v.376a1.253 1.253 0 0 0 .519 1.145l3.529 2.051a1.252 1.252 0 0 1-.518-1.144V215.586l.006-.037v-.018l.008-.044c0-.026.007-.039.01-.054l.01-.051v-.016l.01-.042.012-.053v-.016l.01-.04v-.015l.013-.047.016-.054.016-.053.019-.058.019-.055.019-.054.02-.052v-.006l.021-.054.023-.055.018-.043.005-.011.024-.054.023-.051.026-.055.026-.053.026-.05.016-.03.011-.022.028-.051.009-.015.02-.037.009-.015.021-.036v-.012l.021-.035.01-.016.022-.037.007-.011.007-.011.015-.024.009-.013.022-.035.011-.016.022-.032.012-.016.022-.032.012-.016.022-.031.013-.017.022-.031.014-.017.023-.03.01-.013.023-.029.013-.017.022-.027.016-.019.022-.026.016-.019.023-.026.009-.011.006-.007.023-.025.016-.018.023-.025.017-.018.022-.024.018-.018.023-.022.016-.017.019-.019.01-.01.007-.007.023-.022.019-.017.022-.021.019-.017.024-.021.019-.017.023-.02.019-.017.024-.019.019-.016.024-.019.02-.016.024-.018.019-.015.025-.019.02-.014.024-.017.02-.014.025-.017.02-.014.025-.016.02-.013.025-.016.021-.012.025-.015.024-.014a2.115 2.115 0 0 1 .219-.109l.069-.028c.042-.015.083-.03.124-.042s.054-.016.08-.022l.072-.016c.031-.006.062-.01.093-.014l.052-.005a1.032 1.032 0 0 1 .124 0h.013a.962.962 0 0 1 .134.017l.026.006c.035.008.069.018.1.029l.027.01a.954.954 0 0 1 .116.055z"/>
                <g id="Group_62">
                    <path id="Path_238" fill="url(#linear-gradient-21)" d="M1059.905 212.926c.977-.563 1.767-.1 1.77 1.022a3.871 3.871 0 0 1-1.769 3.056c-1.014.583-1.773.071-1.773-1.018V215.663l.005-.038v-.016l.006-.037v-.018l.008-.044c0-.026.007-.039.01-.054l.01-.051v-.016l.01-.042.012-.053v-.016l.01-.04v-.015l.013-.047.016-.054.016-.053.019-.058.019-.055.019-.054.02-.052.023-.06.023-.055.023-.054.024-.054.023-.051.026-.055.027-.055.026-.05.027-.052.028-.051.009-.015.02-.037.009-.015.021-.036.01-.015.021-.035.01-.016.022-.037.009-.014.023-.036.01-.014.022-.035.011-.016.022-.032.012-.016.022-.032.012-.017.022-.031.013-.017.022-.031.014-.017.023-.03.013-.017.023-.029.013-.017.022-.027.016-.019.022-.026.016-.019.023-.026.015-.018.023-.025.016-.018.023-.025.017-.018.022-.024.018-.018.023-.022.017-.019.024-.023.017-.017.023-.022.019-.017.022-.021.019-.017.024-.021.019-.017.023-.02.019-.017.024-.019.019-.016.024-.019.02-.016.024-.018.019-.015.025-.019.02-.014.024-.017.02-.014.025-.017.02-.014.025-.016.02-.013.025-.016.021-.012.025-.015z"/>
                </g>
                <path id="Path_239" d="M1060.839 206.041l-.075-.038-.048-.023-.019-.009-.043-.019-.018-.008-.039-.016-.019-.008-.044-.018-.019-.007-.045-.017-.02-.007-.044-.015-.018-.007-.043-.014-.021-.006-.045-.014-.019-.006-.047-.013h-.019l-.047-.013h-.018l-.049-.011h-.018l-.066-.014-.031-.006-.036-.006-.067-.011-.068-.01-.068-.009-.069-.008-.068-.006-.07-.005h-.401c-.047 0-.1.01-.143.014-.078.006-.157.013-.237.024-.031 0-.062 0-.094.009-.1.015-.192.032-.29.053l-.077.017-.079.019-.077.019-.045.012-.031.009-.076.021-.077.023-.054.017-.022.007-.053.017-.024.008-.05.017-.026.009-.05.018-.025.009-.05.018-.027.01-.047.019-.029.01-.046.019-.03.012-.046.018h-.016l-.014.006-.044.019-.032.013-.044.02-.032.014-.042.019-.034.015-.041.019-.035.017-.039.018-.037.018-.037.018-.04.02-.034.016-.042.022-.031.016-.044.023-.027.015-.049.025-.224.125c-.1.061-.21.125-.326.2l-.081.052-.083.054-.08.054-.056.038-.023.015-.055.039-.023.016-.054.039-.024.017-.053.038-.025.018-.053.039-.024.018-.053.039-.024.019-.053.04-.024.018-.053.042-.024.019-.052.04-.024.02-.052.042-.024.02-.053.043-.023.019-.052.044-.024.019-.053.045-.022.019-.053.046-.022.019-.054.048-.021.017-.074.067-.074.068-.075.068-.073.069-.073.07-.073.07-.072.071-.006.006c-.169.168-.335.342-.5.525l-.075.083-.075.085-.023.026-.049.057-.051.059-.02.024-.047.056-.022.026-.045.055-.023.027-.044.054-.023.029-.043.053-.025.031-.04.052-.021.025-.005.007-.024.032-.012.015-.021.027-.038.051-.026.034-.038.05-.027.036-.036.049-.027.037-.037.049-.027.038-.035.048-.027.039-.034.047-.028.04-.033.048-.028.041-.033.047-.028.041-.032.047-.028.043-.031.046-.028.043-.031.048-.028.042-.03.048-.016.026-.009.014-.03.047-.028.044-.029.048-.027.044-.031.051-.025.041-.033.054-.022.039-.021.035-.014.024-.02.034-.054.093 3.529 2.052.054-.094.02-.034.035-.059.023-.038.033-.055.024-.041.031-.051.028-.044.029-.047.028-.045.029-.046.017-.026.009-.015.007-.011.023-.036.028-.042.031-.048.028-.043.031-.046.029-.042.032-.048.027-.04.033-.048.028-.041.033-.048.005-.006.024-.033.033-.049.028-.038.035-.048.027-.038.036-.049.027-.037.037-.049.026-.036.038-.049.026-.035.039-.051.026-.033.04-.051.025-.032.041-.052.024-.031.043-.053.024-.029.044-.054.022-.027.046-.055.021-.026.048-.056.02-.024.05-.059.072-.083.075-.085.075-.083c.167-.185.335-.361.506-.531l.072-.071.073-.07.074-.07.073-.069.074-.068.074-.067.075-.067.02-.019.055-.047.021-.018.054-.047.022-.019.053-.045.023-.019.052-.044.024-.019.053-.043.023-.02.052-.042.025-.019.052-.042.024-.018.053-.042.023-.017.053-.041.025-.019.052-.039.025-.018.052-.039.025-.018.054-.038.023-.017.054-.038.024-.017.055-.038.022-.016.057-.038.08-.054.082-.054.081-.052c.117-.073.221-.137.326-.2.088-.049.156-.088.225-.125l.048-.025.027-.015.044-.022.032-.017.042-.021.034-.017.039-.02.037-.018.038-.018c.012-.006.025-.013.038-.018l.035-.017.041-.019.034-.015.042-.019.033-.014.043-.019.032-.014.044-.019.031-.012.033-.014h.013l.029-.012.046-.018.029-.011.048-.018.027-.011.049-.018.026-.009.049-.018.026-.009.051-.017.024-.008.052-.017.022-.007.055-.017.076-.023.077-.021.031-.009.045-.012.077-.019.078-.019.078-.017c.13-.028.258-.046.386-.062.078-.011.156-.018.234-.024.112-.009.224-.018.334-.018h.28l.069.007.069.007.067.008.068.011.067.011.023.005.043.008c.034.006.05.01.067.014h.018l.048.011h.018l.048.013h.015l.044.012H1063.813l.044.014.02.006.044.015.02.006.044.016.021.007.044.017.019.007.044.018.02.008h.008l.031.013.018.008.044.019.019.009.047.023.075.038z" class="cls-163"/>
                <path id="Path_240" d="M1063.569 201.327c-.119-.065-.245-.124-.374-.18-.011 0-.022-.011-.033-.015l-.018-.007a4.88 4.88 0 0 0-.464-.163l-.029-.01h-.016a5.087 5.087 0 0 0-.518-.119l-.029-.007h-.024c-.056-.01-.114-.018-.171-.025-.042-.006-.084-.013-.128-.018l-.176-.016-.121-.011h-.013q-.159-.01-.324-.012h-.014c-.1 0-.211 0-.32.006h-.015c-.027 0-.056.005-.084.006-.086.005-.172.01-.26.019l-.13.014c-.08.009-.161.019-.242.031l-.055.007-.073.013c-.1.016-.2.034-.294.054l-.126.026c-.124.027-.249.057-.376.091l-.034.008h-.007c-.13.035-.26.073-.392.115l-.127.042-.041.014-.1.033-.034.012-.116.041-.053.02-.076.028-.053.02-.108.043-.063.025-.062.025-.063.026-.1.044-.067.029-.056.024-.068.031-.067.029-.1.047-.057.027-.067.031-.067.033-.094.046-.068.034-.059.03-.08.042-.062.031-.1.052-.046.025-.125.069-.126.07-.037.022-.056.032-.126.074-.12.072c-.12.073-.24.148-.37.233l-.119.078c-.119.079-.237.16-.369.253l-.119.084c-.117.085-.233.171-.368.274l-.119.09-.113.089c-.077.061-.153.123-.254.206l-.117.1-.112.094-.12.1-.135.118-.082.072-.034.03-.111.1-.121.111-.1.091-.034.032-.077.072-.038.036-.076.073-.034.033-.118.114-.095.093v.005l-.037.036-.073.073-.039.04-.076.076-.034.035-.108.111c-.238.246-.469.5-.7.76l-.075.083-.044.053c-.238.275-.47.559-.7.848l-.06.074-.064.086c-.2.259-.394.522-.584.792l-.022.03-.06.089q-.242.348-.474.708c-.022.034-.045.066-.066.1l-.046.074c-.153.242-.3.486-.452.736l3.53 2.051c.145-.247.3-.489.447-.729l.123-.19q.228-.354.466-.7c.028-.04.055-.082.084-.122.19-.27.386-.534.585-.794l.121-.156q.339-.434.695-.847c.042-.049.085-.1.127-.144.226-.258.455-.51.691-.755l.109-.111.034-.035.075-.076.039-.04.074-.073.036-.036.1-.1.117-.114.034-.033.077-.072.038-.037.076-.072.034-.032.1-.091.122-.111.111-.1.034-.03.081-.072.135-.117c.043-.038.082-.07.12-.1l.112-.094.117-.1c.1-.083.178-.145.255-.206l.113-.088.118-.091c.135-.1.252-.189.369-.273l.119-.085c.131-.093.249-.174.368-.253l.12-.078c.129-.084.25-.16.37-.233l.12-.072.125-.074.056-.032.038-.021.125-.072.125-.067.047-.026.1-.051.061-.032.08-.041.059-.031.068-.034.095-.046.067-.032.066-.032.057-.027.1-.047.066-.029.068-.031.056-.024.067-.029.1-.044.045-.018.015-.006.062-.025.062-.025.109-.043.052-.019.076-.029.053-.019.116-.042.035-.012.1-.033.041-.014.127-.042c.13-.041.259-.079.386-.114l.067-.017c.119-.031.236-.059.352-.084.045-.011.09-.019.135-.028.094-.019.187-.036.28-.051l.144-.023c.075-.011.15-.02.225-.028.047-.006.095-.012.142-.016.087-.008.172-.014.258-.019l.1-.006c.1 0 .194-.005.29-.005h.057c.106 0 .209.005.311.011.046 0 .091.008.137.012s.116.009.172.015.089.012.133.018l.168.025.052.01a5.114 5.114 0 0 1 .516.118l.052.017a4.667 4.667 0 0 1 .458.161c.019.007.037.016.056.025a3.954 3.954 0 0 1 .37.177z" class="cls-163"/>
                <g id="Group_64">
                    <g id="Group_63">
                        <path id="Path_241" d="M1052.749 211.76a23.509 23.509 0 0 1 3.293-4.358l.366-.371.44-.424.254-.233.225-.2.254-.219.228-.19.254-.205.23-.178c.136-.1.251-.189.368-.272l.118-.085c.131-.092.249-.173.367-.251l.119-.078c.129-.084.248-.159.368-.232l.365-.214.363-.2.268-.137.334-.16.306-.136.29-.119.336-.127.284-.1.081-.026a7.706 7.706 0 0 1 2.341-.389 5.182 5.182 0 0 1 2.4.548l-1.732 3a4.4 4.4 0 0 0-1.88-.414 6.13 6.13 0 0 0-2.278.484l-.259.11-.2.092-.186.09-.189.1-.266.144-.117.067a15.559 15.559 0 0 0-5.448 5.631z" class="cls-164"/>
                        <path id="Path_242" d="M1064.6 202.928a5.152 5.152 0 0 1 2.3.507l-.873 1.509-.791 1.368a4.455 4.455 0 0 0-1.851-.394 6.2 6.2 0 0 0-2.305.49l-.068.028-.022.009c-.034.013-.064.027-.094.039l-.077.034-.016.007-.04.018-.053.024-.022.01-.072.033-.093.045-.093.046-.1.049-.048.025-.048.024-.095.051-.1.052-.075.041-.022.013-.1.055a15.594 15.594 0 0 0-5.438 5.6l-.291-.162-1.282-.713a23.381 23.381 0 0 1 3.246-4.283l.072-.074.036-.038.016-.016.018-.018.075-.076.039-.039.048-.049.024-.023.037-.037.1-.1c.044-.044.08-.079.118-.114l.032-.032.078-.073.036-.035.038-.036.036-.034.036-.033.042-.039.056-.052c.047-.043.083-.077.121-.11l.109-.1.018-.015.017-.015.08-.072.135-.117.118-.1.111-.094.044-.036.073-.06c.1-.083.177-.144.253-.2l.112-.088.117-.09c.134-.1.25-.187.366-.27l.117-.085c.131-.092.248-.172.366-.25l.091-.06.027-.018c.128-.083.247-.158.367-.23l.016-.01.1-.061.124-.073.058-.034.022-.012.012-.008.029-.016.1-.054.033-.018.093-.051.045-.024.025-.013.071-.038.06-.031.081-.042.057-.028.067-.034.094-.046.064-.032.064-.03.058-.028.052-.023.049-.023.034-.015.032-.014.066-.03.025-.01.033-.015.066-.029.063-.026.039-.016.063-.026.062-.025.06-.025.1-.04.055-.021.086-.032.04-.016.049-.017.065-.023.035-.012.033-.012.064-.022.02-.006.019-.007.047-.015.079-.026a7.635 7.635 0 0 1 2.32-.386zm0-.14a7.771 7.771 0 0 0-2.362.392l-.127.042-.041.014-.1.033-.035.012-.116.042-.053.019-.076.029-.052.019-.109.043-.062.025-.062.025-.064.026-.1.044-.067.029-.056.024-.068.031-.066.029-.1.047-.057.027-.066.032-.067.032-.095.046-.068.034-.059.031-.08.041-.061.032-.1.051-.047.026-.125.067-.125.072-.038.021-.056.032-.125.074-.12.072c-.12.073-.241.149-.37.233l-.12.078c-.119.079-.237.16-.368.253l-.119.085c-.117.084-.234.17-.369.273l-.118.091-.113.088c-.077.061-.154.123-.255.206l-.117.1-.112.094c-.038.033-.077.065-.12.1l-.135.117-.081.072-.034.03-.111.1-.122.111-.1.091-.034.032-.076.072-.038.037-.077.072-.034.033-.117.114-.1.1-.036.036-.074.073-.039.04-.075.076-.034.035-.109.111a23.561 23.561 0 0 0-3.339 4.433l1.817 1.011a15.642 15.642 0 0 1 5.458-5.665l.095-.054.1-.053.095-.052.093-.05.095-.048c.026-.014.051-.027.095-.048l.093-.046.091-.044.093-.043.091-.041.091-.04.091-.038.091-.038a6.029 6.029 0 0 1 2.252-.479 4.3 4.3 0 0 1 1.908.435c.6-1.041 1.2-2.075 1.8-3.115a5.194 5.194 0 0 0-2.5-.59z" class="cls-70"/>
                    </g>
                </g>
                <g id="Group_67" class="cls-66">
                    <g id="Group_66" clip-path="url(#clip-path)">
                        <g id="Group_65" class="cls-66">
                            <path id="Path_243" fill="#95979a" d="M1051.643 211.209l-3.53-2.051 3.529 2.051z"/>
                        </g>
                    </g>
                </g>
                <path id="Path_245" d="M1066.3 196.581a.454.454 0 0 1-.06-.023c-.157-.065-.312-.135-.468-.2l-.115-.05c-.1-.042-.2-.081-.3-.117s-.219-.073-.33-.105l-.114-.03-.143-.037c-.122-.031-.245-.058-.369-.083l-.113-.022c-.017 0-.032-.008-.049-.01-.146-.026-.294-.046-.443-.063l-.083-.008c-.1-.011-.21-.021-.316-.028h-.1c-.059 0-.12 0-.18-.006-.116 0-.232-.005-.35 0h-.299c-.076 0-.153.011-.229.016s-.151.01-.226.017c-.114.01-.23.025-.346.039-.076.01-.152.018-.229.029l-.044.006c-.17.025-.342.056-.516.091-.234.047-.47.1-.707.166l-.049.012c-.168.045-.337.1-.506.149l-.12.039c-.181.059-.364.122-.547.19l-.057.021c-.151.056-.3.116-.454.179-.068.027-.136.056-.2.085a14.106 14.106 0 0 0-1.348.654.659.659 0 0 1-.1.043l-.829.479c-.031.023-.061.047-.089.066-.3.2-.61.386-.912.593-.458.311-.91.653-1.361 1.013q-.281.225-.557.461c-.059.049-.117.1-.175.152-.126.108-.252.218-.377.33l-.207.189c-.113.1-.226.208-.339.315l-.217.209c-.067.065-.134.128-.2.194l-.22.22q-.346.351-.683.713l-.263.293c-.134.147-.268.294-.4.444l-.014.016q-.3.348-.595.707c-.051.062-.1.125-.15.188-.129.16-.26.321-.387.485l-.037.05q-.417.541-.815 1.106c-.026.036-.054.07-.08.107s-.07.107-.106.158q-.316.459-.623.932c-.03.046-.063.091-.093.138l-.035.057q-.3.466-.583.947l-.03.047v.006l-.014.022-.011.018-.008.019v.007l3.529 2.051a1.009 1.009 0 0 1 .071-.119q.285-.479.581-.943c.045-.071.093-.141.139-.212q.3-.459.6-.9l.2-.291c.264-.371.531-.736.807-1.093.143-.185.289-.368.436-.55.046-.058.091-.116.138-.173.2-.244.4-.485.608-.72.159-.183.322-.362.484-.54.06-.066.119-.135.18-.2q.337-.364.685-.715c.14-.141.281-.278.422-.415l.214-.207.348-.323c.066-.06.131-.121.2-.18.13-.117.262-.231.394-.345.052-.046.1-.092.158-.137q.277-.237.56-.463c.45-.36.9-.7 1.361-1.013.3-.207.607-.4.911-.594a1.075 1.075 0 0 0 .089-.065l.83-.479.052-.02c.015-.007.031-.014.047-.023a14.321 14.321 0 0 1 1.348-.654q.33-.141.655-.263l.066-.024c.179-.066.358-.128.536-.186l.127-.042q.278-.087.553-.159.354-.1.707-.167c.189-.038.376-.069.561-.1.076-.012.151-.019.226-.029.115-.014.232-.029.346-.039.078-.008.156-.012.233-.017.112-.007.224-.015.334-.018H1066.653c.062 0 .124 0 .185.007.136.007.27.017.4.031l.094.008q.246.028.486.072l.127.026c.12.023.239.05.358.079l.145.038c.15.041.3.084.444.134s.284.11.424.17.306.136.461.2l.011.005a.436.436 0 0 0 .05.018z" class="cls-163"/>
                <g id="Group_69">
                    <g id="Group_68">
                        <path id="Path_246" d="M1050 210.215l.022-.035a32.74 32.74 0 0 1 4.854-6.329 27.151 27.151 0 0 1 2.287-2.064c.491-.393.935-.723 1.358-1.01.2-.139.405-.269.609-.4l.3-.193c.029-.019.06-.042.09-.066l.826-.476a.6.6 0 0 0 .1-.043 14.257 14.257 0 0 1 1.341-.651 13.407 13.407 0 0 1 2.63-.837 10.084 10.084 0 0 1 1.969-.2 7.566 7.566 0 0 1 2.474.4c.2.07.4.158.592.242.093.042.187.083.281.123-.219.4-1.477 2.573-1.755 3.025h-.007a6.03 6.03 0 0 0-2.356-.622c-.146-.009-.293-.013-.442-.013a9.133 9.133 0 0 0-2.946.53l-.325.116-.228.088-.165.066-.136.057-.333.147-.387.186-.237.121-.289.154-.172.1c-.211.121-.347.2-.483.288l-.19.119a23.922 23.922 0 0 0-7.25 7.561c-.072.113-.141.228-.211.343l-.135.222z" class="cls-164"/>
                        <path id="Path_247" d="M1066.386 197.976a7.5 7.5 0 0 1 2.45.4c.2.069.4.156.586.24.071.032.142.064.211.093-.283.511-1.367 2.379-1.682 2.9a6.1 6.1 0 0 0-2.333-.6c-.147-.01-.3-.014-.446-.014a9.193 9.193 0 0 0-2.969.534l-.087.03-.044.015-.1.035-.061.022-.039.014-.1.037-.133.052-.017.007-.148.059-.138.058-.022.01-.136.058-.051.023-.075.035-.019.008-.03.013-.082.038-.025.012-.035.017-.023.01-.069.034-.062.03-.031.014-.032.016-.032.016-.069.035-.054.028-.114.059c-.126.066-.208.11-.291.156l-.174.1c-.2.113-.337.2-.485.289l-.024.015-.061.038-.057.036-.048.03a24 24 0 0 0-7.271 7.582c-.073.114-.142.229-.212.345l-.1.164c-.288-.159-.574-.319-.861-.479l-.7-.39a32.643 32.643 0 0 1 4.828-6.288 26.658 26.658 0 0 1 2.281-2.059c.489-.391.932-.721 1.354-1.008.2-.137.407-.27.607-.4l.3-.194c.029-.018.058-.041.091-.066l.262-.151.55-.318h.008a.866.866 0 0 0 .1-.044 14.271 14.271 0 0 1 1.336-.648 13.284 13.284 0 0 1 2.615-.833 10.039 10.039 0 0 1 1.957-.2zm0-.14a10.053 10.053 0 0 0-1.983.207 13.384 13.384 0 0 0-2.644.841 14.321 14.321 0 0 0-1.348.654.765.765 0 0 1-.1.043l-.83.479a1.075 1.075 0 0 1-.089.065c-.3.2-.609.387-.911.594-.458.311-.911.653-1.361 1.013a26.923 26.923 0 0 0-2.293 2.07 32.64 32.64 0 0 0-4.865 6.341 1.009 1.009 0 0 0-.071.119.325.325 0 0 1 .079.016l1.671.93.068.036c.021-.035.041-.064.059-.093.108-.176.212-.353.322-.527a23.752 23.752 0 0 1 7.229-7.539l.1-.066.085-.053c.135-.084.271-.165.481-.285l.172-.1c.082-.048.162-.089.287-.155l.114-.058.053-.027.068-.035.063-.031.091-.044.069-.033.057-.027.106-.049.049-.022.125-.057.156-.067.136-.057.146-.059.148-.058.136-.051.154-.056.13-.044a9.019 9.019 0 0 1 2.923-.527c.147 0 .293.005.438.013a5.931 5.931 0 0 1 2.33.615l.064.028c.193-.3 1.791-3.051 1.826-3.151a.461.461 0 0 1-.061-.023c-.3-.124-.582-.264-.887-.371a7.625 7.625 0 0 0-2.5-.4z" class="cls-70"/>
                    </g>
                </g>
                <g id="Group_71">
                    <g id="Group_70">
                        <path id="Path_248" d="M1055.482 213.3l.227-.379.273-.422.242-.35.251-.339.2-.249.265-.322.217-.248.054-.06c.165-.183.334-.361.5-.528l.29-.279.381-.339.308-.255.388-.3.272-.19.257-.169c.116-.073.22-.137.324-.2l.223-.124.351-.178.281-.127.3-.119.182-.065.169-.054.15-.044.151-.039.154-.036a4.463 4.463 0 0 1 .926-.1h.152l.136.009.135.013.067.008.132.021.131.026.066.015.175.048.141.047.145.055.121.054.058.029c-.2.371-1.349 2.373-1.642 2.858a2.31 2.31 0 0 0-.7-.188l-.126-.009h-.214l-.111.007-.112.011-.164.025-.141.028-.045.011a4.118 4.118 0 0 0-.906.347l-.127.067-.113.063a7.974 7.974 0 0 0-2.776 2.859z" class="cls-164"/>
                        <path id="Path_249" d="M1062.814 207.725l.013.14h.269l.066.006.067.007.065.008.065.01.064.01.065.013.068.014h.013l.048.011.032-.136-.014.141.045.011.016.005.023.006h.016l.026.007.026.009h.015l.021.007.026.009.016.005.018.006.015.005.033.012.015.005.02.007.025.01.047-.132-.034.137.022.009.022.009.019.007.041.018.056-.129-.037.137.027.012h.008l.014.008c-.265.476-1.259 2.212-1.574 2.738a2.4 2.4 0 0 0-.673-.169h-.598l-.047.007-.046.007-.051.009h-.014l-.03.005-.051.011-.049.011-.045.01a4.219 4.219 0 0 0-.92.351l-.024.013-.025.013-.015.008-.033.018-.032.017-.018.01-.048.027-.049.027a8.013 8.013 0 0 0-2.766 2.826l-.462-.256-1.028-.572.01-.017.025-.043.022-.037.016-.026.017-.028.011-.02.014-.021.03-.05.027-.044.016-.026.012-.019.018-.029.011-.017.029-.046.009-.015.025-.039.023-.035.027-.042.016-.025.016-.024.028-.043.031-.045.027-.042.038-.056.022-.032.031-.045.014-.021.014-.02.017-.024.016-.023.011-.017.016-.021.033-.047.028-.039.043-.06.018-.025.025-.033.012-.017.013-.018.014-.019.018-.024.018-.024.026-.036.038-.049.011-.015.014-.019.012-.015.026-.035.009-.011.019-.024.039-.049.024-.032.025-.032.023-.028.024-.03.039-.049.019-.023.014-.018.03-.036.011-.013.011-.014.024-.028.021-.026.021-.025.024-.029.026-.031.017-.02.05-.059.039-.044.033-.038.056-.064.018-.019.02-.024.054-.06c.164-.181.333-.358.5-.523l.036-.037.035-.034.018-.017.055-.053.038-.037.035-.032.034-.032.038-.036.047-.043.026-.025.074-.067.08-.071.014-.013.027-.023.025-.022.011-.009.012-.011.035-.03.028-.024-.092-.106.1.1.026-.022.025-.022.024-.02.052-.043.021-.018.028-.023.027-.021.02-.017.034-.027.02-.016.023-.019.051-.04.011-.009.015-.011.025-.02.023-.018.027-.021.019-.014.033-.026.024-.018.053-.04.024-.017.028-.021.026-.018.02-.016.028-.019.026-.02.03-.021.054-.038-.082-.113.1.1.052-.036.013-.009.012-.008.039-.026.016-.011.079-.053.035-.023.046-.03.029-.019.051-.032c.115-.073.218-.136.32-.195.087-.049.154-.087.222-.123l.023-.012.023-.013.037-.019.037-.019.029-.015.02-.011.023-.011.034-.017.024-.012.016-.008.016-.008.015-.008.025-.012h.012l.014-.007.025-.012.032-.015.028-.013.015-.007.034-.015.038-.018.013-.005.022-.01.054-.023.016-.007.047-.02.03-.012.042-.017.03-.013.048-.018.026-.011.034-.013h.015l.036-.014.04-.014.023-.009.054-.019.02-.007.031-.01.019-.006.024-.008.031-.011.024-.007h.015l.052-.016.075-.023.048-.013.027-.008h.017l.058-.015.076-.019.076-.018.075-.017a4.382 4.382 0 0 1 .911-.1v-.14zm0 0a4.555 4.555 0 0 0-.94.1l-.078.017-.078.019-.077.019-.076.021-.077.021-.076.023-.055.017-.022.007-.052.017-.024.008-.051.017-.026.009-.049.018-.026.009-.049.018-.027.011-.048.018-.029.011-.046.018-.029.012-.046.019-.031.012-.044.019-.032.014-.043.019-.033.014-.042.019-.034.015-.041.019-.035.017c-.013.005-.026.012-.038.018l-.038.018-.037.018-.039.02-.034.017-.042.021-.032.017-.044.022-.027.015-.048.025c-.069.037-.137.076-.225.125-.105.061-.209.125-.326.2l-.081.052-.082.054-.08.054-.057.038-.022.016-.055.038-.024.017-.054.038-.023.017-.054.038-.025.018-.052.039-.025.018-.052.039-.025.019-.053.041-.023.017-.053.042-.024.018-.052.042-.025.019-.052.042-.023.02-.053.043-.024.019-.052.044-.023.019-.053.045-.022.019-.054.047-.021.018-.055.047-.02.019-.075.067-.074.067-.074.068-.073.069-.074.07-.073.07-.072.071c-.171.17-.339.346-.506.531l-.075.083-.075.085-.072.083-.05.059-.02.024-.048.056-.021.026-.046.055-.022.027-.044.054-.024.029-.043.053-.024.031-.041.052-.025.032-.04.051-.026.033-.039.051-.026.035-.038.049-.026.036-.037.049-.027.037-.036.049-.027.038-.035.048-.028.038-.033.049-.029.039-.033.048-.028.041-.033.048-.027.04-.032.048-.029.042-.031.046-.028.043-.031.048-.028.042-.03.048-.028.044-.029.046-.028.045-.029.047-.028.044-.031.051-.024.041-.033.055-.023.038-.035.059-.02.034-.054.094 1.732.962a8.019 8.019 0 0 1 2.787-2.892l.048-.028.047-.026.048-.026.048-.026.046-.023a4.082 4.082 0 0 1 .89-.341l.045-.01.045-.011.047-.009.045-.008.046-.008.044-.007.045-.006.046-.006h.047l.042-.005H1061.921a2.206 2.206 0 0 1 .737.208c.228-.367 1.674-2.891 1.71-2.979l-.075-.038-.047-.023-.019-.009-.044-.019-.019-.009-.043-.018-.02-.008-.044-.018-.019-.007-.044-.017-.021-.007-.044-.016-.02-.006-.044-.015-.02-.006-.046-.014-.019-.005-.046-.013h-.019l-.048-.013h-.018l-.048-.011h-.018c-.017 0-.033-.008-.067-.014l-.068-.013-.067-.011-.068-.011-.067-.008-.069-.007-.069-.007H1062.814z" class="cls-70"/>
                    </g>
                </g>
            </g>
            <g id="Group_73" style="mix-blend-mode:hard-light;isolation:isolate" fill="#4cd9ed" opacity="0.41">
                <path id="Path_250" d="M1068.731 229.13c0 1.1-3.914 2-8.748 2s-8.744-.9-8.744-2 3.918-2 8.744-2 8.748.894 8.748 2z"/>
                <path id="Path_251" d="M1069.32 228.3c-.08 1.373-4.1 1.614-9.376 1.613s-9.253-.294-9.314-1.615c-.054-1.181 4.043-2.515 9.314-2.515s9.445 1.336 9.376 2.517z" opacity="0.984"/>
                <path id="Path_252" d="M1069.91 227.447c-.166 1.649-4.282 1.229-10.005 1.228s-9.758.311-9.883-1.23c-.1-1.258 4.167-3.032 9.883-3.032s10.131 1.779 10.005 3.034z" opacity="0.967"/>
                <path id="Path_253" d="M1070.5 226.491c-.257 1.925-4.465.845-10.633.844s-10.26.915-10.452-.846c-.146-1.334 4.292-3.55 10.452-3.55s10.81 2.223 10.633 3.552z" opacity="0.951"/>
                <path id="Path_254" d="M1071.089 225.486c-.353 2.2-4.649.461-11.261.46s-10.761 1.519-11.023-.462c-.186-1.41 4.417-4.067 11.023-4.067s11.485 2.667 11.261 4.069z" opacity="0.934"/>
                <path id="Path_255" d="M1071.678 224.462c-.451 2.478-4.832.076-11.889.075s-11.258 2.124-11.592-.077c-.225-1.487 4.541-4.586 11.592-4.586s12.158 3.111 11.889 4.588z" opacity="0.918"/>
                <path id="Path_256" d="M1072.268 223.427c-.553 2.755-5.016-.308-12.518-.309s-11.754 2.729-12.161.307c-.263-1.564 4.666-5.1 12.161-5.1s12.829 3.551 12.518 5.102z" opacity="0.902"/>
                <path id="Path_257" d="M1072.857 222.387c-.656 3.03-5.2-.692-13.146-.693s-12.248 3.332-12.731.691c-.3-1.641 4.791-5.621 12.731-5.621s13.498 3.997 13.146 5.623z" opacity="0.885"/>
                <path id="Path_258" d="M1073.447 221.343c-.762 3.3-5.383-1.076-13.775-1.077s-12.74 3.936-13.3 1.075c-.336-1.718 4.915-6.138 13.3-6.138s14.167 4.439 13.775 6.14z" opacity="0.869"/>
                <path id="Path_259" d="M1074.036 220.3c-.869 3.579-5.566-1.461-14.4-1.462s-13.232 4.54-13.869 1.46c-.371-1.795 5.04-6.656 13.869-6.656s14.832 4.879 14.4 6.658z" opacity="0.852"/>
                <path id="Path_260" d="M1074.626 219.249c-.979 3.853-5.75-1.845-15.031-1.846s-13.724 5.144-14.439 1.844c-.406-1.872 5.164-7.173 14.439-7.173s15.505 5.326 15.031 7.175z" opacity="0.836"/>
                <path id="Path_261" d="M1075.215 218.2c-1.088 4.126-5.933-2.23-15.659-2.231s-14.213 5.747-15.009 2.228c-.44-1.949 5.29-7.691 15.009-7.691s16.168 5.768 15.659 7.694z" opacity="0.82"/>
                <path id="Path_262" d="M1075.805 217.151c-1.2 4.4-6.117-2.614-16.288-2.614s-14.7 6.349-15.578 2.612c-.474-2.027 5.414-8.209 15.578-8.209s16.834 6.209 16.288 8.211z" opacity="0.803"/>
                <path id="Path_263" d="M1076.4 216.1c-1.313 4.672-6.3-3-16.917-3s-15.191 6.952-16.147 3c-.509-2.1 5.538-8.727 16.147-8.727s17.496 6.65 16.917 8.727z" opacity="0.787"/>
                <path id="Path_264" d="M1076.984 215.05c-1.426 4.945-6.484-3.382-17.544-3.383s-15.68 7.554-16.717 3.381c-.543-2.182 5.663-9.244 16.717-9.244s18.166 7.096 17.544 9.246z" opacity="0.77"/>
                <path id="Path_265" d="M1077.574 214c-1.541 5.216-6.668-3.766-18.173-3.767s-16.167 8.156-17.286 3.765c-.576-2.26 5.787-9.762 17.286-9.762s18.832 7.533 18.173 9.764z" opacity="0.754"/>
                <path id="Path_266" d="M1078.164 212.948c-1.656 5.488-6.852-4.151-18.8-4.152s-16.654 8.759-17.855 4.149c-.61-2.337 5.912-10.279 17.855-10.279s19.495 7.975 18.8 10.282z" opacity="0.738"/>
                <path id="Path_267" d="M1078.753 211.9c-1.771 5.759-7.035-4.535-19.429-4.536s-17.141 9.361-18.426 4.534c-.642-2.415 6.037-10.8 18.426-10.8s20.162 8.415 19.429 10.802z" opacity="0.721"/>
                <path id="Path_268" d="M1079.343 210.845c-1.887 6.03-7.219-4.92-20.058-4.921s-17.627 9.963-18.995 4.918c-.676-2.493 6.162-11.314 18.995-11.314s20.828 8.857 20.058 11.317z" opacity="0.705"/>
                <path id="Path_269" d="M1079.933 209.793c-2 6.3-7.4-5.3-20.687-5.3s-18.113 10.564-19.564 5.3c-.709-2.571 6.286-11.832 19.564-11.832s21.493 9.296 20.687 11.832z" opacity="0.689"/>
                <path id="Path_270" d="M1080.522 208.741c-2.121 6.571-7.585-5.689-21.314-5.689s-18.6 11.165-20.134 5.686c-.742-2.649 6.411-12.35 20.134-12.35s22.157 9.74 21.314 12.353z" opacity="0.672"/>
                <path id="Path_271" d="M1081.112 207.688c-2.239 6.842-7.769-6.072-21.943-6.073s-19.084 11.767-20.7 6.071c-.775-2.727 6.535-12.867 20.7-12.867s22.823 10.181 21.943 12.869z" opacity="0.656"/>
                <path id="Path_272" d="M1081.7 206.636c-2.357 7.112-7.953-6.457-22.572-6.457s-19.569 12.368-21.272 6.455c-.808-2.806 6.66-13.385 21.272-13.385s23.49 10.621 22.572 13.387z" opacity="0.639"/>
                <path id="Path_273" d="M1082.291 205.584c-2.474 7.382-8.136-6.841-23.2-6.842s-20.055 12.969-21.842 6.839c-.841-2.883 6.784-13.9 21.842-13.9s24.153 11.06 23.2 13.903z" opacity="0.623"/>
                <path id="Path_274" d="M1082.881 204.531c-2.593 7.652-8.32-7.225-23.828-7.226s-20.539 13.571-22.411 7.224c-.874-2.962 6.909-14.421 22.411-14.421s24.817 11.504 23.828 14.423z" opacity="0.607"/>
                <path id="Path_275" d="M1083.471 203.479c-2.712 7.921-8.5-7.61-24.457-7.611s-21.024 14.172-22.981 7.608c-.906-3.04 7.035-14.938 22.981-14.938s25.486 11.945 24.457 14.941z" opacity="0.59"/>
                <path id="Path_276" d="M1084.06 202.426c-2.831 8.191-8.687-7.994-25.084-7.994s-21.509 14.772-23.551 7.992c-.939-3.119 7.159-15.456 23.551-15.456s26.147 12.385 25.084 15.458z" opacity="0.574"/>
                <path id="Path_277" d="M1084.65 201.374c-2.951 8.46-8.87-8.379-25.713-8.379s-21.993 15.373-24.12 8.376c-.971-3.2 7.284-15.973 24.12-15.973s26.812 12.826 25.713 15.976z" opacity="0.557"/>
                <path id="Path_278" d="M1085.24 200.321c-3.07 8.73-9.054-8.763-26.342-8.763s-22.477 15.974-24.689 8.76c-1-3.275 7.408-16.49 24.689-16.49s27.477 13.266 26.342 16.493z" opacity="0.541"/>
                <path id="Path_279" d="M1085.83 199.268c-3.19 9-9.238-9.147-26.97-9.147s-22.96 16.579-25.26 9.145c-1.037-3.354 7.533-17.009 25.259-17.009s28.141 13.708 26.971 17.011z" opacity="0.525"/>
                <path id="Path_280" d="M1086.419 198.216c-3.31 9.268-9.421-9.532-27.6-9.532s-23.445 17.175-25.828 9.529c-1.07-3.432 7.657-17.526 25.828-17.526s28.808 14.148 27.6 17.529z" opacity="0.508"/>
                <path id="Path_281" d="M1087.009 197.163c-3.43 9.537-9.6-9.916-28.226-9.916s-23.929 17.776-26.4 9.913c-1.1-3.51 7.782-18.043 26.4-18.043s29.47 14.588 28.226 18.046z" opacity="0.492"/>
                <path id="Path_282" d="M1087.6 196.11c-3.551 9.806-9.789-10.3-28.855-10.3s-24.412 18.376-26.967 10.3c-1.135-3.588 7.906-18.561 26.967-18.561s30.134 15.026 28.855 18.561z" opacity="0.475"/>
                <path id="Path_283" d="M1088.189 195.057c-3.671 10.075-9.972-10.684-29.484-10.684s-24.9 18.977-27.536 10.682c-1.168-3.667 8.031-19.079 27.536-19.079s30.8 15.47 29.484 19.081z" opacity="0.459"/>
                <path id="Path_284" d="M1088.778 194.005c-3.791 10.343-10.155-11.069-30.111-11.069s-25.38 19.577-28.106 11.066c-1.2-3.745 8.156-19.6 28.106-19.6s31.464 15.914 30.111 19.603z" opacity="0.443"/>
                <path id="Path_285" d="M1089.368 192.952c-3.912 10.612-10.339-11.453-30.74-11.453s-25.863 20.178-28.675 11.45c-1.233-3.824 8.28-20.114 28.675-20.114s32.129 16.351 30.74 20.117z" opacity="0.426"/>
                <path id="Path_286" d="M1089.958 191.9c-4.033 10.881-10.523-11.837-31.368-11.837s-26.347 20.778-29.245 11.834c-1.265-3.9 8.405-20.632 29.245-20.632s32.792 16.791 31.368 20.635z" opacity="0.41"/>
                <path id="Path_287" d="M1090.548 190.846c-4.155 11.149-10.707-12.221-32-12.222s-26.829 21.379-29.814 12.219c-1.3-3.98 8.529-21.149 29.814-21.149s33.46 17.232 32 21.152z" opacity="0.393"/>
                <path id="Path_288" d="M1091.137 189.793c-4.275 11.418-10.889-12.6-32.625-12.606s-27.312 21.979-30.384 12.6c-1.329-4.06 8.655-21.668 30.384-21.668s34.122 17.681 32.625 21.674z" opacity="0.377"/>
                <path id="Path_289" d="M1091.727 188.74c-4.4 11.686-11.073-12.989-33.253-12.99s-27.8 22.579-30.954 12.988c-1.362-4.138 8.78-22.185 30.954-22.185s34.786 18.113 33.253 22.187z" opacity="0.361"/>
                <path id="Path_290" d="M1092.317 187.688c-4.518 11.954-11.257-13.375-33.882-13.375s-28.278 23.179-31.523 13.372c-1.394-4.217 8.9-22.7 31.523-22.7s35.451 18.551 33.882 22.703z" opacity="0.344"/>
                <path id="Path_291" d="M1092.907 186.635c-4.64 12.222-11.441-13.759-34.51-13.759s-28.762 23.779-32.093 13.756c-1.427-4.295 9.029-23.22 32.093-23.22s36.115 18.994 34.51 23.223z" opacity="0.328"/>
                <path id="Path_292" d="M1093.5 185.582c-4.76 12.491-11.624-14.143-35.138-14.143s-29.245 24.379-32.662 14.14c-1.459-4.373 9.153-23.738 32.662-23.738s36.776 19.435 35.138 23.741z" opacity="0.311"/>
                <path id="Path_293" d="M1094.086 184.529C1089.2 197.288 1082.278 170 1058.319 170s-29.727 24.98-33.231 14.525c-1.492-4.452 9.278-24.255 33.231-24.255s37.445 19.875 35.767 24.259z" opacity="0.295"/>
                <path id="Path_294" d="M1094.676 183.476c-5 13.027-11.991-14.911-36.4-14.912s-30.21 25.58-33.8 14.909c-1.524-4.53 9.4-24.773 33.8-24.773s38.114 20.315 36.4 24.776z" opacity="0.279"/>
                <path id="Path_295" d="M1095.266 182.423c-5.126 13.295-12.175-15.3-37.024-15.3s-30.693 26.18-34.37 15.293c-1.557-4.609 9.527-25.29 34.37-25.29s38.773 20.759 37.024 25.297z" opacity="0.262"/>
                <path id="Path_296" d="M1095.856 181.37c-5.248 13.563-12.359-15.68-37.652-15.68s-31.176 26.78-34.94 15.677c-1.589-4.687 9.652-25.808 34.94-25.808s39.437 21.196 37.652 25.811z" opacity="0.246"/>
                <path id="Path_297" d="M1096.445 180.317c-5.369 13.831-12.542-16.064-38.28-16.064s-31.658 27.38-35.509 16.061c-1.621-4.766 9.776-26.326 35.509-26.326s40.102 21.637 38.28 26.329z" opacity="0.23"/>
                <path id="Path_298" d="M1097.035 179.264c-5.491 14.1-12.725-16.448-38.908-16.449s-32.142 27.98-36.079 16.446c-1.654-4.845 9.9-26.843 36.079-26.843s40.766 22.076 38.908 26.846z" opacity="0.213"/>
                <path id="Path_299" d="M1097.625 178.211c-5.613 14.367-12.909-16.833-39.537-16.833s-32.624 28.58-36.648 16.83c-1.686-4.923 10.026-27.361 36.648-27.361s41.431 22.517 39.537 27.364z" opacity="0.197"/>
                <path id="Path_300" d="M1098.215 177.158c-5.736 14.635-13.093-17.217-40.166-17.217s-33.106 29.18-37.217 17.214c-1.719-5 10.15-27.878 37.217-27.878s42.096 22.957 40.166 27.881z" opacity="0.18"/>
                <path id="Path_301" d="M1098.8 176.106c-5.857 14.9-13.276-17.6-40.793-17.6s-33.589 29.78-37.787 17.6c-1.751-5.08 10.275-28.4 37.787-28.4s42.763 23.394 40.793 28.4z" opacity="0.164"/>
                <path id="Path_302" d="M1099.394 175.053c-5.979 15.17-13.46-17.986-41.422-17.986s-34.071 30.379-38.356 17.983c-1.783-5.16 10.4-28.914 38.356-28.914s43.428 23.837 41.422 28.917z" opacity="0.148"/>
                <path id="Path_303" d="M1099.984 174c-6.1 15.438-13.643-18.371-42.05-18.371s-34.554 30.98-38.926 18.368c-1.816-5.239 10.524-29.432 38.926-29.432s44.088 24.278 42.05 29.435z" opacity="0.131"/>
                <path id="Path_304" d="M1100.574 172.947c-6.224 15.7-13.827-18.755-42.679-18.755s-35.036 31.58-39.495 18.752c-1.848-5.317 10.649-29.95 39.495-29.95s44.753 24.719 42.679 29.953z" opacity="0.115"/>
                <path id="Path_305" d="M1101.163 171.894c-6.347 15.973-14.011-19.139-43.307-19.139s-35.495 32.171-40.065 19.136c-1.87-5.4 10.773-30.467 40.065-30.467s45.417 25.158 43.307 30.47z" opacity="0.098"/>
                <path id="Path_306" d="M1101.753 170.843c-6.5 16.229-14.194-19.523-43.935-19.523s-35.981 32.772-40.634 19.52c-1.9-5.477 10.9-30.985 40.634-30.985s46.071 25.595 43.935 30.988z" opacity="0.082"/>
                <path id="Path_307" d="M1102.344 169.743c-6.617 16.5-14.378-19.907-44.564-19.907s-36.467 33.373-41.2 19.9c-1.938-5.555 11.023-31.5 41.2-31.5s46.737 26.038 44.564 31.507z" opacity="0.066"/>
                <path id="Path_308" d="M1102.933 168.7c-6.732 16.768-14.561-20.292-45.192-20.292s-36.953 33.974-41.773 20.288c-1.972-5.633 11.147-32.019 41.773-32.019s47.404 26.479 45.192 32.023z" opacity="0.049"/>
                <path id="Path_309" d="M1103.523 167.66c-6.849 17.039-14.745-20.676-45.82-20.676s-37.44 34.575-42.343 20.672c-2.006-5.711 11.272-32.537 42.343-32.537s48.07 26.918 45.82 32.541z" opacity="0.033"/>
                <path id="Path_310" d="M1104.113 166.618c-6.965 17.309-14.929-21.061-46.449-21.061s-37.926 35.178-42.912 21.058c-2.041-5.79 11.4-33.055 42.912-33.055s48.736 27.359 46.449 33.058z" opacity="0.016"/>
            </g>
        </g>
        <g id="Group_76">
            <path id="Path_312" d="M1033.438 405.07c-4.1-.939-8.288.027-9.777 2.155l-6.681-1.528c-.6-.137-1.209.023-1.367.359s.2.716.8.854l6.739 1.54c-.386 2.267 2.132 4.644 6.1 5.551 4.4 1.008 8.908-.177 10.064-2.642s-1.476-5.281-5.878-6.289z" class="cls-230"/>
            <g id="Group_75">
                <path id="Path_313" fill="url(#linear-gradient-28)" d="M1017.893 405.745a1.158 1.158 0 0 1-1.158 1.158 1.159 1.159 0 0 1-1.159-1.158v-16.8a1.158 1.158 0 0 1 1.159-1.158 1.157 1.157 0 0 1 1.158 1.158z"/>
                <path id="Path_314" fill="url(#linear-gradient-29)" d="M1025.059 390.125a8.527 8.527 0 1 1-8.527-8.528 8.528 8.528 0 0 1 8.527 8.528z"/>
            </g>
        </g>
        <g id="Group_78">
            <path id="Path_315" d="M1024.025 430.1c-4.1-.939-8.288.027-9.778 2.156l-6.68-1.529c-.6-.138-1.209.023-1.367.36s.2.716.8.854l6.739 1.539c-.386 2.267 2.131 4.644 6.1 5.551 4.4 1.008 8.908-.176 10.065-2.642s-1.477-5.289-5.879-6.289z" class="cls-230"/>
            <g id="Group_77">
                <path id="Path_316" fill="url(#linear-gradient-30)" d="M1008.48 430.772a1.158 1.158 0 0 1-1.159 1.159 1.158 1.158 0 0 1-1.158-1.159v-16.8a1.157 1.157 0 0 1 1.158-1.158 1.158 1.158 0 0 1 1.159 1.158z"/>
                <path id="Path_317" fill="url(#linear-gradient-31)" d="M1015.645 415.152a8.527 8.527 0 1 1-8.527-8.527 8.528 8.528 0 0 1 8.527 8.527z"/>
            </g>
        </g>
        <g id="Group_80">
            <path id="Path_318" d="M1057.108 422.244c-4.1-.939-8.288.026-9.778 2.155l-6.68-1.528c-.6-.138-1.209.022-1.367.359s.2.716.8.854l6.739 1.54c-.386 2.266 2.131 4.643 6.1 5.551 4.4 1.007 8.908-.177 10.065-2.642s-1.477-5.282-5.879-6.289z" class="cls-230"/>
            <g id="Group_79">
                <path id="Path_319" fill="url(#linear-gradient-32)" d="M1041.563 422.919a1.158 1.158 0 0 1-1.159 1.158 1.158 1.158 0 0 1-1.158-1.158v-16.8a1.158 1.158 0 0 1 1.158-1.159 1.158 1.158 0 0 1 1.159 1.159z"/>
                <path id="Path_320" fill="url(#linear-gradient-33)" d="M1048.728 407.3a8.528 8.528 0 1 1-8.527-8.528 8.528 8.528 0 0 1 8.527 8.528z"/>
            </g>
        </g>
    </g>
</svg>
