<svg xmlns="http://www.w3.org/2000/svg" width="45.208" height="47.238" viewBox="0 0 45.208 47.238">
    <g>
        <path fill="#3a4354" d="M114.631 2695.715h-.461V2690a17.971 17.971 0 0 0 2.767-9.511c0-8.642-6.395-16.272-15.684-18.886v-3.441a1.384 1.384 0 0 0-1.384-1.384H88.8a1.384 1.384 0 0 0-1.384 1.384v3.441c-9.29 2.614-15.685 10.244-15.685 18.886A17.963 17.963 0 0 0 74.5 2690v5.712h-.461a1.384 1.384 0 1 0 0 2.768h2.306v2.307a3.233 3.233 0 0 0 3.229 3.229h3.691a3.233 3.233 0 0 0 3.229-3.229v-2.307h15.685v2.307a3.233 3.233 0 0 0 3.229 3.229h3.69a3.233 3.233 0 0 0 3.229-3.229v-2.307h2.307a1.384 1.384 0 1 0 0-2.768zm-37.366 0v-2.767h2.768v2.767zm0-5.535v-2.307a.462.462 0 0 1 .461-.461h2.307v2.768zm6.458 10.61a.462.462 0 0 1-.461.461h-3.691a.462.462 0 0 1-.461-.461v-2.307h4.613zm14.3-5.075h-7.38v-3.69h7.381zm2.768 0v-5.074a1.384 1.384 0 0 0-1.384-1.384H89.259a1.384 1.384 0 0 0-1.384 1.384v5.074H82.8v-8.3h23.065v8.3zm5.074-11.53v.459H82.8v-.459a30.167 30.167 0 0 1 23.066 0zm-18.452-4.311v-5.374h13.839v5.379a32.012 32.012 0 0 0-13.839 0zm22.143 20.916a.462.462 0 0 1-.462.461H105.4a.462.462 0 0 1-.462-.461v-2.307h4.614zm1.845-5.075h-2.768v-2.767h2.767zm0-5.535h-2.768v-2.768h2.306a.462.462 0 0 1 .462.461zm-.462-5.536h-2.306v-1.384a1.384 1.384 0 0 0-.839-1.272 37.658 37.658 0 0 0-3.774-1.388v-6.1h1.38a1.384 1.384 0 0 0 0-2.768H83.262a1.384 1.384 0 0 0 0 2.768h1.384v6.1a37.567 37.567 0 0 0-3.774 1.388 1.384 1.384 0 0 0-.839 1.272v1.384h-2.307a3.222 3.222 0 0 0-2.308.974 14.878 14.878 0 0 1-.921-5.126c0-7.678 6.011-14.449 14.617-16.466a1.385 1.385 0 0 0 1.068-1.348v-3.129h8.3v3.129a1.385 1.385 0 0 0 1.068 1.348c8.606 2.017 14.617 8.788 14.617 16.466a14.9 14.9 0 0 1-.921 5.126 3.223 3.223 0 0 0-2.306-.974z" transform="translate(-71.729 -2656.781)"/>
    </g>
</svg>
