<svg xmlns="http://www.w3.org/2000/svg" width="11.437" height="11.454" viewBox="0 0 11.437 11.454"><defs><style>.a{fill:#3a4354;}</style></defs><g transform="translate(-490.071 -305.355)"><path class="a" d="M499.115,312.45a1.129,1.129,0,0,0-.817-.375,1.161,1.161,0,0,0-.827.373l-.764.761c-.063-.034-.126-.065-.186-.1-.087-.043-.169-.084-.24-.128a8.293,8.293,0,0,1-1.989-1.813,4.914,4.914,0,0,1-.653-1.03c.2-.181.382-.37.561-.551.068-.068.135-.138.2-.2a1.109,1.109,0,0,0,0-1.673l-.66-.66c-.075-.075-.152-.153-.225-.23-.145-.15-.3-.3-.454-.45a1.145,1.145,0,0,0-.81-.355,1.185,1.185,0,0,0-.822.355l-.005.005-.822.829a1.769,1.769,0,0,0-.524,1.125,4.227,4.227,0,0,0,.309,1.793,10.422,10.422,0,0,0,1.849,3.085,11.371,11.371,0,0,0,3.789,2.966,5.887,5.887,0,0,0,2.127.629c.051,0,.1.005.152.005a1.82,1.82,0,0,0,1.395-.6l.01-.012a5.571,5.571,0,0,1,.423-.437c.1-.1.21-.2.314-.312a1.2,1.2,0,0,0,.365-.837,1.163,1.163,0,0,0-.372-.829ZM499.98,315h0c-.094.1-.191.193-.3.295a6.322,6.322,0,0,0-.466.483,1.165,1.165,0,0,1-.909.384c-.037,0-.075,0-.111,0a5.231,5.231,0,0,1-1.886-.566,10.727,10.727,0,0,1-3.568-2.794A9.8,9.8,0,0,1,491,309.9a3.453,3.453,0,0,1-.271-1.513,1.106,1.106,0,0,1,.334-.718l.824-.825a.55.55,0,0,1,.368-.171.521.521,0,0,1,.353.169l.007.007c.147.138.288.281.435.433l.23.235.66.659a.462.462,0,0,1,0,.75c-.07.07-.138.14-.208.208-.2.208-.4.4-.607.59-.005.005-.01.007-.012.012a.494.494,0,0,0-.126.549l.008.021a5.273,5.273,0,0,0,.78,1.274l0,0a8.872,8.872,0,0,0,2.147,1.953,3.125,3.125,0,0,0,.3.162c.087.044.169.085.239.128l.029.017a.527.527,0,0,0,.24.061.517.517,0,0,0,.367-.167l.827-.827a.548.548,0,0,1,.365-.181.492.492,0,0,1,.348.176l.005.005,1.332,1.332A.478.478,0,0,1,499.98,315Z"/><path class="a" d="M496.252,308.079a3.111,3.111,0,0,1,2.534,2.534.325.325,0,0,0,.322.271.506.506,0,0,0,.055-.005.327.327,0,0,0,.268-.377,3.76,3.76,0,0,0-3.065-3.066.328.328,0,0,0-.377.266A.323.323,0,0,0,496.252,308.079Z"/><path class="a" d="M501.5,310.407a6.191,6.191,0,0,0-5.047-5.047.324.324,0,0,0-.375.265.329.329,0,0,0,.268.378,5.533,5.533,0,0,1,4.511,4.511.325.325,0,0,0,.322.27.505.505,0,0,0,.055,0A.32.32,0,0,0,501.5,310.407Z"/></g></svg>