<svg xmlns="http://www.w3.org/2000/svg" width="21.27" height="21" viewBox="0 0 21.27 21">
    <defs>
        <style>
            .cls-2{fill:#3a4354}
        </style>
    </defs>
    <g id="Group_24" opacity="0.5" transform="translate(-699.73 -208)">
        <g id="Group_23">
            <path id="Path_50" d="M705.327 216.359h.016l1.8 1.8a.484.484 0 0 0 .685-.685l-1.8-1.8a.97.97 0 0 0-1.017-.224 3.053 3.053 0 0 1-3.317-.684 3.4 3.4 0 0 1-.942-2.994l1.624 1.623a.972.972 0 0 0 1.371 0l1.371-1.371a.972.972 0 0 0 0-1.371l-1.624-1.623a3.4 3.4 0 0 1 2.994.942 3.052 3.052 0 0 1 .684 3.316.975.975 0 0 0 .224 1.018l1.981 1.981a.484.484 0 1 0 .685-.685l-1.977-1.976a.04.04 0 0 1 0-.02 4.029 4.029 0 0 0-.913-4.32 4.373 4.373 0 0 0-3.857-1.209.961.961 0 0 0-.747.661.972.972 0 0 0 .239.981l1.623 1.623-1.371 1.371-1.623-1.623a.972.972 0 0 0-.981-.239.961.961 0 0 0-.661.747 4.373 4.373 0 0 0 1.209 3.857 4.029 4.029 0 0 0 4.324.904z" class="cls-2"/>
            <path id="Path_51" d="M714.073 219.6a.485.485 0 0 0-.686.685l5.907 5.907a.969.969 0 1 1-1.371 1.371l-5.553-5.554a.485.485 0 0 0-.686.686l5.554 5.553a1.923 1.923 0 0 0 1.371.568 1.939 1.939 0 0 0 1.371-3.309z" class="cls-2"/>
            <path id="Path_52" d="M710.561 221.435l6.629-6.629 1.059-.353 2.751-3.538-1.976-1.975-3.537 2.751-.353 1.059-6.629 6.629H706.983l-.11.331c-.1.288-.24.723-.3.917l-5.061 5.061a1.939 1.939 0 0 0 2.742 2.741l5.06-5.06c.2-.065.629-.21.918-.3l.331-.11V221.437zm5.42-8.162l.332-1 2.631-2.046.766.766-2.046 2.63-1 .333-6.592 6.592-.685-.686zm-6.39 8.984l-.182.06c-.625.208-.625.208-.705.29l-5.141 5.14a.969.969 0 1 1-1.37-1.371l5.136-5.136c.086-.084.086-.084.294-.709l.06-.182h.818l1.091 1.091-.001.817z" class="cls-2"/>
        </g>
    </g>
</svg>
