<svg xmlns="http://www.w3.org/2000/svg" width="21.362" height="21.151" viewBox="0 0 21.362 21.151">
    <defs>
        <linearGradient id="7p23xp5v2a" x1=".059" x2=".941" y1=".757" y2=".243" gradientUnits="objectBoundingBox">
            <stop offset="0" stop-color="#2691ec"/>
            <stop offset="1" stop-color="#3fa9f5"/>
        </linearGradient>
    </defs>
    <g transform="translate(-1765.714 -202.859)">
        <rect width="21.362" height="21.151" fill="url(#7p23xp5v2a)" rx="9.975" transform="translate(1765.714 202.859)"/>
        <path fill="#fff" d="M1781.532 212.758q-1.407-1.441-2.847-2.848a.856.856 0 0 0-1.2.034.889.889 0 0 0-.061 1.224 4.8 4.8 0 0 0 .376.379c.291.273.586.541.88.811l-.062.091c-.1 0-.2.013-.294.013h-5.368c-.338 0-.676-.009-1.013.006a.894.894 0 0 0-.865.9.882.882 0 0 0 .871.888c.112.006.225.006.338.006H1778.661c-.106.12-.157.183-.214.241-.39.392-.791.775-1.17 1.178a.879.879 0 0 0 .023 1.264.852.852 0 0 0 1.235-.024q1.488-1.458 2.961-2.932a.855.855 0 0 0 .036-1.231z"/>
    </g>
</svg>
