<svg xmlns="http://www.w3.org/2000/svg" width="13.812" height="19.412" viewBox="0 0 13.812 19.412">
    <defs>
        <style>
            .cls-2{fill:#3a4354}
        </style>
    </defs>
    <g id="Group_316" opacity="0.5" transform="translate(-831.448 -132.247)">
        <path id="Path_492" d="M832.2 151.659a.444.444 0 0 0-.063-.036.944.944 0 0 1-.687-.957V133.3a.96.96 0 0 1 .773-1.041 1.327 1.327 0 0 1 .245-.016h11.774a.946.946 0 0 1 1.017 1.02v17.361a1.014 1.014 0 0 1-.752 1.031zm-.118-9.707v8.626c0 .372.082.453.459.453h11.624c.378 0 .46-.081.46-.452v-17.251c0-.372-.081-.453-.459-.453h-11.624c-.379 0-.46.08-.46.452z" class="cls-2"/>
        <path id="Path_493" d="M843.995 133.509V146h-11.28v-12.491zm-10.649 11.878h1.864a3.172 3.172 0 0 1 1.632-2.739c-.013-.022-.016-.037-.025-.041a2.788 2.788 0 0 1-1.592-2.409c-.008-.111-.063-.127-.156-.139a1.239 1.239 0 0 1-.9-1.917.233.233 0 0 0 .023-.269 2.174 2.174 0 0 1 1.3-3.047.292.292 0 0 0 .146-.076c.138-.2.265-.4.4-.612h-2.7zm10.015.013v-11.254h-1.816c.077.069.129.114.18.161a3.049 3.049 0 0 1 .769 3.481.3.3 0 0 0 .027.336 1.237 1.237 0 0 1-.84 1.929c-.153.019-.2.069-.205.216a2.719 2.719 0 0 1-1.086 2.022c-.162.127-.343.229-.53.351a3.184 3.184 0 0 1 1.638 2.751c.065 0 .109.007.152.007zm-2.535-7.838h-.19c-.658 0-1.316-.008-1.974 0a2.48 2.48 0 0 1-1.958-.835.245.245 0 0 0-.2-.052.906.906 0 0 0-.652.879c0 .858-.009 1.717 0 2.576a2.189 2.189 0 0 0 1.4 1.981 3.852 3.852 0 0 0 1.519.141 2.1 2.1 0 0 0 2.037-1.8c.08-.952.018-1.906.018-2.89zm1.053.063c.018-.032.032-.053.042-.076a2.417 2.417 0 0 0-1.756-3.345 15.329 15.329 0 0 0-2.819-.04 1.318 1.318 0 0 0-1.069.758 1.669 1.669 0 0 1 .808 1.22.371.371 0 0 0 .1.175 1.8 1.8 0 0 0 1.409.624H841.49v.607zm-2.045 5.752l-.371 1.824-1.109-1.472-1.11 1.474-.37-1.827a2.526 2.526 0 0 0-1.03 2.014h5.019a2.525 2.525 0 0 0-1.029-2.013zm-3.41-7.342a1.044 1.044 0 0 0-.433-.552.355.355 0 0 0-.353-.043 1.563 1.563 0 0 0-.973 1.944c.08.251.08.25.33.205l.212-.038a1.607 1.607 0 0 1 1.217-1.516zm5.08 3.395a.605.605 0 0 0 .613-.631.6.6 0 0 0-.613-.585zm-6.306.006V138.2a.616.616 0 0 0 0 1.232zm3.367 3.455l-.023.041.584.776.128-.664zm-1.114.155l.134.662.58-.778-.029-.039z" class="cls-2"/>
        <path id="Path_494" d="M832.719 146.658h4.367v3.736h-4.367zm2.5 3.109h1.237v-1.241c-.383 0-.749 0-1.115.006a.169.169 0 0 0-.117.116c-.013.366-.009.731-.009 1.119zm-1.869-1.252h1.23v-1.231h-1.23zm3.114-.619v-.621h-1.161a.116.116 0 0 0-.079.079c-.007.179 0 .359 0 .539zm-1.879 1.883v-.611h-1.234v.6c.045 0 .081.011.118.011z" class="cls-2"/>
        <path id="Path_495" d="M837.736 147.914h6.257v.6h-6.257z" class="cls-2"/>
        <path id="Path_496" d="M840.245 147.259v-.6h3.747v.6z" class="cls-2"/>
        <path id="Path_497" d="M841.505 149.165h2.487v.6h-2.487z" class="cls-2"/>
        <path id="Path_498" d="M837.738 147.259v-.594h1.862v.594z" class="cls-2"/>
        <path id="Path_499" d="M837.734 149.764v-.6h1.866v.6z" class="cls-2"/>
        <path id="Path_500" d="M840.848 149.773h-.594v-.606h.594z" class="cls-2"/>
        <path id="Path_501" d="M836.812 139.765h3.079a1.568 1.568 0 1 1-3.079 0zm.684.627a.887.887 0 0 0 .921.613.844.844 0 0 0 .783-.613z" class="cls-2"/>
        <path id="Path_502" d="M836.172 139.117a.928.928 0 0 1 1.855 0h-.6a.328.328 0 0 0-.331-.295.318.318 0 0 0-.313.3z" class="cls-2"/>
        <path id="Path_503" d="M840.539 139.13h-.52a.128.128 0 0 1-.1-.057.312.312 0 0 0-.334-.25.328.328 0 0 0-.3.3h-.6a.908.908 0 0 1 .892-.922.923.923 0 0 1 .962.929z" class="cls-2"/>
        <path id="Path_504" d="M833.961 148.211a.309.309 0 1 1 0-.617.309.309 0 0 1 .313.308.312.312 0 0 1-.313.309z" class="cls-2"/>
    </g>
</svg>
