<svg xmlns="http://www.w3.org/2000/svg" width="19.243" height="19.206" viewBox="0 0 19.243 19.206">
    <defs>
        <style>
            .cls-1{fill:#1582c8}
        </style>
    </defs>
    <g id="Group_315" transform="translate(-165.771 -201.86)">
        <path id="Path_485" d="M173.436 217.664a1.288 1.288 0 0 0-.165 0h-5.295a1.078 1.078 0 0 1-1.166-1.155v-12.455a1.069 1.069 0 0 1 1.151-1.152h9.327a1.41 1.41 0 0 1 .37.045 1.041 1.041 0 0 1 .771 1.071v4.646a.633.633 0 0 0 .163.46.5.5 0 0 0 .359.139c.322 0 .521-.232.521-.6v-.963-3.685a2.085 2.085 0 0 0-1.608-2.087 2.35 2.35 0 0 0-.543-.063h-9.4a2.11 2.11 0 0 0-2.048 1.456c-.025.077-.047.155-.069.233l-.03.1-.005 13.252.033.048a2.124 2.124 0 0 0 2.15 1.748h.026c1.236-.013 2.494-.01 3.71-.007H173.316a.835.835 0 0 0 .122 0 .515.515 0 0 0 .489-.53.5.5 0 0 0-.491-.501z" class="cls-1"/>
        <path id="Path_486" d="M185.012 215.368l-.025-.148c-.017-.1-.033-.191-.048-.287a5.282 5.282 0 0 0-6.279-4.27 5.253 5.253 0 0 0-.435 10.174c.245.07.5.117.743.163.111.021.221.041.331.064h.905c.12-.027.241-.049.362-.071a5.055 5.055 0 0 0 .8-.193 5.182 5.182 0 0 0 3.61-4.421.551.551 0 0 1 .017-.067l.017-.055zm-1.037.44a4.231 4.231 0 0 1-4.228 4.221 4.232 4.232 0 0 1-4.227-4.222 4.23 4.23 0 0 1 4.233-4.218h.013a4.228 4.228 0 0 1 4.209 4.219z" class="cls-1"/>
        <path id="Path_487" d="M174.865 210.247V211.022a.53.53 0 0 0 .521.565.528.528 0 0 0 .522-.563c.005-.231.009-.5 0-.766a2.091 2.091 0 0 0-2.142-2.074h-2.432a2.023 2.023 0 0 0-1.918 1.544 4.963 4.963 0 0 0-.079.979c0 .1 0 .207-.006.31a.561.561 0 0 0 .152.416.5.5 0 0 0 .364.149h.01a.521.521 0 0 0 .509-.552v-.341-.4a1.062 1.062 0 0 1 1.1-1.076c.784 0 1.568-.005 2.352 0a1.042 1.042 0 0 1 1.047 1.034z" class="cls-1"/>
        <path id="Path_488" d="M172.615 207.635h.007a1.7 1.7 0 0 0 .019-3.4h-.016a1.7 1.7 0 0 0-.01 3.4zm-.458-2.173a.658.658 0 0 1 .464-.194.661.661 0 0 1 .469.2.654.654 0 0 1 .2.469.676.676 0 0 1-.669.662.663.663 0 0 1-.463-1.138z" class="cls-1"/>
        <path id="Path_489" d="M173.826 213.754a.519.519 0 0 0-.464-.832H168.653a.508.508 0 0 0-.507.517.527.527 0 0 0 .487.514H173.409a.544.544 0 0 0 .417-.199z" class="cls-1"/>
        <path id="Path_490" d="M172.621 215.293h-3.575c-.139 0-.28 0-.42.007a.512.512 0 0 0-.385.213.5.5 0 0 0-.078.429.531.531 0 0 0 .557.388h3.89a.517.517 0 1 0 .011-1.033z" class="cls-1"/>
        <path id="Path_491" d="M181.3 213.928c-.167.186-.331.374-.5.563l-1.872 2.137-.226-.226-.9-.9a.8.8 0 0 0-.311-.194.492.492 0 0 0-.57.243.519.519 0 0 0 .1.639q.764.77 1.534 1.531a.561.561 0 0 0 .4.186h.015a.6.6 0 0 0 .425-.234q1.344-1.53 2.685-3.061a.606.606 0 0 0 .161-.437.5.5 0 0 0-.183-.347.519.519 0 0 0-.758.1z" class="cls-1"/>
    </g>
</svg>
