<svg xmlns="http://www.w3.org/2000/svg" width="34.64" height="45.888">
    <defs>
        <style>
            .cls-1{fill:#3a4354}
        </style>
    </defs>
    <g id="Group_11" data-name="Group 11" transform="translate(-3072.166 -147.758)">
        <path id="Path_19" data-name="Path 19" class="cls-1" d="M3097.794 193.646a8.984 8.984 0 1 1 9.012-8.958 8.969 8.969 0 0 1-9.012 8.958zm0-16.2a7.215 7.215 0 1 0 7.241 7.241 7.223 7.223 0 0 0-7.241-7.24z"/>
        <path id="Path_20" data-name="Path 20" class="cls-1" d="M3086.178 189.688h-13.127a.884.884 0 0 1-.885-.885V153.07a.884.884 0 0 1 .885-.885h3.021a.884.884 0 1 1 0 1.769h-2.135v33.964h12.241a.885.885 0 1 1 0 1.77zm15.679-15.783a.884.884 0 0 1-.885-.885v-19.066h-2.136a.884.884 0 1 1 0-1.769h3.021a.885.885 0 0 1 .886.885v19.95a.885.885 0 0 1-.886.88z"/>
        <path id="Path_21" data-name="Path 21" class="cls-1" d="M3095.606 156.142h-16.3a.884.884 0 0 1-.886-.885v-4.375a.884.884 0 0 1 .886-.885h4.823a3.675 3.675 0 0 1 3.354-2.239 3.731 3.731 0 0 1 3.351 2.239h4.775a.885.885 0 0 1 .886.885v4.375a.885.885 0 0 1-.889.885zm-15.418-1.769h14.532v-2.606h-4.531a.885.885 0 0 1-.867-.7 1.958 1.958 0 0 0-1.842-1.536 1.91 1.91 0 0 0-1.842 1.536.884.884 0 0 1-.867.7h-4.583z"/>
        <path id="Path_22" data-name="Path 22" class="cls-1" d="M3095.606 163.069h-8.126a.884.884 0 1 1 0-1.769h8.126a.884.884 0 1 1 0 1.769z"/>
        <path id="Path_23" data-name="Path 23" class="cls-1" d="M3095.606 167.914h-16.3a.884.884 0 1 1 0-1.769h16.3a.884.884 0 1 1 0 1.769z"/>
        <path id="Path_24" data-name="Path 24" class="cls-1" d="M3095.606 172.76h-16.3a.885.885 0 1 1 0-1.77h16.3a.885.885 0 1 1 0 1.77z"/>
        <path id="Path_25" data-name="Path 25" class="cls-1" d="M3088.366 177.6h-9.066a.884.884 0 1 1 0-1.769h9.063a.884.884 0 1 1 0 1.769z"/>
        <path id="Path_26" data-name="Path 26" class="cls-1" d="M3085.865 182.447h-6.565a.885.885 0 1 1 0-1.77h6.562a.885.885 0 1 1 0 1.77z"/>
        <g id="Group_10" data-name="Group 10">
            <path id="Path_27" data-name="Path 27" class="cls-1" d="M3096.879 188.026a.97.97 0 0 1 .078-.39 1 1 0 0 1 .216-.315 1.036 1.036 0 0 1 .731-.291 1.011 1.011 0 0 1 .4.079 1.061 1.061 0 0 1 .326.212.969.969 0 0 1 .3.705.976.976 0 0 1-.079.393.95.95 0 0 1-.218.317 1 1 0 0 1-.326.21 1.046 1.046 0 0 1-.4.076 1.063 1.063 0 0 1-.408-.076.968.968 0 0 1-.323-.21.982.982 0 0 1-.294-.71zm1.887-7.572v3.332a8.711 8.711 0 0 1-.064 1.063q-.064.526-.169 1.074h-1.223q-.105-.548-.169-1.074a8.711 8.711 0 0 1-.064-1.063v-3.332z"/>
        </g>
    </g>
</svg>
