<svg id="Group_29882" data-name="Group 29882" xmlns="http://www.w3.org/2000/svg" xmlns:xlink="http://www.w3.org/1999/xlink" width="81.715" height="82.789" viewBox="0 0 81.715 82.789">
  <defs>
    <clipPath id="clip-path">
      <rect id="Rectangle_77999" data-name="Rectangle 77999" width="81.715" height="82.789" fill="#fff"/>
    </clipPath>
  </defs>
  <g id="Group_29881" data-name="Group 29881" clip-path="url(#clip-path)">
    <path id="Path_21658" data-name="Path 21658" d="M12.055,13.018c0-1.184.008-2.317,0-3.449a2.634,2.634,0,0,1,2.952-2.953c3.412.01,6.823,0,10.235,0,.1,0,.2-.01.329-.016-.4-2.565.349-4.635,2.67-5.9a4.938,4.938,0,0,1,5.594.385,5.22,5.22,0,0,1,2.032,5.537h.506q5.117,0,10.234,0A2.592,2.592,0,0,1,49.4,9.419c0,1.171,0,2.342,0,3.6h.564c2.067,0,4.135,0,6.2,0a5.129,5.129,0,0,1,5.272,5.243c.015,1.549-.024,3.1-.022,4.648.005,4.754.024,9.508.028,14.262q.008,10.441,0,20.883,0,9.612,0,19.223a5.2,5.2,0,0,1-5.5,5.5H36.557q-13.72,0-27.441,0c-1.514,0-3.034.04-4.542-.07A4.983,4.983,0,0,1,.073,78.2c-.1-1.389-.067-2.788-.067-4.183q0-18.3.008-36.6c0-4.738-.012-9.476-.007-14.215,0-1.875-.042-3.754.071-5.624a5.024,5.024,0,0,1,4.86-4.55c2.167-.032,4.335-.012,6.5-.016h.615m0,2.3c-2.409,0-4.751-.061-7.088.022A2.762,2.762,0,0,0,2.336,18.2c-.017.929,0,1.858,0,2.786q0,15.687,0,31.374c0,8.323.022,16.647-.02,24.97a3.009,3.009,0,0,0,2.951,3.143c9.167-.016,18.334.012,27.5.018,2.406,0,4.813-.028,7.219-.03q8.091-.008,16.182,0A2.84,2.84,0,0,0,59.122,77.5q.013-3.05.009-6.1,0-16.051-.008-32.1,0-10.469,0-20.937a2.882,2.882,0,0,0-3.035-3.052q-3.1-.008-6.2,0c-.149,0-.3.021-.43.032a.6.6,0,0,0-.046.134q-.006,1.6-.008,3.2a2.612,2.612,0,0,1-2.8,2.816q-15.9.007-31.8,0a2.606,2.606,0,0,1-2.754-2.755c0-1.118,0-2.235,0-3.416M30.783,8.91v0q-7.856,0-15.711,0c-.7,0-.727.026-.727.729,0,2.963.009,5.926-.008,8.889,0,.5.168.652.661.648,2.36-.02,4.719-.013,7.079-.005,3.617.012,7.234.042,10.851.045,2.3,0,4.605-.036,6.908-.045,2.153-.008,4.307,0,6.46,0,.813,0,.817,0,.817-.79q0-4.368,0-8.735c0-.7-.03-.735-.721-.735H30.783m-.085-2.3c.775,0,1.551-.016,2.325.008a.46.46,0,0,0,.519-.372,2.965,2.965,0,0,0-4.619-3.282A2.928,2.928,0,0,0,27.946,6.3a.585.585,0,0,0,.427.3c.774.03,1.55.014,2.325.015" transform="translate(0 0)" fill="#fff"/>
    <path id="Path_21659" data-name="Path 21659" d="M318.084,130.055c-.233,1.064-.422,1.955-.624,2.842q-1.628,7.163-3.26,14.325-1.553,6.835-3.111,13.669a1.7,1.7,0,0,1-.385.657q-3.138,3.739-6.289,7.467a1.276,1.276,0,0,1-1.282.589,1.257,1.257,0,0,1-.967-1.078q-1.209-4.584-2.448-9.159a1.264,1.264,0,0,0-.171-.425,1.492,1.492,0,0,1-.185-1.328c.568-2.408,1.137-4.815,1.684-7.227q1.829-8.066,3.637-16.137.675-2.992,1.357-5.983a3.37,3.37,0,0,1,3.826-2.568c1.929.31,3.831.8,5.727,1.287a2.816,2.816,0,0,1,1.731,1.321,14.772,14.772,0,0,1,.761,1.748m-8.936,28.912c.235-1.021.461-1.988.681-2.956q2.869-12.617,5.737-25.235a1.248,1.248,0,0,0-1.006-1.706q-2.325-.584-4.674-1.069a1.248,1.248,0,0,0-1.65,1.032q-1.85,8.063-3.7,16.127c-.519,2.276-1.011,4.557-1.522,6.835-.4,1.759-.8,3.514-1.211,5.3l7.343,1.67M303.9,166.03l3.984-4.727-5.6-1.311,1.616,6.038" transform="translate(-236.369 -99.238)" fill="#fff"/>
    <path id="Path_21660" data-name="Path 21660" d="M33.2,136.816c0-1.153-.022-2.307.005-3.46a2.9,2.9,0,0,1,2.656-2.81c2.355-.074,4.716-.1,7.071-.03a2.991,2.991,0,0,1,2.958,3.192c0,2.083,0,4.166,0,6.249a3.039,3.039,0,0,1-3.175,3.24q-3.15.031-6.3.008a3.038,3.038,0,0,1-3.228-3.239c-.008-1.05,0-2.1,0-3.15H33.2m10.354.049h0c0-1.067.005-2.134,0-3.2,0-.583-.265-.848-.854-.85q-3.149-.009-6.3,0c-.662,0-.922.281-.924.958q-.007,3.124,0,6.247a.791.791,0,0,0,.851.876q3.175.006,6.349,0c.617,0,.874-.269.877-.88,0-1.05,0-2.1,0-3.149" transform="translate(-26.201 -103.045)" fill="#fff"/>
    <path id="Path_21661" data-name="Path 21661" d="M33.171,225.788c0-1.085-.011-2.17,0-3.255a3.025,3.025,0,0,1,3.038-3.069c2.188-.03,4.377-.026,6.565,0a3.033,3.033,0,0,1,3.083,3.086c.032,2.205.029,4.411,0,6.617a3.012,3.012,0,0,1-3,2.995q-3.308.037-6.617,0a3,3,0,0,1-3.079-3.067c-.022-1.1,0-2.206,0-3.308h.01m6.329-4v0c-1.034,0-2.068,0-3.1,0-.675,0-.94.263-.941.93q-.007,3.1,0,6.2c0,.646.3.936.957.938q3.076.005,6.151,0c.72,0,.963-.238.965-.953q.007-3.128,0-6.255c0-.617-.254-.864-.877-.866-1.051,0-2.1,0-3.154,0" transform="translate(-26.184 -173.31)" fill="#fff"/>
    <path id="Path_21662" data-name="Path 21662" d="M33.142,310.007c0-1.017-.005-2.033,0-3.05a3.056,3.056,0,0,1,3.312-3.261c2.033,0,4.066,0,6.1,0a3.083,3.083,0,0,1,3.295,3.34c-.006,2.033,0,4.066,0,6.1a3.054,3.054,0,0,1-3.213,3.264c-2.1.019-4.2-.024-6.306.017a3.187,3.187,0,0,1-3.194-3.208c.052-1.066.01-2.136.008-3.2m10.372.078h0c0-1.05,0-2.1,0-3.149,0-.671-.232-.914-.882-.914q-3.123,0-6.247,0c-.678,0-.946.261-.948.926q-.007,3.1,0,6.2a.853.853,0,0,0,.984.98q3.123,0,6.246-.027a.75.75,0,0,0,.844-.861c.005-1.05,0-2.1,0-3.149" transform="translate(-26.165 -239.85)" fill="#fff"/>
    <path id="Path_21663" data-name="Path 21663" d="M127.92,151.94h13.645c.807,0,1.286.425,1.29,1.145a1.141,1.141,0,0,1-1.3,1.144q-13.645,0-27.29,0a1.154,1.154,0,1,1,.008-2.289q6.822,0,13.645,0" transform="translate(-89.219 -119.996)" fill="#fff"/>
    <path id="Path_21664" data-name="Path 21664" d="M127.793,322.492q-6.822,0-13.644,0a1.143,1.143,0,0,1-1.141-.639.967.967,0,0,1,.144-1.2,1.739,1.739,0,0,1,1.033-.445c4.737-.028,9.475-.018,14.212-.018q6.538,0,13.075,0a1.16,1.16,0,0,1,1.306,1.1,1.107,1.107,0,0,1-1.187,1.2c-2.257.007-4.514,0-6.77,0h-7.028Z" transform="translate(-89.141 -252.88)" fill="#fff"/>
    <path id="Path_21665" data-name="Path 21665" d="M127.88,238.388q-6.742,0-13.484,0a1.329,1.329,0,0,1-1.244-.467,1.093,1.093,0,0,1-.112-1.173,1.132,1.132,0,0,1,1.077-.665q4.523.005,9.046,0h9.1q4.652,0,9.3,0a1.16,1.16,0,0,1,1.242.937,1.126,1.126,0,0,1-.725,1.279,2.752,2.752,0,0,1-.815.081q-6.694.007-13.387,0" transform="translate(-89.179 -186.453)" fill="#fff"/>
    <path id="Path_21666" data-name="Path 21666" d="M50.059,152.371c.6-.983,1.223-2.011,1.852-3.035.355-.578.824-.746,1.277-.469s.519.767.165,1.351c-.791,1.309-1.582,2.619-2.383,3.922-.45.732-1,.789-1.589.177q-1.059-1.092-2.108-2.195a.9.9,0,0,1-.112-1.323c.378-.373.88-.3,1.353.155.492.476,1.008.928,1.544,1.417" transform="translate(-37.054 -117.467)" fill="#fff"/>
  </g>
</svg>
