<svg xmlns="http://www.w3.org/2000/svg" width="25.139" height="25.628">
    <path data-name="Path 24" d="M1649.507 370.535c-.743-1.215-2.688-2.118-6.122-2.84a3.219 3.219 0 0 0-3.3 1.149 7.013 7.013 0 0 1-.652.592 2.956 2.956 0 0 1-.478.31c-4.886-3.1-6.262-5.675-6.718-6.531a3.183 3.183 0 0 0-.156-.274.855.855 0 0 1 .02-.313l2.692-2.5-2.11-6.142a2.866 2.866 0 0 0-2.069-1.967c-1.352-.279-2.833.5-4.526 2.372-3.941 4.357 1.536 12.651 4.075 16.014 3.259 4.321 9.779 7.187 12.661 7.187 2.957 0 6.288-2.924 6.941-5.318a2.17 2.17 0 0 0-.258-1.739zm-6.683 4.93c-2.122 0-8.043-2.469-10.964-6.341-3.406-4.513-6.548-10.707-4.2-13.309 1.4-1.55 2.166-1.722 2.434-1.722a.521.521 0 0 1 .09.008c.227.047.4.339.485.576l1.661 4.833-2.072 1.924-.089.227a2.837 2.837 0 0 0 .089 2.375c.026.041.057.1.1.18.528.989 2.132 3.995 7.641 7.443.39.3 1.25.6 2.727-.538a8.935 8.935 0 0 0 .851-.766c.584-.579.725-.715 1.368-.58 4.421.93 4.768 1.912 4.766 1.939-.381 1.411-2.893 3.751-4.887 3.751z" transform="translate(-1624.705 -351.963)" style="fill:#3a4354"/>
</svg>
