<svg xmlns="http://www.w3.org/2000/svg" width="30.885" height="30.884">
    <defs>
        <style>
            .cls-1{fill:#3a4354}
        </style>
    </defs>
    <g id="Group_11" data-name="Group 11" transform="translate(-1621.832 -302.584)">
        <g id="Group_10" data-name="Group 10">
            <path id="Path_25" data-name="Path 25" class="cls-1" d="M1647.617 327.154a11.008 11.008 0 0 0-.385-1.6 9.769 9.769 0 0 0-3.124-4.646 7.121 7.121 0 0 0-.5-.365 18.266 18.266 0 0 0-2.7-1.525l-.035-.015a5.337 5.337 0 0 0-6.833-8.186 5.134 5.134 0 0 0-2.062 3.973 5.3 5.3 0 0 0 1.685 4.194 10.782 10.782 0 0 0-1.219.573c-.359.188-.722.385-1.065.605a10.206 10.206 0 0 0-3.925 4.922 11.32 11.32 0 0 0-.693 3.8h2.016a8.566 8.566 0 0 1 7.894-8.507 8.072 8.072 0 0 1 5.9 1.88 8.422 8.422 0 0 1 3.185 6.583h2.015c.039-.008-.131-1.54-.154-1.686zm-10.29-8.687a3.3 3.3 0 1 1 3.3-3.3 3.266 3.266 0 0 1-3.3 3.3z"/>
            <g id="Group_9" data-name="Group 9">
                <path id="Path_26" data-name="Path 26" class="cls-1" d="M1637.275 333.468a15.442 15.442 0 1 1 15.442-15.442 15.459 15.459 0 0 1-15.442 15.442zm0-28.946a13.5 13.5 0 1 0 13.5 13.5 13.519 13.519 0 0 0-13.5-13.5z"/>
            </g>
        </g>
    </g>
</svg>
