<svg xmlns="http://www.w3.org/2000/svg" width="19.396" height="19.396" viewBox="0 0 19.396 19.396">
    <defs>
        <style>
            .cls-1{fill:#ffffff}
        </style>
    </defs>
    <g id="Group_141" data-name="Group 141" transform="translate(-196.559 -681.298)">
        <path id="Path_319" data-name="Path 319" class="cls-1" d="M206.256 681.3a9.7 9.7 0 1 0 9.7 9.7 9.708 9.708 0 0 0-9.7-9.7zm7.761 9.7a7.76 7.76 0 1 1-7.761-7.761 7.769 7.769 0 0 1 7.761 7.761z"/>
        <path id="Path_320" data-name="Path 320" class="cls-1" d="M210.263 693.431h-4.09a.874.874 0 0 1-.874-.874v-5.932a.874.874 0 1 1 1.748 0v5.058h3.216a.874.874 0 0 1 0 1.748z"/>
    </g>
</svg>
