<svg xmlns="http://www.w3.org/2000/svg" width="21.067" height="25.726" viewBox="0 0 21.067 25.726">
    <path data-name="Path 328" d="m626.3 640.653-.738-6.888c-.15-1.21-1.4-2.784-4.458-3.552-.12-.03-.24-.059-.361-.087l1.093 2.776-2.326-.225-2.527 3.088h-.172v4.85h-.7v-4.85h-.172l-2.527-3.088-2.326.225 1.093-2.775c-.121.027-.242.056-.361.086-3.058.769-4.309 2.342-4.46 3.557l-.736 6.883-.7-.075.737-6.888c.274-2.21 2.754-3.6 4.984-4.155a17.462 17.462 0 0 1 2.1-.39l.242-.029 2.471 4.815 2.471-4.815.242.029a17.6 17.6 0 0 1 2.1.39c2.229.56 4.709 1.945 4.983 4.149l.738 6.894zm-12.583-8.708 2.522 3.082-2.646-5.156c-.2.027-.4.058-.6.093l-.839 2.132zm5.614-2.074-2.645 5.154 2.519-3.08 1.562.151-.839-2.133q-.292-.051-.592-.092zm-9.728 10.753-.7-.017.128-5.347.7.017zm13.717 0-.128-5.347.7-.017.128 5.347zm-3.028-3.146c-1.144 0-2.04-.612-2.04-1.393s.9-1.392 2.04-1.392 2.04.611 2.04 1.392-.891 1.393-2.032 1.393zm0-2.086c-.633 0-1.341.3-1.341.693s.708.694 1.341.694 1.341-.3 1.341-.694-.703-.693-1.333-.693zm-3.831-6.744a4.666 4.666 0 0 1-4.173-2.4 7.139 7.139 0 0 1-.6-2.048 1.7 1.7 0 0 1-1.011-1.573 1.326 1.326 0 0 1 .637-1.194v-.023c.042-.946.092-2.047.151-3.144v-.026a3.393 3.393 0 0 1 1.766-2.51 6.874 6.874 0 0 1 6.433 0 3.392 3.392 0 0 1 1.766 2.51v.026c.06 1.118.11 2.217.151 3.144v.017a1.323 1.323 0 0 1 .648 1.2 1.7 1.7 0 0 1-1.011 1.573 7.2 7.2 0 0 1-.6 2.048 4.663 4.663 0 0 1-4.152 2.4zm-4.829-6.589a.663.663 0 0 0-.251.564.961.961 0 0 0 .679.953l.25.042.038.25a6.892 6.892 0 0 0 .553 2.04 4.125 4.125 0 0 0 7.12 0 6.883 6.883 0 0 0 .553-2.04l.039-.25.249-.042a.961.961 0 0 0 .68-.953.661.661 0 0 0-.26-.57c-.686 1.013-1.477.879-2.376.726-.16-.027-.326-.055-.5-.079a16.536 16.536 0 0 0-3.9 0 14.15 14.15 0 0 0-.51.08c-.89.149-1.677.281-2.359-.721zm4.835-.172a15.626 15.626 0 0 1 2.033.121c.186.025.357.054.523.082.81.138 1.228.208 1.64-.366a17.486 17.486 0 0 0-8.415 0c.409.571.825.5 1.63.366.169-.028.344-.057.534-.082a16.147 16.147 0 0 1 2.06-.121zm-.012-1.375a18.215 18.215 0 0 1 4.421.545c-.037-.835-.081-1.782-.133-2.743a2.749 2.749 0 0 0-1.425-1.985 6.179 6.179 0 0 0-5.725 0 2.752 2.752 0 0 0-1.425 1.985c-.051.945-.095 1.894-.133 2.743a18.214 18.214 0 0 1 4.425-.545zm0-.65c-1.144 0-2.04-.612-2.04-1.393s.9-1.392 2.04-1.392 2.039.611 2.039 1.392-.894 1.393-2.033 1.393zm0-2.086c-.633 0-1.342.3-1.342.693s.709.694 1.342.694 1.341-.3 1.341-.694-.702-.693-1.335-.693z" transform="translate(-605.933 -614.927)" style="fill:#ffffff"/>
</svg>
