<svg id="home_black_24dp" xmlns="http://www.w3.org/2000/svg" xmlns:xlink="http://www.w3.org/1999/xlink" width="26.918" height="26.918" viewBox="0 0 26.918 26.918">
  <defs>
    <clipPath id="clip-path">
      <rect id="Rectangle_78703" data-name="Rectangle 78703" width="22.117" height="24.897" fill="none"/>
    </clipPath>
  </defs>
  <path id="Path_1" data-name="Path 1" d="M0,0H26.918V26.918H0Z" fill="none"/>
  <g id="Group_60160" data-name="Group 60160" transform="translate(2.64 0.741)">
    <g id="Group_60160-2" data-name="Group 60160" transform="translate(0 0)" clip-path="url(#clip-path)">
      <path id="Path_23897" data-name="Path 23897" d="M13.281,0c.2.8.4,1.59.584,2.388.043.183.1.317.3.353a.172.172,0,0,1,.067.026,1.1,1.1,0,0,0,1.43-.123c.443-.331.944-.582,1.408-.887a.272.272,0,0,1,.41.05c.671.684,1.361,1.349,2.025,2.039.261.272.509.559.784.817a.252.252,0,0,1,.038.375c-.4.641-.79,1.291-1.2,1.928a.383.383,0,0,0-.026.442,1.817,1.817,0,0,1,.185.445.554.554,0,0,0,.5.435c.692.148,1.377.327,2.067.481a.277.277,0,0,1,.257.311q-.006,2.016,0,4.032c0,.178-.076.251-.246.29-.737.167-1.47.351-2.207.521a.378.378,0,0,0-.324.276,2.066,2.066,0,0,1-.2.491.511.511,0,0,0,.047.614c.388.6.75,1.22,1.133,1.825a.246.246,0,0,1-.031.356c-.575.608-1.139,1.227-1.716,1.833a.382.382,0,0,0-.105.426,7.571,7.571,0,0,1,.266,2.027c.011.933,0,1.867.006,2.8,0,.229-.055.324-.31.323q-7.328-.01-14.656,0c-.242,0-.3-.087-.3-.308.017-1.158-.028-2.318.037-3.475a6.021,6.021,0,0,1,.258-1.445.351.351,0,0,0-.12-.418c-.605-.566-1.2-1.146-1.8-1.711a.268.268,0,0,1-.05-.409c.407-.638.792-1.289,1.2-1.927a.354.354,0,0,0,.021-.42.891.891,0,0,1-.123-.287c-.079-.43-.36-.58-.764-.655-.632-.116-1.251-.3-1.88-.435A.27.27,0,0,1,0,13.092Q.006,11.1,0,9.108a.3.3,0,0,1,.281-.341c.729-.164,1.454-.349,2.183-.515a.374.374,0,0,0,.317-.284.752.752,0,0,1,.086-.224A.867.867,0,0,0,2.79,6.635c-.366-.508-.664-1.064-1-1.595a.258.258,0,0,1,.037-.375C2.74,3.7,3.687,2.771,4.618,1.826a.3.3,0,0,1,.449-.057c.636.409,1.286.8,1.927,1.2a.313.313,0,0,0,.357.028.932.932,0,0,1,.287-.124c.472-.083.622-.4.706-.832C8.477,1.352,8.67.679,8.837,0ZM8.024,15.149a4.977,4.977,0,0,1-.387-7.317,4.91,4.91,0,0,1,6.826-.116,4.98,4.98,0,0,1-.246,7.417c.048.077.137.078.208.107a6.99,6.99,0,0,1,1.055.53,6.557,6.557,0,0,1,2.1,2.034c.113.176.186.174.313.023.16-.191.331-.373.509-.548.116-.114.1-.205.022-.335-.356-.565-.7-1.138-1.055-1.7a.39.39,0,0,1-.034-.4c.266-.621.528-1.245.776-1.873a.469.469,0,0,1,.372-.323c.62-.137,1.236-.3,1.855-.435a.254.254,0,0,0,.239-.294c-.009-.54-.013-1.079,0-1.617.006-.218-.083-.292-.278-.335-.62-.137-1.236-.293-1.855-.435a.393.393,0,0,1-.31-.262q-.386-.963-.8-1.917a.412.412,0,0,1,.037-.426c.348-.551.684-1.11,1.03-1.662a.23.23,0,0,0-.022-.337A15.785,15.785,0,0,1,17.245,3.74a.261.261,0,0,0-.411-.045c-.532.375-1.08.726-1.638,1.061a.354.354,0,0,1-.358.058c-.57-.243-1.145-.473-1.714-.716a.859.859,0,0,1-.593-.7c-.085-.555-.253-1.1-.375-1.646a.265.265,0,0,0-.309-.249q-.785.017-1.569,0a.266.266,0,0,0-.313.244c-.121.55-.289,1.091-.375,1.646a.877.877,0,0,1-.61.717c-.548.232-1.1.454-1.648.689a.4.4,0,0,1-.4-.036c-.546-.34-1.1-.671-1.616-1.051a.293.293,0,0,0-.468.062,14.2,14.2,0,0,1-1.1,1.149.229.229,0,0,0-.029.337c.351.559.692,1.124,1.041,1.683a.373.373,0,0,1,.041.382q-.418.976-.817,1.96a.375.375,0,0,1-.294.247c-.635.144-1.267.3-1.9.443a.254.254,0,0,0-.237.294q.016.82,0,1.642c0,.192.074.265.254.3.628.138,1.253.295,1.879.438a.4.4,0,0,1,.309.264q.386.963.8,1.917a.411.411,0,0,1-.037.426c-.34.538-.663,1.085-1,1.621-.1.164-.112.279.047.411.179.149.337.323.506.484.218.21.219.21.386-.036a6.738,6.738,0,0,1,1.389-1.5,7.155,7.155,0,0,1,1.955-1.088m3.083,8.22H16.78c.072,0,.145,0,.217,0,.13,0,.195-.055.192-.187a21.254,21.254,0,0,0-.053-2.339,5.217,5.217,0,0,0-3.825-4.366,10.468,10.468,0,0,0-3.671-.134,5.21,5.21,0,0,0-4.559,4.449,19.834,19.834,0,0,0-.056,2.242c-.007.334,0,.335.334.335h5.746m.012-8.685A3.382,3.382,0,1,0,7.739,11.3a3.344,3.344,0,0,0,3.379,3.389" transform="translate(0 0)"/>
    </g>
  </g>
</svg>
