<svg id="home_black_24dp" xmlns="http://www.w3.org/2000/svg" xmlns:xlink="http://www.w3.org/1999/xlink" width="26.918" height="26.918" viewBox="0 0 26.918 26.918">
  <defs>
    <clipPath id="clip-path">
      <rect id="Rectangle_78706" data-name="Rectangle 78706" width="23.338" height="23.33" fill="#00A4DC"/>
    </clipPath>
  </defs>
  <path id="Path_1" data-name="Path 1" d="M0,0H26.918V26.918H0Z" fill="none"/>
  <g id="Group_60163" data-name="Group 60163" transform="translate(1.79 1.795)">
    <g id="Group_60163-2" data-name="Group 60163" transform="translate(0 0)" clip-path="url(#clip-path)">
      <path id="Path_23911" data-name="Path 23911" d="M17.309,0a3.047,3.047,0,0,1,.648.141,2.6,2.6,0,0,1,1.755,2.1,3.125,3.125,0,0,1,.04.552q0,2.206,0,4.41c0,.083.021.12.1.143.627.172,1.247.37,1.881.517a7.267,7.267,0,0,0,1.232.192c.094.005.187.013.28.01.067,0,.091.021.09.09,0,.353,0,.705,0,1.058v.562c0,.1,0,.106-.1.1a7.874,7.874,0,0,1-1.226-.123,20.89,20.89,0,0,1-2.9-.826c-.3-.1-.615-.178-.922-.267-.45-.131-.9-.265-1.354-.373a6.556,6.556,0,0,0-1.742-.2,5.954,5.954,0,0,0-1.345.22c-.6.162-1.184.375-1.768.584-.3.109-.59.26-.891.379A8.543,8.543,0,0,1,9.156,9.8a7.1,7.1,0,0,1-1.26.075,6.555,6.555,0,0,1-1.562-.265c-.055-.016-.057-.052-.057-.1V8.336c0-.158,0-.316,0-.474,0-.064.021-.075.079-.058A7.284,7.284,0,0,0,7.206,8a5.719,5.719,0,0,0,1.222.057,7.511,7.511,0,0,0,2.218-.535c.529-.2,1.035-.449,1.563-.65a9.034,9.034,0,0,1,2.055-.533,7.453,7.453,0,0,1,1.291-.058,9.764,9.764,0,0,1,2.274.384c.021.006.043.011.064.018s.045-.005.046-.036c0-.014,0-.03,0-.044q0-1.95,0-3.9a.911.911,0,0,0-.188-.587.813.813,0,0,0-.574-.3,1.913,1.913,0,0,0-.2-.005H6.359a1.09,1.09,0,0,0-.524.1.791.791,0,0,0-.422.6,1.208,1.208,0,0,0-.016.213q0,8.943,0,17.886a.939.939,0,0,0,.186.61.823.823,0,0,0,.61.3c.047,0,.094,0,.14,0H17a.992.992,0,0,0,.565-.141.81.81,0,0,0,.356-.573,1.511,1.511,0,0,0,.015-.25q0-1.695,0-3.389c0-.022,0-.044,0-.066,0-.05.016-.06.062-.041.168.07.338.137.507.206.385.156.771.314,1.158.468a.118.118,0,0,1,.086.126c0,.917,0,1.835,0,2.753a2.711,2.711,0,0,1-.5,1.611,2.6,2.6,0,0,1-1.706,1.064,3.291,3.291,0,0,1-.588.044H6.308a2.672,2.672,0,0,1-1.759-.61,2.6,2.6,0,0,1-.921-1.606,3.54,3.54,0,0,1-.044-.61q0-2.168,0-4.336a.114.114,0,0,0-.092-.131c-.646-.213-1.289-.433-1.954-.585a7.487,7.487,0,0,0-1.107-.175c-.121-.009-.241-.011-.362-.014-.049,0-.07-.018-.07-.07q0-.837,0-1.672c0-.057.025-.07.076-.07a7.745,7.745,0,0,1,.973.066,12.036,12.036,0,0,1,1.912.409c.185.054.368.111.551.171.054.018.074.013.074-.051q0-.751,0-1.5a.078.078,0,0,0-.062-.086c-.65-.214-1.3-.436-1.967-.59a6.872,6.872,0,0,0-1.27-.187c-.071,0-.142-.014-.214-.01-.054,0-.074-.019-.073-.074,0-.135,0-.271,0-.407V9.952c0-.092.008-.1.1-.095a9.854,9.854,0,0,1,2.168.306c.414.1.822.226,1.225.364.086.029.088.028.088-.06,0-.5,0-1,0-1.5,0-.047-.008-.077-.059-.094C2.9,8.663,2.283,8.452,1.645,8.3a7.35,7.35,0,0,0-1.26-.2c-.1-.006-.2-.012-.3-.011C.024,8.085,0,8.067,0,8q0-.825,0-1.65c0-.067.023-.084.087-.083A8.906,8.906,0,0,1,1.423,6.4,13.332,13.332,0,0,1,3.5,6.94c.082.028.083.027.083-.063q0-2.082,0-4.166a2.693,2.693,0,0,1,.566-1.7,2.6,2.6,0,0,1,1.61-.97C5.85.023,5.941.013,6.031,0Z" transform="translate(0 0)" fill="#00A4DC"/>
      <path id="Path_23912" data-name="Path 23912" d="M27.043,24.086v.807c0,.1,0,.1-.1.1a8.652,8.652,0,0,1-1.45-.167,23.426,23.426,0,0,1-2.588-.752c-.48-.155-.969-.285-1.454-.426-.433-.126-.868-.243-1.31-.331a6.122,6.122,0,0,0-1.552-.109,7.817,7.817,0,0,0-2.428.6c-.454.179-.894.392-1.347.572a8.662,8.662,0,0,1-1.852.524,8.7,8.7,0,0,1-.867.084,5.619,5.619,0,0,1-.885-.025,6.274,6.274,0,0,1-1.064-.209c-.191-.053-.155-.025-.155-.2,0-.516,0-1.031,0-1.547,0-.1,0-.1.1-.074a6.716,6.716,0,0,0,1.224.236,5.561,5.561,0,0,0,1.231-.033,8.855,8.855,0,0,0,2.109-.613c.451-.18.887-.394,1.344-.562a9.031,9.031,0,0,1,2.03-.509,7.775,7.775,0,0,1,1.291-.052,9.416,9.416,0,0,1,1.809.267,15.549,15.549,0,0,1,2.037.66c.278.109.571.17.857.254.482.143.963.289,1.452.4a7.17,7.17,0,0,0,1.239.194,2.421,2.421,0,0,0,.243.009c.07,0,.095.02.094.092,0,.272,0,.543,0,.814" transform="translate(-3.706 -7.941)" fill="#00A4DC"/>
      <path id="Path_23913" data-name="Path 23913" d="M9.985,18.1v-.821c0-.084.005-.089.083-.067a7.03,7.03,0,0,0,1.011.213c.127.016.255.028.382.036a5.136,5.136,0,0,0,.716,0,6.022,6.022,0,0,0,1.142-.194,11.969,11.969,0,0,0,1.776-.646,11.059,11.059,0,0,1,2.261-.773,8.246,8.246,0,0,1,1.067-.148,7.645,7.645,0,0,1,.99-.008,9.545,9.545,0,0,1,1.555.225,15.934,15.934,0,0,1,2.251.717c.25.1.516.15.773.226.5.148,1,.3,1.51.416a6.646,6.646,0,0,0,1.394.192c.148,0,.148.005.148.153v1.554c0,.1,0,.1-.1.1a7.788,7.788,0,0,1-1.7-.213c-.839-.186-1.647-.477-2.463-.739-.452-.145-.913-.265-1.369-.4-.414-.121-.829-.235-1.253-.316a6.319,6.319,0,0,0-3.614.334c-.573.206-1.123.47-1.687.7a8.632,8.632,0,0,1-2.009.561,7.306,7.306,0,0,1-1.356.068,6.3,6.3,0,0,1-1.451-.258c-.053-.014-.06-.047-.06-.094,0-.273,0-.548,0-.821" transform="translate(-3.707 -5.822)" fill="#00A4DC"/>
    </g>
  </g>
</svg>
