<svg id="home_black_24dp" xmlns="http://www.w3.org/2000/svg" xmlns:xlink="http://www.w3.org/1999/xlink" width="26.918" height="26.918" viewBox="0 0 26.918 26.918">
  <defs>
    <clipPath id="clip-path">
      <rect id="Rectangle_78710" data-name="Rectangle 78710" width="22.637" height="22.664" fill="none"/>
    </clipPath>
  </defs>
  <path id="Path_1" data-name="Path 1" d="M0,0H26.918V26.918H0Z" fill="none"/>
  <g id="Group_60168" data-name="Group 60168" transform="translate(2.139 1.955)">
    <g id="Group_60168-2" data-name="Group 60168" transform="translate(0 0)" clip-path="url(#clip-path)">
      <path id="Path_23923" data-name="Path 23923" d="M20,22.626a10.444,10.444,0,0,0,1.716-.244,11.538,11.538,0,0,0,5.794-3.455,11.218,11.218,0,0,0,1.635-2.359,10.98,10.98,0,0,0,1.259-5.216c0-.274-.01-.549-.021-.823a9.139,9.139,0,0,0-.232-1.7,11.359,11.359,0,0,0-3.376-5.847A11.036,11.036,0,0,0,23.142.714,10.8,10.8,0,0,0,20.37.05L19.956.017l-.007,1.961a5.83,5.83,0,0,1,.595.074A9.49,9.49,0,0,1,23.89,3.263a9.375,9.375,0,0,1,3.3,3.354,9.553,9.553,0,0,1,1.267,4.407,8.529,8.529,0,0,1-.161,2.024,9.076,9.076,0,0,1-2.164,4.443,9.514,9.514,0,0,1-2.675,2.142,9.366,9.366,0,0,1-4.538,1.077H18.9c-.013.313-.042.622-.071.923l-.052.609c-.011.144-.021.287-.036.43l.076,0c.394-.009.788-.019,1.183-.043" transform="translate(-7.77 -0.007)"/>
      <path id="Path_23924" data-name="Path 23924" d="M11.381.094A11.36,11.36,0,0,0,5.422,3,8.985,8.985,0,0,0,4.369,4.124q.8.581,1.608,1.14c.091-.1.184-.209.278-.312A9.318,9.318,0,0,1,9.694,2.593a8.51,8.51,0,0,1,2.566-.615l0-1.978-.082.006c-.289.021-.542.049-.793.088" transform="translate(-1.811 0)"/>
      <path id="Path_23925" data-name="Path 23925" d="M2.646,10.269c-.361-.266-.721-.532-1.09-.786A9.2,9.2,0,0,0,.948,10.69a10.39,10.39,0,0,0-.859,3.244c-.008.1-.005.2,0,.307l0,1.711L0,15.771v.169l.057.205a1.33,1.33,0,0,1,.038.407,3.81,3.81,0,0,0,.113.913c.489-.1.972-.205,1.456-.314l.461-.1A9.476,9.476,0,0,1,2,14.366a9.94,9.94,0,0,1,.607-2.547,12.673,12.673,0,0,1,.549-1.173c-.173-.125-.344-.251-.515-.377" transform="translate(0 -3.931)"/>
      <path id="Path_23926" data-name="Path 23926" d="M3.471,26.062c-.134-.259-.261-.522-.377-.79-.139.036-.276.064-.413.093l-.239.051q-.642.143-1.282.289.111.279.228.554A11.225,11.225,0,0,0,3.875,29.9,11.387,11.387,0,0,0,7.39,32.257a11.17,11.17,0,0,0,2.334.7c.012-.15.025-.3.038-.444l.124-1.532a10.452,10.452,0,0,1-1.945-.641,9.374,9.374,0,0,1-4.469-4.282" transform="translate(-0.481 -10.477)"/>
      <path id="Path_23927" data-name="Path 23927" d="M27.132,12.222c0-.1,0-.191,0-.286-.007-.161-.019-.323-.032-.483l-.145,0-.072,0c-.526-.019-1.042-.034-1.555,0q-.027.724-.048,1.448c-.012.4-.013.8-.015,1.193,0,.282,0,.564-.007.846-.028,1.746-.019,3.541.024,5.335,0,.127,0,.237.014.34h.039c.218,0,.437.005.656.012.386.011.752.02,1.121,0l.016-.421c.016-.393.032-.786.032-1.178,0-.605,0-1.211,0-1.815.006-1.583.011-3.22-.03-4.827Z" transform="translate(-10.463 -4.736)"/>
      <path id="Path_23928" data-name="Path 23928" d="M19.49,15.463a.641.641,0,0,0-.007-.076c-.02,0-.051,0-.083,0-.163,0-.326,0-.49,0-.434,0-.847-.011-1.26.022a5.087,5.087,0,0,0-.051.661l0,5.52a5.011,5.011,0,0,0,.049.663l.189.009c.58.016,1.123.033,1.649-.005.019-.235.03-.436.029-.637v-3c-.009-.365,0-.763,0-1.182.006-.64.012-1.3-.023-1.971" transform="translate(-7.295 -6.375)"/>
      <path id="Path_23929" data-name="Path 23929" d="M11.885,24.06l.014-.923c.017-1.085,0-2.166-.015-3.36-.478-.019-.923-.033-1.366-.022-.126,0-.251.008-.376.013l-.109,0q-.005.131-.012.262c-.008.155-.015.31-.017.464,0,.373,0,.746,0,1.119v.819h0v.042c0,.3,0,.6,0,.9,0,.225.011.452.02.677l.151.005a15.928,15.928,0,0,0,1.714,0Z" transform="translate(-4.144 -8.188)"/>
    </g>
  </g>
</svg>
