<svg id="insert_chart_black_24dp" xmlns="http://www.w3.org/2000/svg" xmlns:xlink="http://www.w3.org/1999/xlink" width="28" height="28" viewBox="0 0 28 28">
  <defs>
    <clipPath id="clip-path">
      <rect id="Rectangle_78569" data-name="Rectangle 78569" width="27.539" height="27.051" fill="none"/>
    </clipPath>
  </defs>
  <path id="Path_4" data-name="Path 4" d="M0,0H28V28H0Z" fill="none"/>
  <g id="Group_59863" data-name="Group 59863">
    <g id="Group_59863-2" data-name="Group 59863" clip-path="url(#clip-path)">
      <path id="Path_22042" data-name="Path 22042" d="M21.752,34.5a1.95,1.95,0,0,1-1.943-1.946V22.142a.972.972,0,1,1,1.944,0V32.558l8.3-4.246.01-5.238a.972.972,0,0,1,1.944,0V28.3a1.952,1.952,0,0,1-1.069,1.746l-8.3,4.246a1.944,1.944,0,0,1-.886.215" transform="translate(-6.974 -7.453)"/>
      <path id="Path_22043" data-name="Path 22043" d="M24.369,24.47a1.494,1.494,0,0,1-1.21-.618l-2.813-3.884A1.495,1.495,0,0,1,21,17.7l8.913-3.565a1.485,1.485,0,0,1,1.712.441l2.636,3.23a1.494,1.494,0,0,1-.507,2.29l-8.735,4.22a1.5,1.5,0,0,1-.652.15m-2.11-5.176,2.253,3.113L32.4,18.6l-2.067-2.533Zm8.38-3.352h0" transform="translate(-7.063 -4.939)"/>
      <path id="Path_22044" data-name="Path 22044" d="M14.1,34.461a2.01,2.01,0,0,1-.917-.222L5.007,30.058a2,2,0,0,1-1.1-1.792V23.075a.972.972,0,0,1,1.944,0v5.191a.066.066,0,0,0,.037.06l8.177,4.182a.068.068,0,0,0,.1-.06V22.142a.972.972,0,0,1,1.944,0V32.448A2.016,2.016,0,0,1,14.1,34.461" transform="translate(-1.377 -7.453)"/>
      <path id="Path_22045" data-name="Path 22045" d="M10.281,24.478a1.426,1.426,0,0,1-.626-.144l-8.84-4.27a1.44,1.44,0,0,1-.489-2.208l2.7-3.312a1.437,1.437,0,0,1,1.651-.426L13.7,17.723a1.44,1.44,0,0,1,.632,2.182l-2.88,3.977a1.439,1.439,0,0,1-1.167.6m.218-1.895h0M2.235,18.591,10.12,22.4l2.254-3.113L4.3,16.059Z" transform="translate(0 -4.934)"/>
      <path id="Path_22046" data-name="Path 22046" d="M21.722,13.868a.972.972,0,0,1-.874-1.4L22.972,8.1l.4-.124a3.843,3.843,0,0,0,2.188-1.831,2.807,2.807,0,0,0-.054-2.017,3.154,3.154,0,0,1-2.626-.042A3.128,3.128,0,0,1,21.468,2.4a2.531,2.531,0,0,0-1.374,1.181,4.673,4.673,0,0,0,.24,3.507l.186.395-2.375,5.581a.972.972,0,0,1-1.789-.762L18.4,7.5a6.305,6.305,0,0,1-.055-4.769,4.86,4.86,0,0,1,3.605-2.5L23.021,0l.1,1.088c.027.253.209,1.044.666,1.28.353.182.965.046,1.725-.38L26.38,1.5l.468.873a5.166,5.166,0,0,1,.51,4.521,5.528,5.528,0,0,1-2.991,2.783L22.6,13.321a.971.971,0,0,1-.874.547" transform="translate(-5.732)"/>
      <path id="Path_22047" data-name="Path 22047" d="M5.967,15.131A.972.972,0,0,1,5.8,13.2l6.388-1.135a.972.972,0,1,1,.34,1.913L6.139,15.116a1.036,1.036,0,0,1-.172.015" transform="translate(-1.759 -4.243)"/>
    </g>
  </g>
</svg>
