<svg id="home_black_24dp" xmlns="http://www.w3.org/2000/svg" xmlns:xlink="http://www.w3.org/1999/xlink" width="26.918" height="26.918" viewBox="0 0 26.918 26.918">
  <defs>
    <clipPath id="clip-path">
      <rect id="Rectangle_78588" data-name="Rectangle 78588" width="25.488" height="21.5" fill="#0b694c"/>
    </clipPath>
  </defs>
  <path id="Path_1" data-name="Path 1" d="M0,0H26.918V26.918H0Z" fill="none"/>
  <g id="Group_59882" data-name="Group 59882" transform="translate(0.873 3.31)">
    <g id="Group_59882-2" data-name="Group 59882" transform="translate(0 0)" clip-path="url(#clip-path)">
      <path id="Path_22164" data-name="Path 22164" d="M9.383,11.052a4.725,4.725,0,1,1,4.725-4.725,4.731,4.731,0,0,1-4.725,4.725m0-7.73a3,3,0,1,0,3,3,3.008,3.008,0,0,0-3-3" transform="translate(-1.986 -0.683)" fill="#0b694c"/>
      <path id="Path_22165" data-name="Path 22165" d="M7.434,29.505a14.643,14.643,0,0,1-6.47-1.532h0a1.62,1.62,0,0,1-.9-1.275c-.164-1.418-.333-6.15,4.379-7.465a9.84,9.84,0,0,1,7.893.792,6.148,6.148,0,0,1,2.823,4.207c.285,2.756-.317,3.405-.893,3.564a14.581,14.581,0,0,1-6.829,1.71M1.764,26.449a12.746,12.746,0,0,0,11.687-.171,7.825,7.825,0,0,0,0-1.817,4.369,4.369,0,0,0-2.043-2.984A8.148,8.148,0,0,0,4.9,20.89c-3.265.911-3.291,4.151-3.138,5.559" transform="translate(0 -8.006)" fill="#0b694c"/>
      <path id="Path_22166" data-name="Path 22166" d="M26.366,18.47a.86.86,0,0,1-.146-1.708A7.577,7.577,0,1,0,21.69,2.439.86.86,0,1,1,20.957.883,9.206,9.206,0,0,1,24.916,0a9.3,9.3,0,0,1,1.6,18.457.869.869,0,0,1-.148.013" transform="translate(-8.725 0)" fill="#0b694c"/>
      <path id="Path_22167" data-name="Path 22167" d="M32.923,11.782H27.45V4.612a.86.86,0,0,1,1.721,0v5.449h3.752a.86.86,0,0,1,0,1.721" transform="translate(-11.705 -1.6)" fill="#0b694c"/>
    </g>
  </g>
</svg>
