<svg id="home_black_24dp" xmlns="http://www.w3.org/2000/svg" xmlns:xlink="http://www.w3.org/1999/xlink" width="26.918" height="26.918" viewBox="0 0 26.918 26.918">
  <defs>
    <clipPath id="clip-path">
      <rect id="Rectangle_78584" data-name="Rectangle 78584" width="24.735" height="24.057" fill="none"/>
    </clipPath>
  </defs>
  <path id="Path_1" data-name="Path 1" d="M0,0H26.918V26.918H0Z" fill="none"/>
  <g id="Group_59878" data-name="Group 59878" transform="translate(1.092 1.431)">
    <g id="Group_59878-2" data-name="Group 59878" transform="translate(0 0)" clip-path="url(#clip-path)">
      <path id="Path_22137" data-name="Path 22137" d="M20.663,28.354H8.116A2.486,2.486,0,0,1,5.522,26V11.982a1.968,1.968,0,0,1,1.984-1.919L21.191,10H21.2a2.026,2.026,0,0,1,2.056,1.962V26a2.486,2.486,0,0,1-2.6,2.355M21.2,11.709l-13.686.066c-.141,0-.28.1-.281.2V26c0,.35.4.644.884.644H20.663c.48,0,.884-.295.884-.644V11.982a.329.329,0,0,0-.346-.274h0Zm0-.855h0Z" transform="translate(-2.373 -4.297)"/>
      <path id="Path_22138" data-name="Path 22138" d="M16.407,18.821H12.2a1.716,1.716,0,0,1-1.714-1.714V12.42A1.716,1.716,0,0,1,12.2,10.7h4.209a1.716,1.716,0,0,1,1.715,1.715v4.687a1.716,1.716,0,0,1-1.715,1.714M12.2,12.416l0,4.691,4.214,0,0-4.691Z" transform="translate(-4.506 -4.601)"/>
      <path id="Path_22139" data-name="Path 22139" d="M36.05,11.3a1.792,1.792,0,0,0-1.1-1.655,2.063,2.063,0,1,0-3.8-1.27,2.094,2.094,0,0,0-1.55,3.889,1.791,1.791,0,0,0,1.468,2.819c.056,0,.112,0,.167-.008a2.519,2.519,0,0,0,4.318-2.532,1.788,1.788,0,0,0,.5-1.243" transform="translate(-12.17 -2.787)" fill="#fff"/>
      <path id="Path_22140" data-name="Path 22140" d="M32.6,16.3a3.337,3.337,0,0,1-2.4-1.009,2.648,2.648,0,0,1-2.33-3.339,2.951,2.951,0,0,1,2.015-5.2,2.918,2.918,0,0,1,5.6,1.157,2.9,2.9,0,0,1-.1.775,2.65,2.65,0,0,1,.49,3.377A3.377,3.377,0,0,1,32.6,16.3M30.98,13.536l.29.385a1.663,1.663,0,0,0,2.852-1.671l-.233-.526.4-.414a.936.936,0,0,0-.314-1.516l-.935-.389.541-.856a1.208,1.208,0,1,0-2.226-.744l-.092,1.132-1.062-.4a1.238,1.238,0,0,0-.916,2.3l.974.412-.606.867a.926.926,0,0,0-.17.535.945.945,0,0,0,1.018.933Z" transform="translate(-11.526 -2.143)"/>
      <path id="Path_22141" data-name="Path 22141" d="M1.411,9.9A1.411,1.411,0,1,1,2.821,8.49,1.412,1.412,0,0,1,1.411,9.9m0-1.966a.555.555,0,1,0,.555.556.556.556,0,0,0-.555-.556" transform="translate(0 -3.043)"/>
      <path id="Path_22142" data-name="Path 22142" d="M10.545,4.525A2.252,2.252,0,0,1,8.834.812,2.237,2.237,0,0,1,10.37.028a2.262,2.262,0,0,1,2.424,2.067,2.253,2.253,0,0,1-2.067,2.424c-.061,0-.121.007-.182.007m0-3.365c-.03,0-.059,0-.089,0a1.112,1.112,0,0,0-.634,1.955,1.123,1.123,0,0,0,.81.262,1.112,1.112,0,0,0-.087-2.221" transform="translate(-3.565 -0.01)"/>
      <path id="Path_22143" data-name="Path 22143" d="M24.3,4a2,2,0,1,1,2-2,2,2,0,0,1-2,2m0-2.856A.858.858,0,1,0,25.161,2,.859.859,0,0,0,24.3,1.14" transform="translate(-9.586 0)"/>
      <path id="Path_22144" data-name="Path 22144" d="M22.442,35.585H6.767a.855.855,0,1,1,0-1.711H22.442a.855.855,0,1,1,0,1.711" transform="translate(-2.541 -14.559)"/>
      <path id="Path_22145" data-name="Path 22145" d="M16.891,29.929H13.876a.855.855,0,1,1,0-1.711h3.015a.855.855,0,1,1,0,1.711" transform="translate(-5.596 -12.128)"/>
    </g>
  </g>
</svg>
