<svg id="home_black_24dp" xmlns="http://www.w3.org/2000/svg" xmlns:xlink="http://www.w3.org/1999/xlink" width="26.918" height="26.918" viewBox="0 0 26.918 26.918">
  <defs>
    <clipPath id="clip-path">
      <rect id="Rectangle_78587" data-name="Rectangle 78587" width="22.229" height="22.361" fill="#00A4DC"/>
    </clipPath>
  </defs>
  <path id="Path_1" data-name="Path 1" d="M0,0H26.918V26.918H0Z" fill="none"/>
  <g id="Group_59881" data-name="Group 59881" transform="translate(2.689 2.279)">
    <g id="Group_59881-2" data-name="Group 59881" transform="translate(0 0)" clip-path="url(#clip-path)">
      <path id="Path_22157" data-name="Path 22157" d="M.239,11.3V2.228A1.861,1.861,0,0,1,2.214.245c3.023,0,6.045.007,9.068-.005A2.11,2.11,0,0,1,12.955,1q1.627,1.815,3.289,3.6a2.278,2.278,0,0,1,.6,1.479,1.605,1.605,0,0,1-.652,1.567,4.347,4.347,0,0,0-.455.445c-.044.043-.082.124-.156.094s-.046-.115-.046-.175c0-.621-.009-1.242,0-1.863,0-.224-.067-.3-.294-.294-1.013.011-2.026.006-3.039,0-.595,0-.881-.274-.883-.861,0-1.095,0-2.189.01-3.284,0-.161-.066-.173-.186-.173H2.3c-.58,0-.765.184-.765.761q0,8.957,0,17.915a2.035,2.035,0,0,0,.019.366.514.514,0,0,0,.532.447c.3.01.6,0,.907,0H14.83c.534,0,.7-.17.7-.7,0-1.536,0-3.071,0-4.607a.6.6,0,0,1,.206-.5c.195-.174.374-.365.557-.553.1-.1.161-.1.283-.008a.637.637,0,0,1,.258.585c-.01,1.732,0,3.464-.006,5.2a1.814,1.814,0,0,1-1.885,1.882q-6.4,0-12.793,0A1.835,1.835,0,0,1,.24,20.412q0-4.558,0-9.117" transform="translate(-0.105 -0.105)" fill="#00A4DC"/>
      <path id="Path_22158" data-name="Path 22158" d="M8.442,22.361l-6.4,0A1.961,1.961,0,0,1,0,20.307q0-2.963,0-5.926V2.123A2,2,0,0,1,2.11.005H4.748Q7.962.009,11.177,0h.011a2.23,2.23,0,0,1,1.763.806c1.178,1.315,2.376,2.613,3.288,3.6a2.411,2.411,0,0,1,.635,1.562,1.723,1.723,0,0,1-.708,1.685,1.946,1.946,0,0,0-.281.268c-.052.056-.1.112-.159.165a.258.258,0,0,1-.3.123.237.237,0,0,1-.132-.271v-.4c0-.5-.005-1,0-1.493,0-.1-.016-.128-.021-.134s-.028-.021-.137-.022c-.8.008-1.6.006-2.4.005H12.1a.893.893,0,0,1-1.017-.995c0-1.316,0-2.329.01-3.286a.284.284,0,0,0,0-.039.19.19,0,0,1-.049,0H2.195c-.506,0-.63.123-.63.627V20.166a1.576,1.576,0,0,0,.016.287.382.382,0,0,0,.4.338c.216.006.435,0,.652,0H14.725c.457,0,.569-.111.57-.569V19.3q0-1.843,0-3.686a.731.731,0,0,1,.251-.6c.165-.147.324-.312.478-.471l.071-.074a.305.305,0,0,1,.46-.023.769.769,0,0,1,.313.694c-.007,1.148-.007,2.3-.006,3.444v1.751a1.955,1.955,0,0,1-2.02,2.016l-6.4,0M.269,11.19v3.191q0,2.963,0,5.926A1.7,1.7,0,0,0,2.045,22.09q6.4,0,12.793,0a1.675,1.675,0,0,0,1.751-1.747V18.592c0-1.149,0-2.3.006-3.446a.5.5,0,0,0-.2-.477.213.213,0,0,0-.068-.04s-.013.009-.038.035l-.071.074c-.157.162-.319.331-.493.486a.47.47,0,0,0-.161.394q.008,1.843,0,3.687v.921c0,.611-.228.838-.839.838H2.64c-.221,0-.441,0-.662,0a.647.647,0,0,1-.661-.558,1.772,1.772,0,0,1-.021-.338V2.2c0-.653.244-.9.9-.9H9.728c.439,0,.875,0,1.313,0a.324.324,0,0,1,.245.075.32.32,0,0,1,.075.234c-.011.955-.013,1.968-.01,3.282,0,.509.225.726.748.727h.64c.8,0,1.6,0,2.4-.005a.465.465,0,0,1,.331.1.438.438,0,0,1,.1.328c-.009.5-.007.991,0,1.487l0,.332c.041-.042.082-.085.121-.128a2.174,2.174,0,0,1,.322-.3,1.46,1.46,0,0,0,.6-1.448,2.129,2.129,0,0,0-.564-1.4C15.128,3.6,13.93,2.3,12.751.986A1.979,1.979,0,0,0,11.188.269h-.01Q7.963.283,4.747.276H2.11A1.728,1.728,0,0,0,.269,2.123Z" transform="translate(0 0)" fill="#00A4DC"/>
      <path id="Path_22159" data-name="Path 22159" d="M31.7,11.373a1.9,1.9,0,0,1-.513,1.11c-.177.2-.36.4-.552.59-.114.112-.119.2,0,.3a.166.166,0,0,1,.017.017c.365.385.365.385.749.032a.507.507,0,0,1,.7-.04.483.483,0,0,1-.033.718q-1.913,1.934-3.832,3.862a.934.934,0,0,1-.171.137.473.473,0,0,1-.636-.679,3.34,3.34,0,0,1,.317-.339c.813-.816,1.624-1.634,2.443-2.444.127-.126.138-.2.005-.335-.4-.4-.393-.4-.784-.011Q27.306,16.41,25.2,18.527c-.169.171-.269.193-.446.007-.566-.589-1.147-1.163-1.732-1.734-.145-.142-.146-.231,0-.374q2.8-2.784,5.585-5.575a3.5,3.5,0,0,1,1.194-.84A1.491,1.491,0,0,1,31.7,11.373" transform="translate(-10.028 -4.348)" fill="#00A4DC"/>
      <path id="Path_22160" data-name="Path 22160" d="M8.11,28.648c.089.025.133-.029.182-.07a1.506,1.506,0,0,1,2.32-.039,4.48,4.48,0,0,1,.676-1.758,14.747,14.747,0,0,1,2.227-2.913c.359-.38.738-.741,1.1-1.114.1-.1.181-.144.3-.021q.921.933,1.853,1.855c.09.089.116.163.015.267a16.57,16.57,0,0,1-4.813,3.731,2.266,2.266,0,0,1-.951.288c-.137,0-.2.128-.273.225a.377.377,0,0,1-.665.013.683.683,0,0,0-1.009-.18,6.056,6.056,0,0,1-.653.43.742.742,0,0,1-.789-.011.835.835,0,0,1-.291-.792,3.033,3.033,0,0,1,.308-1.052.949.949,0,0,0,.118-.47c-.012-.2-.106-.277-.306-.233a.7.7,0,0,0-.331.2,3.864,3.864,0,0,0-.763,1.245c-.077.171-.133.353-.219.519a.34.34,0,0,1-.45.188.33.33,0,0,1-.231-.43,5.073,5.073,0,0,1,1.184-2.117,1.41,1.41,0,0,1,.525-.309.975.975,0,0,1,1.354,1.031,1.983,1.983,0,0,1-.212.724,1.74,1.74,0,0,0-.212.789" transform="translate(-2.386 -9.918)" fill="#00A4DC"/>
      <path id="Path_22161" data-name="Path 22161" d="M15.957,18.267a.623.623,0,0,0-.584-.355c-.084-.007-.168-.006-.252-.006H6.954a1.139,1.139,0,0,0-.83.29.8.8,0,0,0-.229.586c0,.417.283.864,1.06.864q.952,0,1.9-.005c1.582-.006,3.217-.013,4.823.024l.133,0a2.186,2.186,0,0,0,1.958-.919.424.424,0,0,0,.184-.48" transform="translate(-2.58 -7.838)" fill="#00A4DC"/>
      <path id="Path_22162" data-name="Path 22162" d="M12.848,23.951a.4.4,0,0,0-.441-.191q-1.153,0-2.306,0H8.843c-.665,0-1.331,0-2,0a.9.9,0,0,0-.96.877.852.852,0,0,0,.249.608.958.958,0,0,0,.685.277c1.054.005,2.109,0,3.164,0H11.5a.624.624,0,0,0,.5-.24c.142-.175.289-.347.435-.518l.3-.354a.367.367,0,0,0,.109-.464" transform="translate(-2.577 -10.399)" fill="#00A4DC"/>
      <path id="Path_22163" data-name="Path 22163" d="M11.115,12.059c-.6-.006-1.195-.005-1.791-.005H8.312c-.55,0-1.1,0-1.653.005a.864.864,0,0,0-.861.824.9.9,0,0,0,.777.9,2.227,2.227,0,0,0,.281.01H10.97a1.783,1.783,0,0,0,.232-.01.892.892,0,0,0,.771-.9.843.843,0,0,0-.859-.821" transform="translate(-2.538 -5.276)" fill="#00A4DC"/>
    </g>
  </g>
</svg>
