<svg id="home_black_24dp" xmlns="http://www.w3.org/2000/svg" xmlns:xlink="http://www.w3.org/1999/xlink" width="26.918" height="26.918" viewBox="0 0 26.918 26.918">
  <defs>
    <clipPath id="clip-path">
      <rect id="Rectangle_78586" data-name="Rectangle 78586" width="19.998" height="24.133" fill="none"/>
    </clipPath>
  </defs>
  <path id="Path_1" data-name="Path 1" d="M0,0H26.918V26.918H0Z" fill="none"/>
  <g id="Group_59880" data-name="Group 59880" transform="translate(3.46 1.393)">
    <g id="Group_59880-2" data-name="Group 59880" transform="translate(0 0)" clip-path="url(#clip-path)">
      <path id="Path_22154" data-name="Path 22154" d="M28.921,16.749l-1.856.294a2,2,0,0,0-.252-.491,1.253,1.253,0,0,0-.372-.277v1.444a5.409,5.409,0,0,1,2.026.854,1.969,1.969,0,0,1,.674,1.533,2.083,2.083,0,0,1-.242,1,2.427,2.427,0,0,1-.619.759,2.492,2.492,0,0,1-.8.442,3.914,3.914,0,0,1-1.038.162v.943h-.729v-.943a4.591,4.591,0,0,1-1.19-.236,2.428,2.428,0,0,1-.789-.477,2.337,2.337,0,0,1-.511-.656,3.083,3.083,0,0,1-.27-.851l2.016-.235a1.9,1.9,0,0,0,.242.714,1.263,1.263,0,0,0,.5.389V19.353a9.438,9.438,0,0,1-1.43-.484,1.91,1.91,0,0,1-1.041-1.758,1.974,1.974,0,0,1,.622-1.486,2.8,2.8,0,0,1,1.849-.662v-.494h.729v.494a3.07,3.07,0,0,1,1.709.529,2.122,2.122,0,0,1,.771,1.258m-3.209-.5a.928.928,0,0,0-.444.261.568.568,0,0,0-.125.366.61.61,0,0,0,.127.384.94.94,0,0,0,.442.273Zm.729,4.916a1.151,1.151,0,0,0,.621-.313.707.707,0,0,0,.2-.488.658.658,0,0,0-.167-.433,1.527,1.527,0,0,0-.652-.367Z" transform="translate(-9.142 -5.763)"/>
      <path id="Path_22155" data-name="Path 22155" d="M17.73,19.464V18.6c-.646-.011-1.305-.035-1.862-.079,0,.016,0,1.168,0,1.168a1.256,1.256,0,0,0,.268.839c.049.061.073.1.085.11a.817.817,0,0,1-.1.111,3.078,3.078,0,0,1-.941.535,12.655,12.655,0,0,1-3.3.777,21.373,21.373,0,0,1-3.415.161,16.568,16.568,0,0,1-5.508-.946,3.114,3.114,0,0,1-.907-.508c-.078-.066-.112-.107-.125-.113a.721.721,0,0,1,.091-.137,1.2,1.2,0,0,0,.263-.783q0-1.123,0-2.245V16.432c0-.532,0-1.065,0-1.626a14.975,14.975,0,0,0,3.359.6l.166.015c.137.013.274.025.419.033A2.764,2.764,0,0,0,7.71,17.9a2.856,2.856,0,0,0,4.215-2.448c.481-.035.974-.081,1.471-.14-.1-.512-.226-1.217-.291-1.866-.477.055-.956.1-1.427.134l-.086.007a12.752,12.752,0,0,0-1.625-3.111,1.162,1.162,0,0,0-.891-.585,1.179,1.179,0,0,0-.9.593,13.3,13.3,0,0,0-1.623,3.1l-.039,0a18.121,18.121,0,0,1-3.528-.52A3.413,3.413,0,0,1,2.1,12.7a1.173,1.173,0,0,1-.147-.1,1.073,1.073,0,0,1,.088-.131,1.216,1.216,0,0,0,.23-.783V5.908a13.731,13.731,0,0,0,3.434.854,23.808,23.808,0,0,0,3.746.225,20.524,20.524,0,0,0,5.575-.77c.285-.085.566-.185.842-.3l.1,1.877a9.894,9.894,0,0,1,1.859.049c0-1.184-.1-1.992-.1-3.176,0-.028,0-.054-.023-.028a1.908,1.908,0,0,0-.4-2.735A5.849,5.849,0,0,0,15.37.887,19.754,19.754,0,0,0,9.527.008,23.4,23.4,0,0,0,5.4.273a12.549,12.549,0,0,0-3.484.956A3.552,3.552,0,0,0,.313,2.5,1.774,1.774,0,0,0,.281,4.432a.6.6,0,0,1,.091.332q-.006,3.3,0,6.59a.556.556,0,0,1-.087.3A1.726,1.726,0,0,0,.328,13.6a.282.282,0,0,1,.041.179q0,2.807,0,5.613a.482.482,0,0,1-.073.274A1.776,1.776,0,0,0,.352,21.7a2.813,2.813,0,0,0,.678.683,6.59,6.59,0,0,0,2.07.967,22.145,22.145,0,0,0,5.881.779H9c1.024-.016,1.946-.068,2.817-.159a15.425,15.425,0,0,0,3.859-.843,4.849,4.849,0,0,0,1.827-1.1,1.884,1.884,0,0,0,.252-2.48.132.132,0,0,1-.023-.085M9.069,12.608a6.478,6.478,0,0,1,.974,2.686,1,1,0,0,1-.264.755.955.955,0,0,1-1.421,0,1.037,1.037,0,0,1-.26-.793,6.68,6.68,0,0,1,.971-2.644m-6.826-9.4a7.225,7.225,0,0,1,2.435-.88A20.842,20.842,0,0,1,9.9,1.909a17.856,17.856,0,0,1,4.382.624,5.8,5.8,0,0,1,1.638.69,1.126,1.126,0,0,1,.309.27c-.007.016-.055.111-.305.274a7.126,7.126,0,0,1-2.453.895,22.048,22.048,0,0,1-5.019.428,18.2,18.2,0,0,1-4.635-.646A6.115,6.115,0,0,1,2.258,3.8a1.111,1.111,0,0,1-.351-.292c.006-.014.054-.119.336-.3" transform="translate(0 0)"/>
      <path id="Path_22156" data-name="Path 22156" d="M9.456,5.258c0,.474-.587.859-1.312.859s-1.312-.384-1.312-.859S7.419,4.4,8.144,4.4s1.312.384,1.312.859" transform="translate(-2.721 -1.752)"/>
    </g>
  </g>
</svg>
