<svg xmlns="http://www.w3.org/2000/svg" xmlns:xlink="http://www.w3.org/1999/xlink" width="28.469" height="26.918" viewBox="0 0 28.469 26.918">
  <defs>
    <clipPath id="clip-path">
      <rect id="Rectangle_78705" data-name="Rectangle 78705" width="28.469" height="22.776" fill="none"/>
    </clipPath>
  </defs>
  <g id="home_black_24dp" transform="translate(1.551)">
    <path id="Path_1" data-name="Path 1" d="M0,0H26.918V26.918H0Z" fill="none"/>
    <g id="Group_60162" data-name="Group 60162" transform="translate(-1.551 2.072)">
      <g id="Group_60162-2" data-name="Group 60162" transform="translate(0 0)" clip-path="url(#clip-path)">
        <path id="Path_23908" data-name="Path 23908" d="M31.2,15.458a1.065,1.065,0,0,0-.98-.507l-1.722,0c-.051,0-.055-.008-.069-.038q-.144-.317-.3-.629c-.01-.02-.014-.03,0-.068q.157-.329.309-.66l-.144-.066.178.047c.234.01.468.008.7,0,.132,0,.264,0,.4,0a5.3,5.3,0,0,0,.837-.027,1.01,1.01,0,0,0,.683-.407,1.046,1.046,0,0,0,.2-.788,1.824,1.824,0,0,0-.472-.863,3.917,3.917,0,0,0-3.047-1.51H27.7a3.984,3.984,0,0,0-3.437,1.9.153.153,0,0,1-.155.086h0q-1.951-.006-3.9,0c-.068,0-.072,0-.1-.072a6.307,6.307,0,0,0-2.462-2.913,6.242,6.242,0,0,0-4.582-.862,6.047,6.047,0,0,0-3.07,1.54,6.357,6.357,0,0,0-1.753,6.593,6.165,6.165,0,0,0,1.068,2,6.3,6.3,0,0,0,3.024,2.105,6.072,6.072,0,0,0,1.907.3,6.577,6.577,0,0,0,.745-.043,6.227,6.227,0,0,0,3.573-1.637,6.4,6.4,0,0,0,1.563-2.238c.02-.046.019-.051.084-.046q.735,0,1.471,0h.984q.743,0,1.484,0a.126.126,0,0,1,.114.063,4.066,4.066,0,0,0,3.026,1.9,4.013,4.013,0,0,0,3.939-2.062,1.044,1.044,0,0,0-.011-1.1m-21.24.034a.265.265,0,0,0-.022.285l.037.095a4.468,4.468,0,0,0,.277.621.335.335,0,0,0,.3.18l.088,0c.05,0,.1,0,.151,0H18.37c.109,0,.218,0,.327-.01l.059,0a5.386,5.386,0,0,1-1.47,1.7,4.987,4.987,0,0,1-2.381.972,4.781,4.781,0,0,1-1.9-.114A4.893,4.893,0,0,1,9.67,16.48a4.888,4.888,0,0,1,.54-5.261,4.823,4.823,0,0,1,3.37-1.967,5.1,5.1,0,0,1,.7-.048,4.993,4.993,0,0,1,2.388.613,5.084,5.084,0,0,1,2.094,2.11H13.767c-1.035,0-2.07,0-3.106-.006h0a.46.46,0,0,0-.478.312c-.061.154-.126.305-.191.458l-.055.13a.259.259,0,0,0,.013.274.254.254,0,0,0,.257.077,4.509,4.509,0,0,1,.807-.03,2.765,2.765,0,0,0,.3,0q6.693,0,13.383,0a.4.4,0,0,0,.4-.248,2.884,2.884,0,0,1,2.245-1.7,2.921,2.921,0,0,1,2.576,1.1h-1.75c-.462,0-.542.03-.735.483-.119.28-.25.554-.381.829l-.178.377a.553.553,0,0,0,0,.5q.349.73.688,1.465a.376.376,0,0,0,.377.234h0c.593,0,1.186,0,1.78,0h.264a2.712,2.712,0,0,1-2.8,1.172,2.74,2.74,0,0,1-1.85-1.263,3.21,3.21,0,0,1-.239-.42.383.383,0,0,0-.408-.237,1.594,1.594,0,0,1-.175,0l-13.752,0h-.1a2.038,2.038,0,0,1-.4-.022.268.268,0,0,0-.281.072" transform="translate(-2.893 -2.907)"/>
        <path id="Path_23909" data-name="Path 23909" d="M20.4,16.034a.135.135,0,0,1,.017-.041,9.554,9.554,0,0,0,.554-1.311.309.309,0,0,0-.012-.289.316.316,0,0,0-.271-.1,5.445,5.445,0,0,1-.558,0,.392.392,0,0,0-.446.3A7.662,7.662,0,0,1,19,16.01a.308.308,0,0,0,.06.412c.177.174.352.35.528.525l.282.283c-.288.285-.575.572-.861.857l-.77.768c-.339.335-.676.671-1.037,1.033-.13-.133-.261-.264-.393-.394s-.266-.265-.4-.4a.323.323,0,0,0-.441-.061,8.507,8.507,0,0,1-2.424,1.013.357.357,0,0,0-.293.393c0,.185,0,.37,0,.556,0,.168,0,.336,0,.538h-.017c-1.245,0-2.489,0-3.768,0,0-.14,0-.281,0-.421,0-.2,0-.409.005-.614a.41.41,0,0,0-.356-.472,6.944,6.944,0,0,1-1.28-.434L7.8,19.573a8.082,8.082,0,0,1-1.045-.541.277.277,0,0,0-.383.019c-.112.112-.225.224-.339.335-.168.164-.337.33-.5.5l-.006.006c-.135-.135-.272-.269-.408-.4-.211-.206-.422-.413-.626-.627-.445-.466-.911-.926-1.362-1.371l-.261-.26c.1-.1.2-.2.3-.305.162-.166.324-.33.491-.491A.311.311,0,0,0,3.726,16a8.322,8.322,0,0,1-1.014-2.456.307.307,0,0,0-.339-.269c-.18,0-.359,0-.54,0-.2,0-.4,0-.593,0H1.218v-.023q.008-1.868,0-3.736c0-.013,0-.023,0-.029a.242.242,0,0,1,.039,0c.187,0,.374,0,.561,0s.37,0,.554,0a.313.313,0,0,0,.338-.264A8.653,8.653,0,0,1,3.724,6.777a.311.311,0,0,0-.053-.427c-.178-.172-.352-.348-.528-.523l-.282-.283c.463-.45.92-.906,1.378-1.364l.032-.032c.413-.413.826-.827,1.261-1.266l0,0c.173.183.353.36.533.537.1.1.194.191.291.288a.3.3,0,0,0,.391.042A8.428,8.428,0,0,1,9.2,2.725a.33.33,0,0,0,.268-.36c0-.164,0-.328,0-.492,0-.2,0-.4,0-.607V1.242a.052.052,0,0,1,.025,0q1.868.008,3.736,0h.028a.211.211,0,0,1,0,.022c0,.19,0,.379,0,.569s0,.353,0,.53a.331.331,0,0,0,.269.357,8.7,8.7,0,0,1,2.468,1.035.292.292,0,0,0,.4-.054c.147-.152.3-.3.445-.45.116-.114.231-.229.365-.364l.307.306c.292.289.583.579.869.873.344.354.695.7,1.045,1.047l.428.427a4.991,4.991,0,0,1-.67.661.456.456,0,0,0-.144.629,8.249,8.249,0,0,1,.686,1.432.309.309,0,0,0,.308.22h0c.241,0,.483,0,.723,0h.005a.251.251,0,0,0,.22-.1.276.276,0,0,0,.012-.255l-.068-.182c-.1-.259-.195-.528-.315-.786a1.831,1.831,0,0,0-.1-.17c-.053-.085-.112-.182-.1-.237s.094-.124.175-.189a1.636,1.636,0,0,0,.151-.133c.03-.031.064-.062.1-.094a.874.874,0,0,0,.286-.379,1.086,1.086,0,0,0-.184-1.07c-.059-.067-.119-.132-.18-.2a.32.32,0,0,0,.034-.041L20.633,4.4c-.14.03-.2-.03-.32-.158l-1.02-1.025q-.656-.659-1.316-1.317a1.05,1.05,0,0,0-1.533-.016c-.146.137-.292.275-.447.443a.131.131,0,0,1-.044-.017,7.709,7.709,0,0,0-1.459-.6.122.122,0,0,1,0-.044q.01-.3,0-.6A1.061,1.061,0,0,0,13.478.005Q11.372,0,9.269,0A1.042,1.042,0,0,0,8.249,1.046l0,.141c0,.154,0,.308.005.461,0,.064,0,.069-.067.088A7.3,7.3,0,0,0,6.814,2.3c-.084.043-.091.036-.139-.022a3.264,3.264,0,0,0-.236-.243l-.072-.069a1.209,1.209,0,0,0-.863-.4A1.209,1.209,0,0,0,4.656,2C4.331,2.336,4,2.67,3.667,3l-.73.725q-.526.521-1.049,1.045A1.046,1.046,0,0,0,1.9,6.332l.081.083c.1.1.194.2.3.29.042.039.046.05.015.109a8.594,8.594,0,0,0-.582,1.414c-.014.044-.017.06-.073.049-.2,0-.4,0-.594,0A1.017,1.017,0,0,0,0,9.32Q0,11.4,0,13.476A1.017,1.017,0,0,0,1.014,14.5c.222,0,.443,0,.684.015a10.115,10.115,0,0,0,.615,1.51c-.135.13-.264.264-.394.4l-.048.05a1.06,1.06,0,0,0,.023,1.536c.316.3.624.614.932.924l.837.843q.543.55,1.089,1.1a1.1,1.1,0,0,0,.775.333h0a1.1,1.1,0,0,0,.784-.345l.155-.154c.081-.08.163-.16.241-.243l.051-.007.088.042a7.767,7.767,0,0,0,1.376.556l.04-.152-.018.191c-.006.21,0,.421,0,.631A1.046,1.046,0,0,0,9.3,22.772q.845,0,1.691,0,1.217,0,2.431,0h.005a1.075,1.075,0,0,0,1.045-.9,3.354,3.354,0,0,0,.022-.572c0-.064,0-.128,0-.192s0-.056.046-.067a10.411,10.411,0,0,0,1.48-.589c.112.119.228.232.344.347l.1.1a1.019,1.019,0,0,0,.539.284,1.133,1.133,0,0,0,1.061-.393l.2-.2c.244-.255.5-.518.761-.751.183-.161.35-.338.511-.508.107-.114.215-.229.328-.339.062-.059.12-.123.179-.186a1.95,1.95,0,0,1,.368-.338,2.006,2.006,0,0,0,.552-.589,1,1,0,0,0-.108-1.42,4.978,4.978,0,0,0-.443-.422" transform="translate(0 0)"/>
        <path id="Path_23910" data-name="Path 23910" d="M17.992,18.217h7.5a.916.916,0,0,0,.281-.037.62.62,0,0,0,.436-.575.614.614,0,0,0-.435-.6,1,1,0,0,0-.3-.034h-7.47a1.15,1.15,0,0,0-.169.006.608.608,0,0,0-.539.624.629.629,0,0,0,.694.612" transform="translate(-6.312 -6.194)"/>
      </g>
    </g>
  </g>
</svg>
