<svg id="insert_chart_black_24dp" xmlns="http://www.w3.org/2000/svg" xmlns:xlink="http://www.w3.org/1999/xlink" width="28" height="28" viewBox="0 0 28 28">
  <defs>
    <clipPath id="clip-path">
      <rect id="Rectangle_78559" data-name="Rectangle 78559" width="21.923" height="26.462" fill="#0b694c"/>
    </clipPath>
  </defs>
  <path id="Path_4" data-name="Path 4" d="M0,0H28V28H0Z" fill="none"/>
  <g id="Group_59856" data-name="Group 59856" transform="translate(3.039 0.769)">
    <g id="Group_59856-2" data-name="Group 59856" transform="translate(0 -0.001)" clip-path="url(#clip-path)">
      <path id="Path_22015" data-name="Path 22015" d="M13.4,2.426Q12.22,1.254,11.047.08c-.029-.029-.06-.06-.083-.08-.023.021-.055.054-.084.083L3.374,7.591A11.9,11.9,0,0,0,1.958,9.259,10.919,10.919,0,0,0,.016,14.929a10.645,10.645,0,0,0,.386,3.5,10.964,10.964,0,0,0,10.964,8.027,10.911,10.911,0,0,0,8.057-3.981,10.841,10.841,0,0,0,2.5-6.963h0a9.6,9.6,0,0,0-.072-1.253,10.688,10.688,0,0,0-3.033-6.387C17.024,6.043,15.179,4.2,13.4,2.426m4.258,18.732a8.591,8.591,0,0,1-5.34,3.01,7.606,7.606,0,0,1-1.244.1h-.115A8.7,8.7,0,0,1,3.694,20.4a8.273,8.273,0,0,1-1.463-4.2A8.639,8.639,0,0,1,4.8,9.265C6.016,8.033,7.239,6.814,8.462,5.594Q9.58,4.478,10.7,3.359a.328.328,0,0,1,.536,0q1.386,1.393,2.777,2.78,1.56,1.56,3.118,3.123a8.775,8.775,0,0,1,.527,11.9" transform="translate(0 0)" fill="#0b694c"/>
      <path id="Path_22016" data-name="Path 22016" d="M16.253,17.468c-.364,0-.432-.068-.432-.426V12.219q-2.585,3.728-5.165,7.457h2.52c.364,0,.432.068.433.426v.711q0,2.056,0,4.112,2.584-3.727,5.164-7.457Z" transform="translate(-3.75 -4.301)" fill="#0b694c"/>
    </g>
  </g>
</svg>
