<svg id="insert_chart_black_24dp" xmlns="http://www.w3.org/2000/svg" xmlns:xlink="http://www.w3.org/1999/xlink" width="28" height="28" viewBox="0 0 28 28">
  <defs>
    <clipPath id="clip-path">
      <rect id="Rectangle_78565" data-name="Rectangle 78565" width="24.064" height="24.002" fill="none"/>
    </clipPath>
  </defs>
  <path id="Path_4" data-name="Path 4" d="M0,0H28V28H0Z" fill="none"/>
  <g id="Group_59859" data-name="Group 59859" transform="translate(0.969 1.999)">
    <g id="Group_59859-2" data-name="Group 59859" transform="translate(0 0)" clip-path="url(#clip-path)">
      <path id="Path_22024" data-name="Path 22024" d="M26.31,13.113a9.938,9.938,0,0,0-4.6-8.426c-.272-.183-.289-.305-.106-.549.245-.326.468-.669.683-1.015.134-.215.262-.269.491-.118A12.183,12.183,0,0,1,27.253,8.22a11.5,11.5,0,0,1,1.021,5.662,11.82,11.82,0,0,1-4.53,8.652,11.685,11.685,0,0,1-6.4,2.566,11.812,11.812,0,0,1-6.27-1.135c-.373-.178-.369-.184-.09-.485s.566-.59.824-.9a.486.486,0,0,1,.67-.155,9.344,9.344,0,0,0,4.69.708A9.913,9.913,0,0,0,24.9,18.267a9.737,9.737,0,0,0,1.414-5.153" transform="translate(-4.242 -1.149)"/>
      <path id="Path_22025" data-name="Path 22025" d="M0,11.486C-.024,6.432,3.861,1.554,9.24.272A12.382,12.382,0,0,1,10.846,0c.2-.02.264.027.164.218C10.7.8,10.4,1.385,10.1,1.969c-.086.166-.237.185-.391.227a9.73,9.73,0,0,0-7.42,7.4,9.721,9.721,0,0,0,2.626,9.482c.464.488.473.479.166,1.08-.139.272-.291.539-.411.82s-.243.326-.49.11A12.044,12.044,0,0,1,0,11.486" transform="translate(0 0)"/>
      <path id="Path_22026" data-name="Path 22026" d="M15.281,10.124l5.6-9.2L16.723.913,9.858,12.968l4.424-.212L9.67,21.633l10.877-11.8Z" transform="translate(-3.805 -0.359)"/>
    </g>
  </g>
</svg>
