<svg id="insert_chart_black_24dp" xmlns="http://www.w3.org/2000/svg" xmlns:xlink="http://www.w3.org/1999/xlink" width="28" height="28" viewBox="0 0 28 28">
  <defs>
    <clipPath id="clip-path">
      <rect id="Rectangle_78567" data-name="Rectangle 78567" width="19.992" height="26.697" fill="#0b694c"/>
    </clipPath>
  </defs>
  <path id="Path_4" data-name="Path 4" d="M0,0H28V28H0Z" fill="none"/>
  <g id="Group_59861" data-name="Group 59861" transform="translate(3.536 0.651)">
    <g id="Group_59861-2" data-name="Group 59861" transform="translate(0 0)" clip-path="url(#clip-path)">
      <path id="Path_22033" data-name="Path 22033" d="M10,31.281a10,10,0,1,1,10-10,10.008,10.008,0,0,1-10,10m0-18.21a8.214,8.214,0,1,0,8.215,8.214A8.224,8.224,0,0,0,10,13.072" transform="translate(0 -4.585)" fill="#0b694c"/>
      <path id="Path_22034" data-name="Path 22034" d="M26.251,28.289c-1.106,0-2.144-1.938-2.268-2.724a5.422,5.422,0,0,0-1.545-2.257c-1.124-.664-1.056-2.489-1-3.954.008-.207.015-.393.015-.538,0-1.31,1.7-2.45,2.215-2.768a.891.891,0,0,1,.931,1.519,3.766,3.766,0,0,0-1.366,1.272c0,.141-.006.348-.015.583a7.054,7.054,0,0,0,.166,2.377,6.8,6.8,0,0,1,2.36,3.489,3.206,3.206,0,0,0,.745,1.252.891.891,0,0,1-.237,1.75m0-1.782h0ZM23.4,21.815h0Z" transform="translate(-8.695 -6.463)" fill="#0b694c"/>
      <path id="Path_22035" data-name="Path 22035" d="M8.014,33.79a.9.9,0,0,1-.181-.018.891.891,0,0,1-.693-1.052c.4-1.934-.091-2.508-1.549-4.213l-.133-.157-.052-.2A2.1,2.1,0,0,1,5.7,26.245c.745-.958,2.218-.954,3.3-.95.173,0,.334,0,.473,0a.549.549,0,0,0,.186-.027.83.83,0,0,1,.059-.2A2.608,2.608,0,0,1,10,24.459c-.147-.186-.382-.438-.568-.638-.159-.17-.325-.349-.49-.535-.328-.372-1.988-.244-2.7-.19a8.334,8.334,0,0,1-1.2.042,3.035,3.035,0,0,1-2.12-1.329.891.891,0,0,1,1.488-.98,1.307,1.307,0,0,0,.779.533,7.738,7.738,0,0,0,.916-.043c1.449-.111,3.251-.249,4.167.785.154.175.311.342.459.5.671.72,1.2,1.29,1.159,2a1.244,1.244,0,0,1-.449.881h0a.78.78,0,0,1-.053.177,1.851,1.851,0,0,1-1.868,1.406c-.158.005-.34,0-.535,0-.459,0-1.675-.006-1.882.261a.342.342,0,0,0-.011.186c1.428,1.677,2.344,2.862,1.789,5.555a.892.892,0,0,1-.872.711" transform="translate(-1.129 -8.297)" fill="#0b694c"/>
      <path id="Path_22036" data-name="Path 22036" d="M9.755,6.121a4.651,4.651,0,0,1-3.4-1.978A3.471,3.471,0,0,1,5.92.55l.2-.419L6.576.054A4.793,4.793,0,0,1,9.747.66C11.474,1.8,12.128,3.422,11.5,5a1.757,1.757,0,0,1-1.468,1.1,2.173,2.173,0,0,1-.274.017M7.392,1.784A2.214,2.214,0,0,0,8.13,3.49a2.346,2.346,0,0,0,1.735.833c.365-.953-.394-1.711-1.1-2.177a2.634,2.634,0,0,0-1.374-.363" transform="translate(-2.274 0)" fill="#0b694c"/>
      <path id="Path_22037" data-name="Path 22037" d="M20.093,6.97a1.749,1.749,0,0,1-1.384-.651,2,2,0,0,1-.418-1.773,4.123,4.123,0,0,1,1.934-2.4,4.881,4.881,0,0,1,2.686-.475l.571.093.148.559c.428,1.619-.893,3.58-2.345,4.327a2.625,2.625,0,0,1-1.191.316m1.741-3.486a3.6,3.6,0,0,0-.853.279,2.493,2.493,0,0,0-.955,1.187.235.235,0,0,0,.054.232c.08.026.5-.073,1.015-.583a3.122,3.122,0,0,0,.739-1.115" transform="translate(-7.405 -0.667)" fill="#0b694c"/>
    </g>
  </g>
</svg>
