<svg id="home_black_24dp" xmlns="http://www.w3.org/2000/svg" xmlns:xlink="http://www.w3.org/1999/xlink" width="26.918" height="27.823" viewBox="0 0 26.918 27.823">
  <defs>
    <clipPath id="clip-path">
      <rect id="Rectangle_78709" data-name="Rectangle 78709" width="19.189" height="27.823" fill="#00355A"/>
    </clipPath>
  </defs>
  <path id="Path_1" data-name="Path 1" d="M0,0H26.918V26.918H0Z" fill="none"/>
  <g id="Group_60167" data-name="Group 60167" transform="translate(3.864 0)">
    <g id="Group_60167-2" data-name="Group 60167" transform="translate(0 0)" clip-path="url(#clip-path)">
      <path id="Path_23921" data-name="Path 23921" d="M18.578,16.739a1.872,1.872,0,0,0-.344-.023h-.05v-3.4c0-.731,0-1.462,0-2.208a2.167,2.167,0,0,0,.419-.029.71.71,0,0,0,.584-.726.685.685,0,0,0-.676-.642l-.062,0c-.087,0-.174-.006-.266,0q-.006-.864-.017-1.728l-.009-.9a.668.668,0,0,0-.072-.3L18,6.616c-.052-.108-.105-.216-.166-.318a2.6,2.6,0,0,0-1.889-1.387l-.024-.085c-.344-1.2-.69-2.4-1.071-3.647A4.346,4.346,0,0,0,14.56.4.665.665,0,0,0,13.9,0c-.487.01-.974.007-1.462.006q-.445,0-.89,0c-.863,0-1.728,0-2.59,0C7.43,0,5.851,0,4.3.035a.708.708,0,0,0-.717.5c-.174.489-.325.989-.453,1.419Q2.756,3.2,2.391,4.449l-.126.426a2.682,2.682,0,0,0-1.215.6A2.391,2.391,0,0,0,.09,7.1c-.039.341-.05.684-.058,1.035C.014,8.847.014,9.558.014,10.27c0,.4,0,.792,0,1.188C-.007,13.541,0,15.681.021,18c0,.231,0,.461,0,.691,0,.52,0,1.059.03,1.591l.005.1a2.362,2.362,0,0,0,.172.91,2.948,2.948,0,0,0,1.987,1.641c.062.017.062.017.076.068.34,1.179.683,2.355,1.039,3.558a5.358,5.358,0,0,0,.3.849.681.681,0,0,0,.65.414h.006q1.8-.008,3.606,0H9.953q1.985,0,3.97,0a.707.707,0,0,0,.593-.327,1.186,1.186,0,0,0,.113-.232c.156-.393.276-.8.392-1.194l.056-.191c.289-.976.575-1.952.849-2.932a1.991,1.991,0,0,0,.629-.2,3.237,3.237,0,0,0,1.562-1.782.525.525,0,0,0,.036-.194l0-.208c.007-.28.014-.559.017-.839.005-.53.009-1.062.009-1.61.068,0,.136,0,.2,0l.088,0a.691.691,0,0,0,.711-.638.709.709,0,0,0-.609-.735M4.723,1.55l.016-.056h.056c.9-.036,1.818-.031,2.707-.028.419,0,.839,0,1.257,0h.228c.605,0,1.21-.007,1.815.005.638.013,1.277.015,1.916.017l.748,0c.322,1.1.648,2.2.978,3.313H10.615c-.639,0-1.277,0-1.916,0q-2.035-.009-4.072-.024l-.582,0c-.064,0-.127-.006-.19-.011l-.085-.006q.143-.471.283-.945ZM16.756,15.4v2.815c0,.72,0,1.463-.03,2.192a1.168,1.168,0,0,1-.658.981,1.272,1.272,0,0,1-.705.184q-1.57-.008-3.139-.007H7.786q-2.6,0-5.208,0a.709.709,0,0,1-.316-.113l-.056-.03a1.875,1.875,0,0,1-.6-.52.656.656,0,0,1-.1-.363c-.027-.284-.052-.569-.055-.854-.018-3.946-.018-7.838,0-11.568a8.416,8.416,0,0,1,.063-.946.957.957,0,0,1,.373-.559,2.009,2.009,0,0,1,.6-.36.333.333,0,0,1,.084,0l12.673,0h.141a1.36,1.36,0,0,1,1.285.845.8.8,0,0,1,.053.323c.036.875.034,1.769.031,2.633v.771q0,2.286,0,4.573m-2.313,7.621-.183.623c-.264.9-.528,1.8-.782,2.691q-4.376-.006-8.74,0c-.322-1.1-.647-2.205-.98-3.318Z" transform="translate(0 0)" fill="#00355A"/>
      <path id="Path_23922" data-name="Path 23922" d="M16.311,18.426a16.953,16.953,0,0,0-1.868-.07c-.167-.464-.341-.926-.516-1.387q-.149-.394-.331-.773a.614.614,0,0,0-.576-.336.566.566,0,0,0-.573.349l-.066.148c-.03.066-.06.132-.088.2-.259.65-.5,1.309-.736,1.967-.153.421-.306.843-.464,1.261l-.085.221-1.278-4.07c-.158-.5-.316-1-.479-1.5a.693.693,0,0,0-.607-.489.614.614,0,0,0-.627.384c-.086.176-.17.352-.244.532-.359.866-.7,1.755-1.024,2.616l-.335.895c-.481-.006-.961,0-1.442.006a2.744,2.744,0,0,0-.528.054.684.684,0,0,0-.535.7.723.723,0,0,0,.644.66c.475.032.952.029,1.416.023l.485,0c.076,0,.16,0,.228,0a.929.929,0,0,0,.922-.681c.2-.5.4-.994.592-1.494.1-.267.207-.535.313-.8.233.7.453,1.4.667,2.089l.264.843c.268.852.573,1.818.894,2.748a.568.568,0,0,0,.577.433h.056a.581.581,0,0,0,.62-.443c.3-.734.572-1.49.837-2.221l.059-.16q.272-.751.546-1.5c.092.24.189.477.291.714a.732.732,0,0,0,.69.459c.609.03,1.224.023,1.82.017h.089a2.345,2.345,0,0,0,.474-.048.723.723,0,0,0,.53-.741.617.617,0,0,0-.612-.606" transform="translate(-1.317 -4.7)" fill="#00355A"/>
    </g>
  </g>
</svg>
