<svg id="insert_chart_black_24dp" xmlns="http://www.w3.org/2000/svg" xmlns:xlink="http://www.w3.org/1999/xlink" width="28" height="28" viewBox="0 0 28 28">
  <defs>
    <clipPath id="clip-path">
      <rect id="Rectangle_78576" data-name="Rectangle 78576" width="24.945" height="21.725" fill="none"/>
    </clipPath>
  </defs>
  <path id="Path_4" data-name="Path 4" d="M0,0H28V28H0Z" fill="none"/>
  <g id="Group_59870" data-name="Group 59870" transform="translate(1.527 2.687)">
    <g id="Group_59870-2" data-name="Group 59870" transform="translate(0 0)" clip-path="url(#clip-path)">
      <path id="Path_22089" data-name="Path 22089" d="M22.255,21.725h-.009L2.7,21.66A2.659,2.659,0,0,1,.369,20.234a2.971,2.971,0,0,1,.082-3.009L10.175,1.271A2.647,2.647,0,0,1,12.413,0h0a2.669,2.669,0,0,1,2.249,1.268L24.488,17.3a2.965,2.965,0,0,1,.086,3.016,2.632,2.632,0,0,1-2.319,1.4M12.416,1.7h0a.948.948,0,0,0-.8.47L1.888,18.124a1.279,1.279,0,0,0-.033,1.295.993.993,0,0,0,.853.545l19.544.065h0a.965.965,0,0,0,.834-.527,1.278,1.278,0,0,0-.04-1.3L13.227,2.165a.963.963,0,0,0-.81-.47M1.171,17.671h0Z" transform="translate(0 0)"/>
      <path id="Path_22090" data-name="Path 22090" d="M21.4,17.1a.848.848,0,0,1-.848-.848v-6.1a.848.848,0,1,1,1.7,0v6.1a.848.848,0,0,1-.848.848" transform="translate(-8.939 -4.046)"/>
      <path id="Path_22091" data-name="Path 22091" d="M21.4,29.628a.848.848,0,0,1-.848-.848V26.474a.848.848,0,1,1,1.7,0V28.78a.848.848,0,0,1-.848.848" transform="translate(-8.939 -11.144)"/>
    </g>
  </g>
</svg>
