<svg id="home_black_24dp" xmlns="http://www.w3.org/2000/svg" xmlns:xlink="http://www.w3.org/1999/xlink" width="26.918" height="26.918" viewBox="0 0 26.918 26.918">
  <defs>
    <clipPath id="clip-path">
      <rect id="Rectangle_78704" data-name="Rectangle 78704" width="25.993" height="26.001" fill="none"/>
    </clipPath>
  </defs>
  <path id="Path_1" data-name="Path 1" d="M0,0H26.918V26.918H0Z" fill="none"/>
  <g id="Group_60161" data-name="Group 60161" transform="translate(0.463 0.525)">
    <g id="Group_60161-2" data-name="Group 60161" transform="translate(0 0)" clip-path="url(#clip-path)">
      <path id="Path_23898" data-name="Path 23898" d="M16.73,33.227a.26.26,0,0,0-.292-.286q-.234,0-.467,0h-.258c-.289,0-.36.071-.36.361v.511q0,1.193,0,2.386a1.477,1.477,0,0,1-.081.546.733.733,0,0,1-.5.483.963.963,0,0,1-.837-.184.986.986,0,0,1-.4-.768v-.158q0-1.425,0-2.852a.286.286,0,0,0-.328-.327c-.233.009-.466.006-.7,0h-.064a.318.318,0,0,0-.216.074.286.286,0,0,0-.078.212c0,.142,0,.286-.008.429,0,.195-.01.39-.009.585,0,.485.007.97.012,1.455l.007.67a1.532,1.532,0,0,0,.062.422,2.393,2.393,0,0,0,1.476,1.668l-.247.17h1.693l-.008-.09a2.187,2.187,0,0,0,1.59-2.094c.03-.729.023-1.47.017-2.187,0-.343,0-.686,0-1.029" transform="translate(-4.65 -12.626)"/>
      <path id="Path_23899" data-name="Path 23899" d="M27.149,33.242a.308.308,0,0,0-.08-.225.32.32,0,0,0-.231-.076c-.157,0-.314,0-.472,0h-.238c-.294,0-.362.068-.362.367v.869c0,.723,0,1.446,0,2.168a.832.832,0,0,1-.427.82.865.865,0,0,1-.945-.1.97.97,0,0,1-.449-.852c0-.737,0-1.473,0-2.211v-.715a.362.362,0,0,0-.07-.279.349.349,0,0,0-.272-.07h-.22c-.156,0-.314,0-.472,0a.3.3,0,0,0-.345.341c0,.453,0,.905,0,1.358,0,.527,0,1.055,0,1.581A2.35,2.35,0,0,0,23.626,38.2a2.181,2.181,0,0,0,.439.242l-.316.179h2.417l-.363-.17a1.691,1.691,0,0,0,.225-.116,2.264,2.264,0,0,0,1.11-1.957c.02-.7.017-1.413.013-2.1,0-.347,0-.694,0-1.04" transform="translate(-8.65 -12.626)"/>
      <path id="Path_23900" data-name="Path 23900" d="M5.349,15.418q-.436,0-.873,0H4.038c-.181,0-.361,0-.541,0-.4,0-.807.007-1.207-.007a.931.931,0,0,1-.827-.458.763.763,0,0,1,.049-.842A.846.846,0,0,1,2.3,13.7c1.027.019,2.056.01,3.083.017a.3.3,0,0,0,.231-.08.313.313,0,0,0,.076-.237c-.006-.249-.007-.5,0-.747a.339.339,0,0,0-.08-.257.279.279,0,0,0-.252-.087c-.389,0-.778,0-1.166,0-.6,0-1.2,0-1.8,0a2.379,2.379,0,0,0-1.513.559,2.315,2.315,0,0,0-.688.89L0,13.254v2.3l.137-.2a1.06,1.06,0,0,0,.058.142A2.23,2.23,0,0,0,2.21,16.788c.467.018.938.024,1.4.024.255,0,.507,0,.756,0s.506,0,.759,0c.181,0,.383.029.483-.072a.281.281,0,0,0,.072-.213v-.148c0-.205,0-.41,0-.615a.326.326,0,0,0-.079-.253.338.338,0,0,0-.259-.088" transform="translate(0 -4.717)"/>
      <path id="Path_23901" data-name="Path 23901" d="M5.345,25.824c-.62,0-1.241,0-1.861,0H2.42a1.7,1.7,0,0,1-.312-.027.845.845,0,0,1-.74-.813.89.89,0,0,1,.894-.887c.713,0,1.425,0,2.138,0h.915c.3,0,.369-.07.369-.375v-.642c0-.29-.072-.361-.362-.361l-.794,0c-.7,0-1.431-.006-2.148.008A2.394,2.394,0,0,0,.468,23.7a1.992,1.992,0,0,0-.339.615L0,24.129v1.32l.009.253L.1,25.653a1.042,1.042,0,0,0,.074.217,2.182,2.182,0,0,0,1.979,1.323c.445.021.894.027,1.339.027.292,0,.582,0,.868,0s.58,0,.87,0a.537.537,0,0,0,.38-.081.312.312,0,0,0,.076-.23c-.006-.241-.01-.49,0-.731a.333.333,0,0,0-.076-.256.344.344,0,0,0-.266-.088" transform="translate(0 -8.708)"/>
      <path id="Path_23902" data-name="Path 23902" d="M23.2,10.408H19.46q-4.367,0-8.731,0h0a.331.331,0,0,0-.243.083.345.345,0,0,0-.084.255q0,5.6,0,11.2v1.188a.578.578,0,0,1,0,.109.3.3,0,0,0,.052.25.314.314,0,0,0,.247.091h0q2.564,0,5.126,0h7.39c.275,0,.346-.072.346-.345V10.767c0-.288-.072-.358-.363-.358M22.19,11.82q0,3.864,0,7.727v2.622H11.781V11.85c0-.017,0-.041,0-.062h2.641q3.869,0,7.739,0h.027c0,.009,0,.021,0,.037" transform="translate(-3.984 -3.988)"/>
      <path id="Path_23903" data-name="Path 23903" d="M22.568,4.221c0,.375,0,.75,0,1.125a.349.349,0,0,0,.087.268.313.313,0,0,0,.223.077h.035c.149-.009.3-.007.45,0h.212c.138,0,.229,0,.3-.073s.073-.163.072-.3v-1q0-.934,0-1.87a1.243,1.243,0,0,1,.178-.693.731.731,0,0,1,.7-.376,1.016,1.016,0,0,1,.947.99V5.346c0,.271.071.341.345.341h.232c.158,0,.318,0,.475,0a.29.29,0,0,0,.332-.329q0-.94,0-1.879V2.393a2.362,2.362,0,0,0-.44-1.37A2.286,2.286,0,0,0,24,.144a2.286,2.286,0,0,0-1.428,2.073c-.017.358-.012.72-.008,1.071,0,.159,0,.318,0,.477Z" transform="translate(-8.647 0)"/>
      <path id="Path_23904" data-name="Path 23904" d="M12.161,3.785h0V4.2c0,.384,0,.768,0,1.153a.3.3,0,0,0,.34.339c.24-.011.476-.01.7,0h.031a.319.319,0,0,0,.227-.078.349.349,0,0,0,.086-.265c0-.641,0-1.281,0-1.921V2.369a1.285,1.285,0,0,1,.027-.278A.932.932,0,0,1,14,1.468a.789.789,0,0,1,.662-.039,1.013,1.013,0,0,1,.7.944c0,.639,0,1.278,0,1.917v.921c0,.052,0,.1,0,.19a.281.281,0,0,0,.308.29q.241-.006.48,0h.244c.272,0,.343-.07.343-.344l0-.86c0-.664,0-1.328,0-1.993a2.575,2.575,0,0,0-.5-1.543,2.3,2.3,0,0,0-2.87-.7A2.227,2.227,0,0,0,12.166,2.25c-.019.355-.014.715-.009,1.062,0,.158,0,.315,0,.473" transform="translate(-4.658 -0.002)"/>
      <path id="Path_23905" data-name="Path 23905" d="M38.494,24.045a2.209,2.209,0,0,0-2.087-1.465c-.72-.033-1.452-.027-2.159-.019-.3,0-.6.006-.893.006-.1,0-.232-.038-.346.078a.3.3,0,0,0-.073.219c0,.166,0,.331,0,.5v.227c0,.287.071.357.363.357l2.869,0h.011a1.708,1.708,0,0,1,.508.063.761.761,0,0,1,.566.752,1.028,1.028,0,0,1-.323.722,1.094,1.094,0,0,1-.712.293c-.64-.017-1.288-.014-1.917-.012-.347,0-.693,0-1.04,0h0a.285.285,0,0,0-.323.328c.009.228.009.461,0,.717a.339.339,0,0,0,.079.257.352.352,0,0,0,.253.084c.376,0,.752,0,1.128,0h.286l.566,0c.308,0,.616,0,.924.006h.075a2.4,2.4,0,0,0,2.247-3.107" transform="translate(-12.624 -8.646)"/>
      <path id="Path_23906" data-name="Path 23906" d="M33.276,13.543c.652,0,1.3,0,1.959,0h.98a1.477,1.477,0,0,1,.283.026.887.887,0,0,1,.206,1.7,1.185,1.185,0,0,1-.548.1q-1.434,0-2.869,0c-.274,0-.349.074-.35.343v.231c0,.16,0,.318,0,.477a.33.33,0,0,0,.076.245.338.338,0,0,0,.252.084c.38-.006.759,0,1.14,0h.429l.4,0c.3,0,.6-.006.894.006h.1a2.367,2.367,0,0,0,1.566-.6,2.292,2.292,0,0,0,.637-2.677,2.188,2.188,0,0,0-2-1.289c-.723-.033-1.458-.027-2.17-.02-.293,0-.586.006-.879.006a.5.5,0,0,0-.355.083.319.319,0,0,0-.077.24c.006.239.01.479,0,.717a.339.339,0,0,0,.076.258.364.364,0,0,0,.265.088" transform="translate(-12.624 -4.657)"/>
      <path id="Path_23907" data-name="Path 23907" d="M19.01,15.634h-.031a3.38,3.38,0,0,0-2.375,5.76,3.278,3.278,0,0,0,2.343.958h.032a3.389,3.389,0,0,0,2.419-.985A3.308,3.308,0,0,0,22.346,19a3.311,3.311,0,0,0-3.335-3.362m-.019,1.38a1.98,1.98,0,1,1,0,3.96h0a1.992,1.992,0,0,1-1.412-3.387,1.988,1.988,0,0,1,1.411-.573Z" transform="translate(-5.989 -5.993)"/>
    </g>
  </g>
</svg>
