<svg id="home_black_24dp" xmlns="http://www.w3.org/2000/svg" xmlns:xlink="http://www.w3.org/1999/xlink" width="26.918" height="26.918" viewBox="0 0 26.918 26.918">
  <defs>
    <clipPath id="clip-path">
      <rect id="Rectangle_78713" data-name="Rectangle 78713" width="24.649" height="24.584" fill="none"/>
    </clipPath>
  </defs>
  <path id="Path_1" data-name="Path 1" d="M0,0H26.918V26.918H0Z" fill="none"/>
  <g id="Group_60171" data-name="Group 60171" transform="translate(1.134 1.167)">
    <g id="Group_60171-2" data-name="Group 60171" transform="translate(0 0)" clip-path="url(#clip-path)">
      <path id="Path_23940" data-name="Path 23940" d="M24.631,21.215c0-.371,0-.742-.012-1.113-.017-.47-.021-.942-.023-1.413,0-.449-.006-.9-.021-1.348s-.008-.919,0-1.391a1.408,1.408,0,0,0-.62-1.2,2.953,2.953,0,0,0-.591-.334,8.083,8.083,0,0,0-2.492-.556l-.072-.007c0-.015,0-.036,0-.064V11.123a1.136,1.136,0,0,0,1.514-1.109V9.188c0-.511,0-1.022,0-1.533a1.222,1.222,0,0,0-.6-1.1l-3.75-2.4c-.194-.126-.388-.253-.588-.368A.73.73,0,0,0,16.568,5c.062.049.127.093.193.135l.263.169q1.89,1.215,3.78,2.426c.032.021.04.03.04.077q0,.522,0,1.042v.59L15.126,5.762Q13.482,4.7,11.838,3.645a1.2,1.2,0,0,0-1.4.017Q8.9,4.663,7.35,5.654L1.47,9.43V9.082c0-.392,0-.785,0-1.177A.231.231,0,0,1,1.6,7.657c.767-.483,1.531-.974,2.293-1.464l.321-.207Q7.65,3.776,11.085,1.56c.057-.037.066-.034.115,0,.253.169.51.332.767.495l.45.288c.3.191.592.382.9.56a.709.709,0,0,0,.629.051.736.736,0,0,0,.1-1.311c-.293-.192-.588-.382-.883-.571C12.728.793,12.3.517,11.876.237a1.228,1.228,0,0,0-1.444,0q-1.237.8-2.479,1.6L1.768,5.8c-.421.271-.842.541-1.259.817A1.1,1.1,0,0,0,0,7.605c.009.558.008,1.116.005,1.674v.752a1.161,1.161,0,0,0,.344.86,1.171,1.171,0,0,0,.886.289l.092-.005c0,.028,0,.062,0,.094l0,9.728a1.586,1.586,0,0,0,.054.431,1.115,1.115,0,0,0,1.163.812l12.324,0h.186c0,.023,0,.05,0,.076v.1a1.427,1.427,0,0,0,.453,1.072,3,3,0,0,0,1.113.625,9.924,9.924,0,0,0,3.241.474h.083a11.194,11.194,0,0,0,2.246-.223,5.259,5.259,0,0,0,1.709-.624,1.41,1.41,0,0,0,.752-1.33c-.017-.4-.016-.8-.016-1.193m-9.64-3.407c.011.454.023.908.023,1.362v.187c0,.428,0,.871.039,1.331,0,.021,0,.044.005.064a1.106,1.106,0,0,1-.111.005c-.775.008-1.551,0-2.324.008-.125,0-.251,0-.378,0l-.279,0h-.037a.324.324,0,0,1,0-.05q.005-2.279,0-4.556V14.371c0-.626-.278-.906-.9-.909q-1.651,0-3.3,0H7.609c-.5,0-1.007,0-1.51.021a.727.727,0,0,0-.758.8c0,.189,0,.377,0,.567v5.79l0,.059c0,.021,0,.043,0,.068l-1.646,0h-.9q0-.433,0-.865V14.5q0-2,0-4A.2.2,0,0,1,2.9,10.3Q5.6,8.565,8.3,6.83L9.872,5.818c.4-.26.81-.52,1.212-.785.059-.038.074-.039.133,0q2.632,1.7,5.267,3.392l.938.6c.61.392,1.221.786,1.833,1.174a.123.123,0,0,1,.075.127q-.005,1.737,0,3.474v.021l-.049,0a8.56,8.56,0,0,0-3.025.554,2.318,2.318,0,0,0-1.014.71,1.346,1.346,0,0,0-.27.842c-.013.627,0,1.262.017,1.876m7.7-1.844a7.114,7.114,0,0,1-1.81.392,8.456,8.456,0,0,1-.921.039h-.189a8.678,8.678,0,0,1-2.657-.344,2.819,2.819,0,0,1-.5-.2,4.082,4.082,0,0,1,1.29-.4,10.988,10.988,0,0,1,4,.049,3.665,3.665,0,0,1,.99.327l.048.026a2.677,2.677,0,0,1-.25.117m-6.252,1.415a9.385,9.385,0,0,0,2.79.487,11.538,11.538,0,0,0,2.754-.18,6.671,6.671,0,0,0,1.116-.3.477.477,0,0,0,.008.092c.037.19,0,.316-.3.448a5.574,5.574,0,0,1-1.451.378,7.4,7.4,0,0,1-1.4.113h-.01A8.822,8.822,0,0,1,16.926,18c-.052-.018-.1-.04-.155-.064-.336-.16-.386-.222-.332-.556m.044,2.459a1.857,1.857,0,0,0,.008-.388l0-.042a10.834,10.834,0,0,0,4.265.444,8.361,8.361,0,0,0,2.384-.469c0,.06,0,.12,0,.18v.159a.737.737,0,0,0,.006.176c.025.138,0,.231-.224.335a5.692,5.692,0,0,1-1.7.439,10.773,10.773,0,0,1-2.2.061,6.979,6.979,0,0,1-2.272-.476c-.221-.1-.291-.208-.26-.418m1.394,2.249a12.152,12.152,0,0,0,4.678-.161,4.822,4.822,0,0,0,.565-.18l.057-.019c-.006.206-.008.414,0,.619,0,.077-.014.12-.119.178a4.378,4.378,0,0,1-1.4.435,9.257,9.257,0,0,1-1.812.143h0a9.14,9.14,0,0,1-2.595-.335,2.883,2.883,0,0,1-.642-.275c-.057-.033-.063-.057-.063-.1,0-.211,0-.422-.008-.64a7.185,7.185,0,0,0,1.343.332M6.83,14.982V14.95H6.86q1.378.007,2.754,0h.843c0,.021,0,.044,0,.055v5.741h-.048q-.379,0-.759.008c-.316,0-.633.008-.949.008s-.6,0-.9-.008-.577-.007-.865-.007h-.1c0-.009,0-.022,0-.038q.006-2.865,0-5.73" transform="translate(0 0)" fill="#00355A"/>
    </g>
  </g>
</svg>
