<svg id="insert_chart_black_24dp" xmlns="http://www.w3.org/2000/svg" xmlns:xlink="http://www.w3.org/1999/xlink" width="28" height="28" viewBox="0 0 28 28">
  <defs>
    <clipPath id="clip-path">
      <rect id="Rectangle_78568" data-name="Rectangle 78568" width="27.293" height="23.588" fill="#0b694c"/>
    </clipPath>
  </defs>
  <path id="Path_4" data-name="Path 4" d="M0,0H28V28H0Z" fill="none"/>
  <g id="Group_59862" data-name="Group 59862" transform="translate(0.707 2.206)">
    <g id="Group_59862-2" data-name="Group 59862" transform="translate(0 0)" clip-path="url(#clip-path)">
      <path id="Path_22038" data-name="Path 22038" d="M25.772,14.714c-2.855,0-4.48-3.339-4.549-3.485a4.874,4.874,0,1,1,9.142-.932l-.019.068a6.148,6.148,0,0,1-4.219,4.325l-.141.018c-.072,0-.143.006-.213.006m-.141-8.539c-.091,0-.182,0-.275.013a2.97,2.97,0,0,0-2.422,4.231c.009.018,1.206,2.4,2.845,2.4h.016a4.367,4.367,0,0,0,2.737-3,2.973,2.973,0,0,0-2.9-3.645m3.814,3.9h0Z" transform="translate(-7.655 -1.58)" fill="#0b694c"/>
      <path id="Path_22039" data-name="Path 22039" d="M30.545,31.986H15.33A1.762,1.762,0,0,1,14,31.379a1.722,1.722,0,0,1-.408-1.37c.584-4.127,4.6-7.239,9.346-7.239s8.761,3.112,9.344,7.239a1.722,1.722,0,0,1-.408,1.37,1.761,1.761,0,0,1-1.331.607M15.5,30.093H30.379c-.546-3.108-3.707-5.429-7.441-5.429s-6.9,2.321-7.443,5.429" transform="translate(-5.007 -8.399)" fill="#0b694c"/>
      <path id="Path_22040" data-name="Path 22040" d="M9.827,9.162c-2.517,0-3.938-2.919-4-3.047a4.288,4.288,0,1,1,8.045-.821l-.019.068a5.378,5.378,0,0,1-3.7,3.775l-.141.019c-.064,0-.127.006-.19.006M9.709,1.895c-.074,0-.148,0-.223.01a2.4,2.4,0,0,0-2.166,2.6,2.371,2.371,0,0,0,.219.8c.006.013.984,1.956,2.286,1.963a3.6,3.6,0,0,0,2.214-2.45,2.393,2.393,0,0,0-2.33-2.923m3.243,3.177h0Z" transform="translate(-1.998 0)" fill="#0b694c"/>
      <path id="Path_22041" data-name="Path 22041" d="M.947,23.334a.936.936,0,0,1-.321-.056.946.946,0,0,1-.57-1.211,8.676,8.676,0,0,1,8.229-5.588A8.823,8.823,0,0,1,15.811,20.6a.946.946,0,1,1-1.616.986,6.92,6.92,0,0,0-5.91-3.216,6.779,6.779,0,0,0-6.447,4.336.946.946,0,0,1-.891.626" transform="translate(0 -6.078)" fill="#0b694c"/>
    </g>
  </g>
</svg>
