<svg id="home_black_24dp" xmlns="http://www.w3.org/2000/svg" xmlns:xlink="http://www.w3.org/1999/xlink" width="26.918" height="26.918" viewBox="0 0 26.918 26.918">
  <defs>
    <clipPath id="clip-path">
      <rect id="Rectangle_78582" data-name="Rectangle 78582" width="26.806" height="24.76" fill="#00A4DC"/>
    </clipPath>
  </defs>
  <path id="Path_1" data-name="Path 1" d="M0,0H26.918V26.918H0Z" fill="none"/>
  <g id="Group_59876" data-name="Group 59876" transform="translate(0 1.158)">
    <g id="Group_59876-2" data-name="Group 59876" transform="translate(0 0)" clip-path="url(#clip-path)">
      <path id="Path_22126" data-name="Path 22126" d="M22.7,34.985a2.117,2.117,0,0,1-1.217-.368,1.447,1.447,0,0,1-.637-1.176v-6.89a.9.9,0,1,1,1.8,0V33.18a.422.422,0,0,0,.185-.019l8.03-2.78V27.167a.9.9,0,0,1,1.8,0v3.454a1.565,1.565,0,0,1-1.133,1.435l-8.112,2.808a2.208,2.208,0,0,1-.725.12" transform="translate(-8.312 -10.225)" fill="#00A4DC"/>
      <path id="Path_22127" data-name="Path 22127" d="M25.28,27.983a1.521,1.521,0,0,1-1.036-.387L21.5,25.028a1.158,1.158,0,0,1-.349-1.135,1.292,1.292,0,0,1,.954-.918l8.706-2.358a1.572,1.572,0,0,1,1.4.28l2.573,2.135a1.167,1.167,0,0,1,.422,1.125,1.271,1.271,0,0,1-.89.957L25.778,27.9a1.6,1.6,0,0,1-.5.078m.218-.936h0Zm-.021-.769,0,0Zm-1.947-1.82L25.34,26.15l7.442-2.434-1.6-1.33Zm-.8-.747h0m8.325-1.426h0Z" transform="translate(-8.418 -8.196)" fill="#00A4DC"/>
      <path id="Path_22128" data-name="Path 22128" d="M14.02,34.957a2.3,2.3,0,0,1-.756-.126L5.276,32.065A1.6,1.6,0,0,1,4.116,30.6V27.167a.9.9,0,1,1,1.8,0v3.208l7.934,2.752a.531.531,0,0,0,.281.014V26.551a.9.9,0,1,1,1.8,0v6.816a1.485,1.485,0,0,1-.655,1.208,2.2,2.2,0,0,1-1.263.382" transform="translate(-1.641 -10.225)" fill="#00A4DC"/>
      <path id="Path_22129" data-name="Path 22129" d="M10,27.989a1.545,1.545,0,0,1-.482-.076h0L.88,25.088a1.232,1.232,0,0,1-.86-.927,1.139,1.139,0,0,1,.408-1.1L3.072,20.87A1.5,1.5,0,0,1,4.406,20.6l8.809,2.386a1.251,1.251,0,0,1,.921.89,1.13,1.13,0,0,1-.34,1.109l-2.813,2.631a1.441,1.441,0,0,1-.984.372M2.473,23.711l7.442,2.434,1.81-1.693L4.077,22.381Zm1.752-1.453,0,0Z" transform="translate(0 -8.192)" fill="#00A4DC"/>
      <path id="Path_22130" data-name="Path 22130" d="M11.373,17.867a.9.9,0,0,1-.847-.591,6.421,6.421,0,0,1,0-5.274,5.473,5.473,0,0,1,3.058-2.561,6.4,6.4,0,0,1,5.353-.064.9.9,0,1,1-.7,1.664,4.535,4.535,0,0,0-3.85.014l-.217.091a3.683,3.683,0,0,0-2.053,1.7,4.743,4.743,0,0,0,.1,3.808.9.9,0,0,1-.847,1.214" transform="translate(-3.971 -3.519)" fill="#00A4DC"/>
      <path id="Path_22131" data-name="Path 22131" d="M11.8,8.98A3.968,3.968,0,0,1,8.583,7.717a4.012,4.012,0,0,1-.723-3.206L8,3.858l.665-.06c2.577-.236,4.386,1.02,4.835,3.343a1.549,1.549,0,0,1-1.473,1.835c-.076,0-.152,0-.227,0m-2.2-3.4a1.76,1.76,0,0,0,.371.981,2.194,2.194,0,0,0,1.68.609A2.086,2.086,0,0,0,9.6,5.585" transform="translate(-3.103 -1.503)" fill="#00A4DC"/>
      <path id="Path_22132" data-name="Path 22132" d="M16.346,16.771a.885.885,0,0,1-.29-.048.9.9,0,0,1-.564-1.144c.256-.753,2.608-7.387,6.349-8.391a1.657,1.657,0,0,0,.738-.475l.877-1.263a.9.9,0,0,1,1.482,1.03l-.987,1.407a3.466,3.466,0,0,1-1.642,1.045c-2.394.642-4.5,5.435-5.108,7.228a.9.9,0,0,1-.854.612" transform="translate(-6.157 -2.018)" fill="#00A4DC"/>
      <path id="Path_22133" data-name="Path 22133" d="M34.086,6.843a1.336,1.336,0,0,1-.465-.084l-5.5-2.045A1.332,1.332,0,0,1,27.337,3L28.13.868A1.335,1.335,0,0,1,29.843.083l5.5,2.045a1.334,1.334,0,0,1,.784,1.714l-.794,2.133a1.334,1.334,0,0,1-1.248.868M29.192,3.187,33.807,4.9l.465-1.249L29.656,1.939Z" transform="translate(-10.864 0)" fill="#00A4DC"/>
      <path id="Path_22134" data-name="Path 22134" d="M36.849,16.309a.842.842,0,0,1-.109-.007.9.9,0,0,1-.787-1,4.635,4.635,0,0,0-.924-3.814,5.6,5.6,0,0,1-.6-1c-.094-.217-.34-.793.665-2.147A.9.9,0,0,1,36.541,9.41a4.3,4.3,0,0,0-.352.565c.085.145.2.3.318.477a6.368,6.368,0,0,1,1.236,5.062.9.9,0,0,1-.894.794" transform="translate(-13.686 -3.178)" fill="#00A4DC"/>
      <path id="Path_22135" data-name="Path 22135" d="M4.791,21.806a.9.9,0,0,1-.458-1.68L7.259,18.41a.9.9,0,0,1,.913,1.556L5.247,21.682a.9.9,0,0,1-.456.124" transform="translate(-1.55 -7.289)" fill="#00A4DC"/>
    </g>
  </g>
</svg>
