<svg id="home_black_24dp" xmlns="http://www.w3.org/2000/svg" xmlns:xlink="http://www.w3.org/1999/xlink" width="26.918" height="26.918" viewBox="0 0 26.918 26.918">
  <defs>
    <clipPath id="clip-path">
      <rect id="Rectangle_78712" data-name="Rectangle 78712" width="25.08" height="23.956" fill="#00A4DC"/>
    </clipPath>
  </defs>
  <path id="Path_1" data-name="Path 1" d="M0,0H26.918V26.918H0Z" fill="none"/>
  <g id="Group_60169" data-name="Group 60169" transform="translate(0.919 1.481)">
    <g id="Group_60170" data-name="Group 60170" transform="translate(0 0)" clip-path="url(#clip-path)">
      <path id="Path_23935" data-name="Path 23935" d="M33.65,20.3q-.565-1.735-1.127-3.471l-.8-2.45c-.062-.188-.121-.377-.181-.566l-.016-.049c-.168-.531-.342-1.08-.543-1.617a1.811,1.811,0,0,0-1.626-1.2,6.835,6.835,0,0,0-.763-.021h-.042c-.137,0-.264,0-.384,0h-.554c-.2,0-.378,0-.559,0a1.921,1.921,0,0,0-1.851,1.1,4.69,4.69,0,0,0-.263.714l-.064.2q-.787,2.427-1.571,4.854-.438,1.358-.874,2.718a1.258,1.258,0,0,0-.05.643,1.418,1.418,0,0,0,1.453,1.19h.3c.415,0,.83,0,1.25,0,.067.89.14,1.779.213,2.666l.045.551c.032.419.065.839.114,1.256a1.465,1.465,0,0,0,1.486,1.321q.43,0,.86,0c.263,0,.525,0,.787,0a1.494,1.494,0,0,0,1.516-1.471c.024-.44.062-.879.1-1.318l.11-1.335c.045-.553.09-1.107.135-1.669H31.3c.344,0,.687,0,1.03,0a1.4,1.4,0,0,0,1.354-.911A1.63,1.63,0,0,0,33.65,20.3m-1.354.574H29.977c-.428,0-.584.146-.617.577q-.069.884-.142,1.766l-.206,2.6-.048.644a.9.9,0,0,1-.032.209.743.743,0,0,1-.2.018c-.462,0-.93-.008-1.395-.019h-.059c-.034,0-.054,0-.064,0h0A.319.319,0,0,1,27.2,26.6c-.033-.37-.062-.741-.091-1.112l-.278-3.412c-.021-.243-.04-.485-.057-.729a.481.481,0,0,0-.521-.472c-.3,0-.6,0-.9,0h-1.5q.382-1.188.766-2.374l1.8-5.564a1.451,1.451,0,0,1,.124-.307.428.428,0,0,1,.388-.243q1.159,0,2.318,0a.505.505,0,0,1,.438.4q.236.723.467,1.448Z" transform="translate(-8.69 -4.244)" fill="#00A4DC"/>
      <path id="Path_23936" data-name="Path 23936" d="M8.931,14.923c0-.673,0-1.345,0-2.017a1.858,1.858,0,0,0-1.811-1.961,17.577,17.577,0,0,0-1.772-.026l-.484.007c-.742.008-1.722.014-2.72,0a2.5,2.5,0,0,0-.549.04A1.865,1.865,0,0,0,0,12.895q0,1.585,0,3.17v2.418a3.716,3.716,0,0,0,.04.547,1.86,1.86,0,0,0,1.635,1.622q0,1.351,0,2.7l0,2.564c0,.081,0,.162-.006.245a4.224,4.224,0,0,0,.01.594,1.491,1.491,0,0,0,1.446,1.37c.469.007.918.01,1.353.01.457,0,.9,0,1.334-.011A1.383,1.383,0,0,0,7.1,27.289a1.776,1.776,0,0,0,.163-.785V23.615c0-.976,0-1.954,0-2.964a1.711,1.711,0,0,0,.863-.33,1.983,1.983,0,0,0,.807-1.659c.011-.671.009-1.343.006-2.016l0-.845ZM5.815,26.35V26.4c0,.039,0,.076,0,.115-.014.168-.017.172-.17.163-.326-.016-.654-.02-.979-.02l-.518,0c-.243,0-.485,0-.729,0a1.238,1.238,0,0,1-.282-.018,1.027,1.027,0,0,1-.02-.278V19.8a.569.569,0,0,0-.131-.455.6.6,0,0,0-.467-.123l-.157,0a2.522,2.522,0,0,1-.477-.015.452.452,0,0,1-.412-.445c0-.02,0-.04,0-.06V17.268q0-2.209,0-4.417c0-.3.193-.468.526-.47q.96-.006,1.919,0H5.546c.465,0,.929,0,1.393,0a.51.51,0,0,1,.509.334.784.784,0,0,1,.01.177v.968q0,2.418,0,4.834a.469.469,0,0,1-.52.526,4.883,4.883,0,0,1-.574-.008.529.529,0,0,0-.41.131.49.49,0,0,0-.14.391Z" transform="translate(0 -4.239)" fill="#00A4DC"/>
      <path id="Path_23937" data-name="Path 23937" d="M19.764.611c0-.456-.155-.611-.617-.611h-.09a.756.756,0,0,0-.583.15c-.152.152-.152.333-.152.607l0,12.864q0,4.911,0,9.822a.5.5,0,0,0,.137.371.493.493,0,0,0,.364.135h.133c.08,0,.159,0,.234,0l.054,0a.519.519,0,0,0,.369-.134.581.581,0,0,0,.161-.435q0-9.9,0-19.805Z" transform="translate(-7.117 0)" fill="#00A4DC"/>
      <path id="Path_23938" data-name="Path 23938" d="M29.631,6.524h.007a3.213,3.213,0,0,0,3.235-3.229,3.132,3.132,0,0,0-.926-2.24,3.216,3.216,0,1,0-4.574,4.521,3.168,3.168,0,0,0,2.258.948M27.907,3.3a1.715,1.715,0,0,1,.5-1.23,1.751,1.751,0,0,1,1.251-.523h.009a1.722,1.722,0,0,1,1.221.5,1.81,1.81,0,0,1,.526,1.291,1.738,1.738,0,0,1-.536,1.226,1.72,1.72,0,0,1-1.255.5A1.756,1.756,0,0,1,27.907,3.3" transform="translate(-10.274 -0.038)" fill="#00A4DC"/>
      <path id="Path_23939" data-name="Path 23939" d="M5.267,6.522h.027A3.191,3.191,0,0,0,8.477,3.272,3.213,3.213,0,0,0,5.273.1H5.252a3.189,3.189,0,0,0-3.2,3.3A3.181,3.181,0,0,0,5.267,6.522M3.512,3.31A1.731,1.731,0,0,1,5.259,1.549a1.743,1.743,0,0,1,1.277.542A1.768,1.768,0,0,1,5.279,5.066a1.683,1.683,0,0,1-1.272-.533A1.673,1.673,0,0,1,3.512,3.31" transform="translate(-0.796 -0.038)" fill="#00A4DC"/>
    </g>
  </g>
</svg>
