<svg id="insert_chart_black_24dp" xmlns="http://www.w3.org/2000/svg" xmlns:xlink="http://www.w3.org/1999/xlink" width="28" height="28.379" viewBox="0 0 28 28.379">
  <defs>
    <clipPath id="clip-path">
      <rect id="Rectangle_78566" data-name="Rectangle 78566" width="23.742" height="28.378" fill="none"/>
    </clipPath>
  </defs>
  <path id="Path_4" data-name="Path 4" d="M0,0H28V28H0Z" fill="none"/>
  <g id="Group_59860" data-name="Group 59860" transform="translate(0.963 0.001)">
    <g id="Group_59860-2" data-name="Group 59860" transform="translate(0 0)" clip-path="url(#clip-path)">
      <path id="Path_22027" data-name="Path 22027" d="M16.926,29.754c-4.917,0-9.23-3.162-9.23-6.767,0-3.214,3.547-5.21,9.257-5.21,5.728,0,9.43,2.045,9.43,5.21,0,3.541-4.507,6.767-9.457,6.767m.028-10.007c-3.627,0-7.287,1-7.287,3.24,0,2.218,3.171,4.8,7.259,4.8,4.147,0,7.487-2.624,7.487-4.8,0-1.908-3.067-3.24-7.459-3.24" transform="translate(-2.641 -6.1)"/>
      <path id="Path_22028" data-name="Path 22028" d="M19.978,26.393c-2.561,0-3.559-.392-3.559-1.4,0-1.232,1.531-1.331,3.532-1.331,2.032,0,3.586.1,3.586,1.331,0,1.006-1,1.4-3.559,1.4m2.066-.61h0Z" transform="translate(-5.634 -8.12)"/>
      <path id="Path_22029" data-name="Path 22029" d="M23.326,14.438a1.045,1.045,0,0,1-.179-.016.986.986,0,0,1-.791-1.148l.288-1.568c.119-.647.28-1.343.492-2.127.3-1.113.874-3.9-.308-5.716A4.234,4.234,0,0,0,19.7,2.106c-2.373-.367-4.174.02-5.353,1.151a5.051,5.051,0,0,0-1.441,3.781c.169,1.527,1.075,5.939,1.084,5.984a.985.985,0,0,1-1.93.4c-.038-.185-.934-4.548-1.113-6.164a6.983,6.983,0,0,1,2.036-5.421C14.633.257,16.994-.308,20,.158A6.164,6.164,0,0,1,24.48,2.79c1.557,2.394,1.018,5.6.558,7.3-.2.731-.347,1.375-.456,1.969l-.288,1.567a.986.986,0,0,1-.968.807" transform="translate(-3.749 0)"/>
      <path id="Path_22030" data-name="Path 22030" d="M14.051,39.273a.985.985,0,0,1-.881-1.426,39.661,39.661,0,0,0,.476-5.159.985.985,0,0,1,1.969.093c-.11,2.312-.318,5.219-.681,5.947a.986.986,0,0,1-.882.545" transform="translate(-4.484 -10.894)"/>
      <path id="Path_22031" data-name="Path 22031" d="M28.044,39.227a.986.986,0,0,1-.758-.354c-.192-.231-.482-.579-1-5.776a.985.985,0,0,1,1.961-.2,48.409,48.409,0,0,0,.661,4.861.985.985,0,0,1-.859,1.466M28.8,37.61h0" transform="translate(-9.017 -10.984)"/>
      <path id="Path_22032" data-name="Path 22032" d="M5.985,27.476h-5a.985.985,0,0,1,0-1.971h5a.985.985,0,1,1,0,1.971" transform="translate(0 -8.752)"/>
    </g>
  </g>
</svg>
