<svg id="home_black_24dp" xmlns="http://www.w3.org/2000/svg" xmlns:xlink="http://www.w3.org/1999/xlink" width="26.918" height="26.918" viewBox="0 0 26.918 26.918">
  <defs>
    <clipPath id="clip-path">
      <rect id="Rectangle_78581" data-name="Rectangle 78581" width="23.855" height="23.848" fill="#00355A"/>
    </clipPath>
  </defs>
  <path id="Path_1" data-name="Path 1" d="M0,0H26.918V26.918H0Z" fill="none"/>
  <g id="Group_59875" data-name="Group 59875" transform="translate(1.531 2.07)">
    <g id="Group_59875-2" data-name="Group 59875" transform="translate(0 0)" clip-path="url(#clip-path)">
      <path id="Path_22124" data-name="Path 22124" d="M23.839,6.177A1.191,1.191,0,0,0,23.2,5.5Q19.213,3.509,15.23,1.516L12.491.146C12.429.115,12.365.088,12.3.06L12.219.025,11.767,0l-.205.063c-.073.032-.146.064-.218.1L.636,5.517l-.092.047A1,1,0,0,0,0,6.476C0,7.487,0,8.5,0,9.509v2.719q0,2.545,0,5.09a1.044,1.044,0,0,0,.619,1q5.4,2.7,10.8,5.4a1.1,1.1,0,0,0,1.034,0q5.394-2.7,10.789-5.394a1.145,1.145,0,0,0,.6-.658l.017-11.392ZM12.588,17.187c-.255-.125-.506-.258-.757-.392l-.286-.152a.591.591,0,0,0-.27-.087.312.312,0,0,0-.165.046.415.415,0,0,0-.166.4v4.272L6.561,19.08c-1.522-.761-3.044-1.523-4.591-2.312q.006-1.912,0-3.824V10.856c0-1.261,0-2.522.021-3.816C5.3,5.392,8.6,3.741,11.959,2.084q3.552,1.78,7.106,3.556l1.611.8-5.036,2.5-.065.033a.338.338,0,0,0,0,.627l.491.26c.261.137.523.274.781.414a.532.532,0,0,0,.525.006q1.917-.956,3.837-1.908l.678-.336V9.366q0,3.708,0,7.426-4,1.995-8,4l-.968.484v-.624c0-.967,0-1.934,0-2.9a.566.566,0,0,0-.338-.56m3.275-7.76.029.035a.171.171,0,0,1-.051.045l-.063-.125.085.046m6.322-1.65Z" transform="translate(0 0)" fill="#00355A"/>
      <path id="Path_22125" data-name="Path 22125" d="M10.473,11.1A3.554,3.554,0,0,1,14,14.193a3.449,3.449,0,0,1,.036.472.207.207,0,0,0,.136.208q1.262.645,2.52,1.3,1.75.9,3.5,1.807a.511.511,0,0,0,.315.06,1.954,1.954,0,1,1,.086,3.893,1.875,1.875,0,0,1-1.6-1.036.441.441,0,0,0-.2-.194q-2.119-1.091-4.237-2.185c-.6-.31-1.2-.619-1.8-.933a.233.233,0,0,0-.278.013,3.557,3.557,0,0,1-5.487-2.187A2.942,2.942,0,0,1,6.929,14.4c.026-.2.118-.25.3-.154q1,.525,2.006,1.052c.192.1.386.2.577.3A.162.162,0,0,0,10,15.591c.306-.2.613-.391.923-.582a.181.181,0,0,0,.091-.187c-.018-.347-.035-.695-.043-1.042a.2.2,0,0,0-.124-.2c-.842-.438-1.681-.88-2.521-1.32a.766.766,0,0,1-.113-.065c-.1-.078-.1-.194.018-.289a3.465,3.465,0,0,1,1.025-.585,3.535,3.535,0,0,1,1.219-.217m9.4,8.878a.843.843,0,0,0,.851.851.858.858,0,0,0,.841-.855.845.845,0,0,0-.852-.839.829.829,0,0,0-.84.843" transform="translate(-2.862 -4.598)" fill="#00355A"/>
    </g>
  </g>
</svg>
