<svg id="insert_chart_black_24dp" xmlns="http://www.w3.org/2000/svg" xmlns:xlink="http://www.w3.org/1999/xlink" width="28" height="28" viewBox="0 0 28 28">
  <defs>
    <clipPath id="clip-path">
      <rect id="Rectangle_78564" data-name="Rectangle 78564" width="20.925" height="24.027" fill="none"/>
    </clipPath>
  </defs>
  <path id="Path_4" data-name="Path 4" d="M0,0H28V28H0Z" fill="none"/>
  <g id="Group_59858" data-name="Group 59858" transform="translate(3 1.986)">
    <g id="Group_59858-2" data-name="Group 59858" transform="translate(0 0)" clip-path="url(#clip-path)">
      <path id="Path_22021" data-name="Path 22021" d="M17.937,24.333H2.987A2.934,2.934,0,0,1,0,21.461V3.178A2.8,2.8,0,0,1,.893,1.129.915.915,0,1,1,2.15,2.46a.986.986,0,0,0-.32.718V21.461A1.1,1.1,0,0,0,2.987,22.5h14.95a1.1,1.1,0,0,0,1.157-1.042V3.178a.989.989,0,0,0-.378-.77A.915.915,0,1,1,19.877.994a2.822,2.822,0,0,1,1.048,2.184V21.461a2.934,2.934,0,0,1-2.987,2.872" transform="translate(0 -0.306)"/>
      <path id="Path_22022" data-name="Path 22022" d="M15.569,15.5H10.742A4.356,4.356,0,0,1,6.391,11.15V0H19.92V11.15A4.356,4.356,0,0,1,15.569,15.5M8.221,1.83V11.15a2.524,2.524,0,0,0,2.521,2.521h4.827A2.524,2.524,0,0,0,18.09,11.15V1.83Z" transform="translate(-2.492 0)"/>
      <path id="Path_22023" data-name="Path 22023" d="M18.179,7.548a1.945,1.945,0,0,1-3.883,0,1.945,1.945,0,0,1,3.883,0" transform="translate(-5.573 -2.228)"/>
      <rect id="Rectangle_78561" data-name="Rectangle 78561" width="1.83" height="1.968" transform="translate(4.673 20.151)"/>
      <rect id="Rectangle_78562" data-name="Rectangle 78562" width="1.83" height="1.968" transform="translate(9.581 20.151)"/>
      <rect id="Rectangle_78563" data-name="Rectangle 78563" width="1.83" height="1.968" transform="translate(14.422 20.151)"/>
    </g>
  </g>
</svg>
