<svg id="home_black_24dp" xmlns="http://www.w3.org/2000/svg" width="26.918" height="26.918" viewBox="0 0 26.918 26.918">
  <path id="Path_1" data-name="Path 1" d="M0,0H26.918V26.918H0Z" fill="#0000"/>
  <g id="Group_60164" data-name="Group 60164" transform="translate(1.51 0.822)">
    <g id="Group_60166" data-name="Group 60166" transform="translate(0 0)">
      <path id="Path_23914" data-name="Path 23914" d="M8.036,35.365a17.377,17.377,0,0,1-4.842-.607A6.951,6.951,0,0,1,.733,33.545a3.589,3.589,0,0,1-.6-.624A.689.689,0,0,1,0,32.5,18.651,18.651,0,0,1,.29,28.473a4.349,4.349,0,0,1,1.153-2.268,4.874,4.874,0,0,1,1.791-1.1,17.553,17.553,0,0,1,2.313-.622.829.829,0,0,1,1.007.283,1.445,1.445,0,0,0,.973.437,2.905,2.905,0,0,0,1.7-.184,1.4,1.4,0,0,0,.586-.478.266.266,0,0,1,.283-.145,14.835,14.835,0,0,1,3.091.823,4.275,4.275,0,0,1,2.007,1.589,5.376,5.376,0,0,1,.752,2.132,23.017,23.017,0,0,1,.208,3.355,1.215,1.215,0,0,1-.365.9,5.63,5.63,0,0,1-2.215,1.355,13,13,0,0,1-3.2.694,22.973,22.973,0,0,1-2.333.118m.151-1.337c.419-.015.923,0,1.427-.036a14.294,14.294,0,0,0,3.1-.5,4.982,4.982,0,0,0,1.923-.982.513.513,0,0,0,.209-.434c-.019-.429-.021-.859-.042-1.289a10.722,10.722,0,0,0-.312-2.351,2.9,2.9,0,0,0-1.664-1.93,9.465,9.465,0,0,0-1.544-.525c-.439-.119-.9-.3-1.288.123A4.018,4.018,0,0,1,5.836,25.9a.379.379,0,0,0-.3-.062,11.766,11.766,0,0,0-1.863.513,3.071,3.071,0,0,0-2.079,2.32,19.819,19.819,0,0,0-.288,3.488A.429.429,0,0,0,1.5,32.5,5.026,5.026,0,0,0,3.61,33.543a16.775,16.775,0,0,0,4.577.485" transform="translate(0 -10.092)" stroke="#0b694c" stroke-width="0.5" fill="#0b694c"/>
      <path id="Path_23915" data-name="Path 23915" d="M10.492,5.511a5.475,5.475,0,0,1,2.076.32,3.326,3.326,0,0,1,2.083,2.081,7.58,7.58,0,0,1-.022,5.457,4.652,4.652,0,0,1-2.463,2.649,3.887,3.887,0,0,1-4.4-.726A5.475,5.475,0,0,1,5.951,11.5,8.515,8.515,0,0,1,6.23,8.345a3.7,3.7,0,0,1,3.4-2.791,5.6,5.6,0,0,1,.866-.043m3.29,5.423a8.775,8.775,0,0,0-.215-2.1,2.381,2.381,0,0,0-2.01-1.9,5.851,5.851,0,0,0-1.965-.022,2.366,2.366,0,0,0-2.1,1.868A7.456,7.456,0,0,0,7.352,11.9a4.088,4.088,0,0,0,1.162,2.279,2.717,2.717,0,0,0,2.559.808,3.041,3.041,0,0,0,1.92-1.37,4.618,4.618,0,0,0,.79-2.682" transform="translate(-2.446 -2.279)" stroke="#0b694c" stroke-width="0.5" fill="#0b694c"/>
      <path id="Path_23916" data-name="Path 23916" d="M30.337,4.441a5.116,5.116,0,0,1-1.1,3.365,3.521,3.521,0,0,1-5.65-.008,5.233,5.233,0,0,1-1.073-3.821,6.964,6.964,0,0,1,.252-1.567A3.179,3.179,0,0,1,25.646.051a5.643,5.643,0,0,1,2.1.107A3.059,3.059,0,0,1,29.983,2.17a7.089,7.089,0,0,1,.354,2.271m-6.5.277a3.579,3.579,0,0,0,.811,2.276,2.182,2.182,0,0,0,2.69.677,2.693,2.693,0,0,0,1.32-1.441,5.208,5.208,0,0,0,.062-3.63,1.618,1.618,0,0,0-1.164-1.107A4.327,4.327,0,0,0,25.6,1.414a1.822,1.822,0,0,0-1.568,1.427,7.491,7.491,0,0,0-.195,1.877" transform="translate(-9.307 0)" stroke="#0b694c" stroke-width="0.5" fill="#0b694c"/>
      <path id="Path_23917" data-name="Path 23917" d="M26.311,23.7a13.916,13.916,0,0,0,3.458-.359,4.924,4.924,0,0,0,1.637-.709A.6.6,0,0,0,31.7,22c-.053-.487-.019-.98-.067-1.469a6.085,6.085,0,0,0-.309-1.576,2.151,2.151,0,0,0-1.093-1.187,7.134,7.134,0,0,0-1.859-.586.412.412,0,0,0-.3.071,3.365,3.365,0,0,1-3.662,0,.455.455,0,0,0-.344-.064,7.078,7.078,0,0,0-1.854.6c-.039.02-.081.068-.126.026s-.006-.089.008-.132a6.391,6.391,0,0,0,.263-1.26.222.222,0,0,1,.182-.208,14.847,14.847,0,0,1,2.079-.482.179.179,0,0,1,.2.09c.44.763,1.865.74,2.444.383a1.553,1.553,0,0,0,.388-.378.2.2,0,0,1,.2-.1,11.577,11.577,0,0,1,2.738.733,3.677,3.677,0,0,1,2.23,2.907,17.048,17.048,0,0,1,.2,3.153.953.953,0,0,1-.307.659,4.767,4.767,0,0,1-1.809,1.141,12,12,0,0,1-3.608.686c-.477.028-.953.026-1.43.033-.169,0-.259-.051-.287-.227a5.569,5.569,0,0,0-.252-.892c-.077-.228-.074-.231.174-.231h.807" transform="translate(-9.128 -6.508)" stroke="#0b694c" stroke-width="0.5" fill="#0b694c"/>
    </g>
  </g>
</svg>
