<svg id="insert_chart_black_24dp" xmlns="http://www.w3.org/2000/svg" xmlns:xlink="http://www.w3.org/1999/xlink" width="28" height="28" viewBox="0 0 28 28">
  <defs>
    <clipPath id="clip-path">
      <rect id="Rectangle_78574" data-name="Rectangle 78574" width="19.764" height="24.951" fill="#0b694c"/>
    </clipPath>
  </defs>
  <path id="Path_4" data-name="Path 4" d="M0,0H28V28H0Z" fill="none"/>
  <g id="Group_59868" data-name="Group 59868" transform="translate(4.117 1.525)">
    <g id="Group_59868-2" data-name="Group 59868" transform="translate(0 0)" clip-path="url(#clip-path)">
      <path id="Path_22072" data-name="Path 22072" d="M.013,13.391c0-3.226.02-6.452-.012-9.678a1.828,1.828,0,0,1,1.881-1.89c.666.041,1.337,0,2.006.012.248.006.348-.077.378-.323A1.662,1.662,0,0,1,5.945.005Q9.928,0,13.912.006a1.657,1.657,0,0,1,1.661,1.461c.037.278.134.381.428.371.658-.023,1.317-.007,1.977-.007a1.6,1.6,0,0,1,1.778,1.759c.015.993,0,1.987,0,2.98q0,8.218,0,16.436a2.793,2.793,0,0,1-.125.9A1.433,1.433,0,0,1,18.2,24.95q-8.218,0-16.436,0A1.718,1.718,0,0,1,.015,23.188q-.006-4.9,0-9.8m1.812-.03v9.355c0,.422,0,.423.413.423H17.524c.381,0,.382,0,.382-.4q0-5.547,0-11.1c0-2.547,0-5.1,0-7.643,0-.284-.083-.377-.368-.366-.52.02-1.043.02-1.563,0-.26-.01-.364.076-.4.334A1.672,1.672,0,0,1,13.8,5.53q-3.88,0-7.761,0A2.174,2.174,0,0,1,5.6,5.5,1.665,1.665,0,0,1,4.267,4.028c-.032-.282-.119-.41-.435-.393-.54.03-1.082.007-1.623.008-.383,0-.384,0-.384.393v9.325M9.889,3.716c1.189,0,2.377-.006,3.566,0,.244,0,.329-.075.32-.32-.016-.412-.016-.826,0-1.237.009-.251-.093-.329-.329-.319-.3.012-.609,0-.914,0H6.461c-.388,0-.389,0-.389.4,0,.363.017.728-.006,1.09-.019.294.069.393.375.388,1.149-.017,2.3-.007,3.448-.007" transform="translate(0 0)" fill="#0b694c"/>
      <path id="Path_22073" data-name="Path 22073" d="M12.9,27.3h4.957c.375,0,.376,0,.376.384,0,.338-.014.676,0,1.013.014.258-.089.328-.333.328-1.652-.007-3.3,0-4.957,0H7.879c-.36,0-.367-.009-.368-.37,0-.337.013-.676,0-1.012-.014-.269.095-.343.35-.342,1.68.008,3.359,0,5.039,0" transform="translate(-2.866 -10.424)" fill="#0b694c"/>
      <path id="Path_22074" data-name="Path 22074" d="M14.692,31.349c.711,0,1.424.006,2.135,0,.207,0,.287.084.28.341-.012.412-.007.825,0,1.237,0,.2-.068.279-.23.279q-2.183,0-4.366,0c-.162,0-.232-.077-.23-.279.006-.422.007-.845,0-1.267,0-.23.07-.312.255-.31.719.007,1.44,0,2.159,0" transform="translate(-4.689 -11.97)" fill="#0b694c"/>
      <path id="Path_22075" data-name="Path 22075" d="M14.694,15.5a2.942,2.942,0,0,1-2.354-1.741,2.544,2.544,0,1,1,4.835-1.318h0a2.549,2.549,0,0,1-.061.828l-.019.067a3.1,3.1,0,0,1-2.139,2.142l-.137.019c-.042,0-.083,0-.125,0m-.053-3.517a.556.556,0,0,0-.064,0,.687.687,0,0,0-.561.98,1.478,1.478,0,0,0,.626.671,1.344,1.344,0,0,0,.676-.831.674.674,0,0,0,.011-.2.692.692,0,0,0-.687-.627" transform="translate(-4.619 -3.866)" fill="#0b694c"/>
      <path id="Path_22076" data-name="Path 22076" d="M16.6,22.772H10.337a1.263,1.263,0,0,1-.953-.435,1.247,1.247,0,0,1-.295-.991A4.283,4.283,0,0,1,13.47,17.9a4.283,4.283,0,0,1,4.382,3.444,1.246,1.246,0,0,1-.294.992,1.264,1.264,0,0,1-.954.435m-5.431-1.854h4.6a2.668,2.668,0,0,0-2.3-1.163,2.669,2.669,0,0,0-2.3,1.163" transform="translate(-3.466 -6.836)" fill="#0b694c"/>
    </g>
  </g>
</svg>
