<svg id="insert_chart_black_24dp" xmlns="http://www.w3.org/2000/svg" xmlns:xlink="http://www.w3.org/1999/xlink" width="28" height="28" viewBox="0 0 28 28">
  <defs>
    <clipPath id="clip-path">
      <rect id="Rectangle_78577" data-name="Rectangle 78577" width="20.71" height="27.131" fill="#0b694c"/>
    </clipPath>
  </defs>
  <path id="Path_4" data-name="Path 4" d="M0,0H28V28H0Z" fill="none"/>
  <g id="Group_59871" data-name="Group 59871" transform="translate(3.646 0.435)">
    <g id="Group_59871-2" data-name="Group 59871" transform="translate(0 0)" clip-path="url(#clip-path)">
      <path id="Path_22092" data-name="Path 22092" d="M9.026,24.22a2.266,2.266,0,0,0-.266-.009H2.224c-.538,0-.678-.138-.678-.669V6.693c0-.494.128-.622.622-.624l.413,0c.306,0,.611.007.916-.007.178-.012.217.022.25.214A1.327,1.327,0,0,0,5.158,7.463q4.169,0,8.339,0a1.363,1.363,0,0,0,1.4-1.4c0-.451,0-.9,0-1.354V4.279a1.43,1.43,0,0,0-1.557-1.562l-.191,0c-.294,0-.589-.007-.881.006-.162.012-.192-.006-.214-.2a2.746,2.746,0,0,0-5.48.078c-.009.116-.017.115-.1.115-.262,0-.525,0-.786,0h-.28A1.471,1.471,0,0,0,3.717,4.333c0,.164-.028.181-.165.171-.3-.007-.6-.006-.9,0L2.2,4.5h0a2.159,2.159,0,0,0-1.582.615A2.235,2.235,0,0,0,0,6.744c.033,1.992.026,4.017.021,5.977q0,1.194-.006,2.388v8.536a2.28,2.28,0,0,0,.037.523,2.027,2.027,0,0,0,2.04,1.576q1.364,0,2.727,0h4a1.445,1.445,0,0,0,.257-.016.76.76,0,0,0-.054-1.508M9.313,1.533a1.227,1.227,0,0,1,1.226,1.16c.009.146.007.292.006.439,0,.081,0,.162,0,.243a.79.79,0,0,0,.853.9c.377.018.76.014,1.13.012l.4,0a1.891,1.891,0,0,1,.424.022,1.248,1.248,0,0,1,.023.349l0,.338c0,.263,0,.526,0,.789a.209.209,0,0,1-.02.13.24.24,0,0,1-.145.026q-.941,0-1.882,0H5.294a1.006,1.006,0,0,1-.013-.215c0-.132,0-.265,0-.4,0-.272,0-.544-.007-.815-.006-.134.018-.178.032-.193s.059-.035.184-.033c.434.015.873.011,1.3.007l.29,0c.746-.006,1.025-.288,1.028-1.04V3.076c0-.116,0-.232,0-.347A1.185,1.185,0,0,1,9.285,1.534h.028" transform="translate(0 0)" fill="#0b694c"/>
      <path id="Path_22093" data-name="Path 22093" d="M20.94,25.716a5.549,5.549,0,0,0-4.005,1.623,5.691,5.691,0,0,0,3.925,9.754h.012a5.735,5.735,0,0,0,4.064-1.646,5.7,5.7,0,0,0-4-9.732m-.025,9.845h-.024a4.1,4.1,0,0,1-2.942-1.235,4.237,4.237,0,0,1-1.184-3.006,4.132,4.132,0,0,1,4.157-4.072h.019a4.117,4.117,0,0,1,2.952,1.225,4.206,4.206,0,0,1,1.185,3,4.06,4.06,0,0,1-1.231,2.9,4.165,4.165,0,0,1-2.932,1.187" transform="translate(-5.899 -9.962)" fill="#0b694c"/>
      <path id="Path_22094" data-name="Path 22094" d="M25.6,8.87a2.656,2.656,0,0,0,.725.062.458.458,0,0,1,.485.466c0,.07,0,.14,0,.21v8.074c0,.083,0,.168.006.251a.778.778,0,0,0,.75.725h.011a.785.785,0,0,0,.763-.738c.006-.069,0-.137,0-.206v-5.48c0-.943,0-1.887,0-2.83a2,2,0,0,0-1.313-1.893,2.948,2.948,0,0,0-1.376-.087.71.71,0,0,0-.586.711.763.763,0,0,0,.531.735" transform="translate(-9.712 -2.861)" fill="#0b694c"/>
      <path id="Path_22095" data-name="Path 22095" d="M16.506,15.957H6.033a2.852,2.852,0,0,0-.315.011.752.752,0,0,0-.219,1.44,1.18,1.18,0,0,0,.515.083H16.492a1.273,1.273,0,0,0,.52-.071.754.754,0,0,0,.465-.838.728.728,0,0,0-.665-.616c-.1-.01-.2-.009-.306-.009" transform="translate(-1.953 -6.182)" fill="#0b694c"/>
      <path id="Path_22096" data-name="Path 22096" d="M16.711,23.23a.719.719,0,0,0,.773-.685.759.759,0,0,0-.671-.823,2.011,2.011,0,0,0-.341-.02H6.045a1.443,1.443,0,0,0-.507.072.75.75,0,0,0,.148,1.448,1.5,1.5,0,0,0,.228.013H13.6q1.554,0,3.106,0" transform="translate(-1.954 -8.407)" fill="#0b694c"/>
      <path id="Path_22097" data-name="Path 22097" d="M5.735,27.51a.732.732,0,0,0-.7.75.761.761,0,0,0,.646.773,1.783,1.783,0,0,0,.19.007H9.457q.5,0,1.005,0a.732.732,0,0,0,.719-.757.8.8,0,0,0-.221-.566.682.682,0,0,0-.486-.205q-2.369-.007-4.738,0" transform="translate(-1.951 -10.656)" fill="#0b694c"/>
      <path id="Path_22098" data-name="Path 22098" d="M14.718,4.78h.006a.818.818,0,0,0,.788-.8.812.812,0,0,0-.8-.78.792.792,0,0,0,.01,1.584" transform="translate(-5.396 -1.238)" fill="#0b694c"/>
      <path id="Path_22099" data-name="Path 22099" d="M25.36,31.272a.772.772,0,0,0-.586-.191.986.986,0,0,0-.6.339l-.747.747q-.887.886-1.767,1.775c-.079.08-.108.081-.109.081s-.026,0-.083-.07c-.118-.137-.248-.261-.374-.382l-.081-.077a.748.748,0,0,0-1.1-.06.736.736,0,0,0-.245.518.831.831,0,0,0,.243.6c.372.393.744.765,1.1,1.1a.807.807,0,0,0,.551.241.793.793,0,0,0,.557-.253q1.178-1.17,2.35-2.347l.9-.9a.814.814,0,0,0,.246-.543v-.007a.761.761,0,0,0-.254-.571" transform="translate(-7.618 -12.04)" fill="#0b694c"/>
    </g>
  </g>
</svg>
