<svg id="insert_chart_black_24dp" xmlns="http://www.w3.org/2000/svg" xmlns:xlink="http://www.w3.org/1999/xlink" width="28" height="28" viewBox="0 0 28 28">
  <defs>
    <clipPath id="clip-path">
      <rect id="Rectangle_78571" data-name="Rectangle 78571" width="22.949" height="23.951" fill="#ffffff"/>
    </clipPath>
     <style>
            .cls-1{fill:#ffffff}
        </style>
  </defs>
  <path id="Path_4" data-name="Path 4" d="M0,0H28V28H0Z" fill="none"/>
  <g id="Group_59865" data-name="Group 59865" transform="translate(2.525 2.024)">
    <g id="Group_59865-2" data-name="Group 59865" transform="translate(0 0)" clip-path="url(#clip-path)">
      <path class="cls-1" id="Path_22053" data-name="Path 22053" d="M29.057,19.8c-.013.089-.076.126-.124.172l-2.545,2.382q-1.547,1.447-3.091,2.9c-.12.113-.185.111-.3-.009q-.89-.958-1.8-1.9c-.112-.116-.118-.185.005-.3q2.83-2.639,5.651-5.289c.114-.106.181-.106.288.008.6.641,1.2,1.275,1.807,1.913.039.041.072.086.1.123" transform="translate(-7.914 -6.626)"/>
      <path class="cls-1" id="Path_22054" data-name="Path 22054" d="M32.924,14.82a.746.746,0,0,1,.563.241c.289.306.57.621.867.919a.9.9,0,0,1-.044,1.34c-.338.277-.643.595-.957.9-.1.1-.166.116-.273,0q-.908-.974-1.83-1.934c-.1-.1-.1-.163,0-.261.336-.308.661-.625.994-.937a.89.89,0,0,1,.677-.271" transform="translate(-11.683 -5.554)"/>
      <path class="cls-1" id="Path_22055" data-name="Path 22055" d="M21.671,29.356c-.026.064-.089.068-.14.086l-2.493.88q-.33.117-.66.232c-.046.016-.1.057-.14.009s.011-.086.028-.127q.6-1.451,1.2-2.9c.031-.074.063-.146.089-.221.046-.131.1-.123.189-.029q.924.982,1.853,1.96a.207.207,0,0,1,.073.111" transform="translate(-6.831 -10.199)"/>
      <path class="cls-1" id="Path_22056" data-name="Path 22056" d="M17,23.951H3.133A3.078,3.078,0,0,1,0,20.938V3.014A3.079,3.079,0,0,1,3.133,0H17a3.079,3.079,0,0,1,3.133,3.014v4.8a.938.938,0,1,1-1.876,0v-4.8A1.2,1.2,0,0,0,17,1.876H3.133A1.2,1.2,0,0,0,1.876,3.014V20.938a1.2,1.2,0,0,0,1.257,1.138H17a1.2,1.2,0,0,0,1.257-1.138v-3a.938.938,0,1,1,1.876,0v3A3.078,3.078,0,0,1,17,23.951" transform="translate(0 0)"/>
      <path class="cls-1" id="Path_22057" data-name="Path 22057" d="M19.678,11.112H17.041a.938.938,0,1,1,0-1.876h2.637a.938.938,0,1,1,0,1.876" transform="translate(-6.035 -3.461)"/>
      <path class="cls-1" id="Path_22058" data-name="Path 22058" d="M9.338,11.631H7a1.5,1.5,0,0,1-1.5-1.5V7.785A1.5,1.5,0,0,1,7,6.282H9.338a1.5,1.5,0,0,1,1.5,1.5v2.343a1.5,1.5,0,0,1-1.5,1.5M7.368,9.756h1.6v-1.6h-1.6Z" transform="translate(-2.058 -2.354)"/>
      <path class="cls-1" id="Path_22059" data-name="Path 22059" d="M19.678,22.268H17.041a.938.938,0,1,1,0-1.876h2.637a.938.938,0,1,1,0,1.876" transform="translate(-6.035 -7.642)"/>
      <path class="cls-1" id="Path_22060" data-name="Path 22060" d="M9.338,22.787H7a1.5,1.5,0,0,1-1.5-1.5V18.941a1.5,1.5,0,0,1,1.5-1.5H9.338a1.5,1.5,0,0,1,1.5,1.5v2.343a1.5,1.5,0,0,1-1.5,1.5m-1.97-1.876h1.6v-1.6h-1.6Z" transform="translate(-2.058 -6.535)"/>
    </g>
  </g>
</svg>
