<svg id="home_black_24dp" xmlns="http://www.w3.org/2000/svg" xmlns:xlink="http://www.w3.org/1999/xlink" width="26.918" height="26.918" viewBox="0 0 26.918 26.918">
  <defs>
    <clipPath id="clip-path">
      <rect id="Rectangle_78583" data-name="Rectangle 78583" width="22.686" height="24.168" fill="#ffffff"/>
    </clipPath>
     <style>
            .cls-1{fill:#ffffff}
        </style>
  </defs>
  <path id="Path_1" data-name="Path 1" d="M0,0H26.918V26.918H0Z" fill="none"/>
  <g id="Group_59877" data-name="Group 59877" transform="translate(1.76 1.374)">
    <g id="Group_59877-2" data-name="Group 59877" transform="translate(0 0)" clip-path="url(#clip-path)">
      <path class="cls-1" id="Path_22136" data-name="Path 22136" d="M22.056,0a.193.193,0,0,0,.092.051.74.74,0,0,1,.532.714c.006,1,.008,2,0,3.006a.782.782,0,0,1-.813.759c-.966,0-1.932-.01-2.9-.009-.514,0-1.028-.014-1.542.012a.808.808,0,0,1-.766-.525c-.04.044-.025.093-.025.138q0,1.147,0,2.294c0,.049,0,.1,0,.148-.012.218-.012.215.212.222a5.988,5.988,0,0,1,5.739,5.041,6.613,6.613,0,0,1,.1,1.106c-.006,1.937,0,3.874,0,5.81a.8.8,0,0,1-.86.862h-7.26c-.2,0-.2,0-.2.2q0,1.758,0,3.515a.777.777,0,0,1-.824.824q-2.18,0-4.361,0a.822.822,0,0,1-.732-.371.681.681,0,0,1-.111-.393q0-1.784,0-3.57c0-.2,0-.2-.209-.2H.864a.779.779,0,0,1-.82-.578A.778.778,0,0,1,.009,18.8c0-2.017-.027-4.036.009-6.052a5.909,5.909,0,0,1,1.6-4.009A5.964,5.964,0,0,1,5.282,6.846,6.671,6.671,0,0,1,6.2,6.787h8.709c.21,0,.212,0,.212-.213,0-1.9.005-3.793,0-5.69a.78.78,0,0,1,.515-.832A.088.088,0,0,0,15.695,0Zm-16,18.117v0h4.307c.228,0,.227,0,.227-.223q0-2.455,0-4.91a4.564,4.564,0,0,0-.406-2.046A4.418,4.418,0,0,0,6.326,8.309a4.228,4.228,0,0,0-2.465.555,4.333,4.333,0,0,0-2.321,3.855c-.042,1.735-.009,3.471-.009,5.206,0,.193,0,.193.19.193H6.055m10.583,0h3.583c.25,0,.5-.005.751.006.215.009.188.011.188-.18q0-2.583,0-5.166a3.441,3.441,0,0,0-.031-.508A4.429,4.429,0,0,0,18.484,8.69,4.475,4.475,0,0,0,16.769,8.3c-.086,0-.141,0-.14.12q.008,2.308.006,4.616c0,.2,0,.4-.017.6a.746.746,0,0,1-.516.667.768.768,0,0,1-.835-.281.839.839,0,0,1-.144-.519c0-1.678,0-3.355,0-5.032,0-.132-.033-.177-.172-.176-1.333,0-2.666,0-4,0q-.349,0-.7,0c-.042,0-.1-.02-.12.03s.042.073.073.1a5.749,5.749,0,0,1,.744.844A6.015,6.015,0,0,1,12.1,12.791c.012,1.708,0,3.417,0,5.126,0,.194,0,.2.2.2h4.334m-5.3,4.532c.465,0,.93,0,1.395,0,.1,0,.141-.024.137-.128-.007-.192,0-.384-.009-.577-.027-.715-.01-1.43-.009-2.145,0-.167.01-.167-.166-.167-.9,0-1.8,0-2.7,0-.127,0-.171.036-.17.166q.007,1.348,0,2.7c0,.128.045.16.164.159.451-.005.9,0,1.355,0M16.662,3.608a.745.745,0,0,1,.567-.566,1.667,1.667,0,0,1,.4-.038c1.122,0,2.245,0,3.368,0,.128,0,.171-.036.169-.167-.008-.389-.006-.778,0-1.167,0-.117-.025-.164-.155-.164q-2.12.007-4.24,0c-.118,0-.167.037-.152.155,0,.031,0,.062,0,.094.027.522.026,1.045,0,1.568a.41.41,0,0,0,.04.28" transform="translate(0 0)"/>
    </g>
  </g>
</svg>
