<svg id="insert_chart_black_24dp" xmlns="http://www.w3.org/2000/svg" xmlns:xlink="http://www.w3.org/1999/xlink" width="28" height="28" viewBox="0 0 28 28">
  <defs>
    <clipPath id="clip-path">
      <rect id="Rectangle_78572" data-name="Rectangle 78572" width="25.973" height="26.44" fill="#ffffff"/>
    </clipPath>
     <style>
            .cls-1{fill:#ffffff}
        </style>
  </defs>
  <path id="Path_4" data-name="Path 4" d="M0,0H28V28H0Z" fill="none"/>
  <g id="Group_59866" data-name="Group 59866" transform="translate(0.514 0.78)">
    <g id="Group_59866-2" data-name="Group 59866" transform="translate(0 0)" clip-path="url(#clip-path)">
      <path class="cls-1" id="Path_22061" data-name="Path 22061" d="M4.079,30.136H1.056A1.057,1.057,0,0,1,0,29.08V19.368a1.057,1.057,0,0,1,1.056-1.056H4.079a1.057,1.057,0,0,1,1.056,1.056V29.08a1.057,1.057,0,0,1-1.056,1.056M1.9,28.238H3.237V20.21H1.9Z" transform="translate(0 -6.729)"/>
      <path class="cls-1" id="Path_22062" data-name="Path 22062" d="M19.856,26.852a.948.948,0,0,1-.664-1.627,2.978,2.978,0,0,0-1.6-.794c-.052,0-.385.03-.652.053-1.39.122-3.96.35-5.826-.822-1.06-.461-3.436-1.633-3.538-1.684a.948.948,0,1,1,.84-1.7c.025.012,2.547,1.256,3.518,1.672l.146.078c1.321.863,3.514.669,4.693.567a4.579,4.579,0,0,1,1.192-.024c1.3.261,2.764,1.046,3.094,2.213A1.771,1.771,0,0,1,20.5,26.6a.948.948,0,0,1-.645.253" transform="translate(-2.591 -7.415)"/>
      <path class="cls-1" id="Path_22063" data-name="Path 22063" d="M14.919,35.045a16.536,16.536,0,0,1-2.816-.254A5.955,5.955,0,0,1,8.62,33.557l-3.13-2.393a.949.949,0,1,1,1.152-1.507l3.13,2.394a4.079,4.079,0,0,0,2.436.845l.152.014c6.522,1.152,9.265-2.092,11.469-4.7a20.862,20.862,0,0,1,1.434-1.588c.579-.554.705-.9.691-1.011-.006-.045-.092-.154-.306-.272a.219.219,0,0,0-.2-.006l-5.488,2.652-6.833,1.669a.949.949,0,1,1-.45-1.843l6.734-1.645,5.206-2.538a2.123,2.123,0,0,1,1.949.049,2.249,2.249,0,0,1,1.273,1.689A3.2,3.2,0,0,1,26.575,28c-.4.383-.836.9-1.3,1.443-1.942,2.3-4.743,5.606-10.359,5.606" transform="translate(-1.88 -8.605)"/>
      <path class="cls-1" id="Path_22064" data-name="Path 22064" d="M14.875,14.735a.633.633,0,0,1-.338-1.168l2.788-1.753A.633.633,0,1,1,18,12.885l-2.787,1.754a.637.637,0,0,1-.337.1" transform="translate(-5.233 -4.305)"/>
      <path class="cls-1" id="Path_22065" data-name="Path 22065" d="M17.2,18.128a.632.632,0,0,1-.422-1.1l2.628-2.35a.632.632,0,1,1,.843.942l-2.628,2.35a.629.629,0,0,1-.421.161" transform="translate(-6.086 -5.333)"/>
      <path class="cls-1" id="Path_22066" data-name="Path 22066" d="M22.612,12.725a4.07,4.07,0,0,1-2.4-.784.632.632,0,1,1,.743-1.023A2.819,2.819,0,0,0,25.43,8.587L23.845,9.761A1.269,1.269,0,0,1,22.07,9.5L21.5,8.731a1.273,1.273,0,0,1,.265-1.776l1.444-1.07a2.788,2.788,0,0,0-2.364.558,3.129,3.129,0,0,0-1.008,2.92.632.632,0,1,1-1.24.248,4.4,4.4,0,0,1,1.455-4.156,4.106,4.106,0,0,1,4.353-.482.881.881,0,0,1,.136,1.5l-2.023,1.5.565.771L25.2,7.181a.881.881,0,0,1,1.381.5,4.09,4.09,0,0,1-3.971,5.039M25.956,8.2h0M23.791,5.455h0Z" transform="translate(-6.806 -1.676)"/>
      <path class="cls-1" id="Path_22067" data-name="Path 22067" d="M20.389,14.516a7.242,7.242,0,0,1-4.881-1.886.633.633,0,0,1,.851-.937,5.976,5.976,0,1,0-1.493-2.1.633.633,0,0,1-1.165.493,7.259,7.259,0,1,1,6.687,4.433" transform="translate(-4.825 0)"/>
    </g>
  </g>
</svg>
