<svg id="insert_chart_black_24dp" xmlns="http://www.w3.org/2000/svg" xmlns:xlink="http://www.w3.org/1999/xlink" width="28" height="28" viewBox="0 0 28 28">
  <defs>
    <clipPath id="clip-path">
      <rect id="Rectangle_78575" data-name="Rectangle 78575" width="19.963" height="25.993" fill="#ffffff"/>
    </clipPath>
     <style>
            .cls-1{fill:#ffffff}
        </style>
  </defs>
  <path id="Path_4" data-name="Path 4" d="M0,0H28V28H0Z" fill="none"/>
  <g id="Group_59869" data-name="Group 59869" transform="translate(4.019 0)">
    <g id="Group_59869-2" data-name="Group 59869" transform="translate(0 0.001)" clip-path="url(#clip-path)">
      <path class="cls-1" id="Path_22077" data-name="Path 22077" d="M19.837,17.138q0,4.488,0,8.976a1.828,1.828,0,0,1-1.38,1.838,2.52,2.52,0,0,1-.642.078q-7.649,0-15.3,0A1.875,1.875,0,0,1,.5,25.991q0-8.835,0-17.669A1.87,1.87,0,0,1,2.549,6.274c.283,0,.565,0,.847,0,.48,0,.776.242.782.629s-.293.638-.767.642c-.291,0-.583,0-.875,0-.58,0-.763.181-.764.755v9.512q0,4.079,0,8.157c0,.6.2.792.794.792H17.753c.624,0,.812-.187.812-.8q0-8.835,0-17.669c0-.558-.186-.742-.745-.744-.32,0-.64,0-.959,0a.638.638,0,1,1,.006-1.269c.348-.006.7,0,1.044,0A1.848,1.848,0,0,1,19.836,8.19q0,4.474,0,8.948" transform="translate(-0.187 -2.35)"/>
      <path class="cls-1" id="Path_22078" data-name="Path 22078" d="M17.626,28.155l-15.3,0A2.192,2.192,0,0,1,0,25.8V8.134A2.38,2.38,0,0,1,.631,6.4a2.381,2.381,0,0,1,1.73-.63h.851A.981.981,0,0,1,4.3,6.711a.886.886,0,0,1-.25.648,1.138,1.138,0,0,1-.827.311H2.349c-.409,0-.452.043-.452.442V25.781c0,.426.054.48.482.48H17.565c.453,0,.5-.046.5-.49V8.1c0-.385-.044-.43-.433-.431h-.341c-.209,0-.417,0-.624,0a.964.964,0,0,1-1.008-.929.908.908,0,0,1,.252-.655,1.072,1.072,0,0,1,.762-.31c.281,0,.562,0,.842,0h.209A2.166,2.166,0,0,1,19.961,8q0,3.254,0,6.508v4.954q0,3.232,0,6.463a2.142,2.142,0,0,1-1.614,2.139,2.837,2.837,0,0,1-.721.089M2.361,6.4a1.75,1.75,0,0,0-1.288.447A1.75,1.75,0,0,0,.626,8.134V25.8a1.56,1.56,0,0,0,1.7,1.724l15.3,0a2.2,2.2,0,0,0,.563-.068,1.515,1.515,0,0,0,1.147-1.537q0-3.231,0-6.462V14.51q0-3.253,0-6.507a1.544,1.544,0,0,0-1.614-1.6h-.209c-.276,0-.553,0-.829,0a.456.456,0,0,0-.323.118.283.283,0,0,0-.077.209c0,.229.207.313.395.316.2,0,.407,0,.61,0h.345c.73,0,1.056.328,1.056,1.056V25.771c0,.792-.326,1.115-1.125,1.115H2.38c-.775,0-1.107-.331-1.107-1.105V8.112c0-.746.321-1.065,1.076-1.067h.873a.544.544,0,0,0,.385-.123.267.267,0,0,0,.072-.2c0-.262-.258-.319-.47-.32H2.361Z" transform="translate(0 -2.162)"/>
      <path class="cls-1" id="Path_22079" data-name="Path 22079" d="M12.683,7.8H8.139c-.677,0-.889-.2-.879-.866a8.153,8.153,0,0,1,.048-1.548A2.957,2.957,0,0,1,9.424,3.042.457.457,0,0,0,9.779,2.7a3.03,3.03,0,0,1,5.8-.082.586.586,0,0,0,.436.438,2.986,2.986,0,0,1,2.114,2.858q0,.579,0,1.158a.642.642,0,0,1-.683.722c-.328.016-.659.006-.987.006H12.683M12.7,6.535H16.56c.154,0,.292.016.311-.215a1.8,1.8,0,0,0-1.747-2.133.654.654,0,0,1-.645-.652c-.012-.093-.029-.186-.042-.279a1.763,1.763,0,0,0-1.644-1.482,1.792,1.792,0,0,0-1.878,1.735.672.672,0,0,1-.733.685,1.879,1.879,0,0,0-.361.051,1.736,1.736,0,0,0-1.3,1.737c-.006.639-.042.551.532.552,1.213,0,2.426,0,3.639,0" transform="translate(-2.714 -0.188)"/>
      <path class="cls-1" id="Path_22080" data-name="Path 22080" d="M16.826,7.929h-.277l-8.6,0a1.27,1.27,0,0,1-.926-.283,1.221,1.221,0,0,1-.266-.9c0-.15,0-.3-.006-.452a4.929,4.929,0,0,1,.06-1.155,3.259,3.259,0,0,1,2.326-2.58c.126-.041.131-.058.152-.129A3.339,3.339,0,0,1,12.446,0H12.5a3.354,3.354,0,0,1,3.193,2.336c.05.153.089.193.231.236a3.308,3.308,0,0,1,2.335,3.154c0,.388,0,.774,0,1.162a.95.95,0,0,1-.98,1.031c-.151.008-.3.009-.453.009m-.55-.628.278,0c.231,0,.463,0,.694-.008.286-.015.384-.118.386-.412q0-.577,0-1.153A2.686,2.686,0,0,0,15.74,3.169.894.894,0,0,1,15.1,2.53,2.718,2.718,0,0,0,9.891,2.6a.765.765,0,0,1-.558.548A2.638,2.638,0,0,0,7.426,5.263a4.4,4.4,0,0,0-.048,1.011c0,.16.009.32.007.479A.7.7,0,0,0,7.47,7.2a.756.756,0,0,0,.481.1Zm-7.687-.64a.545.545,0,0,1-.425-.133c-.146-.145-.143-.328-.139-.63V5.791A2.044,2.044,0,0,1,9.551,3.755a2.145,2.145,0,0,1,.422-.062c.328-.023.407-.1.445-.41a2.121,2.121,0,0,1,2.2-2.01,2.064,2.064,0,0,1,1.942,1.751l.042.283c.033.264.119.353.37.38a2.112,2.112,0,0,1,2.024,2.469c-.028.336-.231.5-.6.5H11.516q-1.324,0-2.647,0l-.176,0h-.1M12.524,1.9a1.483,1.483,0,0,0-1.486,1.461.978.978,0,0,1-1.022.96,1.535,1.535,0,0,0-.3.041A1.422,1.422,0,0,0,8.651,5.8v.11c0,.044,0,.089,0,.129h.033l.189,0q1.323,0,2.645,0h4.859A1.482,1.482,0,0,0,14.9,4.31a.957.957,0,0,1-.921-.925l-.041-.272A1.448,1.448,0,0,0,12.594,1.9l-.07,0" transform="translate(-2.527 0)"/>
      <path class="cls-1" id="Path_22081" data-name="Path 22081" d="M10.815,27.772a.65.65,0,0,1-.169.439c-.744.91-1.483,1.825-2.238,2.727a.617.617,0,0,1-1.052-.011q-.626-.746-1.231-1.508a.617.617,0,0,1,.058-.925.633.633,0,0,1,.921.133c.206.245.412.49.6.745.132.174.221.174.361,0,.528-.661,1.068-1.314,1.609-1.966a.63.63,0,0,1,1.138.368" transform="translate(-2.227 -10.167)"/>
      <path class="cls-1" id="Path_22082" data-name="Path 22082" d="M7.7,31.352a1,1,0,0,1-.774-.413q-.629-.748-1.238-1.514a.926.926,0,0,1,.1-1.36.942.942,0,0,1,1.361.172c.193.23.373.446.543.667.531-.658,1.041-1.273,1.55-1.887a.913.913,0,0,1,1.084-.308.925.925,0,0,1,.606.862v0a.945.945,0,0,1-.239.647l-.59.724c-.547.671-1.094,1.342-1.65,2.007a.98.98,0,0,1-.757.4ZM6.377,28.475a.283.283,0,0,0-.183.071c-.161.134-.166.3-.013.49q.6.759,1.226,1.5a.44.44,0,0,0,.3.189.421.421,0,0,0,.277-.178c.554-.662,1.1-1.331,1.645-2l.59-.724a.337.337,0,0,0,.1-.229.3.3,0,0,0-.213-.307c-.093-.036-.22-.056-.372.127-.538.65-1.077,1.3-1.6,1.961a.568.568,0,0,1-.428.25H7.691a.557.557,0,0,1-.422-.256c-.184-.244-.381-.478-.577-.713a.442.442,0,0,0-.315-.183" transform="translate(-2.039 -9.979)"/>
      <path class="cls-1" id="Path_22083" data-name="Path 22083" d="M7.8,21.588a.6.6,0,0,1-.421-.25c-.417-.509-.838-1.016-1.251-1.528a.632.632,0,0,1,.057-.951.648.648,0,0,1,.922.15c.206.245.417.487.605.744.126.172.2.2.343.009.477-.607.972-1.2,1.462-1.794a3.081,3.081,0,0,1,.223-.255.624.624,0,0,1,.845-.05.607.607,0,0,1,.127.814,7.326,7.326,0,0,1-.485.622c-.595.729-1.193,1.454-1.788,2.183a.749.749,0,0,1-.639.305" transform="translate(-2.227 -6.564)"/>
      <path class="cls-1" id="Path_22084" data-name="Path 22084" d="M7.607,21.713a.9.9,0,0,1-.655-.364l-.381-.465q-.438-.531-.871-1.066a1.04,1.04,0,0,1-.251-.77.918.918,0,0,1,.358-.622.958.958,0,0,1,1.355.193l.1.116c.151.179.3.357.443.543.352-.441.685-.844,1.017-1.247l.371-.45a3.276,3.276,0,0,1,.246-.28.942.942,0,0,1,1.261-.069.924.924,0,0,1,.192,1.227,5.868,5.868,0,0,1-.4.524L8.5,21.293a1.058,1.058,0,0,1-.875.42ZM6.372,18.853a.279.279,0,0,0-.177.065.3.3,0,0,0-.124.2.436.436,0,0,0,.116.308c.286.355.576.708.866,1.061l.383.465a.392.392,0,0,0,.177.136h0a.442.442,0,0,0,.4-.189l1.894-2.313a5.13,5.13,0,0,0,.359-.466.293.293,0,0,0-.062-.4.314.314,0,0,0-.431.031,2.586,2.586,0,0,0-.181.206l-.39.474c-.365.443-.731.886-1.085,1.337a.56.56,0,0,1-.418.25H7.693a.542.542,0,0,1-.417-.266c-.154-.21-.324-.41-.493-.61l-.1-.118a.436.436,0,0,0-.311-.171" transform="translate(-2.039 -6.378)"/>
      <path class="cls-1" id="Path_22085" data-name="Path 22085" d="M18.629,21.006c-.667,0-1.334,0-2,0a.613.613,0,0,1-.7-.6.625.625,0,0,1,.66-.655q2.071-.016,4.143,0a.622.622,0,0,1,.652.662c-.009.376-.263.6-.7.6-.686,0-1.371,0-2.058,0" transform="translate(-5.968 -7.394)"/>
      <path class="cls-1" id="Path_22086" data-name="Path 22086" d="M19.692,21.133H17.827c-.462,0-.925,0-1.388,0a.925.925,0,0,1-1.008-.911.949.949,0,0,1,.261-.688.986.986,0,0,1,.709-.286q2.074-.017,4.148,0a.975.975,0,0,1,.7.286.96.96,0,0,1,.26.7.918.918,0,0,1-1.012.9h-.809m-1.25-.627h.343q.856,0,1.714,0c.381,0,.386-.2.388-.292a.332.332,0,0,0-.084-.246.351.351,0,0,0-.258-.1q-2.069-.017-4.138,0a.363.363,0,0,0-.266.1.321.321,0,0,0-.084.239c0,.074.006.3.385.3.462,0,.923,0,1.385,0Z" transform="translate(-5.781 -7.207)"/>
      <path class="cls-1" id="Path_22087" data-name="Path 22087" d="M18.659,29.384c.695,0,1.39-.008,2.084,0a.62.62,0,0,1,.643.639.63.63,0,0,1-.629.627c-.028,0-.056,0-.084,0-1.343,0-2.685,0-4.028,0a.636.636,0,0,1-.714-.627c0-.39.275-.64.727-.642.667,0,1.333,0,2,0" transform="translate(-5.968 -11.007)"/>
      <path class="cls-1" id="Path_22088" data-name="Path 22088" d="M18.286,30.781l-1.829,0a.949.949,0,0,1-1.026-.937.907.907,0,0,1,.255-.662,1.077,1.077,0,0,1,.784-.3c.5,0,1,0,1.5,0H19.1c.489,0,.977,0,1.464,0a.936.936,0,0,1,.952.954.947.947,0,0,1-.921.936c-.036,0-.071,0-.106,0h-2.2m-1.078-1.272h-.734a.478.478,0,0,0-.341.109.291.291,0,0,0-.075.216c0,.276.253.317.4.318q1.463,0,2.927,0H20.55a.321.321,0,0,0,.336-.318.31.31,0,0,0-.335-.323c-.485-.008-.969-.005-1.453,0h-1.89" transform="translate(-5.781 -10.82)"/>
    </g>
  </g>
</svg>
