<svg id="insert_chart_black_24dp" xmlns="http://www.w3.org/2000/svg" xmlns:xlink="http://www.w3.org/1999/xlink" width="28" height="28" viewBox="0 0 28 28">
  <defs>
    <clipPath id="clip-path">
      <rect id="Rectangle_78579" data-name="Rectangle 78579" width="22.893" height="23.884" fill="#ffffff"/>
    </clipPath>
     <style>
            .cls-1{fill:#ffffff}
        </style>
  </defs>
  <path id="Path_4" data-name="Path 4" d="M0,0H28V28H0Z" fill="none"/>
  <g id="Group_59873" data-name="Group 59873" transform="translate(2 2.057)">
    <g id="Group_59873-2" data-name="Group 59873" clip-path="url(#clip-path)">
      <path class="cls-1" id="Path_22110" data-name="Path 22110" d="M21.869,9.9q-1.306,0-2.613,0c-.38,0-.381,0-.381-.393,0-.465.006-.93,0-1.394,0-.2.08-.274.275-.274q2.729,0,5.459,0c.215,0,.292.09.289.3-.007.484-.01.968,0,1.452.006.241-.09.321-.326.318-.9-.009-1.8,0-2.7,0" transform="translate(-6.953 -2.887)"/>
      <path class="cls-1" id="Path_22111" data-name="Path 22111" d="M21.866,16.172c-.891,0-1.783-.006-2.674,0-.233,0-.331-.064-.323-.311.015-.484.012-.969,0-1.453-.005-.213.076-.295.286-.294q2.718,0,5.435,0c.2,0,.305.071.3.289q-.011.741,0,1.482c0,.213-.083.289-.295.287-.911-.008-1.821,0-2.732,0" transform="translate(-6.952 -5.201)"/>
      <path class="cls-1" id="Path_22112" data-name="Path 22112" d="M21.9,20.439c.891,0,1.783.006,2.674,0,.236,0,.332.073.326.316-.011.474-.009.949,0,1.424,0,.218-.074.32-.3.319q-2.718,0-5.436,0c-.208,0-.292-.079-.287-.294q.017-.741,0-1.482c0-.219.085-.284.292-.282.911.008,1.821,0,2.732,0" transform="translate(-6.952 -7.529)"/>
      <path class="cls-1" id="Path_22113" data-name="Path 22113" d="M14.607,8.864c0,.251-.006.5,0,.755.006.191-.058.286-.265.284-.513-.008-1.026-.005-1.539,0-.169,0-.253-.068-.253-.239q0-.8,0-1.6c0-.157.081-.225.236-.225.522,0,1.045,0,1.568,0,.189,0,.256.088.251.269-.008.251,0,.5,0,.755" transform="translate(-4.625 -2.888)"/>
      <path class="cls-1" id="Path_22114" data-name="Path 22114" d="M14.606,15.141c0,.261,0,.522,0,.783,0,.164-.052.253-.232.251q-.8-.008-1.594,0c-.163,0-.228-.079-.228-.229q0-.8,0-1.594a.207.207,0,0,1,.237-.228h1.594c.155,0,.225.077.222.235-.005.261,0,.522,0,.783" transform="translate(-4.625 -5.203)"/>
      <path class="cls-1" id="Path_22115" data-name="Path 22115" d="M14.607,21.464c0,.261-.005.522,0,.783,0,.175-.077.246-.243.246H12.8a.217.217,0,0,1-.248-.248q0-.783,0-1.565c0-.167.076-.242.248-.24q.783.008,1.566,0c.172,0,.245.069.241.242-.006.261,0,.522,0,.783" transform="translate(-4.625 -7.531)"/>
      <path class="cls-1" id="Path_22116" data-name="Path 22116" d="M22.892,1.268c0-.9-.364-1.267-1.269-1.267H4.237C4.16,0,4.083,0,4,0A1.03,1.03,0,0,0,2.974,1.013c-.006.116,0,.233,0,.349V17.468c0,.39,0,.39-.38.391-.513,0-1.028-.008-1.541,0A1.029,1.029,0,0,0,0,18.914a4.045,4.045,0,0,0,.085.895,4.977,4.977,0,0,0,4.935,4.07c4.245,0,8.489,0,12.734,0a4.994,4.994,0,0,0,5.137-5.115q0-4.318,0-8.635V1.268m-20.4,18.29c.057-.234,9.885.054,9.885.054a12.961,12.961,0,0,0,.641,2S3.035,23.579,2.488,19.558m18.342-.679a2.871,2.871,0,0,1-2.4,2.9,2.906,2.906,0,0,1-3.46-2.671c-.039-.908-.407-1.247-1.313-1.247H5.429c-.4,0-.4,0-.4-.4q0-7.5,0-15c0-.39,0-.392.383-.392H20.447c.383,0,.385,0,.385.392q0,4.157,0,8.315c0,2.7,0,5.408,0,8.112" transform="translate(0 0)"/>
    </g>
  </g>
</svg>
