<svg id="svg" xmlns="http://www.w3.org/2000/svg" xmlns:xlink="http://www.w3.org/1999/xlink" width="400" height="400" viewBox="0, 0, 400,400"><g id="svgg"><path id="path0" d="M88.240 46.104 C 78.542 47.076,70.403 53.909,67.421 63.585 L 66.671 66.018 66.570 117.762 C 66.455 177.178,66.431 176.539,69.131 187.348 C 76.928 218.552,102.361 243.368,133.618 250.269 C 137.021 251.020,143.952 252.061,145.580 252.065 C 146.921 252.068,146.958 252.097,146.948 253.122 C 146.818 266.170,147.272 288.516,147.738 291.971 C 154.940 345.471,207.142 379.162,258.616 363.530 C 287.805 354.666,311.188 328.976,317.281 299.078 C 319.057 290.362,318.998 292.018,319.130 247.641 L 319.253 206.393 322.076 205.514 C 348.860 197.180,355.481 162.408,333.601 144.991 C 316.795 131.613,291.492 136.874,281.400 155.845 C 270.445 176.439,282.343 201.681,305.186 206.306 L 308.029 206.882 308.125 245.939 C 308.238 291.677,308.162 293.027,304.916 303.477 C 286.177 363.798,205.983 375.527,170.649 323.114 C 160.446 307.980,157.989 297.481,157.989 269.021 L 157.989 252.068 159.326 252.068 C 164.474 252.068,176.824 249.259,183.673 246.531 C 214.100 234.409,234.896 206.956,238.099 174.682 C 238.718 168.438,238.585 66.989,237.954 64.528 C 232.885 44.765,207.436 39.290,195.126 55.315 C 182.740 71.439,193.948 94.374,214.274 94.495 C 219.098 94.524,221.652 93.831,227.508 90.901 C 228.064 90.622,227.582 173.112,227.007 176.642 C 224.125 194.314,216.345 209.447,204.329 220.751 C 159.910 262.537,87.888 237.800,78.110 177.398 C 77.427 173.183,76.717 90.835,77.363 90.835 C 77.466 90.835,78.586 91.357,79.851 91.994 C 91.191 97.705,105.458 93.501,111.854 82.563 C 121.919 65.351,108.161 44.109,88.240 46.104 M318.573 149.236 C 333.773 153.492,340.770 171.915,332.181 185.071 C 321.816 200.949,298.770 199.517,290.507 182.482 C 281.607 164.136,298.848 143.715,318.573 149.236 " stroke="none" fill="#000000" fill-rule="evenodd"></path></g></svg>