<svg id="svg" xmlns="http://www.w3.org/2000/svg" xmlns:xlink="http://www.w3.org/1999/xlink" width="400" height="419.6506550218341" viewBox="0, 0, 400,419.6506550218341"><g id="svgg"><path id="path0" d="M153.690 59.408 C 143.915 60.877,135.549 68.550,132.984 78.399 C 131.968 82.299,131.974 183.220,132.990 187.135 C 135.038 195.024,139.579 200.491,147.056 204.070 C 152.393 206.625,152.521 206.630,203.930 206.474 L 250.437 206.332 253.660 205.155 C 262.016 202.103,268.598 194.731,270.270 186.551 C 271.098 182.496,270.914 81.630,270.073 78.399 C 267.851 69.871,261.441 63.081,252.838 60.143 L 250.000 59.174 203.057 59.109 C 177.238 59.073,155.023 59.207,153.690 59.408 M86.411 156.935 C 74.053 161.351,73.239 178.029,85.093 183.927 C 87.057 184.904,87.472 184.934,98.908 184.934 L 110.699 184.934 113.465 183.435 C 124.376 177.519,123.450 161.523,111.947 157.220 C 109.011 156.121,89.304 155.901,86.411 156.935 M290.985 157.241 C 279.554 161.637,278.721 177.540,289.613 183.446 L 292.358 184.934 304.148 184.934 C 315.585 184.934,316.000 184.904,317.963 183.927 C 329.545 178.165,329.065 161.664,317.188 157.220 C 313.661 155.900,294.431 155.916,290.985 157.241 M119.068 184.978 C 117.906 186.030,115.979 187.334,114.785 187.877 L 112.613 188.865 112.783 210.262 C 112.932 229.055,113.046 231.978,113.719 234.279 C 116.317 243.155,122.693 249.151,132.057 251.526 C 136.701 252.703,266.772 252.904,272.258 251.742 C 281.155 249.857,287.890 243.937,290.762 235.478 L 291.910 232.096 292.047 210.665 L 292.185 189.235 290.306 188.680 C 288.229 188.067,285.894 186.789,284.389 185.443 L 283.406 184.564 283.393 205.273 C 283.385 216.663,283.191 227.434,282.960 229.209 C 281.962 236.899,277.770 241.378,270.037 243.016 C 266.270 243.814,140.696 243.991,135.808 243.205 C 130.254 242.312,125.909 239.475,123.811 235.371 C 121.696 231.234,121.689 231.154,121.428 206.489 L 121.179 183.066 119.068 184.978 M142.336 211.944 C 130.179 215.248,128.742 231.721,140.146 237.070 L 142.576 238.210 201.528 238.210 L 260.480 238.210 262.921 237.065 C 273.353 232.173,273.269 217.352,262.782 212.612 L 260.480 211.572 202.402 211.488 C 157.432 211.424,143.875 211.527,142.336 211.944 M193.886 278.166 L 193.886 300.000 201.528 300.000 L 209.170 300.000 209.170 278.166 L 209.170 256.332 201.528 256.332 L 193.886 256.332 193.886 278.166 M184.522 304.635 C 176.219 306.134,169.749 309.109,133.635 328.034 C 120.554 334.889,121.397 333.777,121.397 344.169 L 121.397 351.965 124.004 351.965 L 126.611 351.965 126.734 346.421 L 126.856 340.877 138.428 337.451 C 178.140 325.691,195.671 320.524,195.857 320.524 C 195.974 320.524,196.070 327.598,196.070 336.245 L 196.070 351.965 201.528 351.965 L 206.987 351.965 206.987 336.245 C 206.987 327.598,207.105 320.524,207.249 320.524 C 207.392 320.524,215.891 323.011,226.135 326.051 C 236.379 329.091,251.834 333.669,260.480 336.226 L 276.201 340.874 276.323 346.419 L 276.445 351.965 279.052 351.965 L 281.659 351.965 281.659 344.169 C 281.659 333.750,282.566 334.920,268.984 327.819 C 231.805 308.380,226.845 306.114,218.174 304.605 C 212.915 303.690,189.643 303.710,184.522 304.635 M120.306 355.628 C 110.388 359.961,113.431 374.821,124.236 374.821 C 135.034 374.821,138.036 359.786,128.071 355.611 C 126.298 354.868,122.025 354.877,120.306 355.628 M274.346 355.941 C 265.018 360.558,268.399 374.821,278.821 374.821 C 289.656 374.821,292.655 359.801,282.656 355.611 C 280.499 354.707,276.519 354.865,274.346 355.941 M194.760 356.332 C 193.951 357.141,193.886 357.787,193.886 365.085 C 193.886 375.535,193.651 375.240,201.801 375.034 C 209.525 374.840,209.170 375.322,209.170 365.017 C 209.170 354.915,209.605 355.459,201.528 355.459 C 196.215 355.459,195.547 355.545,194.760 356.332 " stroke="none" fill="#000000" fill-rule="evenodd"></path></g></svg>