<?xml version="1.0" encoding="UTF-8" standalone="no" ?>
<!DOCTYPE svg PUBLIC "-//W3C//DTD SVG 1.1//EN" "http://www.w3.org/Graphics/SVG/1.1/DTD/svg11.dtd">
<svg xmlns="http://www.w3.org/2000/svg" xmlns:xlink="http://www.w3.org/1999/xlink" version="1.1" width="1080" height="1080" viewBox="0 0 1080 1080" xml:space="preserve">
<desc>Created with Fabric.js 5.2.4</desc>
<defs>
</defs>
<g transform="matrix(1 0 0 1 540 540)" id="7c842275-5ce4-4288-816f-35811ea9d77d"  >
<rect style="stroke: none; stroke-width: 1; stroke-dasharray: none; stroke-linecap: butt; stroke-dashoffset: 0; stroke-linejoin: miter; stroke-miterlimit: 4; fill: rgb(255,255,255); fill-rule: nonzero; opacity: 1; visibility: hidden;" vector-effect="non-scaling-stroke"  x="-540" y="-540" rx="0" ry="0" width="1080" height="1080" />
</g>
<g transform="matrix(1 0 0 1 540 540)" id="6818b718-1232-4945-bed7-48dfc0761f5e"  >
</g>
<g transform="matrix(1 0 0 1 540 540)"  >
<g style="" vector-effect="non-scaling-stroke"   >
		<g transform="matrix(1 0 0 1 0 0)"  >
<path style="stroke: none; stroke-width: 1; stroke-dasharray: none; stroke-linecap: butt; stroke-dashoffset: 0; stroke-linejoin: miter; stroke-miterlimit: 4; fill: rgb(21,130,200); fill-rule: nonzero; opacity: 1;" vector-effect="non-scaling-stroke"  transform=" translate(-256, -256)" d="M 409.921 209.503 C 404.728 209.503 399.424 209.938 394.078 210.801 C 374.236 144.204 313.243 98.338 243.17399999999998 98.338 C 187.31399999999996 98.338 135.664 127.994 107.33799999999997 176.019 C 46.799 182.009 0 233.221 0 294.48 C 0 360.197 53.465 413.66200000000003 119.182 413.66200000000003 L 409.921 413.66200000000003 C 466.20799999999997 413.66200000000003 512 367.87 512 311.583 C 512 255.29600000000005 466.208 209.503 409.921 209.503 z M 409.921 397.628 L 119.182 397.628 C 62.306000000000004 397.628 16.034000000000006 351.356 16.034000000000006 294.48 C 16.034000000000006 240.20700000000002 58.49400000000001 195.04600000000002 112.697 191.668 C 115.43 191.49800000000002 117.886 189.945 119.21300000000001 187.548 C 144.195 142.411 191.695 114.37 243.174 114.37 C 308.411 114.37 364.891 158.643 380.524 222.03300000000002 C 381.576 226.3 385.867 228.92600000000002 390.145 227.91600000000003 C 396.853 226.336 403.507 225.53500000000003 409.92199999999997 225.53500000000003 C 457.36799999999994 225.53500000000003 495.96799999999996 264.13500000000005 495.96799999999996 311.581 C 495.96799999999996 359.027 457.367 397.628 409.921 397.628 z" stroke-linecap="round" />
</g>
		<g transform="matrix(1 0 0 1 42.76 29.93)"  >
<path style="stroke: none; stroke-width: 1; stroke-dasharray: none; stroke-linecap: butt; stroke-dashoffset: 0; stroke-linejoin: miter; stroke-miterlimit: 4; fill: rgb(21,130,200); fill-rule: nonzero; opacity: 1;" vector-effect="non-scaling-stroke"  transform=" translate(-298.76, -285.93)" d="M 350.127 247.689 C 347.907 243.856 343.002 242.54999999999998 339.172 244.767 C 335.34000000000003 246.986 334.033 251.89 336.25100000000003 255.722 C 340.04200000000003 262.27 342.047 269.759 342.047 277.378 L 342.047 294.47999999999996 C 342.047 318.35099999999994 322.627 337.77 298.757 337.77 C 274.887 337.77 255.467 318.34999999999997 255.467 294.47999999999996 L 255.467 277.378 C 255.467 253.50699999999998 274.887 234.088 298.757 234.088 C 303.721 234.088 308.582 234.91899999999998 313.21 236.557 C 317.38399999999996 238.035 321.965 235.849 323.443 231.676 C 324.921 227.50199999999998 322.73499999999996 222.921 318.562 221.44299999999998 C 312.213 219.194 305.54900000000004 218.05499999999998 298.759 218.05499999999998 C 266.048 218.05499999999998 239.435 244.66699999999997 239.435 277.37899999999996 L 239.435 294.48099999999994 C 239.435 327.19199999999995 266.047 353.80499999999995 298.759 353.80499999999995 C 331.47 353.80499999999995 358.083 327.1929999999999 358.083 294.48099999999994 L 358.083 277.37899999999996 C 358.08 266.942 355.33 256.676 350.127 247.689 z" stroke-linecap="round" />
</g>
		<g transform="matrix(1 0 0 1 -76.96 29.93)"  >
<path style="stroke: none; stroke-width: 1; stroke-dasharray: none; stroke-linecap: butt; stroke-dashoffset: 0; stroke-linejoin: miter; stroke-miterlimit: 4; fill: rgb(21,130,200); fill-rule: nonzero; opacity: 1;" vector-effect="non-scaling-stroke"  transform=" translate(-179.04, -285.93)" d="M 227.767 327.375 C 224.815 324.074 219.74599999999998 323.794 216.448 326.747 C 208.507 333.855 198.25900000000001 337.769 187.58800000000002 337.769 C 163.717 337.769 144.29800000000003 318.349 144.29800000000003 294.479 L 144.29800000000003 277.377 C 144.29800000000003 253.506 163.71800000000002 234.08700000000002 187.58800000000002 234.08700000000002 C 198.25500000000002 234.08700000000002 208.50100000000003 237.99900000000002 216.44100000000003 245.103 C 219.74000000000004 248.054 224.80700000000002 247.773 227.76100000000002 244.47500000000002 C 230.71300000000002 241.175 230.43200000000002 236.10700000000003 227.13200000000003 233.15500000000003 C 216.24900000000002 223.41700000000003 202.20500000000004 218.05500000000004 187.58800000000002 218.05500000000004 C 154.877 218.05500000000004 128.264 244.66700000000003 128.264 277.379 L 128.264 294.481 C 128.264 327.192 154.876 353.805 187.58800000000002 353.805 C 202.20900000000003 353.805 216.25700000000003 348.438 227.14100000000002 338.695 C 230.441 335.742 230.721 330.674 227.767 327.375 z" stroke-linecap="round" />
</g>
		<g transform="matrix(1 0 0 1 0 -114.41)"  >
<path style="stroke: none; stroke-width: 1; stroke-dasharray: none; stroke-linecap: butt; stroke-dashoffset: 0; stroke-linejoin: miter; stroke-miterlimit: 4; fill: rgb(21,130,200); fill-rule: nonzero; opacity: 1;" vector-effect="non-scaling-stroke"  transform=" translate(-256, -141.59)" d="M 266.031 134.656 C 260.031 133.53300000000002 253.87900000000002 132.85 247.743 132.626 C 243.311 132.47 239.601 135.921 239.44 140.346 C 239.279 144.77 242.734 148.488 247.16 148.649 C 252.504 148.844 257.86 149.438 263.08 150.415 C 263.579 150.50799999999998 264.075 150.554 264.565 150.554 C 268.348 150.554 271.714 147.865 272.435 144.011 C 273.25 139.659 270.383 135.471 266.031 134.656 z" stroke-linecap="round" />
</g>
		<g transform="matrix(1 0 0 1 65.57 -78.39)"  >
<path style="stroke: none; stroke-width: 1; stroke-dasharray: none; stroke-linecap: butt; stroke-dashoffset: 0; stroke-linejoin: miter; stroke-miterlimit: 4; fill: rgb(21,130,200); fill-rule: nonzero; opacity: 1;" vector-effect="non-scaling-stroke"  transform=" translate(-321.57, -177.61)" d="M 351.4 196.55 C 340.073 175.972 323.209 159.106 302.631 147.779 C 298.75199999999995 145.642 293.878 147.058 291.74199999999996 150.93699999999998 C 289.60499999999996 154.814 291.01899999999995 159.689 294.89799999999997 161.825 C 312.81199999999995 171.68699999999998 327.49299999999994 186.368 337.35299999999995 204.28199999999998 C 338.81299999999993 206.93499999999997 341.55499999999995 208.43499999999997 344.3829999999999 208.43499999999997 C 345.68999999999994 208.43499999999997 347.0159999999999 208.11399999999998 348.2419999999999 207.43999999999997 C 352.12 205.304 353.534 200.429 351.4 196.55 z" stroke-linecap="round" />
</g>
		<g transform="matrix(1 0 0 1 191.16 18.34)"  >
<path style="stroke: none; stroke-width: 1; stroke-dasharray: none; stroke-linecap: butt; stroke-dashoffset: 0; stroke-linejoin: miter; stroke-miterlimit: 4; fill: rgb(21,130,200); fill-rule: nonzero; opacity: 1;" vector-effect="non-scaling-stroke"  transform=" translate(-447.16, -274.34)" d="M 474.981 292.185 C 468.419 270.146 451.342 253.073 429.302 246.517 C 425.057 245.254 420.595 247.671 419.332 251.915 C 418.07 256.159 420.486 260.622 424.73 261.885 C 441.563 266.893 454.603 279.93 459.615 296.76099999999997 C 460.651 300.241 463.84000000000003 302.49199999999996 467.295 302.49199999999996 C 468.052 302.49199999999996 468.824 302.38399999999996 469.586 302.15599999999995 C 473.83 300.892 476.244 296.429 474.981 292.185 z" stroke-linecap="round" />
</g>
</g>
</g>
<g transform="matrix(NaN NaN NaN NaN 0 0)"  >
<g style=""   >
</g>
</g>
</svg>