<?xml version="1.0" encoding="UTF-8" standalone="no" ?>
<!DOCTYPE svg PUBLIC "-//W3C//DTD SVG 1.1//EN" "http://www.w3.org/Graphics/SVG/1.1/DTD/svg11.dtd">
<svg xmlns="http://www.w3.org/2000/svg" xmlns:xlink="http://www.w3.org/1999/xlink" version="1.1" width="1080" height="1080" viewBox="0 0 1080 1080" xml:space="preserve">
<desc>Created with Fabric.js 5.2.4</desc>
<defs>
</defs>
<g transform="matrix(1 0 0 1 540 540)" id="e502ba02-ca85-4178-b827-e1d97f3fb3dc"  >
</g>
<g transform="matrix(1 0 0 1 540 540)" id="2a851dde-57b1-4a24-ae50-b17299ce7d2c"  >
<rect style="stroke: none; stroke-width: 1; stroke-dasharray: none; stroke-linecap: butt; stroke-dashoffset: 0; stroke-linejoin: miter; stroke-miterlimit: 4; fill: rgb(255,255,255); fill-rule: nonzero; opacity: 1; visibility: hidden;" vector-effect="non-scaling-stroke"  x="-540" y="-540" rx="0" ry="0" width="1080" height="1080" />
</g>
<g transform="matrix(1 0 0 1 540 540)"  >
<path style="stroke: rgb(217,113,12); stroke-width: 0; stroke-dasharray: none; stroke-linecap: butt; stroke-dashoffset: 0; stroke-linejoin: miter; stroke-miterlimit: 4; fill: rgb(235,179,5); fill-rule: nonzero; opacity: 1;" vector-effect="non-scaling-stroke"  transform=" translate(-236.31, -236.31)" d="M 377.763 60.264 L 377.763 17.721 C 377.763 7.933 369.828 0 360.04 0 L 112.571 0 C 102.783 0 94.848 7.933 94.848 17.721 L 94.848 60.263999999999996 L 4.906 60.263999999999996 L 4.906 79.95599999999999 L 46.19 79.95599999999999 L 90.985 441.442 C 93.191 459.245 108.319 472.615 126.25800000000001 472.615 L 346.352 472.615 C 364.29299999999995 472.615 379.419 459.245 381.626 441.442 L 426.42199999999997 79.95600000000002 L 467.70899999999995 79.95600000000002 L 467.70899999999995 60.264 L 377.763 60.264 z M 151.8 409.534 L 132.252 154.447 L 151.88600000000002 152.947 L 171.43500000000003 408.033 L 151.8 409.534 z M 246.152 408.784 L 226.46 408.784 L 226.46 153.697 L 246.15200000000002 153.697 L 246.15200000000002 408.784 z M 320.81 409.534 L 301.175 408.033 L 320.724 152.947 L 340.358 154.447 L 320.81 409.534 z" stroke-linecap="round" />
</g>
<g transform="matrix(NaN NaN NaN NaN 0 0)"  >
<g style=""   >
</g>
</g>
<g transform="matrix(NaN NaN NaN NaN 0 0)"  >
<g style=""   >
</g>
</g>
</svg>