<?xml version="1.0" encoding="UTF-8" standalone="no" ?>
<!DOCTYPE svg PUBLIC "-//W3C//DTD SVG 1.1//EN" "http://www.w3.org/Graphics/SVG/1.1/DTD/svg11.dtd">
<svg xmlns="http://www.w3.org/2000/svg" xmlns:xlink="http://www.w3.org/1999/xlink" version="1.1" width="1080" height="1080" viewBox="0 0 1080 1080" xml:space="preserve">
<desc>Created with Fabric.js 5.2.4</desc>
<defs>
</defs>
<rect x="0" y="0" width="100%" height="100%" fill="transparent"></rect>
<g transform="matrix(1 0 0 1 540 540)" id="3e303449-9895-49d8-ae78-a334d213d555"  >
</g>
<g transform="matrix(1 0 0 1 540 540)" id="1811c38d-e299-4e99-987b-509a547dad31"  >
<rect style="stroke: none; stroke-width: 1; stroke-dasharray: none; stroke-linecap: butt; stroke-dashoffset: 0; stroke-linejoin: miter; stroke-miterlimit: 4; fill: rgb(255,255,255); fill-rule: nonzero; opacity: 1; visibility: hidden;" vector-effect="non-scaling-stroke"  x="-540" y="-540" rx="0" ry="0" width="1080" height="1080" />
</g>
<g transform="matrix(0 0 0 0 0 0)"  >
<g style=""   >
</g>
</g>
<g transform="matrix(0 0 0 0 0 0)"  >
<g style=""   >
</g>
</g>
<g transform="matrix(0 0 0 0 0 0)"  >
<g style=""   >
</g>
</g>
<g transform="matrix(0 0 0 0 0 0)"  >
<g style=""   >
</g>
</g>
<g transform="matrix(0 0 0 0 0 0)"  >
<g style=""   >
</g>
</g>
<g transform="matrix(0 0 0 0 0 0)"  >
<g style=""   >
</g>
</g>
<g transform="matrix(0 0 0 0 0 0)"  >
<g style=""   >
</g>
</g>
<g transform="matrix(0 0 0 0 0 0)"  >
<g style=""   >
</g>
</g>
<g transform="matrix(1 0 0 1 540 540)"  >
<g style="" vector-effect="non-scaling-stroke"   >
		<g transform="matrix(0.13 0 0 -0.13 -96.4 -101.33)"  >
<path style="stroke: none; stroke-width: 1; stroke-dasharray: none; stroke-linecap: butt; stroke-dashoffset: 0; stroke-linejoin: miter; stroke-miterlimit: 4; fill: rgb(235,179,5); fill-rule: nonzero; opacity: 1;" vector-effect="non-scaling-stroke"  transform=" translate(-1759.86, -3318.84)" d="M 2575 4306 C 2503 4273 2480 4223 2480 4094 L 2480 4000 L 1385 4000 C 482 4000 284 3998 257 3986 C 215 3969 172 3918 165 3876 C 157 3838 326 2386 341 2359 C 346 2349 359 2336 370 2330 C 382 2323 784 2320 1570 2320 L 2751 2320 L 2775 2345 L 2800 2369 L 2800 3184 L 2800 3999 L 3029 4002 C 3243 4005 3261 4006 3286 4026 C 3339 4065 3355 4097 3355 4160 C 3355 4223 3339 4255 3286 4294 C 3260 4314 3244 4315 2932 4317 C 2674 4319 2599 4317 2575 4306 z M 924 3481 L 955 3450 L 955 3200 L 955 2950 L 922 2918 C 894 2890 883 2885 840 2885 C 797 2885 786 2890 758 2918 L 725 2950 L 725 3199 L 725 3448 L 750 3475 C 783 3511 807 3521 854 3516 C 881 3513 903 3502 924 3481 z M 1564 3481 L 1595 3450 L 1595 3200 L 1595 2950 L 1562 2918 C 1534 2890 1523 2885 1480 2885 C 1437 2885 1426 2890 1398 2918 L 1365 2950 L 1365 3199 L 1365 3448 L 1390 3475 C 1423 3511 1447 3521 1494 3516 C 1521 3513 1543 3502 1564 3481 z M 2204 3481 L 2235 3450 L 2235 3200 L 2235 2950 L 2202 2918 C 2174 2890 2163 2885 2120 2885 C 2077 2885 2066 2890 2038 2918 L 2005 2950 L 2005 3199 L 2005 3448 L 2030 3475 C 2063 3511 2087 3521 2134 3516 C 2161 3513 2183 3502 2204 3481 z" stroke-linecap="round" />
</g>
		<g transform="matrix(0.13 0 0 -0.13 10.69 42.56)"  >
<path style="stroke: none; stroke-width: 1; stroke-dasharray: none; stroke-linecap: butt; stroke-dashoffset: 0; stroke-linejoin: miter; stroke-miterlimit: 4; fill: rgb(235,179,5); fill-rule: nonzero; opacity: 1;" vector-effect="non-scaling-stroke"  transform=" translate(-2563, -2239.64)" d="M 3140 3669 C 3111 3657 3073 3624 3057 3595 C 3048 3581 3044 3380 3040 2878 C 3035 2194 3035 2181 3014 2154 C 3003 2139 2981 2117 2966 2106 C 2939 2085 2932 2085 1680 2080 C 428 2075 421 2075 394 2054 C 326 2003 325 2001 325 1760 C 325 1555 326 1540 346 1514 C 390 1454 413 1445 531 1442 L 640 1438 L 640 1407 C 641 1294 712 1118 797 1021 C 917 884 1100 800 1280 800 C 1602 800 1883 1054 1916 1375 L 1923 1440 L 2481 1440 L 3040 1440 L 3040 1408 C 3041 1294 3112 1118 3197 1021 C 3317 884 3500 800 3680 800 C 4002 800 4283 1054 4316 1375 L 4323 1439 L 4511 1442 C 4716 1445 4725 1448 4774 1514 C 4794 1541 4795 1554 4798 2050 L 4801 2558 L 4654 3072 C 4553 3426 4501 3595 4484 3616 C 4435 3682 4457 3680 3778 3679 C 3396 3679 3156 3675 3140 3669 z M 4300 3437 C 4300 3434 4536 2610 4545 2581 L 4551 2560 L 4116 2560 L 3680 2560 L 3680 3000 L 3680 3440 L 3990 3440 C 4161 3440 4300 3439 4300 3437 z M 1431 1719 C 1498 1683 1529 1651 1568 1576 C 1590 1533 1594 1512 1594 1440 C 1595 1362 1592 1350 1561 1292 C 1523 1222 1491 1192 1416 1152 C 1373 1130 1352 1126 1280 1126 C 1208 1126 1187 1130 1144 1152 C 1069 1192 1037 1222 999 1292 C 968 1350 965 1362 966 1440 C 966 1540 990 1600 1055 1665 C 1155 1765 1304 1786 1431 1719 z M 3831 1719 C 3898 1683 3929 1651 3968 1576 C 3990 1533 3994 1512 3994 1440 C 3995 1362 3992 1350 3961 1292 C 3923 1222 3891 1192 3816 1152 C 3773 1130 3752 1126 3680 1126 C 3608 1126 3587 1130 3544 1152 C 3469 1192 3437 1222 3399 1292 C 3368 1350 3365 1362 3366 1440 C 3366 1540 3390 1600 3455 1665 C 3555 1765 3704 1786 3831 1719 z" stroke-linecap="round" />
</g>
</g>
</g>
</svg>