<?xml version="1.0" encoding="UTF-8" standalone="no" ?>
<!DOCTYPE svg PUBLIC "-//W3C//DTD SVG 1.1//EN" "http://www.w3.org/Graphics/SVG/1.1/DTD/svg11.dtd">
<svg xmlns="http://www.w3.org/2000/svg" xmlns:xlink="http://www.w3.org/1999/xlink" version="1.1" width="1080" height="1080" viewBox="0 0 1080 1080" xml:space="preserve">
<desc>Created with Fabric.js 5.2.4</desc>
<defs>
</defs>
<rect x="0" y="0" width="100%" height="100%" fill="transparent"></rect>
<g transform="matrix(1 0 0 1 540 540)" id="2a851dde-57b1-4a24-ae50-b17299ce7d2c"  >
<rect style="stroke: none; stroke-width: 1; stroke-dasharray: none; stroke-linecap: butt; stroke-dashoffset: 0; stroke-linejoin: miter; stroke-miterlimit: 4; fill: rgb(255,255,255); fill-rule: nonzero; opacity: 1; visibility: hidden;" vector-effect="non-scaling-stroke"  x="-540" y="-540" rx="0" ry="0" width="1080" height="1080" />
</g>
<g transform="matrix(1 0 0 1 540 540)" id="e502ba02-ca85-4178-b827-e1d97f3fb3dc"  >
</g>
<g transform="matrix(1 0 0 1 540 540)"  >
<g style="" vector-effect="non-scaling-stroke"   >
		<g transform="matrix(1.99 0 0 1.99 0 206.65)"  >
<path style="stroke: none; stroke-width: 1; stroke-dasharray: none; stroke-linecap: butt; stroke-dashoffset: 0; stroke-linejoin: miter; stroke-miterlimit: 4; fill: rgb(235,179,5); fill-rule: nonzero; opacity: 1;" vector-effect="non-scaling-stroke"  transform=" translate(-200.67, -304.34)" d="M 388.438 253.651 C 383.39 252.687 375.385 251.08 365.251 249.04600000000002 C 327.157 241.39800000000002 263.4 228.598 249.56899999999996 228.598 C 249.36399999999995 228.598 249.17199999999997 228.601 248.98799999999997 228.60600000000002 C 224.34999999999997 229.33500000000004 175.44899999999996 245.056 146.23099999999997 254.44800000000004 C 135.85899999999998 257.78200000000004 127.66799999999996 260.41600000000005 124.18899999999996 261.20500000000004 C 117.72199999999997 262.672 113.11299999999997 268.63000000000005 112.97999999999996 275.69200000000006 C 112.84399999999997 282.9290000000001 117.73799999999996 292.00700000000006 131.88099999999997 295.7800000000001 C 137.60299999999998 297.3070000000001 144.45199999999997 298.0810000000001 152.23699999999997 298.0810000000001 C 168.43099999999995 298.0810000000001 185.89099999999996 294.8070000000001 198.63999999999996 292.4170000000001 C 205.96699999999996 291.04300000000006 211.75399999999996 289.9580000000001 214.78699999999995 289.9580000000001 C 215.71999999999994 289.9580000000001 216.13999999999996 290.0640000000001 216.30899999999994 290.1300000000001 C 216.10299999999995 295.0670000000001 206.84799999999993 300.5610000000001 191.46299999999994 304.8630000000001 C 176.35199999999995 309.0890000000001 157.70399999999995 311.61200000000014 141.57899999999995 311.61200000000014 C 135.30199999999996 311.61200000000014 129.65399999999994 311.22500000000014 124.79099999999995 310.46300000000014 C 91.87699999999995 305.30100000000016 55.082999999999956 292.7570000000001 26.364999999999952 276.90800000000013 C 23.04399999999995 275.0750000000001 19.664999999999953 274.14600000000013 16.32299999999995 274.14600000000013 C 9.57799999999995 274.14600000000013 3.831999999999951 278.01300000000015 1.3259999999999508 284.23700000000014 C -2.2180000000000493 293.0380000000001 1.4419999999999509 303.84200000000016 11.11499999999995 313.13800000000015 C 26.498999999999953 327.9180000000001 104.16899999999995 373.40300000000013 130.56299999999993 379.53700000000015 C 132.13699999999994 379.90300000000013 134.41199999999992 380.08100000000013 137.51899999999992 380.08100000000013 C 171.7249999999999 380.08100000000013 289.6149999999999 358.3130000000001 303.83899999999994 355.08300000000014 C 304.88699999999994 354.8460000000001 306.56299999999993 354.72500000000014 308.81899999999996 354.72500000000014 C 325.54699999999997 354.72500000000014 370.30899999999997 361.48600000000016 384.72099999999995 363.9490000000001 C 388.01599999999996 364.5120000000001 390.43199999999996 364.7740000000001 392.32399999999996 364.7740000000001 C 395.81399999999996 364.7740000000001 397.818 363.8350000000001 398.823 361.7280000000001 C 399.719 359.8480000000001 399.719 357.2160000000001 399.71799999999996 353.5720000000001 L 399.71799999999996 353.1920000000001 C 399.71799999999996 336.8420000000001 400.14199999999994 321.3920000000001 400.55299999999994 306.4500000000001 C 400.95599999999996 291.7860000000001 401.33599999999996 277.9360000000001 401.33599999999996 263.5460000000001 C 401.336 256.114 393.881 254.691 388.438 253.651 z" stroke-linecap="round" />
</g>
		<g transform="matrix(1.99 0 0 1.99 -9.5 -174.99)"  >
<path style="stroke: none; stroke-width: 1; stroke-dasharray: none; stroke-linecap: butt; stroke-dashoffset: 0; stroke-linejoin: miter; stroke-miterlimit: 4; fill: rgb(235,179,5); fill-rule: nonzero; opacity: 1;" vector-effect="non-scaling-stroke"  transform=" translate(-195.9, -112.88)" d="M 262.699 165.608 C 230.211 200.159 164.031 197.702 123.44400000000002 204.50400000000002 C 126.04300000000002 201.449 128.39300000000003 197.99800000000002 130.92600000000002 194.24900000000002 C 140.919 179.45400000000004 154.60600000000002 159.19100000000003 196.60900000000004 151.31800000000004 C 205.98700000000002 149.56000000000003 212.16500000000005 140.53300000000004 210.40700000000004 131.15400000000005 C 208.64900000000003 121.77500000000005 199.61500000000004 115.60000000000005 190.24400000000003 117.35700000000006 C 134.05300000000003 127.88900000000005 113.39300000000003 158.47600000000006 102.29300000000003 174.90900000000005 C 100.33700000000003 177.80500000000004 97.66900000000004 181.75700000000006 96.48900000000003 182.82700000000006 C 96.12400000000004 183.08800000000005 95.78500000000004 183.37100000000007 95.44700000000003 183.65400000000005 C 92.97900000000003 151.43900000000005 103.59300000000003 97.52100000000006 166.14400000000003 71.92700000000005 C 254.38500000000005 35.82100000000005 273.713 26.24100000000005 282.43100000000004 21.438000000000052 C 291.148 16.635 318.085 106.703 262.699 165.608 z" stroke-linecap="round" />
</g>
</g>
</g>
<g transform="matrix(NaN NaN NaN NaN 0 0)"  >
<g style=""   >
</g>
</g>
<g transform="matrix(NaN NaN NaN NaN 0 0)"  >
<g style=""   >
</g>
</g>
</svg>