<?xml version="1.0" encoding="UTF-8" standalone="no" ?>
<!DOCTYPE svg PUBLIC "-//W3C//DTD SVG 1.1//EN" "http://www.w3.org/Graphics/SVG/1.1/DTD/svg11.dtd">
<svg xmlns="http://www.w3.org/2000/svg" xmlns:xlink="http://www.w3.org/1999/xlink" version="1.1" width="1080" height="1080" viewBox="0 0 1080 1080" xml:space="preserve">
<desc>Created with Fabric.js 5.2.4</desc>
<defs>
</defs>
<rect x="0" y="0" width="100%" height="100%" fill="transparent"></rect>
<g transform="matrix(1 0 0 1 540 540)" id="2a851dde-57b1-4a24-ae50-b17299ce7d2c"  >
<rect style="stroke: none; stroke-width: 1; stroke-dasharray: none; stroke-linecap: butt; stroke-dashoffset: 0; stroke-linejoin: miter; stroke-miterlimit: 4; fill: rgb(255,255,255); fill-rule: nonzero; opacity: 1; visibility: hidden;" vector-effect="non-scaling-stroke"  x="-540" y="-540" rx="0" ry="0" width="1080" height="1080" />
</g>
<g transform="matrix(1 0 0 1 540 540)" id="e502ba02-ca85-4178-b827-e1d97f3fb3dc"  >
</g>
<g transform="matrix(1 0 0 1 540 527)"  >
<g style="" vector-effect="non-scaling-stroke"   >
		<g transform="matrix(1.73 0 0 1.73 8.42 57.07)"  >
<path style="stroke: none; stroke-width: 1; stroke-dasharray: none; stroke-linecap: butt; stroke-dashoffset: 0; stroke-linejoin: miter; stroke-miterlimit: 4; fill: rgb(235,179,5); fill-rule: nonzero; opacity: 1;" vector-effect="non-scaling-stroke"  transform=" translate(-236.38, -264.54)" d="M 236.234 300.093 C 242.758 300.093 247.685 297.81 251.297 293.11400000000003 C 255.013 288.28400000000005 256.897 281.87300000000005 256.897 274.059 L 256.897 254.79300000000003 C 256.897 247.13100000000003 254.992 240.79700000000003 251.233 235.96800000000005 C 247.573 231.26400000000004 242.643 228.97800000000004 236.162 228.97800000000004 C 229.697 228.97800000000004 224.847 231.24300000000002 221.333 235.90100000000004 C 217.704 240.71300000000005 215.864 247.06900000000005 215.864 254.79400000000004 L 215.864 274.06000000000006 C 215.864 281.8790000000001 217.727 288.29400000000004 221.401 293.12600000000003 C 224.961 297.813 229.814 300.093 236.234 300.093 z" stroke-linecap="round" />
</g>
		<g transform="matrix(1.73 0 0 1.73 0 0)"  >
<path style="stroke: none; stroke-width: 1; stroke-dasharray: none; stroke-linecap: butt; stroke-dashoffset: 0; stroke-linejoin: miter; stroke-miterlimit: 4; fill: rgb(235,179,5); fill-rule: nonzero; opacity: 1;" vector-effect="non-scaling-stroke"  transform=" translate(-231.5, -231.51)" d="M 400.444 220.561 C 403.76500000000004 210.053 405.445 199.139 405.445 188.038 C 405.445 128.50300000000001 357.01 80.06800000000001 297.476 80.06800000000001 C 261.366 80.06800000000001 227.36599999999999 98.48000000000002 207.47 128.46200000000002 C 192.172 117.53900000000002 173.673 111.57600000000002 154.803 111.57600000000002 C 104.82499999999999 111.57600000000002 64.16499999999999 152.23600000000002 64.16499999999999 202.21500000000003 C 64.16499999999999 208.14000000000004 64.74 214.03900000000004 65.877 219.81700000000004 C 27.97 227.549 0 261.358 0 300.538 C 0 345.976 36.966 382.942 82.403 382.942 L 380.608 382.942 C 426.045 382.942 463.01 345.975 463.01 300.538 C 463.01 262.331 437.021 229.555 400.444 220.561 z M 175.683 247.879 L 174.84799999999998 250.392 L 149.85899999999998 250.392 L 149.85899999999998 247.892 C 149.85899999999998 241.57 148.385 236.73 145.47699999999998 233.505 C 142.63599999999997 230.356 137.99199999999996 228.759 131.67299999999997 228.759 C 126.11099999999998 228.759 121.81799999999997 230.956 118.54799999999997 235.476 C 115.14099999999998 240.182 113.41399999999997 246.335 113.41399999999997 253.766 L 113.41399999999997 274.941 C 113.41399999999997 282.445 115.22699999999998 288.631 118.80299999999997 293.32899999999995 C 122.26699999999997 297.881 126.83399999999997 300.09399999999994 132.76499999999996 300.09399999999994 C 138.64099999999996 300.09399999999994 142.97599999999997 298.57399999999996 145.64799999999997 295.57599999999996 C 148.39299999999997 292.496 149.78499999999997 287.7 149.78499999999997 281.325 L 149.78499999999997 278.825 L 174.7 278.825 L 175.53699999999998 281.336 L 175.54299999999998 281.72 C 175.748 293.81500000000005 171.96499999999997 303.583 164.29899999999998 310.75500000000005 C 156.69099999999997 317.87300000000005 146.081 321.482 132.76399999999998 321.482 C 119.34899999999999 321.482 108.28199999999998 317.086 99.86799999999998 308.41400000000004 C 91.47299999999998 299.766 87.21699999999998 288.51900000000006 87.21699999999998 274.98900000000003 L 87.21699999999998 253.93900000000002 C 87.21699999999998 240.47400000000002 91.36599999999999 229.23700000000002 99.54999999999998 220.54200000000003 C 107.77599999999998 211.80300000000003 118.58299999999998 207.37200000000004 131.67199999999997 207.37200000000004 C 145.36199999999997 207.37200000000004 156.26999999999998 210.98500000000004 164.09199999999998 218.11200000000005 C 171.992 225.31100000000006 175.89299999999997 235.19800000000004 175.688 247.49800000000005 L 175.683 247.879 z M 283.166 273.968 C 283.166 287.59200000000004 278.775 299.033 270.115 307.97400000000005 C 261.434 316.93700000000007 250.036 321.48100000000005 236.234 321.48100000000005 C 222.525 321.48100000000005 211.209 316.934 202.601 307.96600000000007 C 194.019 299.02700000000004 189.667 287.5880000000001 189.667 273.9680000000001 L 189.667 254.88400000000007 C 189.667 241.31500000000008 194.004 229.89000000000007 202.559 220.92700000000008 C 211.145 211.93200000000007 222.45 207.3700000000001 236.161 207.3700000000001 C 249.96 207.3700000000001 261.372 211.92700000000008 270.079 220.9140000000001 C 278.76300000000003 229.8800000000001 283.166 241.3090000000001 283.166 254.8840000000001 L 283.166 273.968 z M 376.656 319.951 L 299.256 319.951 L 299.256 302.55400000000003 L 334.23499999999996 265.05100000000004 C 338.98499999999996 259.60100000000006 342.42999999999995 254.91800000000003 344.41999999999996 251.19400000000005 C 346.30299999999994 247.66900000000004 347.25699999999995 244.40100000000004 347.25699999999995 241.48200000000006 C 347.25699999999995 237.58900000000006 346.27099999999996 234.53200000000007 344.24299999999994 232.13400000000004 C 342.31999999999994 229.86300000000006 339.5969999999999 228.75900000000004 335.91799999999995 228.75900000000004 C 331.799 228.75900000000004 328.79099999999994 230.07100000000005 326.72099999999995 232.77000000000004 C 324.52799999999996 235.63300000000004 323.41399999999993 239.59400000000005 323.41399999999993 244.54100000000005 L 323.41399999999993 247.04100000000005 L 298.4289999999999 247.04100000000005 L 297.5919999999999 244.54200000000006 L 297.58199999999994 244.16700000000006 C 297.32199999999995 233.94200000000006 300.7369999999999 225.15700000000007 307.7339999999999 218.05800000000005 C 314.72099999999995 210.96600000000004 324.20399999999995 207.37000000000006 335.91799999999995 207.37000000000006 C 347.43499999999995 207.37000000000006 356.66299999999995 210.45700000000005 363.34899999999993 216.54400000000007 C 370.1019999999999 222.69300000000007 373.52599999999995 230.96100000000007 373.52599999999995 241.11700000000008 C 373.52599999999995 247.98800000000008 371.614 254.41400000000007 367.84099999999995 260.21600000000007 C 364.2579999999999 265.7270000000001 358.30199999999996 273.0060000000001 350.13699999999994 281.85400000000004 L 334.79099999999994 298.56300000000005 L 376.6569999999999 298.56300000000005 L 376.6569999999999 319.951 z" stroke-linecap="round" />
</g>
</g>
</g>
<g transform="matrix(NaN NaN NaN NaN 0 0)"  >
<g style=""   >
</g>
</g>
<g transform="matrix(NaN NaN NaN NaN 0 0)"  >
<g style=""   >
</g>
</g>
</svg>