<?xml version="1.0" standalone="no"?>
<svg xmlns:xlink="http://www.w3.org/1999/xlink" width="128" height="128" viewBox="0 0 48 48" xmlns="http://www.w3.org/2000/svg">
  <title fill="#ff8100" style="">chart-area-solid</title>
  <g id="Layer_2" data-name="Layer 2" fill="#ff8100" style="">
    <g id="invisible_box" data-name="invisible box" fill="#ff8100" style="">
      <rect width="48" height="48" fill="none"/>
    </g>
    <g id="icons_Q2" data-name="icons Q2" fill="#ff8100" style="">
      <path d="M41.9,33.3,36,18.4a1.9,1.9,0,0,0-2.7-1.1l-7.7,4.1a.9.9,0,0,1-1.1-.1L15.4,10.6A2,2,0,0,0,12,12V36H40A2.1,2.1,0,0,0,41.9,33.3Z" fill="#ff8100" style=""/>
      <path d="M42,40H8V6A2,2,0,0,0,4,6V44H42a2,2,0,0,0,0-4Z" fill="#ff8100" style=""/>
    </g>
  </g>
</svg>