<svg xmlns="http://www.w3.org/2000/svg" width="24.786" height="38.093" viewBox="0 0 24.786 38.093">
    <path data-name="Path 252" d="M3791.134 112.8a.6.6 0 0 0 .6-.6v-3.517a.6.6 0 0 0-1.208 0v3.517a.6.6 0 0 0 .608.6zm3.756 1.556c.323.175 2.669-2.513 2.914-2.663a.6.6 0 0 0-.854-.854l-2.487 2.487a.608.608 0 0 0 .427 1.033zm-7.939-.177c.545.562 1.417-.307.854-.853l-2.487-2.487a.6.6 0 0 0-.854.853zm-4.646 3.933h3.517a.6.6 0 1 0 0-1.207h-3.522a.6.6 0 0 0 0 1.21zm13.537-.6a.6.6 0 0 0 .6.6h3.517a.6.6 0 1 0 0-1.207h-3.517a.6.6 0 0 0-.6.607zm9.168 7.74a2.6 2.6 0 0 0-3.613-.716 2.614 2.614 0 0 0-3.906-1.3 2.612 2.612 0 0 0-3.761-1.393c-.131-2.186.884-6.875-2.6-6.861a2.6 2.6 0 0 0-2.6 2.6v15.224c-1.158-.48-4.021-2.333-5.325-2.2a2.507 2.507 0 0 0-1.758 4.254l8.419 8.42c5.13 5.663 15.743 2.584 15.592-5.513-.152-.967.408-11.998-.448-12.515zm-.863 12.515c.111 6.961-9.01 9.43-13.37 4.591l-8.42-8.42a1.2 1.2 0 0 1 .838-2.031c1.1-.1 4.914 2.376 5.977 2.6 1.427.759.324-16.675.652-16.928a1.3 1.3 0 0 1 2.6 0v12.371a.651.651 0 0 0 1.3 0v-5.86a1.3 1.3 0 0 1 2.6 0v5.86a.651.651 0 0 0 1.3 0v-4.55a1.3 1.3 0 0 1 2.6 0v4.558a.651.651 0 0 0 1.3 0c.175-1.143-.7-4.6 1.3-4.558a1.3 1.3 0 0 1 1.3 1.3z" transform="translate(-3780.713 -108.079)" style="fill:#191919;opacity:.2"/>
</svg>
