<svg xmlns="http://www.w3.org/2000/svg" width="26.379" height="26.38" viewBox="0 0 26.379 26.38">
  <defs>
    <style>
      .cls-1 {
        fill: #1582c8;
      }
    </style>
  </defs>
  <g id="Group_44" data-name="Group 44" transform="translate(-1282.807 -4540.31)">
    <g id="Group_43" data-name="Group 43">
      <path id="Path_11" data-name="Path 11" class="cls-1" d="M1294.283,4547.275a1.714,1.714,0,1,1,3.427,0v7.072a1.714,1.714,0,1,1-3.427,0Z"/>
      <path id="Path_12" data-name="Path 12" class="cls-1" d="M1296,4561.439a1.987,1.987,0,1,1,1.987-1.987A1.987,1.987,0,0,1,1296,4561.439Z"/>
    </g>
    <path id="Path_13" data-name="Path 13" class="cls-1" d="M1296,4566.69a13.19,13.19,0,1,1,13.19-13.19A13.2,13.2,0,0,1,1296,4566.69Zm0-25.38a12.19,12.19,0,1,0,12.19,12.19A12.2,12.2,0,0,0,1296,4541.31Z"/>
  </g>
</svg>
