<svg xmlns="http://www.w3.org/2000/svg" width="17.743" height="20.246" viewBox="0 0 17.743 20.246">
    <defs>
        <style>
            .cls-1{fill:#2d9483}
        </style>
    </defs>
    <g id="Group_54" transform="translate(-2991.654 -558.071)">
        <g id="Group_53">
            <path id="Path_150" d="M3001.178 559.4a6.212 6.212 0 0 1 3.128 1.164 5.9 5.9 0 0 1 2.558 4.639c.05.928.1 1.859.208 2.781a5.093 5.093 0 0 0 1.663 3.234 1.9 1.9 0 0 1 .662 1.42 1.848 1.848 0 0 1-1.763 1.892c-.768.033-1.539.017-2.309.017h-10.835c-.355 0-.71.009-1.063-.018a1.787 1.787 0 0 1-1.63-1.2 1.719 1.719 0 0 1 .388-1.942 5.31 5.31 0 0 0 1.557-2.359 16.435 16.435 0 0 0 .386-2.128c.071-.587.048-1.184.08-1.776a5.767 5.767 0 0 1 1.4-3.51 6.325 6.325 0 0 1 4.113-2.194c.129-.018.172-.063.167-.187-.008-.177-.007-.355 0-.532a.634.634 0 0 1 .663-.625.621.621 0 0 1 .624.635c.008.217.003.439.003.689zm-.663 13.843h6.86a1.109 1.109 0 0 0 .251-.025.553.553 0 0 0 .308-.927c-.151-.174-.314-.338-.474-.505a6.245 6.245 0 0 1-1.546-2.919 14.943 14.943 0 0 1-.341-3.368 4.529 4.529 0 0 0-.461-2.053 4.843 4.843 0 0 0-3.5-2.678 5 5 0 0 0-5 1.664 4.658 4.658 0 0 0-1.136 3.024c-.037.944-.094 1.891-.222 2.825a6.051 6.051 0 0 1-1.227 3c-.257.325-.555.617-.837.921a.579.579 0 0 0-.188.663.6.6 0 0 0 .6.385h6.9z" class="cls-1"/>
            <path id="Path_151" d="M2999.273 575.8a1.275 1.275 0 0 0 1.216 1.231c.679.022 1.141-.413 1.308-1.245h1.252a2.475 2.475 0 0 1-2.313 2.524 2.513 2.513 0 0 1-2.736-2.51z" class="cls-1"/>
        </g>
    </g>
</svg>
