<svg xmlns="http://www.w3.org/2000/svg" width="405.059" height="154.009">
    <defs>
        <style>
            .cls-1{fill:#201d1d}.cls-2{fill:#b9c420}
        </style>
    </defs>
    <g id="Group_44" data-name="Group 44" transform="translate(-106.889 -103.991)">
        <path id="Path_159" data-name="Path 159" class="cls-1" d="M195.232 105.719c1.934 2.132 2.4 4.864 3.6 7.329-3.465 4.333-8.729 6.332-13.26 9.131-1.534.333-2.066 1.466-3.531 2.066-2.267-.934-5.8-1.934-5.8-5.065-1.267-2.2-2.8-4.2-2.8-6.864 3.73-4.2 9.93-3.331 13.926-7.4 2.132 0 3.532-1.733 5.6-.466.6.664 1.266 1.4 2.266 1.265"/>
        <path id="Path_160" data-name="Path 160" class="cls-1" d="M180.772 132.108c3.732-.534 8.2-2.2 11.194 1 1.134.667.867 1.865 1.267 2.8-.334.666-.6 2.333-2.066 2.531-1.6-.2-3.2 1.2-4.8 1.8.867.4 2.531 1.2 2.8 2.534 1.135 1.531 0 3.666 0 5.065-1.066 3.4-6 3.063-5.6 7.33-5.33 2-8.6 7.263-14.461 7.93-3.4 2.93-7.53 5.131-10.194 8.861-1.2-10.062 6.129-19.791 14.725-24.388-.531-2.333-4.065-3.465-4.065-6.065a9.531 9.531 0 0 1-2.532-6.33c3.466-2.666 7-6.264 11.729-4.864.333.732 1.465.865 2 1.8"/>
        <path id="Path_161" data-name="Path 161" class="cls-2" d="M213.558 160.5c0-.4-.532-.667-.8-1-1.135.267-1.867-.531-2.8.267-.333-1.933-3.8-.4-4.332-2.266 3.066-.8 6.2.933 7.93 3"/>
        <path id="Path_162" data-name="Path 162" class="cls-2" d="m209.226 161.295.265-1-.529-.534z"/>
        <path id="Path_163" data-name="Path 163" class="cls-2" d="M214.824 161.562a3.158 3.158 0 0 1-2.333 2.532l1.066-2.066a.508.508 0 0 0 .2.534c.667 0 .733-.867 1.066-1"/>
        <path id="Path_164" data-name="Path 164" class="cls-2" d="M210.759 161.829c-.066.466-.8.8-.534 1.466.534-.334 1.6.534 1.534 1.266.066.268-.133.4-.267.532a.961.961 0 0 0-1.267-.732l-.265.2c-.066 1.268.2-.6-.267-.732-2.733.333-.733 3.264-3.531 3.33.132-.8.732-1 1.264-1.33-.733-1.868-1.732.333-2.8 0l1-1-.2-.268c.265-.066 2.132.334 2.264-1 .733 1.333 1.667-.267 2.267-.733-.066-.534.066-1.333.8-1"/>
        <path id="Path_165" data-name="Path 165" class="cls-2" d="M202.629 166.893a.794.794 0 0 1 .267-1.266 2.379 2.379 0 0 0-.267 1.266"/>
        <path id="Path_166" data-name="Path 166" class="cls-2" d="M182.3 173.957c-1.333 0-2.6-.132-3.531 1.066l-.267-.267c.2-1.265 2.666-.667 3.8-1.532z"/>
        <path id="Path_167" data-name="Path 167" class="cls-2" d="M174.707 180.821a1.262 1.262 0 0 1-1.267.534 1.17 1.17 0 0 1 1.267-.534"/>
        <path id="Path_168" data-name="Path 168" class="cls-2" d="M160.713 182.887c-.534-.067-1.333.2-1.8-.267.466-.6 1.333.066 1.8-.532z"/>
        <path id="Path_169" data-name="Path 169" class="cls-2" d="M147.52 184.887h.732c.466-.267.466-.669.8-1a1.715 1.715 0 0 0-1.531 1m2.063-2h-.8l.8.465zm6.332-27.457c-1.6 5.732-6.874 4.056-11.14 6.653.134.468-1.484.634-2.618.835l-1.311.582c-4.663.6-7.454 3.659-11.586 5.658.067 1.733-2.332.8-3.332 1.8-.535 1.534-3.267.868-2.534 2.8-1.931 1.333-4.6 2.534-5.33 4.8 2.2 1.933 5.264 1.534 7.864 2.267 8.329.732 15.46-.2 23.123-.267 2.267-.4 4.465-1.2 6.864-1.267v.267c1.8.534 2.931-1.466 4.8-.733 1.334-1.465 3.8-.2 5.066-1.8 2.465-.867 5.93-.267 7.861-1.534v.535c-.865-.334-.532.666-1 1 .468.466 1.2.2 1.8.265 2.664-2.931 5 .8 7.6-2.531a6.906 6.906 0 0 1 4.33-2.532l.535.733c.8-2.465 3.531-1.466 5.065-2.8-1.069.2-1.2 1.931-2.8 1.265 1 1.933-1.664 2-2.264 3.066-.535.134-2 .066-1.8-1-.735.664-.6 2.865-2.066 2-1.666.535-4.065 1-5.8 2.066-2.066.267-4.8 1.465-7.131 1-1.865 1-3.8.733-5.864 1.534-2.667.667-6.531.532-8.864 2-.8-.066-.466 1.069-1.264 1.069.732.066.6 2.33 1.8 1.264-.534.132-.933.8-1.267 0-1.066.267-2.264 1.733-3.33.468-1.666.931-3.867.331-5.8.532v-.532c1.4 1.132.865-.933 2-1.267v-.732c-3.267 1.132-6.8.732-10.131 2.264 1 2-1.865.468-2.531 1.267-.133-.4.267-.535.465-.733-4.264-1.333-6.4 1.466-11.128.466l-.534 1c-2.132-1.2-4.865 1.333-6.864-.2-2.4-.4-5.4-1.066-6.33-3.33-.865.334-1-.465-1.267-1 .468-2.266-3.6-3.131-1.8-5.6-1.333-1.534.334-3.065.535-4.531.333-.267.333-.666.465-1.068l.534.534c1-.8 1.133-2 1.532-3.066l3.066-3.264c-.066.2.066.333.2.466.468 0 .735-.466 1.069-.733-.4-1.2.465-1.534 1.264-2.066.6-.132 1.466.334 1.733-.468-.667-1.6 2.132.069 2.065-1.8 2.2.2 2.733-2.532 5.066-2 2.933-3.134 7.464-3.4 10.929-5.866 5.931-2 16.392-6.529 20.058 2.266"/>
        <path id="Path_170" data-name="Path 170" class="cls-2" d="M134.324 186.152c-.132.333-.532.267-.733.267v-.534c.2 0 .6-.066.733.267"/>
        <path id="Path_171" data-name="Path 171" class="cls-2" d="M200.81 166.788c-.4.4-1.066 1.2-1.531.535h-.268a2.422 2.422 0 0 1 1.8-.535"/>
        <path id="Path_172" data-name="Path 172" class="cls-1" d="M161.513 200.413c.934 5.132-1.532 9.462-4.333 13.4l-1.264.267.265-.267-.265-.2c-2.2 2.865-4.933 5.2-5.6 8.864a1.818 1.818 0 0 0-1 .534c-.666-2.2-2.066-4.867-.8-6.864-.466-6.333 2.4-10.8 5.332-16 1.865-1.2 3.8-4.465 5.864-2.8z"/>
        <path id="Path_173" data-name="Path 173" class="cls-1" d="M149.584 241c.8 1.732.534 3.266.2 5.065a6.175 6.175 0 0 1-3.534-.733l-.264.265c-1.333-.865-2.6-1.865-2.8-3.6-.6-2.333 2.4-1.865 2.8-3.8a11.97 11.97 0 0 1 3.6 2.8"/>
        <path id="Path_174" data-name="Path 174" class="cls-1" d="M227.806 216.8v9.772c-2.485 1.326-12.313 2.211-14.687 2.211-13.417 0-17.89-7.068-17.89-19.877 0-13.253 5.689-19.6 19.05-19.6a43.559 43.559 0 0 1 13.527 2.155v8.889h-2.981l-.166-1.6c-.773-6.182-3.533-7.4-10.38-7.4-10.214 0-13.308 7.454-13.308 16.621 0 10.049 1.824 18.938 13.583 18.938 8.505 0 9.388-2.373 10.1-10.105z"/>
        <path id="Path_175" data-name="Path 175" class="cls-1" d="M248.3 209.437c0 9.275 2.152 17.834 13.25 17.834s13.252-8.559 13.252-17.834-2.155-17.779-13.252-17.779-13.25 8.5-13.25 17.779m-5.633 0c0-13.97 4.529-19.712 18.883-19.712s18.885 5.742 18.885 19.712c0 13.857-3.867 19.767-18.885 19.767-14.3 0-18.883-5.854-18.883-19.767"/>
        <path id="Path_176" data-name="Path 176" class="cls-1" d="M328.582 196.192h-.1l-13.466 31.97a.6.6 0 0 1-1.145.056L300.406 196.8h-.1v25.894c0 3.534.9 3.756 4.572 3.756v1.877c-1.939-.056-3.875-.056-5.813-.109-1.939.053-3.878.053-5.816.109v-1.877c3.678 0 4.571-.222 4.571-3.756V195.64c0-3.589-1.043-3.755-4.571-3.755v-1.878c1.491.057 2.933.057 4.424.112 1.491-.055 2.931-.055 4.422-.112l13.516 30.757 13.268-30.757c1.491.057 2.982.057 4.473.112 1.491-.055 2.981-.055 4.472-.112v1.878c-3.676 0-4.77.112-4.77 3.755v27.054c0 3.59.893 3.756 4.77 3.756v1.877c-2.335-.056-4.671-.056-7.006-.109-2.336.053-4.671.053-7.007.109v-1.877c3.875 0 4.77-.166 4.77-3.756z"/>
        <path id="Path_177" data-name="Path 177" class="cls-1" d="M363.64 209.292h2.7c6.9 0 11.652-.331 11.652-8.668 0-8.006-2.707-8.67-8.945-8.67h-5.407zm0 13.362c0 2.981-.056 3.755 5.3 3.755v1.877c-2.6-.056-5.19-.056-7.785-.112-2.6.056-5.19.056-7.785.112v-1.877c5.355 0 5.3-.774 5.3-3.755V195.6c0-2.982.053-3.756-5.3-3.756v-1.877c2.6.056 5.19.056 7.785.109 3.811-.053 7.619-.053 11.43-.109 7.012-.166 10.932 1.987 10.932 9.662 0 10.381-5.91 11.6-14.8 11.6h-5.077z"/>
        <path id="Path_178" data-name="Path 178" class="cls-1" d="m416.88 209.3-5.521-14.191-6.072 14.743H417.1zm-2.208-19.16 11.6 30.313c.606 1.6 2.04 6.35 6.4 6.017v1.877c-2.539-.053-5.025-.053-7.564-.109-2.539.056-5.081.056-7.62.109v-1.987s4.8.11 4.8-2.152a8.312 8.312 0 0 0-.886-3.037l-3.587-9.22h-13.25l-3.424 9.55a9.466 9.466 0 0 0-.5 2.43c0 2.485 2.76 2.429 4.582 2.429v1.987c-2.155-.053-4.363-.053-6.516-.109-2.152.056-4.363.056-6.515.109v-1.987c1.877-.221 2.872 0 4.195-1.6a46.425 46.425 0 0 0 2.76-5.8l11.874-28.822z"/>
        <path id="Path_179" data-name="Path 179" class="cls-1" d="M460.113 206.932c5.246 1.878 9.881 4.252 9.881 10.658 0 9-7.507 11.372-15.127 11.372a29.124 29.124 0 0 1-11.927-2.374V216.6h3.7c.552 5.411-.83 10.489 8.942 10.489 4.86 0 9.442-2.208 9.442-7.729 0-6.129-5.964-7.507-10.711-9.166-5.19-1.875-9.828-3.753-9.828-10.159 0-7.342 5.963-10.545 12.588-10.545a31.716 31.716 0 0 1 11.375 2.1v9.054h-3.091c-.552-4.251.44-9.054-8.062-9.054-4.417 0-8.007 1.931-8.007 6.79 0 3.259 1.547 5.081 4.473 6.294z"/>
        <path id="Path_180" data-name="Path 180" class="cls-1" d="M502.065 206.291c5.246 1.878 9.883 4.252 9.883 10.658 0 9-7.51 11.372-15.129 11.372a29.115 29.115 0 0 1-11.927-2.374v-9.993h3.7c.554 5.411-.827 10.49 8.945 10.49 4.859 0 9.444-2.209 9.444-7.73 0-6.128-5.964-7.507-10.714-9.166-5.19-1.875-9.827-3.753-9.827-10.159 0-7.342 5.963-10.545 12.59-10.545a31.714 31.714 0 0 1 11.373 2.1V200h-3.091c-.553-4.251.442-9.054-8.063-9.054-4.416 0-8 1.931-8 6.79 0 3.259 1.545 5.081 4.47 6.294z"/>
        <path id="Path_181" data-name="Path 181" class="cls-1" d="M293.8 254.124c0-1.4-.023-1.511-2.628-1.511v-.743c1.577.02 2.605.02 3.635.043 1.028-.023 2.058-.023 2.671-.043v.723c-1.663.086-1.707.394-1.707 1.531v2.035a2.9 2.9 0 0 0 .087.878 19.22 19.22 0 0 1-6 .962c-5.274 0-7.114-2.692-7.114-7.727 0-5.167 2.168-7.815 7.661-7.925a17.32 17.32 0 0 1 5.365.853v3.526h-1.292c-.242-3.043-1.03-3.57-4.073-3.57-4.442-.129-5.384 3.46-5.384 7.2 0 4.05 1.028 6.851 5.473 6.851a6.834 6.834 0 0 0 3.3-.852z"/>
        <path id="Path_182" data-name="Path 182" class="cls-1" d="M319.764 249.462a5.6 5.6 0 0 0 1.05.043c2.387 0 4.621-.089 4.621-3.109 0-2.386-.942-2.976-3.2-2.976-.832 0-1.641.043-2.473.066zm0 6.129c0 1.183-.023 1.488 2.1 1.488v.746c-1.028-.023-2.058-.023-3.086-.046-1.03.023-2.058.023-3.086.046v-.746c2.122 0 2.1-.305 2.1-1.488v-10.726c0-1.183.02-1.488-2.1-1.488v-.746c1.028.023 2.056.023 3.086.043.481 0 3.086-.043 4.137-.043 2.737 0 4.729.176 4.729 3.414 0 2.562-1.488 3.59-3.874 3.855.656 1.071 3.238 4.925 3.874 5.757.591.743.962 1.336 2.122 1.422v.746c-.524-.023-1.05-.023-1.575-.046-.526.023-1.073.023-1.6.046-1.489-2.387-4.554-7.226-5.234-7.467a4.952 4.952 0 0 0-1.6-.153z"/>
        <path id="Path_183" data-name="Path 183" class="cls-1" d="M350.572 250.162c0 3.678.852 7.07 5.254 7.07s5.253-3.392 5.253-7.07-.855-7.05-5.253-7.05-5.254 3.373-5.254 7.05m-2.234 0c0-5.539 1.794-7.816 7.488-7.816s7.484 2.277 7.484 7.816c0 5.495-1.531 7.838-7.484 7.838-5.671 0-7.488-2.323-7.488-7.838"/>
        <path id="Path_184" data-name="Path 184" class="cls-1" d="M386.52 252.854c-.043 2.911 1.181 4.356 4.18 4.356 3.219 0 4.75-1.313 4.75-4.684v-7.663c0-1.29-.02-1.488-2.363-1.488v-.743c.9.02 1.816.02 2.714.043.9-.023 1.817-.023 2.715-.043v.743c-2.012 0-1.969.374-1.969 1.488v7.64c0 4.269-2.32 5.495-6.523 5.495-3.417 0-5.475-1.379-5.475-4.9v-8.233c0-1.137.043-1.488-1.992-1.488v-.743c.921.02 1.949.02 2.979.043 1.028-.023 2.056-.023 3.086-.043v.743c-2.124 0-2.1.308-2.1 1.488z"/>
        <path id="Path_185" data-name="Path 185" class="cls-1" d="M420.958 250.294h1.072c2.737 0 4.62-.132 4.62-3.437 0-3.175-1.074-3.437-3.547-3.437h-2.145zm0 5.3c0 1.183-.022 1.488 2.1 1.488v.746c-1.03-.023-2.058-.023-3.086-.046-1.031.023-2.058.023-3.089.046v-.746c2.125 0 2.1-.305 2.1-1.488v-10.729c0-1.183.023-1.488-2.1-1.488v-.746c1.031.023 2.058.023 3.089.043 1.509-.02 3.02-.02 4.531-.043 2.781-.066 4.335.789 4.335 3.832 0 4.113-2.343 4.6-5.869 4.6h-2.013z"/>
        <path id="Path_186" data-name="Path 186" class="cls-2" d="M193.8 172.643c-.535-.066-1.334.2-1.8-.267.465-.6 1.333.066 1.8-.532z"/>
        <path id="Path_187" data-name="Path 187" class="cls-2" d="M197.611 168.987c-1.333 0-2.6-.132-3.531 1.066l-.267-.267c.2-1.264 2.666-.666 3.8-1.531z"/>
        <path id="Path_188" data-name="Path 188" class="cls-2" d="M202.371 168.835c-.534-.066-1.333.2-1.8-.267.465-.6 1.333.068 1.8-.532z"/>
        <path id="Path_189" data-name="Path 189" class="cls-2" d="m199.039 170.177.265-1-.529-.534z"/>
    </g>
</svg>
