<svg xmlns="http://www.w3.org/2000/svg" width="405.06" height="154.009">
    <defs>
        <style>
            .cls-1{fill:#fff}.cls-2{fill:#b9c420}
        </style>
    </defs>
    <g id="Group_43" data-name="Group 43" transform="translate(-2010.236 -97.259)">
        <path id="Path_128" data-name="Path 128" class="cls-1" d="M2098.579 98.987c1.934 2.132 2.4 4.864 3.6 7.329-3.465 4.333-8.729 6.333-13.26 9.131-1.534.333-2.066 1.466-3.531 2.066-2.267-.934-5.8-1.934-5.8-5.065-1.267-2.2-2.8-4.2-2.8-6.864 3.73-4.2 9.93-3.331 13.927-7.4 2.132 0 3.531-1.733 5.6-.466.6.664 1.267 1.4 2.266 1.265"/>
        <path id="Path_129" data-name="Path 129" class="cls-1" d="M2084.119 125.376c3.732-.534 8.2-2.2 11.194 1 1.135.667.867 1.865 1.267 2.8-.333.666-.6 2.333-2.066 2.531-1.6-.2-3.2 1.2-4.8 1.8.867.4 2.531 1.2 2.8 2.534 1.135 1.531 0 3.666 0 5.065-1.066 3.4-6 3.063-5.6 7.33-5.33 2-8.6 7.263-14.461 7.93-3.4 2.931-7.53 5.131-10.194 8.861-1.2-10.062 6.129-19.791 14.726-24.388-.532-2.333-4.066-3.465-4.066-6.065a9.53 9.53 0 0 1-2.531-6.33c3.465-2.666 7-6.264 11.728-4.864.333.732 1.465.865 2 1.8"/>
        <path id="Path_130" data-name="Path 130" class="cls-1" d="M2064.86 193.681c.934 5.132-1.531 9.462-4.332 13.4l-1.265.267.265-.267-.265-.2c-2.2 2.865-4.933 5.2-5.6 8.864a1.817 1.817 0 0 0-1 .534c-.666-2.2-2.066-4.867-.8-6.864-.466-6.332 2.4-10.8 5.332-15.995 1.865-1.2 3.8-4.465 5.865-2.8z"/>
        <path id="Path_131" data-name="Path 131" class="cls-1" d="M2052.931 234.264c.8 1.733.535 3.267.2 5.065a6.169 6.169 0 0 1-3.533-.732l-.265.264c-1.333-.865-2.6-1.865-2.8-3.6-.6-2.333 2.4-1.865 2.8-3.8a11.971 11.971 0 0 1 3.6 2.8"/>
        <path id="Path_132" data-name="Path 132" class="cls-1" d="M2131.154 210.073v9.772c-2.486 1.326-12.314 2.211-14.688 2.211-13.417 0-17.89-7.068-17.89-19.877 0-13.253 5.689-19.6 19.051-19.6a43.564 43.564 0 0 1 13.527 2.155v8.889h-2.982l-.165-1.6c-.774-6.183-3.534-7.4-10.38-7.4-10.215 0-13.309 7.455-13.309 16.621 0 10.049 1.824 18.938 13.583 18.938 8.505 0 9.388-2.373 10.106-10.1z"/>
        <path id="Path_133" data-name="Path 133" class="cls-1" d="M2151.65 202.705c0 9.276 2.152 17.834 13.25 17.834s13.252-8.558 13.252-17.834-2.152-17.779-13.252-17.779-13.25 8.5-13.25 17.779m-5.633 0c0-13.97 4.529-19.712 18.883-19.712s18.885 5.742 18.885 19.712c0 13.858-3.867 19.768-18.885 19.768-14.3 0-18.883-5.855-18.883-19.768"/>
        <path id="Path_134" data-name="Path 134" class="cls-1" d="M2231.93 189.46h-.1l-13.466 31.97a.6.6 0 0 1-1.145.056l-13.466-31.417h-.1v25.894c0 3.533.9 3.755 4.572 3.755v1.882c-1.939-.056-3.875-.056-5.813-.109-1.939.053-3.878.053-5.816.109v-1.877c3.679 0 4.572-.222 4.572-3.755v-27.06c0-3.589-1.043-3.755-4.572-3.755v-1.877c1.491.056 2.933.056 4.424.112 1.491-.056 2.931-.056 4.422-.112l13.517 30.756 13.267-30.756c1.491.056 2.982.056 4.473.112 1.491-.056 2.982-.056 4.472-.112v1.877c-3.676 0-4.77.112-4.77 3.755v27.055c0 3.589.893 3.755 4.77 3.755v1.882c-2.335-.056-4.671-.056-7.006-.109-2.336.053-4.671.053-7.007.109v-1.877c3.875 0 4.771-.166 4.771-3.755z"/>
        <path id="Path_135" data-name="Path 135" class="cls-1" d="M2266.987 202.56h2.7c6.9 0 11.652-.331 11.652-8.668 0-8.006-2.707-8.67-8.945-8.67h-5.412zm0 13.362c0 2.982-.056 3.755 5.3 3.755v1.878c-2.6-.056-5.19-.056-7.785-.112-2.595.056-5.19.056-7.785.112v-1.878c5.355 0 5.3-.773 5.3-3.755v-27.054c0-2.982.053-3.755-5.3-3.755v-1.878c2.595.056 5.19.056 7.785.109 3.811-.053 7.619-.053 11.43-.109 7.012-.165 10.933 1.987 10.933 9.663 0 10.38-5.91 11.6-14.8 11.6h-5.081z"/>
        <path id="Path_136" data-name="Path 136" class="cls-1" d="m2320.227 202.565-5.52-14.191-6.073 14.743h11.815zm-2.208-19.16 11.6 30.313c.606 1.6 2.041 6.35 6.4 6.017v1.878c-2.539-.054-5.025-.054-7.564-.11-2.539.056-5.081.056-7.62.11v-1.987s4.8.109 4.8-2.153a8.3 8.3 0 0 0-.886-3.037l-3.587-9.22h-13.25l-3.424 9.55a9.518 9.518 0 0 0-.5 2.43c0 2.486 2.76 2.43 4.582 2.43v1.987c-2.155-.054-4.363-.054-6.516-.11-2.152.056-4.363.056-6.515.11v-1.987c1.877-.222 2.872 0 4.195-1.6a46.549 46.549 0 0 0 2.761-5.8l11.873-28.822z"/>
        <path id="Path_137" data-name="Path 137" class="cls-1" d="M2363.46 200.2c5.246 1.878 9.882 4.252 9.882 10.658 0 9-7.508 11.372-15.128 11.372a29.124 29.124 0 0 1-11.927-2.374v-9.993h3.7c.552 5.411-.829 10.489 8.943 10.489 4.859 0 9.441-2.208 9.441-7.729 0-6.128-5.964-7.507-10.711-9.166-5.19-1.875-9.828-3.753-9.828-10.159 0-7.342 5.964-10.545 12.588-10.545a31.713 31.713 0 0 1 11.375 2.1v9.054h-3.091c-.552-4.251.44-9.054-8.062-9.054-4.417 0-8.007 1.931-8.007 6.79 0 3.259 1.547 5.081 4.473 6.294z"/>
        <path id="Path_138" data-name="Path 138" class="cls-1" d="M2405.412 199.56c5.246 1.877 9.884 4.251 9.884 10.657 0 9-7.511 11.372-15.13 11.372a29.13 29.13 0 0 1-11.927-2.373v-9.994h3.7c.555 5.411-.827 10.49 8.945 10.49 4.859 0 9.444-2.209 9.444-7.729 0-6.129-5.963-7.508-10.713-9.167-5.19-1.875-9.828-3.753-9.828-10.159 0-7.342 5.963-10.545 12.591-10.545a31.713 31.713 0 0 1 11.372 2.1v9.054h-3.091c-.552-4.251.442-9.054-8.063-9.054-4.416 0-8 1.931-8 6.79 0 3.259 1.544 5.081 4.47 6.294z"/>
        <path id="Path_139" data-name="Path 139" class="cls-1" d="M2197.143 247.392c0-1.4-.023-1.511-2.628-1.511v-.743c1.577.02 2.605.02 3.635.043 1.028-.023 2.058-.023 2.672-.043v.723c-1.664.086-1.708.394-1.708 1.531v2.035a2.906 2.906 0 0 0 .087.878 19.189 19.189 0 0 1-6 .962c-5.274 0-7.113-2.692-7.113-7.727 0-5.167 2.167-7.815 7.66-7.925a17.32 17.32 0 0 1 5.365.853v3.526h-1.292c-.242-3.043-1.03-3.569-4.073-3.569-4.442-.13-5.383 3.459-5.383 7.2 0 4.05 1.027 6.851 5.472 6.851a6.834 6.834 0 0 0 3.305-.852z"/>
        <path id="Path_140" data-name="Path 140" class="cls-1" d="M2223.111 242.73a5.6 5.6 0 0 0 1.051.043c2.386 0 4.62-.088 4.62-3.108 0-2.387-.942-2.977-3.2-2.977-.832 0-1.641.043-2.473.066zm0 6.129c0 1.183-.023 1.488 2.1 1.488v.746c-1.027-.023-2.058-.023-3.086-.046-1.03.023-2.058.023-3.086.046v-.746c2.122 0 2.1-.3 2.1-1.488v-10.726c0-1.183.02-1.488-2.1-1.488v-.745c1.028.023 2.056.023 3.086.044.481 0 3.086-.044 4.137-.044 2.738 0 4.73.176 4.73 3.415 0 2.561-1.489 3.589-3.875 3.854.656 1.071 3.239 4.925 3.875 5.757.59.743.961 1.336 2.121 1.422v.746c-.524-.023-1.05-.023-1.574-.046-.527.023-1.074.023-1.6.046-1.488-2.387-4.554-7.225-5.233-7.467a4.957 4.957 0 0 0-1.6-.153z"/>
        <path id="Path_141" data-name="Path 141" class="cls-1" d="M2253.919 243.43c0 3.678.852 7.07 5.254 7.07s5.253-3.392 5.253-7.07-.854-7.05-5.253-7.05-5.254 3.373-5.254 7.05m-2.234 0c0-5.539 1.794-7.816 7.488-7.816s7.485 2.277 7.485 7.816c0 5.5-1.532 7.838-7.485 7.838-5.671 0-7.488-2.323-7.488-7.838"/>
        <path id="Path_142" data-name="Path 142" class="cls-1" d="M2289.868 246.122c-.044 2.911 1.18 4.356 4.18 4.356 3.218 0 4.749-1.313 4.749-4.684v-7.663c0-1.29-.02-1.488-2.363-1.488v-.743c.9.02 1.816.02 2.715.043.9-.023 1.816-.023 2.714-.043v.743c-2.012 0-1.969.374-1.969 1.488v7.64c0 4.269-2.32 5.5-6.523 5.5-3.417 0-5.475-1.378-5.475-4.9v-8.233c0-1.137.043-1.488-1.992-1.488v-.75c.921.02 1.949.02 2.979.043 1.028-.023 2.056-.023 3.086-.043v.743c-2.124 0-2.1.308-2.1 1.488z"/>
        <path id="Path_143" data-name="Path 143" class="cls-1" d="M2324.306 243.562h1.071c2.737 0 4.62-.132 4.62-3.437 0-3.175-1.074-3.437-3.547-3.437h-2.144zm0 5.3c0 1.183-.023 1.488 2.1 1.488v.746c-1.03-.023-2.058-.023-3.086-.046-1.03.023-2.058.023-3.089.046v-.746c2.125 0 2.1-.3 2.1-1.488v-10.729c0-1.183.023-1.488-2.1-1.488v-.745c1.031.023 2.059.023 3.089.044 1.509-.021 3.02-.021 4.531-.044 2.781-.066 4.335.789 4.335 3.832 0 4.114-2.343 4.6-5.869 4.6h-2.012z"/>
        <g id="Group_42" data-name="Group 42">
            <path id="Path_144" data-name="Path 144" class="cls-2" d="M2116.905 153.764c0-.4-.532-.666-.8-1-1.135.267-1.867-.531-2.8.267-.334-1.933-3.8-.4-4.333-2.266 3.066-.8 6.2.933 7.93 3"/>
            <path id="Path_145" data-name="Path 145" class="cls-2" d="m2112.573 154.563.264-1-.529-.534z"/>
            <path id="Path_146" data-name="Path 146" class="cls-2" d="M2118.171 154.83a3.156 3.156 0 0 1-2.333 2.532l1.066-2.066a.507.507 0 0 0 .2.534c.667 0 .733-.867 1.066-1"/>
            <path id="Path_147" data-name="Path 147" class="cls-2" d="M2114.106 155.1c-.066.466-.8.8-.534 1.466.534-.334 1.6.534 1.534 1.267.066.267-.132.4-.267.531a.961.961 0 0 0-1.267-.732l-.265.2c-.066 1.267.2-.6-.267-.733-2.732.333-.733 3.264-3.531 3.33.132-.8.732-1 1.264-1.33-.733-1.868-1.732.333-2.8 0l1-1-.2-.267c.265-.067 2.132.333 2.264-1 .733 1.333 1.667-.267 2.267-.733-.066-.534.066-1.333.8-1"/>
            <path id="Path_148" data-name="Path 148" class="cls-2" d="M2105.977 160.162a.794.794 0 0 1 .267-1.267 2.36 2.36 0 0 0-.267 1.267"/>
            <path id="Path_149" data-name="Path 149" class="cls-2" d="M2085.652 167.225c-1.334 0-2.6-.132-3.532 1.066l-.267-.267c.2-1.265 2.666-.667 3.8-1.532z"/>
            <path id="Path_150" data-name="Path 150" class="cls-2" d="M2078.055 174.089a1.26 1.26 0 0 1-1.267.534 1.168 1.168 0 0 1 1.267-.534"/>
            <path id="Path_151" data-name="Path 151" class="cls-2" d="M2064.06 176.155c-.534-.066-1.333.2-1.8-.267.466-.6 1.334.066 1.8-.532z"/>
            <path id="Path_152" data-name="Path 152" class="cls-2" d="M2050.867 178.155h.732c.466-.267.466-.669.8-1a1.714 1.714 0 0 0-1.531 1m2.063-2h-.8l.8.465zm6.332-27.456c-1.6 5.731-6.874 4.055-11.14 6.652.135.469-1.484.634-2.618.835l-1.31.582c-4.664.6-7.455 3.659-11.586 5.659.066 1.732-2.333.8-3.333 1.8-.534 1.534-3.267.868-2.534 2.8-1.931 1.333-4.6 2.534-5.33 4.8 2.2 1.934 5.264 1.534 7.864 2.267 8.329.733 15.46-.2 23.123-.267 2.267-.4 4.465-1.2 6.864-1.267v.267c1.8.534 2.931-1.465 4.8-.733 1.333-1.465 3.8-.2 5.065-1.8 2.465-.868 5.93-.268 7.861-1.535v.535c-.865-.334-.531.666-1 1 .469.465 1.2.2 1.8.264 2.663-2.931 5 .8 7.6-2.531a6.911 6.911 0 0 1 4.33-2.532l.535.733c.8-2.465 3.531-1.465 5.065-2.8-1.068.2-1.2 1.931-2.8 1.265 1 1.933-1.664 2-2.264 3.066-.535.134-2 .066-1.8-1-.735.664-.6 2.865-2.066 2-1.666.535-4.065 1-5.8 2.066-2.066.267-4.8 1.466-7.131 1-1.865 1-3.8.733-5.864 1.534-2.666.667-6.531.532-8.864 2-.8-.066-.465 1.069-1.264 1.069.732.066.6 2.33 1.8 1.264-.534.133-.933.8-1.267 0-1.066.267-2.264 1.733-3.33.468-1.666.931-3.867.331-5.8.532v-.532c1.4 1.133.865-.933 2-1.267v-.732c-3.267 1.132-6.8.732-10.131 2.264 1 2-1.865.468-2.531 1.267-.133-.4.267-.534.465-.733-4.264-1.333-6.4 1.466-11.128.466l-.534 1c-2.132-1.2-4.864 1.333-6.864-.2-2.4-.4-5.4-1.066-6.33-3.331-.865.334-1-.465-1.267-1 .468-2.267-3.6-3.132-1.8-5.6-1.334-1.535.333-3.066.534-4.532.333-.267.333-.666.465-1.068l.535.534c1-.8 1.132-2 1.531-3.065l3.066-3.265c-.066.2.066.334.2.466.468 0 .736-.466 1.069-.733-.4-1.2.465-1.534 1.264-2.066.6-.132 1.466.334 1.733-.468-.667-1.6 2.132.069 2.066-1.8 2.2.2 2.732-2.532 5.065-2 2.933-3.134 7.464-3.4 10.93-5.866 5.93-2 16.391-6.528 20.057 2.267"/>
            <path id="Path_153" data-name="Path 153" class="cls-2" d="M2037.671 179.42c-.132.334-.532.267-.733.267v-.534c.2 0 .6-.066.733.267"/>
            <path id="Path_154" data-name="Path 154" class="cls-2" d="M2104.157 160.056c-.4.4-1.066 1.2-1.531.535h-.267a2.422 2.422 0 0 1 1.8-.535"/>
            <path id="Path_155" data-name="Path 155" class="cls-2" d="M2097.151 165.911c-.535-.066-1.333.2-1.8-.267.466-.6 1.333.066 1.8-.532z"/>
            <path id="Path_156" data-name="Path 156" class="cls-2" d="M2100.958 162.256c-1.333 0-2.6-.133-3.531 1.066l-.267-.268c.2-1.264 2.666-.666 3.8-1.531z"/>
            <path id="Path_157" data-name="Path 157" class="cls-2" d="M2105.719 162.1c-.535-.066-1.334.2-1.8-.267.465-.6 1.333.068 1.8-.532z"/>
            <path id="Path_158" data-name="Path 158" class="cls-2" d="m2102.386 163.445.265-1-.529-.534z"/>
        </g>
    </g>
</svg>
