<svg xmlns="http://www.w3.org/2000/svg" width="56.613" height="56.613" viewBox="0 0 56.613 56.613">
    <defs>
        <style>
            .cls-1{fill:#3a4354}
        </style>
    </defs>
    <g id="Group_157" transform="translate(-1957.827 -1064.756)">
        <path id="Path_360" d="M1964.245 1077.48a1.483 1.483 0 0 0-2.046.46 28.307 28.307 0 1 0 8.86-8.842 1.482 1.482 0 0 0 1.581 2.508 25.352 25.352 0 1 1-4.425 39.387 25.513 25.513 0 0 1-3.511-31.467 1.483 1.483 0 0 0-.459-2.046z" class="cls-1"/>
        <path id="Path_361" d="M2005.411 1094.575h1.828a1.482 1.482 0 0 0 0-2.965h-1.828a1.482 1.482 0 1 0 0 2.965z" class="cls-1"/>
        <path id="Path_362" d="M1963.558 1093.044a1.482 1.482 0 0 0 1.482 1.483h1.828a1.482 1.482 0 0 0 0-2.965h-1.828a1.482 1.482 0 0 0-1.482 1.482z" class="cls-1"/>
        <path id="Path_363" d="M1987.646 1073.8v-1.828a1.482 1.482 0 0 0-2.965 0v1.828a1.482 1.482 0 0 0 2.965 0z" class="cls-1"/>
        <path id="Path_364" d="M1984.633 1112.34v1.828a1.482 1.482 0 0 0 2.965 0v-1.828a1.482 1.482 0 1 0-2.965 0z" class="cls-1"/>
        <path id="Path_365" d="M1978.709 1083.541a1.483 1.483 0 0 0-2.1 2.1l5.024 5.024a5.107 5.107 0 1 0 9.006 0l10.137-10.137a1.482 1.482 0 0 0-2.1-2.1l-10.137 10.137a5.1 5.1 0 0 0-4.813 0zm9.572 9.527a2.142 2.142 0 1 1-2.142-2.142 2.145 2.145 0 0 1 2.142 2.142z" class="cls-1"/>
        <path id="Path_366" d="M1968.214 1075.143a1.48 1.48 0 1 0-1.048.435 1.49 1.49 0 0 0 1.048-.435z" class="cls-1"/>
    </g>
</svg>
