<svg xmlns="http://www.w3.org/2000/svg" width="14.809" height="16.585" viewBox="0 0 14.809 16.585">
    <path fill="#2d9483" d="M3807.106 185.4h5.432a2.423 2.423 0 0 1 1.149.239 1.537 1.537 0 0 1 .684 1.995 2.973 2.973 0 0 1-.66.989q-2.143 2.241-4.285 4.484a.456.456 0 0 0-.108.279q-.011 2.244 0 4.488a.917.917 0 0 1-.261.684q-1.486 1.563-2.959 3.143a.693.693 0 0 1-.841.219.769.769 0 0 1-.386-.8v-7.733a.39.39 0 0 0-.12-.3q-2.208-2.306-4.41-4.619a2.177 2.177 0 0 1-.646-1.358 1.439 1.439 0 0 1 .719-1.429 2.385 2.385 0 0 1 1.3-.287zm-5.832 1.678l-.026.054c.094.11.184.224.282.329q2.208 2.349 4.419 4.693a1.134 1.134 0 0 1 .325.838c-.008 1.574 0 3.148 0 4.721v1.487c.063-.057.1-.085.13-.119.466-.494.935-.986 1.394-1.489a.49.49 0 0 0 .111-.3q.012-2.187 0-4.372a.963.963 0 0 1 .269-.707c.322-.335.638-.677.957-1.016q1.781-1.893 3.56-3.787c.085-.09.16-.19.24-.286l-.026-.048z" transform="translate(-3799.688 -185.402)"/>
</svg>
