<svg xmlns="http://www.w3.org/2000/svg" width="24.48" height="24.48" viewBox="0 0 24.48 24.48">
    <defs>
        <style>
            .cls-1{fill:#00be4b}
        </style>
    </defs>
    <g id="Group_511" transform="translate(-2781.944 -1517.504)">
        <path id="Path_1208" d="M2794.184 1541.984a12.24 12.24 0 1 1 12.24-12.24 12.253 12.253 0 0 1-12.24 12.24zm0-22.694a10.454 10.454 0 1 0 10.455 10.454 10.466 10.466 0 0 0-10.455-10.454z" class="cls-1"/>
        <path id="Path_1209" d="M2793.078 1530.913c-.061-.057-.1-.09-.135-.126-.737-.736-1.471-1.474-2.211-2.208a.714.714 0 0 0-1.144 0q-.285.282-.565.567a.713.713 0 0 0 .009 1.142l3.436 3.436a.723.723 0 0 0 1.2 0q.844-.84 1.684-1.684l4.016-4.016a.711.711 0 0 0 0-1.1q-.281-.284-.567-.565a.722.722 0 0 0-1.169 0q-1.443 1.438-2.884 2.882c-.558.55-1.107 1.105-1.67 1.672z" class="cls-1"/>
    </g>
</svg>
