<svg id="Layer_1" data-name="Layer 1" xmlns="http://www.w3.org/2000/svg" viewBox="0 0 44.09 45.21"><defs><style>.cls-1{fill:#1582c8;}</style></defs><path class="cls-1" d="M21.55,18.09h3.19a2.78,2.78,0,0,1,2.77,3.11c-.09.89-.13,1.79-.2,2.68l-.18,2.49c0,.26-.06.51-.06.76a1.87,1.87,0,0,1-.9,1.61,7.21,7.21,0,0,1-1,.52c-.11,0-.17.09-.18.22,0,.64-.09,1.29-.13,1.94-.07.86-.13,1.73-.2,2.59s-.12,1.7-.19,2.55c0,.38,0,.75-.08,1.12a1.08,1.08,0,0,1-1.07.93H19.89a1.07,1.07,0,0,1-1.13-1.06c-.12-1.52-.23-3-.34-4.56-.09-1.16-.18-2.32-.26-3.48a.25.25,0,0,0-.21-.26,2.94,2.94,0,0,1-1.55-1,1.66,1.66,0,0,1-.35-.93l-.24-3.21c-.07-.83-.14-1.66-.18-2.49a5.6,5.6,0,0,1,0-1.36,2.68,2.68,0,0,1,2.59-2.13c.55,0,1.1,0,1.66,0ZM18.07,28.37c0-.25,0-.47-.05-.69-.06-.84-.12-1.68-.19-2.53,0-.7-.1-1.4-.16-2.11l-.09-1.24a.44.44,0,0,1,.41-.5.44.44,0,0,1,.47.4l.21,2.87.15,2c.06.81.13,1.62.19,2.43s.12,1.8.19,2.7.16,2.1.23,3.15c.07.85.13,1.7.19,2.55a.28.28,0,0,0,.32.31h1c.14,0,.17-.06.17-.18V28.46c0-.37.16-.58.44-.57s.43.2.43.58v9c0,.29,0,.3.28.3h.87c.28,0,.33-.05.36-.33.05-.62.09-1.25.13-1.87.08-1,.15-2.07.23-3.11.09-1.26.19-2.51.28-3.77.08-1,.14-2.06.22-3.08.1-1.27.2-2.54.29-3.8,0-.32.2-.5.47-.48a.46.46,0,0,1,.41.56l-.12,1.44c-.09,1.29-.19,2.59-.28,3.88,0,.39-.06.77-.08,1.19a2,2,0,0,0,1.05-.82.4.4,0,0,0,.07-.21c0-.58.09-1.16.14-1.73.06-.86.12-1.72.19-2.58s.12-1.43.14-2.15A1.85,1.85,0,0,0,24.75,19H18.34a1.85,1.85,0,0,0-1.87,1.9c0,.8.11,1.6.17,2.4.09,1.25.17,2.49.27,3.74a1.51,1.51,0,0,0,.14.6A1.92,1.92,0,0,0,18.07,28.37Z"/><path class="cls-1" d="M26.36,29.61c0,.45.08.88.11,1.31l.21,3c0,.15.07.27.24.27.4,0,.81,0,1.25,0V25a1.1,1.1,0,0,1,0-.31.43.43,0,0,1,.84.09,1.47,1.47,0,0,1,0,.21v9.23l.13,0h1.08c.17,0,.27-.07.28-.25.06-.73.12-1.46.17-2.19s.13-1.73.2-2.6.12-1.74.19-2.61.12-1.69.19-2.53.12-1.72.19-2.58.12-1.72.19-2.57c0-.24,0-.47,0-.7a.44.44,0,1,1,.87.06c-.05.74-.1,1.48-.16,2.22s-.13,1.77-.2,2.66c0,.47-.07,1-.11,1.43,0,.08,0,.17,0,.25a1.44,1.44,0,0,0,1.15-1.29c.1-1.43.21-2.86.32-4.29.05-.6.1-1.21.13-1.81a1.86,1.86,0,0,0-1.86-2H25.36a5,5,0,0,0-.53,0l.1-.9.33,0H32A2.71,2.71,0,0,1,34.55,17a10.36,10.36,0,0,1,0,1.67c0,.9-.13,1.8-.19,2.7s-.12,1.79-.22,2.68a1.72,1.72,0,0,1-.83,1.2,7.15,7.15,0,0,1-1.07.54c-.11.05-.16.09-.17.22-.09,1.28-.19,2.56-.29,3.84s-.17,2.51-.26,3.76a5.1,5.1,0,0,1-.08.67,1,1,0,0,1-1.05.87H26.9a1.13,1.13,0,0,1-1.1-1.2c-.05-.74-.14-1.48-.16-2.22,0-.56.05-1.12.09-1.69a.12.12,0,0,1,.07-.11C26,29.79,26.16,29.71,26.36,29.61Z"/><path class="cls-1" d="M11,24.84c0-.67-.09-1.32-.14-2-.06-.86-.13-1.72-.19-2.58-.05-.65-.09-1.31-.14-2,0-.32.12-.53.39-.54s.45.14.47.47c.1,1.29.2,2.59.29,3.88s.2,2.5.29,3.75c.08,1,.15,2.07.22,3.11l.24,3.18c.05.6.1,1.2.14,1.8,0,.15.08.24.23.24h1.26V25a1.47,1.47,0,0,1,0-.21.43.43,0,0,1,.85-.09,1.63,1.63,0,0,1,0,.31v9.23c.44,0,.85,0,1.27,0,.15,0,.21-.13.22-.27,0-.63.08-1.26.13-1.9.06-.8.12-1.61.19-2.45.2.1.39.18.57.28s.06.11.07.17a12.87,12.87,0,0,1,0,2.91c-.05.39-.05.79-.1,1.18a1.06,1.06,0,0,1-1.06,1H12.77a1.11,1.11,0,0,1-1.09-1.06c-.09-1.29-.19-2.56-.28-3.85l-.27-3.69c0-.22,0-.48-.07-.64s-.37-.16-.54-.27A7.45,7.45,0,0,1,9.59,25,1.84,1.84,0,0,1,9,23.62c-.05-.89-.13-1.79-.2-2.68l-.18-2.47c0-.29,0-.58-.05-.86a2.77,2.77,0,0,1,2-2.94,2.67,2.67,0,0,1,.69-.09h6.41l.52,0,.1.86h-4c-1,0-2,0-3,0A1.92,1.92,0,0,0,9.4,17.52c.08.95.14,1.9.21,2.85l.24,3.16A1.44,1.44,0,0,0,11,24.84Z"/><path class="cls-1" d="M21.57,17.21a2.55,2.55,0,1,1,2.53-2.55A2.54,2.54,0,0,1,21.57,17.21Zm1.64-2.54a1.66,1.66,0,1,0-1.65,1.67A1.65,1.65,0,0,0,23.21,14.67Z"/><path class="cls-1" d="M17,11.16a2.55,2.55,0,1,1-2.54-2.54A2.55,2.55,0,0,1,17,11.16Zm-4.21,0A1.67,1.67,0,1,0,14.49,9.5,1.67,1.67,0,0,0,12.82,11.17Z"/><path class="cls-1" d="M31.17,11.17a2.55,2.55,0,0,1-5.09,0,2.53,2.53,0,0,1,2.54-2.54A2.57,2.57,0,0,1,31.17,11.17Zm-.88,0a1.67,1.67,0,1,0-1.68,1.65A1.68,1.68,0,0,0,30.29,11.18Z"/></svg>