<svg xmlns="http://www.w3.org/2000/svg" width="25.431" height="23.055" viewBox="0 0 25.431 23.055">
    <path fill="#3a4354" d="M1770.9 273.768a11.544 11.544 0 0 0-11.41 9.893l-2.49-.611 3.963 5.764 3.963-5.764-2.86.624a8.984 8.984 0 1 1 7.985 10.566 4.321 4.321 0 0 1-1.232-.324 1.248 1.248 0 0 0-1.643.776 1.411 1.411 0 0 0 .178 1.285 1.58 1.58 0 0 0 1.049.6 12.066 12.066 0 0 0 5.591-.17 11.411 11.411 0 0 0 4.367-2.323 11.639 11.639 0 0 0 2.906-3.737 11.505 11.505 0 0 0 1.16-4.741v-.306a11.541 11.541 0 0 0-11.527-11.532z" transform="translate(-1756.999 -273.768)"/>
</svg>
