<svg width="217" height="55" viewBox="0 0 217 55" fill="none" xmlns="http://www.w3.org/2000/svg">
<path d="M25.9499 33.9438C25.9499 35.98 25.1202 37.5658 23.4632 38.7012C21.8062 39.8365 19.6202 40.4036 16.9052 40.4036C15.679 40.4036 14.4062 40.2931 13.0879 40.071C11.7697 39.85 10.5693 39.5493 9.48672 39.1701C8.40292 38.792 7.5732 38.3943 7 37.977L8.684 34.9613C9.51863 35.4842 10.6663 35.9408 12.1293 36.3323C13.5912 36.7238 15.1046 36.919 16.6707 36.919C19.7503 36.919 21.2907 36.1359 21.2907 34.5697C21.2907 33.2392 20.0375 32.4169 17.5324 32.1039L13.5384 31.5945C11.5537 31.3343 10.028 30.7329 8.95771 29.7939C7.88741 28.8537 7.35226 27.549 7.35226 25.8785C7.35226 23.8422 8.14762 22.2957 9.74079 21.2389C11.3327 20.1821 13.6415 19.6531 16.6707 19.6531C18.2627 19.6531 19.6717 19.7967 20.8991 20.0839C22.1253 20.3711 23.0913 20.7553 23.7958 21.2389C24.5003 21.7225 24.8538 22.2761 24.8538 22.9033C24.8538 23.2948 24.7164 23.6986 24.4427 24.1159C24.1677 24.5345 23.8486 24.8352 23.4828 25.0168C23.1441 24.6781 22.5831 24.3577 21.8 24.0582C21.017 23.7575 20.1296 23.5096 19.1366 23.3144C18.1448 23.1181 17.1531 23.0199 16.1613 23.0199C14.7781 23.0199 13.7016 23.2224 12.932 23.6274C12.1612 24.0325 11.7771 24.6253 11.7771 25.4084C11.7771 26.0086 12.0434 26.4983 12.5786 26.8764C13.1137 27.2556 13.9557 27.522 15.1046 27.6791L19.0973 28.1885C23.6657 28.7629 25.9499 30.6813 25.9499 33.9438Z" fill="#231F20"/>
<path d="M34.4846 36.4301C35.3721 36.9137 36.7688 37.1543 38.6738 37.1543C39.4569 37.1543 40.2534 37.1224 41.0623 37.0561C41.8712 36.991 42.4984 36.9064 42.9415 36.802V31.086C42.367 30.9559 41.6171 30.8577 40.6904 30.7926C39.7637 30.7276 38.9487 30.6945 38.2442 30.6945C36.338 30.6945 35.0137 30.9755 34.2698 31.5365C33.526 32.0974 33.1541 32.9259 33.1541 34.022C33.1541 35.145 33.5972 35.9477 34.4846 36.4301ZM47.3663 39.7773C46.0087 39.9601 44.5408 40.1099 42.9611 40.2277C41.3814 40.3455 39.9527 40.4032 38.6738 40.4032C35.4383 40.4032 32.9639 39.8951 31.2541 38.8776C29.5456 37.8588 28.6901 36.2018 28.6901 33.9041C28.6901 31.8691 29.4277 30.3029 30.9031 29.2068C32.376 28.1095 34.7719 27.5621 38.0871 27.5621C38.8444 27.5621 39.6925 27.5879 40.6315 27.6407C41.5717 27.6922 42.329 27.7573 42.9022 27.8358C42.9022 26.2439 42.4124 25.0828 41.4342 24.3512C40.456 23.6209 39.0003 23.2552 37.0696 23.2552C35.8422 23.2552 34.7264 23.3865 33.7212 23.6467C32.716 23.9081 31.9918 24.2346 31.5487 24.6249C31.2602 24.4175 31.0135 24.1229 30.8049 23.7449C30.595 23.3668 30.4907 22.9679 30.4907 22.5506C30.4907 21.6632 31.0393 20.9587 32.1354 20.4358C33.2315 19.9142 34.8504 19.6527 36.991 19.6527C40.4093 19.6527 42.9942 20.3523 44.7433 21.7479C46.4911 23.1447 47.3663 25.2264 47.3663 27.9929V39.7773Z" fill="#231F20"/>
<path d="M56.7617 36.4301C57.6492 36.9137 59.0459 37.1543 60.9509 37.1543C61.734 37.1543 62.5305 37.1224 63.3394 37.0561C64.1483 36.991 64.7755 36.9064 65.2186 36.802V31.086C64.6441 30.9559 63.8942 30.8577 62.9675 30.7926C62.0408 30.7276 61.2258 30.6945 60.5213 30.6945C58.6151 30.6945 57.2908 30.9755 56.5469 31.5365C55.8031 32.0974 55.4312 32.9259 55.4312 34.022C55.4312 35.145 55.8743 35.9477 56.7617 36.4301ZM69.6434 39.7773C68.2858 39.9601 66.8179 40.1099 65.2382 40.2277C63.6585 40.3455 62.2298 40.4032 60.9509 40.4032C57.7154 40.4032 55.241 39.8951 53.5312 38.8776C51.8227 37.8588 50.9672 36.2018 50.9672 33.9041C50.9672 31.8691 51.7048 30.3029 53.1802 29.2068C54.6531 28.1095 57.049 27.5621 60.3642 27.5621C61.1215 27.5621 61.9696 27.5879 62.9086 27.6407C63.8488 27.6922 64.6061 27.7573 65.1793 27.8358C65.1793 26.2439 64.6895 25.0828 63.7113 24.3512C62.7331 23.6209 61.2774 23.2552 59.3467 23.2552C58.1193 23.2552 57.0035 23.3865 55.9983 23.6467C54.9931 23.9081 54.2689 24.2346 53.8258 24.6249C53.5373 24.4175 53.2906 24.1229 53.082 23.7449C52.8721 23.3669 52.7678 22.9679 52.7678 22.5506C52.7678 21.6632 53.3164 20.9587 54.4125 20.4358C55.5086 19.9142 57.1275 19.6527 59.2681 19.6527C62.6864 19.6527 65.2713 20.3523 67.0204 21.7479C68.7682 23.1447 69.6434 25.2264 69.6434 27.9929V39.7773Z" fill="#231F20"/>
<path d="M74.2236 27.2095C74.2236 24.8344 74.9613 22.981 76.4354 21.6493C77.9108 20.3188 79.9532 19.6523 82.5638 19.6523C84.3387 19.6523 85.7085 19.9138 86.6744 20.4366C87.6392 20.9583 88.1228 21.6235 88.1228 22.4324C88.1228 22.8509 88.0111 23.2683 87.7901 23.6856C87.568 24.1029 87.3532 24.3778 87.1445 24.5079C85.9957 23.9335 84.7032 23.6463 83.2684 23.6463C80.2146 23.6463 78.6865 25.2652 78.6865 28.5019V39.8554H74.2236V27.2095Z" fill="#231F20"/>
<path d="M90.667 16.7165C90.667 16.0377 90.8892 15.5222 91.3322 15.17C91.7766 14.8177 92.351 14.6409 93.0555 14.6409C93.4213 14.6409 93.7993 14.6802 94.1909 14.7588C94.5824 14.8373 94.8954 14.9417 95.1298 15.0718V20.2011H100.808C102.374 20.2011 103.157 20.8933 103.157 22.2766C103.157 23.0339 102.986 23.7127 102.648 24.3117H95.1298V33.0042C95.1298 34.1002 95.417 34.9496 95.9915 35.5486C96.5659 36.15 97.414 36.4495 98.5371 36.4495C99.1631 36.4495 99.8099 36.3586 100.475 36.1758C101.14 35.9929 101.707 35.7449 102.178 35.432L103.979 38.4072C103.299 38.9816 102.38 39.4578 101.219 39.8359C100.057 40.2139 98.8624 40.4042 97.6362 40.4042C95.5226 40.4042 93.8312 39.8236 92.5658 38.6613C91.3003 37.5001 90.667 35.9278 90.667 33.9443V16.7165Z" fill="#231F20"/>
<path d="M106.289 13.0755C106.289 12.3968 106.511 11.8813 106.954 11.529C107.398 11.1768 107.973 11 108.677 11C109.043 11 109.421 11.0393 109.813 11.1178C110.204 11.1964 110.517 11.3007 110.752 11.4308V22.2369C111.457 21.4023 112.371 20.7628 113.494 20.3185C114.616 19.8754 115.869 19.6532 117.252 19.6532C119.81 19.6532 121.8 20.3651 123.222 21.7864C124.645 23.2102 125.357 25.1606 125.357 27.6399V39.8563H120.892V28.9717C120.892 27.1968 120.527 25.8786 119.796 25.017C119.066 24.1553 117.891 23.7245 116.273 23.7245C114.55 23.7245 113.199 24.2081 112.221 25.1741C111.241 26.14 110.752 27.5368 110.752 29.3632V39.8563H106.289V13.0755Z" fill="#231F20"/>
<path d="M134.596 39.8558H130.133V22.2769C130.133 21.5982 130.354 21.0814 130.798 20.7292C131.241 20.3769 131.817 20.2014 132.52 20.2014C132.886 20.2014 133.265 20.2406 133.657 20.3192C134.048 20.3965 134.361 20.5021 134.596 20.6322V39.8558ZM130.426 16.0896C129.917 15.5679 129.663 14.9162 129.663 14.1319C129.663 13.35 129.917 12.697 130.426 12.1754C130.935 11.6537 131.581 11.3923 132.364 11.3923C133.147 11.3923 133.793 11.6537 134.302 12.1754C134.812 12.697 135.066 13.35 135.066 14.1319C135.066 14.9162 134.812 15.5679 134.302 16.0896C133.793 16.6124 133.147 16.8739 132.364 16.8739C131.581 16.8739 130.935 16.6124 130.426 16.0896" fill="#231F20"/>
<path d="M207.227 30.2488C207.227 34.9718 203.099 41.6232 193.922 41.6232C185.827 41.6232 182.394 37.0879 177.851 30.0205C182.16 23.2722 185.485 17.5402 193.922 17.5402C198.141 17.5402 201.457 18.7136 203.778 21.0273C206.042 23.2833 207.266 26.5469 207.227 30.2169V30.2488ZM156.198 41.6232C150.379 41.6232 144.15 37.0523 144.15 30.2488C144.15 23.9227 148.204 17.5402 157.261 17.5402C165.889 17.5402 169.308 23.19 173.528 29.9837C169.145 36.6853 165.232 41.6232 156.198 41.6232V41.6232ZM206.362 18.0508C203.284 14.9394 198.918 13.2947 193.738 13.2947C188.911 13.2947 184.861 14.8375 181.36 18.0091C179.183 19.9803 177.421 22.3946 175.796 24.8777C171.9 18.9333 166.955 13.2947 157.444 13.2947C152.309 13.2947 147.923 15.0376 144.757 18.3319C141.814 21.3955 140.194 25.6043 140.194 30.1825C140.194 34.5778 142.035 38.6356 145.377 41.6072C148.422 44.3148 152.471 45.8687 156.486 45.8687C161.876 45.8687 166.367 44.3259 170.217 41.1531C172.384 39.3684 174.161 37.2131 175.739 34.9718C179.438 40.4694 184.444 45.8687 193.738 45.8687C198.704 45.8687 203.207 44.0988 206.418 40.8867C209.326 37.9765 210.995 34.0807 210.999 30.1972C211.046 25.4337 209.4 21.1194 206.362 18.0508" fill="#00A79E"/>
<path d="M153.533 23.1725H161.801V25.9501H156.674V28.6848H161.395V31.4195H156.674V35.9915H153.533V23.1725Z" fill="#231F20"/>
<path d="M191.541 29.3254L187.418 23.1724H191.071L193.485 26.997L195.771 23.1724H199.382L195.302 29.5598L199.595 35.9914H196.007L193.358 31.9533L190.815 35.9914H187.226L191.541 29.3254Z" fill="#231F20"/>
</svg>
