<svg xmlns="http://www.w3.org/2000/svg" width="63.321" height="60.659" viewBox="0 0 63.321 60.659">
    <defs>
        <style>
            .cls-1{fill:#3a4354}
        </style>
    </defs>
    <g id="Group_156" transform="translate(-1599.119 -1062.767)">
        <g id="Group_155">
            <g id="Group_153">
                <path id="Path_346" d="M1609.776 1085.8a7.489 7.489 0 1 1 7.488-7.489 7.5 7.5 0 0 1-7.488 7.489zm0-12.689a5.2 5.2 0 1 0 5.2 5.2 5.207 5.207 0 0 0-5.2-5.205z" class="cls-1"/>
            </g>
            <path id="Path_347" d="M1614.821 1114.863a1.144 1.144 0 0 1-1.144-1.144v-18.608a1.144 1.144 0 0 1 2.289 0v18.608a1.145 1.145 0 0 1-1.145 1.144z" class="cls-1"/>
            <path id="Path_348" d="M1604.729 1114.863a1.145 1.145 0 0 1-1.145-1.144v-18.608a1.145 1.145 0 0 1 2.289 0v18.608a1.144 1.144 0 0 1-1.144 1.144z" class="cls-1"/>
            <path id="Path_349" d="M1617.168 1105.36a3.492 3.492 0 0 1-3.463-3.511 1.145 1.145 0 0 1 2.289 0 1.2 1.2 0 0 0 1.174 1.222c.674 0 .975-.613.975-1.222v-6.263a5.755 5.755 0 0 0-5.748-5.748h-5.239a5.755 5.755 0 0 0-5.749 5.748v6.263c0 .609.3 1.222.976 1.222a1.2 1.2 0 0 0 1.174-1.222 1.144 1.144 0 1 1 2.288 0 3.491 3.491 0 0 1-3.462 3.511 3.319 3.319 0 0 1-3.264-3.511v-6.263a8.046 8.046 0 0 1 8.037-8.037h5.239a8.047 8.047 0 0 1 8.037 8.037v6.263a3.319 3.319 0 0 1-3.264 3.511z" class="cls-1"/>
            <path id="Path_350" d="M1609.775 1114.863a1.145 1.145 0 0 1-1.144-1.145v-9.52a1.144 1.144 0 1 1 2.288 0v9.52a1.145 1.145 0 0 1-1.144 1.145z" class="cls-1"/>
            <g id="Group_154">
                <path id="Path_351" d="M1651.784 1085.8a7.489 7.489 0 1 1 7.488-7.489 7.5 7.5 0 0 1-7.488 7.489zm0-12.689a5.2 5.2 0 1 0 5.2 5.2 5.207 5.207 0 0 0-5.2-5.205z" class="cls-1"/>
            </g>
            <path id="Path_352" d="M1656.829 1114.863a1.144 1.144 0 0 1-1.144-1.144v-18.608a1.144 1.144 0 0 1 2.289 0v18.608a1.145 1.145 0 0 1-1.145 1.144z" class="cls-1"/>
            <path id="Path_353" d="M1646.737 1114.863a1.145 1.145 0 0 1-1.145-1.144v-18.608a1.144 1.144 0 0 1 2.289 0v18.608a1.144 1.144 0 0 1-1.144 1.144z" class="cls-1"/>
            <path id="Path_354" d="M1659.176 1105.36a3.491 3.491 0 0 1-3.463-3.511 1.144 1.144 0 0 1 2.289 0 1.2 1.2 0 0 0 1.174 1.222c.674 0 .975-.613.975-1.222v-6.263a5.754 5.754 0 0 0-5.748-5.748h-5.239a5.754 5.754 0 0 0-5.748 5.748v6.263c0 .609.3 1.222.975 1.222a1.2 1.2 0 0 0 1.174-1.222 1.145 1.145 0 0 1 2.289 0 3.491 3.491 0 0 1-3.463 3.511 3.319 3.319 0 0 1-3.264-3.511v-6.263a8.046 8.046 0 0 1 8.037-8.037h5.239a8.046 8.046 0 0 1 8.037 8.037v6.263a3.319 3.319 0 0 1-3.264 3.511z" class="cls-1"/>
            <path id="Path_355" d="M1651.783 1114.863a1.145 1.145 0 0 1-1.144-1.145v-9.52a1.144 1.144 0 1 1 2.289 0v9.52a1.145 1.145 0 0 1-1.145 1.145z" class="cls-1"/>
            <path id="Path_356" d="M1639.628 1070.509a1.144 1.144 0 0 1-.424-2.207l2.835-1.132-1.178-2.817a1.145 1.145 0 1 1 2.112-.883l1.626 3.89a1.143 1.143 0 0 1-.631 1.5l-3.916 1.564a1.147 1.147 0 0 1-.424.085z" class="cls-1"/>
            <path id="Path_357" d="M1617.905 1069.485a1.145 1.145 0 0 1-.527-2.161 30.4 30.4 0 0 1 13.91-3.373 30.057 30.057 0 0 1 12.742 2.8 1.145 1.145 0 1 1-.963 2.077 28.08 28.08 0 0 0-24.637.529 1.141 1.141 0 0 1-.525.128z" class="cls-1"/>
            <path id="Path_358" d="M1619.782 1123.426a1.145 1.145 0 0 1-1.072-.744l-1.476-3.949a1.145 1.145 0 0 1 .689-1.479l3.973-1.412a1.144 1.144 0 1 1 .766 2.156l-2.877 1.023 1.069 2.86a1.144 1.144 0 0 1-1.072 1.545z" class="cls-1"/>
            <path id="Path_359" d="M1631.562 1122.673q-.579 0-1.158-.022a30.061 30.061 0 0 1-12.625-3.289 1.144 1.144 0 1 1 1.043-2.037 28.08 28.08 0 0 0 24.639.417 1.145 1.145 0 0 1 .973 2.072 30.392 30.392 0 0 1-12.872 2.859z" class="cls-1"/>
        </g>
    </g>
</svg>
