<svg xmlns="http://www.w3.org/2000/svg" width="33.606" height="29.091" viewBox="0 0 33.606 29.091">
    <defs>
        <style>
            .cls-1{fill:#3a4354}
        </style>
    </defs>
    <g id="Group_134" transform="translate(-39.428 -212.909)">
        <path id="Path_29" d="M56.6 234a.647.647 0 0 1-.319-.084l-1.38-.8a.661.661 0 0 1-.291-.774l.52-1.406-.009-.031-.512-.89-1.47-.236a.664.664 0 0 1-.537-.641v-1.6a.661.661 0 0 1 .525-.64l1.5-.272.513-.888-.528-1.395a.663.663 0 0 1 .287-.785l1.381-.8a.662.662 0 0 1 .817.135l.956 1.154h.014l.016.008H59.1l.943-1.154a.666.666 0 0 1 .824-.144l1.38.795a.662.662 0 0 1 .291.775l-.52 1.406.009.031.512.889 1.471.237a.663.663 0 0 1 .537.641v1.6a.661.661 0 0 1-.526.639h-.01l-1.489.271-.513.887.529 1.4a.665.665 0 0 1-.287.785l-1.382.8a.663.663 0 0 1-.816-.135l-.957-1.155h-.014l-.016-.008h-1.021l-.943 1.155a.674.674 0 0 1-.502.23zm-1.171-1.517l1.14.657.876-1.059a.862.862 0 0 1 .653-.278h.963a.846.846 0 0 1 .645.27l.884 1.067 1.142-.659-.48-1.288a.853.853 0 0 1 .085-.705l.481-.834a.846.846 0 0 1 .557-.424l1.362-.23v-1.321l-1.355-.227a.85.85 0 0 1-.568-.426l-.481-.834a.84.84 0 0 1-.089-.694l.48-1.3-1.14-.657-.876 1.058a.856.856 0 0 1-.653.279h-.963a.839.839 0 0 1-.645-.27l-.884-1.066-1.141.659.479 1.288a.85.85 0 0 1-.085.7l-.48.834a.845.845 0 0 1-.557.425l-1.366.23V229l1.355.228a.847.847 0 0 1 .567.426l.482.833a.848.848 0 0 1 .089.694zm3.15-1.751h-.109a2.4 2.4 0 0 1-.907-.225 2.394 2.394 0 0 1-1.374-2.274 2.394 2.394 0 0 1 4.158-1.5 2.8 2.8 0 0 1 .384.592 2.712 2.712 0 0 1 .154.427 2.759 2.759 0 0 1 .083.7 2.385 2.385 0 0 1-1.576 2.138 2.37 2.37 0 0 1-.816.142zm0-3.968a1.57 1.57 0 0 0-1.426.907 1.562 1.562 0 0 0-.056 1.205 1.564 1.564 0 0 0 .317.525 1.576 1.576 0 0 0 2.739-.989 1.953 1.953 0 0 0-.059-.463 1.794 1.794 0 0 0-.1-.277 1.914 1.914 0 0 0-.251-.393 1.584 1.584 0 0 0-.5-.365 1.6 1.6 0 0 0-.6-.149z" class="cls-1"/>
        <path id="Path_49" d="M73.034 242h-29.6a4.008 4.008 0 0 1-4-4v-21.537a3.554 3.554 0 0 1 7.052-.63h26.548zm-30.052-27.878a2.343 2.343 0 0 0-2.341 2.341V238a2.794 2.794 0 0 0 2.791 2.79h28.389v-23.745H46.536v21.771l-1.007-.89a4.334 4.334 0 0 0-3.218-.973.606.606 0 0 1-.211-1.194 5.04 5.04 0 0 1 3.224.585v-19.881a2.344 2.344 0 0 0-2.342-2.341z" class="cls-1"/>
    </g>
</svg>
