<svg xmlns="http://www.w3.org/2000/svg" width="34.887" height="36.5" viewBox="0 0 34.887 36.5">
    <defs>
        <style>
            .cls-1{fill:#fff}
        </style>
    </defs>
    <g id="Group_313" transform="translate(-1042.29 -5268.756)">
        <path id="Path_381" d="M1059.027 5300.549a1 1 0 1 0 1.413 0 1.023 1.023 0 0 0-1.413 0z" class="cls-1"/>
        <path id="Path_382" d="M1059.026 5297.549a1 1 0 1 0 1.414 0 1.024 1.024 0 0 0-1.414 0z" class="cls-1"/>
        <path id="Path_383" d="M1074.171 5295.935l-.141-.041a12.833 12.833 0 0 1-2.512-.938c-.272-.13-.518-.248-.784-.349a12.118 12.118 0 0 1-3.317-1.693l-.4-2.986a13.341 13.341 0 0 0 2.587-6.423h.578a.659.659 0 0 0 .618-1.028 4.321 4.321 0 0 0-.834-1v-1.745a10.283 10.283 0 0 0-9.251-10.183 1 1 0 0 0-1.953 0 10.284 10.284 0 0 0-9.256 10.184v1.745a4.367 4.367 0 0 0-.833.994.66.66 0 0 0 .619 1.029h.576a13.346 13.346 0 0 0 2.587 6.423l-.4 2.986a12.132 12.132 0 0 1-3.318 1.693c-.267.1-.514.219-.785.349a12.811 12.811 0 0 1-2.516.939l-.136.04a4.362 4.362 0 0 0-3.005 4.142v5.179h34.887v-5.179a4.364 4.364 0 0 0-3.011-4.138zm-17.688 1.641v5.68h-12.194v-3.179a2.364 2.364 0 0 1 1.6-2.232l.079-.023a14.7 14.7 0 0 0 2.843-1.063c.234-.112.435-.208.632-.283a16.536 16.536 0 0 0 3.458-1.7l2.337 2.6a1.029 1.029 0 0 0 1.245.2zm11.48-17.455a21.774 21.774 0 0 0-16.46 0v-.384a8.041 8.041 0 0 1 .656-3.195 8.25 8.25 0 0 1 1.786-2.621 8.351 8.351 0 0 1 2.627-1.77 8.112 8.112 0 0 1 6.322 0 8.395 8.395 0 0 1 4.414 4.391 8.05 8.05 0 0 1 .655 3.195zm-12.993.879a23.2 23.2 0 0 1 9.526 0 12.969 12.969 0 0 1 1.66.5h-12.846a12.967 12.967 0 0 1 1.66-.5zm10.448 12.057l-2.024 2.254-1.3-1.122a12 12 0 0 0 3.171-2.252zm2.171-9.552a11.823 11.823 0 0 1-2.955 6.2 11.608 11.608 0 0 1-2.73 2.324 3.49 3.49 0 0 1-4.342 0 11.6 11.6 0 0 1-2.73-2.324 11.815 11.815 0 0 1-2.955-6.2zm-10.22 10.684l-1.3 1.122-2.023-2.254.15-1.12a12.032 12.032 0 0 0 3.173 2.252zm1.114 1.683l1.25-1.08 1.251 1.08v7.384h-2.5zm4.5 1.7a1.034 1.034 0 0 0 1.246-.2l2.337-2.6a16.491 16.491 0 0 0 3.458 1.7c.2.075.4.171.638.286a14.725 14.725 0 0 0 2.831 1.059l.074.02a2.369 2.369 0 0 1 1.61 2.236v3.179h-12.194z" class="cls-1"/>
        <path id="Path_384" d="M1061.234 5274.023h-1.125l.454-.675a1 1 0 1 0-1.66-1.115l-1.5 2.232a1 1 0 0 0 .83 1.558h1.124l-.454.676a1 1 0 1 0 1.66 1.114l1.5-2.232a1 1 0 0 0-.829-1.558z" class="cls-1"/>
    </g>
</svg>
