<svg xmlns="http://www.w3.org/2000/svg" width="38.492" height="30.245" viewBox="0 0 38.492 30.245">
    <g>
        <g>
            <path fill="#1582c8" d="M4113.066 4548.059l-9.624-9.623a1.374 1.374 0 0 0-2.346.972v4.124h-9.624a1.375 1.375 0 0 0 0 2.75h11a1.375 1.375 0 0 0 1.375-1.375v-2.181l6.3 6.3-6.3 6.305v-2.181a1.374 1.374 0 0 0-1.375-1.374h-15.122v-4.125a1.375 1.375 0 0 0-2.347-.972l-9.623 9.624a1.375 1.375 0 0 0 0 1.943l9.624 9.624a1.376 1.376 0 0 0 .971.4 1.356 1.356 0 0 0 .527-.1 1.374 1.374 0 0 0 .848-1.27v-4.124h9.623a1.375 1.375 0 0 0 0-2.75h-11a1.374 1.374 0 0 0-1.374 1.375v2.18l-6.305-6.3 6.305-6.3v2.18a1.374 1.374 0 0 0 1.374 1.375h15.127v4.124a1.374 1.374 0 0 0 2.346.972l9.624-9.623a1.376 1.376 0 0 0-.004-1.95z" transform="translate(-4074.976 -4538.033)"/>
        </g>
    </g>
</svg>
