<svg xmlns="http://www.w3.org/2000/svg" width="31.638" height="36.436" viewBox="0 0 31.638 36.436">
    <defs>
        <style>
            .cls-1{fill:#3a4354}
        </style>
    </defs>
    <g id="Group_140" transform="translate(-40.637 -294.564)">
        <path id="Path_43" d="M56.456 306.065h3.884a3.379 3.379 0 0 1 3.365 3.785c-.116 1.081-.163 2.169-.242 3.254l-.223 3.023c-.023.308-.072.615-.071.922a2.276 2.276 0 0 1-1.1 1.952 7.62 7.62 0 0 1-1.254.63c-.14.061-.206.118-.216.265-.053.787-.111 1.573-.169 2.358q-.115 1.576-.235 3.151l-.228 3.1c-.033.453-.057.906-.106 1.357a1.3 1.3 0 0 1-1.3 1.13c-.531.011-1.063 0-1.6 0H54.44a1.307 1.307 0 0 1-1.378-1.294q-.208-2.766-.411-5.534c-.1-1.409-.211-2.818-.309-4.228a.307.307 0 0 0-.255-.318 3.62 3.62 0 0 1-1.887-1.258 2.067 2.067 0 0 1-.425-1.134c-.092-1.3-.2-2.6-.295-3.894-.075-1.008-.163-2.016-.21-3.025a6.739 6.739 0 0 1 .05-1.657 3.247 3.247 0 0 1 3.145-2.578c.669-.016 1.338-.006 2.006-.006zm-4.227 12.486c-.019-.3-.034-.568-.053-.83q-.114-1.537-.231-3.075-.1-1.281-.191-2.563c-.038-.5-.084-1.007-.115-1.512a.537.537 0 0 1 .5-.6.518.518 0 0 1 .564.479c.092 1.162.175 2.324.261 3.486.061.828.12 1.657.183 2.486.074.982.154 1.964.227 2.946.08 1.093.152 2.188.231 3.281.093 1.273.191 2.546.285 3.818.076 1.034.153 2.068.224 3.1.017.25.129.375.387.371.411 0 .823-.006 1.235 0 .162 0 .207-.064.2-.214-.007-.257 0-.514 0-.772V318.66c0-.449.195-.7.534-.7s.521.252.522.708v10.91c0 .355 0 .355.341.356s.7 0 1.054 0 .408-.066.434-.4c.06-.76.113-1.521.168-2.282.091-1.256.179-2.512.272-3.768.113-1.529.233-3.058.345-4.586.092-1.248.174-2.5.266-3.743.114-1.538.237-3.075.352-4.613.029-.381.239-.6.576-.576a.558.558 0 0 1 .492.681q-.076.871-.141 1.742-.178 2.358-.35 4.717c-.034.466-.062.933-.1 1.446a2.464 2.464 0 0 0 1.279-1 .681.681 0 0 0 .091-.264c.058-.7.108-1.4.159-2.1l.23-3.127c.063-.872.154-1.743.176-2.616a2.246 2.246 0 0 0-2.29-2.327q-3.9-.011-7.8 0a2.237 2.237 0 0 0-2.261 2.3c.026.976.128 1.949.2 2.923.108 1.512.212 3.025.33 4.537a1.815 1.815 0 0 0 .17.737 2.377 2.377 0 0 0 1.244.936z" class="cls-1"/>
        <path id="Path_44" d="M62.307 320.063c.044.548.088 1.065.126 1.583q.134 1.845.263 3.692c.013.181.082.331.282.335.5.011.992 0 1.525 0v-.342-10.884a1.341 1.341 0 0 1 .044-.38.513.513 0 0 1 .555-.36.528.528 0 0 1 .468.474c.008.085 0 .171 0 .257v11.2a.813.813 0 0 0 .155.034h1.312c.2 0 .326-.083.342-.3.067-.888.137-1.776.2-2.665q.119-1.576.234-3.153c.078-1.059.153-2.119.231-3.178q.114-1.537.232-3.075l.23-3.127q.115-1.564.232-3.126c.021-.282.04-.565.068-.846a.526.526 0 1 1 1.05.073c-.057.9-.122 1.8-.188 2.693-.079 1.076-.163 2.153-.244 3.229l-.131 1.743-.021.307a1.746 1.746 0 0 0 1.4-1.575c.125-1.734.262-3.468.393-5.2.055-.735.117-1.469.16-2.2a2.273 2.273 0 0 0-2.267-2.4h-7.874c-.212 0-.424.035-.653.055l.127-1.085a3.81 3.81 0 0 1 .406-.043c2.71 0 5.421-.013 8.131 0a3.3 3.3 0 0 1 3.149 2.893 13.432 13.432 0 0 1-.058 2.023c-.068 1.094-.158 2.188-.241 3.281s-.143 2.17-.263 3.25a2.073 2.073 0 0 1-1.011 1.46 8.87 8.87 0 0 1-1.3.659c-.135.062-.2.113-.209.268-.109 1.555-.23 3.109-.343 4.664-.111 1.521-.216 3.042-.327 4.563a5.661 5.661 0 0 1-.091.815 1.282 1.282 0 0 1-1.28 1.057q-2.083.017-4.168 0a1.377 1.377 0 0 1-1.347-1.459c-.054-.9-.163-1.793-.186-2.691-.017-.683.062-1.369.1-2.053a.2.2 0 0 1 .086-.142c.233-.106.456-.207.701-.324z" class="cls-1"/>
        <path id="Path_45" d="M43.653 314.262l-.174-2.379q-.115-1.564-.232-3.127c-.059-.8-.114-1.59-.173-2.384-.029-.386.149-.638.476-.661s.545.175.575.572c.12 1.572.234 3.144.353 4.716.114 1.52.236 3.04.349 4.56.093 1.256.175 2.512.268 3.768.095 1.29.2 2.58.295 3.87.055.726.11 1.452.161 2.179.013.182.1.3.283.3.495.008.992 0 1.527 0v-11.225-.257a.526.526 0 0 1 .484-.485.514.514 0 0 1 .543.377 1.42 1.42 0 0 1 .041.38v11.21c.532 0 1.036.008 1.539-.005.185-.005.253-.154.265-.324.055-.769.107-1.539.163-2.308.072-.98.148-1.96.225-2.976.248.118.48.218.7.339.05.028.075.129.083.2a15.906 15.906 0 0 1-.017 3.537c-.054.477-.062.958-.119 1.434a1.283 1.283 0 0 1-1.288 1.167q-2.1.021-4.194 0a1.335 1.335 0 0 1-1.312-1.292c-.11-1.555-.235-3.109-.35-4.664-.11-1.495-.214-2.991-.321-4.486-.019-.265.041-.582-.085-.778-.114-.176-.448-.2-.662-.325a8.352 8.352 0 0 1-1.126-.751 2.2 2.2 0 0 1-.754-1.656c-.055-1.087-.159-2.171-.239-3.256-.074-1-.144-2-.216-3-.025-.35-.036-.7-.072-1.051a3.377 3.377 0 0 1 2.454-3.566 3.431 3.431 0 0 1 .837-.108q3.9-.012 7.8 0c.211 0 .423.019.628.029l.123 1.043h-4.839c-1.218 0-2.437.033-3.654-.009a2.314 2.314 0 0 0-2.293 2.509c.094 1.153.17 2.307.256 3.46q.146 1.922.3 3.843a1.738 1.738 0 0 0 1.392 1.58z" class="cls-1"/>
        <path id="Path_46" d="M56.481 305.005a3.092 3.092 0 1 1 3.075-3.1 3.08 3.08 0 0 1-3.075 3.1zm2-3.1a2.013 2.013 0 1 0-2 2.039 2 2 0 0 0 2.001-2.035z" class="cls-1"/>
        <path id="Path_47" d="M50.975 297.657a3.092 3.092 0 1 1-3.089-3.093 3.092 3.092 0 0 1 3.089 3.093zm-5.112.007a2.028 2.028 0 1 0 2.02-2.033 2.028 2.028 0 0 0-2.02 2.033z" class="cls-1"/>
        <path id="Path_48" d="M68.146 297.662a3.093 3.093 0 1 1-3.1-3.1 3.119 3.119 0 0 1 3.1 3.1zm-1.073.015a2.028 2.028 0 1 0-2.043 2.008 2.039 2.039 0 0 0 2.043-2.008z" class="cls-1"/>
    </g>
</svg>
